<?xml version="1.0" encoding="utf-8" standalone="no"?>
<!DOCTYPE svg PUBLIC "-//W3C//DTD SVG 1.1//EN"
  "http://www.w3.org/Graphics/SVG/1.1/DTD/svg11.dtd">
<svg xmlns:xlink="http://www.w3.org/1999/xlink" width="432pt" height="288pt" viewBox="0 0 432 288" xmlns="http://www.w3.org/2000/svg" version="1.1">
 <metadata>
  <rdf:RDF xmlns:dc="http://purl.org/dc/elements/1.1/" xmlns:cc="http://creativecommons.org/ns#" xmlns:rdf="http://www.w3.org/1999/02/22-rdf-syntax-ns#">
   <cc:Work>
    <dc:type rdf:resource="http://purl.org/dc/dcmitype/StillImage"/>
    <dc:date>2025-10-07T15:53:14.255287</dc:date>
    <dc:format>image/svg+xml</dc:format>
    <dc:creator>
     <cc:Agent>
      <dc:title>Matplotlib v3.10.3, https://matplotlib.org/</dc:title>
     </cc:Agent>
    </dc:creator>
   </cc:Work>
  </rdf:RDF>
 </metadata>
 <defs>
  <style type="text/css">*{stroke-linejoin: round; stroke-linecap: butt}</style>
 </defs>
 <g id="figure_1">
  <g id="patch_1">
   <path d="M 0 288 
L 432 288 
L 432 0 
L 0 0 
z
" style="fill: #ffffff"/>
  </g>
  <g id="axes_1">
   <g id="patch_2">
    <path d="M 58.325 248.2 
L 421.2 248.2 
L 421.2 25.8 
L 58.325 25.8 
z
" style="fill: #ffffff"/>
   </g>
   <g id="matplotlib.axis_1">
    <g id="xtick_1">
     <g id="line2d_1">
      <path d="M 69.999761 248.2 
L 69.999761 25.8 
" clip-path="url(#pab91043b1c)" style="fill: none; stroke: #b0b0b0; stroke-opacity: 0.25; stroke-width: 0.8; stroke-linecap: square"/>
     </g>
     <g id="line2d_2">
      <defs>
       <path id="mf822f63d04" d="M 0 0 
L 0 3.5 
" style="stroke: #000000; stroke-width: 0.8"/>
      </defs>
      <g>
       <use xlink:href="#mf822f63d04" x="69.999761" y="248.2" style="stroke: #000000; stroke-width: 0.8"/>
      </g>
     </g>
     <g id="text_1">
      <text style="font-size: 10px; font-family: 'DejaVu Sans', 'Bitstream Vera Sans', 'Computer Modern Sans Serif', 'Lucida Grande', 'Verdana', 'Geneva', 'Lucid', 'Arial', 'Helvetica', 'Avant Garde', sans-serif; text-anchor: middle" x="69.999761" y="262.798438" transform="rotate(-0 69.999761 262.798438)">2.6</text>
     </g>
    </g>
    <g id="xtick_2">
     <g id="line2d_3">
      <path d="M 111.051212 248.2 
L 111.051212 25.8 
" clip-path="url(#pab91043b1c)" style="fill: none; stroke: #b0b0b0; stroke-opacity: 0.25; stroke-width: 0.8; stroke-linecap: square"/>
     </g>
     <g id="line2d_4">
      <g>
       <use xlink:href="#mf822f63d04" x="111.051212" y="248.2" style="stroke: #000000; stroke-width: 0.8"/>
      </g>
     </g>
     <g id="text_2">
      <text style="font-size: 10px; font-family: 'DejaVu Sans', 'Bitstream Vera Sans', 'Computer Modern Sans Serif', 'Lucida Grande', 'Verdana', 'Geneva', 'Lucid', 'Arial', 'Helvetica', 'Avant Garde', sans-serif; text-anchor: middle" x="111.051212" y="262.798438" transform="rotate(-0 111.051212 262.798438)">2.8</text>
     </g>
    </g>
    <g id="xtick_3">
     <g id="line2d_5">
      <path d="M 152.102664 248.2 
L 152.102664 25.8 
" clip-path="url(#pab91043b1c)" style="fill: none; stroke: #b0b0b0; stroke-opacity: 0.25; stroke-width: 0.8; stroke-linecap: square"/>
     </g>
     <g id="line2d_6">
      <g>
       <use xlink:href="#mf822f63d04" x="152.102664" y="248.2" style="stroke: #000000; stroke-width: 0.8"/>
      </g>
     </g>
     <g id="text_3">
      <text style="font-size: 10px; font-family: 'DejaVu Sans', 'Bitstream Vera Sans', 'Computer Modern Sans Serif', 'Lucida Grande', 'Verdana', 'Geneva', 'Lucid', 'Arial', 'Helvetica', 'Avant Garde', sans-serif; text-anchor: middle" x="152.102664" y="262.798438" transform="rotate(-0 152.102664 262.798438)">3.0</text>
     </g>
    </g>
    <g id="xtick_4">
     <g id="line2d_7">
      <path d="M 193.154116 248.2 
L 193.154116 25.8 
" clip-path="url(#pab91043b1c)" style="fill: none; stroke: #b0b0b0; stroke-opacity: 0.25; stroke-width: 0.8; stroke-linecap: square"/>
     </g>
     <g id="line2d_8">
      <g>
       <use xlink:href="#mf822f63d04" x="193.154116" y="248.2" style="stroke: #000000; stroke-width: 0.8"/>
      </g>
     </g>
     <g id="text_4">
      <text style="font-size: 10px; font-family: 'DejaVu Sans', 'Bitstream Vera Sans', 'Computer Modern Sans Serif', 'Lucida Grande', 'Verdana', 'Geneva', 'Lucid', 'Arial', 'Helvetica', 'Avant Garde', sans-serif; text-anchor: middle" x="193.154116" y="262.798438" transform="rotate(-0 193.154116 262.798438)">3.2</text>
     </g>
    </g>
    <g id="xtick_5">
     <g id="line2d_9">
      <path d="M 234.205567 248.2 
L 234.205567 25.8 
" clip-path="url(#pab91043b1c)" style="fill: none; stroke: #b0b0b0; stroke-opacity: 0.25; stroke-width: 0.8; stroke-linecap: square"/>
     </g>
     <g id="line2d_10">
      <g>
       <use xlink:href="#mf822f63d04" x="234.205567" y="248.2" style="stroke: #000000; stroke-width: 0.8"/>
      </g>
     </g>
     <g id="text_5">
      <text style="font-size: 10px; font-family: 'DejaVu Sans', 'Bitstream Vera Sans', 'Computer Modern Sans Serif', 'Lucida Grande', 'Verdana', 'Geneva', 'Lucid', 'Arial', 'Helvetica', 'Avant Garde', sans-serif; text-anchor: middle" x="234.205567" y="262.798438" transform="rotate(-0 234.205567 262.798438)">3.4</text>
     </g>
    </g>
    <g id="xtick_6">
     <g id="line2d_11">
      <path d="M 275.257019 248.2 
L 275.257019 25.8 
" clip-path="url(#pab91043b1c)" style="fill: none; stroke: #b0b0b0; stroke-opacity: 0.25; stroke-width: 0.8; stroke-linecap: square"/>
     </g>
     <g id="line2d_12">
      <g>
       <use xlink:href="#mf822f63d04" x="275.257019" y="248.2" style="stroke: #000000; stroke-width: 0.8"/>
      </g>
     </g>
     <g id="text_6">
      <text style="font-size: 10px; font-family: 'DejaVu Sans', 'Bitstream Vera Sans', 'Computer Modern Sans Serif', 'Lucida Grande', 'Verdana', 'Geneva', 'Lucid', 'Arial', 'Helvetica', 'Avant Garde', sans-serif; text-anchor: middle" x="275.257019" y="262.798438" transform="rotate(-0 275.257019 262.798438)">3.6</text>
     </g>
    </g>
    <g id="xtick_7">
     <g id="line2d_13">
      <path d="M 316.30847 248.2 
L 316.30847 25.8 
" clip-path="url(#pab91043b1c)" style="fill: none; stroke: #b0b0b0; stroke-opacity: 0.25; stroke-width: 0.8; stroke-linecap: square"/>
     </g>
     <g id="line2d_14">
      <g>
       <use xlink:href="#mf822f63d04" x="316.30847" y="248.2" style="stroke: #000000; stroke-width: 0.8"/>
      </g>
     </g>
     <g id="text_7">
      <text style="font-size: 10px; font-family: 'DejaVu Sans', 'Bitstream Vera Sans', 'Computer Modern Sans Serif', 'Lucida Grande', 'Verdana', 'Geneva', 'Lucid', 'Arial', 'Helvetica', 'Avant Garde', sans-serif; text-anchor: middle" x="316.30847" y="262.798438" transform="rotate(-0 316.30847 262.798438)">3.8</text>
     </g>
    </g>
    <g id="xtick_8">
     <g id="line2d_15">
      <path d="M 357.359922 248.2 
L 357.359922 25.8 
" clip-path="url(#pab91043b1c)" style="fill: none; stroke: #b0b0b0; stroke-opacity: 0.25; stroke-width: 0.8; stroke-linecap: square"/>
     </g>
     <g id="line2d_16">
      <g>
       <use xlink:href="#mf822f63d04" x="357.359922" y="248.2" style="stroke: #000000; stroke-width: 0.8"/>
      </g>
     </g>
     <g id="text_8">
      <text style="font-size: 10px; font-family: 'DejaVu Sans', 'Bitstream Vera Sans', 'Computer Modern Sans Serif', 'Lucida Grande', 'Verdana', 'Geneva', 'Lucid', 'Arial', 'Helvetica', 'Avant Garde', sans-serif; text-anchor: middle" x="357.359922" y="262.798438" transform="rotate(-0 357.359922 262.798438)">4.0</text>
     </g>
    </g>
    <g id="xtick_9">
     <g id="line2d_17">
      <path d="M 398.411374 248.2 
L 398.411374 25.8 
" clip-path="url(#pab91043b1c)" style="fill: none; stroke: #b0b0b0; stroke-opacity: 0.25; stroke-width: 0.8; stroke-linecap: square"/>
     </g>
     <g id="line2d_18">
      <g>
       <use xlink:href="#mf822f63d04" x="398.411374" y="248.2" style="stroke: #000000; stroke-width: 0.8"/>
      </g>
     </g>
     <g id="text_9">
      <text style="font-size: 10px; font-family: 'DejaVu Sans', 'Bitstream Vera Sans', 'Computer Modern Sans Serif', 'Lucida Grande', 'Verdana', 'Geneva', 'Lucid', 'Arial', 'Helvetica', 'Avant Garde', sans-serif; text-anchor: middle" x="398.411374" y="262.798438" transform="rotate(-0 398.411374 262.798438)">4.2</text>
     </g>
    </g>
    <g id="text_10">
     <text style="font-size: 10px; font-family: 'DejaVu Sans', 'Bitstream Vera Sans', 'Computer Modern Sans Serif', 'Lucida Grande', 'Verdana', 'Geneva', 'Lucid', 'Arial', 'Helvetica', 'Avant Garde', sans-serif; text-anchor: middle" x="239.7625" y="276.476562" transform="rotate(-0 239.7625 276.476562)">E (V)</text>
    </g>
   </g>
   <g id="matplotlib.axis_2">
    <g id="ytick_1">
     <g id="line2d_19">
      <path d="M 58.325 207.876641 
L 421.2 207.876641 
" clip-path="url(#pab91043b1c)" style="fill: none; stroke: #b0b0b0; stroke-opacity: 0.25; stroke-width: 0.8; stroke-linecap: square"/>
     </g>
     <g id="line2d_20">
      <defs>
       <path id="m0bf95b4313" d="M 0 0 
L -3.5 0 
" style="stroke: #000000; stroke-width: 0.8"/>
      </defs>
      <g>
       <use xlink:href="#m0bf95b4313" x="58.325" y="207.876641" style="stroke: #000000; stroke-width: 0.8"/>
      </g>
     </g>
     <g id="text_11">
      <text style="font-size: 10px; font-family: 'DejaVu Sans', 'Bitstream Vera Sans', 'Computer Modern Sans Serif', 'Lucida Grande', 'Verdana', 'Geneva', 'Lucid', 'Arial', 'Helvetica', 'Avant Garde', sans-serif; text-anchor: end" x="51.325" y="211.67586" transform="rotate(-0 51.325 211.67586)">−400</text>
     </g>
    </g>
    <g id="ytick_2">
     <g id="line2d_21">
      <path d="M 58.325 160.070582 
L 421.2 160.070582 
" clip-path="url(#pab91043b1c)" style="fill: none; stroke: #b0b0b0; stroke-opacity: 0.25; stroke-width: 0.8; stroke-linecap: square"/>
     </g>
     <g id="line2d_22">
      <g>
       <use xlink:href="#m0bf95b4313" x="58.325" y="160.070582" style="stroke: #000000; stroke-width: 0.8"/>
      </g>
     </g>
     <g id="text_12">
      <text style="font-size: 10px; font-family: 'DejaVu Sans', 'Bitstream Vera Sans', 'Computer Modern Sans Serif', 'Lucida Grande', 'Verdana', 'Geneva', 'Lucid', 'Arial', 'Helvetica', 'Avant Garde', sans-serif; text-anchor: end" x="51.325" y="163.869801" transform="rotate(-0 51.325 163.869801)">−300</text>
     </g>
    </g>
    <g id="ytick_3">
     <g id="line2d_23">
      <path d="M 58.325 112.264524 
L 421.2 112.264524 
" clip-path="url(#pab91043b1c)" style="fill: none; stroke: #b0b0b0; stroke-opacity: 0.25; stroke-width: 0.8; stroke-linecap: square"/>
     </g>
     <g id="line2d_24">
      <g>
       <use xlink:href="#m0bf95b4313" x="58.325" y="112.264524" style="stroke: #000000; stroke-width: 0.8"/>
      </g>
     </g>
     <g id="text_13">
      <text style="font-size: 10px; font-family: 'DejaVu Sans', 'Bitstream Vera Sans', 'Computer Modern Sans Serif', 'Lucida Grande', 'Verdana', 'Geneva', 'Lucid', 'Arial', 'Helvetica', 'Avant Garde', sans-serif; text-anchor: end" x="51.325" y="116.063742" transform="rotate(-0 51.325 116.063742)">−200</text>
     </g>
    </g>
    <g id="ytick_4">
     <g id="line2d_25">
      <path d="M 58.325 64.458465 
L 421.2 64.458465 
" clip-path="url(#pab91043b1c)" style="fill: none; stroke: #b0b0b0; stroke-opacity: 0.25; stroke-width: 0.8; stroke-linecap: square"/>
     </g>
     <g id="line2d_26">
      <g>
       <use xlink:href="#m0bf95b4313" x="58.325" y="64.458465" style="stroke: #000000; stroke-width: 0.8"/>
      </g>
     </g>
     <g id="text_14">
      <text style="font-size: 10px; font-family: 'DejaVu Sans', 'Bitstream Vera Sans', 'Computer Modern Sans Serif', 'Lucida Grande', 'Verdana', 'Geneva', 'Lucid', 'Arial', 'Helvetica', 'Avant Garde', sans-serif; text-anchor: end" x="51.325" y="68.257684" transform="rotate(-0 51.325 68.257684)">−100</text>
     </g>
    </g>
    <g id="text_15">
     <text style="font-size: 10px; font-family: 'DejaVu Sans', 'Bitstream Vera Sans', 'Computer Modern Sans Serif', 'Lucida Grande', 'Verdana', 'Geneva', 'Lucid', 'Arial', 'Helvetica', 'Avant Garde', sans-serif; text-anchor: middle" x="17.778125" y="137" transform="rotate(-90 17.778125 137)">dQ/dE (mAh g^-1 V^-1)</text>
    </g>
   </g>
   <g id="line2d_27">
    <path d="M 307.634933 85.819307 
L 305.901324 85.780732 
L 303.000264 85.402944 
L 298.318564 84.590595 
L 293.27299 83.477266 
L 287.827517 82.046027 
L 281.30751 80.094759 
L 272.599041 77.234044 
L 243.071373 67.336622 
L 233.309647 64.390693 
L 223.823073 61.752903 
L 214.24393 59.315377 
L 204.112665 56.972591 
L 193.914033 54.839262 
L 183.143967 52.807138 
L 171.182687 50.78523 
L 158.513518 48.878268 
L 145.096568 47.084602 
L 130.195209 45.323576 
L 114.383509 43.678529 
L 96.829961 42.076521 
L 79.845621 40.72347 
L 75.662488 40.628518 
L 74.819318 40.648368 
L 74.819318 40.648368 
" clip-path="url(#pab91043b1c)" style="fill: none; stroke: #1f77b4; stroke-width: 1.4; stroke-linecap: square"/>
   </g>
   <g id="line2d_28">
    <path d="M 398.589358 60.516856 
L 393.222676 62.307847 
L 387.651448 64.397624 
L 382.325532 66.614336 
L 377.237671 68.970402 
L 372.380607 71.475667 
L 368.095735 73.929642 
L 363.995624 76.528224 
L 360.074567 79.28039 
L 356.326853 82.195434 
L 352.746775 85.2829 
L 349.607425 88.272821 
L 346.599741 91.423245 
L 343.719325 94.741547 
L 340.961782 98.23485 
L 338.322713 101.909845 
L 335.573682 106.133214 
L 332.954704 110.586525 
L 330.46007 115.274489 
L 328.084071 120.199365 
L 325.637328 125.800822 
L 323.315859 131.67257 
L 320.947589 138.282474 
L 318.551742 145.662303 
L 316.145321 153.814673 
L 313.605618 163.218314 
L 310.588968 175.306278 
L 304.188114 201.35385 
L 302.482501 207.152178 
L 301.234212 210.695441 
L 300.107795 213.250583 
L 299.195709 214.811108 
L 298.490571 215.665519 
L 297.787923 216.184933 
L 297.186775 216.387297 
L 296.58591 216.36383 
L 295.984613 216.114706 
L 295.281604 215.539845 
L 294.575904 214.623471 
L 293.968018 213.592759 
L 293.764641 222.16443 
L 293.151898 206.843047 
L 292.637891 198.271519 
L 292.224171 194.038267 
L 291.912275 192.338447 
L 291.757343 191.864428 
L 291.550729 192.212659 
L 291.239401 193.706792 
L 290.821526 197.462651 
L 290.294423 204.887447 
L 289.868671 212.924018 
L 289.546839 202.508635 
L 287.339153 193.166804 
L 280.529072 163.763119 
L 277.995931 154.025552 
L 275.590896 145.621292 
L 273.192226 138.042598 
L 270.817466 131.277517 
L 268.486431 125.285737 
L 266.026524 119.585129 
L 263.63502 114.585282 
L 261.121512 109.836425 
L 258.480146 105.334618 
L 255.705067 101.073577 
L 253.038782 97.372329 
L 250.250714 93.859649 
L 247.336352 90.527935 
L 244.291187 87.369243 
L 241.110712 84.375469 
L 237.790415 81.538486 
L 234.325789 78.850255 
L 230.37629 76.078043 
L 226.243807 73.46358 
L 221.922484 70.997345 
L 217.406468 68.670247 
L 212.287621 66.296228 
L 206.925967 64.06501 
L 201.314062 61.96687 
L 194.982068 59.845752 
L 188.341914 57.85788 
L 180.874939 55.864789 
L 173.032103 54.002366 
L 164.239246 52.148365 
L 153.803284 50.194773 
L 147.749683 49.160491 
L 144.027961 48.716654 
L 140.874563 48.525193 
L 138.317527 48.523196 
L 138.317527 48.523196 
" clip-path="url(#pab91043b1c)" style="fill: none; stroke: #ff7f0e; stroke-width: 1.4; stroke-linecap: square"/>
   </g>
   <g id="line2d_29">
    <path d="M 403.573837 70.43665 
L 398.831427 72.611611 
L 393.934187 75.121632 
L 389.248133 77.773308 
L 384.766547 80.578736 
L 380.782283 83.329004 
L 376.963147 86.226284 
L 373.30376 89.277523 
L 369.798741 92.489515 
L 366.442711 95.868749 
L 363.230291 99.421228 
L 360.1561 103.152243 
L 357.214759 107.066098 
L 354.400888 111.165781 
L 351.506951 115.790081 
L 348.74789 120.630163 
L 346.116988 125.681189 
L 343.432746 131.316393 
L 340.7139 137.561427 
L 337.977399 144.424957 
L 335.0901 152.305887 
L 331.951249 161.570538 
L 327.852247 174.457712 
L 323.015342 189.555428 
L 320.855102 195.563938 
L 319.196708 199.560705 
L 317.786037 202.400161 
L 316.607486 204.301976 
L 315.545169 205.606936 
L 314.699845 206.344488 
L 313.857191 206.781171 
L 313.015952 206.950003 
L 312.280043 206.877461 
L 311.543418 206.599826 
L 310.805237 206.109734 
L 309.958619 205.265418 
L 309.000872 204.001665 
L 307.928031 202.216 
L 306.625225 199.57547 
L 305.078708 195.869985 
L 303.267985 190.918206 
L 300.80519 183.485718 
L 290.734195 152.331367 
L 287.847459 144.449841 
L 285.111509 137.58553 
L 282.393222 131.339605 
L 279.709539 125.703472 
L 276.886483 120.298661 
L 274.118596 115.472929 
L 271.215381 110.863165 
L 268.392493 106.776957 
L 265.441747 102.876415 
L 262.357762 99.158442 
L 259.13516 95.618653 
L 255.76856 92.251698 
L 252.252583 89.051531 
L 248.581849 86.011635 
L 244.750978 83.125202 
L 240.754592 80.385276 
L 236.587309 77.784875 
L 231.902176 75.132543 
L 227.005885 72.625526 
L 221.891718 70.255597 
L 216.162844 67.859519 
L 210.167879 65.602404 
L 203.89856 63.475405 
L 196.899574 61.340616 
L 189.569002 59.334833 
L 181.405729 57.335085 
L 172.328545 55.354449 
L 162.791235 53.503772 
L 152.779517 51.776163 
L 149.334386 51.440373 
L 146.421584 51.353191 
L 144.063722 51.442283 
L 144.063722 51.442283 
" clip-path="url(#pab91043b1c)" style="fill: none; stroke: #2ca02c; stroke-width: 1.4; stroke-linecap: square"/>
   </g>
   <g id="line2d_30">
    <path d="M 404.358654 71.142001 
L 399.676588 73.320401 
L 394.839234 75.830465 
L 390.207992 78.480538 
L 385.776364 81.281995 
L 381.834335 84.026186 
L 378.053613 86.914816 
L 374.428995 89.954558 
L 370.955275 93.151921 
L 367.627252 96.513108 
L 364.439719 100.043843 
L 361.387474 103.749155 
L 358.465312 107.633115 
L 355.457878 112.018819 
L 352.588775 116.616323 
L 349.851503 121.424198 
L 347.057619 126.803245 
L 344.399617 132.40646 
L 341.705179 138.609305 
L 338.990919 145.419179 
L 336.12445 153.230579 
L 333.005105 162.405563 
L 328.926763 175.163001 
L 324.108236 190.132738 
L 321.954803 196.117413 
L 320.301409 200.120174 
L 318.895036 202.985415 
L 317.720232 204.925141 
L 316.661503 206.276612 
L 315.714175 207.14211 
L 314.875052 207.601416 
L 314.037438 207.797904 
L 313.304812 207.75345 
L 312.571601 207.507313 
L 311.731887 206.975936 
L 310.889135 206.149695 
L 309.935897 204.9129 
L 308.868335 203.165432 
L 307.572343 200.580656 
L 306.034614 196.951051 
L 304.235309 192.095544 
L 301.790249 184.795548 
L 291.086868 151.954299 
L 288.192817 144.171425 
L 285.451648 137.399083 
L 282.729957 131.239069 
L 280.044709 125.680618 
L 277.221938 120.349237 
L 274.456224 115.58735 
L 271.557249 111.036423 
L 268.518513 106.697209 
L 265.566006 102.855875 
L 262.482182 99.192327 
L 259.261838 95.702238 
L 255.89977 92.380395 
L 252.390773 89.220943 
L 248.729645 86.217591 
L 244.91118 83.36378 
L 240.930175 80.652817 
L 236.455195 77.885366 
L 231.779171 75.267484 
L 226.895605 72.791027 
L 221.797996 70.448095 
L 216.091367 68.077335 
L 210.12357 65.842159 
L 203.461049 63.597833 
L 196.482579 61.488343 
L 188.710917 59.384523 
L 180.559989 57.412347 
L 171.503274 55.457077 
L 160.909466 53.418086 
L 154.277411 52.250461 
L 150.311151 51.776484 
L 146.853513 51.605273 
L 143.93087 51.682405 
L 143.93087 51.682405 
" clip-path="url(#pab91043b1c)" style="fill: none; stroke: #d62728; stroke-width: 1.4; stroke-linecap: square"/>
   </g>
   <g id="line2d_31">
    <path d="M 404.705682 71.111897 
L 400.020811 73.284493 
L 395.180142 75.787803 
L 390.545323 78.430711 
L 386.109894 81.224601 
L 382.164174 83.961431 
L 378.379638 86.84242 
L 374.751116 89.874297 
L 371.273438 93.063647 
L 367.941431 96.416777 
L 364.749927 99.939544 
L 361.693752 103.637143 
L 358.767738 107.513861 
L 355.966713 111.572766 
L 353.084074 116.149325 
L 350.333938 120.938168 
L 347.527064 126.299928 
L 344.85694 131.890315 
L 342.150588 138.086093 
L 339.424885 144.898286 
L 336.5472 152.727795 
L 333.55498 161.529635 
L 329.836443 173.200799 
L 323.929459 191.808872 
L 321.795959 197.745106 
L 320.156971 201.690885 
L 318.762175 204.493896 
L 317.596535 206.372352 
L 316.545652 207.663828 
L 315.709336 208.393133 
L 314.875616 208.832147 
L 314.043288 209.006467 
L 313.315194 208.940626 
L 312.586436 208.671399 
L 311.751721 208.109701 
L 310.913878 207.253991 
L 309.966066 205.983348 
L 308.904423 204.197384 
L 307.615407 201.565779 
L 306.08567 197.881547 
L 304.295357 192.964789 
L 301.861971 185.588122 
L 291.498356 153.344061 
L 288.633861 145.500466 
L 285.756775 138.27499 
L 283.054625 132.072509 
L 280.3887 126.475141 
L 277.586277 121.105964 
L 274.840521 116.309976 
L 271.962482 111.72619 
L 268.945702 107.355428 
L 266.01453 103.48601 
L 262.952989 99.795556 
L 259.755908 96.279739 
L 256.418118 92.93333 
L 252.934445 89.750453 
L 249.299721 86.724787 
L 245.508775 83.849737 
L 241.556434 81.118572 
L 237.113643 78.330478 
L 232.471219 75.693055 
L 227.622703 73.198105 
L 222.561637 70.837674 
L 216.895863 68.449209 
L 210.970734 66.197344 
L 204.778306 64.073508 
L 197.869477 61.940071 
L 190.637843 59.933826 
L 182.589751 57.931876 
L 173.646328 55.947275 
L 164.255465 54.091226 
L 152.715632 52.051209 
L 148.725765 51.618252 
L 145.247828 51.493894 
L 142.899168 51.574428 
L 142.899168 51.574428 
" clip-path="url(#pab91043b1c)" style="fill: none; stroke: #9467bd; stroke-width: 1.4; stroke-linecap: square"/>
   </g>
   <g id="line2d_32">
    <path d="M 404.651524 71.436248 
L 399.993849 73.609194 
L 395.180139 76.111846 
L 390.569945 78.752829 
L 386.156893 81.543328 
L 381.934607 84.491488 
L 378.179154 87.377397 
L 374.577589 90.412814 
L 371.124806 93.60407 
L 367.815703 96.957186 
L 364.645175 100.477701 
L 361.608118 104.170461 
L 358.699428 108.039368 
L 355.704697 112.405893 
L 352.846548 116.980995 
L 350.118605 121.763164 
L 347.333057 127.111011 
L 344.681822 132.6794 
L 341.993048 138.841513 
L 339.283252 145.604904 
L 336.420146 153.362192 
L 333.302949 162.475416 
L 329.22535 175.15938 
L 324.290589 190.430081 
L 322.140526 196.387318 
L 320.489487 200.382015 
L 319.085065 203.251847 
L 317.911925 205.204686 
L 316.854775 206.575062 
L 315.908959 207.467176 
L 315.071281 207.95316 
L 314.235233 208.179003 
L 313.504092 208.163644 
L 312.772491 207.949573 
L 311.934789 207.460868 
L 311.094257 206.681719 
L 310.143792 205.498382 
L 309.079693 203.814269 
L 307.78845 201.308511 
L 306.367566 198.045654 
L 304.579956 193.339824 
L 302.271534 186.574609 
L 298.108979 173.522527 
L 293.567647 159.538592 
L 290.384367 150.453391 
L 287.457779 142.765033 
L 284.686146 136.089297 
L 281.934827 130.025849 
L 279.22113 124.559831 
L 276.369417 119.320509 
L 273.576379 114.64275 
L 270.649908 110.173198 
L 267.58363 105.911899 
L 264.605615 102.139395 
L 261.496451 98.541042 
L 258.251034 95.112389 
L 254.864261 91.848185 
L 251.331026 88.742605 
L 247.646228 85.789441 
L 243.804761 82.982253 
L 239.486732 80.114871 
L 234.974712 77.401014 
L 230.262324 74.832599 
L 225.343194 72.401727 
L 219.836035 69.941155 
L 214.076386 67.620635 
L 208.056407 65.431529 
L 201.33932 63.232099 
L 194.307598 61.163473 
L 186.481004 59.099032 
L 178.277061 57.162447 
L 169.166552 55.241121 
L 156.869543 52.913688 
L 151.851806 52.134309 
L 148.440992 51.811925 
L 145.558098 51.726736 
L 143.225032 51.808051 
L 143.225032 51.808051 
" clip-path="url(#pab91043b1c)" style="fill: none; stroke: #8c564b; stroke-width: 1.4; stroke-linecap: square"/>
   </g>
   <g id="line2d_33">
    <path d="M 404.443211 71.928387 
L 399.826083 74.105258 
L 395.052902 76.610968 
L 390.480077 79.253468 
L 386.10133 82.043663 
L 381.910383 84.989371 
L 378.181459 87.870759 
L 374.604025 90.899155 
L 371.173054 94.080522 
L 367.883519 97.420475 
L 364.730393 100.924111 
L 361.708651 104.595794 
L 358.595632 108.741709 
L 355.622879 113.088991 
L 352.784113 117.637986 
L 350.073056 122.38624 
L 347.302937 127.687971 
L 344.49309 133.573344 
L 341.661302 140.060543 
L 338.82326 147.146685 
L 335.847346 155.200509 
L 332.497866 164.942646 
L 322.798518 193.708572 
L 321.01282 198.044003 
L 319.482264 201.19408 
L 318.189079 203.358654 
L 317.121606 204.755544 
L 316.166772 205.685992 
L 315.321316 206.218881 
L 314.477733 206.495279 
L 313.63485 206.520008 
L 312.791496 206.292854 
L 311.946501 205.813085 
L 311.098691 205.052891 
L 310.140084 203.901092 
L 309.067021 202.26321 
L 307.765187 199.827347 
L 306.333098 196.655565 
L 304.532196 192.079262 
L 302.208134 185.494303 
L 298.277929 173.550871 
L 293.322175 158.681568 
L 290.121276 149.776856 
L 287.181113 142.232506 
L 284.398833 135.674389 
L 281.638947 129.711256 
L 278.918629 124.330017 
L 276.061782 119.166674 
L 273.265398 114.552205 
L 270.337077 110.138986 
L 267.270541 105.927516 
L 264.05951 101.915898 
L 260.94297 98.366505 
L 257.691402 94.982075 
L 254.299777 91.757691 
L 250.76307 88.687862 
L 247.076254 85.766703 
L 243.234303 82.98809 
L 238.917556 80.147986 
L 234.408781 77.458121 
L 229.701699 74.910739 
L 224.790032 72.498237 
L 219.293373 70.054708 
L 213.54693 67.748797 
L 207.542982 65.572143 
L 200.846241 63.383897 
L 193.838358 61.324554 
L 186.041082 59.268158 
L 177.870736 57.337991 
L 168.800656 55.421934 
L 156.562896 53.099352 
L 152.131175 52.437461 
L 148.746889 52.149242 
L 145.886642 52.102573 
L 144.152907 52.177403 
L 144.152907 52.177403 
" clip-path="url(#pab91043b1c)" style="fill: none; stroke: #e377c2; stroke-width: 1.4; stroke-linecap: square"/>
   </g>
   <g id="line2d_34">
    <path d="M 404.545315 71.693309 
L 399.908929 73.870614 
L 395.116693 76.377641 
L 390.526503 79.022476 
L 386.132022 81.816181 
L 381.926912 84.766749 
L 378.186192 87.654029 
L 374.598218 90.689818 
L 371.157916 93.880266 
L 367.860211 97.231187 
L 364.70003 100.747889 
L 361.672298 104.434964 
L 358.771941 108.29603 
L 355.785109 112.651344 
L 352.933779 117.211959 
L 350.211615 121.975918 
L 347.431145 127.299594 
L 344.783881 132.838422 
L 342.098173 138.962423 
L 339.390374 145.6772 
L 336.528044 153.36955 
L 333.409942 162.393107 
L 329.201786 175.319246 
L 324.49839 189.631018 
L 322.338072 195.523411 
L 320.67889 199.477572 
L 319.267415 202.321675 
L 317.981723 204.414326 
L 316.919968 205.739856 
L 315.969852 206.594087 
L 315.128238 207.053537 
L 314.288151 207.256987 
L 313.553398 207.224414 
L 312.712989 206.946804 
L 311.870708 206.408626 
L 311.025373 205.587185 
L 310.069248 204.365567 
L 308.99855 202.646522 
L 307.698979 200.110567 
L 306.157453 196.555531 
L 304.354509 191.803732 
L 301.906198 184.659848 
L 296.385597 167.576874 
L 292.66812 156.514883 
L 289.567617 147.96098 
L 286.746563 140.792838 
L 283.930846 134.229661 
L 281.136053 128.275476 
L 278.379904 122.912413 
L 275.484143 117.774805 
L 272.648595 113.189712 
L 269.678303 108.809836 
L 266.566928 104.634665 
L 263.545929 100.938629 
L 260.392743 97.413175 
L 257.102298 94.053756 
L 253.669518 90.855097 
L 250.089329 87.811405 
L 246.356659 84.916544 
L 242.466431 82.164182 
L 238.094932 79.352101 
L 233.528483 76.689839 
L 228.760746 74.169507 
L 223.785383 71.783401 
L 218.217036 69.367343 
L 212.395273 67.088002 
L 206.312299 64.936975 
L 199.527099 62.775001 
L 192.426371 60.740819 
L 184.525541 58.70995 
L 175.747458 56.695673 
L 166.531871 54.810979 
L 154.654588 52.621021 
L 150.73019 52.086749 
L 147.309555 51.837974 
L 144.418546 51.832006 
L 143.251769 51.890771 
L 143.251769 51.890771 
" clip-path="url(#pab91043b1c)" style="fill: none; stroke: #7f7f7f; stroke-width: 1.4; stroke-linecap: square"/>
   </g>
   <g id="line2d_35">
    <path d="M 404.028532 72.699639 
L 399.474237 74.88646 
L 394.764203 77.401488 
L 390.249959 80.0513 
L 385.925353 82.846395 
L 381.784228 85.794106 
L 377.820431 88.901701 
L 374.027809 92.176243 
L 370.653979 95.372233 
L 367.417509 98.722857 
L 364.080043 102.509062 
L 360.890014 106.483844 
L 357.841266 110.64998 
L 354.927647 115.008322 
L 352.143001 119.557279 
L 349.29558 124.637378 
L 346.581582 129.920578 
L 343.825183 135.761459 
L 341.04313 142.168365 
L 338.099248 149.516629 
L 334.889199 158.158597 
L 330.944804 169.468391 
L 324.879017 186.884884 
L 322.682578 192.488069 
L 320.994146 196.252427 
L 319.556988 198.967125 
L 318.247448 200.973897 
L 317.165801 202.254575 
L 316.197828 203.092604 
L 315.340417 203.556336 
L 314.484642 203.778776 
L 313.629354 203.760739 
L 312.773406 203.502376 
L 311.915648 203.00009 
L 311.054934 202.232586 
L 310.081665 201.089756 
L 308.992172 199.479739 
L 307.67049 197.101401 
L 307.337213 196.434906 
L 307.114331 203.248911 
L 306.442133 191.476769 
L 305.764235 183.331789 
L 305.194616 179.193263 
L 304.850666 177.823621 
L 304.537666 177.255288 
L 304.308771 177.49728 
L 303.963863 178.502157 
L 303.500964 181.011389 
L 302.917276 185.967277 
L 302.327692 192.869491 
L 301.970991 184.410176 
L 296.971773 169.052747 
L 293.008951 157.247464 
L 289.925389 148.714702 
L 286.96047 141.157055 
L 284.153279 134.599139 
L 281.367468 128.644818 
L 278.620585 123.278041 
L 275.734909 118.133981 
L 272.909516 113.540949 
L 269.950094 109.15173 
L 266.850308 104.96618 
L 263.840714 101.259854 
L 260.699554 97.723695 
L 257.421756 94.353328 
L 254.002247 91.143622 
L 250.435954 88.088897 
L 246.717802 85.183111 
L 242.84272 82.420006 
L 238.488234 79.596621 
L 233.939525 76.923385 
L 229.190257 74.392444 
L 224.234094 71.996122 
L 218.687131 69.569568 
L 212.887594 67.280209 
L 206.82769 65.119641 
L 200.068029 62.948009 
L 192.993803 60.904695 
L 185.122188 58.864678 
L 176.376228 56.841314 
L 167.193991 54.948121 
L 154.804829 52.647827 
L 150.318277 52.003312 
L 146.892121 51.721689 
L 143.99649 51.670958 
L 143.412917 51.684451 
L 143.412917 51.684451 
" clip-path="url(#pab91043b1c)" style="fill: none; stroke: #bcbd22; stroke-width: 1.4; stroke-linecap: square"/>
   </g>
   <g id="line2d_36">
    <path d="M 404.43493 71.762455 
L 399.804347 73.946281 
L 395.018442 76.460908 
L 390.434644 79.113838 
L 386.046591 81.916148 
L 381.847919 84.875829 
L 378.113166 87.77201 
L 374.531128 90.817102 
L 371.096709 94.017215 
L 367.804817 97.378111 
L 364.650356 100.905023 
L 361.628235 104.602442 
L 358.733357 108.473857 
L 355.752256 112.840131 
L 352.906459 117.411261 
L 350.189603 122.184967 
L 347.414542 127.517782 
L 344.772371 133.063827 
L 342.091713 139.192615 
L 339.234237 146.308581 
L 336.239939 154.4106 
L 333.008302 163.824908 
L 327.969789 179.320915 
L 324.398136 189.977673 
L 322.241213 195.73369 
L 320.583352 199.561336 
L 319.172027 202.283935 
L 317.992336 204.112764 
L 316.928669 205.374412 
L 316.082143 206.094051 
L 315.238248 206.532523 
L 314.395798 206.71603 
L 313.658905 206.666516 
L 312.815963 206.370281 
L 311.971052 205.812252 
L 311.122985 204.972687 
L 310.163659 203.732176 
L 308.981219 201.800072 
L 307.675415 199.202916 
L 306.125841 195.585769 
L 304.19762 190.454503 
L 301.60884 182.850783 
L 291.670734 152.970385 
L 288.644061 144.89744 
L 285.754642 137.823296 
L 283.043362 131.740737 
L 280.187688 125.884562 
L 277.370909 120.618992 
L 274.61298 115.910465 
L 271.72405 111.405598 
L 268.697755 107.105683 
L 265.527734 103.00938 
L 262.449888 99.38504 
L 259.237535 95.929399 
L 255.885581 92.637621 
L 252.388932 89.504224 
L 248.742493 86.523278 
L 244.941172 83.688569 
L 240.668386 80.792042 
L 236.203703 78.049718 
L 231.540759 75.453641 
L 226.673193 72.996001 
L 221.594643 70.669203 
L 215.911983 68.313071 
L 209.971993 66.09008 
L 203.343551 63.85638 
L 196.403924 61.755368 
L 188.678981 59.658511 
L 180.580627 57.691474 
L 171.586234 55.739942 
L 161.60919 53.814946 
L 152.811278 52.270478 
L 148.845674 51.837701 
L 145.38926 51.713368 
L 143.055325 51.793853 
L 143.055325 51.793853 
" clip-path="url(#pab91043b1c)" style="fill: none; stroke: #17becf; stroke-width: 1.4; stroke-linecap: square"/>
   </g>
   <g id="line2d_37">
    <path d="M 375.456707 59.828766 
L 372.390488 60.733306 
L 369.401293 61.827222 
L 363.648984 64.264389 
L 358.189801 66.845452 
L 354.281776 68.905553 
L 350.528813 71.079588 
L 346.926703 73.374594 
L 343.471236 75.797957 
L 340.158204 78.357405 
L 336.983397 81.06097 
L 333.942605 83.916958 
L 331.031619 86.933885 
L 328.246231 90.120398 
L 325.582231 93.485166 
L 323.035409 97.036741 
L 320.601557 100.783376 
L 318.276464 104.732797 
L 316.055923 108.891919 
L 313.935723 113.266494 
L 311.911655 117.860689 
L 309.97951 122.676583 
L 307.539033 129.441122 
L 305.244513 136.587218 
L 303.085974 144.089758 
L 301.053438 151.90589 
L 298.67476 162.01636 
L 296.032209 174.397749 
L 288.818651 209.533503 
L 287.454296 214.714784 
L 286.452061 217.78984 
L 285.463176 220.088007 
L 284.809257 221.166203 
L 284.158154 221.822542 
L 283.508619 222.106426 
L 282.859404 222.015141 
L 282.209264 221.549787 
L 281.55695 220.69493 
L 280.901215 219.432929 
L 279.908471 216.876234 
L 278.901014 213.564568 
L 277.527579 208.109241 
L 275.748282 199.918066 
L 271.907291 180.621169 
L 268.926539 166.189636 
L 266.615877 155.970252 
L 264.131834 146.072024 
L 262.00667 138.483881 
L 259.748093 131.243014 
L 257.346126 124.37873 
L 254.79079 117.905405 
L 252.767638 113.309058 
L 250.648396 108.932364 
L 248.428852 104.771174 
L 246.104799 100.819747 
L 243.672027 97.071181 
L 241.126326 93.517754 
L 238.463488 90.151217 
L 235.679303 86.96302 
L 232.769562 83.944494 
L 229.730056 81.08699 
L 226.556575 78.381993 
L 223.24491 75.821193 
L 219.790851 73.396554 
L 216.190191 71.100347 
L 212.438718 68.925181 
L 208.532225 66.864015 
L 203.075148 64.281632 
L 197.325017 61.875229 
L 191.271855 59.631064 
L 184.905685 57.536459 
L 178.216528 55.579743 
L 171.194407 53.750198 
L 163.829345 52.037985 
L 154.125557 50.001483 
L 150.085274 49.289842 
L 145.952397 48.847666 
L 143.850845 48.790657 
L 141.725677 48.87333 
L 141.725677 48.87333 
" clip-path="url(#pab91043b1c)" style="fill: none; stroke: #1f77b4; stroke-width: 1.4; stroke-linecap: square"/>
   </g>
   <g id="line2d_38">
    <path d="M 375.880602 62.401016 
L 372.985563 63.314603 
L 370.159904 64.417143 
L 364.712262 66.865389 
L 359.528745 69.445041 
L 354.600423 72.200626 
L 349.918365 75.144968 
L 346.563059 77.48514 
L 343.337485 79.94485 
L 340.237875 82.530037 
L 337.260462 85.246694 
L 334.401477 88.100797 
L 331.657153 91.09822 
L 329.023723 94.244625 
L 326.497418 97.545328 
L 324.074472 101.005135 
L 321.751115 104.628141 
L 319.523581 108.417502 
L 316.69608 113.73188 
L 314.023301 119.345401 
L 311.496313 125.251721 
L 309.106185 131.436155 
L 306.843987 137.873599 
L 304.182533 146.217289 
L 301.689571 154.789191 
L 298.449279 166.880339 
L 291.89785 191.793547 
L 290.395617 196.617694 
L 288.92977 200.576172 
L 287.848892 202.89644 
L 286.779691 204.608751 
L 286.071516 205.394687 
L 285.36574 205.887223 
L 284.661247 206.081719 
L 283.956919 205.976334 
L 283.251642 205.572066 
L 282.544297 204.872731 
L 282.189501 204.414355 
L 281.833769 216.665624 
L 281.476963 212.793386 
L 280.759567 161.280158 
L 280.398699 147.065398 
L 280.036198 140.534796 
L 280.337018 141.459228 
L 279.991626 149.575394 
L 279.643823 164.627626 
L 278.940365 214.557104 
L 278.584401 216.656173 
L 278.225407 201.86907 
L 274.03224 181.390223 
L 270.623018 165.228696 
L 268.298222 155.181956 
L 265.800958 145.437943 
L 263.66597 137.958912 
L 261.398317 130.81452 
L 258.988096 124.034617 
L 256.425401 117.634414 
L 254.397362 113.086113 
L 252.273807 108.752139 
L 250.050559 104.628788 
L 247.723438 100.710763 
L 245.288267 96.99158 
L 242.740866 93.463917 
L 240.077059 90.119898 
L 237.292665 86.951314 
L 234.383508 83.94981 
L 231.345408 81.107026 
L 228.174187 78.414701 
L 224.865668 75.864763 
L 221.415671 73.449382 
L 217.820018 71.161018 
L 214.07453 68.992446 
L 210.175031 66.936775 
L 204.728901 64.360233 
L 198.991639 61.958226 
L 192.95334 59.717241 
L 186.6041 57.624799 
L 179.934014 55.669398 
L 172.933179 53.84046 
L 165.591691 52.128269 
L 155.920697 50.138695 
L 147.776525 48.631856 
L 143.565242 48.055007 
L 141.424259 47.850195 
L 141.424259 47.850195 
" clip-path="url(#pab91043b1c)" style="fill: none; stroke: #ff7f0e; stroke-width: 1.4; stroke-linecap: square"/>
   </g>
   <g id="line2d_39">
    <path d="M 375.103441 64.330864 
L 372.325013 65.253626 
L 369.611144 66.365675 
L 364.372925 68.829563 
L 359.380463 71.416872 
L 354.625437 74.170797 
L 350.099527 77.102179 
L 345.794412 80.222113 
L 341.701772 83.541794 
L 337.813285 87.072293 
L 334.120632 90.824269 
L 330.615491 94.807589 
L 327.289542 99.030835 
L 324.134464 103.500696 
L 321.141937 108.221201 
L 318.30364 113.1928 
L 315.611253 118.41127 
L 313.056454 123.866443 
L 310.630923 129.540785 
L 307.768117 136.900669 
L 305.078041 144.485856 
L 302.055069 153.735224 
L 297.881673 167.375277 
L 294.057304 179.721042 
L 292.048582 185.527572 
L 290.487183 189.425875 
L 289.337262 191.83963 
L 288.201549 193.76996 
L 287.076535 195.182642 
L 286.330736 195.823738 
L 285.587092 196.217819 
L 284.844562 196.361598 
L 284.102107 196.253873 
L 283.358686 195.895546 
L 282.61326 195.289606 
L 282.239469 206.838946 
L 281.864788 203.336936 
L 281.11223 155.415545 
L 280.734094 142.246759 
L 280.354546 136.170984 
L 280.681344 137.130274 
L 280.320751 144.867465 
L 279.957969 159.132416 
L 279.22525 206.28156 
L 278.85502 208.511654 
L 278.482016 194.935049 
L 277.344886 190.428891 
L 274.153912 177.223482 
L 270.213576 160.990609 
L 267.329985 150.093529 
L 264.743269 141.250216 
L 262.540459 134.425945 
L 260.208884 127.873844 
L 257.73917 121.623545 
L 255.121943 115.6923 
L 252.34783 110.087515 
L 250.15865 106.098276 
L 247.871995 102.290418 
L 245.48391 98.660281 
L 242.99044 95.20313 
L 240.387632 91.913439 
L 237.67153 88.785119 
L 234.83818 85.811713 
L 231.883628 82.986548 
L 228.80392 80.302861 
L 225.5951 77.753897 
L 222.253215 75.332989 
L 218.77431 73.03361 
L 215.15443 70.849424 
L 210.101795 68.105823 
L 204.782134 65.542328 
L 199.186075 63.145914 
L 193.304244 60.904389 
L 187.127267 58.806384 
L 180.645771 56.84134 
L 173.850382 54.999467 
L 166.731727 53.271715 
L 157.364534 51.233078 
L 151.487123 50.143644 
L 147.459284 49.650333 
L 147.459284 49.650333 
" clip-path="url(#pab91043b1c)" style="fill: none; stroke: #2ca02c; stroke-width: 1.4; stroke-linecap: square"/>
   </g>
   <g id="line2d_40">
    <path d="M 377.720544 60.298237 
L 374.689079 61.211016 
L 371.733552 62.314573 
L 366.045344 64.772038 
L 360.645981 67.372604 
L 356.780033 69.446749 
L 353.066776 71.63408 
L 349.502016 73.941358 
L 346.08156 76.375644 
L 342.801214 78.944275 
L 339.656786 81.654822 
L 336.644083 84.515043 
L 333.758909 87.532809 
L 330.997074 90.716009 
L 328.354382 94.072431 
L 325.826642 97.609595 
L 323.409659 101.334564 
L 321.09924 105.253692 
L 318.891193 109.372325 
L 316.781323 113.694435 
L 314.765438 118.222187 
L 312.216541 124.578411 
L 309.817333 131.290924 
L 307.557874 138.338969 
L 305.428225 145.686504 
L 302.933567 155.206592 
L 300.606791 164.951117 
L 297.184693 180.439453 
L 293.320422 197.876894 
L 291.515866 204.919803 
L 290.115754 209.391675 
L 289.084541 211.950874 
L 288.064845 213.770845 
L 287.389375 214.507634 
L 286.715917 214.88858 
L 286.043229 214.930023 
L 285.370067 214.631482 
L 284.695191 213.984889 
L 284.017357 212.937786 
L 283.335323 211.555464 
L 282.301679 208.870937 
L 281.251596 205.509178 
L 279.818666 200.102151 
L 277.960779 192.13554 
L 269.894188 156.122953 
L 267.416421 146.573366 
L 265.301623 139.193094 
L 263.058203 132.106882 
L 260.676221 125.352818 
L 258.145739 118.953304 
L 255.456816 112.918309 
L 253.330168 108.631831 
L 251.104612 104.548271 
L 248.775956 100.663387 
L 246.340006 96.971631 
L 243.792569 93.466504 
L 241.129452 90.140847 
L 238.346461 86.987077 
L 235.439403 83.997378 
L 232.404085 81.163855 
L 229.236313 78.47865 
L 225.931894 75.934031 
L 222.486635 73.522465 
L 218.896343 71.236659 
L 215.156824 69.069604 
L 211.263884 67.014589 
L 205.827398 64.437846 
L 200.10077 62.034677 
L 194.074061 59.791813 
L 187.737332 57.696965 
L 181.080642 55.738782 
L 174.094053 53.906808 
L 166.767624 52.19142 
L 157.116546 50.150472 
L 153.098737 49.435202 
L 148.989136 48.988838 
L 146.899524 48.929625 
L 144.786498 49.010097 
L 144.786498 49.010097 
" clip-path="url(#pab91043b1c)" style="fill: none; stroke: #d62728; stroke-width: 1.4; stroke-linecap: square"/>
   </g>
   <g id="line2d_41">
    <path d="M 376.808982 62.180493 
L 373.901097 63.105073 
L 371.064024 64.22138 
L 365.597667 66.701889 
L 360.400626 69.318151 
L 355.463614 72.115558 
L 351.925913 74.340486 
L 348.525337 76.680642 
L 345.257968 79.142028 
L 342.11989 81.730757 
L 339.107184 84.453003 
L 336.215932 87.314922 
L 333.442218 90.322562 
L 330.782124 93.48175 
L 328.231731 96.797943 
L 325.787123 100.276058 
L 323.444382 103.920261 
L 321.199589 107.733711 
L 318.352127 113.084564 
L 315.662546 118.739076 
L 313.121559 124.689975 
L 310.719881 130.921064 
L 308.448225 137.405 
L 305.777353 145.801756 
L 303.276994 154.413303 
L 300.02842 166.516489 
L 294.228172 188.472847 
L 292.322112 194.625815 
L 290.839941 198.570055 
L 289.747112 200.866779 
L 288.666045 202.550505 
L 287.949934 203.294802 
L 287.236148 203.71072 
L 286.523526 203.850446 
L 285.810909 203.712487 
L 285.097135 203.298316 
L 284.381043 202.556066 
L 283.661473 201.503804 
L 282.573056 199.411532 
L 281.470284 196.729192 
L 279.970819 192.32818 
L 278.036658 185.710184 
L 275.184647 174.918791 
L 270.252924 156.168425 
L 267.271879 145.821424 
L 264.601495 137.423787 
L 262.330266 130.938983 
L 259.929046 124.706932 
L 257.388548 118.755018 
L 254.699488 113.099467 
L 251.852578 107.747578 
L 249.608221 103.933363 
L 247.265932 100.288412 
L 244.821795 96.80957 
L 242.27189 93.492676 
L 239.612302 90.332814 
L 236.839112 87.324529 
L 233.948402 84.461994 
L 230.936256 81.739163 
L 227.798754 79.149877 
L 224.531981 76.687965 
L 221.132017 74.347311 
L 217.594947 72.121913 
L 212.658803 69.323921 
L 207.462661 66.707119 
L 201.997236 64.258846 
L 196.253241 61.967162 
L 190.22139 59.820868 
L 183.892397 57.809504 
L 177.256976 55.923335 
L 170.30584 54.153321 
L 161.158799 52.047935 
L 157.353733 51.401789 
L 155.419279 51.214658 
L 153.463353 51.150148 
L 151.485808 51.232254 
L 151.485808 51.232254 
" clip-path="url(#pab91043b1c)" style="fill: none; stroke: #9467bd; stroke-width: 1.4; stroke-linecap: square"/>
   </g>
   <g id="line2d_42">
    <path d="M 375.809941 64.411683 
L 373.036464 65.346203 
L 370.328125 66.472644 
L 365.102589 68.969137 
L 360.124786 71.591718 
L 355.386168 74.384126 
L 350.878186 77.357297 
L 346.592293 80.522362 
L 342.519942 83.890463 
L 339.600672 86.556359 
L 336.793104 89.347016 
L 334.093633 92.266568 
L 330.656254 96.366194 
L 327.396088 100.708858 
L 324.304585 105.299448 
L 321.373199 110.13955 
L 318.593381 115.226398 
L 315.956584 120.551644 
L 313.454258 126.099967 
L 311.077857 131.847553 
L 308.271415 139.259517 
L 305.631678 146.83689 
L 302.184324 157.479848 
L 295.574173 178.27414 
L 293.546153 183.79673 
L 291.967634 187.43669 
L 290.803742 189.641163 
L 289.652984 191.351741 
L 288.891328 192.202077 
L 288.132838 192.811926 
L 287.376445 193.176194 
L 286.621082 193.291812 
L 285.865679 193.157802 
L 285.109168 192.775298 
L 284.35048 192.14752 
L 283.969986 203.448842 
L 283.588548 199.996571 
L 282.822302 152.971458 
L 282.437228 140.082445 
L 282.050674 134.17246 
L 282.388821 135.169482 
L 282.022275 142.81128 
L 281.65344 156.842868 
L 280.908294 203.093118 
L 280.53168 205.25087 
L 280.152171 191.877875 
L 278.602148 185.792584 
L 274.009087 166.985029 
L 270.763894 154.285624 
L 268.257581 145.315313 
L 265.572884 136.619591 
L 263.283973 129.938465 
L 260.859092 123.545081 
L 258.288552 117.463753 
L 255.562661 111.707284 
L 253.410465 107.605674 
L 251.161345 103.688047 
L 248.811213 99.951669 
L 246.355981 96.392474 
L 243.79156 93.005392 
L 241.113863 89.784614 
L 238.3188 86.723829 
L 235.402285 83.816399 
L 232.360228 81.055514 
L 229.188541 78.434311 
L 225.883136 75.945964 
L 222.439926 73.583761 
L 218.854821 71.341152 
L 215.123733 69.211797 
L 209.914799 66.538306 
L 204.429382 64.041547 
L 198.657791 61.708581 
L 192.590335 59.52732 
L 186.217324 57.486515 
L 179.529068 55.575734 
L 172.515874 53.785322 
L 165.168054 52.106362 
L 155.497946 50.125755 
L 151.475024 49.516741 
L 149.429769 49.297102 
L 149.429769 49.297102 
" clip-path="url(#pab91043b1c)" style="fill: none; stroke: #8c564b; stroke-width: 1.4; stroke-linecap: square"/>
   </g>
   <g id="line2d_43">
    <path d="M 374.698568 67.103132 
L 372.072166 68.043916 
L 369.50459 69.175585 
L 364.542058 71.675608 
L 359.803262 74.289003 
L 355.280493 77.057417 
L 350.966042 79.989072 
L 346.852199 83.092014 
L 342.931255 86.373909 
L 339.195502 89.841772 
L 335.63723 93.501637 
L 332.248729 97.358149 
L 329.02229 101.414062 
L 325.950205 105.669652 
L 323.024763 110.122017 
L 320.238257 114.764282 
L 317.582975 119.58471 
L 314.436665 125.833401 
L 311.468292 132.282979 
L 308.11992 140.188791 
L 304.475217 149.43239 
L 296.988638 168.733108 
L 294.830922 173.599749 
L 293.149027 176.884465 
L 291.908374 178.938864 
L 290.681909 180.608681 
L 289.466381 181.868514 
L 288.660498 182.470652 
L 287.857066 182.87743 
L 287.055122 183.085942 
L 286.253702 183.094692 
L 285.451842 182.903617 
L 284.648579 182.514088 
L 284.24612 193.010325 
L 283.842949 189.956259 
L 283.033988 146.876842 
L 282.627957 135.24359 
L 282.220733 130.07284 
L 282.5911 131.259468 
L 282.206057 138.550541 
L 281.819012 151.699647 
L 281.038358 194.620422 
L 280.644469 196.723501 
L 280.248019 184.449295 
L 279.041905 180.738866 
L 276.54166 172.594416 
L 269.095555 147.709487 
L 266.470286 139.792879 
L 263.672652 132.075817 
L 261.298699 126.111386 
L 258.794302 120.371016 
L 256.150514 114.87805 
L 253.358387 109.646666 
L 250.408975 104.683636 
L 247.293332 99.989899 
L 244.842128 96.644336 
L 242.288611 93.445588 
L 239.629007 90.390091 
L 236.859542 87.47367 
L 233.97644 84.691704 
L 230.975929 82.03926 
L 227.854233 79.511214 
L 224.607577 77.10234 
L 220.077798 74.066814 
L 215.310212 71.221489 
L 210.295872 68.554328 
L 205.025831 66.053727 
L 199.491143 63.708594 
L 193.682861 61.508411 
L 187.592037 59.443256 
L 181.209725 57.503815 
L 174.526978 55.681376 
L 165.737427 53.528164 
L 160.224391 52.373813 
L 156.446993 51.842918 
L 156.446993 51.842918 
" clip-path="url(#pab91043b1c)" style="fill: none; stroke: #e377c2; stroke-width: 1.4; stroke-linecap: square"/>
   </g>
   <g id="line2d_44">
    <path d="M 377.041076 62.936012 
L 374.180613 63.874914 
L 371.389721 65.008168 
L 366.012019 67.525054 
L 360.898698 70.177505 
L 356.040487 73.010971 
L 352.558669 75.262506 
L 349.211225 77.628547 
L 345.994244 80.114716 
L 342.903816 82.726671 
L 339.936028 85.470042 
L 337.08697 88.350341 
L 334.352732 91.372859 
L 331.729402 94.542534 
L 329.213068 97.863789 
L 326.799821 101.340345 
L 324.485749 104.97499 
L 321.547832 110.069639 
L 318.770003 115.447425 
L 316.14299 121.101479 
L 313.657525 127.01686 
L 311.304336 133.168588 
L 308.534739 141.132742 
L 305.939233 149.302888 
L 302.563519 160.804075 
L 296.128296 183.135141 
L 294.548418 187.855721 
L 293.00811 191.779897 
L 291.87327 194.122284 
L 290.751564 195.898242 
L 290.009124 196.756785 
L 289.269624 197.302186 
L 288.531905 197.573346 
L 287.794808 197.583222 
L 287.057174 197.331716 
L 286.317845 196.807874 
L 285.575662 195.969398 
L 284.829465 194.86955 
L 283.70011 192.738558 
L 282.555208 190.068335 
L 280.997726 185.757816 
L 278.988103 179.358243 
L 276.025013 169.024258 
L 270.906114 151.188767 
L 267.816571 141.36723 
L 265.052368 133.395183 
L 262.703878 127.235289 
L 260.223454 121.310627 
L 257.601825 115.646583 
L 254.82972 110.258428 
L 251.89787 105.153296 
L 248.797003 100.331951 
L 246.354859 96.899872 
L 243.808517 93.622128 
L 241.154067 90.494773 
L 238.387597 87.513221 
L 235.505197 84.672417 
L 232.502955 81.966996 
L 229.376961 79.3914 
L 226.123304 76.939985 
L 222.738071 74.607095 
L 219.217354 72.38713 
L 214.305548 69.593356 
L 209.136656 66.97795 
L 203.701406 64.528832 
L 197.990529 62.234541 
L 191.994754 60.084271 
L 185.70481 58.067883 
L 179.111426 56.175904 
L 172.205332 54.399508 
L 163.118844 52.315921 
L 159.339326 51.827306 
L 157.417933 51.757141 
L 155.475258 51.835663 
L 155.475258 51.835663 
" clip-path="url(#pab91043b1c)" style="fill: none; stroke: #7f7f7f; stroke-width: 1.4; stroke-linecap: square"/>
   </g>
   <g id="line2d_45">
    <path d="M 375.691137 65.825335 
L 372.99706 66.773561 
L 370.365348 67.915534 
L 365.284863 70.44295 
L 360.441381 73.092293 
L 355.8266 75.906682 
L 351.432219 78.895701 
L 347.249935 82.068872 
L 343.271446 85.435432 
L 339.488452 89.004052 
L 335.89265 92.782462 
L 332.475738 96.776993 
L 329.229415 100.992005 
L 326.145379 105.429194 
L 323.215329 110.086763 
L 320.430961 114.958468 
L 317.783976 120.032518 
L 315.26607 125.290385 
L 312.287559 132.079928 
L 309.48155 139.042081 
L 306.319212 147.484024 
L 300.557621 163.732798 
L 297.471525 172.034808 
L 295.360023 177.047967 
L 293.714081 180.354366 
L 292.499411 182.362592 
L 291.297809 183.929692 
L 290.105773 185.029229 
L 289.314667 185.492781 
L 288.525219 185.736297 
L 287.73639 185.757863 
L 286.947142 185.557311 
L 286.156439 185.136215 
L 285.760218 184.843927 
L 285.363243 195.55098 
L 284.965385 192.333879 
L 284.166502 147.968626 
L 283.765218 135.912359 
L 283.362531 130.485281 
L 283.724921 131.590273 
L 283.344061 138.967682 
L 282.960964 152.364883 
L 282.187461 196.244731 
L 281.796757 198.31955 
L 281.403217 185.659679 
L 279.797722 180.100146 
L 276.405242 167.724049 
L 272.21944 152.620743 
L 269.160147 142.506729 
L 266.419103 134.301178 
L 264.087389 127.966611 
L 261.621866 121.880547 
L 259.012975 116.069551 
L 256.251151 110.549277 
L 253.326833 105.32665 
L 251.021205 101.605308 
L 248.614762 98.049698 
L 246.103468 94.656664 
L 243.483291 91.422078 
L 240.750196 88.34108 
L 237.900149 85.408287 
L 234.929116 82.617963 
L 231.833062 79.964158 
L 228.607954 77.440824 
L 225.249758 75.041902 
L 221.75444 72.761391 
L 218.117965 70.593406 
L 213.042783 67.867923 
L 207.699922 65.319262 
L 202.07982 62.935029 
L 196.172915 60.703543 
L 189.969645 58.61385 
L 183.460447 56.655727 
L 176.635759 54.819658 
L 169.486019 53.096814 
L 160.077173 51.063819 
L 156.163057 50.435109 
L 154.173135 50.206042 
L 154.173135 50.206042 
" clip-path="url(#pab91043b1c)" style="fill: none; stroke: #bcbd22; stroke-width: 1.4; stroke-linecap: square"/>
   </g>
   <g id="line2d_46">
    <path d="M 378.072103 61.581855 
L 375.127242 62.524239 
L 372.256347 63.663157 
L 366.731457 66.197719 
L 361.487436 68.876957 
L 357.732724 71.011494 
L 354.126158 73.260042 
L 350.663519 75.628938 
L 347.34059 78.124701 
L 344.153151 80.753992 
L 341.096985 83.523544 
L 338.167873 86.44009 
L 335.361597 89.51025 
L 332.673939 92.740403 
L 330.10068 96.136524 
L 327.637602 99.703975 
L 325.280487 103.447265 
L 323.025117 107.36975 
L 320.867274 111.473284 
L 318.134565 117.225863 
L 315.55774 123.292966 
L 313.126797 129.657795 
L 310.831739 136.291154 
L 308.138771 144.891236 
L 305.622971 153.713648 
L 302.361308 166.090705 
L 296.940862 186.892078 
L 295.397118 192.02561 
L 293.89427 196.261438 
L 292.787956 198.75605 
L 291.694803 200.607026 
L 290.971263 201.460541 
L 290.250448 201.968991 
L 289.531108 202.175897 
L 288.811992 202.078988 
L 288.091852 201.679335 
L 287.369437 200.953258 
L 286.643497 199.896176 
L 285.545245 197.765132 
L 284.432032 195.010142 
L 282.917185 190.468413 
L 280.960446 183.624256 
L 278.068078 172.474534 
L 273.529234 154.985134 
L 271.037337 146.143643 
L 268.371085 137.502318 
L 266.099424 130.824679 
L 263.693678 124.408837 
L 261.143849 118.286507 
L 258.439938 112.476511 
L 255.571945 106.987404 
L 253.307257 103.081766 
L 250.940431 99.35508 
L 248.467248 95.803868 
L 245.88349 92.423529 
L 243.184939 89.208629 
L 240.367377 86.15315 
L 237.426585 83.250681 
L 234.358345 80.494584 
L 231.158438 77.878125 
L 227.822648 75.394569 
L 224.346754 73.037269 
L 220.72654 70.799718 
L 216.957786 68.675599 
L 211.694429 66.009389 
L 206.149504 63.520252 
L 200.313012 61.19523 
L 194.174954 59.022203 
L 187.725333 56.989881 
L 180.954147 55.087789 
L 173.8514 53.306228 
L 164.491474 51.187983 
L 160.593696 50.438008 
L 156.606153 49.962193 
L 154.57833 49.89225 
L 152.527596 49.965748 
L 152.527596 49.965748 
" clip-path="url(#pab91043b1c)" style="fill: none; stroke: #17becf; stroke-width: 1.4; stroke-linecap: square"/>
   </g>
   <g id="line2d_47">
    <path d="M 347.601143 53.472525 
L 344.010518 54.430337 
L 340.536254 55.683239 
L 333.927374 58.441087 
L 329.258619 60.663816 
L 324.827797 63.050507 
L 320.626947 65.615364 
L 316.64811 68.373772 
L 312.883325 71.342318 
L 309.324634 74.538797 
L 305.964077 77.98216 
L 302.793693 81.692407 
L 299.805523 85.690387 
L 296.991609 89.997481 
L 294.343988 94.635121 
L 291.854703 99.624103 
L 289.515794 104.983627 
L 287.3193 110.730003 
L 285.257262 116.874937 
L 283.32172 123.423337 
L 281.504715 130.370576 
L 279.798287 137.69918 
L 277.6813 148.001934 
L 275.727876 158.778856 
L 273.487364 172.566045 
L 268.103042 206.792219 
L 267.0646 211.792913 
L 266.049177 215.480365 
L 265.381087 217.126786 
L 264.717332 218.078697 
L 264.386343 218.289048 
L 264.055554 218.32052 
L 263.724669 218.172947 
L 263.393394 217.847112 
L 262.728494 216.668511 
L 262.058495 214.804934 
L 261.720847 213.629217 
L 261.381039 211.138732 
L 261.038778 210.25029 
L 260.693768 211.265602 
L 259.994323 213.832708 
L 260.386901 214.310332 
L 260.048051 213.578839 
L 259.704373 211.168004 
L 259.001261 203.206677 
L 257.902445 194.187182 
L 255.514467 174.794713 
L 253.753986 162.020969 
L 251.835018 149.792737 
L 250.279569 141.11231 
L 248.614981 132.91232 
L 246.832689 125.218459 
L 244.924125 118.037116 
L 242.880721 111.360687 
L 240.693913 105.171899 
L 238.355132 99.447206 
L 235.855812 94.159362 
L 234.096179 90.862512 
L 232.25885 87.738154 
L 230.341286 84.777576 
L 228.340949 81.972213 
L 226.255301 79.31372 
L 224.081802 76.79403 
L 221.817916 74.405385 
L 219.461103 72.140364 
L 217.008825 69.991897 
L 213.14586 66.97314 
L 209.053821 64.18043 
L 204.724141 61.594341 
L 200.148254 59.197116 
L 195.317592 56.972567 
L 190.22359 54.905962 
L 184.85768 52.983914 
L 179.211295 51.194266 
L 173.275869 49.525986 
L 167.042834 47.969061 
L 158.254369 46.050796 
L 148.901285 44.295177 
L 138.963277 42.685255 
L 128.420039 41.178749 
L 122.915112 40.65205 
L 120.103211 40.556731 
L 117.251263 40.616415 
L 117.251263 40.616415 
" clip-path="url(#pab91043b1c)" style="fill: none; stroke: #1f77b4; stroke-width: 1.4; stroke-linecap: square"/>
   </g>
   <g id="line2d_48">
    <path d="M 348.749848 51.923887 
L 345.002196 52.85875 
L 341.378232 54.08279 
L 334.491282 56.781717 
L 329.631992 58.96176 
L 325.025463 61.307295 
L 320.663182 63.833279 
L 316.536636 66.556017 
L 312.63731 69.493215 
L 308.956694 72.664019 
L 306.62025 74.917772 
L 304.374705 77.290903 
L 302.217535 79.790101 
L 300.146217 82.42228 
L 298.158231 85.19454 
L 296.251053 88.114111 
L 294.422161 91.188284 
L 291.820091 96.10526 
L 289.379976 101.410072 
L 287.093303 107.124388 
L 284.95156 113.266196 
L 282.946231 119.847597 
L 281.068806 126.871961 
L 279.310771 134.33037 
L 277.663612 142.19733 
L 275.625161 153.237164 
L 273.748512 164.728829 
L 271.599491 179.270791 
L 267.807652 205.476572 
L 266.423986 213.239035 
L 265.417377 217.473379 
L 264.756405 219.425721 
L 264.100569 220.62026 
L 263.773789 220.92831 
L 263.447348 221.040807 
L 263.120929 220.957098 
L 262.794218 220.677669 
L 262.138659 219.539226 
L 261.478147 217.640426 
L 261.145245 216.422205 
L 260.810159 213.841156 
L 260.472574 212.889108 
L 259.788645 215.277547 
L 259.44167 216.404106 
L 259.819602 216.772974 
L 259.484573 215.884249 
L 259.144552 213.265951 
L 258.44818 204.837237 
L 257.357731 195.322688 
L 254.97818 174.907119 
L 253.215384 161.546261 
L 251.286222 148.833716 
L 249.717165 139.859567 
L 248.033244 131.422312 
L 246.225338 123.542589 
L 244.284324 116.220764 
L 242.201083 109.442958 
L 239.966492 103.185827 
L 237.57143 97.420225 
L 235.881067 93.833707 
L 234.112627 90.441441 
L 232.263408 87.233498 
L 230.330707 84.200057 
L 228.311821 81.331517 
L 226.204048 78.61857 
L 224.004686 76.052258 
L 221.71103 73.624009 
L 219.32038 71.325657 
L 216.830032 69.149457 
L 214.237283 67.088078 
L 210.150248 64.196287 
L 205.81761 61.52574 
L 201.230249 59.056732 
L 196.379041 56.771374 
L 191.254868 54.653453 
L 185.848606 52.688294 
L 180.151135 50.862626 
L 174.153334 49.164448 
L 167.846081 47.582909 
L 161.220255 46.108199 
L 151.874497 44.292877 
L 141.92455 42.633033 
L 128.604539 40.719346 
L 122.993284 40.066322 
L 120.125609 39.85002 
L 117.216118 39.75453 
L 114.264473 39.811728 
L 114.264473 39.811728 
" clip-path="url(#pab91043b1c)" style="fill: none; stroke: #ff7f0e; stroke-width: 1.4; stroke-linecap: square"/>
   </g>
   <g id="line2d_49">
    <path d="M 351.254201 49.030913 
L 347.175369 49.928334 
L 343.237055 51.106111 
L 335.770388 53.714123 
L 330.517686 55.83239 
L 325.551796 58.12296 
L 320.862933 60.603067 
L 316.441311 63.291803 
L 313.637198 65.210535 
L 310.94461 67.238116 
L 308.360649 69.381778 
L 305.882414 71.649219 
L 303.507006 74.04861 
L 301.231526 76.588597 
L 299.053074 79.278304 
L 296.968752 82.127313 
L 294.97566 85.145634 
L 293.070897 88.343654 
L 291.251566 91.732071 
L 289.514767 95.321779 
L 287.857599 99.123733 
L 286.277165 103.148752 
L 284.770564 107.407277 
L 282.642758 114.253902 
L 280.664768 121.675261 
L 278.826809 129.689356 
L 277.119095 138.29916 
L 275.531842 147.485797 
L 274.055264 157.200234 
L 272.24174 170.81361 
L 270.191722 188.367191 
L 265.996132 225.586729 
L 265.052677 231.753078 
L 264.43687 234.782 
L 263.828211 236.793605 
L 263.2238 237.744871 
L 262.922281 237.851724 
L 262.620738 237.711001 
L 262.318807 237.323787 
L 262.016126 236.693051 
L 261.407064 234.598427 
L 260.790653 231.507774 
L 259.845914 225.256151 
L 258.53348 214.447206 
L 253.14526 166.871433 
L 251.283031 153.450297 
L 249.765591 143.928066 
L 248.13376 134.956422 
L 246.377755 126.571878 
L 244.48779 118.784111 
L 242.454078 111.583714 
L 240.266836 104.948453 
L 238.718547 100.824181 
L 237.094774 96.927538 
L 235.392617 93.247832 
L 233.609177 89.77414 
L 231.741554 86.49552 
L 229.786849 83.401175 
L 227.742162 80.480573 
L 225.604595 77.723534 
L 223.371248 75.120285 
L 221.039221 72.661505 
L 218.605616 70.338339 
L 216.067532 68.142411 
L 213.42207 66.065821 
L 210.666332 64.101137 
L 206.319612 61.348794 
L 201.70846 58.810924 
L 196.823091 56.467872 
L 191.653718 54.301887 
L 186.190557 52.296959 
L 180.423822 50.438656 
L 174.343728 48.713976 
L 167.940489 47.111204 
L 161.20432 45.619781 
L 151.687958 43.788103 
L 141.539128 42.117513 
L 130.734636 40.583737 
L 125.079268 39.846779 
L 119.251287 39.319443 
L 116.27166 39.221235 
L 113.247793 39.276233 
L 113.247793 39.276233 
" clip-path="url(#pab91043b1c)" style="fill: none; stroke: #2ca02c; stroke-width: 1.4; stroke-linecap: square"/>
   </g>
   <g id="line2d_50">
    <path d="M 350.887102 49.16121 
L 346.822398 50.056242 
L 342.89691 51.23026 
L 335.451982 53.827379 
L 330.212158 55.934003 
L 325.256207 58.209098 
L 320.574341 60.668977 
L 316.156772 63.331593 
L 311.993712 66.216647 
L 309.354899 68.274153 
L 306.821951 70.446906 
L 304.391968 72.742131 
L 302.062049 75.167423 
L 299.829295 77.730733 
L 297.690805 80.440342 
L 295.643679 83.304815 
L 293.685018 86.332946 
L 291.811921 89.533674 
L 290.021488 92.915965 
L 288.310818 96.488672 
L 286.677013 100.260339 
L 284.36408 106.308152 
L 282.207778 112.844411 
L 280.198318 119.884746 
L 278.325913 127.433479 
L 276.580775 135.478612 
L 274.953115 143.985719 
L 272.94873 155.931552 
L 271.112596 168.323913 
L 268.62311 186.828696 
L 266.02673 205.795853 
L 264.986539 212.12133 
L 263.975736 216.905935 
L 263.313361 219.121606 
L 262.656797 220.410435 
L 262.329787 220.731925 
L 262.003143 220.840378 
L 261.676502 220.735032 
L 261.349501 220.416626 
L 261.021778 219.887386 
L 260.362715 218.133767 
L 260.030649 216.925575 
M 256.94947 201.169238 
L 254.227515 175.846475 
L 252.469941 161.540911 
L 251.036316 151.279235 
L 249.492135 141.554899 
L 247.826953 132.436266 
L 246.030328 123.95363 
L 244.091816 116.109571 
L 242.000973 108.887549 
L 240.517292 104.404515 
L 238.958172 100.174709 
L 237.32052 96.18669 
L 235.601239 92.428507 
L 233.797237 88.88801 
L 231.905418 85.553087 
L 229.922689 82.411841 
L 227.845954 79.452717 
L 225.67212 76.664594 
L 223.398092 74.036842 
L 221.020776 71.559358 
L 218.537076 69.222585 
L 215.9439 67.017513 
L 213.238151 64.935677 
L 210.416737 62.969139 
L 207.476562 61.110472 
L 202.836855 58.509678 
L 197.91253 56.114602 
L 192.693145 53.90591 
L 187.168255 51.866227 
L 181.327416 49.979954 
L 175.160186 48.233084 
L 168.656121 46.613041 
L 161.804776 45.108531 
L 154.595709 43.7094 
L 144.40911 41.992167 
L 133.543238 40.426971 
L 121.973338 38.966306 
L 115.91664 38.44257 
L 112.819001 38.342305 
L 109.674653 38.392329 
L 109.674653 38.392329 
" clip-path="url(#pab91043b1c)" style="fill: none; stroke: #d62728; stroke-width: 1.4; stroke-linecap: square"/>
   </g>
   <g id="line2d_51">
    <path d="M 353.292107 46.66961 
L 348.894596 47.533961 
L 344.654287 48.670426 
L 336.631973 51.195346 
L 331.003164 53.254882 
L 325.694393 55.490501 
L 320.694441 57.920932 
L 317.527163 59.659687 
L 314.488825 61.501069 
L 311.576103 63.45238 
L 308.785671 65.521461 
L 306.114204 67.716724 
L 303.558377 70.047174 
L 301.114867 72.52243 
L 298.780347 75.152739 
L 296.551493 77.948978 
L 294.424979 80.922645 
L 292.397482 84.085825 
L 290.465676 87.451138 
L 288.626237 91.031645 
L 286.875838 94.840718 
L 285.211156 98.891856 
L 283.628866 103.198421 
L 282.125642 107.773303 
L 280.698161 112.628473 
L 278.691681 120.459104 
L 276.836917 128.968539 
L 275.122649 138.163369 
L 273.537653 148.022324 
L 272.07071 158.484672 
L 270.279028 173.167386 
L 268.265978 192.010738 
L 265.119739 222.446396 
L 264.164957 229.864899 
L 263.238456 235.157418 
L 262.630957 237.202633 
L 262.329012 237.776612 
L 262.027716 238.073589 
L 261.726652 238.090909 
L 261.425406 237.828422 
L 261.123561 237.288482 
L 260.820702 236.475904 
L 260.210281 233.834114 
L 259.590817 230.119116 
L 258.637392 222.778031 
L 257.303476 210.413168 
L 253.490412 173.614448 
L 251.704054 158.911287 
L 250.241633 148.426456 
L 248.661612 138.54162 
L 246.952769 129.319364 
L 245.103883 120.782297 
L 243.103734 112.924746 
L 241.680723 108.052325 
L 240.182172 103.460884 
L 238.604755 99.138522 
L 236.945147 95.07239 
L 235.200024 91.249142 
L 233.36606 87.655278 
L 231.439931 84.277414 
L 229.418312 81.102461 
L 227.297878 78.117772 
L 225.075304 75.311226 
L 222.747265 72.671288 
L 220.310436 70.187043 
L 217.761492 67.848205 
L 215.097109 65.645116 
L 212.313962 63.568736 
L 209.408725 61.610618 
L 206.378074 59.762886 
L 203.218684 58.018206 
L 198.230939 55.579619 
L 192.934829 53.336642 
L 187.319132 51.270457 
L 181.372626 49.364237 
L 175.084091 47.602932 
L 168.442303 45.973078 
L 161.436043 44.462628 
L 154.054088 43.060791 
L 143.607672 41.344056 
L 132.446806 39.783095 
L 120.54489 38.329344 
L 114.307727 37.807334 
L 111.116139 37.706916 
L 107.875326 37.755898 
L 107.875326 37.755898 
" clip-path="url(#pab91043b1c)" style="fill: none; stroke: #9467bd; stroke-width: 1.4; stroke-linecap: square"/>
   </g>
   <g id="line2d_52">
    <path d="M 352.659398 47.334549 
L 348.353923 48.20314 
L 344.199952 49.34388 
L 336.333605 51.872967 
L 330.807523 53.93016 
L 325.589623 56.157395 
L 320.669006 58.571755 
L 316.034771 61.192122 
L 313.098999 63.063677 
L 310.282433 65.042664 
L 307.581844 67.136165 
L 304.994001 69.351683 
L 302.515675 71.697139 
L 300.143635 74.180866 
L 297.874653 76.811583 
L 295.705498 79.598363 
L 293.632941 82.550572 
L 291.653751 85.67779 
L 289.764698 88.989697 
L 287.962554 92.495919 
L 286.244088 96.205835 
L 284.60607 100.128314 
L 283.045271 104.271394 
L 280.841791 110.914058 
L 278.793884 118.082974 
L 276.890651 125.779463 
L 275.12119 133.985066 
L 273.474601 142.654151 
L 271.451442 154.787355 
L 269.601503 167.276775 
L 264.473225 203.333717 
L 263.417184 208.740498 
L 262.727589 211.380041 
L 262.04577 213.106112 
L 261.706768 213.616146 
L 261.368499 213.907763 
L 261.03056 213.978764 
L 260.692545 213.82862 
L 260.354053 213.458479 
L 260.014679 212.871143 
L 259.331671 210.951054 
L 258.987229 224.695797 
M 256.128686 195.743427 
L 253.317517 170.376457 
L 251.494081 156.049065 
L 250.001805 145.800222 
L 248.389719 136.119428 
L 246.646196 127.07502 
L 244.759603 118.694396 
L 242.718312 110.975735 
L 241.265763 106.187689 
L 239.735845 101.674917 
L 238.125111 97.426141 
L 236.430114 93.429039 
L 234.64741 89.67071 
L 232.773551 86.138039 
L 230.805093 82.817967 
L 228.738588 79.697691 
L 226.570591 76.76481 
L 224.297657 74.007418 
L 221.916338 71.414173 
L 219.42319 68.974329 
L 216.814765 66.67775 
L 214.087619 64.514918 
L 211.238304 62.476913 
L 208.263376 60.555404 
L 205.159387 58.742617 
L 201.922893 57.031315 
L 196.812165 54.640046 
L 191.383915 52.441325 
L 185.626513 50.41658 
L 179.528328 48.549201 
L 173.077731 46.824337 
L 166.263091 45.228707 
L 159.072777 43.750427 
L 151.495161 42.378857 
L 140.769099 40.699753 
L 129.306254 39.173579 
L 117.079058 37.747346 
L 110.670213 37.246186 
L 107.390471 37.133453 
L 107.390471 37.133453 
" clip-path="url(#pab91043b1c)" style="fill: none; stroke: #8c564b; stroke-width: 1.4; stroke-linecap: square"/>
   </g>
   <g id="line2d_53">
    <path d="M 354.79164 45.273385 
L 350.180155 46.118316 
L 345.737581 47.230469 
L 337.344519 49.706246 
L 331.465883 51.730729 
L 325.930229 53.933127 
L 320.7252 56.332896 
L 317.43276 58.053054 
L 314.278113 59.877659 
L 311.257598 61.814345 
L 308.367553 63.871326 
L 305.604318 66.057427 
L 302.964233 68.382104 
L 300.443635 70.85547 
L 298.038865 73.488307 
L 295.746261 76.292061 
L 293.562163 79.278825 
L 291.48291 82.4613 
L 289.50484 85.852715 
L 287.624293 89.466717 
L 285.837609 93.317202 
L 284.141125 97.418075 
L 282.531182 101.782933 
L 281.004118 106.424635 
L 279.556273 111.354747 
L 278.183985 116.582833 
L 276.259216 124.997207 
L 274.48386 134.100443 
L 272.84556 143.866063 
L 271.331962 154.223879 
L 269.486456 168.722854 
L 267.415821 187.185649 
L 264.513959 213.446279 
L 263.515953 220.687859 
L 262.868032 224.333093 
L 262.229773 226.887458 
L 261.597515 228.179108 
L 261.282492 228.400376 
L 260.967597 228.334979 
L 260.652372 227.983506 
L 260.336358 227.349194 
L 259.700138 225.172969 
L 259.055275 221.803531 
L 258.063768 214.932151 
L 256.677342 203.061437 
L 252.707674 167.085782 
L 250.841488 152.656302 
L 249.310251 142.379309 
L 247.652487 132.708242 
L 245.855842 123.705928 
L 243.907959 115.393528 
L 242.519249 110.232168 
L 241.05417 105.366888 
L 239.509062 100.787609 
L 237.880263 96.482422 
L 236.164113 92.43826 
L 234.35695 88.641424 
L 232.455115 85.077985 
L 230.454946 81.734084 
L 228.352781 78.596155 
L 226.144961 75.651074 
L 223.827825 72.886272 
L 221.397711 70.289794 
L 218.850959 67.850341 
L 216.183908 65.55728 
L 213.392896 63.400643 
L 210.474264 61.371116 
L 207.42435 59.460013 
L 204.239493 57.659251 
L 200.916033 55.961317 
L 195.662952 53.592104 
L 190.077422 51.417244 
L 184.147085 49.417608 
L 177.859587 47.576135 
L 171.202572 45.877612 
L 164.163685 44.308471 
L 156.73057 42.856599 
L 148.890872 41.51118 
L 137.784123 39.86631 
L 125.903308 38.370451 
L 119.663473 37.644807 
L 113.219138 37.113719 
L 109.91914 37.008399 
L 106.566644 37.05288 
L 106.566644 37.05288 
" clip-path="url(#pab91043b1c)" style="fill: none; stroke: #e377c2; stroke-width: 1.4; stroke-linecap: square"/>
   </g>
   <g id="line2d_54">
    <path d="M 353.732272 46.082671 
L 349.244768 46.937441 
L 344.919143 48.06123 
L 336.739359 50.557494 
L 331.003109 52.592854 
L 325.595222 54.801063 
L 320.503744 57.19994 
L 315.716719 59.809214 
L 312.688606 61.676286 
L 309.786951 63.653491 
L 307.008212 65.748252 
L 304.348845 67.968434 
L 301.80531 70.322344 
L 299.374064 72.818709 
L 297.051564 75.466647 
L 294.834269 78.275623 
L 292.718637 81.255372 
L 290.701125 84.415792 
L 288.778192 87.766808 
L 286.946294 91.318174 
L 285.201891 95.079233 
L 283.54144 99.058588 
L 281.961398 103.263708 
L 279.734356 110.00686 
L 277.668311 117.280015 
L 275.751309 125.075303 
L 273.971396 133.360286 
L 272.316616 142.069382 
L 270.284232 154.147292 
L 267.98353 169.398257 
L 264.726091 191.173825 
L 263.600026 197.384191 
L 262.868654 200.646864 
L 262.148621 203.122675 
L 261.436384 204.634378 
L 261.082082 205.045818 
L 260.728401 205.241181 
L 260.374898 205.218881 
L 260.02113 204.979089 
L 259.666655 204.523735 
L 259.311029 203.855085 
L 258.95381 202.917923 
L 258.594556 216.167453 
L 258.232822 204.980671 
L 257.868168 161.515821 
L 257.500149 133.201082 
L 257.128323 119.485282 
L 257.447139 119.845266 
L 257.088929 133.786568 
L 256.724901 160.843819 
L 256.354581 200.580924 
L 255.977496 207.233867 
L 255.593173 188.586003 
L 252.660505 163.751802 
L 250.7526 149.714584 
L 249.187715 139.689102 
L 247.493819 130.238443 
L 245.658138 121.430079 
L 243.667896 113.289251 
L 242.248894 108.231566 
L 240.751737 103.462432 
L 239.172639 98.972533 
L 237.507816 94.750626 
L 235.753484 90.784227 
L 233.905856 87.060148 
L 231.961149 83.564906 
L 229.915577 80.285036 
L 227.765356 77.207318 
L 225.506701 74.318936 
L 223.135827 71.607596 
L 220.648949 69.061587 
L 218.042282 66.669829 
L 215.312041 64.421889 
L 212.454442 62.30798 
L 209.465699 60.31895 
L 206.342028 58.446261 
L 203.079644 56.681967 
L 199.674762 55.018681 
L 194.291976 52.698275 
L 188.56728 50.568732 
L 182.487899 48.611234 
L 176.041061 46.809 
L 169.21399 45.147064 
L 161.993914 43.612082 
L 154.368057 42.192143 
L 146.323647 40.876609 
L 134.924605 39.268685 
L 122.728479 37.809749 
L 113.040084 36.799611 
L 106.316295 36.31103 
L 106.316295 36.31103 
" clip-path="url(#pab91043b1c)" style="fill: none; stroke: #7f7f7f; stroke-width: 1.4; stroke-linecap: square"/>
   </g>
   <g id="line2d_55">
    <path d="M 355.439318 44.265914 
L 350.6607 45.103101 
L 346.061693 46.206337 
L 337.386504 48.667371 
L 331.321823 50.685055 
L 325.620739 52.885091 
L 320.269742 55.287949 
L 316.890232 57.013773 
L 313.656309 58.84739 
L 310.56397 60.796873 
L 307.609212 62.870918 
L 304.788032 65.07887 
L 302.096428 67.430751 
L 299.530395 69.937274 
L 297.085932 72.609854 
L 294.759035 75.460588 
L 292.545701 78.502232 
L 290.441928 81.748127 
L 288.443712 85.212095 
L 286.54705 88.908283 
L 284.74794 92.850931 
L 283.042378 97.054059 
L 281.426362 101.531041 
L 279.895889 106.294048 
L 278.446955 111.353328 
L 277.075557 116.716297 
L 275.155086 125.336313 
L 273.386556 134.633653 
L 271.756456 144.555872 
L 270.251277 154.995484 
L 268.415343 169.398915 
L 263.429397 210.443591 
L 262.747939 214.309161 
L 262.077969 217.13281 
L 261.415483 218.70203 
L 261.085797 219.061438 
L 260.75648 219.132748 
L 260.427033 218.915296 
L 260.096955 218.411193 
L 259.765747 217.625278 
L 259.097935 215.082656 
L 258.419595 211.45784 
L 257.373587 204.264966 
L 255.9047 192.169579 
L 252.133493 160.277938 
L 250.176475 146.188199 
L 248.567241 136.174339 
L 246.821734 126.772347 
L 244.926444 118.042389 
L 242.867862 110.00242 
L 241.398085 105.021146 
L 239.845726 100.333718 
L 238.206782 95.929307 
L 236.47725 91.795365 
L 234.653128 87.9183 
L 232.730412 84.283999 
L 230.7051 80.878218 
L 228.573188 77.686875 
L 226.330673 74.69626 
L 223.973553 71.893175 
L 221.497825 69.265031 
L 218.899485 66.799905 
L 216.174531 64.486564 
L 213.31896 62.314477 
L 210.328768 60.273799 
L 207.199953 58.355357 
L 203.928512 56.55062 
L 200.510442 54.85167 
L 196.941739 53.251163 
L 191.297494 51.020248 
L 185.29181 48.974795 
L 178.911177 47.096248 
L 172.142085 45.368104 
L 164.971025 43.775685 
L 157.384485 42.305926 
L 149.368957 40.947192 
L 137.990919 39.29049 
L 125.794193 37.7901 
L 119.378815 37.058522 
L 112.746755 36.517163 
L 109.348219 36.406706 
L 105.894012 36.446793 
L 105.894012 36.446793 
" clip-path="url(#pab91043b1c)" style="fill: none; stroke: #bcbd22; stroke-width: 1.4; stroke-linecap: square"/>
   </g>
   <g id="line2d_56">
    <path d="M 353.838585 45.34806 
L 349.237264 46.200976 
L 344.805677 47.323332 
L 336.436428 49.820367 
L 330.576637 51.860342 
L 325.060075 54.077265 
L 319.873852 56.489648 
L 316.593526 58.216527 
L 313.450467 60.045932 
L 310.440858 61.984883 
L 307.560877 64.040837 
L 304.806706 66.221693 
L 302.174525 68.535782 
L 299.660514 70.991846 
L 297.260854 73.599001 
L 294.971725 76.366678 
L 292.789307 79.304539 
L 290.709782 82.422355 
L 288.729329 85.729842 
L 286.844129 89.236446 
L 285.050362 92.951058 
L 283.344209 96.881658 
L 281.72185 101.034862 
L 280.179466 105.415369 
L 278.007486 112.416011 
L 275.993964 119.923782 
L 274.126009 127.905745 
L 272.39073 136.295596 
L 270.261127 147.920781 
L 267.852033 162.557909 
L 264.844453 181.009317 
L 263.650092 187.247337 
L 262.493873 191.977252 
L 261.737883 194.155591 
L 260.989297 195.41182 
L 260.616586 195.715725 
L 260.244293 195.79997 
L 259.871941 195.663893 
L 259.499052 195.308589 
L 259.12515 194.736885 
L 258.749756 193.936334 
L 258.372393 206.605276 
L 257.992584 196.043945 
L 257.609851 154.767266 
L 257.223717 127.926631 
L 256.833704 114.982219 
L 257.158855 115.421723 
L 256.783874 128.761101 
L 256.402831 154.545065 
L 256.015212 192.347311 
L 255.620506 198.669174 
L 255.218201 180.888005 
L 252.146279 156.966058 
L 250.144861 143.411862 
L 248.501284 133.732914 
L 246.720191 124.615572 
L 244.787757 116.126942 
L 242.690159 108.29167 
L 241.193175 103.429515 
L 239.612543 98.849202 
L 237.944169 94.541318 
L 236.183954 90.494569 
L 234.327805 86.696469 
L 232.371623 83.133872 
L 230.311313 79.793381 
L 228.142779 76.661651 
L 225.861924 73.725614 
L 223.464653 70.97263 
L 220.946869 68.390599 
L 218.304476 65.96802 
L 215.533377 63.694034 
L 212.629477 61.558432 
L 209.58868 59.551655 
L 206.406889 57.664778 
L 203.080008 55.889492 
L 199.603941 54.218072 
L 194.101155 51.890147 
L 188.23966 49.757877 
L 182.00563 47.801625 
L 175.385241 46.003902 
L 168.364668 44.349142 
L 160.930087 42.823486 
L 153.067673 41.414588 
L 144.7636 40.111446 
L 132.980587 38.521619 
L 120.355057 37.067858 
L 113.716108 36.409867 
L 106.854241 35.909091 
L 106.854241 35.909091 
" clip-path="url(#pab91043b1c)" style="fill: none; stroke: #17becf; stroke-width: 1.4; stroke-linecap: square"/>
   </g>
   <g id="patch_3">
    <path d="M 58.325 248.2 
L 58.325 25.8 
" style="fill: none; stroke: #000000; stroke-width: 0.8; stroke-linejoin: miter; stroke-linecap: square"/>
   </g>
   <g id="patch_4">
    <path d="M 58.325 248.2 
L 421.2 248.2 
" style="fill: none; stroke: #000000; stroke-width: 0.8; stroke-linejoin: miter; stroke-linecap: square"/>
   </g>
   <g id="text_16">
    <text style="font-size: 12px; font-family: 'DejaVu Sans', 'Bitstream Vera Sans', 'Computer Modern Sans Serif', 'Lucida Grande', 'Verdana', 'Geneva', 'Lucid', 'Arial', 'Helvetica', 'Avant Garde', sans-serif; text-anchor: middle" x="239.7625" y="19.8" transform="rotate(-0 239.7625 19.8)">dQ/dE (cathodic)</text>
   </g>
  </g>
 </g>
 <defs>
  <clipPath id="pab91043b1c">
   <rect x="58.325" y="25.8" width="362.875" height="222.4"/>
  </clipPath>
 </defs>
</svg>
