<?xml version="1.0" encoding="utf-8" standalone="no"?>
<!DOCTYPE svg PUBLIC "-//W3C//DTD SVG 1.1//EN"
  "http://www.w3.org/Graphics/SVG/1.1/DTD/svg11.dtd">
<svg xmlns:xlink="http://www.w3.org/1999/xlink" width="432pt" height="288pt" viewBox="0 0 432 288" xmlns="http://www.w3.org/2000/svg" version="1.1">
 <metadata>
  <rdf:RDF xmlns:dc="http://purl.org/dc/elements/1.1/" xmlns:cc="http://creativecommons.org/ns#" xmlns:rdf="http://www.w3.org/1999/02/22-rdf-syntax-ns#">
   <cc:Work>
    <dc:type rdf:resource="http://purl.org/dc/dcmitype/StillImage"/>
    <dc:date>2025-10-07T15:53:15.304654</dc:date>
    <dc:format>image/svg+xml</dc:format>
    <dc:creator>
     <cc:Agent>
      <dc:title>Matplotlib v3.10.3, https://matplotlib.org/</dc:title>
     </cc:Agent>
    </dc:creator>
   </cc:Work>
  </rdf:RDF>
 </metadata>
 <defs>
  <style type="text/css">*{stroke-linejoin: round; stroke-linecap: butt}</style>
 </defs>
 <g id="figure_1">
  <g id="patch_1">
   <path d="M 0 288 
L 432 288 
L 432 0 
L 0 0 
z
" style="fill: #ffffff"/>
  </g>
  <g id="axes_1">
   <g id="patch_2">
    <path d="M 58.325 248.2 
L 421.2 248.2 
L 421.2 25.8 
L 58.325 25.8 
z
" style="fill: #ffffff"/>
   </g>
   <g id="matplotlib.axis_1">
    <g id="xtick_1">
     <g id="line2d_1">
      <path d="M 89.704981 248.2 
L 89.704981 25.8 
" clip-path="url(#p12f9f5829b)" style="fill: none; stroke: #b0b0b0; stroke-opacity: 0.25; stroke-width: 0.8; stroke-linecap: square"/>
     </g>
     <g id="line2d_2">
      <defs>
       <path id="m7348b50e42" d="M 0 0 
L 0 3.5 
" style="stroke: #000000; stroke-width: 0.8"/>
      </defs>
      <g>
       <use xlink:href="#m7348b50e42" x="89.704981" y="248.2" style="stroke: #000000; stroke-width: 0.8"/>
      </g>
     </g>
     <g id="text_1">
      <text style="font-size: 10px; font-family: 'DejaVu Sans', 'Bitstream Vera Sans', 'Computer Modern Sans Serif', 'Lucida Grande', 'Verdana', 'Geneva', 'Lucid', 'Arial', 'Helvetica', 'Avant Garde', sans-serif; text-anchor: middle" x="89.704981" y="262.798438" transform="rotate(-0 89.704981 262.798438)">3.0</text>
     </g>
    </g>
    <g id="xtick_2">
     <g id="line2d_3">
      <path d="M 146.930578 248.2 
L 146.930578 25.8 
" clip-path="url(#p12f9f5829b)" style="fill: none; stroke: #b0b0b0; stroke-opacity: 0.25; stroke-width: 0.8; stroke-linecap: square"/>
     </g>
     <g id="line2d_4">
      <g>
       <use xlink:href="#m7348b50e42" x="146.930578" y="248.2" style="stroke: #000000; stroke-width: 0.8"/>
      </g>
     </g>
     <g id="text_2">
      <text style="font-size: 10px; font-family: 'DejaVu Sans', 'Bitstream Vera Sans', 'Computer Modern Sans Serif', 'Lucida Grande', 'Verdana', 'Geneva', 'Lucid', 'Arial', 'Helvetica', 'Avant Garde', sans-serif; text-anchor: middle" x="146.930578" y="262.798438" transform="rotate(-0 146.930578 262.798438)">3.2</text>
     </g>
    </g>
    <g id="xtick_3">
     <g id="line2d_5">
      <path d="M 204.156175 248.2 
L 204.156175 25.8 
" clip-path="url(#p12f9f5829b)" style="fill: none; stroke: #b0b0b0; stroke-opacity: 0.25; stroke-width: 0.8; stroke-linecap: square"/>
     </g>
     <g id="line2d_6">
      <g>
       <use xlink:href="#m7348b50e42" x="204.156175" y="248.2" style="stroke: #000000; stroke-width: 0.8"/>
      </g>
     </g>
     <g id="text_3">
      <text style="font-size: 10px; font-family: 'DejaVu Sans', 'Bitstream Vera Sans', 'Computer Modern Sans Serif', 'Lucida Grande', 'Verdana', 'Geneva', 'Lucid', 'Arial', 'Helvetica', 'Avant Garde', sans-serif; text-anchor: middle" x="204.156175" y="262.798438" transform="rotate(-0 204.156175 262.798438)">3.4</text>
     </g>
    </g>
    <g id="xtick_4">
     <g id="line2d_7">
      <path d="M 261.381772 248.2 
L 261.381772 25.8 
" clip-path="url(#p12f9f5829b)" style="fill: none; stroke: #b0b0b0; stroke-opacity: 0.25; stroke-width: 0.8; stroke-linecap: square"/>
     </g>
     <g id="line2d_8">
      <g>
       <use xlink:href="#m7348b50e42" x="261.381772" y="248.2" style="stroke: #000000; stroke-width: 0.8"/>
      </g>
     </g>
     <g id="text_4">
      <text style="font-size: 10px; font-family: 'DejaVu Sans', 'Bitstream Vera Sans', 'Computer Modern Sans Serif', 'Lucida Grande', 'Verdana', 'Geneva', 'Lucid', 'Arial', 'Helvetica', 'Avant Garde', sans-serif; text-anchor: middle" x="261.381772" y="262.798438" transform="rotate(-0 261.381772 262.798438)">3.6</text>
     </g>
    </g>
    <g id="xtick_5">
     <g id="line2d_9">
      <path d="M 318.607368 248.2 
L 318.607368 25.8 
" clip-path="url(#p12f9f5829b)" style="fill: none; stroke: #b0b0b0; stroke-opacity: 0.25; stroke-width: 0.8; stroke-linecap: square"/>
     </g>
     <g id="line2d_10">
      <g>
       <use xlink:href="#m7348b50e42" x="318.607368" y="248.2" style="stroke: #000000; stroke-width: 0.8"/>
      </g>
     </g>
     <g id="text_5">
      <text style="font-size: 10px; font-family: 'DejaVu Sans', 'Bitstream Vera Sans', 'Computer Modern Sans Serif', 'Lucida Grande', 'Verdana', 'Geneva', 'Lucid', 'Arial', 'Helvetica', 'Avant Garde', sans-serif; text-anchor: middle" x="318.607368" y="262.798438" transform="rotate(-0 318.607368 262.798438)">3.8</text>
     </g>
    </g>
    <g id="xtick_6">
     <g id="line2d_11">
      <path d="M 375.832965 248.2 
L 375.832965 25.8 
" clip-path="url(#p12f9f5829b)" style="fill: none; stroke: #b0b0b0; stroke-opacity: 0.25; stroke-width: 0.8; stroke-linecap: square"/>
     </g>
     <g id="line2d_12">
      <g>
       <use xlink:href="#m7348b50e42" x="375.832965" y="248.2" style="stroke: #000000; stroke-width: 0.8"/>
      </g>
     </g>
     <g id="text_6">
      <text style="font-size: 10px; font-family: 'DejaVu Sans', 'Bitstream Vera Sans', 'Computer Modern Sans Serif', 'Lucida Grande', 'Verdana', 'Geneva', 'Lucid', 'Arial', 'Helvetica', 'Avant Garde', sans-serif; text-anchor: middle" x="375.832965" y="262.798438" transform="rotate(-0 375.832965 262.798438)">4.0</text>
     </g>
    </g>
    <g id="text_7">
     <text style="font-size: 10px; font-family: 'DejaVu Sans', 'Bitstream Vera Sans', 'Computer Modern Sans Serif', 'Lucida Grande', 'Verdana', 'Geneva', 'Lucid', 'Arial', 'Helvetica', 'Avant Garde', sans-serif; text-anchor: middle" x="239.7625" y="276.476562" transform="rotate(-0 239.7625 276.476562)">E (V)</text>
    </g>
   </g>
   <g id="matplotlib.axis_2">
    <g id="ytick_1">
     <g id="line2d_13">
      <path d="M 58.325 221.579342 
L 421.2 221.579342 
" clip-path="url(#p12f9f5829b)" style="fill: none; stroke: #b0b0b0; stroke-opacity: 0.25; stroke-width: 0.8; stroke-linecap: square"/>
     </g>
     <g id="line2d_14">
      <defs>
       <path id="m3a5ea811d3" d="M 0 0 
L -3.5 0 
" style="stroke: #000000; stroke-width: 0.8"/>
      </defs>
      <g>
       <use xlink:href="#m3a5ea811d3" x="58.325" y="221.579342" style="stroke: #000000; stroke-width: 0.8"/>
      </g>
     </g>
     <g id="text_8">
      <text style="font-size: 10px; font-family: 'DejaVu Sans', 'Bitstream Vera Sans', 'Computer Modern Sans Serif', 'Lucida Grande', 'Verdana', 'Geneva', 'Lucid', 'Arial', 'Helvetica', 'Avant Garde', sans-serif; text-anchor: end" x="51.325" y="225.378561" transform="rotate(-0 51.325 225.378561)">−400</text>
     </g>
    </g>
    <g id="ytick_2">
     <g id="line2d_15">
      <path d="M 58.325 193.845917 
L 421.2 193.845917 
" clip-path="url(#p12f9f5829b)" style="fill: none; stroke: #b0b0b0; stroke-opacity: 0.25; stroke-width: 0.8; stroke-linecap: square"/>
     </g>
     <g id="line2d_16">
      <g>
       <use xlink:href="#m3a5ea811d3" x="58.325" y="193.845917" style="stroke: #000000; stroke-width: 0.8"/>
      </g>
     </g>
     <g id="text_9">
      <text style="font-size: 10px; font-family: 'DejaVu Sans', 'Bitstream Vera Sans', 'Computer Modern Sans Serif', 'Lucida Grande', 'Verdana', 'Geneva', 'Lucid', 'Arial', 'Helvetica', 'Avant Garde', sans-serif; text-anchor: end" x="51.325" y="197.645135" transform="rotate(-0 51.325 197.645135)">−350</text>
     </g>
    </g>
    <g id="ytick_3">
     <g id="line2d_17">
      <path d="M 58.325 166.112492 
L 421.2 166.112492 
" clip-path="url(#p12f9f5829b)" style="fill: none; stroke: #b0b0b0; stroke-opacity: 0.25; stroke-width: 0.8; stroke-linecap: square"/>
     </g>
     <g id="line2d_18">
      <g>
       <use xlink:href="#m3a5ea811d3" x="58.325" y="166.112492" style="stroke: #000000; stroke-width: 0.8"/>
      </g>
     </g>
     <g id="text_10">
      <text style="font-size: 10px; font-family: 'DejaVu Sans', 'Bitstream Vera Sans', 'Computer Modern Sans Serif', 'Lucida Grande', 'Verdana', 'Geneva', 'Lucid', 'Arial', 'Helvetica', 'Avant Garde', sans-serif; text-anchor: end" x="51.325" y="169.91171" transform="rotate(-0 51.325 169.91171)">−300</text>
     </g>
    </g>
    <g id="ytick_4">
     <g id="line2d_19">
      <path d="M 58.325 138.379066 
L 421.2 138.379066 
" clip-path="url(#p12f9f5829b)" style="fill: none; stroke: #b0b0b0; stroke-opacity: 0.25; stroke-width: 0.8; stroke-linecap: square"/>
     </g>
     <g id="line2d_20">
      <g>
       <use xlink:href="#m3a5ea811d3" x="58.325" y="138.379066" style="stroke: #000000; stroke-width: 0.8"/>
      </g>
     </g>
     <g id="text_11">
      <text style="font-size: 10px; font-family: 'DejaVu Sans', 'Bitstream Vera Sans', 'Computer Modern Sans Serif', 'Lucida Grande', 'Verdana', 'Geneva', 'Lucid', 'Arial', 'Helvetica', 'Avant Garde', sans-serif; text-anchor: end" x="51.325" y="142.178285" transform="rotate(-0 51.325 142.178285)">−250</text>
     </g>
    </g>
    <g id="ytick_5">
     <g id="line2d_21">
      <path d="M 58.325 110.645641 
L 421.2 110.645641 
" clip-path="url(#p12f9f5829b)" style="fill: none; stroke: #b0b0b0; stroke-opacity: 0.25; stroke-width: 0.8; stroke-linecap: square"/>
     </g>
     <g id="line2d_22">
      <g>
       <use xlink:href="#m3a5ea811d3" x="58.325" y="110.645641" style="stroke: #000000; stroke-width: 0.8"/>
      </g>
     </g>
     <g id="text_12">
      <text style="font-size: 10px; font-family: 'DejaVu Sans', 'Bitstream Vera Sans', 'Computer Modern Sans Serif', 'Lucida Grande', 'Verdana', 'Geneva', 'Lucid', 'Arial', 'Helvetica', 'Avant Garde', sans-serif; text-anchor: end" x="51.325" y="114.44486" transform="rotate(-0 51.325 114.44486)">−200</text>
     </g>
    </g>
    <g id="ytick_6">
     <g id="line2d_23">
      <path d="M 58.325 82.912216 
L 421.2 82.912216 
" clip-path="url(#p12f9f5829b)" style="fill: none; stroke: #b0b0b0; stroke-opacity: 0.25; stroke-width: 0.8; stroke-linecap: square"/>
     </g>
     <g id="line2d_24">
      <g>
       <use xlink:href="#m3a5ea811d3" x="58.325" y="82.912216" style="stroke: #000000; stroke-width: 0.8"/>
      </g>
     </g>
     <g id="text_13">
      <text style="font-size: 10px; font-family: 'DejaVu Sans', 'Bitstream Vera Sans', 'Computer Modern Sans Serif', 'Lucida Grande', 'Verdana', 'Geneva', 'Lucid', 'Arial', 'Helvetica', 'Avant Garde', sans-serif; text-anchor: end" x="51.325" y="86.711435" transform="rotate(-0 51.325 86.711435)">−150</text>
     </g>
    </g>
    <g id="ytick_7">
     <g id="line2d_25">
      <path d="M 58.325 55.178791 
L 421.2 55.178791 
" clip-path="url(#p12f9f5829b)" style="fill: none; stroke: #b0b0b0; stroke-opacity: 0.25; stroke-width: 0.8; stroke-linecap: square"/>
     </g>
     <g id="line2d_26">
      <g>
       <use xlink:href="#m3a5ea811d3" x="58.325" y="55.178791" style="stroke: #000000; stroke-width: 0.8"/>
      </g>
     </g>
     <g id="text_14">
      <text style="font-size: 10px; font-family: 'DejaVu Sans', 'Bitstream Vera Sans', 'Computer Modern Sans Serif', 'Lucida Grande', 'Verdana', 'Geneva', 'Lucid', 'Arial', 'Helvetica', 'Avant Garde', sans-serif; text-anchor: end" x="51.325" y="58.97801" transform="rotate(-0 51.325 58.97801)">−100</text>
     </g>
    </g>
    <g id="ytick_8">
     <g id="line2d_27">
      <path d="M 58.325 27.445366 
L 421.2 27.445366 
" clip-path="url(#p12f9f5829b)" style="fill: none; stroke: #b0b0b0; stroke-opacity: 0.25; stroke-width: 0.8; stroke-linecap: square"/>
     </g>
     <g id="line2d_28">
      <g>
       <use xlink:href="#m3a5ea811d3" x="58.325" y="27.445366" style="stroke: #000000; stroke-width: 0.8"/>
      </g>
     </g>
     <g id="text_15">
      <text style="font-size: 10px; font-family: 'DejaVu Sans', 'Bitstream Vera Sans', 'Computer Modern Sans Serif', 'Lucida Grande', 'Verdana', 'Geneva', 'Lucid', 'Arial', 'Helvetica', 'Avant Garde', sans-serif; text-anchor: end" x="51.325" y="31.244584" transform="rotate(-0 51.325 31.244584)">−50</text>
     </g>
    </g>
    <g id="text_16">
     <text style="font-size: 10px; font-family: 'DejaVu Sans', 'Bitstream Vera Sans', 'Computer Modern Sans Serif', 'Lucida Grande', 'Verdana', 'Geneva', 'Lucid', 'Arial', 'Helvetica', 'Avant Garde', sans-serif; text-anchor: middle" x="17.778125" y="137" transform="rotate(-90 17.778125 137)">dQ/dE (mAh g^-1 V^-1)</text>
    </g>
   </g>
   <g id="line2d_29">
    <path d="M 401.059827 49.807195 
L 396.785528 50.856685 
L 392.6186 52.125898 
L 386.565722 54.237476 
L 380.744648 56.424397 
L 375.14951 58.730827 
L 369.774439 61.164236 
L 364.613568 63.732512 
L 359.66103 66.443956 
L 354.910956 69.307273 
L 350.35748 72.33155 
L 345.994732 75.52622 
L 341.816847 78.901008 
L 337.817955 82.465858 
L 333.992189 86.230826 
L 330.333681 90.205946 
L 326.836565 94.40105 
L 323.494971 98.825544 
L 320.303033 103.488117 
L 317.254882 108.396391 
L 314.344651 113.556487 
L 311.566472 118.972502 
L 308.914477 124.645892 
L 306.382799 130.574742 
L 303.96557 136.752945 
L 301.656923 143.169259 
L 298.737489 152.063662 
L 295.986748 161.287903 
L 293.390791 170.752854 
L 290.342323 182.735547 
L 285.854815 201.484261 
L 282.245975 216.274942 
L 280.286645 223.501711 
L 278.855592 228.137804 
L 277.450973 231.988165 
L 276.526347 234.073735 
L 275.609123 235.747546 
L 274.697563 236.99852 
L 273.789927 237.760036 
L 272.884476 238.089411 
L 271.979474 237.983498 
L 271.073179 237.443572 
L 270.163856 236.451727 
L 269.249763 234.987494 
L 268.329164 233.11118 
L 266.932261 229.551646 
L 265.510939 225.174065 
L 263.567713 218.23567 
L 261.041772 208.153454 
L 252.557103 173.212107 
L 249.998724 163.703341 
L 247.289139 154.407414 
L 244.414441 145.421196 
L 242.141693 138.926842 
L 239.762377 132.665383 
L 237.270626 126.650052 
L 234.660571 120.888608 
L 231.926344 115.384304 
L 229.062079 110.136753 
L 226.061906 105.142689 
L 222.91996 100.396621 
L 219.630371 95.89139 
L 216.187272 91.618627 
L 212.584795 87.569138 
L 208.817073 83.733209 
L 204.878239 80.100852 
L 200.762423 76.662 
L 196.463759 73.406658 
L 191.976379 70.325017 
L 187.294415 67.407536 
L 182.411999 64.645003 
L 177.323264 62.028581 
L 172.022342 59.549827 
L 166.503365 57.200711 
L 160.760466 54.973621 
L 154.787777 52.861355 
L 148.57943 50.857123 
L 139.924913 48.341864 
L 130.827108 45.993219 
L 121.272108 43.798208 
L 111.246002 41.744916 
L 100.734883 39.822414 
L 89.724842 37.973598 
L 84.02838 37.268251 
L 81.131527 37.066404 
L 78.201971 37.000259 
L 75.239493 37.09618 
L 75.239493 37.09618 
" clip-path="url(#p12f9f5829b)" style="fill: none; stroke: #1f77b4; stroke-width: 1.4; stroke-linecap: square"/>
   </g>
   <g id="line2d_30">
    <path d="M 401.650736 52.791641 
L 397.61506 53.851628 
L 393.676101 55.130847 
L 386.082104 57.971417 
L 380.628913 60.197622 
L 375.377576 62.536604 
L 370.322841 64.994525 
L 365.459457 67.577777 
L 360.782171 70.292955 
L 356.285731 73.146827 
L 351.964884 76.146283 
L 347.814379 79.298277 
L 343.828964 82.609742 
L 340.003385 86.087494 
L 336.332391 89.738103 
L 332.81073 93.567735 
L 329.43315 97.581965 
L 326.194398 101.785549 
L 323.089222 106.182144 
L 320.11237 110.773993 
L 317.25859 115.561548 
L 314.522629 120.543041 
L 311.899236 125.714001 
L 309.383158 131.066717 
L 306.186244 138.465844 
L 303.158326 146.127188 
L 300.286953 153.994221 
L 296.898915 164.000093 
L 293.09623 175.996204 
L 285.649006 199.797482 
L 283.524866 205.832611 
L 281.969815 209.764974 
L 280.441545 213.108993 
L 278.934804 215.801076 
L 277.939678 217.206723 
L 276.950229 218.285813 
L 275.964902 219.028357 
L 274.982141 219.427392 
L 274.00039 219.479148 
L 273.018092 219.183136 
L 272.03369 218.542156 
L 271.04563 217.562234 
L 270.549741 231.776735 
L 270.052354 227.283981 
L 269.553274 192.906729 
L 269.052307 167.515898 
L 268.549258 151.023262 
L 268.043932 143.446148 
L 268.463275 144.518718 
L 267.9818 153.935478 
L 267.496963 171.399789 
L 267.00855 196.62413 
L 266.516345 229.330331 
L 266.020133 231.76577 
L 265.519696 214.609074 
L 261.338264 197.674789 
L 256.157015 176.807077 
L 253.004874 165.072701 
L 250.31912 155.865284 
L 247.472593 146.93188 
L 244.451486 138.347088 
L 242.062784 132.168224 
L 239.56229 126.227587 
L 236.94418 120.533335 
L 234.202629 115.089188 
L 231.331814 109.895266 
L 228.325908 104.948821 
L 225.179087 100.244885 
L 221.885528 95.7768 
L 218.439405 91.53668 
L 214.834893 87.515782 
L 211.066169 83.704812 
L 207.127406 80.09417 
L 203.012782 76.674142 
L 198.716471 73.435055 
L 194.232648 70.367389 
L 189.555489 67.461863 
L 184.67917 64.709502 
L 179.597865 62.101676 
L 174.305751 59.630129 
L 168.797001 57.286999 
L 163.065793 55.064818 
L 157.106301 52.956519 
L 150.9127 50.955426 
L 142.280331 48.44324 
L 133.207607 46.09659 
L 123.680722 43.902676 
L 113.685871 41.849733 
L 103.209246 39.926961 
L 89.414937 37.661533 
L 83.674357 36.816011 
L 77.803841 36.146723 
L 74.819318 35.909091 
L 74.819318 35.909091 
" clip-path="url(#p12f9f5829b)" style="fill: none; stroke: #ff7f0e; stroke-width: 1.4; stroke-linecap: square"/>
   </g>
   <g id="line2d_31">
    <path d="M 400.567376 55.030742 
L 396.694256 56.101375 
L 392.911131 57.391626 
L 385.60907 60.250346 
L 380.357979 62.484144 
L 375.294699 64.82494 
L 370.414336 67.277979 
L 365.711997 69.848626 
L 361.182789 72.542327 
L 356.821817 75.364567 
L 352.62419 78.320809 
L 348.585014 81.416423 
L 344.699395 84.656601 
L 340.962439 88.046245 
L 337.369255 91.589838 
L 333.914948 95.29129 
L 330.594625 99.153755 
L 327.403394 103.179415 
L 324.336359 107.369234 
L 321.388629 111.722672 
L 318.55531 116.237368 
L 315.831509 120.908783 
L 312.361677 127.368424 
L 309.066244 134.068424 
L 305.933613 140.972258 
L 302.952184 148.030354 
L 299.420355 156.970549 
L 294.799119 169.408005 
L 288.161743 187.441956 
L 285.341525 194.390603 
L 283.15215 199.121798 
L 281.541474 202.099035 
L 279.952235 204.530509 
L 278.902236 205.826883 
L 277.858141 206.851163 
L 276.818499 207.594993 
L 275.781861 208.052224 
L 274.746777 208.219045 
L 273.711797 208.094057 
L 272.675471 207.678308 
L 271.636349 206.975268 
L 271.115286 220.375359 
L 270.592981 216.312161 
L 270.069252 184.305648 
L 269.543918 160.711497 
L 269.016797 145.432448 
L 268.487709 138.383048 
L 268.943265 139.496061 
L 268.440599 148.473115 
L 267.934881 165.023987 
L 267.425907 188.866876 
L 266.913473 219.728653 
L 266.397375 222.316113 
L 265.877407 206.563894 
L 264.82505 203.171608 
L 253.046125 162.943672 
L 249.629916 152.457966 
L 246.725637 144.276212 
L 243.654927 136.35837 
L 241.234813 130.625073 
L 238.708218 125.085044 
L 236.069631 119.748778 
L 233.313538 114.622709 
L 230.434427 109.709881 
L 227.426785 105.010554 
L 224.285101 100.522748 
L 221.003861 96.242714 
L 217.577553 92.165334 
L 214.000665 88.284472 
L 210.267683 84.593253 
L 206.373096 81.084305 
L 202.311391 77.749952 
L 198.077056 74.582368 
L 193.664577 71.573702 
L 189.068443 68.716175 
L 184.28314 66.002154 
L 179.303157 63.424209 
L 174.122982 60.975154 
L 168.7371 58.648072 
L 163.14 56.436339 
L 157.32617 54.333631 
L 151.290097 52.333928 
L 142.886759 49.818054 
L 134.065456 47.462458 
L 124.813121 45.25534 
L 115.116687 43.185777 
L 104.963087 41.243677 
L 91.608292 38.950139 
L 86.054931 38.24831 
L 83.232124 37.997696 
L 83.232124 37.997696 
" clip-path="url(#p12f9f5829b)" style="fill: none; stroke: #2ca02c; stroke-width: 1.4; stroke-linecap: square"/>
   </g>
   <g id="line2d_32">
    <path d="M 404.215609 50.351897 
L 399.989756 51.410947 
L 395.869761 52.691346 
L 389.884464 54.82071 
L 384.127604 57.02481 
L 378.593337 59.347965 
L 373.275817 61.797411 
L 368.169199 64.380755 
L 363.267637 67.105962 
L 358.565286 69.981334 
L 354.056301 73.015478 
L 349.734835 76.217261 
L 345.595044 79.595736 
L 341.631082 83.160058 
L 337.837103 86.919359 
L 334.207263 90.882591 
L 330.735715 95.058333 
L 327.416614 99.45454 
L 324.244116 104.078237 
L 321.212374 108.935144 
L 318.315542 114.029233 
L 315.547777 119.362189 
L 312.903231 124.932795 
L 310.37606 130.736216 
L 307.960418 136.763198 
L 304.902949 145.120904 
L 302.019506 153.79729 
L 299.296234 162.716464 
L 296.096275 174.046617 
L 291.948881 189.745419 
L 287.077488 208.15381 
L 285.041359 215.083869 
L 283.554208 219.568461 
L 282.094802 223.337156 
L 280.657296 226.306459 
L 279.708237 227.812488 
L 278.764582 228.905673 
L 277.824597 229.54295 
L 276.886552 229.788351 
L 275.948713 229.638979 
L 275.00935 229.096618 
L 274.066729 228.114495 
L 273.11912 226.698437 
L 272.16479 224.901513 
L 270.716904 221.516136 
L 269.244153 217.372209 
L 267.231705 210.822556 
L 264.618261 201.317616 
L 255.221282 166.044186 
L 252.553691 157.059494 
L 249.731049 148.282875 
L 246.739501 139.799942 
L 244.37666 133.667684 
L 241.90517 127.752571 
L 239.319185 122.06635 
L 236.61286 116.615924 
L 233.78035 111.404194 
L 230.815809 106.430819 
L 227.713391 101.69288 
L 224.467252 97.185453 
L 221.071545 92.902103 
L 217.520426 88.83529 
L 213.808049 84.976705 
L 209.928568 81.317552 
L 205.876138 77.848762 
L 201.644914 74.561175 
L 197.22905 71.445672 
L 192.6227 68.493286 
L 187.82002 65.695272 
L 182.815163 63.043173 
L 177.602285 60.528853 
L 172.17554 58.144527 
L 166.529082 55.882775 
L 160.657066 53.736548 
L 154.553647 51.699167 
L 148.212979 49.764321 
L 139.379598 47.333778 
L 130.100193 45.061803 
L 120.360909 42.93626 
L 110.14789 40.945985 
L 96.694317 38.577981 
L 91.093504 37.748091 
L 88.245222 37.43454 
L 85.364733 37.230199 
L 82.45182 37.161496 
L 79.506269 37.254864 
L 79.506269 37.254864 
" clip-path="url(#p12f9f5829b)" style="fill: none; stroke: #d62728; stroke-width: 1.4; stroke-linecap: square"/>
   </g>
   <g id="line2d_33">
    <path d="M 402.944894 52.53578 
L 398.891312 53.608522 
L 394.936441 54.903714 
L 387.316357 57.781718 
L 381.848374 60.039235 
L 376.586107 62.412849 
L 371.524093 64.908969 
L 366.656873 67.534237 
L 361.978984 70.295501 
L 357.484966 73.199774 
L 353.169357 76.254181 
L 349.026697 79.465888 
L 345.051524 82.842009 
L 341.238377 86.389493 
L 337.581795 90.114976 
L 334.076317 94.024607 
L 330.716481 98.123829 
L 327.496827 102.417122 
L 324.411894 106.907687 
L 321.456219 111.59709 
L 318.624343 116.484838 
L 315.910804 121.567897 
L 313.310141 126.840158 
L 310.816892 132.291842 
L 307.650211 139.814811 
L 304.651836 147.583735 
L 301.808822 155.532788 
L 298.45381 165.588256 
L 294.082497 179.480923 
L 288.918645 195.840836 
L 286.753354 202.091724 
L 284.649573 207.451736 
L 283.104316 210.7814 
L 281.580917 213.446168 
L 280.574763 214.825872 
L 279.574278 215.882511 
L 278.577844 216.544373 
L 277.583842 216.867147 
L 276.590656 216.868173 
L 275.596665 216.547441 
L 274.600253 215.887815 
L 273.599801 214.833253 
L 272.593691 213.45553 
L 271.580305 211.757722 
L 270.043044 208.645544 
L 268.480311 204.910626 
L 266.347602 199.084986 
L 263.58466 190.70108 
L 252.368337 155.556047 
L 249.525829 147.606377 
L 246.528004 139.836608 
L 243.361918 132.312632 
L 240.869144 126.86012 
L 238.26898 121.586988 
L 235.555964 116.503034 
L 232.724637 111.614382 
L 229.769536 106.924075 
L 226.685201 102.432617 
L 223.46617 98.138449 
L 220.106982 94.038375 
L 216.602177 90.12792 
L 212.946292 86.401644 
L 209.133867 82.853401 
L 205.159441 79.476554 
L 201.017552 76.264156 
L 196.70274 73.209092 
L 192.209543 70.304197 
L 187.5325 67.542345 
L 182.66615 64.916521 
L 177.605032 62.419876 
L 172.343684 60.045767 
L 166.876646 57.787786 
L 161.198457 55.639775 
L 155.303655 53.595846 
L 147.097527 51.02284 
L 138.483656 48.612348 
L 129.449097 46.352658 
L 119.980905 44.232881 
L 107.516149 41.737113 
L 102.329206 40.779507 
L 97.024955 40.029818 
L 94.328333 39.8127 
L 91.601777 39.737852 
L 88.845086 39.833116 
L 88.845086 39.833116 
" clip-path="url(#p12f9f5829b)" style="fill: none; stroke: #9467bd; stroke-width: 1.4; stroke-linecap: square"/>
   </g>
   <g id="line2d_34">
    <path d="M 401.552235 55.124513 
L 397.686016 56.208786 
L 393.9106 57.515736 
L 386.62622 60.412286 
L 381.390214 62.676433 
L 376.343435 65.049654 
L 371.480854 67.537251 
L 366.797446 70.144626 
L 362.288182 72.877237 
L 357.948037 75.740552 
L 353.771982 78.739974 
L 349.754992 81.880768 
L 345.892038 85.167957 
L 342.178095 88.6062 
L 338.608135 92.199647 
L 335.17713 95.951767 
L 331.880055 99.865146 
L 328.711882 103.941248 
L 325.667585 108.180146 
L 322.742135 112.580212 
L 319.930507 117.137774 
L 316.350035 123.448585 
L 312.95106 130.005751 
L 309.721665 136.776021 
L 306.649935 143.713536 
L 303.013834 152.527491 
L 298.918352 163.106599 
L 290.281294 185.822621 
L 287.996273 191.215463 
L 285.770612 195.862243 
L 284.133152 198.77759 
L 282.517352 201.148887 
L 281.449703 202.406371 
L 280.387957 203.392971 
L 279.330624 204.100547 
L 278.276215 204.523188 
L 277.22324 204.657333 
L 276.170211 204.501849 
L 275.115637 204.058049 
L 274.058029 203.329671 
L 273.527622 216.442 
L 272.995897 212.436512 
L 272.46267 181.013306 
L 271.927753 157.875752 
L 271.390961 142.921309 
L 270.852106 136.064265 
L 271.323481 137.221057 
L 270.812518 146.087432 
L 270.298363 162.367544 
L 269.780805 185.774231 
L 269.259632 216.029272 
L 268.734633 218.532798 
L 268.205598 203.016816 
L 266.592163 197.752408 
L 263.227812 186.414849 
L 257.106262 165.722099 
L 253.749004 155.209887 
L 250.896822 146.944418 
L 247.882118 138.903543 
L 244.691382 131.151784 
L 242.174683 125.555261 
L 239.545669 120.159491 
L 236.79864 114.972635 
L 233.927897 109.999105 
L 230.927743 105.240223 
L 227.792476 100.694807 
L 224.5164 96.359684 
L 221.093814 92.230139 
L 217.519019 88.300285 
L 213.786317 84.563387 
L 209.890009 81.012119 
L 205.824395 77.638781 
L 201.583777 74.435472 
L 197.162456 71.394228 
L 192.554732 68.507131 
L 187.754907 65.76639 
L 182.757281 63.16441 
L 177.556157 60.693832 
L 172.145833 58.347567 
L 166.520613 56.118821 
L 160.674796 54.001107 
L 154.602684 51.988245 
L 146.14467 49.457443 
L 137.260712 47.089605 
L 127.937303 44.872626 
L 118.160933 42.795305 
L 107.918094 40.847297 
L 94.437994 38.549303 
L 88.830053 37.842696 
L 85.978974 37.58786 
L 85.978974 37.58786 
" clip-path="url(#p12f9f5829b)" style="fill: none; stroke: #8c564b; stroke-width: 1.4; stroke-linecap: square"/>
   </g>
   <g id="line2d_35">
    <path d="M 400.002984 58.247259 
L 396.341788 59.3388 
L 392.762595 60.651817 
L 385.84484 63.552462 
L 379.238973 66.584646 
L 372.934247 69.796691 
L 368.396862 72.329502 
L 364.018289 74.972814 
L 359.793996 77.73047 
L 355.719448 80.606126 
L 351.790113 83.603175 
L 348.001455 86.724651 
L 344.348942 89.973122 
L 340.828039 93.35056 
L 337.434213 96.858194 
L 334.162931 100.496346 
L 331.009658 104.264242 
L 326.981027 109.486119 
L 323.143385 114.925493 
L 319.485984 120.567166 
L 315.998078 126.388894 
L 312.668919 132.36023 
L 308.714338 139.973247 
L 304.97002 147.656714 
L 299.364067 159.768815 
L 292.907034 173.671136 
L 289.859578 179.659292 
L 287.48938 183.800885 
L 285.744209 186.462808 
L 284.021839 188.701324 
L 282.317737 190.483131 
L 281.189578 191.403482 
L 280.06618 192.102111 
L 278.946198 192.574074 
L 277.828291 192.816001 
L 276.711114 192.826153 
L 275.593323 192.604458 
L 274.473577 192.152508 
L 273.912551 204.330739 
L 273.350531 200.787267 
L 272.787351 171.91919 
L 272.222842 150.80449 
L 271.656837 137.307041 
L 271.089167 131.307692 
L 271.605458 132.684474 
L 271.068709 141.143921 
L 270.52917 156.400137 
L 269.986645 178.175084 
L 269.44094 206.198849 
L 268.89186 208.638941 
L 268.33921 194.397827 
L 267.222421 191.602396 
L 261.968707 177.24188 
L 254.88328 157.330912 
L 251.356137 148.07751 
L 248.373116 140.771943 
L 245.2332 133.63164 
L 241.923917 126.711425 
L 238.432795 120.051177 
L 235.687619 115.243305 
L 232.827882 110.604521 
L 229.848321 106.139359 
L 226.743676 101.849936 
L 223.508684 97.736371 
L 220.138085 93.797148 
L 216.626616 90.029447 
L 212.969016 86.42942 
L 209.160023 82.992437 
L 205.194377 79.713289 
L 201.066814 76.586357 
L 196.772074 73.605758 
L 192.304895 70.765456 
L 187.660015 68.059359 
L 182.832173 65.481396 
L 177.816107 63.025571 
L 172.606556 60.686013 
L 167.198258 58.45701 
L 161.585952 56.333033 
L 153.776435 53.655261 
L 145.582411 51.142723 
L 136.991407 48.784083 
L 127.990952 46.568711 
L 118.568573 44.486668 
L 106.178269 42.012579 
L 101.026643 41.157606 
L 95.760962 40.541637 
L 95.760962 40.541637 
" clip-path="url(#p12f9f5829b)" style="fill: none; stroke: #e377c2; stroke-width: 1.4; stroke-linecap: square"/>
   </g>
   <g id="line2d_36">
    <path d="M 403.268433 53.412369 
L 399.280956 54.501728 
L 395.390462 55.816582 
L 387.893962 58.736793 
L 382.514152 61.025792 
L 377.336197 63.430889 
L 372.354647 65.958229 
L 367.564048 68.614132 
L 362.958949 71.405056 
L 358.533897 74.337545 
L 354.283442 77.418163 
L 350.202131 80.653407 
L 346.284512 84.049604 
L 342.525133 87.612774 
L 338.918542 91.348469 
L 335.459287 95.261577 
L 332.141917 99.356085 
L 328.960979 103.634802 
L 325.911022 108.099032 
L 322.986593 112.748199 
L 320.182241 117.579415 
L 317.492514 122.58701 
L 314.911959 127.761999 
L 311.63162 134.899525 
L 308.522751 142.268209 
L 305.572428 149.808485 
L 302.087792 159.35405 
L 297.543506 172.57498 
L 292.172001 188.258364 
L 289.367392 195.717001 
L 287.194242 200.751978 
L 285.597046 203.879012 
L 284.021792 206.38307 
L 282.981119 207.681437 
L 281.946161 208.677559 
L 280.9153 209.310359 
L 279.886922 209.624971 
L 278.859411 209.636429 
L 277.831152 209.34462 
L 276.800529 208.736834 
L 275.765928 207.763995 
L 274.725732 206.487899 
L 273.678327 204.91174 
L 272.090166 202.016069 
L 270.476698 198.533034 
L 268.276615 193.086713 
L 265.429923 185.223959 
L 259.959104 169.119268 
L 255.316624 155.80739 
L 251.750628 146.294765 
L 248.728483 138.825267 
L 245.541808 131.557181 
L 242.177677 124.542135 
L 239.530351 119.469212 
L 236.770486 114.569666 
L 233.892629 109.850369 
L 230.891329 105.315213 
L 227.761133 100.965603 
L 224.496591 96.800906 
L 221.092249 92.818846 
L 217.542657 89.015851 
L 213.842362 85.387347 
L 209.985912 81.928009 
L 205.967855 78.631974 
L 201.782739 75.493017 
L 197.425113 72.504689 
L 192.889524 69.660441 
L 188.170521 66.953712 
L 183.262651 64.378003 
L 178.160463 61.926938 
L 172.858505 59.594298 
L 167.351324 57.374065 
L 161.633469 55.260434 
L 153.672524 52.598489 
L 145.314431 50.103644 
L 136.546268 47.764135 
L 127.355112 45.568972 
L 117.728039 43.507913 
L 107.652126 41.519216 
L 102.441816 40.749085 
L 99.792866 40.523523 
L 97.11445 40.442114 
L 94.406366 40.533219 
L 94.406366 40.533219 
" clip-path="url(#p12f9f5829b)" style="fill: none; stroke: #7f7f7f; stroke-width: 1.4; stroke-linecap: square"/>
   </g>
   <g id="line2d_37">
    <path d="M 401.386622 56.764699 
L 397.631088 57.864875 
L 393.962488 59.189846 
L 386.880309 62.122273 
L 381.786119 64.410173 
L 376.872887 66.804229 
L 372.13573 69.309125 
L 367.569765 71.929555 
L 363.170111 74.670177 
L 358.931886 77.535543 
L 354.850207 80.530029 
L 350.920191 83.657742 
L 347.136958 86.922405 
L 343.495624 90.327231 
L 339.991307 93.874771 
L 336.619126 97.566732 
L 333.374197 101.403777 
L 330.25164 105.38529 
L 327.246571 109.509118 
L 324.354108 113.771283 
L 320.664218 119.658436 
L 317.154265 125.758862 
L 313.812677 132.041777 
L 310.627881 138.465663 
L 306.849743 146.610907 
L 302.583668 156.373847 
L 292.949269 178.71279 
L 290.571533 183.609237 
L 288.252222 187.827523 
L 286.544118 190.478032 
L 284.857487 192.641358 
L 283.742583 193.794959 
L 282.633607 194.707275 
L 281.52911 195.371307 
L 280.427647 195.781896 
L 279.327771 195.935828 
L 278.228035 195.831891 
L 277.126993 195.470904 
L 276.023198 194.855697 
L 275.469816 207.278527 
L 274.915204 203.545894 
L 274.35918 173.851788 
L 273.801564 152.071229 
L 273.242174 138.082978 
L 272.680831 131.786226 
L 273.186001 133.068289 
L 272.655084 141.627909 
L 272.121048 157.171975 
L 271.583685 179.415813 
L 271.042787 208.083449 
L 270.498146 210.490753 
L 269.949553 195.802171 
L 268.277981 190.995341 
L 264.800023 180.587444 
L 257.827087 159.437798 
L 254.341212 149.620219 
L 251.385157 141.887933 
L 248.265902 134.351401 
L 244.970117 127.070135 
L 242.374411 121.802606 
L 239.666286 116.714857 
L 236.840119 111.815097 
L 233.890284 107.108145 
L 230.81116 102.595992 
L 227.597122 98.278316 
L 224.242547 94.152928 
L 220.741812 90.21617 
L 217.089293 86.46325 
L 213.279367 82.888531 
L 209.30641 79.485765 
L 205.164799 76.248299 
L 200.84891 73.169229 
L 196.35312 70.241538 
L 191.671805 67.458195 
L 186.799342 64.812238 
L 181.730107 62.296839 
L 176.458477 59.905351 
L 170.978829 57.63134 
L 165.285538 55.468612 
L 159.372982 53.411229 
L 151.138775 50.822152 
L 142.491435 48.397592 
L 133.417633 46.125685 
L 123.90404 43.995391 
L 113.937325 41.996466 
L 100.821422 39.637689 
L 95.365157 38.90823 
L 92.591211 38.642456 
L 92.591211 38.642456 
" clip-path="url(#p12f9f5829b)" style="fill: none; stroke: #bcbd22; stroke-width: 1.4; stroke-linecap: square"/>
   </g>
   <g id="line2d_38">
    <path d="M 404.705682 51.841212 
L 400.600554 52.934611 
L 396.598535 54.256037 
L 390.785026 56.452489 
L 385.193711 58.724247 
L 379.818712 61.11661 
L 374.654147 63.636493 
L 369.694137 66.291081 
L 364.932801 69.087802 
L 360.364258 72.034282 
L 355.98263 75.138285 
L 351.782035 78.407636 
L 347.756592 81.850117 
L 343.900423 85.473336 
L 340.207647 89.28456 
L 336.672383 93.290512 
L 333.288751 97.497121 
L 330.050871 101.909211 
L 326.952862 106.530144 
L 323.988845 111.361389 
L 321.152939 116.402022 
L 318.439264 121.648158 
L 315.84194 127.092313 
L 313.355086 132.722697 
L 310.200959 140.489642 
L 307.218833 148.500696 
L 304.394768 156.67798 
L 301.065725 166.975453 
L 290.524998 200.328254 
L 288.928466 204.521931 
L 287.362042 208.102833 
L 285.819844 210.997201 
L 284.802267 212.513939 
L 283.791102 213.690841 
L 282.784607 214.473461 
L 281.781038 214.889027 
L 280.778655 214.952926 
L 279.775713 214.66446 
L 278.770472 214.021083 
L 277.761189 212.973462 
L 276.746122 211.579961 
L 275.723527 209.847491 
L 274.171712 206.651021 
L 272.593161 202.798354 
L 270.436674 196.775613 
L 267.638292 188.105463 
L 257.61119 156.093249 
L 254.776514 147.924227 
L 251.782801 139.927724 
L 248.616113 132.180011 
L 246.119197 126.56627 
L 243.511261 121.140093 
L 240.786427 115.91283 
L 237.938812 110.891599 
L 234.962538 106.079981 
L 231.851724 101.478649 
L 228.600489 97.085935 
L 225.202953 92.898324 
L 221.653236 88.910868 
L 217.945459 85.117553 
L 214.073739 81.511594 
L 210.032198 78.085682 
L 205.814955 74.832185 
L 201.41613 71.74331 
L 196.829842 68.811234 
L 192.050211 66.028202 
L 187.071358 63.386603 
L 181.887401 60.87903 
L 176.492461 58.49832 
L 170.880657 56.237586 
L 165.046109 54.090232 
L 158.982936 52.049966 
L 150.532906 49.485894 
L 141.652039 47.088261 
L 132.326399 44.844679 
L 122.542047 42.743673 
L 112.285045 40.774638 
L 104.273731 39.327743 
L 98.777893 38.579729 
L 95.982831 38.359531 
L 93.156052 38.278379 
L 90.297335 38.363655 
L 90.297335 38.363655 
" clip-path="url(#p12f9f5829b)" style="fill: none; stroke: #17becf; stroke-width: 1.4; stroke-linecap: square"/>
   </g>
   <g id="patch_3">
    <path d="M 58.325 248.2 
L 58.325 25.8 
" style="fill: none; stroke: #000000; stroke-width: 0.8; stroke-linejoin: miter; stroke-linecap: square"/>
   </g>
   <g id="patch_4">
    <path d="M 58.325 248.2 
L 421.2 248.2 
" style="fill: none; stroke: #000000; stroke-width: 0.8; stroke-linejoin: miter; stroke-linecap: square"/>
   </g>
   <g id="text_17">
    <text style="font-size: 12px; font-family: 'DejaVu Sans', 'Bitstream Vera Sans', 'Computer Modern Sans Serif', 'Lucida Grande', 'Verdana', 'Geneva', 'Lucid', 'Arial', 'Helvetica', 'Avant Garde', sans-serif; text-anchor: middle" x="239.7625" y="19.8" transform="rotate(-0 239.7625 19.8)">dQ/dE (cathodic) - 1.0C</text>
   </g>
   <g id="legend_1">
    <g id="patch_5">
     <path d="M 63.925 244.2 
L 156.29625 244.2 
Q 157.89625 244.2 157.89625 242.6 
L 157.89625 125.975 
Q 157.89625 124.375 156.29625 124.375 
L 63.925 124.375 
Q 62.325 124.375 62.325 125.975 
L 62.325 242.6 
Q 62.325 244.2 63.925 244.2 
z
" style="fill: #ffffff; opacity: 0.8; stroke: #cccccc; stroke-linejoin: miter"/>
    </g>
    <g id="line2d_39">
     <path d="M 65.525 130.85375 
L 73.525 130.85375 
L 81.525 130.85375 
" style="fill: none; stroke: #1f77b4; stroke-width: 1.4; stroke-linecap: square"/>
    </g>
    <g id="text_18">
     <text style="font-size: 8px; font-family: 'DejaVu Sans', 'Bitstream Vera Sans', 'Computer Modern Sans Serif', 'Lucida Grande', 'Verdana', 'Geneva', 'Lucid', 'Arial', 'Helvetica', 'Avant Garde', sans-serif; text-anchor: start" x="87.925" y="133.65375" transform="rotate(-0 87.925 133.65375)">Cycle 11 (1.00C)</text>
    </g>
    <g id="line2d_40">
     <path d="M 65.525 142.59625 
L 73.525 142.59625 
L 81.525 142.59625 
" style="fill: none; stroke: #ff7f0e; stroke-width: 1.4; stroke-linecap: square"/>
    </g>
    <g id="text_19">
     <text style="font-size: 8px; font-family: 'DejaVu Sans', 'Bitstream Vera Sans', 'Computer Modern Sans Serif', 'Lucida Grande', 'Verdana', 'Geneva', 'Lucid', 'Arial', 'Helvetica', 'Avant Garde', sans-serif; text-anchor: start" x="87.925" y="145.39625" transform="rotate(-0 87.925 145.39625)">Cycle 12 (1.00C)</text>
    </g>
    <g id="line2d_41">
     <path d="M 65.525 154.33875 
L 73.525 154.33875 
L 81.525 154.33875 
" style="fill: none; stroke: #2ca02c; stroke-width: 1.4; stroke-linecap: square"/>
    </g>
    <g id="text_20">
     <text style="font-size: 8px; font-family: 'DejaVu Sans', 'Bitstream Vera Sans', 'Computer Modern Sans Serif', 'Lucida Grande', 'Verdana', 'Geneva', 'Lucid', 'Arial', 'Helvetica', 'Avant Garde', sans-serif; text-anchor: start" x="87.925" y="157.13875" transform="rotate(-0 87.925 157.13875)">Cycle 13 (1.00C)</text>
    </g>
    <g id="line2d_42">
     <path d="M 65.525 166.08125 
L 73.525 166.08125 
L 81.525 166.08125 
" style="fill: none; stroke: #d62728; stroke-width: 1.4; stroke-linecap: square"/>
    </g>
    <g id="text_21">
     <text style="font-size: 8px; font-family: 'DejaVu Sans', 'Bitstream Vera Sans', 'Computer Modern Sans Serif', 'Lucida Grande', 'Verdana', 'Geneva', 'Lucid', 'Arial', 'Helvetica', 'Avant Garde', sans-serif; text-anchor: start" x="87.925" y="168.88125" transform="rotate(-0 87.925 168.88125)">Cycle 14 (1.00C)</text>
    </g>
    <g id="line2d_43">
     <path d="M 65.525 177.82375 
L 73.525 177.82375 
L 81.525 177.82375 
" style="fill: none; stroke: #9467bd; stroke-width: 1.4; stroke-linecap: square"/>
    </g>
    <g id="text_22">
     <text style="font-size: 8px; font-family: 'DejaVu Sans', 'Bitstream Vera Sans', 'Computer Modern Sans Serif', 'Lucida Grande', 'Verdana', 'Geneva', 'Lucid', 'Arial', 'Helvetica', 'Avant Garde', sans-serif; text-anchor: start" x="87.925" y="180.62375" transform="rotate(-0 87.925 180.62375)">Cycle 15 (1.00C)</text>
    </g>
    <g id="line2d_44">
     <path d="M 65.525 189.56625 
L 73.525 189.56625 
L 81.525 189.56625 
" style="fill: none; stroke: #8c564b; stroke-width: 1.4; stroke-linecap: square"/>
    </g>
    <g id="text_23">
     <text style="font-size: 8px; font-family: 'DejaVu Sans', 'Bitstream Vera Sans', 'Computer Modern Sans Serif', 'Lucida Grande', 'Verdana', 'Geneva', 'Lucid', 'Arial', 'Helvetica', 'Avant Garde', sans-serif; text-anchor: start" x="87.925" y="192.36625" transform="rotate(-0 87.925 192.36625)">Cycle 16 (1.00C)</text>
    </g>
    <g id="line2d_45">
     <path d="M 65.525 201.30875 
L 73.525 201.30875 
L 81.525 201.30875 
" style="fill: none; stroke: #e377c2; stroke-width: 1.4; stroke-linecap: square"/>
    </g>
    <g id="text_24">
     <text style="font-size: 8px; font-family: 'DejaVu Sans', 'Bitstream Vera Sans', 'Computer Modern Sans Serif', 'Lucida Grande', 'Verdana', 'Geneva', 'Lucid', 'Arial', 'Helvetica', 'Avant Garde', sans-serif; text-anchor: start" x="87.925" y="204.10875" transform="rotate(-0 87.925 204.10875)">Cycle 17 (1.00C)</text>
    </g>
    <g id="line2d_46">
     <path d="M 65.525 213.05125 
L 73.525 213.05125 
L 81.525 213.05125 
" style="fill: none; stroke: #7f7f7f; stroke-width: 1.4; stroke-linecap: square"/>
    </g>
    <g id="text_25">
     <text style="font-size: 8px; font-family: 'DejaVu Sans', 'Bitstream Vera Sans', 'Computer Modern Sans Serif', 'Lucida Grande', 'Verdana', 'Geneva', 'Lucid', 'Arial', 'Helvetica', 'Avant Garde', sans-serif; text-anchor: start" x="87.925" y="215.85125" transform="rotate(-0 87.925 215.85125)">Cycle 18 (1.00C)</text>
    </g>
    <g id="line2d_47">
     <path d="M 65.525 224.79375 
L 73.525 224.79375 
L 81.525 224.79375 
" style="fill: none; stroke: #bcbd22; stroke-width: 1.4; stroke-linecap: square"/>
    </g>
    <g id="text_26">
     <text style="font-size: 8px; font-family: 'DejaVu Sans', 'Bitstream Vera Sans', 'Computer Modern Sans Serif', 'Lucida Grande', 'Verdana', 'Geneva', 'Lucid', 'Arial', 'Helvetica', 'Avant Garde', sans-serif; text-anchor: start" x="87.925" y="227.59375" transform="rotate(-0 87.925 227.59375)">Cycle 19 (1.00C)</text>
    </g>
    <g id="line2d_48">
     <path d="M 65.525 236.53625 
L 73.525 236.53625 
L 81.525 236.53625 
" style="fill: none; stroke: #17becf; stroke-width: 1.4; stroke-linecap: square"/>
    </g>
    <g id="text_27">
     <text style="font-size: 8px; font-family: 'DejaVu Sans', 'Bitstream Vera Sans', 'Computer Modern Sans Serif', 'Lucida Grande', 'Verdana', 'Geneva', 'Lucid', 'Arial', 'Helvetica', 'Avant Garde', sans-serif; text-anchor: start" x="87.925" y="239.33625" transform="rotate(-0 87.925 239.33625)">Cycle 20 (1.00C)</text>
    </g>
   </g>
  </g>
 </g>
 <defs>
  <clipPath id="p12f9f5829b">
   <rect x="58.325" y="25.8" width="362.875" height="222.4"/>
  </clipPath>
 </defs>
</svg>
