<?xml version="1.0" encoding="utf-8" standalone="no"?>
<!DOCTYPE svg PUBLIC "-//W3C//DTD SVG 1.1//EN"
  "http://www.w3.org/Graphics/SVG/1.1/DTD/svg11.dtd">
<svg xmlns:xlink="http://www.w3.org/1999/xlink" width="432pt" height="288pt" viewBox="0 0 432 288" xmlns="http://www.w3.org/2000/svg" version="1.1">
 <metadata>
  <rdf:RDF xmlns:dc="http://purl.org/dc/elements/1.1/" xmlns:cc="http://creativecommons.org/ns#" xmlns:rdf="http://www.w3.org/1999/02/22-rdf-syntax-ns#">
   <cc:Work>
    <dc:type rdf:resource="http://purl.org/dc/dcmitype/StillImage"/>
    <dc:date>2025-10-07T15:53:15.779902</dc:date>
    <dc:format>image/svg+xml</dc:format>
    <dc:creator>
     <cc:Agent>
      <dc:title>Matplotlib v3.10.3, https://matplotlib.org/</dc:title>
     </cc:Agent>
    </dc:creator>
   </cc:Work>
  </rdf:RDF>
 </metadata>
 <defs>
  <style type="text/css">*{stroke-linejoin: round; stroke-linecap: butt}</style>
 </defs>
 <g id="figure_1">
  <g id="patch_1">
   <path d="M 0 288 
L 432 288 
L 432 0 
L 0 0 
z
" style="fill: #ffffff"/>
  </g>
  <g id="axes_1">
   <g id="patch_2">
    <path d="M 58.325 248.2 
L 421.2 248.2 
L 421.2 25.8 
L 58.325 25.8 
z
" style="fill: #ffffff"/>
   </g>
   <g id="matplotlib.axis_1">
    <g id="xtick_1">
     <g id="line2d_1">
      <path d="M 81.636878 248.2 
L 81.636878 25.8 
" clip-path="url(#p12334f480f)" style="fill: none; stroke: #b0b0b0; stroke-opacity: 0.25; stroke-width: 0.8; stroke-linecap: square"/>
     </g>
     <g id="line2d_2">
      <defs>
       <path id="m2c2d79006e" d="M 0 0 
L 0 3.5 
" style="stroke: #000000; stroke-width: 0.8"/>
      </defs>
      <g>
       <use xlink:href="#m2c2d79006e" x="81.636878" y="248.2" style="stroke: #000000; stroke-width: 0.8"/>
      </g>
     </g>
     <g id="text_1">
      <text style="font-size: 10px; font-family: 'DejaVu Sans', 'Bitstream Vera Sans', 'Computer Modern Sans Serif', 'Lucida Grande', 'Verdana', 'Geneva', 'Lucid', 'Arial', 'Helvetica', 'Avant Garde', sans-serif; text-anchor: middle" x="81.636878" y="262.798438" transform="rotate(-0 81.636878 262.798438)">2.8</text>
     </g>
    </g>
    <g id="xtick_2">
     <g id="line2d_3">
      <path d="M 135.904836 248.2 
L 135.904836 25.8 
" clip-path="url(#p12334f480f)" style="fill: none; stroke: #b0b0b0; stroke-opacity: 0.25; stroke-width: 0.8; stroke-linecap: square"/>
     </g>
     <g id="line2d_4">
      <g>
       <use xlink:href="#m2c2d79006e" x="135.904836" y="248.2" style="stroke: #000000; stroke-width: 0.8"/>
      </g>
     </g>
     <g id="text_2">
      <text style="font-size: 10px; font-family: 'DejaVu Sans', 'Bitstream Vera Sans', 'Computer Modern Sans Serif', 'Lucida Grande', 'Verdana', 'Geneva', 'Lucid', 'Arial', 'Helvetica', 'Avant Garde', sans-serif; text-anchor: middle" x="135.904836" y="262.798438" transform="rotate(-0 135.904836 262.798438)">3.0</text>
     </g>
    </g>
    <g id="xtick_3">
     <g id="line2d_5">
      <path d="M 190.172793 248.2 
L 190.172793 25.8 
" clip-path="url(#p12334f480f)" style="fill: none; stroke: #b0b0b0; stroke-opacity: 0.25; stroke-width: 0.8; stroke-linecap: square"/>
     </g>
     <g id="line2d_6">
      <g>
       <use xlink:href="#m2c2d79006e" x="190.172793" y="248.2" style="stroke: #000000; stroke-width: 0.8"/>
      </g>
     </g>
     <g id="text_3">
      <text style="font-size: 10px; font-family: 'DejaVu Sans', 'Bitstream Vera Sans', 'Computer Modern Sans Serif', 'Lucida Grande', 'Verdana', 'Geneva', 'Lucid', 'Arial', 'Helvetica', 'Avant Garde', sans-serif; text-anchor: middle" x="190.172793" y="262.798438" transform="rotate(-0 190.172793 262.798438)">3.2</text>
     </g>
    </g>
    <g id="xtick_4">
     <g id="line2d_7">
      <path d="M 244.440751 248.2 
L 244.440751 25.8 
" clip-path="url(#p12334f480f)" style="fill: none; stroke: #b0b0b0; stroke-opacity: 0.25; stroke-width: 0.8; stroke-linecap: square"/>
     </g>
     <g id="line2d_8">
      <g>
       <use xlink:href="#m2c2d79006e" x="244.440751" y="248.2" style="stroke: #000000; stroke-width: 0.8"/>
      </g>
     </g>
     <g id="text_4">
      <text style="font-size: 10px; font-family: 'DejaVu Sans', 'Bitstream Vera Sans', 'Computer Modern Sans Serif', 'Lucida Grande', 'Verdana', 'Geneva', 'Lucid', 'Arial', 'Helvetica', 'Avant Garde', sans-serif; text-anchor: middle" x="244.440751" y="262.798438" transform="rotate(-0 244.440751 262.798438)">3.4</text>
     </g>
    </g>
    <g id="xtick_5">
     <g id="line2d_9">
      <path d="M 298.708708 248.2 
L 298.708708 25.8 
" clip-path="url(#p12334f480f)" style="fill: none; stroke: #b0b0b0; stroke-opacity: 0.25; stroke-width: 0.8; stroke-linecap: square"/>
     </g>
     <g id="line2d_10">
      <g>
       <use xlink:href="#m2c2d79006e" x="298.708708" y="248.2" style="stroke: #000000; stroke-width: 0.8"/>
      </g>
     </g>
     <g id="text_5">
      <text style="font-size: 10px; font-family: 'DejaVu Sans', 'Bitstream Vera Sans', 'Computer Modern Sans Serif', 'Lucida Grande', 'Verdana', 'Geneva', 'Lucid', 'Arial', 'Helvetica', 'Avant Garde', sans-serif; text-anchor: middle" x="298.708708" y="262.798438" transform="rotate(-0 298.708708 262.798438)">3.6</text>
     </g>
    </g>
    <g id="xtick_6">
     <g id="line2d_11">
      <path d="M 352.976666 248.2 
L 352.976666 25.8 
" clip-path="url(#p12334f480f)" style="fill: none; stroke: #b0b0b0; stroke-opacity: 0.25; stroke-width: 0.8; stroke-linecap: square"/>
     </g>
     <g id="line2d_12">
      <g>
       <use xlink:href="#m2c2d79006e" x="352.976666" y="248.2" style="stroke: #000000; stroke-width: 0.8"/>
      </g>
     </g>
     <g id="text_6">
      <text style="font-size: 10px; font-family: 'DejaVu Sans', 'Bitstream Vera Sans', 'Computer Modern Sans Serif', 'Lucida Grande', 'Verdana', 'Geneva', 'Lucid', 'Arial', 'Helvetica', 'Avant Garde', sans-serif; text-anchor: middle" x="352.976666" y="262.798438" transform="rotate(-0 352.976666 262.798438)">3.8</text>
     </g>
    </g>
    <g id="xtick_7">
     <g id="line2d_13">
      <path d="M 407.244623 248.2 
L 407.244623 25.8 
" clip-path="url(#p12334f480f)" style="fill: none; stroke: #b0b0b0; stroke-opacity: 0.25; stroke-width: 0.8; stroke-linecap: square"/>
     </g>
     <g id="line2d_14">
      <g>
       <use xlink:href="#m2c2d79006e" x="407.244623" y="248.2" style="stroke: #000000; stroke-width: 0.8"/>
      </g>
     </g>
     <g id="text_7">
      <text style="font-size: 10px; font-family: 'DejaVu Sans', 'Bitstream Vera Sans', 'Computer Modern Sans Serif', 'Lucida Grande', 'Verdana', 'Geneva', 'Lucid', 'Arial', 'Helvetica', 'Avant Garde', sans-serif; text-anchor: middle" x="407.244623" y="262.798438" transform="rotate(-0 407.244623 262.798438)">4.0</text>
     </g>
    </g>
    <g id="text_8">
     <text style="font-size: 10px; font-family: 'DejaVu Sans', 'Bitstream Vera Sans', 'Computer Modern Sans Serif', 'Lucida Grande', 'Verdana', 'Geneva', 'Lucid', 'Arial', 'Helvetica', 'Avant Garde', sans-serif; text-anchor: middle" x="239.7625" y="276.476562" transform="rotate(-0 239.7625 276.476562)">E (V)</text>
    </g>
   </g>
   <g id="matplotlib.axis_2">
    <g id="ytick_1">
     <g id="line2d_15">
      <path d="M 58.325 207.876641 
L 421.2 207.876641 
" clip-path="url(#p12334f480f)" style="fill: none; stroke: #b0b0b0; stroke-opacity: 0.25; stroke-width: 0.8; stroke-linecap: square"/>
     </g>
     <g id="line2d_16">
      <defs>
       <path id="m7c9b98be65" d="M 0 0 
L -3.5 0 
" style="stroke: #000000; stroke-width: 0.8"/>
      </defs>
      <g>
       <use xlink:href="#m7c9b98be65" x="58.325" y="207.876641" style="stroke: #000000; stroke-width: 0.8"/>
      </g>
     </g>
     <g id="text_9">
      <text style="font-size: 10px; font-family: 'DejaVu Sans', 'Bitstream Vera Sans', 'Computer Modern Sans Serif', 'Lucida Grande', 'Verdana', 'Geneva', 'Lucid', 'Arial', 'Helvetica', 'Avant Garde', sans-serif; text-anchor: end" x="51.325" y="211.67586" transform="rotate(-0 51.325 211.67586)">−400</text>
     </g>
    </g>
    <g id="ytick_2">
     <g id="line2d_17">
      <path d="M 58.325 160.070582 
L 421.2 160.070582 
" clip-path="url(#p12334f480f)" style="fill: none; stroke: #b0b0b0; stroke-opacity: 0.25; stroke-width: 0.8; stroke-linecap: square"/>
     </g>
     <g id="line2d_18">
      <g>
       <use xlink:href="#m7c9b98be65" x="58.325" y="160.070582" style="stroke: #000000; stroke-width: 0.8"/>
      </g>
     </g>
     <g id="text_10">
      <text style="font-size: 10px; font-family: 'DejaVu Sans', 'Bitstream Vera Sans', 'Computer Modern Sans Serif', 'Lucida Grande', 'Verdana', 'Geneva', 'Lucid', 'Arial', 'Helvetica', 'Avant Garde', sans-serif; text-anchor: end" x="51.325" y="163.869801" transform="rotate(-0 51.325 163.869801)">−300</text>
     </g>
    </g>
    <g id="ytick_3">
     <g id="line2d_19">
      <path d="M 58.325 112.264524 
L 421.2 112.264524 
" clip-path="url(#p12334f480f)" style="fill: none; stroke: #b0b0b0; stroke-opacity: 0.25; stroke-width: 0.8; stroke-linecap: square"/>
     </g>
     <g id="line2d_20">
      <g>
       <use xlink:href="#m7c9b98be65" x="58.325" y="112.264524" style="stroke: #000000; stroke-width: 0.8"/>
      </g>
     </g>
     <g id="text_11">
      <text style="font-size: 10px; font-family: 'DejaVu Sans', 'Bitstream Vera Sans', 'Computer Modern Sans Serif', 'Lucida Grande', 'Verdana', 'Geneva', 'Lucid', 'Arial', 'Helvetica', 'Avant Garde', sans-serif; text-anchor: end" x="51.325" y="116.063742" transform="rotate(-0 51.325 116.063742)">−200</text>
     </g>
    </g>
    <g id="ytick_4">
     <g id="line2d_21">
      <path d="M 58.325 64.458465 
L 421.2 64.458465 
" clip-path="url(#p12334f480f)" style="fill: none; stroke: #b0b0b0; stroke-opacity: 0.25; stroke-width: 0.8; stroke-linecap: square"/>
     </g>
     <g id="line2d_22">
      <g>
       <use xlink:href="#m7c9b98be65" x="58.325" y="64.458465" style="stroke: #000000; stroke-width: 0.8"/>
      </g>
     </g>
     <g id="text_12">
      <text style="font-size: 10px; font-family: 'DejaVu Sans', 'Bitstream Vera Sans', 'Computer Modern Sans Serif', 'Lucida Grande', 'Verdana', 'Geneva', 'Lucid', 'Arial', 'Helvetica', 'Avant Garde', sans-serif; text-anchor: end" x="51.325" y="68.257684" transform="rotate(-0 51.325 68.257684)">−100</text>
     </g>
    </g>
    <g id="text_13">
     <text style="font-size: 10px; font-family: 'DejaVu Sans', 'Bitstream Vera Sans', 'Computer Modern Sans Serif', 'Lucida Grande', 'Verdana', 'Geneva', 'Lucid', 'Arial', 'Helvetica', 'Avant Garde', sans-serif; text-anchor: middle" x="17.778125" y="137" transform="rotate(-90 17.778125 137)">dQ/dE (mAh g^-1 V^-1)</text>
    </g>
   </g>
   <g id="line2d_23">
    <path d="M 394.344007 53.472525 
L 389.597382 54.430337 
L 385.004579 55.683239 
L 376.267972 58.441087 
L 370.096113 60.663816 
L 364.238788 63.050507 
L 358.685475 65.615364 
L 353.425652 68.373772 
L 348.448796 71.342318 
L 345.2829 73.446831 
L 342.234973 75.658185 
L 339.301897 77.98216 
L 336.480554 80.424732 
L 333.767828 82.992048 
L 331.160599 85.690387 
L 328.65575 88.526109 
L 326.250165 91.505586 
L 323.940724 94.635121 
L 321.72431 97.92084 
L 319.597805 101.36856 
L 317.558093 104.983627 
L 315.602054 108.770722 
L 312.818064 114.781871 
L 310.204804 121.195763 
L 307.75175 128.011288 
L 305.448381 135.215658 
L 303.284175 142.780732 
L 301.248608 150.658916 
L 298.716439 161.522956 
L 295.808523 175.316409 
L 290.188793 202.829976 
L 288.78989 208.592927 
L 287.428434 213.177136 
L 286.536404 215.480365 
L 285.653223 217.126786 
L 284.775772 218.078697 
L 284.338221 218.289048 
L 283.900934 218.32052 
L 283.463521 218.172947 
L 283.025592 217.847112 
L 282.586757 217.34475 
L 281.704812 215.819495 
L 280.814569 213.629217 
L 280.36536 211.138732 
L 279.912908 210.25029 
L 279.456822 211.265602 
L 278.532191 213.832708 
L 279.051159 214.310332 
L 278.603217 213.578839 
L 278.148892 211.168004 
L 277.687764 206.634637 
L 276.743421 200.458505 
L 273.162272 178.036331 
L 270.883189 165.17427 
L 269.042256 155.822566 
L 267.075922 146.848442 
L 264.972863 138.323868 
L 262.721754 130.290806 
L 260.31127 122.767865 
L 258.610146 118.037116 
L 256.829799 113.53097 
L 254.966875 109.244637 
L 253.018018 105.171899 
L 250.979872 101.3055 
L 248.849082 97.637465 
L 246.622291 94.159362 
L 244.296145 90.862512 
L 241.867289 87.738154 
L 239.332366 84.777576 
L 236.68802 81.972213 
L 233.930898 79.31372 
L 231.057642 76.79403 
L 228.064898 74.405385 
L 224.94931 72.140364 
L 221.707522 69.991897 
L 218.336179 67.953267 
L 214.831925 66.018115 
L 209.318997 63.296352 
L 203.488144 60.775112 
L 197.328043 58.43717 
L 190.827369 56.266837 
L 183.974796 54.249842 
L 176.758999 52.37322 
L 169.168654 50.625202 
L 161.192436 48.995105 
L 152.81902 47.473236 
L 141.017027 45.597343 
L 128.461927 43.879653 
L 115.126875 42.303749 
L 104.597595 41.178749 
L 97.320358 40.65205 
L 93.603167 40.556731 
L 89.833034 40.616415 
L 89.833034 40.616415 
" clip-path="url(#p12334f480f)" style="fill: none; stroke: #1f77b4; stroke-width: 1.4; stroke-linecap: square"/>
   </g>
   <g id="line2d_24">
    <path d="M 395.862539 51.923887 
L 390.90833 52.85875 
L 386.117632 54.08279 
L 377.01343 56.781717 
L 370.589693 58.96176 
L 364.500093 61.307295 
L 358.733376 63.833279 
L 353.278289 66.556017 
L 349.809134 68.489168 
L 346.470145 70.523207 
L 343.257987 72.664019 
L 340.169326 74.917772 
L 337.200827 77.290903 
L 334.349156 79.790101 
L 331.610979 82.42228 
L 328.982961 85.19454 
L 326.461767 88.114111 
L 324.044064 91.188284 
L 321.726516 94.424317 
L 319.505789 97.829312 
L 317.378549 101.410072 
L 315.341461 105.172908 
L 313.391191 109.123415 
L 311.524405 113.266196 
L 309.737767 117.604529 
L 307.200795 124.481541 
L 304.825402 131.797187 
L 302.600333 139.532016 
L 300.514335 147.646783 
L 298.556155 156.077234 
L 296.124623 167.640536 
L 293.335979 182.139638 
L 289.330884 203.218941 
L 287.93722 209.630724 
L 286.585095 214.815739 
L 285.701197 217.473379 
L 284.827424 219.425721 
L 283.960442 220.62026 
L 283.528455 220.92831 
L 283.096916 221.040807 
L 282.665407 220.957098 
L 282.233512 220.677669 
L 281.800814 220.204137 
L 280.93134 218.680715 
L 280.053652 216.422205 
L 279.610686 213.841156 
L 279.164416 212.889108 
L 278.714424 213.920905 
L 277.801612 216.404106 
L 278.301219 216.772974 
L 277.858328 215.884249 
L 277.408837 213.265951 
L 276.952299 208.47407 
L 276.016297 201.949272 
L 272.452669 178.309712 
L 270.172858 164.837134 
L 268.324924 155.092362 
L 266.345241 145.784997 
L 264.221752 136.985983 
L 261.942399 128.733418 
L 259.495123 121.040435 
L 257.764362 116.220764 
L 255.950037 111.643071 
L 254.048575 107.300745 
L 252.056404 103.185827 
L 249.969951 99.289429 
L 247.785643 95.602063 
L 245.499908 92.113914 
L 243.109173 88.815047 
L 240.609866 85.695571 
L 237.998413 82.745764 
L 235.271241 79.956163 
L 232.424779 77.31763 
L 229.455454 74.821396 
L 226.359692 72.45909 
L 223.133921 70.222756 
L 219.774568 68.104856 
L 216.278061 66.09827 
L 212.640827 64.196287 
L 208.859294 62.392594 
L 202.908615 59.858481 
L 196.613166 57.513788 
L 189.960888 55.341758 
L 182.939724 53.32722 
L 175.537615 51.456449 
L 167.742503 49.717034 
L 159.542331 48.097754 
L 150.92504 46.588466 
L 138.765628 44.731441 
L 125.814655 43.034354 
L 112.043539 41.480211 
L 101.159789 40.371559 
L 93.632775 39.85002 
L 89.786574 39.75453 
L 85.884648 39.811728 
L 85.884648 39.811728 
" clip-path="url(#p12334f480f)" style="fill: none; stroke: #ff7f0e; stroke-width: 1.4; stroke-linecap: square"/>
   </g>
   <g id="line2d_25">
    <path d="M 399.173167 49.030913 
L 393.781155 49.928334 
L 388.574903 51.106111 
L 378.704344 53.714123 
L 371.760536 55.83239 
L 365.195879 58.12296 
L 358.997437 60.603067 
L 355.062207 62.371117 
L 351.280158 64.237997 
L 347.647456 66.210278 
L 344.160268 68.294967 
L 340.814763 70.499527 
L 337.607106 72.831892 
L 334.533465 75.300469 
L 331.590007 77.914147 
L 328.7729 80.68228 
L 326.07831 83.614668 
L 323.502405 86.721519 
L 321.041352 90.013386 
L 318.691318 93.501078 
L 316.44847 97.195543 
L 314.308975 101.107695 
L 312.269002 105.248197 
L 310.324715 109.627185 
L 308.472284 114.253902 
L 306.707875 119.136252 
L 305.027655 124.280251 
L 303.427792 129.689356 
L 301.17028 138.29916 
L 299.072011 147.485797 
L 297.120048 157.200234 
L 295.301456 167.353789 
L 293.061774 181.327811 
L 290.036626 202.149626 
L 287.320739 220.534309 
L 286.046429 227.844281 
L 285.219081 231.753078 
L 284.405015 234.782 
L 283.600398 236.793605 
L 283.200435 237.391261 
L 282.801397 237.744871 
L 282.402805 237.851724 
L 282.00418 237.711001 
L 281.605042 237.323787 
L 281.204913 236.693051 
L 280.803313 235.791511 
L 279.993785 233.165795 
L 279.172626 229.628544 
L 277.910693 222.790076 
L 276.151633 211.401615 
L 270.626354 173.810893 
L 268.276 160.070328 
L 266.363644 150.21867 
L 264.308695 140.873891 
L 262.098217 132.095392 
L 259.719274 123.909786 
L 258.033333 118.784111 
L 256.262936 113.91975 
L 254.40425 109.310536 
L 252.453444 104.948453 
L 250.406684 100.824181 
L 248.260137 96.927538 
L 246.009971 93.247832 
L 243.652353 89.77414 
L 241.183449 86.49552 
L 238.599427 83.401175 
L 235.896454 80.480573 
L 233.070698 77.723534 
L 230.118325 75.120285 
L 227.035503 72.661505 
L 223.818398 70.338339 
L 220.463179 68.142411 
L 216.966012 66.065821 
L 213.323064 64.101137 
L 209.530502 62.241382 
L 205.584495 60.480018 
L 199.369387 58.009174 
L 192.787465 55.727028 
L 185.825794 53.616426 
L 178.471437 51.661903 
L 170.711458 49.849519 
L 162.532923 48.166717 
L 153.922894 46.602181 
L 144.868437 45.14571 
L 132.082135 43.356078 
L 118.452079 41.722934 
L 103.947604 40.19698 
L 96.357878 39.538682 
L 92.476966 39.319443 
L 88.538049 39.221235 
L 84.540648 39.276233 
L 84.540648 39.276233 
" clip-path="url(#p12334f480f)" style="fill: none; stroke: #2ca02c; stroke-width: 1.4; stroke-linecap: square"/>
   </g>
   <g id="line2d_26">
    <path d="M 398.68788 49.16121 
L 393.314546 50.056242 
L 388.125248 51.23026 
L 378.283426 53.827379 
L 371.356643 55.934003 
L 364.805125 58.209098 
L 358.615933 60.668977 
L 352.776129 63.331593 
L 349.07064 65.228956 
L 345.51085 67.231431 
L 342.092925 69.345681 
L 338.813031 71.578743 
L 335.667334 73.93803 
L 332.652001 76.431316 
L 329.763198 79.066721 
L 326.997091 81.852675 
L 324.349845 84.797867 
L 321.817628 87.911174 
L 319.396606 91.201566 
L 317.082944 94.677973 
L 314.87281 98.34912 
L 312.762368 102.223309 
L 310.747786 106.308152 
L 308.825229 110.610231 
L 306.990865 115.134692 
L 305.240858 119.884746 
L 302.765632 127.433479 
L 300.458647 135.478612 
L 298.306963 143.985719 
L 296.297641 152.890914 
L 293.817634 165.203236 
L 290.994459 180.761535 
L 286.975959 203.397906 
L 285.585054 210.169445 
L 284.237311 215.499643 
L 283.356406 218.116893 
L 282.485099 219.878155 
L 282.051847 220.410435 
L 281.619558 220.731925 
L 281.187751 220.840378 
L 280.755948 220.735032 
L 280.323669 220.416626 
L 279.890435 219.887386 
L 279.455767 219.134782 
L 278.580213 216.925575 
M 274.507049 201.169238 
L 271.45669 179.489984 
L 269.186971 165.062141 
L 267.33744 154.644781 
L 265.34636 144.731529 
L 263.199927 135.405977 
L 260.884333 126.709882 
L 259.239809 121.268487 
L 257.509876 116.109571 
L 255.690443 111.227367 
L 253.77742 106.613694 
L 251.766717 102.258657 
L 249.654242 98.151215 
L 247.435905 94.279627 
L 245.107615 90.631808 
L 242.665281 87.195602 
L 240.104813 83.958986 
L 237.422121 80.91022 
L 234.613113 78.037957 
L 231.673699 75.331316 
L 228.599789 72.779927 
L 225.387291 70.373958 
L 222.032114 68.104128 
L 218.530169 65.961699 
L 214.877365 63.938471 
L 211.06961 62.026766 
L 207.102815 60.219403 
L 202.972888 58.509678 
L 196.463179 56.114602 
L 189.563413 53.90591 
L 182.259786 51.866227 
L 174.538491 49.979954 
L 166.385723 48.233084 
L 157.787675 46.613041 
L 148.730541 45.108531 
L 139.200516 43.7094 
L 125.734344 41.992167 
L 111.370207 40.426971 
L 96.07538 38.966306 
L 88.06873 38.44257 
L 83.973807 38.342305 
L 79.817136 38.392329 
L 79.817136 38.392329 
" clip-path="url(#p12334f480f)" style="fill: none; stroke: #d62728; stroke-width: 1.4; stroke-linecap: square"/>
   </g>
   <g id="line2d_27">
    <path d="M 401.867177 46.66961 
L 396.053888 47.533961 
L 390.448412 48.670426 
L 379.843316 51.195346 
L 372.402313 53.254882 
L 365.384385 55.490501 
L 358.774699 57.920932 
L 354.587716 59.659687 
L 350.571187 61.501069 
L 346.720714 63.45238 
L 343.031902 65.521461 
L 339.500357 67.716724 
L 336.121683 70.047174 
L 332.891485 72.52243 
L 329.805367 75.152739 
L 326.858933 77.948978 
L 324.04779 80.922645 
L 321.36754 84.085825 
L 318.81379 87.451138 
L 316.382143 91.031645 
L 314.068204 94.840718 
L 311.867578 98.891856 
L 309.77587 103.198421 
L 307.788684 107.773303 
L 305.901625 112.628473 
L 304.110297 117.774407 
L 302.410305 123.219373 
L 300.797255 128.968539 
L 299.266749 135.022892 
L 297.116149 144.665009 
L 295.126553 154.935949 
L 293.283126 165.741294 
L 291.026958 180.698453 
L 288.481517 199.414364 
L 285.73933 219.573147 
L 284.461398 227.60991 
L 283.633876 231.880016 
L 282.820771 235.157418 
L 282.017689 237.202633 
L 281.618533 237.776612 
L 281.220234 238.073589 
L 280.822243 238.090909 
L 280.424011 237.828422 
L 280.024987 237.288482 
L 279.624623 236.475904 
L 278.817677 233.834114 
L 277.998776 230.119116 
L 276.738396 222.778031 
L 274.975026 210.413168 
L 269.934347 173.614448 
L 268.185305 162.521323 
L 266.300581 151.859227 
L 264.265341 141.76509 
L 262.06475 132.317749 
L 260.498503 126.397342 
L 258.847778 120.782297 
L 257.10818 115.469641 
L 255.275314 110.452722 
L 253.344784 105.722198 
L 251.312196 101.266854 
L 249.173153 97.074254 
L 246.923261 93.131249 
L 244.558124 89.424379 
L 242.073347 85.940173 
L 239.464534 82.665375 
L 236.72729 79.587104 
L 233.85722 76.692966 
L 230.849928 73.971128 
L 227.701019 71.410361 
L 224.406098 69.000066 
L 220.96077 66.730271 
L 217.360638 64.591629 
L 213.601309 62.5754 
L 209.678385 60.673424 
L 205.587473 58.878102 
L 201.324176 57.182359 
L 194.596395 54.811198 
L 187.456026 52.62914 
L 179.888234 50.618055 
L 171.878185 48.76173 
L 163.411044 47.045664 
L 154.471978 45.456885 
L 145.046152 43.98378 
L 135.118732 42.615947 
L 121.076274 40.93994 
L 106.080558 39.415085 
L 90.096422 38.025395 
L 85.941827 37.807334 
L 81.722708 37.706916 
L 77.438517 37.755898 
L 77.438517 37.755898 
" clip-path="url(#p12334f480f)" style="fill: none; stroke: #9467bd; stroke-width: 1.4; stroke-linecap: square"/>
   </g>
   <g id="line2d_28">
    <path d="M 401.030766 47.334549 
L 395.339144 48.20314 
L 389.847804 49.34388 
L 379.448889 51.872967 
L 372.143685 53.93016 
L 365.245884 56.157395 
L 358.741075 58.571755 
L 354.615749 60.294533 
L 350.654413 62.114897 
L 346.852795 64.039308 
L 343.206628 66.074641 
L 339.711641 68.228187 
L 336.363564 70.507658 
L 333.158128 72.921183 
L 330.091063 75.477291 
L 327.158099 78.184886 
L 324.354968 81.053194 
L 321.677398 84.091701 
L 319.121121 87.310053 
L 316.681866 90.717924 
L 314.355365 94.324846 
L 312.137347 98.139978 
L 310.023543 102.171819 
L 308.009682 106.427845 
L 306.091497 110.914058 
L 304.264715 115.634439 
L 302.525069 120.59029 
L 300.069638 128.459713 
L 297.786244 136.826456 
L 295.660477 145.634001 
L 293.677927 154.787355 
L 291.232401 167.276775 
L 284.453075 203.333717 
L 283.518037 207.12283 
L 282.599685 210.159276 
L 281.693748 212.373858 
L 281.244102 213.106112 
L 280.795958 213.616146 
L 280.348783 213.907763 
L 279.902044 213.978764 
L 279.455206 213.82862 
L 279.007736 213.458479 
L 278.559101 212.871143 
L 278.108766 212.038636 
L 277.656198 210.951054 
L 277.200863 224.695797 
M 273.422013 195.743427 
L 270.272958 174.02964 
L 267.920332 159.572219 
L 265.996994 149.158191 
L 263.9204 139.278059 
L 261.675176 130.016717 
L 260.077084 124.207316 
L 258.392657 118.694396 
L 256.617338 113.476082 
L 254.746574 108.546654 
L 252.775808 103.897568 
L 250.700485 99.518281 
L 248.516049 95.396929 
L 246.217945 91.520846 
L 243.801618 87.876987 
L 241.262513 84.452236 
L 238.596073 81.23364 
L 235.797743 78.208583 
L 232.862969 75.3649 
L 229.787194 72.690964 
L 226.565863 70.175724 
L 223.19442 67.80874 
L 219.668311 65.580187 
L 215.98298 63.480846 
L 212.133871 61.502095 
L 208.116429 59.635885 
L 203.926099 57.874713 
L 199.558325 56.211597 
L 192.663991 53.886704 
L 185.344785 51.747938 
L 177.585331 49.777403 
L 169.370254 47.959098 
L 160.684182 46.278715 
L 151.511737 44.723458 
L 141.837547 43.281872 
L 131.646237 41.943703 
L 117.226841 40.30459 
L 101.824343 38.813852 
L 85.402301 37.458592 
L 76.797563 37.133453 
L 76.797563 37.133453 
" clip-path="url(#p12334f480f)" style="fill: none; stroke: #8c564b; stroke-width: 1.4; stroke-linecap: square"/>
   </g>
   <g id="line2d_29">
    <path d="M 403.849483 45.273385 
L 397.753332 46.118316 
L 391.880472 47.230469 
L 380.785265 49.706246 
L 373.014004 51.730729 
L 365.696147 53.933127 
L 358.81536 56.332896 
L 354.462921 58.053054 
L 350.292635 59.877659 
L 346.299666 61.814345 
L 342.479172 63.871326 
L 338.826314 66.057427 
L 335.336254 68.382104 
L 332.00415 70.85547 
L 328.825165 73.488307 
L 325.794458 76.292061 
L 322.90719 79.278825 
L 320.158521 82.4613 
L 317.543613 85.852715 
L 315.057624 89.466717 
L 312.695717 93.317202 
L 310.453051 97.418075 
L 308.324787 101.782933 
L 306.306085 106.424635 
L 304.392106 111.354747 
L 302.578011 116.582833 
L 300.85896 122.115567 
L 299.230113 127.955639 
L 297.686631 134.100443 
L 295.520881 143.866063 
L 293.519981 154.223879 
L 291.667595 165.045254 
L 289.400543 179.833636 
L 284.061741 216.07444 
L 282.757451 222.638635 
L 281.907923 225.774353 
L 281.487344 226.887458 
L 281.068748 227.673242 
L 280.65153 228.179108 
L 280.235086 228.400376 
L 279.818811 228.334979 
L 279.402098 227.983506 
L 278.984345 227.349194 
L 278.564945 226.432022 
L 277.718786 223.61256 
L 276.858782 219.742933 
L 275.532232 212.21735 
L 273.669873 199.736336 
L 269.478972 170.775994 
L 267.697225 159.788248 
L 265.77544 149.169335 
L 263.697282 139.084182 
L 261.446418 129.631393 
L 259.841829 123.705928 
L 258.148383 118.087684 
L 256.361241 112.775301 
L 254.475563 107.763096 
L 252.486509 103.042209 
L 250.389241 98.601551 
L 248.178919 94.42856 
L 245.850702 90.509795 
L 243.399753 86.8314 
L 240.821231 83.379449 
L 238.110296 80.140205 
L 235.26211 77.100308 
L 232.271832 74.2469 
L 229.134624 71.567714 
L 225.845646 69.05112 
L 222.400057 66.68615 
L 218.79302 64.462506 
L 215.019694 62.370548 
L 211.075239 60.401281 
L 206.954817 58.546322 
L 202.653588 56.797879 
L 198.166712 55.148711 
L 191.077724 52.846546 
L 183.543809 50.732113 
L 175.548633 48.786997 
L 167.075864 46.994779 
L 158.109167 45.340816 
L 148.63221 43.812043 
L 138.628659 42.396798 
L 128.082182 41.084661 
L 113.147428 39.479566 
L 97.179718 37.991743 
L 88.796406 37.336601 
L 84.502768 37.113719 
L 80.140336 37.008399 
L 75.708504 37.05288 
L 75.708504 37.05288 
" clip-path="url(#p12334f480f)" style="fill: none; stroke: #e377c2; stroke-width: 1.4; stroke-linecap: square"/>
   </g>
   <g id="line2d_30">
    <path d="M 402.449052 46.082671 
L 396.516797 46.937441 
L 390.798538 48.06123 
L 379.985275 50.557494 
L 372.402241 52.592854 
L 365.253286 54.801063 
L 358.522607 57.19994 
L 354.260059 58.914777 
L 350.171705 60.72943 
L 346.252863 62.650668 
L 342.49885 64.685695 
L 338.904984 66.842156 
L 335.466582 69.128138 
L 332.178961 71.552158 
L 329.03744 74.123147 
L 326.037335 76.850402 
L 323.173964 79.743535 
L 320.442645 82.812376 
L 317.838695 86.066859 
L 315.357431 89.51685 
L 312.994172 93.171933 
L 310.744234 97.041124 
L 308.602934 101.132518 
L 306.565592 105.452832 
L 304.627523 110.00686 
L 302.784046 114.796796 
L 301.030478 119.821448 
L 298.558461 127.785022 
L 296.262401 136.220565 
L 294.126493 145.049391 
L 292.134934 154.147292 
L 289.67675 166.380229 
L 284.78735 191.173825 
L 283.298749 197.384191 
L 282.331913 200.646864 
L 281.380065 203.122675 
L 280.908299 204.010177 
L 280.438523 204.634378 
L 279.970154 205.045818 
L 279.502606 205.241181 
L 279.035292 205.218881 
L 278.567629 204.979089 
L 278.09903 204.523735 
L 277.628911 203.855085 
L 277.156685 202.917923 
L 276.681769 216.167453 
L 276.203576 204.980671 
L 275.72152 161.515821 
L 275.235018 133.201082 
L 274.743483 119.485282 
L 275.164942 119.845266 
L 274.691407 133.786568 
L 274.21018 160.843819 
L 273.720635 200.580924 
L 273.222147 207.233867 
L 272.714091 188.586003 
L 269.429798 167.332627 
L 267.60782 156.659132 
L 265.643438 146.315215 
L 263.519767 136.47066 
L 261.21992 127.22897 
L 259.580474 121.430079 
L 257.850219 115.928476 
L 256.024152 110.723855 
L 254.097269 105.811458 
L 252.064567 101.183245 
L 249.921043 96.828839 
L 247.661692 92.736301 
L 245.281512 88.892738 
L 242.7755 85.284767 
L 240.138651 81.898884 
L 237.365963 78.72172 
L 234.452432 75.740242 
L 231.393055 72.941882 
L 228.182828 70.314632 
L 224.816748 67.847094 
L 221.289811 65.528509 
L 217.597015 63.348768 
L 213.733355 61.298403 
L 209.693829 59.368573 
L 205.473432 57.551039 
L 201.067162 55.838139 
L 196.470015 54.222753 
L 189.205456 51.968194 
L 181.48328 49.897985 
L 173.2866 47.994012 
L 164.59853 46.240123 
L 155.402184 44.621914 
L 145.680674 43.126536 
L 135.417116 41.742522 
L 120.859997 40.052852 
L 105.269186 38.521723 
L 88.604658 37.110755 
L 79.857241 36.529237 
L 75.377556 36.31103 
L 75.377556 36.31103 
" clip-path="url(#p12334f480f)" style="fill: none; stroke: #7f7f7f; stroke-width: 1.4; stroke-linecap: square"/>
   </g>
   <g id="line2d_31">
    <path d="M 404.705682 44.265914 
L 398.388588 45.103101 
L 392.308932 46.206337 
L 380.840769 48.667371 
L 372.823564 50.685055 
L 365.287017 52.885091 
L 360.520865 54.463096 
L 355.955109 56.137869 
L 351.584457 57.916617 
L 347.403618 59.807119 
L 343.407301 61.817757 
L 339.590212 63.957545 
L 335.947062 66.236166 
L 332.472557 68.663985 
L 329.161407 71.252067 
L 326.008319 74.012169 
L 323.008002 76.956726 
L 320.155164 80.098794 
L 317.444513 83.451973 
L 314.870758 87.030271 
L 312.428608 90.847914 
L 310.112769 94.919079 
L 307.917951 99.257522 
L 305.838862 103.876096 
L 303.870209 108.786112 
L 302.006703 113.996527 
L 300.24305 119.512935 
L 298.573959 125.336313 
L 296.994138 131.46154 
L 294.780213 141.184359 
L 292.73738 151.467515 
L 290.84778 162.157831 
L 288.535807 176.626864 
L 284.464516 202.950223 
L 283.073186 210.443591 
L 282.172333 214.309161 
L 281.286666 217.13281 
L 280.847874 218.057954 
L 280.410894 218.70203 
L 279.975064 219.061438 
L 279.539724 219.132748 
L 279.104212 218.915296 
L 278.667866 218.411193 
L 278.230025 217.625278 
L 277.790027 216.516778 
L 276.900916 213.397991 
L 275.995241 209.277266 
L 274.594095 201.470683 
L 272.618538 188.828221 
L 268.74722 163.88491 
L 266.880447 153.14874 
L 264.863294 142.788166 
L 262.677903 132.968355 
L 261.118689 126.772347 
L 259.471474 120.875883 
L 257.730965 115.285796 
L 255.89187 110.00242 
L 253.948898 105.021146 
L 251.896758 100.333718 
L 249.730156 95.929307 
L 247.443802 91.795365 
L 245.032404 87.9183 
L 242.49067 84.283999 
L 239.813309 80.878218 
L 236.995028 77.686875 
L 234.030537 74.69626 
L 230.914542 71.893175 
L 227.641754 69.265031 
L 224.206879 66.799905 
L 220.604627 64.486564 
L 216.829705 62.314477 
L 212.876821 60.273799 
L 208.740685 58.355357 
L 204.416004 56.55062 
L 199.897487 54.85167 
L 195.179842 53.251163 
L 187.718433 51.020248 
L 179.779221 48.974795 
L 171.344344 47.096248 
L 162.395945 45.368104 
L 152.916163 43.775685 
L 142.887139 42.305926 
L 132.291013 40.947192 
L 117.249818 39.29049 
L 101.126359 37.7901 
L 92.64555 37.058522 
L 83.878301 36.517163 
L 79.385607 36.406706 
L 74.819318 36.446793 
L 74.819318 36.446793 
" clip-path="url(#p12334f480f)" style="fill: none; stroke: #bcbd22; stroke-width: 1.4; stroke-linecap: square"/>
   </g>
   <g id="line2d_32">
    <path d="M 402.589593 45.34806 
L 396.506877 46.200976 
L 390.648542 47.323332 
L 379.584815 49.820367 
L 371.838466 51.860342 
L 364.545848 54.077265 
L 357.689922 56.489648 
L 353.353495 58.216527 
L 349.19853 60.045932 
L 345.219977 61.984883 
L 341.412787 64.040837 
L 337.771911 66.221693 
L 334.2923 68.535782 
L 330.968903 70.991846 
L 327.796673 73.599001 
L 324.770559 76.366678 
L 321.885513 79.304539 
L 319.136485 82.422355 
L 316.518426 85.729842 
L 314.026286 89.236446 
L 311.655016 92.951058 
L 309.399568 96.881658 
L 307.254891 101.034862 
L 305.215936 105.415369 
L 303.277655 110.025278 
L 301.434997 114.863294 
L 299.682914 119.923782 
L 297.213571 127.905745 
L 294.919618 136.295596 
L 292.784014 144.984281 
L 290.15341 156.748157 
L 284.41087 183.235518 
L 282.850686 189.007443 
L 281.83647 191.977252 
L 280.83709 194.155591 
L 280.341386 194.890655 
L 279.847496 195.41182 
L 279.354791 195.715725 
L 278.862639 195.79997 
L 278.370408 195.663893 
L 277.877468 195.308589 
L 277.383188 194.736885 
L 276.886936 193.936334 
L 276.388081 206.605276 
L 275.885993 196.043945 
L 275.380039 154.767266 
L 274.869589 127.926631 
L 274.354011 114.982219 
L 274.783845 115.421723 
L 274.288139 128.761101 
L 273.784419 154.545065 
L 273.272006 192.347311 
L 272.750225 198.669174 
L 272.218398 180.888005 
L 268.77857 160.422139 
L 266.868213 150.117988 
L 264.806526 140.129469 
L 262.575233 130.627058 
L 260.984455 124.615572 
L 259.304759 118.884384 
L 257.530731 113.442338 
L 255.656955 108.29167 
L 253.678017 103.429515 
L 251.588502 98.849202 
L 249.382994 94.541318 
L 247.05608 90.494569 
L 244.602343 86.696469 
L 242.016369 83.133872 
L 239.292742 79.793381 
L 236.426049 76.661651 
L 233.410874 73.725614 
L 230.241802 70.97263 
L 226.913417 68.390599 
L 223.420306 65.96802 
L 219.757054 63.694034 
L 215.918244 61.558432 
L 211.898463 59.551655 
L 207.692294 57.664778 
L 203.294325 55.889492 
L 198.699138 54.218072 
L 193.90132 52.643346 
L 186.312814 50.448153 
L 178.237928 48.435273 
L 169.658386 46.586527 
L 160.555913 44.885733 
L 150.912233 43.318484 
L 140.709071 41.871952 
L 129.928152 40.534705 
L 114.623271 38.904244 
L 98.215457 37.428859 
L 85.159737 36.409867 
L 76.088694 35.909091 
L 76.088694 35.909091 
" clip-path="url(#p12334f480f)" style="fill: none; stroke: #17becf; stroke-width: 1.4; stroke-linecap: square"/>
   </g>
   <g id="patch_3">
    <path d="M 58.325 248.2 
L 58.325 25.8 
" style="fill: none; stroke: #000000; stroke-width: 0.8; stroke-linejoin: miter; stroke-linecap: square"/>
   </g>
   <g id="patch_4">
    <path d="M 58.325 248.2 
L 421.2 248.2 
" style="fill: none; stroke: #000000; stroke-width: 0.8; stroke-linejoin: miter; stroke-linecap: square"/>
   </g>
   <g id="text_14">
    <text style="font-size: 12px; font-family: 'DejaVu Sans', 'Bitstream Vera Sans', 'Computer Modern Sans Serif', 'Lucida Grande', 'Verdana', 'Geneva', 'Lucid', 'Arial', 'Helvetica', 'Avant Garde', sans-serif; text-anchor: middle" x="239.7625" y="19.8" transform="rotate(-0 239.7625 19.8)">dQ/dE (cathodic) - 2.0C</text>
   </g>
   <g id="legend_1">
    <g id="patch_5">
     <path d="M 63.925 244.2 
L 156.29625 244.2 
Q 157.89625 244.2 157.89625 242.6 
L 157.89625 125.975 
Q 157.89625 124.375 156.29625 124.375 
L 63.925 124.375 
Q 62.325 124.375 62.325 125.975 
L 62.325 242.6 
Q 62.325 244.2 63.925 244.2 
z
" style="fill: #ffffff; opacity: 0.8; stroke: #cccccc; stroke-linejoin: miter"/>
    </g>
    <g id="line2d_33">
     <path d="M 65.525 130.85375 
L 73.525 130.85375 
L 81.525 130.85375 
" style="fill: none; stroke: #1f77b4; stroke-width: 1.4; stroke-linecap: square"/>
    </g>
    <g id="text_15">
     <text style="font-size: 8px; font-family: 'DejaVu Sans', 'Bitstream Vera Sans', 'Computer Modern Sans Serif', 'Lucida Grande', 'Verdana', 'Geneva', 'Lucid', 'Arial', 'Helvetica', 'Avant Garde', sans-serif; text-anchor: start" x="87.925" y="133.65375" transform="rotate(-0 87.925 133.65375)">Cycle 21 (2.00C)</text>
    </g>
    <g id="line2d_34">
     <path d="M 65.525 142.59625 
L 73.525 142.59625 
L 81.525 142.59625 
" style="fill: none; stroke: #ff7f0e; stroke-width: 1.4; stroke-linecap: square"/>
    </g>
    <g id="text_16">
     <text style="font-size: 8px; font-family: 'DejaVu Sans', 'Bitstream Vera Sans', 'Computer Modern Sans Serif', 'Lucida Grande', 'Verdana', 'Geneva', 'Lucid', 'Arial', 'Helvetica', 'Avant Garde', sans-serif; text-anchor: start" x="87.925" y="145.39625" transform="rotate(-0 87.925 145.39625)">Cycle 22 (2.00C)</text>
    </g>
    <g id="line2d_35">
     <path d="M 65.525 154.33875 
L 73.525 154.33875 
L 81.525 154.33875 
" style="fill: none; stroke: #2ca02c; stroke-width: 1.4; stroke-linecap: square"/>
    </g>
    <g id="text_17">
     <text style="font-size: 8px; font-family: 'DejaVu Sans', 'Bitstream Vera Sans', 'Computer Modern Sans Serif', 'Lucida Grande', 'Verdana', 'Geneva', 'Lucid', 'Arial', 'Helvetica', 'Avant Garde', sans-serif; text-anchor: start" x="87.925" y="157.13875" transform="rotate(-0 87.925 157.13875)">Cycle 23 (2.00C)</text>
    </g>
    <g id="line2d_36">
     <path d="M 65.525 166.08125 
L 73.525 166.08125 
L 81.525 166.08125 
" style="fill: none; stroke: #d62728; stroke-width: 1.4; stroke-linecap: square"/>
    </g>
    <g id="text_18">
     <text style="font-size: 8px; font-family: 'DejaVu Sans', 'Bitstream Vera Sans', 'Computer Modern Sans Serif', 'Lucida Grande', 'Verdana', 'Geneva', 'Lucid', 'Arial', 'Helvetica', 'Avant Garde', sans-serif; text-anchor: start" x="87.925" y="168.88125" transform="rotate(-0 87.925 168.88125)">Cycle 24 (2.00C)</text>
    </g>
    <g id="line2d_37">
     <path d="M 65.525 177.82375 
L 73.525 177.82375 
L 81.525 177.82375 
" style="fill: none; stroke: #9467bd; stroke-width: 1.4; stroke-linecap: square"/>
    </g>
    <g id="text_19">
     <text style="font-size: 8px; font-family: 'DejaVu Sans', 'Bitstream Vera Sans', 'Computer Modern Sans Serif', 'Lucida Grande', 'Verdana', 'Geneva', 'Lucid', 'Arial', 'Helvetica', 'Avant Garde', sans-serif; text-anchor: start" x="87.925" y="180.62375" transform="rotate(-0 87.925 180.62375)">Cycle 25 (2.00C)</text>
    </g>
    <g id="line2d_38">
     <path d="M 65.525 189.56625 
L 73.525 189.56625 
L 81.525 189.56625 
" style="fill: none; stroke: #8c564b; stroke-width: 1.4; stroke-linecap: square"/>
    </g>
    <g id="text_20">
     <text style="font-size: 8px; font-family: 'DejaVu Sans', 'Bitstream Vera Sans', 'Computer Modern Sans Serif', 'Lucida Grande', 'Verdana', 'Geneva', 'Lucid', 'Arial', 'Helvetica', 'Avant Garde', sans-serif; text-anchor: start" x="87.925" y="192.36625" transform="rotate(-0 87.925 192.36625)">Cycle 26 (2.00C)</text>
    </g>
    <g id="line2d_39">
     <path d="M 65.525 201.30875 
L 73.525 201.30875 
L 81.525 201.30875 
" style="fill: none; stroke: #e377c2; stroke-width: 1.4; stroke-linecap: square"/>
    </g>
    <g id="text_21">
     <text style="font-size: 8px; font-family: 'DejaVu Sans', 'Bitstream Vera Sans', 'Computer Modern Sans Serif', 'Lucida Grande', 'Verdana', 'Geneva', 'Lucid', 'Arial', 'Helvetica', 'Avant Garde', sans-serif; text-anchor: start" x="87.925" y="204.10875" transform="rotate(-0 87.925 204.10875)">Cycle 27 (2.00C)</text>
    </g>
    <g id="line2d_40">
     <path d="M 65.525 213.05125 
L 73.525 213.05125 
L 81.525 213.05125 
" style="fill: none; stroke: #7f7f7f; stroke-width: 1.4; stroke-linecap: square"/>
    </g>
    <g id="text_22">
     <text style="font-size: 8px; font-family: 'DejaVu Sans', 'Bitstream Vera Sans', 'Computer Modern Sans Serif', 'Lucida Grande', 'Verdana', 'Geneva', 'Lucid', 'Arial', 'Helvetica', 'Avant Garde', sans-serif; text-anchor: start" x="87.925" y="215.85125" transform="rotate(-0 87.925 215.85125)">Cycle 28 (2.00C)</text>
    </g>
    <g id="line2d_41">
     <path d="M 65.525 224.79375 
L 73.525 224.79375 
L 81.525 224.79375 
" style="fill: none; stroke: #bcbd22; stroke-width: 1.4; stroke-linecap: square"/>
    </g>
    <g id="text_23">
     <text style="font-size: 8px; font-family: 'DejaVu Sans', 'Bitstream Vera Sans', 'Computer Modern Sans Serif', 'Lucida Grande', 'Verdana', 'Geneva', 'Lucid', 'Arial', 'Helvetica', 'Avant Garde', sans-serif; text-anchor: start" x="87.925" y="227.59375" transform="rotate(-0 87.925 227.59375)">Cycle 29 (2.00C)</text>
    </g>
    <g id="line2d_42">
     <path d="M 65.525 236.53625 
L 73.525 236.53625 
L 81.525 236.53625 
" style="fill: none; stroke: #17becf; stroke-width: 1.4; stroke-linecap: square"/>
    </g>
    <g id="text_24">
     <text style="font-size: 8px; font-family: 'DejaVu Sans', 'Bitstream Vera Sans', 'Computer Modern Sans Serif', 'Lucida Grande', 'Verdana', 'Geneva', 'Lucid', 'Arial', 'Helvetica', 'Avant Garde', sans-serif; text-anchor: start" x="87.925" y="239.33625" transform="rotate(-0 87.925 239.33625)">Cycle 30 (2.00C)</text>
    </g>
   </g>
  </g>
 </g>
 <defs>
  <clipPath id="p12334f480f">
   <rect x="58.325" y="25.8" width="362.875" height="222.4"/>
  </clipPath>
 </defs>
</svg>
