<?xml version="1.0" encoding="utf-8" standalone="no"?>
<!DOCTYPE svg PUBLIC "-//W3C//DTD SVG 1.1//EN"
  "http://www.w3.org/Graphics/SVG/1.1/DTD/svg11.dtd">
<svg xmlns:xlink="http://www.w3.org/1999/xlink" width="432pt" height="288pt" viewBox="0 0 432 288" xmlns="http://www.w3.org/2000/svg" version="1.1">
 <metadata>
  <rdf:RDF xmlns:dc="http://purl.org/dc/elements/1.1/" xmlns:cc="http://creativecommons.org/ns#" xmlns:rdf="http://www.w3.org/1999/02/22-rdf-syntax-ns#">
   <cc:Work>
    <dc:type rdf:resource="http://purl.org/dc/dcmitype/StillImage"/>
    <dc:date>2025-10-07T16:12:46.174310</dc:date>
    <dc:format>image/svg+xml</dc:format>
    <dc:creator>
     <cc:Agent>
      <dc:title>Matplotlib v3.10.3, https://matplotlib.org/</dc:title>
     </cc:Agent>
    </dc:creator>
   </cc:Work>
  </rdf:RDF>
 </metadata>
 <defs>
  <style type="text/css">*{stroke-linejoin: round; stroke-linecap: butt}</style>
 </defs>
 <g id="figure_1">
  <g id="patch_1">
   <path d="M 0 288 
L 432 288 
L 432 0 
L 0 0 
z
" style="fill: #ffffff"/>
  </g>
  <g id="axes_1">
   <g id="patch_2">
    <path d="M 73.56 242.2 
L 421.2 242.2 
L 421.2 25.8 
L 73.56 25.8 
z
" style="fill: #ffffff"/>
   </g>
   <g id="matplotlib.axis_1">
    <g id="xtick_1">
     <g id="line2d_1">
      <path d="M 84.744606 242.2 
L 84.744606 25.8 
" clip-path="url(#p467bf72c9e)" style="fill: none; stroke: #b0b0b0; stroke-opacity: 0.25; stroke-width: 0.8; stroke-linecap: square"/>
     </g>
     <g id="line2d_2">
      <defs>
       <path id="m8a6975f4b7" d="M 0 0 
L 0 3.5 
" style="stroke: #000000; stroke-width: 0.8"/>
      </defs>
      <g>
       <use xlink:href="#m8a6975f4b7" x="84.744606" y="242.2" style="stroke: #000000; stroke-width: 0.8"/>
      </g>
     </g>
     <g id="text_1">
      <text style="font-size: 10px; font-family: 'DejaVu Sans', 'Bitstream Vera Sans', 'Computer Modern Sans Serif', 'Lucida Grande', 'Verdana', 'Geneva', 'Lucid', 'Arial', 'Helvetica', 'Avant Garde', sans-serif; text-anchor: middle" x="84.744606" y="256.798437" transform="rotate(-0 84.744606 256.798437)">2.6</text>
     </g>
    </g>
    <g id="xtick_2">
     <g id="line2d_3">
      <path d="M 124.072547 242.2 
L 124.072547 25.8 
" clip-path="url(#p467bf72c9e)" style="fill: none; stroke: #b0b0b0; stroke-opacity: 0.25; stroke-width: 0.8; stroke-linecap: square"/>
     </g>
     <g id="line2d_4">
      <g>
       <use xlink:href="#m8a6975f4b7" x="124.072547" y="242.2" style="stroke: #000000; stroke-width: 0.8"/>
      </g>
     </g>
     <g id="text_2">
      <text style="font-size: 10px; font-family: 'DejaVu Sans', 'Bitstream Vera Sans', 'Computer Modern Sans Serif', 'Lucida Grande', 'Verdana', 'Geneva', 'Lucid', 'Arial', 'Helvetica', 'Avant Garde', sans-serif; text-anchor: middle" x="124.072547" y="256.798437" transform="rotate(-0 124.072547 256.798437)">2.8</text>
     </g>
    </g>
    <g id="xtick_3">
     <g id="line2d_5">
      <path d="M 163.400488 242.2 
L 163.400488 25.8 
" clip-path="url(#p467bf72c9e)" style="fill: none; stroke: #b0b0b0; stroke-opacity: 0.25; stroke-width: 0.8; stroke-linecap: square"/>
     </g>
     <g id="line2d_6">
      <g>
       <use xlink:href="#m8a6975f4b7" x="163.400488" y="242.2" style="stroke: #000000; stroke-width: 0.8"/>
      </g>
     </g>
     <g id="text_3">
      <text style="font-size: 10px; font-family: 'DejaVu Sans', 'Bitstream Vera Sans', 'Computer Modern Sans Serif', 'Lucida Grande', 'Verdana', 'Geneva', 'Lucid', 'Arial', 'Helvetica', 'Avant Garde', sans-serif; text-anchor: middle" x="163.400488" y="256.798437" transform="rotate(-0 163.400488 256.798437)">3.0</text>
     </g>
    </g>
    <g id="xtick_4">
     <g id="line2d_7">
      <path d="M 202.728429 242.2 
L 202.728429 25.8 
" clip-path="url(#p467bf72c9e)" style="fill: none; stroke: #b0b0b0; stroke-opacity: 0.25; stroke-width: 0.8; stroke-linecap: square"/>
     </g>
     <g id="line2d_8">
      <g>
       <use xlink:href="#m8a6975f4b7" x="202.728429" y="242.2" style="stroke: #000000; stroke-width: 0.8"/>
      </g>
     </g>
     <g id="text_4">
      <text style="font-size: 10px; font-family: 'DejaVu Sans', 'Bitstream Vera Sans', 'Computer Modern Sans Serif', 'Lucida Grande', 'Verdana', 'Geneva', 'Lucid', 'Arial', 'Helvetica', 'Avant Garde', sans-serif; text-anchor: middle" x="202.728429" y="256.798437" transform="rotate(-0 202.728429 256.798437)">3.2</text>
     </g>
    </g>
    <g id="xtick_5">
     <g id="line2d_9">
      <path d="M 242.05637 242.2 
L 242.05637 25.8 
" clip-path="url(#p467bf72c9e)" style="fill: none; stroke: #b0b0b0; stroke-opacity: 0.25; stroke-width: 0.8; stroke-linecap: square"/>
     </g>
     <g id="line2d_10">
      <g>
       <use xlink:href="#m8a6975f4b7" x="242.05637" y="242.2" style="stroke: #000000; stroke-width: 0.8"/>
      </g>
     </g>
     <g id="text_5">
      <text style="font-size: 10px; font-family: 'DejaVu Sans', 'Bitstream Vera Sans', 'Computer Modern Sans Serif', 'Lucida Grande', 'Verdana', 'Geneva', 'Lucid', 'Arial', 'Helvetica', 'Avant Garde', sans-serif; text-anchor: middle" x="242.05637" y="256.798437" transform="rotate(-0 242.05637 256.798437)">3.4</text>
     </g>
    </g>
    <g id="xtick_6">
     <g id="line2d_11">
      <path d="M 281.384311 242.2 
L 281.384311 25.8 
" clip-path="url(#p467bf72c9e)" style="fill: none; stroke: #b0b0b0; stroke-opacity: 0.25; stroke-width: 0.8; stroke-linecap: square"/>
     </g>
     <g id="line2d_12">
      <g>
       <use xlink:href="#m8a6975f4b7" x="281.384311" y="242.2" style="stroke: #000000; stroke-width: 0.8"/>
      </g>
     </g>
     <g id="text_6">
      <text style="font-size: 10px; font-family: 'DejaVu Sans', 'Bitstream Vera Sans', 'Computer Modern Sans Serif', 'Lucida Grande', 'Verdana', 'Geneva', 'Lucid', 'Arial', 'Helvetica', 'Avant Garde', sans-serif; text-anchor: middle" x="281.384311" y="256.798437" transform="rotate(-0 281.384311 256.798437)">3.6</text>
     </g>
    </g>
    <g id="xtick_7">
     <g id="line2d_13">
      <path d="M 320.712253 242.2 
L 320.712253 25.8 
" clip-path="url(#p467bf72c9e)" style="fill: none; stroke: #b0b0b0; stroke-opacity: 0.25; stroke-width: 0.8; stroke-linecap: square"/>
     </g>
     <g id="line2d_14">
      <g>
       <use xlink:href="#m8a6975f4b7" x="320.712253" y="242.2" style="stroke: #000000; stroke-width: 0.8"/>
      </g>
     </g>
     <g id="text_7">
      <text style="font-size: 10px; font-family: 'DejaVu Sans', 'Bitstream Vera Sans', 'Computer Modern Sans Serif', 'Lucida Grande', 'Verdana', 'Geneva', 'Lucid', 'Arial', 'Helvetica', 'Avant Garde', sans-serif; text-anchor: middle" x="320.712253" y="256.798437" transform="rotate(-0 320.712253 256.798437)">3.8</text>
     </g>
    </g>
    <g id="xtick_8">
     <g id="line2d_15">
      <path d="M 360.040194 242.2 
L 360.040194 25.8 
" clip-path="url(#p467bf72c9e)" style="fill: none; stroke: #b0b0b0; stroke-opacity: 0.25; stroke-width: 0.8; stroke-linecap: square"/>
     </g>
     <g id="line2d_16">
      <g>
       <use xlink:href="#m8a6975f4b7" x="360.040194" y="242.2" style="stroke: #000000; stroke-width: 0.8"/>
      </g>
     </g>
     <g id="text_8">
      <text style="font-size: 10px; font-family: 'DejaVu Sans', 'Bitstream Vera Sans', 'Computer Modern Sans Serif', 'Lucida Grande', 'Verdana', 'Geneva', 'Lucid', 'Arial', 'Helvetica', 'Avant Garde', sans-serif; text-anchor: middle" x="360.040194" y="256.798437" transform="rotate(-0 360.040194 256.798437)">4.0</text>
     </g>
    </g>
    <g id="xtick_9">
     <g id="line2d_17">
      <path d="M 399.368135 242.2 
L 399.368135 25.8 
" clip-path="url(#p467bf72c9e)" style="fill: none; stroke: #b0b0b0; stroke-opacity: 0.25; stroke-width: 0.8; stroke-linecap: square"/>
     </g>
     <g id="line2d_18">
      <g>
       <use xlink:href="#m8a6975f4b7" x="399.368135" y="242.2" style="stroke: #000000; stroke-width: 0.8"/>
      </g>
     </g>
     <g id="text_9">
      <text style="font-size: 10px; font-family: 'DejaVu Sans', 'Bitstream Vera Sans', 'Computer Modern Sans Serif', 'Lucida Grande', 'Verdana', 'Geneva', 'Lucid', 'Arial', 'Helvetica', 'Avant Garde', sans-serif; text-anchor: middle" x="399.368135" y="256.798437" transform="rotate(-0 399.368135 256.798437)">4.2</text>
     </g>
    </g>
    <g id="text_10">
     <!-- Math expression removed for LaTeX compatibility -->
     <g transform="translate(230.44 273.515938)">
      <text>
       <tspan x="0" y="-0.359375" style="font-style: oblique; font-size: 14px; font-family: 'DejaVu Sans'">E</tspan>
       <tspan x="8.845703" y="-0.359375" style="font-size: 14px; font-family: 'DejaVu Sans'"> </tspan>
       <tspan x="13.295898" y="-0.359375" style="font-size: 14px; font-family: 'DejaVu Sans'">[</tspan>
       <tspan x="18.757812" y="-0.359375" style="font-size: 14px; font-family: 'DejaVu Sans'">V</tspan>
       <tspan x="28.334961" y="-0.359375" style="font-size: 14px; font-family: 'DejaVu Sans'">]</tspan>
      </text>
     </g>
    </g>
   </g>
   <g id="matplotlib.axis_2">
    <g id="ytick_1">
     <g id="line2d_19">
      <path d="M 73.56 202.964502 
L 421.2 202.964502 
" clip-path="url(#p467bf72c9e)" style="fill: none; stroke: #b0b0b0; stroke-opacity: 0.25; stroke-width: 0.8; stroke-linecap: square"/>
     </g>
     <g id="line2d_20">
      <defs>
       <path id="m9647a701f3" d="M 0 0 
L -3.5 0 
" style="stroke: #000000; stroke-width: 0.8"/>
      </defs>
      <g>
       <use xlink:href="#m9647a701f3" x="73.56" y="202.964502" style="stroke: #000000; stroke-width: 0.8"/>
      </g>
     </g>
     <g id="text_11">
      <text style="font-size: 10px; font-family: 'DejaVu Sans', 'Bitstream Vera Sans', 'Computer Modern Sans Serif', 'Lucida Grande', 'Verdana', 'Geneva', 'Lucid', 'Arial', 'Helvetica', 'Avant Garde', sans-serif; text-anchor: end" x="66.56" y="206.76372" transform="rotate(-0 66.56 206.76372)">−400</text>
     </g>
    </g>
    <g id="ytick_2">
     <g id="line2d_21">
      <path d="M 73.56 156.448175 
L 421.2 156.448175 
" clip-path="url(#p467bf72c9e)" style="fill: none; stroke: #b0b0b0; stroke-opacity: 0.25; stroke-width: 0.8; stroke-linecap: square"/>
     </g>
     <g id="line2d_22">
      <g>
       <use xlink:href="#m9647a701f3" x="73.56" y="156.448175" style="stroke: #000000; stroke-width: 0.8"/>
      </g>
     </g>
     <g id="text_12">
      <text style="font-size: 10px; font-family: 'DejaVu Sans', 'Bitstream Vera Sans', 'Computer Modern Sans Serif', 'Lucida Grande', 'Verdana', 'Geneva', 'Lucid', 'Arial', 'Helvetica', 'Avant Garde', sans-serif; text-anchor: end" x="66.56" y="160.247393" transform="rotate(-0 66.56 160.247393)">−300</text>
     </g>
    </g>
    <g id="ytick_3">
     <g id="line2d_23">
      <path d="M 73.56 109.931848 
L 421.2 109.931848 
" clip-path="url(#p467bf72c9e)" style="fill: none; stroke: #b0b0b0; stroke-opacity: 0.25; stroke-width: 0.8; stroke-linecap: square"/>
     </g>
     <g id="line2d_24">
      <g>
       <use xlink:href="#m9647a701f3" x="73.56" y="109.931848" style="stroke: #000000; stroke-width: 0.8"/>
      </g>
     </g>
     <g id="text_13">
      <text style="font-size: 10px; font-family: 'DejaVu Sans', 'Bitstream Vera Sans', 'Computer Modern Sans Serif', 'Lucida Grande', 'Verdana', 'Geneva', 'Lucid', 'Arial', 'Helvetica', 'Avant Garde', sans-serif; text-anchor: end" x="66.56" y="113.731066" transform="rotate(-0 66.56 113.731066)">−200</text>
     </g>
    </g>
    <g id="ytick_4">
     <g id="line2d_25">
      <path d="M 73.56 63.415521 
L 421.2 63.415521 
" clip-path="url(#p467bf72c9e)" style="fill: none; stroke: #b0b0b0; stroke-opacity: 0.25; stroke-width: 0.8; stroke-linecap: square"/>
     </g>
     <g id="line2d_26">
      <g>
       <use xlink:href="#m9647a701f3" x="73.56" y="63.415521" style="stroke: #000000; stroke-width: 0.8"/>
      </g>
     </g>
     <g id="text_14">
      <text style="font-size: 10px; font-family: 'DejaVu Sans', 'Bitstream Vera Sans', 'Computer Modern Sans Serif', 'Lucida Grande', 'Verdana', 'Geneva', 'Lucid', 'Arial', 'Helvetica', 'Avant Garde', sans-serif; text-anchor: end" x="66.56" y="67.214739" transform="rotate(-0 66.56 67.214739)">−100</text>
     </g>
    </g>
    <g id="text_15">
     <!-- Math expression removed for LaTeX compatibility -->
     <g transform="translate(27.532812 161.44) rotate(-90)">
      <text>
       <tspan x="0" y="-7.551563" style="font-style: oblique; font-size: 9.8px; font-family: 'DejaVu Sans'">d</tspan>
       <tspan x="1" y="5.540625" style="font-style: oblique; font-size: 9.8px; font-family: 'DejaVu Sans'">d</tspan>
       <tspan x="6.220703" y="-7.551563" style="font-style: oblique; font-size: 9.8px; font-family: 'DejaVu Sans'">Q</tspan>
       <tspan x="7.220703" y="5.540625" style="font-style: oblique; font-size: 9.8px; font-family: 'DejaVu Sans'">E</tspan>
       <tspan x="15.684375" y="-0.15" style="font-size: 14px; font-family: 'DejaVu Sans'"> </tspan>
       <tspan x="20.13457" y="4.096875" style="font-size: 11.38294px; font-family: 'STIXSizeTwoSym'">[</tspan>
       <tspan x="49.567224" y="4.096875" style="font-size: 11.38294px; font-family: 'STIXSizeTwoSym'">]</tspan>
       <tspan x="25.355701" y="-6.282813" style="font-size: 9.8px; font-family: 'DejaVu Sans'">m</tspan>
       <tspan x="26.355701" y="5.234375" style="font-size: 9.8px; font-family: 'DejaVu Sans'">g</tspan>
       <tspan x="34.485681" y="5.234375" style="font-size: 9.8px; font-family: 'DejaVu Sans'">⋅</tspan>
       <tspan x="34.902087" y="-6.282813" style="font-size: 9.8px; font-family: 'DejaVu Sans'">A</tspan>
       <tspan x="39.510095" y="5.234375" style="font-size: 9.8px; font-family: 'DejaVu Sans'">V</tspan>
       <tspan x="41.606091" y="-6.282813" style="font-size: 9.8px; font-family: 'DejaVu Sans'">h</tspan>
      </text>
      <rect x="0" y="-3.782813" width="13.934375" height="0.875"/>
      <rect x="25.355701" y="-3.782813" width="22.461523" height="0.875"/>
     </g>
    </g>
   </g>
   <g id="line2d_27">
    <path d="M 312.402866 84.200081 
L 310.742041 84.162547 
L 307.96278 83.794951 
L 303.477637 83.004518 
L 298.643897 81.921224 
L 293.133774 80.444482 
L 286.575614 78.435754 
L 277.886124 75.518315 
L 251.68039 66.577253 
L 241.999085 63.58628 
L 232.534232 60.89795 
L 222.932805 58.411185 
L 213.226893 56.131604 
L 202.953823 53.954593 
L 192.075378 51.886335 
L 180.553341 49.929645 
L 168.349496 48.084725 
L 154.791592 46.269887 
L 140.399516 44.57206 
L 124.413651 42.916864 
L 106.655186 41.313394 
L 93.379759 40.281442 
L 90.169588 40.228468 
L 89.361818 40.247783 
L 89.361818 40.247783 
" clip-path="url(#p467bf72c9e)" style="fill: none; stroke: #1f77b4; stroke-width: 1.4; stroke-linecap: square"/>
   </g>
   <g id="line2d_28">
    <path d="M 399.538647 59.580251 
L 393.978215 61.474372 
L 388.659215 63.517632 
L 383.574693 65.684644 
L 378.717697 67.987967 
L 374.081273 70.437223 
L 369.991256 72.836395 
L 366.077789 75.376986 
L 362.335402 78.06776 
L 358.758625 80.917785 
L 355.34199 83.936361 
L 352.080027 87.132926 
L 348.967268 90.516913 
L 345.998244 94.09758 
L 343.167485 97.883772 
L 340.469522 101.883632 
L 337.898887 106.104233 
L 335.45011 110.551122 
L 333.117722 115.227774 
L 330.715967 120.554206 
L 328.437435 126.147357 
L 326.113463 132.457509 
L 323.763263 139.523091 
L 321.403981 147.35821 
L 318.916085 156.443587 
L 316.212324 167.197517 
L 308.175446 199.927154 
L 306.766497 204.35956 
L 305.582546 207.367996 
L 304.608469 209.256701 
L 303.835141 210.341372 
L 303.161423 210.93439 
L 302.489313 211.227976 
L 301.913677 211.241798 
L 301.337742 211.035908 
L 300.664528 210.52004 
L 299.988891 209.676712 
L 299.309745 208.526407 
L 299.114907 216.866829 
L 298.52789 201.958792 
L 297.936585 192.379885 
L 297.539663 188.813552 
L 297.191883 187.384272 
L 296.993944 187.723109 
L 296.695687 189.176932 
L 296.295356 192.831464 
L 295.790383 200.055951 
L 295.382505 207.875708 
L 295.074186 197.741316 
L 292.850447 188.167332 
L 286.435022 160.041092 
L 283.868434 150.047173 
L 281.555254 141.887589 
L 279.247987 134.53428 
L 276.963588 127.973575 
L 274.721176 122.164941 
L 272.354753 116.64017 
L 269.857191 111.402983 
L 267.429185 106.822643 
L 264.877754 102.481809 
L 262.197289 98.37405 
L 259.382183 94.491369 
L 256.426826 90.824688 
L 253.589754 87.644984 
L 250.6258 84.630777 
L 247.242611 81.522008 
L 243.697674 78.590552 
L 239.985379 75.826347 
L 236.100118 73.219612 
L 232.036284 70.760917 
L 227.788267 68.441237 
L 222.971899 66.075174 
L 217.92566 63.851862 
L 212.642419 61.761604 
L 206.679547 59.648956 
L 200.424633 57.66954 
L 193.388745 55.685488 
L 185.996428 53.832071 
L 177.706083 51.987625 
L 168.424718 50.165453 
L 158.048976 48.36552 
L 154.461849 48.001968 
L 151.422617 47.893053 
L 150.194109 47.91016 
L 150.194109 47.91016 
" clip-path="url(#p467bf72c9e)" style="fill: none; stroke: #ff7f0e; stroke-width: 1.4; stroke-linecap: square"/>
   </g>
   <g id="line2d_29">
    <path d="M 404.313856 69.232424 
L 399.770553 71.348708 
L 395.078919 73.791012 
L 390.589605 76.37115 
L 386.296174 79.100892 
L 382.19219 81.988652 
L 378.545353 84.819053 
L 375.051161 87.799774 
L 371.70446 90.93741 
L 368.500096 94.238245 
L 365.432916 97.708075 
L 362.497766 101.351984 
L 359.689491 105.174073 
L 356.801175 109.492607 
L 354.04759 114.02229 
L 351.4223 118.761497 
L 348.744544 124.065641 
L 346.198759 129.591941 
L 343.619794 135.709457 
L 340.875208 142.823874 
L 338.004276 150.935025 
L 334.911546 160.366171 
L 329.749699 176.992818 
L 326.695841 186.443923 
L 324.747372 191.817352 
L 323.165468 195.563177 
L 321.818692 198.186312 
L 320.692643 199.909046 
L 319.676934 201.060039 
L 318.868201 201.663823 
L 318.061574 201.990762 
L 317.356559 202.063115 
L 316.651433 201.935398 
L 315.844406 201.545699 
L 315.136331 200.969118 
L 314.221958 199.917288 
L 313.198789 198.372924 
L 312.061841 196.235508 
L 310.698547 193.161767 
L 309.09269 188.957999 
L 306.996242 182.78703 
L 303.627738 172.041159 
L 298.417757 155.470009 
L 295.35614 146.478075 
L 292.537525 138.868361 
L 289.864646 132.264883 
L 287.208019 126.272649 
L 284.584549 120.876869 
L 281.824392 115.711326 
L 279.117938 111.105522 
L 276.27908 106.710653 
L 273.30138 102.526408 
L 270.406427 98.827212 
L 267.381054 95.303498 
L 264.220109 91.950456 
L 260.918436 88.762487 
L 257.470883 85.733437 
L 253.872295 82.856792 
L 250.117519 80.125836 
L 245.893329 77.339942 
L 241.475584 74.70668 
L 236.857846 72.217732 
L 232.033678 69.865003 
L 226.628539 67.486503 
L 220.971121 65.246189 
L 215.053505 63.135299 
L 208.445667 61.017002 
L 201.523165 59.027065 
L 193.812482 57.043502 
L 185.236415 55.079329 
L 176.22334 53.244469 
L 165.137503 51.226534 
L 161.30215 50.787821 
L 158.518958 50.66478 
L 155.699055 50.750495 
L 155.699055 50.750495 
" clip-path="url(#p467bf72c9e)" style="fill: none; stroke: #2ca02c; stroke-width: 1.4; stroke-linecap: square"/>
   </g>
   <g id="line2d_30">
    <path d="M 405.065723 69.918745 
L 400.58023 72.038376 
L 395.945968 74.480722 
L 391.509166 77.0593 
L 387.263596 79.785178 
L 383.203032 82.66647 
L 379.321247 85.71134 
L 375.87137 88.692263 
L 372.56529 91.827506 
L 369.398021 95.123046 
L 366.364579 98.584363 
L 363.459977 102.216223 
L 360.470313 106.322508 
L 357.618066 110.634025 
L 354.897007 115.151581 
L 352.120092 120.218049 
L 349.47897 125.511503 
L 346.802818 131.393313 
L 344.108751 137.881725 
L 341.41177 144.972729 
L 338.586976 153.032122 
L 335.283566 163.175252 
L 326.765549 189.78238 
L 324.956586 194.446136 
L 323.499331 197.613742 
L 322.268532 199.783164 
L 321.252757 201.17562 
L 320.344243 202.094616 
L 319.539807 202.608954 
L 318.737108 202.864126 
L 318.035257 202.877056 
L 317.232683 202.651317 
L 316.428506 202.168449 
L 315.621563 201.398768 
L 314.709001 200.230011 
L 313.687202 198.567072 
L 312.447052 196.093757 
L 310.975965 192.605713 
L 309.255126 187.923654 
L 306.91744 180.863614 
L 296.26535 147.74586 
L 293.475425 140.192324 
L 290.672362 133.247987 
L 288.039175 127.295805 
L 285.263057 121.580526 
L 282.522372 116.453833 
L 279.836933 111.878811 
L 277.022049 107.509569 
L 274.071493 103.346035 
L 270.979038 99.385722 
L 267.974973 95.886477 
L 264.838202 92.554149 
L 261.563739 89.383399 
L 258.146599 86.368344 
L 254.581796 83.502747 
L 250.571923 80.576467 
L 246.378787 77.807886 
L 241.996161 75.188866 
L 237.41782 72.711392 
L 232.637537 70.367652 
L 227.284636 67.996328 
L 221.685106 65.760946 
L 215.431806 63.51682 
L 208.879889 61.407972 
L 201.580885 59.305309 
L 193.923129 57.334757 
L 185.411499 55.381682 
L 176.471936 53.555518 
L 165.483931 51.536869 
L 161.684191 51.075679 
L 158.371719 50.909087 
L 155.57178 50.984138 
L 155.57178 50.984138 
" clip-path="url(#p467bf72c9e)" style="fill: none; stroke: #d62728; stroke-width: 1.4; stroke-linecap: square"/>
   </g>
   <g id="line2d_31">
    <path d="M 405.398182 69.889454 
L 400.910001 72.003436 
L 396.272564 74.439212 
L 391.832333 77.010818 
L 387.583123 79.729333 
L 383.518745 82.602899 
L 379.633013 85.639732 
L 376.179387 88.612975 
L 372.869508 91.740408 
L 369.698424 95.028113 
L 366.66118 98.481702 
L 363.752823 102.106114 
L 360.759204 106.204936 
L 357.903131 110.509892 
L 355.178417 115.0222 
L 352.578875 119.740296 
L 349.925525 125.017956 
L 347.237263 130.888143 
L 344.531449 137.372167 
L 341.823367 144.47032 
L 338.987952 152.55609 
L 335.802012 162.36002 
L 326.287665 192.25757 
L 324.606632 196.474743 
L 323.267245 199.29228 
L 322.047315 201.353687 
L 321.03986 202.648864 
L 320.138272 203.46706 
L 319.339555 203.894229 
L 318.542171 204.063846 
L 317.844647 203.999782 
L 317.04665 203.684328 
L 316.246668 203.102212 
L 315.342877 202.111493 
L 314.332004 200.640329 
L 313.209341 198.586735 
L 311.864116 195.613817 
L 310.280953 191.524595 
L 308.327073 185.827101 
L 305.375276 176.444374 
L 299.000395 156.018623 
L 295.951528 147.07159 
L 293.146492 139.50995 
L 290.488315 132.95173 
L 287.848147 127.001169 
L 285.242755 121.642004 
L 282.503551 116.509684 
L 279.819519 111.931281 
L 277.006105 107.560061 
L 274.057123 103.395624 
L 270.966385 99.435214 
L 267.964078 95.936406 
L 264.829253 92.604877 
L 261.556959 89.435171 
L 258.14224 86.421316 
L 254.580145 83.556999 
L 250.573541 80.632124 
L 246.384081 77.864924 
L 242.00558 75.24722 
L 237.431849 72.770971 
L 232.656701 70.428347 
L 227.309932 68.058083 
L 221.717232 65.823614 
L 215.472042 63.580299 
L 208.929144 61.472095 
L 201.640786 59.36994 
L 193.99484 57.399727 
L 185.497063 55.446837 
L 176.572823 53.620697 
L 165.06709 51.504505 
L 161.264566 51.015525 
L 157.949823 50.811776 
L 155.148075 50.846131 
L 154.583393 50.879075 
L 154.583393 50.879075 
" clip-path="url(#p467bf72c9e)" style="fill: none; stroke: #9467bd; stroke-width: 1.4; stroke-linecap: square"/>
   </g>
   <g id="line2d_32">
    <path d="M 405.346298 70.205054 
L 400.884171 72.319378 
L 396.272561 74.754512 
L 391.855922 77.324246 
L 387.628148 80.039461 
L 383.583131 82.908084 
L 379.714764 85.938086 
L 376.275545 88.90306 
L 372.978487 92.020133 
L 369.818699 95.295133 
L 366.791292 98.733405 
L 363.673447 102.624072 
L 360.697355 106.71406 
L 357.856908 111.006253 
L 355.146 115.501327 
L 352.378265 120.540133 
L 349.744713 125.802264 
L 347.075028 131.646864 
L 344.386207 138.092015 
L 341.693192 145.134186 
L 338.871191 153.137971 
L 335.569397 163.215256 
L 326.942512 190.051604 
L 325.136181 194.701714 
L 323.680952 197.870961 
L 322.451883 200.052213 
L 321.336581 201.582127 
L 320.429994 202.487316 
L 319.627211 202.993798 
L 318.82613 203.245034 
L 318.025614 203.243762 
L 317.224521 202.989992 
L 316.421713 202.480805 
L 315.61605 201.688903 
L 314.704849 200.503309 
L 313.581926 198.640185 
L 312.342061 196.119869 
L 310.870962 192.59351 
L 309.040618 187.572879 
L 306.583421 180.111225 
L 296.868782 149.88945 
L 293.976246 141.950042 
L 291.213596 135.001745 
L 288.453656 128.667851 
L 285.712284 122.94188 
L 283.007342 117.79894 
L 280.164169 112.883768 
L 277.379199 108.505791 
L 274.461164 104.3306 
L 271.403957 100.356178 
L 268.201469 96.578604 
L 265.092309 93.242451 
L 261.847726 90.06631 
L 258.462832 87.044513 
L 254.932736 84.171021 
L 250.963101 81.235155 
L 246.81329 78.456064 
L 242.477194 75.825791 
L 237.948707 73.33648 
L 233.221721 70.980459 
L 227.929883 68.595624 
L 222.395656 66.34649 
L 216.216849 64.087555 
L 209.744593 61.963859 
L 202.536093 59.845483 
L 194.975091 57.85937 
L 186.572958 55.890063 
L 177.750396 54.047986 
L 165.844654 51.817186 
L 162.076581 51.297134 
L 158.792061 51.054993 
L 156.015991 51.049193 
L 154.895576 51.106395 
L 154.895576 51.106395 
" clip-path="url(#p467bf72c9e)" style="fill: none; stroke: #8c564b; stroke-width: 1.4; stroke-linecap: square"/>
   </g>
   <g id="line2d_33">
    <path d="M 405.146731 70.683916 
L 400.723449 72.802058 
L 396.150666 75.240169 
L 391.769827 77.811378 
L 387.574918 80.526298 
L 383.559924 83.392536 
L 379.718831 86.417703 
L 376.045625 89.60929 
L 372.534289 92.9745 
L 369.178811 96.52005 
L 365.973175 100.251914 
L 362.911367 104.175018 
L 359.987372 108.292863 
L 357.195176 112.607082 
L 354.342961 117.446456 
L 351.627742 122.505579 
L 348.874176 128.133182 
L 346.259087 133.980467 
L 343.471458 140.785293 
L 340.692645 148.166733 
L 337.665648 156.848179 
L 333.827065 168.581794 
L 328.464045 184.949683 
L 326.390711 190.572532 
L 324.692485 194.563143 
L 323.338204 197.219954 
L 322.103919 199.156485 
L 321.084138 200.36793 
L 320.171229 201.125813 
L 319.362306 201.516449 
L 318.554616 201.66311 
L 317.747035 201.564521 
L 316.938443 201.22154 
L 316.127716 200.620108 
L 315.2117 199.631651 
L 314.187127 198.182964 
L 313.049324 196.178399 
L 311.686225 193.293523 
L 310.082633 189.34111 
L 308.104801 183.847396 
L 305.120196 174.808672 
L 298.284385 153.91032 
L 295.190572 145.261449 
L 292.347711 137.950795 
L 289.656843 131.606207 
L 286.987187 125.844329 
L 284.175446 120.310899 
L 281.402412 115.345094 
L 278.489209 110.601623 
L 275.637232 106.377651 
L 272.650693 102.349567 
L 269.523579 98.514819 
L 266.249875 94.869202 
L 262.823566 91.407265 
L 259.238638 88.122658 
L 255.489076 85.008413 
L 251.568866 82.057172 
L 247.471993 79.261372 
L 243.192443 76.613389 
L 238.7242 74.105652 
L 233.720574 71.565978 
L 228.486035 69.169881 
L 223.013185 66.908805 
L 216.904473 64.636593 
L 210.507221 62.499255 
L 203.383945 60.366157 
L 195.914031 58.36524 
L 187.614919 56.380305 
L 178.902332 54.522761 
L 167.14755 52.270319 
L 162.890902 51.657629 
L 159.640368 51.414114 
L 156.8932 51.408264 
L 155.784495 51.465782 
L 155.784495 51.465782 
" clip-path="url(#p467bf72c9e)" style="fill: none; stroke: #e377c2; stroke-width: 1.4; stroke-linecap: square"/>
   </g>
   <g id="line2d_34">
    <path d="M 405.244548 70.45518 
L 400.802816 72.573745 
L 396.211778 75.013136 
L 391.814304 77.586618 
L 387.604321 80.304953 
L 383.575759 83.17592 
L 379.722547 86.207319 
L 376.038612 89.406848 
L 372.764081 92.534887 
L 369.625414 95.819901 
L 366.391675 99.538963 
L 363.303797 103.451322 
L 360.355706 107.56099 
L 357.541333 111.870184 
L 354.854604 116.378803 
L 352.110717 121.427262 
L 349.498924 126.692795 
L 346.850195 132.532543 
L 344.181151 138.960886 
L 341.36206 146.363706 
L 338.429916 154.712643 
L 334.911411 165.456148 
L 327.897167 187.114371 
L 325.954956 192.299601 
L 324.376608 195.922311 
L 323.032064 198.470684 
L 321.907516 200.156997 
L 320.893023 201.297229 
L 320.085253 201.913706 
L 319.279654 202.26705 
L 318.475094 202.371421 
L 317.670441 202.225903 
L 316.86456 201.831776 
L 316.056321 201.168257 
L 315.14282 200.11435 
L 314.120673 198.587837 
L 312.985068 196.494791 
L 311.623892 193.503494 
L 310.021555 189.428788 
L 307.931898 183.459977 
L 304.700025 173.44362 
L 298.879634 155.384869 
L 295.818482 146.633075 
L 293.005274 139.223522 
L 290.180738 132.415064 
L 287.529214 126.579837 
L 284.735708 120.9758 
L 281.979787 115.94702 
L 279.083645 111.144134 
L 276.24748 106.868145 
L 273.276589 102.791452 
L 270.164902 98.911508 
L 266.906346 95.224046 
L 263.74373 91.967481 
L 260.444382 88.866921 
L 256.732749 85.695814 
L 252.850829 82.691569 
L 248.792551 79.846462 
L 244.551844 77.152688 
L 240.122636 74.602484 
L 235.498857 72.188217 
L 230.321994 69.743914 
L 224.907334 67.438313 
L 219.247408 65.262971 
L 212.931402 63.07713 
L 206.31878 61.021123 
L 198.957728 58.969178 
L 191.240722 57.044274 
L 182.669715 55.13455 
L 173.162128 53.251229 
L 163.70525 51.574775 
L 160.453444 51.228295 
L 157.151085 51.107796 
L 154.921191 51.186883 
L 154.921191 51.186883 
" clip-path="url(#p467bf72c9e)" style="fill: none; stroke: #7f7f7f; stroke-width: 1.4; stroke-linecap: square"/>
   </g>
   <g id="line2d_35">
    <path d="M 404.749462 71.434361 
L 400.386375 73.562185 
L 395.874087 76.009361 
L 391.549371 78.587685 
L 387.406329 81.307374 
L 383.439066 84.17556 
L 379.641686 87.199317 
L 376.008293 90.385517 
L 372.532992 93.740671 
L 369.209886 97.270718 
L 366.033081 100.980765 
L 362.996679 104.874786 
L 360.094785 108.955243 
L 357.321503 113.222656 
L 354.486152 118.000097 
L 351.784422 122.983642 
L 349.041688 128.513926 
L 346.27523 134.609215 
L 343.500397 141.269329 
L 340.588489 148.846083 
L 337.308688 158.030814 
L 332.046698 173.587059 
L 328.698173 183.150657 
L 326.601045 188.51466 
L 324.988005 192.09402 
L 323.614308 194.65422 
L 322.361985 196.525559 
L 321.327143 197.701161 
L 320.400695 198.445767 
L 319.579777 198.836732 
L 318.76015 198.994767 
L 317.940716 198.918665 
L 317.120374 198.609066 
L 316.298023 198.055878 
L 315.369109 197.134191 
L 314.330463 195.775001 
L 313.177546 193.885644 
L 312.117646 191.831446 
L 311.904121 198.46162 
L 311.152297 185.44561 
L 310.501905 178.092481 
L 310.065004 175.054955 
L 309.65414 173.273263 
L 309.435635 173.169264 
L 309.216351 173.404727 
L 308.885923 174.382494 
L 308.442459 176.824031 
L 307.883276 181.646217 
L 307.318445 188.36222 
L 306.97672 180.131124 
L 301.93515 164.40389 
L 298.117453 152.90623 
L 294.999367 144.22488 
L 292.132305 136.903645 
L 289.41712 130.561003 
L 286.722186 124.809049 
L 284.064632 119.62952 
L 281.272621 114.668679 
L 278.538846 110.241936 
L 275.675369 106.013693 
L 272.676119 101.983285 
L 269.535028 98.147917 
L 266.246024 94.503152 
L 262.803037 91.04333 
L 259.199998 87.761907 
L 255.430835 84.651742 
L 251.489479 81.705322 
L 247.369859 78.914947 
L 243.065905 76.272873 
L 238.571547 73.771425 
L 233.880715 71.403077 
L 228.629901 69.004959 
L 223.139108 66.742581 
L 217.00934 64.469669 
L 210.588974 62.332239 
L 203.43879 60.199612 
L 195.93945 58.199657 
L 187.606326 56.216185 
L 178.856674 54.360479 
L 167.049901 52.111591 
L 162.77391 51.429759 
L 158.959273 51.05321 
L 155.634645 50.973 
L 155.075573 50.98613 
L 155.075573 50.98613 
" clip-path="url(#p467bf72c9e)" style="fill: none; stroke: #bcbd22; stroke-width: 1.4; stroke-linecap: square"/>
   </g>
   <g id="line2d_36">
    <path d="M 405.138798 70.522461 
L 400.702625 72.647371 
L 396.117653 75.094157 
L 391.726302 77.675515 
L 387.522477 80.402223 
L 383.500083 83.282057 
L 379.653026 86.322801 
L 375.975209 89.532123 
L 372.706306 92.669617 
L 369.573194 95.964377 
L 366.345338 99.694173 
L 363.263213 103.617386 
L 360.320724 107.73786 
L 357.511775 112.057596 
L 354.830273 116.576219 
L 352.091736 121.634414 
L 349.485008 126.908166 
L 346.841334 132.754315 
L 344.177229 139.18581 
L 341.363079 146.586197 
L 338.435618 154.922834 
L 334.921806 165.631191 
L 328.241493 186.17895 
L 326.182152 191.683982 
L 324.598309 195.31771 
L 323.249253 197.87873 
L 322.121056 199.577809 
L 321.103368 200.730823 
L 320.293119 201.360061 
L 319.485107 201.724598 
L 318.678195 201.840918 
L 317.871244 201.707996 
L 317.063118 201.327002 
L 316.252679 200.678991 
L 315.336755 199.640214 
L 314.311971 198.13112 
L 313.173523 196.057092 
L 311.809049 193.087796 
L 310.202967 189.037484 
L 308.108615 183.097574 
L 304.869806 173.119061 
L 299.037516 155.110141 
L 295.970245 146.377469 
L 293.151432 138.982456 
L 290.321255 132.186357 
L 287.664406 126.36114 
L 284.865243 120.766334 
L 282.103689 115.745601 
L 279.201562 110.950255 
L 276.359469 106.680901 
L 273.382296 102.610502 
L 270.263947 98.736544 
L 266.998329 95.054793 
L 263.828774 91.803305 
L 260.522101 88.707622 
L 256.802125 85.541559 
L 252.911369 82.542156 
L 248.843738 79.701702 
L 244.593136 77.012403 
L 240.153469 74.466505 
L 235.518642 72.056383 
L 230.329262 69.61635 
L 224.901352 67.314852 
L 219.227416 65.143451 
L 212.895594 62.961644 
L 206.266221 60.909504 
L 198.886306 58.861491 
L 191.1493 56.940347 
L 182.55583 55.034426 
L 173.023039 53.154927 
L 163.540819 51.481532 
L 160.28024 51.135245 
L 156.968941 51.014266 
L 154.732994 51.09258 
L 154.732994 51.09258 
" clip-path="url(#p467bf72c9e)" style="fill: none; stroke: #17becf; stroke-width: 1.4; stroke-linecap: square"/>
   </g>
   <g id="line2d_37">
    <path d="M 377.3772 58.910724 
L 374.439715 59.790861 
L 371.576018 60.855264 
L 366.065215 63.226681 
L 360.835231 65.73811 
L 355.876508 68.435112 
L 352.329732 70.588953 
L 348.92613 72.86286 
L 345.661671 75.264131 
L 342.532322 77.80039 
L 339.534051 80.479545 
L 336.662824 83.309753 
L 333.91461 86.299353 
L 331.285376 89.456779 
L 328.771089 92.790446 
L 326.367717 96.308599 
L 324.071228 100.019125 
L 321.877587 103.929312 
L 319.782764 108.045553 
L 317.782726 112.372979 
L 315.873439 116.915028 
L 313.461924 123.306664 
L 311.195018 130.07646 
L 309.063163 137.207224 
L 307.056799 144.666364 
L 304.710756 154.371072 
L 302.52719 164.353744 
L 299.707612 178.366844 
L 295.382251 200.115046 
L 293.718697 207.237824 
L 292.427772 211.693684 
L 291.476589 214.188783 
L 290.848328 215.4219 
L 290.223361 216.260029 
L 289.600494 216.717802 
L 288.978532 216.811646 
L 288.35628 216.540426 
L 287.732544 215.907407 
L 287.106127 214.864352 
L 286.158864 212.635481 
L 285.198852 209.650338 
L 283.892031 204.616932 
L 282.201987 196.915151 
L 279.323286 182.335869 
L 275.744053 164.411557 
L 273.105961 152.458465 
L 270.726208 142.827275 
L 268.690268 135.443849 
L 266.526515 128.398329 
L 264.225392 121.719232 
L 261.77734 115.420547 
L 259.1728 109.505077 
L 257.11095 105.316891 
L 254.951667 101.336682 
L 252.690917 97.558447 
L 250.324668 93.975168 
L 247.848888 90.579133 
L 245.259544 87.362196 
L 242.552604 84.315981 
L 239.724035 81.432047 
L 236.769805 78.702011 
L 233.68588 76.117645 
L 230.468229 73.670949 
L 227.112819 71.354198 
L 223.615617 69.15998 
L 219.97259 67.081216 
L 214.881415 64.477534 
L 209.514268 62.052174 
L 203.861592 59.791228 
L 197.913829 57.681849 
L 191.661418 55.712198 
L 185.094802 53.87139 
L 178.204423 52.149431 
L 170.980721 50.537157 
L 161.467797 48.656123 
L 157.508434 48.225877 
L 155.495115 48.170405 
L 153.45917 48.250848 
L 153.45917 48.250848 
" clip-path="url(#p467bf72c9e)" style="fill: none; stroke: #1f77b4; stroke-width: 1.4; stroke-linecap: square"/>
   </g>
   <g id="line2d_38">
    <path d="M 377.783299 61.413579 
L 375.009805 62.302518 
L 372.302779 63.375314 
L 367.083852 65.757509 
L 362.117961 68.267567 
L 357.39655 70.948811 
L 352.911064 73.813719 
L 348.652946 76.875333 
L 345.603421 79.308735 
L 342.673369 81.86617 
L 339.85918 84.553472 
L 337.157244 87.376433 
L 334.563952 90.340713 
L 332.075695 93.451725 
L 329.688862 96.714494 
L 327.399844 100.13349 
L 324.49374 104.94144 
L 321.746556 110.039488 
L 319.149737 115.4291 
L 316.694727 121.105841 
L 314.37297 127.057635 
L 312.175911 133.262786 
L 309.591907 141.323247 
L 307.172664 149.629715 
L 304.463526 159.726727 
L 296.602018 189.758775 
L 295.181353 194.048991 
L 294.136392 196.676703 
L 293.105024 198.741683 
L 292.083638 200.20244 
L 291.406479 200.825161 
L 290.731082 201.159805 
L 290.05638 201.20321 
L 289.381301 200.954965 
L 288.704777 200.417417 
L 288.025739 199.595622 
L 287.684943 211.516372 
L 287.343116 207.7486 
L 286.65584 157.625117 
L 286.310122 143.79385 
L 285.96284 137.439433 
L 286.251031 138.338925 
L 285.92014 146.23613 
L 285.586939 160.882276 
L 284.913016 209.464736 
L 284.571997 211.507175 
L 284.228075 197.119006 
L 280.210954 177.192645 
L 276.944865 161.46713 
L 274.717674 151.691436 
L 272.325255 142.210301 
L 270.279903 134.933042 
L 268.107455 127.981394 
L 265.798425 121.384403 
L 263.343323 115.156867 
L 260.732662 109.302558 
L 258.666871 105.154307 
L 256.504238 101.209431 
L 254.24076 97.462348 
L 251.872433 93.906443 
L 249.395254 90.534386 
L 246.805221 87.338381 
L 244.098331 84.310378 
L 241.270581 81.44223 
L 238.317967 78.725825 
L 235.236487 76.153179 
L 232.022139 73.71651 
L 228.670918 71.408289 
L 225.178822 69.22128 
L 221.541849 67.14856 
L 216.460267 64.551365 
L 211.10452 62.130954 
L 205.465119 59.873668 
L 199.532575 57.766866 
L 193.297401 55.798888 
L 186.750108 53.958999 
L 179.881208 52.237334 
L 172.681211 50.624834 
L 163.201157 48.724971 
L 157.249977 47.711584 
L 153.170407 47.255316 
L 153.170407 47.255316 
" clip-path="url(#p467bf72c9e)" style="fill: none; stroke: #ff7f0e; stroke-width: 1.4; stroke-linecap: square"/>
   </g>
   <g id="line2d_39">
    <path d="M 377.038766 63.291362 
L 374.376988 64.18923 
L 370.499976 65.858333 
L 364.338401 68.907829 
L 359.670274 71.505099 
L 355.225628 74.269724 
L 350.996494 77.212395 
L 346.974899 80.343977 
L 343.152872 83.675335 
L 339.522442 87.217079 
L 336.075638 90.97925 
L 332.804489 94.970889 
L 329.701022 99.199508 
L 326.757267 103.670425 
L 323.965253 108.385941 
L 321.317007 113.344364 
L 318.80456 118.538857 
L 316.419939 123.956124 
L 314.155174 129.574964 
L 311.480619 136.834292 
L 308.965315 144.275666 
L 305.681785 154.774387 
L 298.617378 177.93683 
L 296.718702 183.203998 
L 295.238943 186.627675 
L 294.146749 188.666789 
L 293.065925 190.212472 
L 292.350031 190.954633 
L 291.636701 191.458782 
L 290.924936 191.720731 
L 290.213741 191.73829 
L 289.502119 191.511313 
L 288.789074 191.041698 
L 288.431707 190.717045 
L 288.07361 201.954802 
L 287.714659 198.54727 
L 286.993696 151.918723 
L 286.631436 139.10521 
L 286.267824 133.19335 
L 286.580901 134.12676 
L 286.235447 141.655213 
L 285.887896 155.535319 
L 285.185939 201.412453 
L 284.831254 203.582382 
L 284.47391 190.372053 
L 283.015139 184.488449 
L 279.11335 167.954942 
L 275.65569 153.790699 
L 273.30792 144.99704 
L 270.795465 136.452786 
L 268.65514 129.875371 
L 266.389211 123.571262 
L 263.988698 117.566038 
L 261.44462 111.87387 
L 258.747998 106.499922 
L 255.889852 101.442456 
L 253.63484 97.853079 
L 251.28013 94.433654 
L 248.821936 91.179035 
L 246.256467 88.083457 
L 243.579936 85.140738 
L 240.788554 82.34444 
L 237.878533 79.688 
L 234.846084 77.164833 
L 231.687419 74.768417 
L 228.398749 72.492349 
L 224.976286 70.3304 
L 220.198332 67.614933 
L 215.166809 65.078004 
L 209.872736 62.706742 
L 204.307134 60.48908 
L 198.461023 58.413758 
L 192.325422 56.470306 
L 185.891352 54.649015 
L 179.149833 52.940902 
L 170.276903 50.952341 
L 164.708527 49.805639 
L 160.892013 49.217062 
L 158.952057 49.006889 
L 158.952057 49.006889 
" clip-path="url(#p467bf72c9e)" style="fill: none; stroke: #2ca02c; stroke-width: 1.4; stroke-linecap: square"/>
   </g>
   <g id="line2d_40">
    <path d="M 379.545992 59.367529 
L 376.641801 60.255683 
L 373.810359 61.329467 
L 368.360966 63.720634 
L 363.18829 66.251041 
L 358.282809 68.966113 
L 354.773317 71.132591 
L 351.404749 73.418039 
L 348.173087 75.829421 
L 345.074314 78.373954 
L 342.104413 81.059074 
L 339.259367 83.892375 
L 336.535158 86.881533 
L 333.92777 90.034206 
L 331.433184 93.357903 
L 329.047384 96.859818 
L 326.766353 100.546622 
L 324.586073 104.424206 
L 322.502526 108.497368 
L 320.511697 112.769439 
L 317.99454 118.77705 
L 315.625549 125.136853 
L 313.395201 131.83489 
L 311.293974 138.843939 
L 308.83451 147.974101 
L 306.54332 157.390361 
L 303.582944 170.684536 
L 298.338152 194.714956 
L 296.960544 200.087434 
L 295.619215 204.438663 
L 294.631297 206.928818 
L 293.654412 208.699689 
L 293.007301 209.416601 
L 292.362117 209.78727 
L 291.717671 209.827595 
L 291.072772 209.537108 
L 290.42623 208.907959 
L 289.776855 207.889105 
L 288.794875 205.750584 
L 287.799824 202.911496 
L 286.445814 198.149196 
L 284.696075 190.88357 
L 282.106289 178.954946 
L 278.030212 160.194824 
L 275.317267 148.856033 
L 272.874697 139.691748 
L 270.788266 132.647931 
L 268.573853 125.910886 
L 266.221934 119.50963 
L 263.722987 113.459535 
L 261.067491 107.76534 
L 258.967405 103.726518 
L 256.769886 99.882548 
L 254.470917 96.228414 
L 252.066481 92.758066 
L 249.55256 89.464724 
L 246.925137 86.341125 
L 244.180195 83.379721 
L 241.313717 80.572841 
L 238.321685 77.912817 
L 235.200082 75.392075 
L 231.944892 73.003216 
L 228.552096 70.73906 
L 225.017678 68.592693 
L 221.337619 66.557487 
L 216.197381 64.005905 
L 210.781563 61.626596 
L 205.080644 59.406403 
L 199.085101 57.333135 
L 192.785411 55.395524 
L 186.172053 53.583181 
L 179.235504 51.886547 
L 170.095823 49.892665 
L 166.290222 49.129936 
L 162.397277 48.534608 
L 160.417679 48.36324 
L 158.415798 48.305624 
L 156.391485 48.383926 
L 156.391485 48.383926 
" clip-path="url(#p467bf72c9e)" style="fill: none; stroke: #d62728; stroke-width: 1.4; stroke-linecap: square"/>
   </g>
   <g id="line2d_41">
    <path d="M 378.672701 61.199005 
L 375.886902 62.098641 
L 373.16894 63.184832 
L 367.932084 65.598421 
L 362.953237 68.1441 
L 358.223501 70.866037 
L 353.73398 73.777205 
L 350.51913 76.092892 
L 347.430643 78.528511 
L 344.464768 81.090037 
L 341.61775 83.78348 
L 338.885837 86.614806 
L 336.265275 89.589843 
L 333.752311 92.714156 
L 331.343193 95.992901 
L 329.034166 99.430644 
L 326.821479 103.03114 
L 324.014602 108.089426 
L 321.363427 113.444075 
L 318.859055 119.091611 
L 316.492592 125.020875 
L 314.25514 131.210965 
L 311.626195 139.263928 
L 309.167555 147.575687 
L 306.417523 157.694306 
L 298.455708 187.821316 
L 297.019075 192.106155 
L 295.962531 194.718333 
L 294.919757 196.756564 
L 293.887 198.186952 
L 293.202207 198.742011 
L 292.519086 199.0127 
L 291.836524 199.01356 
L 291.15341 198.744584 
L 290.468632 198.1914 
L 289.781077 197.30701 
L 288.742108 195.472474 
L 287.690636 193.048551 
L 286.262739 188.985567 
L 284.797048 184.099994 
L 282.508187 175.564122 
L 275.662622 149.277364 
L 273.236388 140.928337 
L 270.643371 132.813764 
L 268.437198 126.562215 
L 266.104268 120.564405 
L 263.635684 114.844051 
L 261.022549 109.414574 
L 258.255969 104.281217 
L 255.327046 99.442905 
L 253.018465 96.004447 
L 250.609809 92.725011 
L 248.097324 89.600034 
L 245.477259 86.62436 
L 242.745859 83.792425 
L 239.899371 81.098402 
L 236.934043 78.536325 
L 233.84612 76.100184 
L 230.631851 73.784004 
L 226.143133 70.872221 
L 221.414228 68.149714 
L 216.436243 65.60351 
L 211.200279 63.221287 
L 205.697441 60.991429 
L 199.918832 58.903039 
L 193.855556 56.945938 
L 187.498717 55.110655 
L 180.839419 53.388394 
L 172.076409 51.339807 
L 168.431095 50.711093 
L 166.577858 50.529011 
L 164.70405 50.466241 
L 162.80953 50.546132 
L 162.80953 50.546132 
" clip-path="url(#p467bf72c9e)" style="fill: none; stroke: #9467bd; stroke-width: 1.4; stroke-linecap: square"/>
   </g>
   <g id="line2d_42">
    <path d="M 377.715604 63.370001 
L 375.058569 64.279309 
L 372.463938 65.37536 
L 367.457792 67.804502 
L 362.688977 70.35633 
L 358.149306 73.073403 
L 353.830588 75.966363 
L 349.724635 79.046039 
L 345.823257 82.323275 
L 342.118266 85.808678 
L 338.601472 89.512307 
L 335.264686 93.443246 
L 332.09972 97.609081 
L 329.098384 102.015229 
L 326.252489 106.664125 
L 323.553846 111.554243 
L 320.994266 116.678938 
L 318.565559 122.025136 
L 316.259538 127.571871 
L 313.537061 134.739983 
L 310.977489 142.089373 
L 307.637317 152.458811 
L 300.454537 175.309941 
L 298.524409 180.48798 
L 297.020059 183.842202 
L 295.90961 185.83085 
L 294.810592 187.32798 
L 294.082558 188.039115 
L 293.357045 188.513532 
L 292.63303 188.747249 
L 291.909489 188.738292 
L 291.185398 188.486736 
L 290.459734 187.994706 
L 290.095992 187.659727 
L 289.731473 198.656158 
L 289.366048 195.297023 
L 288.631973 149.540573 
L 288.263065 136.999285 
L 287.892741 131.248743 
L 288.216691 132.218866 
L 287.865535 139.654501 
L 287.512184 153.307538 
L 286.798323 198.310031 
L 286.437521 200.40957 
L 286.073945 187.397357 
L 284.588998 181.476238 
L 275.658666 145.557967 
L 273.157218 136.974179 
L 271.026053 130.346405 
L 268.769269 123.981755 
L 266.377583 117.910476 
L 263.841711 112.150304 
L 261.15237 106.709026 
L 258.300274 101.58675 
L 256.04881 97.951174 
L 253.696659 94.488001 
L 251.239903 91.192297 
L 248.674627 88.058411 
L 245.996913 85.0802 
L 243.202845 82.251208 
L 240.288506 79.564807 
L 237.24998 77.01432 
L 234.08335 74.593105 
L 230.784699 72.29463 
L 227.350112 70.112524 
L 222.552435 67.373433 
L 217.496845 64.816285 
L 212.174059 62.427876 
L 206.574793 60.195823 
L 200.689763 58.108571 
L 194.509685 56.155374 
L 188.025276 54.326275 
L 181.227252 52.612063 
L 172.274557 50.617968 
L 166.653222 49.469484 
L 162.799199 48.8769 
L 160.839813 48.663187 
L 160.839813 48.663187 
" clip-path="url(#p467bf72c9e)" style="fill: none; stroke: #8c564b; stroke-width: 1.4; stroke-linecap: square"/>
   </g>
   <g id="line2d_43">
    <path d="M 376.650891 65.988839 
L 374.134757 66.904242 
L 370.465933 68.602004 
L 363.496222 72.331297 
L 359.11229 74.986562 
L 354.929777 77.798672 
L 350.941296 80.775517 
L 347.139463 83.924671 
L 343.51689 87.253145 
L 340.066194 90.767083 
L 336.779988 94.471384 
L 333.650887 98.36924 
L 330.671504 102.46158 
L 327.834456 106.746423 
L 325.132355 111.218123 
L 322.557817 115.866528 
L 319.507777 121.901198 
L 316.63109 128.142417 
L 313.387578 135.814025 
L 309.859473 144.821605 
L 301.784793 165.882756 
L 299.730412 170.46463 
L 298.127247 173.514621 
L 296.94356 175.391913 
L 295.772426 176.886195 
L 294.61073 177.974511 
L 293.839971 178.465797 
L 293.071098 178.765411 
L 292.303189 178.871207 
L 291.535321 178.782424 
L 290.76657 178.4997 
L 290.381575 178.28619 
L 289.996013 188.499255 
L 289.609768 185.527583 
L 288.834771 143.610381 
L 288.445787 132.290975 
L 288.05566 127.259724 
L 288.410477 128.414339 
L 288.0416 135.50871 
L 287.670805 148.303074 
L 286.922926 190.065914 
L 286.545574 192.112256 
L 286.165769 180.169188 
L 285.010293 176.55886 
L 282.615018 168.634135 
L 275.481531 144.420562 
L 272.966482 136.717531 
L 270.286305 129.208663 
L 268.01202 123.405143 
L 265.612768 117.81964 
L 263.079977 112.474865 
L 260.405075 107.384616 
L 257.579492 102.55548 
L 254.594656 97.988373 
L 251.441997 93.679869 
L 248.112941 89.623327 
L 245.495235 86.74096 
L 242.769868 83.990958 
L 239.933226 81.368611 
L 236.981692 78.868982 
L 232.861343 75.718284 
L 228.521743 72.764652 
L 223.95432 69.996089 
L 219.150503 67.400884 
L 214.101721 64.967745 
L 208.799402 62.68588 
L 203.234975 60.545054 
L 197.39987 58.535614 
L 191.285514 56.648497 
L 184.883336 54.875224 
L 176.462807 52.780102 
L 171.181231 51.656893 
L 167.562424 51.140322 
L 167.562424 51.140322 
" clip-path="url(#p467bf72c9e)" style="fill: none; stroke: #e377c2; stroke-width: 1.4; stroke-linecap: square"/>
   </g>
   <g id="line2d_44">
    <path d="M 378.895051 61.934141 
L 376.154682 62.847714 
L 373.480964 63.950393 
L 368.32904 66.399378 
L 363.430397 68.98027 
L 358.776154 71.737294 
L 354.357431 74.682841 
L 351.192605 77.023401 
L 348.151515 79.482683 
L 345.230416 82.06619 
L 342.42556 84.779373 
L 339.7332 87.627536 
L 337.14959 90.615727 
L 334.670982 93.748604 
L 332.293631 97.030265 
L 329.274862 101.642897 
L 326.420562 106.530935 
L 323.721848 111.695122 
L 321.16984 117.130459 
L 318.755657 122.824546 
L 316.470416 128.755706 
L 313.781661 136.451574 
L 311.263156 144.371142 
L 308.441256 153.980669 
L 300.617258 181.275491 
L 299.123774 185.497989 
L 298.026111 188.120422 
L 296.943527 190.220408 
L 295.872275 191.761659 
L 295.162553 192.448808 
L 294.455092 192.838923 
L 293.748782 192.975824 
L 293.042513 192.858117 
L 292.335175 192.487007 
L 291.625658 191.822153 
L 290.912851 190.87552 
L 289.835044 188.986502 
L 288.74359 186.558097 
L 287.260616 182.563103 
L 285.349885 176.536538 
L 282.537354 166.667876 
L 277.216076 147.805977 
L 274.256244 138.249409 
L 271.608094 130.492436 
L 269.358204 124.498726 
L 266.981918 118.733901 
L 264.470356 113.222664 
L 261.814636 107.979874 
L 259.005877 103.01247 
L 256.035197 98.321197 
L 252.893715 93.902094 
L 250.420173 90.762016 
L 247.841812 87.766844 
L 245.154885 84.911944 
L 242.355646 82.192283 
L 239.440349 79.602564 
L 236.405245 77.137343 
L 233.246589 74.791115 
L 228.836378 71.838432 
L 224.190977 69.074739 
L 219.301502 66.487627 
L 214.159073 64.065202 
L 208.754809 61.796156 
L 203.079828 59.669813 
L 197.125249 57.676146 
L 190.88219 55.805776 
L 184.341771 54.049959 
L 175.734553 51.960152 
L 172.1538 51.314295 
L 170.333325 51.125131 
L 168.4926 51.056858 
L 166.631486 51.133262 
L 166.631486 51.133262 
" clip-path="url(#p467bf72c9e)" style="fill: none; stroke: #7f7f7f; stroke-width: 1.4; stroke-linecap: square"/>
   </g>
   <g id="line2d_45">
    <path d="M 377.601788 64.745515 
L 375.02082 65.668159 
L 372.499598 66.779323 
L 367.632413 69.238553 
L 362.99228 71.816422 
L 358.571247 74.554883 
L 354.36136 77.463263 
L 350.354666 80.550827 
L 346.543211 83.826563 
L 342.919042 87.298907 
L 339.474207 90.975381 
L 336.200751 94.862146 
L 333.090723 98.963444 
L 330.136167 103.280924 
L 327.329132 107.81284 
L 324.661664 112.553114 
L 322.12581 117.490274 
L 319.713616 122.606292 
L 316.860156 129.212664 
L 314.171955 135.986989 
L 311.142384 144.201181 
L 301.444796 171.121522 
L 299.850864 174.659115 
L 298.289131 177.533664 
L 297.134176 179.204748 
L 295.989505 180.428702 
L 295.230447 180.98558 
L 294.473473 181.329914 
L 293.71759 181.459006 
L 292.961803 181.371842 
L 292.205119 181.069106 
L 291.446542 180.553173 
L 291.066234 190.971367 
L 290.68508 187.841059 
L 289.919738 144.67271 
L 289.535301 132.941702 
L 289.149521 127.661038 
L 289.496696 128.736218 
L 289.131826 135.914597 
L 288.764813 148.950363 
L 288.023785 191.646402 
L 287.649484 193.665246 
L 287.272467 181.346918 
L 285.734377 175.937372 
L 282.484327 163.895162 
L 278.474263 149.19932 
L 275.543412 139.358166 
L 272.917448 131.373988 
L 270.683629 125.210318 
L 268.321619 119.288446 
L 265.82226 113.634222 
L 263.176389 108.262875 
L 260.374846 103.181147 
L 257.40847 98.389184 
L 255.070006 94.982621 
L 252.629806 91.733004 
L 250.084005 88.636051 
L 247.428738 85.686844 
L 244.660142 82.880014 
L 241.77435 80.209897 
L 238.7675 77.670661 
L 235.635724 75.256408 
L 232.37516 72.961255 
L 227.820723 70.076298 
L 223.021297 67.37937 
L 217.967721 64.857612 
L 212.650833 62.498797 
L 207.061474 60.291383 
L 201.190482 58.224535 
L 195.028697 56.288128 
L 188.566958 54.472734 
L 181.796104 52.769597 
L 172.883888 50.750029 
L 169.175749 50.052217 
L 165.384032 49.547606 
L 165.384032 49.547606 
" clip-path="url(#p467bf72c9e)" style="fill: none; stroke: #bcbd22; stroke-width: 1.4; stroke-linecap: square"/>
   </g>
   <g id="line2d_46">
    <path d="M 379.882791 60.616517 
L 377.061567 61.533477 
L 374.311205 62.641669 
L 369.018273 65.107853 
L 363.994417 67.714809 
L 359.230058 70.508428 
L 355.821321 72.734653 
L 352.549122 75.080075 
L 349.40942 77.55109 
L 346.398172 80.15421 
L 343.511339 82.895995 
L 340.744878 85.782973 
L 338.09475 88.821523 
L 335.556912 92.017741 
L 333.127323 95.377265 
L 330.801943 98.905065 
L 328.576729 102.605189 
L 326.447642 106.480456 
L 323.751403 111.921771 
L 321.209292 117.673563 
L 318.811729 123.724568 
L 316.549134 130.052736 
L 314.41193 136.622624 
L 311.902161 145.094639 
L 309.102956 155.447656 
L 304.470587 173.781088 
L 301.783847 183.867802 
L 300.315609 188.659595 
L 298.884154 192.538545 
L 297.82894 194.761743 
L 296.784987 196.348945 
L 296.093279 197.005276 
L 295.403583 197.353783 
L 294.714701 197.407371 
L 294.025435 197.165454 
L 293.33459 196.625897 
L 292.640966 195.747327 
L 291.943367 194.578692 
L 290.886895 192.297083 
L 289.814744 189.426205 
L 288.353834 184.786286 
L 286.4638 177.909503 
L 282.826257 163.518548 
L 279.264075 149.77163 
L 276.844888 141.194897 
L 274.254925 132.842748 
L 272.047422 126.405265 
L 269.709069 120.231553 
L 267.230287 114.349085 
L 264.601497 108.77345 
L 261.813119 103.510838 
L 259.611345 99.768905 
L 257.310373 96.200109 
L 254.906163 92.800667 
L 252.394673 89.565802 
L 249.771862 86.490015 
L 247.03369 83.567302 
L 244.176115 80.791337 
L 241.195095 78.155615 
L 238.08659 75.653574 
L 234.846558 73.278684 
L 231.470959 71.024515 
L 227.955751 68.884793 
L 223.044652 66.199387 
L 217.868597 63.692881 
L 212.418005 61.352266 
L 206.683299 59.16534 
L 200.654898 57.120715 
L 194.323224 55.207807 
L 187.678698 53.416803 
L 180.711741 51.738633 
L 171.535031 49.773314 
L 167.714902 49.310336 
L 165.772215 49.242279 
L 163.80758 49.313794 
L 163.80758 49.313794 
" clip-path="url(#p467bf72c9e)" style="fill: none; stroke: #17becf; stroke-width: 1.4; stroke-linecap: square"/>
   </g>
   <g id="line2d_47">
    <path d="M 350.691128 52.725964 
L 347.251253 53.657936 
L 343.922853 54.877037 
L 337.591441 57.560482 
L 333.118701 59.723245 
L 328.873902 62.045547 
L 324.849422 64.541209 
L 321.037632 67.225199 
L 317.430909 70.113658 
L 314.021627 73.223901 
L 310.802159 76.574368 
L 307.764882 80.184518 
L 304.902168 84.074639 
L 302.206393 88.265535 
L 299.669931 92.778058 
L 297.285156 97.632445 
L 295.044444 102.847378 
L 292.940168 108.438726 
L 290.964703 114.417879 
L 289.110423 120.789614 
L 287.369703 127.549427 
L 285.734918 134.680317 
L 283.706811 144.705119 
L 281.8354 155.191297 
L 279.688954 168.606529 
L 274.530689 201.909335 
L 273.535844 206.775119 
L 272.563053 210.363089 
L 271.923012 211.965092 
L 271.287125 212.891322 
L 270.970032 213.095998 
L 270.65313 213.126622 
L 270.336138 212.983029 
L 270.018771 212.665985 
L 269.381786 211.519181 
L 268.739916 209.70588 
L 268.416444 208.561882 
L 268.090903 206.138587 
L 267.763011 205.274113 
L 267.099046 207.602426 
L 266.762407 208.759884 
L 267.138503 209.224621 
L 266.813879 208.512864 
L 266.48463 206.167068 
L 265.811038 198.420525 
L 264.758355 189.644362 
L 262.470634 170.775071 
L 260.784065 158.345942 
L 258.945663 146.447609 
L 257.455518 138.001366 
L 255.860817 130.022599 
L 254.153353 122.536307 
L 252.324918 115.548705 
L 250.367306 109.052395 
L 248.272308 103.030571 
L 246.031719 97.460321 
L 243.637331 92.315135 
L 241.080936 87.566747 
L 238.354328 83.186454 
L 236.437973 80.456775 
L 234.439889 77.870005 
L 232.357643 75.418292 
L 229.071152 71.977534 
L 225.581619 68.799669 
L 221.880837 65.862354 
L 217.960598 63.144986 
L 213.812697 60.628666 
L 209.428924 58.296115 
L 204.801074 56.131581 
L 199.920939 54.12073 
L 194.780312 52.250535 
L 189.370986 50.509169 
L 183.684754 48.885896 
L 177.713408 47.370974 
L 169.293919 45.504462 
L 160.333516 43.796207 
L 150.812747 42.229718 
L 140.712158 40.763855 
L 135.438351 40.251365 
L 132.744505 40.158618 
L 130.012293 40.216692 
L 130.012293 40.216692 
" clip-path="url(#p467bf72c9e)" style="fill: none; stroke: #1f77b4; stroke-width: 1.4; stroke-linecap: square"/>
   </g>
   <g id="line2d_48">
    <path d="M 351.791607 51.219106 
L 348.201296 52.128748 
L 344.729482 53.319765 
L 338.131674 55.945879 
L 333.476398 58.067108 
L 329.06327 60.349364 
L 324.884135 62.807202 
L 320.930838 65.456484 
L 317.195223 68.314441 
L 313.669134 71.399702 
L 310.344416 74.732285 
L 307.212913 78.333534 
L 304.266469 82.22596 
L 301.496929 86.432975 
L 298.896137 90.978453 
L 296.455938 95.886075 
L 294.168175 101.178387 
L 292.024694 106.875481 
L 290.017338 112.993218 
L 288.137953 119.540882 
L 286.378381 126.518187 
L 284.730469 133.911575 
L 283.18606 141.689827 
L 281.273756 152.56256 
L 279.092294 166.651709 
L 275.995781 188.701979 
L 274.2477 200.629183 
L 272.922126 208.182226 
L 271.957779 212.302335 
L 271.324557 214.202006 
L 270.696256 215.364318 
L 270.383195 215.664057 
L 270.070459 215.773519 
L 269.757745 215.692068 
L 269.444751 215.420178 
L 268.816715 214.312448 
L 268.183934 212.464875 
L 267.865009 211.279519 
L 267.543991 208.768103 
L 267.22058 207.84174 
L 266.565364 210.165742 
L 266.232957 211.261909 
L 266.595022 211.620826 
L 266.274059 210.756076 
L 265.948313 208.208416 
L 265.281178 200.007095 
L 264.23651 190.749234 
L 261.956862 170.884445 
L 260.268076 157.884042 
L 258.419908 145.514461 
L 256.916727 136.78242 
L 255.303504 128.572789 
L 253.571501 120.905648 
L 251.711979 113.781355 
L 249.716201 107.186404 
L 247.575427 101.09808 
L 245.28092 95.488025 
L 242.823941 90.32487 
L 241.091377 87.115001 
L 239.280131 84.079683 
L 237.387613 81.209458 
L 235.411235 78.495116 
L 233.348406 75.927766 
L 231.196539 73.498876 
L 228.953043 71.200301 
L 226.615329 69.0243 
L 222.926438 65.974191 
L 219.010994 63.160416 
L 214.860258 60.561916 
L 210.465493 58.159518 
L 205.817959 55.935815 
L 200.90892 53.875032 
L 195.729635 51.962891 
L 190.271368 50.186476 
L 184.525379 48.534112 
L 178.482931 46.995241 
L 172.135284 45.560316 
L 163.1819 43.793969 
L 153.649694 42.178905 
L 140.888912 40.316845 
L 135.513241 39.68144 
L 132.765962 39.470973 
L 129.978624 39.378058 
L 127.150902 39.433714 
L 127.150902 39.433714 
" clip-path="url(#p467bf72c9e)" style="fill: none; stroke: #ff7f0e; stroke-width: 1.4; stroke-linecap: square"/>
   </g>
   <g id="line2d_49">
    <path d="M 354.190817 48.404179 
L 350.28323 49.277389 
L 346.510263 50.423393 
L 339.357078 52.961044 
L 334.324906 55.022164 
L 329.567505 57.250938 
L 325.0755 59.664135 
L 320.839516 62.280333 
L 316.850179 65.120073 
L 314.323017 67.14852 
L 311.898532 69.293605 
L 309.573946 71.563046 
L 307.346481 73.965025 
L 305.21336 76.50819 
L 303.171804 79.201643 
L 301.219038 82.05492 
L 299.352281 85.077953 
L 297.568758 88.28101 
L 295.865691 91.674611 
L 294.240301 95.269405 
L 292.689811 99.076012 
L 290.498438 105.205642 
L 288.459966 111.867555 
L 286.565021 119.088698 
L 284.804227 126.886585 
L 283.16821 135.264111 
L 281.647597 144.202907 
L 280.233011 153.655263 
L 278.495626 166.901372 
L 276.531677 183.981386 
L 272.512235 220.1968 
L 271.60839 226.19679 
L 271.018437 229.143996 
L 270.435332 231.101331 
L 269.856297 232.026933 
L 269.567438 232.130904 
L 269.278554 231.993978 
L 268.989299 231.61721 
L 268.699326 231.00349 
L 268.115835 228.965376 
L 267.525303 225.958103 
L 266.620229 219.875139 
L 265.362896 209.357803 
L 260.200896 163.065549 
L 258.416852 150.006494 
L 256.963119 140.741158 
L 255.3998 132.011554 
L 253.717519 123.853213 
L 251.906902 116.275546 
L 249.958575 109.269406 
L 247.863162 102.813153 
L 245.61129 96.877344 
L 244.01849 93.192689 
L 242.349208 89.713817 
L 240.600667 86.43007 
L 238.770089 83.330853 
L 236.854696 80.405778 
L 234.851711 77.644759 
L 232.758355 75.038083 
L 230.571852 72.576457 
L 228.289424 70.251037 
L 225.908292 68.053438 
L 223.42568 65.975744 
L 220.83881 64.010496 
L 216.756944 61.258252 
L 212.424872 58.721508 
L 207.833221 56.380488 
L 202.972615 54.21732 
L 197.83368 52.215877 
L 192.407041 50.361623 
L 186.683323 48.641458 
L 180.653153 47.043581 
L 174.307156 45.557356 
L 165.338336 43.732967 
L 155.769158 42.069948 
L 145.5774 40.550685 
L 137.511647 39.467819 
L 131.928349 38.95471 
L 129.073819 38.859152 
L 126.176906 38.912665 
L 126.176906 38.912665 
" clip-path="url(#p467bf72c9e)" style="fill: none; stroke: #2ca02c; stroke-width: 1.4; stroke-linecap: square"/>
   </g>
   <g id="line2d_50">
    <path d="M 353.839129 48.530961 
L 349.945079 49.401847 
L 346.184399 50.544192 
L 339.05204 53.071245 
L 334.032206 55.121035 
L 329.284326 57.334752 
L 324.799025 59.728268 
L 320.566923 62.31905 
L 316.578646 65.12627 
L 314.050621 67.128268 
L 311.624017 69.242403 
L 309.296054 71.475706 
L 307.063955 73.835568 
L 304.924941 76.329724 
L 302.876234 78.966232 
L 300.915055 81.753426 
L 299.038627 84.699863 
L 297.24417 87.81424 
L 295.528906 91.105283 
L 293.890058 94.581604 
L 291.568986 100.161529 
L 289.40422 106.202404 
L 287.386383 112.724583 
L 285.506097 119.740081 
L 283.753986 127.248406 
L 282.120674 135.231321 
L 280.596782 143.646568 
L 278.71893 155.407265 
L 276.587864 170.554773 
L 272.205668 203.14005 
L 271.219575 208.826874 
L 270.258511 212.928488 
L 269.627076 214.642233 
L 268.999819 215.47297 
L 268.686889 215.578497 
L 268.373961 215.475993 
L 268.060689 215.166177 
L 267.746725 214.651215 
L 267.115332 212.944906 
L 266.797208 211.76931 
M 263.84539 196.438054 
L 261.237714 171.798459 
L 259.55393 157.878836 
L 257.69964 144.677746 
L 256.182762 135.406873 
L 254.546628 126.738775 
L 252.781235 118.692898 
L 250.876576 111.264712 
L 248.822646 104.433468 
L 246.609441 98.168197 
L 245.040544 94.287768 
L 243.393446 90.630975 
L 241.665183 87.185995 
L 239.852791 83.941043 
L 237.953305 80.884543 
L 235.963761 78.005252 
L 233.881193 75.292348 
L 231.702638 72.735488 
L 229.425131 70.324843 
L 227.045708 68.051112 
L 224.561403 65.90553 
L 221.969254 63.879858 
L 219.266294 61.966374 
L 214.997601 59.290822 
L 210.46291 56.829132 
L 205.652217 54.561115 
L 200.555515 52.468616 
L 195.1628 50.535325 
L 189.464067 48.746596 
L 183.44931 47.089285 
L 177.108524 45.551584 
L 170.431704 44.122888 
L 160.989265 42.371183 
L 150.90793 40.776419 
L 140.163981 39.316214 
L 134.536116 38.6111 
L 128.733704 38.101493 
L 125.766117 38.003933 
L 122.753781 38.052608 
L 122.753781 38.052608 
" clip-path="url(#p467bf72c9e)" style="fill: none; stroke: #d62728; stroke-width: 1.4; stroke-linecap: square"/>
   </g>
   <g id="line2d_51">
    <path d="M 356.143163 46.106581 
L 351.930278 46.947613 
L 347.867994 48.053419 
L 340.18249 50.510219 
L 334.790002 52.514193 
L 329.704116 54.689498 
L 324.914082 57.05436 
L 320.40915 59.629144 
L 317.558943 61.47341 
L 314.827485 63.428386 
L 312.21159 65.501977 
L 309.708073 67.702653 
L 307.313749 70.039473 
L 305.025433 72.5221 
L 302.839939 75.160813 
L 300.754082 77.9665 
L 298.764676 80.950638 
L 296.868537 84.125256 
L 295.062478 87.502861 
L 293.343315 91.096333 
L 291.707863 94.91877 
L 290.152936 98.983277 
L 288.675348 103.302674 
L 287.271915 107.889116 
L 285.298838 115.293083 
L 283.474691 123.351016 
L 281.788723 132.076231 
L 280.230185 141.45822 
L 278.788327 151.452065 
L 277.028768 165.561726 
L 275.432045 180.197887 
L 271.059298 222.165398 
L 270.163859 228.03307 
L 269.578632 230.673835 
L 268.999076 232.057818 
L 268.710429 232.346783 
L 268.422006 232.363636 
L 268.133407 232.10823 
L 267.844235 231.582857 
L 267.554092 230.792202 
L 266.969298 228.221683 
L 266.375842 224.60691 
L 265.462446 217.463875 
L 264.184533 205.432597 
L 260.531557 169.626649 
L 258.820198 155.320155 
L 257.419175 145.118188 
L 255.90549 135.50003 
L 254.268392 126.526576 
L 252.49713 118.219825 
L 250.580955 110.574258 
L 248.509115 103.566023 
L 247.0361 99.230878 
L 245.485938 95.151388 
L 243.855443 91.314758 
L 242.14143 87.707894 
L 240.340714 84.317686 
L 238.45011 81.131238 
L 236.466432 78.136013 
L 234.386494 75.319954 
L 232.207113 72.671547 
L 229.925102 70.179866 
L 227.537275 67.834597 
L 225.040449 65.626037 
L 222.431437 63.545093 
L 219.707053 61.583258 
L 216.864114 59.732595 
L 213.899434 57.985707 
L 209.217179 55.545033 
L 204.24309 53.301259 
L 198.966414 51.235386 
L 193.376402 49.330419 
L 187.462303 47.571157 
L 181.213367 45.944006 
L 174.618843 44.436802 
L 167.667981 43.038654 
L 157.827281 41.327376 
L 147.308497 39.772331 
L 133.167641 37.991322 
L 127.192339 37.483395 
L 124.134748 37.385686 
L 121.029998 37.433347 
L 121.029998 37.433347 
" clip-path="url(#p467bf72c9e)" style="fill: none; stroke: #9467bd; stroke-width: 1.4; stroke-linecap: square"/>
   </g>
   <g id="line2d_52">
    <path d="M 355.537017 46.753581 
L 351.412304 47.598739 
L 347.432734 48.708704 
L 339.896649 51.16956 
L 334.602574 53.171253 
L 329.603744 55.3384 
L 324.889715 57.687625 
L 320.450044 60.237299 
L 316.274289 63.007672 
L 313.631915 64.988095 
L 311.0991 67.083542 
L 308.672752 69.301516 
L 306.349775 71.649928 
L 304.127076 74.137077 
L 302.00156 76.771625 
L 299.970133 79.562551 
L 298.0297 82.519083 
L 296.177169 85.650609 
L 294.409443 88.966541 
L 292.72343 92.476154 
L 291.116034 96.18836 
L 289.584162 100.111428 
L 287.421192 106.406932 
L 285.410745 113.210848 
L 283.542378 120.529493 
L 281.805648 128.352062 
L 280.190112 136.643838 
L 278.206538 148.308792 
L 276.395101 160.412263 
L 273.564836 181.256308 
L 271.746073 194.216172 
L 270.712751 200.473691 
L 269.710116 205.185555 
L 269.053585 207.34039 
L 268.402957 208.549163 
L 268.07889 208.832913 
L 267.755138 208.901999 
L 267.431315 208.755906 
L 267.107034 208.39575 
L 266.781909 207.82426 
L 266.127576 205.955972 
L 265.797595 219.329903 
M 263.059066 191.158622 
L 260.365921 166.476013 
L 258.619041 152.535151 
L 257.189416 142.562806 
L 255.645013 133.143184 
L 253.97469 124.342781 
L 252.167304 116.188252 
L 250.211714 108.677829 
L 248.096779 101.790619 
L 246.592794 97.529479 
L 245.009735 93.519314 
L 243.344302 89.747802 
L 241.593192 86.202248 
L 239.753104 82.869891 
L 237.820737 79.738128 
L 235.79279 76.794682 
L 233.665962 74.027718 
L 231.43695 71.42592 
L 229.102454 68.978537 
L 226.659173 66.675411 
L 224.103805 64.50698 
L 221.433049 62.464277 
L 218.643603 60.538909 
L 215.732166 58.723046 
L 212.695438 57.009388 
L 207.8982 54.615804 
L 202.800486 52.416058 
L 197.391152 50.391396 
L 191.659058 48.525042 
L 185.59306 46.801997 
L 179.182018 45.208847 
L 172.414789 43.733594 
L 165.280231 42.365498 
L 155.176829 40.691571 
L 144.37418 39.171041 
L 129.847318 37.425026 
L 123.707543 36.937386 
L 120.565499 36.827694 
L 120.565499 36.827694 
" clip-path="url(#p467bf72c9e)" style="fill: none; stroke: #8c564b; stroke-width: 1.4; stroke-linecap: square"/>
   </g>
   <g id="line2d_53">
    <path d="M 357.579738 44.748024 
L 353.161863 45.57016 
L 348.905807 46.652309 
L 340.86512 49.061294 
L 335.233294 51.031159 
L 329.930049 53.17414 
L 324.943549 55.509167 
L 321.78934 57.182918 
L 318.767138 58.958297 
L 315.873436 60.842735 
L 313.104728 62.844222 
L 310.457505 64.971345 
L 307.928261 67.233306 
L 305.513489 69.639945 
L 303.209681 72.201752 
L 301.01333 74.929865 
L 298.92093 77.836051 
L 296.928972 80.932667 
L 295.03395 84.232587 
L 293.232356 87.74909 
L 291.520684 91.495695 
L 289.895426 95.485933 
L 288.353075 99.733034 
L 286.890124 104.24951 
L 285.503065 109.046615 
L 283.557104 116.788069 
L 281.762173 125.199641 
L 280.106436 134.276807 
L 278.578056 143.98113 
L 277.165197 154.227005 
L 275.440624 168.465119 
L 273.138001 189.81327 
L 271.09229 208.383879 
L 270.136185 215.430093 
L 269.515466 218.976985 
L 268.904004 221.462437 
L 268.29829 222.71924 
L 267.996494 222.934539 
L 267.694819 222.870906 
L 267.392828 222.528915 
L 267.090082 221.911715 
L 266.480573 219.794202 
L 265.862784 216.515666 
L 264.912905 209.829665 
L 263.584687 198.279204 
L 259.351418 159.707412 
L 257.5176 145.841026 
L 256.011561 136.027954 
L 254.380362 126.830187 
L 252.612167 118.293847 
L 250.695139 110.428846 
L 248.617441 103.220299 
L 247.137202 98.764562 
L 245.576787 94.575523 
L 243.932688 90.640465 
L 242.201398 86.946062 
L 240.379409 83.478758 
L 238.463215 80.225071 
L 236.449309 77.171798 
L 234.334182 74.306171 
L 232.114329 71.615959 
L 229.786241 69.08953 
L 227.346412 66.71589 
L 224.791335 64.484691 
L 222.117502 62.386237 
L 219.321406 60.411464 
L 216.39954 58.55192 
L 213.348397 56.799739 
L 208.521615 54.35693 
L 203.384232 52.116873 
L 197.92441 50.059484 
L 192.130313 48.166844 
L 185.990104 46.422978 
L 179.491947 44.813635 
L 172.624005 43.326106 
L 165.374441 41.949043 
L 155.094262 40.267425 
L 144.086544 38.743154 
L 132.323229 37.325253 
L 126.149455 36.808493 
L 122.988004 36.706014 
L 119.776259 36.749295 
L 119.776259 36.749295 
" clip-path="url(#p467bf72c9e)" style="fill: none; stroke: #e377c2; stroke-width: 1.4; stroke-linecap: square"/>
   </g>
   <g id="line2d_54">
    <path d="M 356.564848 45.535477 
L 352.265747 46.367186 
L 348.12173 47.460657 
L 340.285368 49.889576 
L 334.789949 51.870025 
L 329.609108 54.01866 
L 324.731391 56.352819 
L 320.145345 58.891699 
L 317.244366 60.708401 
L 314.464534 62.632264 
L 311.802457 64.670511 
L 309.254742 66.830797 
L 306.817995 69.121202 
L 304.488823 71.550218 
L 302.263831 74.12672 
L 300.139628 76.859914 
L 298.112818 79.759274 
L 296.18001 82.834431 
L 294.337809 86.095041 
L 292.582823 89.550598 
L 290.911657 93.210189 
L 289.320918 97.082187 
L 287.807213 101.17386 
L 285.673671 107.735092 
L 283.694368 114.812029 
L 281.857849 122.397013 
L 280.152664 130.458479 
L 278.567359 138.932618 
L 276.620303 150.684685 
L 274.416194 165.524203 
L 271.295515 186.712301 
L 270.216727 192.755121 
L 269.170015 197.227996 
L 268.48437 199.202349 
L 267.804498 200.21005 
L 267.465666 200.400142 
L 267.127004 200.378443 
L 266.788089 200.14512 
L 266.448496 199.702051 
L 266.107801 199.05144 
L 265.765579 198.139562 
L 265.421408 211.031641 
L 265.074861 200.14666 
L 264.725516 157.854423 
L 264.372949 130.303571 
L 264.016734 116.957801 
L 264.322164 117.308074 
L 263.978994 130.873261 
L 263.630249 157.20055 
L 263.275476 195.865612 
L 262.914223 202.339068 
L 262.546035 184.194294 
L 259.736493 160.030081 
L 257.90869 146.371565 
L 256.409506 136.616554 
L 254.786727 127.420859 
L 253.028114 118.850131 
L 251.121432 110.928929 
L 249.054441 103.652876 
L 247.581343 99.149524 
L 246.027933 94.912593 
L 244.390584 90.930466 
L 242.665669 87.190595 
L 240.849564 83.679963 
L 238.938642 80.385425 
L 236.929278 77.293976 
L 234.817844 74.392933 
L 232.600716 71.670069 
L 230.274268 69.113698 
L 227.834872 66.71273 
L 225.278905 64.456697 
L 222.602738 62.335761 
L 219.802747 60.340712 
L 216.875306 58.462946 
L 213.816789 56.694447 
L 210.623569 55.027758 
L 205.57324 52.703603 
L 200.199435 50.571746 
L 194.489916 48.613165 
L 188.432446 46.810895 
L 182.014787 45.149808 
L 175.224701 43.616414 
L 168.04995 42.198677 
L 160.478298 40.885851 
L 149.744207 39.282161 
L 138.25375 37.828001 
L 125.977918 36.502859 
L 119.536421 36.027459 
L 119.536421 36.027459 
" clip-path="url(#p467bf72c9e)" style="fill: none; stroke: #7f7f7f; stroke-width: 1.4; stroke-linecap: square"/>
   </g>
   <g id="line2d_55">
    <path d="M 358.200225 43.767733 
L 353.622232 44.582334 
L 349.216311 45.655806 
L 340.905343 48.050446 
L 335.095282 50.013696 
L 329.633553 52.154379 
L 324.507213 54.492411 
L 321.269589 56.171675 
L 318.17144 57.955823 
L 315.20893 59.852713 
L 312.378225 61.870803 
L 309.67549 64.019188 
L 307.096891 66.307619 
L 304.638591 68.746521 
L 302.296756 71.346998 
L 300.067552 74.120824 
L 297.947143 77.08041 
L 295.931695 80.238735 
L 294.017372 83.609251 
L 292.200341 87.205722 
L 290.476764 91.042003 
L 288.842809 95.131738 
L 287.29464 99.487937 
L 285.828422 104.122446 
L 284.440321 109.045234 
L 282.496247 116.984708 
L 280.706364 125.594845 
L 279.057728 134.852025 
L 277.537397 144.689089 
L 275.687503 158.479113 
L 273.616803 176.036566 
L 270.72095 200.797945 
L 269.725223 207.463925 
L 269.078358 210.741198 
L 268.44058 212.871139 
L 268.123901 213.497839 
L 267.808056 213.84755 
L 267.492565 213.916937 
L 267.17695 213.705351 
L 266.860731 213.214848 
L 266.543427 212.450136 
L 265.903653 209.97611 
L 265.253793 206.449085 
L 264.251701 199.450264 
L 262.844483 187.681192 
L 259.231607 156.649936 
L 257.356753 142.940316 
L 255.815081 133.196614 
L 254.142858 124.048273 
L 252.32714 115.553835 
L 250.354986 107.730772 
L 248.946916 102.883885 
L 247.459732 98.322916 
L 245.889597 94.037329 
L 244.232679 90.014914 
L 242.485141 86.242447 
L 240.643148 82.706193 
L 238.702867 79.392295 
L 236.660462 76.28705 
L 234.512097 73.377117 
L 232.253939 70.649654 
L 229.882152 68.092413 
L 227.392901 65.693792 
L 224.782352 63.442862 
L 222.046669 61.329374 
L 219.182018 59.34375 
L 216.184564 57.477065 
L 213.050472 55.721017 
L 209.775906 54.067902 
L 204.592282 51.765743 
L 199.071023 49.657307 
L 193.199185 47.723073 
L 186.963825 45.945681 
L 180.352002 44.309686 
L 173.350772 42.801352 
L 165.947192 41.408449 
L 158.12832 40.120083 
L 147.034777 38.548234 
L 135.149247 37.096152 
L 128.8999 36.450078 
L 125.696904 36.228031 
L 122.441052 36.120554 
L 119.131867 36.159559 
L 119.131867 36.159559 
" clip-path="url(#p467bf72c9e)" style="fill: none; stroke: #bcbd22; stroke-width: 1.4; stroke-linecap: square"/>
   </g>
   <g id="line2d_56">
    <path d="M 356.666697 44.820684 
L 352.258558 45.65059 
L 348.013028 46.742666 
L 339.995155 49.172336 
L 334.381382 51.157276 
L 329.096429 53.314389 
L 324.127945 55.661689 
L 319.463581 58.219119 
L 316.516862 60.051584 
L 313.696159 61.994214 
L 310.997813 64.054481 
L 308.418164 66.240282 
L 305.953555 68.559925 
L 303.600325 71.022106 
L 301.354815 73.635857 
L 299.213367 76.410478 
L 297.17232 79.355441 
L 295.228015 82.480249 
L 293.376794 85.794255 
L 291.614997 89.306419 
L 289.938965 93.024998 
L 288.345039 96.957155 
L 286.829559 101.108467 
L 284.695423 107.753014 
L 282.717207 114.895965 
L 280.882564 122.514168 
L 279.179142 130.554927 
L 277.090691 141.768877 
L 274.73271 156.055638 
L 271.022681 178.988157 
L 269.892016 184.604365 
L 269.157015 187.494053 
L 268.432765 189.613623 
L 267.715607 190.835961 
L 267.358544 191.131668 
L 267.001882 191.213639 
L 266.645163 191.081234 
L 266.28793 190.735516 
L 265.929726 190.179235 
L 265.570092 189.400282 
L 265.208573 201.727436 
L 264.844709 191.451033 
L 264.478045 151.287933 
L 264.108122 125.171416 
L 263.734484 112.576224 
L 264.045984 113.003871 
L 263.686746 125.983374 
L 263.321701 151.071727 
L 262.950356 187.854128 
L 262.572221 194.005437 
L 262.186807 176.703977 
L 259.243856 153.427405 
L 257.326467 140.23888 
L 255.751893 130.821055 
L 254.045578 121.949685 
L 252.194276 113.690064 
L 250.184744 106.066175 
L 248.750609 101.335194 
L 247.236339 96.878451 
L 245.63801 92.686786 
L 243.951697 88.749212 
L 242.173476 85.053579 
L 240.299422 81.587095 
L 238.325613 78.336725 
L 236.248123 75.289485 
L 234.063028 72.432657 
L 231.766404 69.753944 
L 229.354327 67.241572 
L 226.822873 64.884351 
L 224.168116 62.671713 
L 221.386134 60.593726 
L 218.473002 58.641089 
L 215.424796 56.805117 
L 212.237591 55.077725 
L 208.907464 53.451397 
L 203.635708 51.186276 
L 198.020303 49.111532 
L 192.048004 47.208056 
L 185.705566 45.458833 
L 178.979746 43.848716 
L 171.857299 42.364219 
L 164.324982 40.993331 
L 156.369549 39.725346 
L 145.081235 38.17841 
L 132.985777 36.763869 
L 123.365611 35.855631 
L 120.051782 35.636364 
L 120.051782 35.636364 
" clip-path="url(#p467bf72c9e)" style="fill: none; stroke: #17becf; stroke-width: 1.4; stroke-linecap: square"/>
   </g>
   <g id="patch_3">
    <path d="M 73.56 242.2 
L 73.56 25.8 
" style="fill: none; stroke: #000000; stroke-width: 0.8; stroke-linejoin: miter; stroke-linecap: square"/>
   </g>
   <g id="patch_4">
    <path d="M 73.56 242.2 
L 421.2 242.2 
" style="fill: none; stroke: #000000; stroke-width: 0.8; stroke-linejoin: miter; stroke-linecap: square"/>
   </g>
   <g id="text_16">
    <text style="font-size: 12px; font-family: 'DejaVu Sans', 'Bitstream Vera Sans', 'Computer Modern Sans Serif', 'Lucida Grande', 'Verdana', 'Geneva', 'Lucid', 'Arial', 'Helvetica', 'Avant Garde', sans-serif; text-anchor: middle" x="247.38" y="19.8" transform="rotate(-0 247.38 19.8)">dQ/dE (cathodic)</text>
   </g>
  </g>
 </g>
 <defs>
  <clipPath id="p467bf72c9e">
   <rect x="73.56" y="25.8" width="347.64" height="216.4"/>
  </clipPath>
 </defs>
</svg>
