<?xml version="1.0" encoding="utf-8" standalone="no"?>
<!DOCTYPE svg PUBLIC "-//W3C//DTD SVG 1.1//EN"
  "http://www.w3.org/Graphics/SVG/1.1/DTD/svg11.dtd">
<svg xmlns:xlink="http://www.w3.org/1999/xlink" width="432pt" height="288pt" viewBox="0 0 432 288" xmlns="http://www.w3.org/2000/svg" version="1.1">
 <metadata>
  <rdf:RDF xmlns:dc="http://purl.org/dc/elements/1.1/" xmlns:cc="http://creativecommons.org/ns#" xmlns:rdf="http://www.w3.org/1999/02/22-rdf-syntax-ns#">
   <cc:Work>
    <dc:type rdf:resource="http://purl.org/dc/dcmitype/StillImage"/>
    <dc:date>2025-09-28T20:27:43.357345</dc:date>
    <dc:format>image/svg+xml</dc:format>
    <dc:creator>
     <cc:Agent>
      <dc:title>Matplotlib v3.9.0, https://matplotlib.org/</dc:title>
     </cc:Agent>
    </dc:creator>
   </cc:Work>
  </rdf:RDF>
 </metadata>
 <defs>
  <style type="text/css">*{stroke-linejoin: round; stroke-linecap: butt}</style>
 </defs>
 <g id="figure_1">
  <g id="patch_1">
   <path d="M 0 288 
L 432 288 
L 432 0 
L 0 0 
z
" style="fill: #ffffff"/>
  </g>
  <g id="axes_1">
   <g id="patch_2">
    <path d="M 59.9 244.6 
L 421.2 244.6 
L 421.2 25.8 
L 59.9 25.8 
z
" style="fill: #ffffff"/>
   </g>
   <g id="matplotlib.axis_1">
    <g id="xtick_1">
     <g id="line2d_1">
      <path d="M 71.524088 244.6 
L 71.524088 25.8 
" clip-path="url(#p8aa1c13cc6)" style="fill: none; stroke: #b0b0b0; stroke-opacity: 0.25; stroke-width: 0.8; stroke-linecap: square"/>
     </g>
     <g id="line2d_2">
      <defs>
       <path id="m55eea26099" d="M 0 0 
L 0 3.5 
" style="stroke: #000000; stroke-width: 0.8"/>
      </defs>
      <g>
       <use xlink:href="#m55eea26099" x="71.524088" y="244.6" style="stroke: #000000; stroke-width: 0.8"/>
      </g>
     </g>
     <g id="text_1">
      <text style="font: 10px 'DejaVu Sans', 'Bitstream Vera Sans', 'Computer Modern Sans Serif', 'Lucida Grande', 'Verdana', 'Geneva', 'Lucid', 'Arial', 'Helvetica', 'Avant Garde', sans-serif; text-anchor: middle" x="71.524088" y="259.198438" transform="rotate(-0 71.524088 259.198438)">2.6</text>
     </g>
    </g>
    <g id="xtick_2">
     <g id="line2d_3">
      <path d="M 112.397363 244.6 
L 112.397363 25.8 
" clip-path="url(#p8aa1c13cc6)" style="fill: none; stroke: #b0b0b0; stroke-opacity: 0.25; stroke-width: 0.8; stroke-linecap: square"/>
     </g>
     <g id="line2d_4">
      <g>
       <use xlink:href="#m55eea26099" x="112.397363" y="244.6" style="stroke: #000000; stroke-width: 0.8"/>
      </g>
     </g>
     <g id="text_2">
      <text style="font: 10px 'DejaVu Sans', 'Bitstream Vera Sans', 'Computer Modern Sans Serif', 'Lucida Grande', 'Verdana', 'Geneva', 'Lucid', 'Arial', 'Helvetica', 'Avant Garde', sans-serif; text-anchor: middle" x="112.397363" y="259.198438" transform="rotate(-0 112.397363 259.198438)">2.8</text>
     </g>
    </g>
    <g id="xtick_3">
     <g id="line2d_5">
      <path d="M 153.270637 244.6 
L 153.270637 25.8 
" clip-path="url(#p8aa1c13cc6)" style="fill: none; stroke: #b0b0b0; stroke-opacity: 0.25; stroke-width: 0.8; stroke-linecap: square"/>
     </g>
     <g id="line2d_6">
      <g>
       <use xlink:href="#m55eea26099" x="153.270637" y="244.6" style="stroke: #000000; stroke-width: 0.8"/>
      </g>
     </g>
     <g id="text_3">
      <text style="font: 10px 'DejaVu Sans', 'Bitstream Vera Sans', 'Computer Modern Sans Serif', 'Lucida Grande', 'Verdana', 'Geneva', 'Lucid', 'Arial', 'Helvetica', 'Avant Garde', sans-serif; text-anchor: middle" x="153.270637" y="259.198438" transform="rotate(-0 153.270637 259.198438)">3.0</text>
     </g>
    </g>
    <g id="xtick_4">
     <g id="line2d_7">
      <path d="M 194.143912 244.6 
L 194.143912 25.8 
" clip-path="url(#p8aa1c13cc6)" style="fill: none; stroke: #b0b0b0; stroke-opacity: 0.25; stroke-width: 0.8; stroke-linecap: square"/>
     </g>
     <g id="line2d_8">
      <g>
       <use xlink:href="#m55eea26099" x="194.143912" y="244.6" style="stroke: #000000; stroke-width: 0.8"/>
      </g>
     </g>
     <g id="text_4">
      <text style="font: 10px 'DejaVu Sans', 'Bitstream Vera Sans', 'Computer Modern Sans Serif', 'Lucida Grande', 'Verdana', 'Geneva', 'Lucid', 'Arial', 'Helvetica', 'Avant Garde', sans-serif; text-anchor: middle" x="194.143912" y="259.198438" transform="rotate(-0 194.143912 259.198438)">3.2</text>
     </g>
    </g>
    <g id="xtick_5">
     <g id="line2d_9">
      <path d="M 235.017186 244.6 
L 235.017186 25.8 
" clip-path="url(#p8aa1c13cc6)" style="fill: none; stroke: #b0b0b0; stroke-opacity: 0.25; stroke-width: 0.8; stroke-linecap: square"/>
     </g>
     <g id="line2d_10">
      <g>
       <use xlink:href="#m55eea26099" x="235.017186" y="244.6" style="stroke: #000000; stroke-width: 0.8"/>
      </g>
     </g>
     <g id="text_5">
      <text style="font: 10px 'DejaVu Sans', 'Bitstream Vera Sans', 'Computer Modern Sans Serif', 'Lucida Grande', 'Verdana', 'Geneva', 'Lucid', 'Arial', 'Helvetica', 'Avant Garde', sans-serif; text-anchor: middle" x="235.017186" y="259.198438" transform="rotate(-0 235.017186 259.198438)">3.4</text>
     </g>
    </g>
    <g id="xtick_6">
     <g id="line2d_11">
      <path d="M 275.890461 244.6 
L 275.890461 25.8 
" clip-path="url(#p8aa1c13cc6)" style="fill: none; stroke: #b0b0b0; stroke-opacity: 0.25; stroke-width: 0.8; stroke-linecap: square"/>
     </g>
     <g id="line2d_12">
      <g>
       <use xlink:href="#m55eea26099" x="275.890461" y="244.6" style="stroke: #000000; stroke-width: 0.8"/>
      </g>
     </g>
     <g id="text_6">
      <text style="font: 10px 'DejaVu Sans', 'Bitstream Vera Sans', 'Computer Modern Sans Serif', 'Lucida Grande', 'Verdana', 'Geneva', 'Lucid', 'Arial', 'Helvetica', 'Avant Garde', sans-serif; text-anchor: middle" x="275.890461" y="259.198438" transform="rotate(-0 275.890461 259.198438)">3.6</text>
     </g>
    </g>
    <g id="xtick_7">
     <g id="line2d_13">
      <path d="M 316.763735 244.6 
L 316.763735 25.8 
" clip-path="url(#p8aa1c13cc6)" style="fill: none; stroke: #b0b0b0; stroke-opacity: 0.25; stroke-width: 0.8; stroke-linecap: square"/>
     </g>
     <g id="line2d_14">
      <g>
       <use xlink:href="#m55eea26099" x="316.763735" y="244.6" style="stroke: #000000; stroke-width: 0.8"/>
      </g>
     </g>
     <g id="text_7">
      <text style="font: 10px 'DejaVu Sans', 'Bitstream Vera Sans', 'Computer Modern Sans Serif', 'Lucida Grande', 'Verdana', 'Geneva', 'Lucid', 'Arial', 'Helvetica', 'Avant Garde', sans-serif; text-anchor: middle" x="316.763735" y="259.198438" transform="rotate(-0 316.763735 259.198438)">3.8</text>
     </g>
    </g>
    <g id="xtick_8">
     <g id="line2d_15">
      <path d="M 357.637009 244.6 
L 357.637009 25.8 
" clip-path="url(#p8aa1c13cc6)" style="fill: none; stroke: #b0b0b0; stroke-opacity: 0.25; stroke-width: 0.8; stroke-linecap: square"/>
     </g>
     <g id="line2d_16">
      <g>
       <use xlink:href="#m55eea26099" x="357.637009" y="244.6" style="stroke: #000000; stroke-width: 0.8"/>
      </g>
     </g>
     <g id="text_8">
      <text style="font: 10px 'DejaVu Sans', 'Bitstream Vera Sans', 'Computer Modern Sans Serif', 'Lucida Grande', 'Verdana', 'Geneva', 'Lucid', 'Arial', 'Helvetica', 'Avant Garde', sans-serif; text-anchor: middle" x="357.637009" y="259.198438" transform="rotate(-0 357.637009 259.198438)">4.0</text>
     </g>
    </g>
    <g id="xtick_9">
     <g id="line2d_17">
      <path d="M 398.510284 244.6 
L 398.510284 25.8 
" clip-path="url(#p8aa1c13cc6)" style="fill: none; stroke: #b0b0b0; stroke-opacity: 0.25; stroke-width: 0.8; stroke-linecap: square"/>
     </g>
     <g id="line2d_18">
      <g>
       <use xlink:href="#m55eea26099" x="398.510284" y="244.6" style="stroke: #000000; stroke-width: 0.8"/>
      </g>
     </g>
     <g id="text_9">
      <text style="font: 10px 'DejaVu Sans', 'Bitstream Vera Sans', 'Computer Modern Sans Serif', 'Lucida Grande', 'Verdana', 'Geneva', 'Lucid', 'Arial', 'Helvetica', 'Avant Garde', sans-serif; text-anchor: middle" x="398.510284" y="259.198438" transform="rotate(-0 398.510284 259.198438)">4.2</text>
     </g>
    </g>
    <g id="text_10">
     <text style="font: 10px 'DejaVu Sans', 'Bitstream Vera Sans', 'Computer Modern Sans Serif', 'Lucida Grande', 'Verdana', 'Geneva', 'Lucid', 'Arial', 'Helvetica', 'Avant Garde', sans-serif; text-anchor: middle" x="240.55" y="272.876562" transform="rotate(-0 240.55 272.876562)">E (V)</text>
    </g>
   </g>
   <g id="matplotlib.axis_2">
    <g id="ytick_1">
     <g id="line2d_19">
      <path d="M 59.9 204.929357 
L 421.2 204.929357 
" clip-path="url(#p8aa1c13cc6)" style="fill: none; stroke: #b0b0b0; stroke-opacity: 0.25; stroke-width: 0.8; stroke-linecap: square"/>
     </g>
     <g id="line2d_20">
      <defs>
       <path id="m2fb1029231" d="M 0 0 
L -3.5 0 
" style="stroke: #000000; stroke-width: 0.8"/>
      </defs>
      <g>
       <use xlink:href="#m2fb1029231" x="59.9" y="204.929357" style="stroke: #000000; stroke-width: 0.8"/>
      </g>
     </g>
     <g id="text_11">
      <text style="font: 10px 'DejaVu Sans', 'Bitstream Vera Sans', 'Computer Modern Sans Serif', 'Lucida Grande', 'Verdana', 'Geneva', 'Lucid', 'Arial', 'Helvetica', 'Avant Garde', sans-serif; text-anchor: end" x="52.9" y="208.728576" transform="rotate(-0 52.9 208.728576)">−400</text>
     </g>
    </g>
    <g id="ytick_2">
     <g id="line2d_21">
      <path d="M 59.9 157.897138 
L 421.2 157.897138 
" clip-path="url(#p8aa1c13cc6)" style="fill: none; stroke: #b0b0b0; stroke-opacity: 0.25; stroke-width: 0.8; stroke-linecap: square"/>
     </g>
     <g id="line2d_22">
      <g>
       <use xlink:href="#m2fb1029231" x="59.9" y="157.897138" style="stroke: #000000; stroke-width: 0.8"/>
      </g>
     </g>
     <g id="text_12">
      <text style="font: 10px 'DejaVu Sans', 'Bitstream Vera Sans', 'Computer Modern Sans Serif', 'Lucida Grande', 'Verdana', 'Geneva', 'Lucid', 'Arial', 'Helvetica', 'Avant Garde', sans-serif; text-anchor: end" x="52.9" y="161.696357" transform="rotate(-0 52.9 161.696357)">−300</text>
     </g>
    </g>
    <g id="ytick_3">
     <g id="line2d_23">
      <path d="M 59.9 110.864918 
L 421.2 110.864918 
" clip-path="url(#p8aa1c13cc6)" style="fill: none; stroke: #b0b0b0; stroke-opacity: 0.25; stroke-width: 0.8; stroke-linecap: square"/>
     </g>
     <g id="line2d_24">
      <g>
       <use xlink:href="#m2fb1029231" x="59.9" y="110.864918" style="stroke: #000000; stroke-width: 0.8"/>
      </g>
     </g>
     <g id="text_13">
      <text style="font: 10px 'DejaVu Sans', 'Bitstream Vera Sans', 'Computer Modern Sans Serif', 'Lucida Grande', 'Verdana', 'Geneva', 'Lucid', 'Arial', 'Helvetica', 'Avant Garde', sans-serif; text-anchor: end" x="52.9" y="114.664137" transform="rotate(-0 52.9 114.664137)">−200</text>
     </g>
    </g>
    <g id="ytick_4">
     <g id="line2d_25">
      <path d="M 59.9 63.832698 
L 421.2 63.832698 
" clip-path="url(#p8aa1c13cc6)" style="fill: none; stroke: #b0b0b0; stroke-opacity: 0.25; stroke-width: 0.8; stroke-linecap: square"/>
     </g>
     <g id="line2d_26">
      <g>
       <use xlink:href="#m2fb1029231" x="59.9" y="63.832698" style="stroke: #000000; stroke-width: 0.8"/>
      </g>
     </g>
     <g id="text_14">
      <text style="font: 10px 'DejaVu Sans', 'Bitstream Vera Sans', 'Computer Modern Sans Serif', 'Lucida Grande', 'Verdana', 'Geneva', 'Lucid', 'Arial', 'Helvetica', 'Avant Garde', sans-serif; text-anchor: end" x="52.9" y="67.631917" transform="rotate(-0 52.9 67.631917)">−100</text>
     </g>
    </g>
    <g id="text_15">
     <text style="font: 10px 'DejaVu Sans', 'Bitstream Vera Sans', 'Computer Modern Sans Serif', 'Lucida Grande', 'Verdana', 'Geneva', 'Lucid', 'Arial', 'Helvetica', 'Avant Garde', sans-serif; text-anchor: middle" x="19.353125" y="135.2" transform="rotate(-90 19.353125 135.2)">dQ/dE (mAh g^-1 V^-1)</text>
    </g>
   </g>
   <g id="line2d_27">
    <path d="M 308.127843 84.847772 
L 306.401759 84.809821 
L 303.513291 84.438149 
L 298.851911 83.638949 
L 293.828236 82.543641 
L 288.101601 81.050521 
L 281.600467 79.117971 
L 272.914898 76.291255 
L 244.237084 66.785965 
L 234.125154 63.766023 
L 224.679756 61.170931 
L 215.142189 58.772862 
L 205.054898 56.467999 
L 194.378162 54.266844 
L 183.072265 52.175647 
L 171.097487 50.197257 
L 158.414109 48.331876 
L 144.982414 46.577717 
L 130.06522 44.855782 
L 113.495667 43.176972 
L 95.878734 41.61586 
L 80.498547 40.44205 
L 77.162237 40.388488 
L 76.322727 40.408017 
L 76.322727 40.408017 
" clip-path="url(#p8aa1c13cc6)" style="fill: none; stroke: #1f77b4; stroke-width: 1.4; stroke-linecap: square"/>
   </g>
   <g id="line2d_28">
    <path d="M 398.687496 59.954893 
L 393.344107 61.716893 
L 387.79706 63.772842 
L 382.494261 65.953672 
L 377.428483 68.271601 
L 372.5925 70.736312 
L 368.326225 73.150565 
L 364.243911 75.707084 
L 360.339872 78.4147 
L 356.608425 81.282558 
L 353.043886 84.320047 
L 349.64057 87.536701 
L 346.657641 90.650847 
L 343.80103 93.930803 
L 341.06636 97.383545 
L 338.217012 101.354897 
L 335.501888 105.5472 
L 332.915306 109.966636 
L 330.451581 114.617483 
L 328.105029 119.501493 
L 325.688566 125.053767 
L 323.39572 130.870384 
L 321.056461 137.413138 
L 318.689651 144.710543 
L 316.311924 152.761011 
L 313.667059 162.548174 
L 310.570094 174.930622 
L 305.02059 197.32498 
L 303.312296 203.233598 
L 301.960501 207.173375 
L 300.836233 209.810602 
L 299.926455 211.450489 
L 299.12329 212.493782 
L 298.423407 213.048461 
L 297.824752 213.284479 
L 297.226497 213.298454 
L 296.627932 213.090281 
L 296.028345 212.661511 
L 295.427026 211.99482 
L 294.621347 210.736603 
L 294.520247 210.552948 
L 294.317754 218.985869 
L 293.70767 203.912494 
L 293.195894 195.479714 
L 292.78397 191.314985 
L 292.473427 189.642681 
L 292.319168 189.176335 
L 292.113451 189.518929 
L 291.803474 190.988876 
L 291.387412 194.683939 
L 290.862598 201.98855 
L 290.438693 209.895032 
L 290.118259 199.648243 
L 287.920154 190.457629 
L 281.139631 161.529903 
L 278.617485 151.949958 
L 276.222889 143.681739 
L 273.83463 136.225722 
L 271.470177 129.570148 
L 269.149259 123.675356 
L 266.700029 118.067024 
L 264.318905 113.148111 
L 261.816307 108.476123 
L 259.186405 104.047187 
L 256.423371 99.85512 
L 253.768659 96.213784 
L 250.992691 92.757964 
L 248.090979 89.48018 
L 245.059031 86.372618 
L 241.89236 83.427305 
L 238.586475 80.636245 
L 234.816006 77.758086 
L 230.86869 75.044048 
L 226.738697 72.484411 
L 222.420198 70.06984 
L 217.907366 67.791427 
L 212.792404 65.466998 
L 207.435118 63.282299 
L 201.828097 61.227815 
L 195.501977 59.15073 
L 188.868374 57.204023 
L 181.409213 55.252093 
L 173.575064 53.428022 
L 164.792492 51.612084 
L 153.773147 49.582428 
L 148.32363 48.696755 
L 144.606818 48.293509 
L 141.457643 48.143327 
L 139.545333 48.155374 
L 139.545333 48.155374 
" clip-path="url(#p8aa1c13cc6)" style="fill: none; stroke: #ff7f0e; stroke-width: 1.4; stroke-linecap: square"/>
   </g>
   <g id="line2d_29">
    <path d="M 403.65034 69.714114 
L 398.928515 71.853869 
L 394.05253 74.32326 
L 389.386815 76.932014 
L 384.92468 79.69203 
L 380.95771 82.397779 
L 377.15515 85.24816 
L 373.511646 88.250009 
L 370.02184 91.410008 
L 366.680377 94.734542 
L 363.481899 98.229518 
L 360.421051 101.900139 
L 357.492477 105.750639 
L 354.690819 109.783961 
L 351.809442 114.333407 
L 349.062357 119.095142 
L 346.442873 124.064407 
L 343.770282 129.608394 
L 341.063237 135.752339 
L 338.338613 142.504769 
L 335.463846 150.25813 
L 332.338618 159.372813 
L 328.257408 172.051382 
L 323.441497 186.904711 
L 321.290633 192.815961 
L 319.639436 196.748031 
L 318.234888 199.541526 
L 317.061453 201.412555 
L 316.003746 202.696392 
L 315.162092 203.422005 
L 314.323095 203.85162 
L 313.485507 204.017719 
L 312.752793 203.946351 
L 312.019365 203.67321 
L 311.284388 203.191051 
L 310.441444 202.360402 
L 309.487854 201.117106 
L 308.41967 199.360346 
L 307.122518 196.762557 
L 305.582713 193.117054 
L 303.77985 188.245429 
L 301.327745 180.933251 
L 291.30046 150.283197 
L 288.426254 142.52925 
L 285.702179 135.776052 
L 282.99569 129.63123 
L 280.323655 124.086329 
L 277.512853 118.769007 
L 274.756979 114.021389 
L 271.866365 109.486244 
L 268.834322 105.164539 
L 265.886368 101.341078 
L 262.805343 97.696939 
L 259.585889 94.227726 
L 256.222651 90.928112 
L 252.710272 87.792108 
L 249.043395 84.813274 
L 245.216666 81.984894 
L 241.224726 79.300122 
L 236.734809 76.561556 
L 232.040386 73.973085 
L 227.134766 71.526405 
L 222.01126 69.213463 
L 216.272402 66.874918 
L 210.267511 64.671899 
L 203.559796 62.461667 
L 196.530047 60.385926 
L 188.696914 58.317465 
L 180.476984 56.380024 
L 171.33862 54.460757 
L 159.541637 52.243618 
L 154.510979 51.429855 
L 151.089848 51.064951 
L 148.197294 50.940544 
L 145.266587 51.027211 
L 145.266587 51.027211 
" clip-path="url(#p8aa1c13cc6)" style="fill: none; stroke: #2ca02c; stroke-width: 1.4; stroke-linecap: square"/>
   </g>
   <g id="line2d_30">
    <path d="M 404.431751 70.408047 
L 399.770007 72.551186 
L 394.953648 75.020619 
L 390.342508 77.627795 
L 385.930115 80.383905 
L 381.709997 83.297152 
L 377.957824 86.150228 
L 374.360679 89.152469 
L 370.91338 92.310262 
L 367.610745 95.62968 
L 364.447593 99.116309 
L 361.418742 102.775034 
L 358.519012 106.609777 
L 355.534684 110.939357 
L 352.687623 115.477307 
L 349.97136 120.222 
L 347.19887 125.529102 
L 344.561141 131.055756 
L 341.887132 137.171623 
L 339.193271 143.882876 
L 336.348069 151.576372 
L 333.251419 160.604894 
L 329.076539 173.533252 
L 324.529647 187.472675 
L 322.38556 193.360477 
L 320.739343 197.298444 
L 319.339074 200.117306 
L 318.169369 202.025633 
L 317.115235 203.355228 
L 316.172019 204.206716 
L 315.336538 204.658588 
L 314.50256 204.851894 
L 313.773114 204.80816 
L 312.9387 204.515298 
L 312.102319 203.957189 
L 311.262761 203.111085 
L 310.31296 201.858766 
L 309.14205 199.90597 
L 307.848625 197.279597 
L 306.313143 193.621754 
L 304.401376 188.435449 
L 301.832516 180.759233 
L 292.526989 152.362126 
L 289.545077 144.251978 
L 286.696515 137.141144 
L 283.849951 130.651482 
L 281.021587 124.780361 
L 278.229785 119.504775 
L 275.494501 114.790564 
L 272.62746 110.28354 
L 269.622188 105.98487 
L 266.70215 102.1785 
L 263.652164 98.547595 
L 260.467046 95.088062 
L 257.141617 91.794886 
L 253.670694 88.662392 
L 250.049097 85.684444 
L 246.271643 82.85462 
L 242.333152 80.166349 
L 237.905662 77.42201 
L 233.278926 74.825977 
L 228.446473 72.370213 
L 223.401831 70.046905 
L 217.75404 67.696079 
L 211.847276 65.479792 
L 205.252315 63.254552 
L 198.343984 61.163131 
L 190.649718 59.07748 
L 182.579195 57.122491 
L 173.610952 55.184427 
L 163.657555 53.274404 
L 154.876209 51.741771 
L 150.916845 51.310955 
L 147.465278 51.185506 
L 145.134311 51.263445 
L 145.134311 51.263445 
" clip-path="url(#p8aa1c13cc6)" style="fill: none; stroke: #d62728; stroke-width: 1.4; stroke-linecap: square"/>
   </g>
   <g id="line2d_31">
    <path d="M 404.777273 70.378431 
L 400.112736 72.515859 
L 395.293077 74.978648 
L 390.678374 77.578775 
L 386.262197 80.32744 
L 382.038116 83.232876 
L 378.282138 86.078416 
L 374.681101 89.072905 
L 371.229856 92.222808 
L 367.923256 95.534301 
L 364.756151 99.013104 
L 361.723393 102.664269 
L 358.819834 106.491931 
L 355.831508 110.814724 
L 352.980622 115.34715 
L 350.260744 120.08807 
L 347.484664 125.393747 
L 344.843686 130.922526 
L 342.166645 137.045716 
L 339.470121 143.772022 
L 336.622712 151.493519 
L 333.524652 160.572889 
L 329.475371 173.221224 
L 324.465492 188.789515 
L 322.337502 194.678636 
L 320.703264 198.607341 
L 319.3129 201.410725 
L 318.151257 203.300678 
L 317.104215 204.610219 
L 316.167201 205.437489 
L 315.3371 205.869396 
L 314.508384 206.040894 
L 313.783451 205.976119 
L 312.954098 205.657167 
L 312.122682 205.068595 
L 311.183378 204.066888 
L 310.132784 202.579409 
L 308.966008 200.503039 
L 307.676314 197.74836 
L 306.144193 193.951652 
L 304.235126 188.615139 
L 301.428027 180.023828 
L 293.638095 155.809825 
L 290.581249 147.196064 
L 287.79761 139.979514 
L 285.017037 133.375454 
L 282.254999 127.388255 
L 279.529146 121.999563 
L 276.663168 116.841632 
L 273.854855 112.242296 
L 270.911159 107.852551 
L 267.825648 103.671617 
L 264.827928 99.973628 
L 261.697238 96.449207 
L 258.428428 93.093519 
L 255.01635 89.901001 
L 251.455856 86.865581 
L 247.741798 83.980856 
L 243.869026 81.240244 
L 239.514948 78.442353 
L 234.9644 75.795618 
L 230.210951 73.291906 
L 225.248171 70.923301 
L 219.691308 68.52675 
L 213.878851 66.267499 
L 207.802892 64.136965 
L 201.02252 61.997119 
L 193.923744 59.985188 
L 186.021681 57.977943 
L 177.2384 55.988517 
L 168.013417 54.128382 
L 155.561423 51.876567 
L 151.619766 51.3513 
L 148.183678 51.106343 
L 145.279324 51.099813 
L 144.107087 51.157216 
L 144.107087 51.157216 
" clip-path="url(#p8aa1c13cc6)" style="fill: none; stroke: #9467bd; stroke-width: 1.4; stroke-linecap: square"/>
   </g>
   <g id="line2d_32">
    <path d="M 404.72335 70.697532 
L 400.085891 72.835304 
L 395.293074 75.297446 
L 390.70289 77.895679 
L 386.308992 80.641008 
L 382.105032 83.541446 
L 378.365879 86.38064 
L 374.779946 89.366923 
L 371.34215 92.506522 
L 368.047409 95.805361 
L 364.890642 99.268889 
L 361.866767 102.901874 
L 358.970702 106.708156 
L 355.988969 111.003999 
L 353.143225 115.505044 
L 350.427122 120.209804 
L 347.653664 125.471085 
L 345.013937 130.949338 
L 342.336833 137.011704 
L 339.638798 143.665616 
L 336.788119 151.297337 
L 333.684452 160.263044 
L 329.624551 172.741692 
L 324.711209 187.765205 
L 322.570477 193.626012 
L 320.818246 197.793337 
L 319.421572 200.572362 
L 318.254617 202.452898 
L 317.202806 203.762742 
L 316.261573 204.60139 
L 315.427799 205.046334 
L 314.595499 205.236654 
L 313.867514 205.193578 
L 313.034786 204.905196 
L 312.200127 204.35555 
L 311.362353 203.52211 
L 310.414659 202.28832 
L 309.246517 200.36386 
L 307.95642 197.774518 
L 306.425328 194.166182 
L 304.519799 189.045928 
L 301.960831 181.458535 
L 292.274014 152.077309 
L 289.286236 144.031949 
L 286.433188 136.981926 
L 283.583324 130.549165 
L 280.752889 124.729518 
L 277.960227 119.499439 
L 275.225221 114.824807 
L 272.359628 110.3543 
L 269.357102 106.088965 
L 266.211295 102.027241 
L 263.156345 98.43484 
L 259.967298 95.010835 
L 256.639071 91.750276 
L 253.166583 88.647585 
L 249.544751 85.696753 
L 245.768495 82.891499 
L 241.523228 80.025901 
L 237.086625 77.313636 
L 232.452337 74.746717 
L 227.614018 72.317311 
L 222.196482 69.858338 
L 216.529634 67.539487 
L 210.605667 65.352146 
L 203.994571 63.154725 
L 197.072575 61.088247 
L 189.366702 59.026242 
L 181.287792 57.092244 
L 172.314426 55.173813 
L 162.3601 53.278704 
L 154.699199 51.934991 
L 150.762713 51.473334 
L 147.331505 51.308553 
L 144.431537 51.387057 
L 144.431537 51.387057 
" clip-path="url(#p8aa1c13cc6)" style="fill: none; stroke: #8c564b; stroke-width: 1.4; stroke-linecap: square"/>
   </g>
   <g id="line2d_33">
    <path d="M 404.515941 71.181705 
L 399.918853 73.323338 
L 395.166389 75.788489 
L 390.613412 78.388214 
L 386.25367 81.133244 
L 382.080913 84.03127 
L 378.08889 87.089988 
L 374.538378 90.080735 
L 371.133309 93.222416 
L 367.868677 96.520522 
L 364.739477 99.98002 
L 361.740705 103.605139 
L 358.651381 107.698034 
L 355.701267 111.989139 
L 352.884112 116.478617 
L 350.006173 121.505847 
L 347.266002 126.750056 
L 344.486341 132.567975 
L 341.68468 138.975743 
L 338.876407 145.967986 
L 335.931067 153.904285 
L 332.481476 163.882101 
L 323.564007 190.113933 
L 321.667621 194.762854 
L 320.139893 197.951424 
L 318.849764 200.165188 
L 317.679282 201.738315 
L 316.622652 202.774168 
L 315.780865 203.298431 
L 314.940943 203.570355 
L 314.101719 203.594684 
L 313.262026 203.371207 
L 312.420698 202.899204 
L 311.576568 202.151315 
L 310.622122 201.01816 
L 309.553716 199.406791 
L 308.257532 197.010358 
L 306.831659 193.889917 
L 305.038574 189.387692 
L 302.724599 182.909324 
L 298.811453 171.159221 
L 293.877208 156.530608 
L 290.690202 147.770037 
L 287.7628 140.347807 
L 284.992596 133.895847 
L 282.244689 128.029239 
L 279.536179 122.735106 
L 276.691731 117.655343 
L 273.907485 113.115569 
L 270.991874 108.773786 
L 267.938647 104.630488 
L 264.741553 100.683807 
L 261.63854 97.191868 
L 258.401084 93.862222 
L 255.02418 90.690031 
L 251.502824 87.669893 
L 247.83201 84.796019 
L 243.70594 81.857737 
L 239.39448 79.074418 
L 234.891379 76.438359 
L 230.190385 73.941935 
L 225.285248 71.577683 
L 219.796105 69.182997 
L 214.05775 66.923141 
L 207.653489 64.65201 
L 200.9476 62.515517 
L 193.481664 60.383064 
L 185.653494 58.382539 
L 176.957583 56.39776 
L 167.829736 54.540122 
L 156.067522 52.385573 
L 152.181593 51.887946 
L 148.794658 51.681006 
L 145.932253 51.716706 
L 145.355385 51.75043 
L 145.355385 51.75043 
" clip-path="url(#p8aa1c13cc6)" style="fill: none; stroke: #e377c2; stroke-width: 1.4; stroke-linecap: square"/>
   </g>
   <g id="line2d_34">
    <path d="M 404.617602 70.950432 
L 400.001339 73.092493 
L 395.229903 75.558938 
L 390.659636 78.160961 
L 386.284229 80.909444 
L 382.09737 83.812252 
L 378.372887 86.652795 
L 374.800486 89.639443 
L 371.375115 92.778247 
L 368.091724 96.074926 
L 364.945259 99.534704 
L 361.930668 103.162096 
L 358.825872 107.260026 
L 355.861849 111.55927 
L 353.032291 116.060451 
L 350.330887 120.761427 
L 347.571568 126.013474 
L 344.77372 131.847431 
L 342.116766 137.89774 
L 339.284377 144.920746 
L 336.316125 152.91418 
L 332.977634 162.600496 
L 326.909954 181.131482 
L 324.003611 189.526594 
L 321.991734 194.674216 
L 320.463858 198.027813 
L 319.1747 200.385701 
L 318.005965 202.090716 
L 316.951609 203.243594 
L 316.112098 203.866908 
L 315.274845 204.22417 
L 314.438671 204.3297 
L 313.6024 204.182568 
L 312.764854 203.784069 
L 311.924855 203.113191 
L 310.97546 202.047596 
L 309.913149 200.504153 
L 308.732922 198.387895 
L 307.318261 195.363422 
L 305.652962 191.243525 
L 303.481195 185.208517 
L 300.246016 175.461609 
L 294.073236 156.82204 
L 290.891801 147.973183 
L 287.968052 140.481454 
L 285.200077 133.973453 
L 282.453275 128.059663 
L 279.744846 122.726186 
L 276.89948 117.611667 
L 274.113412 113.043392 
L 271.194987 108.67667 
L 268.137895 104.511733 
L 264.935826 100.546441 
L 261.827147 97.039692 
L 258.582969 93.697395 
L 255.198241 90.514505 
L 251.66791 87.485424 
L 247.986924 84.604181 
L 243.848507 81.659526 
L 239.523196 78.871266 
L 235.004683 76.231521 
L 230.286656 73.732507 
L 225.362806 71.366616 
L 219.851683 68.971086 
L 214.089279 66.711194 
L 207.657003 64.440776 
L 200.920575 62.305647 
L 193.419326 60.17523 
L 185.552788 58.177235 
L 176.812805 56.195563 
L 167.637217 54.341377 
L 155.811485 52.186868 
L 151.904121 51.661245 
L 148.498332 51.416496 
L 145.619871 51.410625 
L 144.458158 51.468438 
L 144.458158 51.468438 
" clip-path="url(#p8aa1c13cc6)" style="fill: none; stroke: #7f7f7f; stroke-width: 1.4; stroke-linecap: square"/>
   </g>
   <g id="line2d_35">
    <path d="M 404.103062 71.940472 
L 399.568534 74.091895 
L 394.878943 76.566212 
L 390.384293 79.173131 
L 386.078456 81.922982 
L 381.955306 84.822979 
L 378.008713 87.88027 
L 374.232552 91.101807 
L 370.620694 94.494172 
L 367.167012 98.063369 
L 363.865378 101.814563 
L 360.709665 105.751771 
L 357.693746 109.877482 
L 354.811492 114.192223 
L 351.86473 119.022649 
L 349.05684 124.061465 
L 346.206334 129.653082 
L 343.331172 135.815972 
L 340.447306 142.54995 
L 337.420979 150.210735 
L 334.149844 159.111182 
L 329.165662 173.432298 
L 325.297082 184.277395 
L 323.110177 189.789881 
L 321.318216 193.717314 
L 319.888933 196.347138 
L 318.586252 198.280443 
L 317.510035 199.504556 
L 316.546734 200.293827 
L 315.69331 200.719234 
L 314.841373 200.908561 
L 313.989777 200.861212 
L 313.137381 200.577587 
L 312.283041 200.051132 
L 311.318162 199.152123 
L 310.23951 197.81341 
L 309.042435 195.940083 
L 307.831416 193.67283 
L 307.609501 200.376536 
L 306.940221 188.794951 
L 306.265265 180.781814 
L 305.698118 176.710278 
L 305.355661 175.362807 
L 305.04402 174.803674 
L 304.816119 175.041748 
L 304.472708 176.030359 
L 304.011818 178.498974 
L 303.430663 183.374641 
L 302.843638 190.165128 
L 302.488485 181.842745 
L 297.510965 166.733908 
L 293.423432 154.717759 
L 290.344073 146.329021 
L 287.382844 138.904444 
L 284.57892 132.465461 
L 281.796202 126.621493 
L 279.052269 121.35584 
L 276.16963 116.309993 
L 273.347177 111.805578 
L 270.390827 107.501754 
L 267.294271 103.3982 
L 264.051201 99.492364 
L 260.903074 96.03884 
L 257.618125 92.747691 
L 254.191302 89.613772 
L 250.617555 86.631431 
L 246.891832 83.794681 
L 242.70376 80.89545 
L 238.327266 78.150079 
L 233.756041 75.550758 
L 228.983775 73.089794 
L 223.640373 70.598056 
L 218.051184 68.247606 
L 212.208448 66.029884 
L 205.687988 63.801429 
L 198.860803 61.705339 
L 191.260305 59.613419 
L 183.291616 57.651065 
L 174.440312 55.70426 
L 164.620898 53.784464 
L 153.179987 51.788083 
L 149.225649 51.370858 
L 145.779207 51.247051 
L 144.618607 51.265459 
L 144.618607 51.265459 
" clip-path="url(#p8aa1c13cc6)" style="fill: none; stroke: #bcbd22; stroke-width: 1.4; stroke-linecap: square"/>
   </g>
   <g id="line2d_36">
    <path d="M 404.507697 71.018459 
L 399.897211 73.166935 
L 395.132079 75.640857 
L 390.568176 78.250844 
L 386.199168 81.007793 
L 382.018721 83.919565 
L 378.300178 86.768866 
L 374.733686 89.764667 
L 371.314174 92.91298 
L 368.03657 96.219473 
L 364.895801 99.689294 
L 361.886796 103.326863 
L 358.787869 107.435753 
L 355.82954 111.745757 
L 353.005475 116.257241 
L 350.309338 120.967737 
L 347.555385 126.228669 
L 344.762911 132.069955 
L 341.949633 138.509307 
L 339.131141 145.542994 
L 336.176744 153.53512 
L 332.852576 163.195795 
L 323.453848 191.003412 
L 321.676169 195.324516 
L 320.15289 198.465298 
L 318.866092 200.623754 
L 317.80402 202.016542 
L 316.854089 202.943812 
L 316.013013 203.474592 
L 315.173818 203.749321 
L 314.335323 203.772431 
L 313.496345 203.543718 
L 312.655701 203.062493 
L 311.812212 202.301606 
L 310.858411 201.149808 
L 309.790606 199.512822 
L 308.494938 197.079729 
L 307.069314 193.913568 
L 305.275994 189.348821 
L 302.960711 182.786982 
L 298.787515 170.123152 
L 294.237322 156.544265 
L 291.049527 147.714743 
L 288.119953 140.237715 
L 285.346452 133.741548 
L 282.594135 127.837932 
L 279.880226 122.513269 
L 277.029051 117.406961 
L 274.237237 112.845876 
L 271.312727 108.485943 
L 268.249187 104.327439 
L 265.040281 100.368264 
L 261.924886 96.866939 
L 258.673616 93.529841 
L 255.2814 90.351943 
L 251.743166 87.327661 
L 248.053843 84.451037 
L 243.905938 81.511167 
L 239.570589 78.727508 
L 235.041459 76.092189 
L 230.312215 73.597434 
L 225.376523 71.235645 
L 219.851989 68.84434 
L 214.075397 66.588508 
L 207.627096 64.322246 
L 200.873689 62.191099 
L 193.353311 60.064734 
L 185.466479 58.070611 
L 176.70369 56.092855 
L 167.503889 54.242404 
L 155.646577 52.092163 
L 151.728691 51.56714 
L 148.313698 51.322267 
L 145.427435 51.315717 
L 144.262567 51.373089 
L 144.262567 51.373089 
" clip-path="url(#p8aa1c13cc6)" style="fill: none; stroke: #17becf; stroke-width: 1.4; stroke-linecap: square"/>
   </g>
   <g id="line2d_37">
    <path d="M 375.655248 59.277941 
L 372.602338 60.167839 
L 369.626117 61.244047 
L 363.898775 63.641764 
L 358.463287 66.181047 
L 354.572224 68.207801 
L 350.83555 70.346645 
L 347.249074 72.604501 
L 343.808605 74.988638 
L 340.509953 77.506655 
L 337.348925 80.166458 
L 334.321331 82.976216 
L 331.422981 85.944308 
L 328.649682 89.079241 
L 325.997244 92.389543 
L 323.461477 95.883628 
L 321.038188 99.569616 
L 318.723187 103.455108 
L 316.512284 107.546906 
L 314.401286 111.850669 
L 312.386003 116.370498 
L 309.840606 122.736204 
L 307.447983 129.486594 
L 305.198202 136.607617 
L 303.081327 144.070561 
L 301.087425 151.8283 
L 298.752843 161.831858 
L 296.157166 174.021387 
L 289.738859 205.115668 
L 288.371104 210.490499 
L 287.367857 213.755351 
L 286.379299 216.278122 
L 285.726352 217.524915 
L 285.076828 218.37234 
L 284.429486 218.83519 
L 283.783085 218.930074 
L 283.136383 218.655847 
L 282.488137 218.015807 
L 281.837107 216.961184 
L 281.182049 215.546789 
L 280.189197 212.776305 
L 279.180299 209.286881 
L 277.8029 203.655057 
L 276.015426 195.342508 
L 268.686678 159.869355 
L 266.319322 149.920736 
L 264.296488 142.22905 
L 262.148271 134.845505 
L 259.864736 127.812401 
L 257.43595 121.154557 
L 254.851977 114.882991 
L 252.806181 110.433415 
L 250.663314 106.198779 
L 248.419184 102.174427 
L 246.069601 98.354289 
L 243.610374 94.731269 
L 241.037312 91.29757 
L 238.346224 88.044956 
L 235.532919 84.964957 
L 232.593205 82.049038 
L 229.522893 79.288724 
L 226.31779 76.675697 
L 222.973706 74.201865 
L 219.48645 71.859421 
L 215.85183 69.640867 
L 212.065657 67.539048 
L 208.123738 65.547153 
L 202.618332 63.05118 
L 196.818662 60.724859 
L 190.714791 58.554935 
L 184.296787 56.529188 
L 177.554715 54.636378 
L 170.478641 52.86618 
L 163.058631 51.209125 
L 153.284823 49.243833 
L 149.216135 48.645746 
L 147.147064 48.474592 
L 145.054634 48.418506 
L 142.93869 48.49984 
L 142.93869 48.49984 
" clip-path="url(#p8aa1c13cc6)" style="fill: none; stroke: #1f77b4; stroke-width: 1.4; stroke-linecap: square"/>
   </g>
   <g id="line2d_38">
    <path d="M 376.077304 61.808554 
L 373.19483 62.707352 
L 370.381435 63.792045 
L 364.957438 66.200661 
L 359.796419 68.738557 
L 354.889488 71.449537 
L 350.227751 74.346218 
L 346.887008 76.64851 
L 343.675434 79.068404 
L 340.589278 81.611745 
L 337.624787 84.284427 
L 334.778212 87.09233 
L 332.0458 90.041234 
L 329.423799 93.136708 
L 326.90846 96.383983 
L 324.496029 99.787785 
L 322.182757 103.352146 
L 319.246155 108.35958 
L 316.470273 113.661717 
L 313.846218 119.257259 
L 311.365098 125.138094 
L 309.018021 131.287413 
L 306.796095 137.677613 
L 304.181135 145.940826 
L 301.730462 154.402668 
L 298.542453 166.277872 
L 292.839697 187.804026 
L 290.963352 193.85266 
L 289.503868 197.747062 
L 288.427681 200.029771 
L 287.36312 201.714365 
L 286.658019 202.487579 
L 285.955307 202.972142 
L 285.253871 203.163489 
L 284.552601 203.05981 
L 283.850384 202.662087 
L 283.146109 201.974072 
L 282.792853 201.523115 
L 282.438666 213.576073 
L 282.083408 209.766514 
L 281.369126 159.087134 
L 281.009824 145.102469 
L 280.648896 138.677578 
L 280.948411 139.587047 
L 280.604518 147.571836 
L 280.258225 162.380416 
L 279.55782 211.501683 
L 279.203401 213.566774 
L 278.845965 199.019032 
L 274.670998 178.871676 
L 271.276573 162.971757 
L 268.961868 153.087644 
L 266.475442 143.501358 
L 264.34972 136.14339 
L 262.09191 129.114645 
L 259.69215 122.444489 
L 257.140579 116.147886 
L 255.121342 111.673209 
L 253.007004 107.409388 
L 250.793405 103.352783 
L 248.476385 99.498179 
L 246.051783 95.839198 
L 243.515439 92.368638 
L 240.863193 89.078748 
L 238.090885 85.961454 
L 235.194354 83.008536 
L 232.169441 80.211768 
L 229.011985 77.563024 
L 225.717825 75.054362 
L 222.282802 72.678079 
L 218.702755 70.426757 
L 214.973525 68.293287 
L 211.09095 66.270892 
L 205.668459 63.736057 
L 199.956098 61.372931 
L 193.944007 59.168221 
L 187.622325 57.109649 
L 180.98119 55.1859 
L 174.010741 53.386568 
L 166.701117 51.702092 
L 157.072099 49.744724 
L 148.963275 48.262276 
L 144.77027 47.694764 
L 142.638581 47.493268 
L 142.638581 47.493268 
" clip-path="url(#p8aa1c13cc6)" style="fill: none; stroke: #ff7f0e; stroke-width: 1.4; stroke-linecap: square"/>
   </g>
   <g id="line2d_39">
    <path d="M 375.303516 63.707163 
L 372.537147 64.614989 
L 369.835057 65.709037 
L 364.619574 68.133041 
L 359.64878 70.67847 
L 354.914393 73.387817 
L 350.408127 76.271748 
L 346.121698 79.34118 
L 342.046821 82.607124 
L 338.175212 86.080475 
L 334.498586 89.771718 
L 331.008658 93.690559 
L 327.697145 97.845444 
L 324.555761 102.242951 
L 321.576223 106.887045 
L 318.750245 111.778169 
L 316.069544 116.912167 
L 313.525834 122.279037 
L 311.110831 127.861528 
L 308.26045 135.102277 
L 305.582049 142.564682 
L 302.572199 151.66433 
L 298.416916 165.083591 
L 294.609146 177.229514 
L 292.609143 182.942054 
L 291.054521 186.777255 
L 289.909591 189.151938 
L 288.778807 191.051022 
L 287.658676 192.440837 
L 286.916114 193.071555 
L 286.175697 193.459257 
L 285.436391 193.600709 
L 284.697158 193.494728 
L 283.956964 193.142201 
L 283.214773 192.546069 
L 282.842605 203.908459 
L 282.46955 200.463136 
L 281.720258 153.317452 
L 281.343763 140.361829 
L 280.965863 134.384404 
L 281.291243 135.328166 
L 280.932215 142.940114 
L 280.571007 156.974158 
L 279.841468 203.360096 
L 279.472846 205.554091 
L 279.10146 192.197251 
L 277.969266 187.764035 
L 274.792142 174.772382 
L 270.868908 158.802272 
L 267.997833 148.081583 
L 265.422344 139.381417 
L 263.229095 132.667611 
L 260.90764 126.22157 
L 258.448645 120.072444 
L 255.842778 114.237209 
L 253.080705 108.723148 
L 250.901027 104.798484 
L 248.624297 101.052264 
L 246.246577 97.480888 
L 243.76393 94.079698 
L 241.172418 90.843257 
L 238.468105 87.765576 
L 235.647053 84.840301 
L 232.705325 82.060867 
L 229.638984 79.42062 
L 226.444092 76.912917 
L 223.116711 74.531196 
L 219.652906 72.269037 
L 216.048737 70.120207 
L 211.018032 67.421017 
L 205.721461 64.899016 
L 200.149691 62.541394 
L 194.293389 60.336152 
L 188.143222 58.272108 
L 181.689858 56.338872 
L 174.923963 54.526814 
L 167.836205 52.827029 
L 158.509669 50.821391 
L 152.657768 49.749592 
L 148.647411 49.264267 
L 148.647411 49.264267 
" clip-path="url(#p8aa1c13cc6)" style="fill: none; stroke: #2ca02c; stroke-width: 1.4; stroke-linecap: square"/>
   </g>
   <g id="line2d_40">
    <path d="M 377.909259 59.739812 
L 374.890952 60.637816 
L 371.948253 61.723509 
L 366.284734 64.141196 
L 360.908806 66.699666 
L 357.059637 68.740237 
L 353.362497 70.892161 
L 349.813209 73.162091 
L 346.407599 75.556974 
L 343.141492 78.084026 
L 340.010711 80.750697 
L 337.011084 83.564619 
L 334.138433 86.533536 
L 331.388585 89.665211 
L 328.757364 92.967301 
L 326.240595 96.44721 
L 323.834102 100.111882 
L 321.533712 103.967572 
L 319.335248 108.019536 
L 317.234535 112.271683 
L 315.2274 116.726144 
L 312.689566 122.97948 
L 310.300771 129.583337 
L 308.051119 136.517295 
L 305.930714 143.745895 
L 303.446883 153.111881 
L 301.130206 162.698671 
L 297.722961 177.936297 
L 293.875462 195.091476 
L 292.078739 202.020382 
L 290.684704 206.419868 
L 289.657967 208.93764 
L 288.642697 210.728151 
L 287.970158 211.453014 
L 287.299623 211.827794 
L 286.629855 211.868566 
L 285.959615 211.574858 
L 285.287668 210.938731 
L 284.612776 209.908577 
L 283.933703 208.548631 
L 282.904545 205.907558 
L 281.859019 202.600216 
L 280.432308 197.280714 
L 278.582486 189.443058 
L 270.550906 154.013408 
L 268.083894 144.618401 
L 265.978274 137.357595 
L 263.744592 130.386087 
L 261.372949 123.741352 
L 258.853449 117.445427 
L 256.176197 111.508121 
L 254.058779 107.291028 
L 251.842884 103.273569 
L 249.524335 99.451569 
L 247.098958 95.819572 
L 244.562578 92.371183 
L 241.911019 89.099358 
L 239.140107 85.996638 
L 236.245667 83.055334 
L 233.223523 80.267678 
L 230.0695 77.625938 
L 226.779424 75.122509 
L 223.349118 72.749979 
L 219.774409 70.501174 
L 216.051121 68.369197 
L 212.175078 66.347446 
L 206.762187 63.812413 
L 201.060415 61.448144 
L 195.059864 59.241586 
L 188.750638 57.180647 
L 182.122841 55.254162 
L 175.166576 53.451842 
L 167.871946 51.764221 
L 158.262757 49.75631 
L 154.262387 49.052618 
L 150.170623 48.61348 
L 148.090081 48.555225 
L 145.986226 48.634394 
L 145.986226 48.634394 
" clip-path="url(#p8aa1c13cc6)" style="fill: none; stroke: #d62728; stroke-width: 1.4; stroke-linecap: square"/>
   </g>
   <g id="line2d_41">
    <path d="M 377.001654 61.5916 
L 374.10639 62.501214 
L 371.281631 63.599452 
L 365.839 66.039808 
L 360.664516 68.61372 
L 355.748932 71.365845 
L 351.083003 74.3093 
L 347.74183 76.650669 
L 344.531986 79.1133 
L 341.44957 81.703235 
L 338.490683 84.42655 
L 335.651423 87.289277 
L 332.92789 90.297309 
L 330.316183 93.456272 
L 327.812402 96.771381 
L 325.412646 100.24725 
L 323.113014 103.887678 
L 320.909606 107.69538 
L 318.114669 113.034571 
L 315.474615 118.671429 
L 312.9802 124.596797 
L 310.622178 130.792213 
L 308.391302 137.227672 
L 305.767421 145.541179 
L 302.836508 155.745775 
L 299.246892 169.232683 
L 295.167357 184.492157 
L 293.255841 190.781637 
L 291.771719 194.892383 
L 290.678863 197.345489 
L 289.599019 199.202862 
L 288.884424 200.098822 
L 288.172723 200.660037 
L 287.462759 200.933728 
L 286.753377 200.934598 
L 286.043421 200.662638 
L 285.331736 200.10332 
L 284.617165 199.209121 
L 283.53737 197.354239 
L 282.444583 194.903433 
L 281.334901 191.906142 
L 279.822304 187.160276 
L 277.865487 180.238231 
L 272.766453 160.87746 
L 269.452632 148.945971 
L 266.89784 140.541343 
L 264.1661 132.398103 
L 261.841171 126.138456 
L 259.382193 120.142457 
L 256.779918 114.431272 
L 254.025103 109.016213 
L 251.1085 103.900817 
L 248.809314 100.259647 
L 246.41002 96.783055 
L 243.906719 93.467248 
L 241.295511 90.307613 
L 238.572493 87.298937 
L 235.733767 84.435594 
L 232.775431 81.711693 
L 229.693584 79.121201 
L 226.484327 76.658042 
L 223.143758 74.316174 
L 219.667976 72.089649 
L 214.816529 69.290359 
L 209.708525 66.672546 
L 204.334717 64.223582 
L 198.68586 61.931542 
L 192.752708 59.785224 
L 186.526015 57.774157 
L 179.996535 55.888587 
L 173.155022 54.119453 
L 164.150249 52.010533 
L 160.403736 51.268503 
L 156.572858 50.80327 
L 154.62542 50.739804 
L 152.656459 50.820581 
L 152.656459 50.820581 
" clip-path="url(#p8aa1c13cc6)" style="fill: none; stroke: #9467bd; stroke-width: 1.4; stroke-linecap: square"/>
   </g>
   <g id="line2d_42">
    <path d="M 376.006949 63.786674 
L 373.24551 64.706066 
L 370.548926 65.814274 
L 365.346071 68.270356 
L 360.389873 70.850485 
L 355.671822 73.597692 
L 351.183407 76.522737 
L 346.916116 79.636569 
L 342.86144 82.95015 
L 339.010866 86.474209 
L 335.355885 90.218913 
L 331.887985 94.193449 
L 328.598656 98.405485 
L 325.479387 102.860499 
L 322.521667 107.560955 
L 319.716984 112.505306 
L 317.056829 117.686838 
L 314.532691 123.092328 
L 312.136057 128.70058 
L 309.306605 135.94819 
L 306.646459 143.379089 
L 303.654363 152.37279 
L 295.303529 178.094306 
L 293.704053 182.203558 
L 292.140591 185.59498 
L 290.986509 187.605683 
L 289.844307 189.119418 
L 289.087666 189.83844 
L 288.333645 190.318119 
L 287.581181 190.554427 
L 286.829209 190.545371 
L 286.076666 190.291025 
L 285.322488 189.793538 
L 284.944453 189.454844 
L 284.565611 200.573231 
L 284.185828 197.176842 
L 283.422908 150.912927 
L 283.039505 138.232549 
L 282.654629 132.41823 
L 282.991308 133.399112 
L 282.626354 140.917212 
L 282.259119 154.72167 
L 281.517207 200.223266 
L 281.142228 202.34609 
L 280.764366 189.189564 
L 279.221071 183.202776 
L 274.647945 164.69966 
L 271.416838 152.205821 
L 268.921403 143.380712 
L 266.248359 134.825749 
L 263.969382 128.252771 
L 261.555026 121.962876 
L 258.995642 115.979987 
L 256.281583 110.316698 
L 254.138728 106.281481 
L 251.89937 102.427269 
L 249.559438 98.751372 
L 247.114863 95.249791 
L 244.561572 91.917535 
L 241.895497 88.748892 
L 239.112566 85.737652 
L 236.208709 82.877284 
L 233.179856 80.16109 
L 230.021936 77.582316 
L 226.730878 75.134249 
L 223.302611 72.810282 
L 219.733067 70.603975 
L 216.018173 68.509088 
L 210.831848 65.878873 
L 205.370239 63.422529 
L 199.623699 61.127327 
L 193.582578 58.981374 
L 187.237228 56.973604 
L 180.578001 55.093753 
L 173.595247 53.332322 
L 166.279319 51.68054 
L 156.651183 49.731992 
L 152.645722 49.132837 
L 150.609344 48.916753 
L 150.609344 48.916753 
" clip-path="url(#p8aa1c13cc6)" style="fill: none; stroke: #8c564b; stroke-width: 1.4; stroke-linecap: square"/>
   </g>
   <g id="line2d_43">
    <path d="M 374.9004 66.434556 
L 372.285398 67.360111 
L 369.728966 68.473462 
L 364.787972 70.933017 
L 360.069744 73.504109 
L 355.566606 76.227711 
L 351.270881 79.111911 
L 347.174893 82.164626 
L 343.270968 85.393396 
L 339.551429 88.805124 
L 336.008601 92.405747 
L 332.634807 96.199833 
L 329.422373 100.190094 
L 326.363621 104.376798 
L 323.450877 108.757092 
L 320.676465 113.324213 
L 318.032708 118.066612 
L 314.900054 124.214155 
L 311.944564 130.559334 
L 308.610726 138.337174 
L 304.981842 147.431146 
L 297.527757 166.419443 
L 295.379407 171.207307 
L 293.704811 174.438853 
L 292.469543 176.459997 
L 291.248402 178.102785 
L 290.038149 179.342225 
L 288.835546 180.158948 
L 288.036462 180.461885 
L 287.23838 180.568854 
L 286.440339 180.479086 
L 285.641381 180.193227 
L 285.241258 179.977349 
L 284.840546 190.303683 
L 284.439125 187.299054 
L 283.633675 144.916965 
L 283.229407 133.472021 
L 282.82395 128.38497 
L 283.192709 129.552391 
L 282.809337 136.725442 
L 282.423972 149.661703 
L 281.646707 191.887717 
L 281.254527 193.956754 
L 280.859798 181.881231 
L 279.658919 178.230862 
L 277.169526 170.218247 
L 269.755739 145.736132 
L 267.141865 137.94767 
L 264.356374 130.355525 
L 261.992725 124.48764 
L 259.499198 118.84019 
L 256.866884 113.436139 
L 254.086876 108.289436 
L 251.150266 103.406742 
L 248.048146 98.788983 
L 244.771607 94.432696 
L 242.194382 91.333126 
L 239.510277 88.373178 
L 236.715536 85.548581 
L 233.806399 82.854672 
L 230.779109 80.286525 
L 227.629907 77.839056 
L 223.234835 74.754569 
L 218.607443 71.863241 
L 213.738822 69.15307 
L 208.620064 66.612411 
L 203.242261 64.230093 
L 197.596506 61.99548 
L 191.673889 59.898515 
L 185.465504 57.929737 
L 178.962441 56.080279 
L 172.155793 54.341859 
L 163.206996 52.286363 
L 159.486864 51.651624 
L 157.59611 51.42136 
L 157.59611 51.42136 
" clip-path="url(#p8aa1c13cc6)" style="fill: none; stroke: #e377c2; stroke-width: 1.4; stroke-linecap: square"/>
   </g>
   <g id="line2d_44">
    <path d="M 377.232741 62.334889 
L 374.384693 63.258594 
L 371.605915 64.373503 
L 366.251553 66.849649 
L 361.160426 69.459164 
L 356.323302 72.246765 
L 351.730951 75.224979 
L 348.441767 77.591498 
L 345.281183 80.078055 
L 342.245303 82.690215 
L 339.330234 85.433488 
L 336.532082 88.313238 
L 333.846953 91.334571 
L 331.270952 94.502193 
L 328.800186 97.820249 
L 326.430761 101.292121 
L 323.422438 106.164491 
L 320.578122 111.316369 
L 317.888585 116.7443 
L 315.344595 122.437787 
L 312.936922 128.377445 
L 310.656336 134.53299 
L 307.970257 142.463707 
L 304.964659 152.166426 
L 300.836648 166.482721 
L 297.071643 179.321188 
L 295.098128 185.232517 
L 293.564506 189.093172 
L 292.434592 191.397643 
L 291.317754 193.144853 
L 290.578537 193.989499 
L 289.842246 194.526072 
L 289.107729 194.792842 
L 288.373831 194.802558 
L 287.639399 194.555123 
L 286.903279 194.03976 
L 286.164317 193.214857 
L 285.421359 192.132812 
L 284.296906 190.036315 
L 283.156973 187.409316 
L 281.606251 183.16857 
L 279.605351 176.872588 
L 276.655122 166.705879 
L 271.55844 149.159093 
L 268.482307 139.496537 
L 265.730101 131.653535 
L 263.391805 125.593351 
L 260.922146 119.764592 
L 258.311896 114.192232 
L 255.551823 108.891296 
L 252.632698 103.8688 
L 249.54529 99.125498 
L 247.113746 95.748975 
L 244.578456 92.524287 
L 241.935527 89.447556 
L 239.181065 86.514266 
L 236.311175 83.719447 
L 233.321964 81.057818 
L 230.209538 78.523914 
L 226.970002 76.11218 
L 223.599463 73.817052 
L 218.894897 70.928762 
L 213.941283 68.225226 
L 208.729391 65.694146 
L 203.24999 63.323784 
L 197.49385 61.103025 
L 191.45174 59.021399 
L 185.114431 57.069098 
L 178.472692 55.236962 
L 169.728352 53.080347 
L 166.089352 52.250283 
L 162.367898 51.597263 
L 160.47589 51.406001 
L 158.562836 51.336971 
L 156.628593 51.414223 
L 156.628593 51.414223 
" clip-path="url(#p8aa1c13cc6)" style="fill: none; stroke: #7f7f7f; stroke-width: 1.4; stroke-linecap: square"/>
   </g>
   <g id="line2d_45">
    <path d="M 375.888661 65.177443 
L 373.206277 66.11032 
L 370.585987 67.233807 
L 365.527554 69.720312 
L 360.705094 72.32677 
L 356.110343 75.095603 
L 351.735035 78.036239 
L 347.570903 81.158045 
L 343.609683 84.470111 
L 339.843108 87.980965 
L 336.262913 91.698214 
L 332.860831 95.628085 
L 329.628599 99.774868 
L 326.557948 104.140232 
L 323.640615 108.722409 
L 320.868333 113.515255 
L 318.232836 118.507172 
L 315.725859 123.679929 
L 312.760276 130.359569 
L 309.966446 137.209026 
L 306.817833 145.514318 
L 296.739193 172.733221 
L 295.082629 176.310048 
L 293.862619 178.557504 
L 292.657946 180.391861 
L 291.465121 181.782811 
L 290.674766 182.451777 
L 289.887094 182.907826 
L 289.101072 183.1474 
L 288.315667 183.168617 
L 287.529845 182.971311 
L 286.742574 182.557032 
L 286.348072 182.269475 
L 285.95282 192.803212 
L 285.556689 189.638187 
L 284.761274 145.991077 
L 284.361731 134.129965 
L 283.960793 128.790736 
L 284.321609 129.87784 
L 283.942402 137.135831 
L 283.560968 150.316171 
L 282.790823 193.485734 
L 282.401814 195.526967 
L 282.009982 183.072022 
L 280.411456 177.602482 
L 277.0337 165.426717 
L 272.866066 150.567889 
L 269.820051 140.617591 
L 267.090905 132.544864 
L 264.76931 126.312835 
L 262.314489 120.325286 
L 259.716921 114.608353 
L 256.967084 109.177436 
L 254.055459 104.039348 
L 251.759839 100.378244 
L 249.36384 96.880188 
L 246.863447 93.542078 
L 244.254642 90.35985 
L 241.533409 87.328725 
L 238.695732 84.443405 
L 235.737594 81.698247 
L 232.654978 79.0874 
L 229.443869 76.604912 
L 226.100248 74.244821 
L 222.620101 72.001224 
L 217.760586 69.18099 
L 212.641695 66.544295 
L 207.253907 64.078447 
L 201.587702 61.771426 
L 195.633557 59.611918 
L 189.381954 57.589326 
L 182.823371 55.69377 
L 175.948287 53.916058 
L 168.747182 52.247668 
L 161.210534 50.654872 
L 157.313407 50.036339 
L 155.332122 49.81098 
L 155.332122 49.81098 
" clip-path="url(#p8aa1c13cc6)" style="fill: none; stroke: #bcbd22; stroke-width: 1.4; stroke-linecap: square"/>
   </g>
   <g id="line2d_46">
    <path d="M 378.259293 61.002652 
L 375.327213 61.929782 
L 372.468779 63.050264 
L 366.967869 65.543799 
L 361.746608 68.179668 
L 358.008193 70.279653 
L 354.417281 72.491804 
L 350.969672 74.822354 
L 347.661165 77.277719 
L 344.48756 79.864449 
L 341.444659 82.58917 
L 338.52826 85.458506 
L 335.734165 88.478969 
L 333.058172 91.656836 
L 330.496082 94.997983 
L 328.043695 98.507688 
L 325.69681 102.190385 
L 323.451229 106.049376 
L 321.302751 110.086486 
L 318.581904 115.745948 
L 316.016263 121.714842 
L 313.595871 127.976644 
L 311.310774 134.502628 
L 308.629495 142.9635 
L 306.124614 151.643104 
L 302.877108 163.819813 
L 297.480189 184.284473 
L 295.943145 189.334908 
L 294.446819 193.50217 
L 293.345308 195.956402 
L 292.256899 197.777416 
L 291.5365 198.617115 
L 290.818813 199.117335 
L 290.102595 199.320892 
L 289.386601 199.225551 
L 288.669586 198.832367 
L 287.950307 198.118043 
L 287.227518 197.078072 
L 286.134032 194.981524 
L 285.025651 192.271129 
L 283.517379 187.802917 
L 281.569133 181.069546 
L 278.689319 170.100306 
L 274.170175 152.894008 
L 271.689093 144.195635 
L 269.034414 135.694187 
L 266.772613 129.124639 
L 264.377309 122.812651 
L 261.838547 116.789423 
L 259.146371 111.073474 
L 256.290827 105.673219 
L 254.035968 101.830802 
L 251.679415 98.16444 
L 249.216966 94.670712 
L 246.644423 91.34509 
L 243.957585 88.182231 
L 241.152251 85.17621 
L 238.224223 82.320724 
L 235.169301 79.60924 
L 231.983283 77.035133 
L 228.661971 74.591779 
L 225.201164 72.272637 
L 221.596662 70.071305 
L 217.844266 67.98157 
L 212.603754 65.358518 
L 207.082895 62.909672 
L 201.271736 60.622286 
L 195.16032 58.484433 
L 188.738692 56.485009 
L 181.996896 54.613706 
L 174.924977 52.860983 
L 165.605676 50.777027 
L 161.724815 50.039191 
L 157.75458 49.571079 
L 155.735558 49.502267 
L 153.693725 49.574575 
L 153.693725 49.574575 
" clip-path="url(#p8aa1c13cc6)" style="fill: none; stroke: #17becf; stroke-width: 1.4; stroke-linecap: square"/>
   </g>
   <g id="line2d_47">
    <path d="M 347.920586 53.024588 
L 344.345547 53.966896 
L 340.886362 55.199518 
L 334.306167 57.912724 
L 329.657676 60.099474 
L 325.246085 62.447531 
L 321.063468 64.970871 
L 317.1019 67.684628 
L 313.353456 70.605122 
L 309.810211 73.749859 
L 306.464239 77.137485 
L 303.307616 80.787674 
L 300.332416 84.720939 
L 297.530715 88.958313 
L 294.894586 93.520883 
L 292.416106 98.429108 
L 290.087347 103.701878 
L 287.900387 109.355237 
L 285.847299 115.400702 
L 283.920158 121.843103 
L 282.111039 128.677887 
L 280.412018 135.887862 
L 278.30422 146.023845 
L 276.359275 156.62632 
L 274.128487 170.190335 
L 268.767535 203.862488 
L 267.733599 208.782236 
L 266.722584 212.409999 
L 266.057394 214.02977 
L 265.39652 214.966272 
L 265.066967 215.173218 
L 264.737614 215.204181 
L 264.408165 215.058996 
L 264.078328 214.738436 
L 263.416313 213.578913 
L 262.749223 211.745501 
L 262.41304 210.588816 
L 262.074707 208.138645 
L 261.733932 207.264584 
L 261.390419 208.263461 
L 260.69401 210.789013 
L 261.084884 211.258905 
L 260.747505 210.539254 
L 260.405319 208.167443 
L 259.705258 200.334986 
L 258.611211 191.46149 
L 256.233598 172.382928 
L 254.480758 159.815953 
L 252.570119 147.78566 
L 251.021421 139.245744 
L 249.364059 131.178488 
L 247.589502 123.609168 
L 245.689221 116.544069 
L 243.654687 109.975712 
L 241.47737 103.887102 
L 239.14874 98.255075 
L 236.660268 93.052826 
L 234.908273 89.809342 
L 233.078918 86.735558 
L 231.169677 83.822903 
L 229.178023 81.06295 
L 227.101426 78.447491 
L 224.937362 75.968587 
L 222.683301 73.618607 
L 220.336718 71.390251 
L 216.637833 68.260637 
L 212.716556 65.367102 
L 208.564355 62.689397 
L 204.172702 60.208968 
L 199.533068 57.908871 
L 194.636922 55.773669 
L 189.475734 53.789323 
L 184.040976 51.943078 
L 178.324117 50.223355 
L 172.316628 48.619644 
L 166.009979 47.12241 
L 157.121012 45.276882 
L 147.664824 43.586997 
L 137.621195 42.036602 
L 129.690803 40.929813 
L 124.209769 40.411639 
L 121.410073 40.317863 
L 118.570503 40.376581 
L 118.570503 40.376581 
" clip-path="url(#p8aa1c13cc6)" style="fill: none; stroke: #1f77b4; stroke-width: 1.4; stroke-linecap: square"/>
   </g>
   <g id="line2d_48">
    <path d="M 349.064307 51.501019 
L 345.33292 52.420749 
L 341.724686 53.624975 
L 334.867627 56.280214 
L 330.029429 58.424969 
L 325.442893 60.732537 
L 321.099546 63.217633 
L 316.99091 65.896297 
L 313.108509 68.785951 
L 309.443868 71.905429 
L 305.98851 75.274973 
L 303.79702 77.670866 
L 301.692267 80.19416 
L 299.671739 82.851756 
L 297.732924 85.65071 
L 295.87331 88.598175 
L 293.2269 93.313491 
L 290.744567 98.402752 
L 288.417836 103.888095 
L 286.23823 109.788634 
L 284.197273 116.118485 
L 282.286489 122.884178 
L 280.497402 130.081405 
L 278.821535 137.69103 
L 276.748518 148.408528 
L 274.841623 159.625737 
L 272.661004 173.941638 
L 268.12364 204.674039 
L 267.095766 210.20495 
L 266.093527 214.370752 
L 265.435423 216.291492 
L 264.782433 217.466695 
L 264.457072 217.769758 
L 264.132047 217.880434 
L 263.807046 217.79808 
L 263.481753 217.523175 
L 262.829039 216.403159 
L 262.171393 214.535096 
L 261.839937 213.336593 
L 261.506306 210.797324 
L 261.170186 209.860687 
L 260.489225 212.210464 
L 260.143756 213.318788 
L 260.520047 213.681685 
L 260.186473 212.807345 
L 259.847927 210.23143 
L 259.154578 201.939152 
L 258.068862 192.578615 
L 255.699639 172.493514 
L 253.944494 159.34893 
L 252.023705 146.842163 
L 250.461458 138.013279 
L 248.784846 129.712598 
L 246.984787 121.960424 
L 245.052198 114.757119 
L 242.977998 108.089026 
L 240.753106 101.933179 
L 238.36844 96.260905 
L 236.685414 92.732442 
L 234.92465 89.395087 
L 233.083457 86.239071 
L 231.159144 83.254733 
L 229.149021 80.432626 
L 227.050397 77.763593 
L 224.86058 75.238822 
L 222.57688 72.849879 
L 220.196605 70.588731 
L 217.717066 68.447757 
L 215.135571 66.419746 
L 211.066275 63.574764 
L 206.752443 60.947445 
L 202.184992 58.518404 
L 197.35484 56.270039 
L 192.252907 54.186401 
L 186.87011 52.253052 
L 181.197369 50.456936 
L 175.2256 48.786246 
L 168.945722 47.230308 
L 162.348655 45.77947 
L 153.04346 43.993532 
L 143.1367 42.360556 
L 129.874502 40.477845 
L 124.287602 39.835393 
L 121.432373 39.622592 
L 118.53551 39.528647 
L 115.596677 39.58492 
L 115.596677 39.58492 
" clip-path="url(#p8aa1c13cc6)" style="fill: none; stroke: #ff7f0e; stroke-width: 1.4; stroke-linecap: square"/>
   </g>
   <g id="line2d_49">
    <path d="M 351.55779 48.654873 
L 347.496661 49.537767 
L 343.575441 50.69648 
L 336.141181 53.262275 
L 330.911278 55.346254 
L 325.966942 57.599747 
L 321.29843 60.039708 
L 316.895999 62.684921 
L 314.104057 64.572595 
L 311.423156 66.567355 
L 308.85041 68.676318 
L 306.382931 70.907056 
L 304.017833 73.267607 
L 301.75223 75.766479 
L 299.583233 78.412648 
L 297.507958 81.21554 
L 295.523516 84.185003 
L 293.627021 87.331257 
L 291.815586 90.664825 
L 290.086325 94.196427 
L 288.43635 97.936838 
L 286.862775 101.896704 
L 285.362714 106.086296 
L 283.244143 112.822094 
L 281.274738 120.123323 
L 279.444756 128.007694 
L 277.744455 136.47813 
L 276.164091 145.516063 
L 274.693921 155.073251 
L 272.888269 168.466267 
L 270.847149 185.735708 
L 266.669769 222.352771 
L 265.730409 228.419305 
L 265.117275 231.399198 
L 264.511257 233.37824 
L 263.90947 234.314108 
L 263.60926 234.419232 
L 263.309025 234.280787 
L 263.008405 233.899841 
L 262.707037 233.279315 
L 262.100619 231.218596 
L 261.486883 228.177972 
L 260.546245 222.027544 
L 259.239508 211.393564 
L 253.874674 164.587902 
L 252.020528 151.384015 
L 250.509674 142.015921 
L 248.884926 133.189501 
L 247.136543 124.940679 
L 245.25478 117.278972 
L 243.229896 110.195129 
L 241.052147 103.667273 
L 239.510579 99.609761 
L 237.893853 95.776193 
L 236.199084 92.15605 
L 234.423384 88.738587 
L 232.563867 85.513038 
L 230.617646 82.468782 
L 228.581835 79.595456 
L 226.453545 76.883045 
L 224.229891 74.321935 
L 221.907987 71.902956 
L 219.484944 69.617395 
L 216.957876 67.457012 
L 214.323897 65.414036 
L 211.580119 63.481155 
L 207.252266 60.773364 
L 202.661128 58.276574 
L 197.796962 55.97145 
L 192.650027 53.840526 
L 187.210578 51.868051 
L 181.468872 50.039829 
L 175.415168 48.343066 
L 169.039721 46.766238 
L 162.332789 45.298957 
L 152.857731 43.496929 
L 142.75295 41.853381 
L 131.995354 40.344432 
L 126.364532 39.619403 
L 120.561847 39.100603 
L 117.595152 39.003985 
L 114.584409 39.058092 
L 114.584409 39.058092 
" clip-path="url(#p8aa1c13cc6)" style="fill: none; stroke: #2ca02c; stroke-width: 1.4; stroke-linecap: square"/>
   </g>
   <g id="line2d_50">
    <path d="M 351.192284 48.78306 
L 347.145222 49.663605 
L 343.236772 50.818619 
L 335.824157 53.373699 
L 330.607076 55.446222 
L 325.672636 57.68449 
L 321.011091 60.104551 
L 316.612695 62.724067 
L 312.467704 65.562421 
L 309.840345 67.586622 
L 307.31839 69.724205 
L 304.898954 71.982276 
L 302.579148 74.36831 
L 300.356084 76.890128 
L 298.226876 79.555876 
L 296.188636 82.373981 
L 294.238476 85.353096 
L 292.373509 88.502014 
L 290.590847 91.829556 
L 288.887602 95.344431 
L 287.260888 99.055046 
L 284.957994 105.004962 
L 282.811051 111.435419 
L 280.810313 118.361792 
L 278.946035 125.788333 
L 277.208471 133.703238 
L 275.587876 142.072641 
L 273.592191 153.825106 
L 271.764026 166.016871 
L 269.285345 184.222117 
L 266.700234 202.882252 
L 265.664558 209.105338 
L 264.658142 213.812494 
L 263.998642 215.992299 
L 263.344928 217.260266 
L 263.019338 217.576552 
L 262.694112 217.683249 
L 262.368888 217.579609 
L 262.043306 217.266357 
L 261.717006 216.745683 
L 261.060803 215.02045 
L 260.730179 213.831816 
M 257.662373 198.330528 
L 254.952232 173.417665 
L 253.202287 159.343666 
L 251.774884 149.248096 
L 250.237405 139.681168 
L 248.579451 130.710139 
L 246.790624 122.364812 
L 244.860526 114.647726 
L 242.778757 107.542607 
L 241.301516 103.13214 
L 239.749163 98.970802 
L 238.118619 95.047337 
L 236.4068 91.349988 
L 234.610628 87.866801 
L 232.727021 84.585861 
L 230.752897 81.495462 
L 228.685176 78.584238 
L 226.520777 75.841246 
L 224.256619 73.25603 
L 221.889621 70.818649 
L 219.416702 68.519701 
L 216.83478 66.350323 
L 214.140776 64.302186 
L 211.331607 62.36748 
L 208.404194 60.538899 
L 203.784624 57.980205 
L 198.881673 55.623898 
L 193.684942 53.450958 
L 188.184031 51.444292 
L 182.368544 49.588552 
L 176.228082 47.869958 
L 169.752247 46.27614 
L 162.930639 44.795983 
L 155.752861 43.4195 
L 145.610476 41.730063 
L 134.791766 40.190203 
L 123.272082 38.753183 
L 117.241673 38.237924 
L 114.157479 38.139282 
L 111.026778 38.188496 
L 111.026778 38.188496 
" clip-path="url(#p8aa1c13cc6)" style="fill: none; stroke: #d62728; stroke-width: 1.4; stroke-linecap: square"/>
   </g>
   <g id="line2d_51">
    <path d="M 353.586851 46.331793 
L 349.208426 47.182152 
L 344.986521 48.300222 
L 336.999027 50.78427 
L 331.394649 52.810469 
L 326.10892 55.009899 
L 321.130669 57.400989 
L 316.448722 60.004329 
L 313.486521 61.869048 
L 310.647734 63.845706 
L 307.929052 65.942295 
L 305.327163 68.167378 
L 302.838758 70.530114 
L 300.460525 73.040275 
L 298.189155 75.708253 
L 296.021337 78.545056 
L 293.953761 81.562291 
L 291.983115 84.772117 
L 290.106091 88.187181 
L 288.319376 91.820507 
L 286.619661 95.685337 
L 285.003635 99.794922 
L 283.467988 104.162223 
L 282.009409 108.799532 
L 280.624588 113.717968 
L 278.678411 121.642441 
L 276.879568 130.239322 
L 275.216885 139.507094 
L 273.679191 149.41326 
L 272.255312 159.882262 
L 270.514542 174.478191 
L 268.554839 192.985093 
L 265.79718 219.263271 
L 264.846542 226.56169 
L 263.924062 231.768539 
L 263.3192 233.780648 
L 263.018566 234.345335 
L 262.718577 234.637505 
L 262.41882 234.654545 
L 262.118881 234.396307 
L 261.818347 233.865107 
L 261.516803 233.065683 
L 260.909031 230.466655 
L 260.292255 226.811792 
L 259.342968 219.589538 
L 258.014842 207.424825 
L 254.218328 171.221769 
L 252.439724 156.756608 
L 250.98365 146.441495 
L 249.410486 136.716666 
L 247.709061 127.643691 
L 245.8682 119.244814 
L 243.876732 111.514453 
L 242.459897 106.720903 
L 240.96785 102.203783 
L 239.39728 97.951387 
L 237.744875 93.951074 
L 236.007327 90.189713 
L 234.181323 86.654024 
L 232.263554 83.330837 
L 230.250709 80.207277 
L 228.139479 77.270902 
L 225.926551 74.509785 
L 223.608617 71.91258 
L 221.182364 69.468547 
L 218.644484 67.167568 
L 215.991665 65.000141 
L 213.220598 62.957372 
L 210.327971 61.03095 
L 207.310473 59.213127 
L 204.164796 57.496688 
L 199.1987 55.097575 
L 193.925577 52.890905 
L 188.334254 50.858166 
L 182.413558 48.982802 
L 176.152317 47.250006 
L 169.539357 45.646535 
L 162.563506 44.160535 
L 155.213591 42.78139 
L 144.812516 41.092444 
L 133.700092 39.55675 
L 121.849835 38.126531 
L 115.639743 37.61297 
L 112.462008 37.514178 
L 109.235261 37.562367 
L 109.235261 37.562367 
" clip-path="url(#p8aa1c13cc6)" style="fill: none; stroke: #9467bd; stroke-width: 1.4; stroke-linecap: square"/>
   </g>
   <g id="line2d_52">
    <path d="M 352.956887 46.985968 
L 348.670099 47.840499 
L 344.534158 48.962774 
L 336.701954 51.450923 
L 331.199856 53.474816 
L 326.004604 55.665998 
L 321.105345 58.041277 
L 316.491224 60.619228 
L 313.568194 62.460488 
L 310.763853 64.407441 
L 308.074985 66.467055 
L 305.498374 68.64671 
L 303.030805 70.9542 
L 300.669061 73.397722 
L 298.409927 75.985856 
L 296.250187 78.727526 
L 294.186625 81.631948 
L 292.216025 84.708546 
L 290.335172 87.966842 
L 288.54085 91.416309 
L 286.829842 95.066172 
L 285.198934 98.925158 
L 283.644909 103.001173 
L 281.450993 109.536313 
L 279.411975 116.589185 
L 277.517003 124.161091 
L 275.755222 132.233869 
L 274.115779 140.762627 
L 272.101401 152.69943 
L 270.259492 164.986683 
L 265.153472 200.45997 
L 264.102015 205.779231 
L 263.415413 208.376047 
L 262.736554 210.074178 
L 262.399023 210.575956 
L 262.062222 210.862853 
L 261.725749 210.932705 
L 261.389202 210.784992 
L 261.052179 210.420841 
L 260.714278 209.843013 
L 260.034234 207.954005 
L 259.691287 221.47626 
M 256.845151 192.992544 
L 254.046184 168.036191 
L 252.230662 153.940716 
L 250.744863 143.857772 
L 249.139774 134.333682 
L 247.403818 125.435677 
L 245.525414 117.19071 
L 243.492982 109.596991 
L 242.046739 104.886449 
L 240.523461 100.446726 
L 238.919717 96.266726 
L 237.232078 92.334324 
L 235.457111 88.636831 
L 233.591386 85.161344 
L 231.631471 81.895014 
L 229.573935 78.825246 
L 227.415349 75.93984 
L 225.152279 73.227082 
L 222.781297 70.675815 
L 220.298969 68.275464 
L 217.701866 66.01606 
L 214.986556 63.888237 
L 212.149609 61.883222 
L 209.187593 59.992816 
L 206.097077 58.209374 
L 201.21286 55.719323 
L 196.02022 53.432064 
L 190.507576 51.327917 
L 184.663348 49.389279 
L 178.475957 47.600408 
L 171.933823 45.947225 
L 165.025367 44.417143 
L 157.739008 42.998892 
L 147.416 41.264565 
L 136.373131 39.690148 
L 124.582953 38.253935 
L 118.399045 37.553954 
L 112.018017 37.060906 
L 108.752511 36.949998 
L 108.752511 36.949998 
" clip-path="url(#p8aa1c13cc6)" style="fill: none; stroke: #8c564b; stroke-width: 1.4; stroke-linecap: square"/>
   </g>
   <g id="line2d_53">
    <path d="M 355.079874 44.958169 
L 350.488405 45.789423 
L 346.065113 46.883573 
L 337.70848 49.319275 
L 331.855359 51.310987 
L 326.343732 53.477735 
L 321.161294 55.838659 
L 317.883145 57.530973 
L 314.74219 59.326042 
L 311.734785 61.231379 
L 308.857284 63.255064 
L 306.106042 65.405778 
L 303.477416 67.692825 
L 300.967758 70.126155 
L 298.573426 72.716374 
L 296.290773 75.474743 
L 294.116154 78.413161 
L 292.045926 81.54412 
L 290.076441 84.880638 
L 288.204057 88.436141 
L 286.425127 92.224298 
L 284.736007 96.25879 
L 283.133051 100.552994 
L 281.612615 105.11956 
L 280.171054 109.969868 
L 278.804723 115.113327 
L 276.888308 123.391497 
L 275.120657 132.347378 
L 273.489469 141.954921 
L 271.98244 152.145075 
L 270.144944 166.409354 
L 268.083297 184.573291 
L 265.19403 210.408839 
L 264.200355 217.533199 
L 263.555247 221.119428 
L 262.919758 223.632445 
L 262.290244 224.903187 
L 261.976588 225.120874 
L 261.66306 225.056535 
L 261.349202 224.710752 
L 261.034561 224.086707 
L 260.401102 221.945709 
L 259.759038 218.630812 
L 258.771835 211.870659 
L 257.391426 200.192097 
L 253.438988 164.798782 
L 251.580901 150.602872 
L 250.05631 140.492234 
L 248.405742 130.977713 
L 246.616895 122.12112 
L 244.677467 113.943273 
L 242.575156 106.436355 
L 241.077051 101.791885 
L 239.497441 97.423108 
L 237.832681 93.317666 
L 236.079127 89.462335 
L 234.233132 85.843482 
L 232.291054 82.447408 
L 230.249245 79.260597 
L 228.104062 76.269907 
L 225.85186 73.462688 
L 223.488992 70.82687 
L 221.011816 68.351012 
L 218.416684 66.024324 
L 215.699954 63.836674 
L 212.857978 61.778579 
L 209.887113 59.841188 
L 206.783714 58.016256 
L 203.544135 56.296114 
L 198.421457 53.896948 
L 192.971872 51.695756 
L 187.183078 49.672986 
L 181.042774 47.811202 
L 174.538657 46.094853 
L 167.658426 44.510074 
L 160.38978 43.044489 
L 152.720415 41.687049 
L 141.849994 40.028435 
L 130.216156 38.524045 
L 117.789741 37.149858 
L 114.555879 36.930583 
L 111.270204 36.826968 
L 107.932259 36.870729 
L 107.932259 36.870729 
" clip-path="url(#p8aa1c13cc6)" style="fill: none; stroke: #e377c2; stroke-width: 1.4; stroke-linecap: square"/>
   </g>
   <g id="line2d_54">
    <path d="M 354.025105 45.754354 
L 349.557078 46.595288 
L 345.250227 47.700886 
L 337.105947 50.156743 
L 331.394594 52.159157 
L 326.010179 54.331621 
L 320.940799 56.691667 
L 316.174552 59.258705 
L 313.159582 61.095555 
L 310.270522 63.040755 
L 307.503843 65.101607 
L 304.856019 67.285852 
L 302.323523 69.601659 
L 299.902829 72.057614 
L 297.59041 74.662691 
L 295.382739 77.426198 
L 293.276289 80.357713 
L 291.267534 83.466975 
L 289.352947 86.763748 
L 287.529001 90.257628 
L 285.792169 93.957806 
L 284.138924 97.872747 
L 282.565741 102.009799 
L 280.348364 108.643799 
L 278.291287 115.799223 
L 276.382606 123.468329 
L 274.610417 131.619202 
L 272.96282 140.187324 
L 270.939257 152.069728 
L 268.648541 167.073825 
L 265.40524 188.49691 
L 264.284063 194.606749 
L 263.555866 197.816609 
L 262.838958 200.252344 
L 262.129812 201.739577 
L 261.777048 202.144357 
L 261.424902 202.336558 
L 261.072933 202.314618 
L 260.720701 202.078708 
L 260.367764 201.630724 
L 260.013682 200.972898 
L 259.658013 200.050906 
L 259.300318 213.085966 
L 258.940155 202.080264 
L 258.577083 159.318982 
L 258.210661 131.462575 
L 257.840449 117.968793 
L 258.157882 118.322951 
L 257.801227 132.038584 
L 257.438779 158.657857 
L 257.070066 197.751737 
L 256.694617 204.296987 
L 256.311962 185.950978 
L 253.392023 161.518769 
L 251.492399 147.708773 
L 249.934307 137.845573 
L 248.247763 128.547893 
L 246.420049 119.88211 
L 244.438446 111.873058 
L 243.025602 106.897242 
L 241.534943 102.205307 
L 239.962699 97.788086 
L 238.305102 93.634519 
L 236.558384 89.732324 
L 234.718776 86.068527 
L 232.782509 82.629863 
L 230.745816 79.403084 
L 228.604928 76.375185 
L 226.356076 73.533558 
L 223.995492 70.866106 
L 221.519408 68.361309 
L 218.924055 66.008267 
L 216.205664 63.796715 
L 213.360468 61.717024 
L 210.384698 59.76019 
L 207.274584 57.917814 
L 204.02636 56.182079 
L 200.636257 54.545717 
L 195.276834 52.262871 
L 189.576985 50.167799 
L 183.523991 48.241988 
L 177.105133 46.468926 
L 170.307695 44.833893 
L 163.118955 43.323757 
L 155.526198 41.926802 
L 144.752065 40.22233 
L 133.206919 38.678796 
L 120.860612 37.262669 
L 114.377602 36.62156 
L 107.682997 36.140887 
L 107.682997 36.140887 
" clip-path="url(#p8aa1c13cc6)" style="fill: none; stroke: #7f7f7f; stroke-width: 1.4; stroke-linecap: square"/>
   </g>
   <g id="line2d_55">
    <path d="M 355.724742 43.967005 
L 350.966864 44.790641 
L 346.387819 45.876018 
L 337.750283 48.297216 
L 331.711925 50.28224 
L 326.035585 52.446664 
L 320.707813 54.810626 
L 317.342971 56.508514 
L 314.123085 58.31245 
L 311.044168 60.230377 
L 308.102235 62.270849 
L 305.2933 64.443061 
L 302.613377 66.756872 
L 300.058482 69.222822 
L 297.624629 71.85214 
L 295.307832 74.65673 
L 293.104104 77.649139 
L 291.009462 80.842492 
L 289.019919 84.250389 
L 287.13149 87.886746 
L 285.340188 91.765575 
L 283.642029 95.900666 
L 282.033027 100.305179 
L 280.509196 104.991087 
L 279.066551 109.968472 
L 277.701106 115.24463 
L 275.78897 123.725114 
L 274.028116 132.871957 
L 272.405091 142.633564 
L 270.906446 152.90419 
L 269.07848 167.074472 
L 264.114174 207.454756 
L 263.435674 211.257753 
L 262.768612 214.035696 
L 262.109002 215.579515 
L 261.780746 215.933105 
L 261.452859 216.003262 
L 261.124842 215.789329 
L 260.796197 215.293386 
L 260.466426 214.520193 
L 259.801513 212.018728 
L 259.126117 208.452587 
L 258.084649 201.376145 
L 256.622137 189.476547 
L 252.867299 158.101136 
L 250.918775 144.23947 
L 249.316525 134.387704 
L 247.578594 125.137903 
L 245.691531 116.549256 
L 243.641884 108.639431 
L 242.178486 103.738789 
L 240.632865 99.127237 
L 239.001034 94.79412 
L 237.279009 90.727095 
L 235.462804 86.912788 
L 233.548434 83.337315 
L 231.531912 79.986664 
L 229.409253 76.84698 
L 227.176472 73.904774 
L 224.829583 71.147062 
L 222.3646 68.56146 
L 219.777538 66.136237 
L 217.064411 63.860343 
L 214.221234 61.723415 
L 211.24402 59.71577 
L 208.128785 57.828382 
L 204.871544 56.052858 
L 201.468309 54.381409 
L 196.081002 52.053718 
L 190.342793 49.921898 
L 184.24023 47.966213 
L 177.759861 46.169108 
L 170.888236 44.514969 
L 163.611903 42.989907 
L 155.91741 41.581555 
L 147.791307 40.2789 
L 136.261859 38.689619 
L 123.909306 37.221432 
L 117.4144 36.568194 
L 114.085546 36.343684 
L 110.701761 36.235015 
L 107.262546 36.274452 
L 107.262546 36.274452 
" clip-path="url(#p8aa1c13cc6)" style="fill: none; stroke: #bcbd22; stroke-width: 1.4; stroke-linecap: square"/>
   </g>
   <g id="line2d_56">
    <path d="M 354.130957 45.031634 
L 349.549606 45.870745 
L 345.137254 46.974933 
L 336.804331 49.431548 
L 330.969973 51.438502 
L 325.477355 53.619539 
L 320.313642 55.992873 
L 317.047553 57.691799 
L 313.918137 59.491592 
L 310.92159 61.399156 
L 308.054109 63.42183 
L 305.311892 65.567385 
L 302.691135 67.844016 
L 300.188036 70.260323 
L 297.798791 72.825276 
L 295.519598 75.548152 
L 293.346653 78.438458 
L 291.276153 81.505806 
L 289.304296 84.759755 
L 287.427279 88.209597 
L 285.641297 91.86408 
L 283.94255 95.731055 
L 282.327232 99.817032 
L 280.791542 104.126631 
L 278.62899 111.013954 
L 276.624208 118.400196 
L 274.76436 126.252954 
L 273.036612 134.506998 
L 270.916252 145.944006 
L 268.517615 160.344202 
L 265.523089 178.496936 
L 264.333912 184.633981 
L 263.182711 189.287332 
L 262.430003 191.43041 
L 261.684665 192.666305 
L 261.313572 192.965291 
L 260.942895 193.048172 
L 260.572159 192.914298 
L 260.200889 192.564745 
L 259.82861 192.002295 
L 259.454845 191.214702 
L 259.07912 203.678572 
L 258.700959 193.288198 
L 258.319888 152.679666 
L 257.935429 126.273502 
L 257.547109 113.538622 
L 257.870849 113.971011 
L 257.497496 127.094465 
L 257.118106 152.461062 
L 256.73217 189.651401 
L 256.339177 195.870932 
L 255.938618 178.377588 
L 252.880029 154.842866 
L 250.887298 141.508073 
L 249.250855 131.985799 
L 247.477492 123.01604 
L 245.553446 114.664815 
L 243.464952 106.956373 
L 241.974465 102.172922 
L 240.400694 97.666751 
L 238.739561 93.428599 
L 236.986987 89.447355 
L 235.138893 85.710735 
L 233.191202 82.205806 
L 231.139834 78.919388 
L 228.980712 75.838351 
L 226.709757 72.949839 
L 224.322891 70.241418 
L 221.816035 67.701182 
L 219.185111 65.317819 
L 216.42604 63.080642 
L 213.534744 60.979609 
L 210.507145 59.005315 
L 207.339164 57.148982 
L 204.026722 55.402432 
L 200.565742 53.758067 
L 195.086841 51.467825 
L 189.250787 49.37007 
L 183.043815 47.445484 
L 176.45216 45.676861 
L 169.462059 44.048886 
L 162.059746 42.547926 
L 154.231457 41.161834 
L 145.963428 39.879786 
L 134.231556 38.315694 
L 121.660825 36.885465 
L 115.050692 36.238124 
L 108.218608 35.745455 
L 108.218608 35.745455 
" clip-path="url(#p8aa1c13cc6)" style="fill: none; stroke: #17becf; stroke-width: 1.4; stroke-linecap: square"/>
   </g>
   <g id="patch_3">
    <path d="M 59.9 244.6 
L 59.9 25.8 
" style="fill: none; stroke: #000000; stroke-width: 0.8; stroke-linejoin: miter; stroke-linecap: square"/>
   </g>
   <g id="patch_4">
    <path d="M 59.9 244.6 
L 421.2 244.6 
" style="fill: none; stroke: #000000; stroke-width: 0.8; stroke-linejoin: miter; stroke-linecap: square"/>
   </g>
   <g id="text_16">
    <text style="font: 12px 'DejaVu Sans', 'Bitstream Vera Sans', 'Computer Modern Sans Serif', 'Lucida Grande', 'Verdana', 'Geneva', 'Lucid', 'Arial', 'Helvetica', 'Avant Garde', sans-serif; text-anchor: middle" x="240.55" y="19.8" transform="rotate(-0 240.55 19.8)">dQ/dE (cathodic) - HE</text>
   </g>
  </g>
 </g>
 <defs>
  <clipPath id="p8aa1c13cc6">
   <rect x="59.9" y="25.8" width="361.3" height="218.8"/>
  </clipPath>
 </defs>
</svg>
