<?xml version="1.0" encoding="utf-8" standalone="no"?>
<!DOCTYPE svg PUBLIC "-//W3C//DTD SVG 1.1//EN"
  "http://www.w3.org/Graphics/SVG/1.1/DTD/svg11.dtd">
<svg xmlns:xlink="http://www.w3.org/1999/xlink" width="423.68433pt" height="279.405pt" viewBox="0 0 423.68433 279.405" xmlns="http://www.w3.org/2000/svg" version="1.1">
 <metadata>
  <rdf:RDF xmlns:dc="http://purl.org/dc/elements/1.1/" xmlns:cc="http://creativecommons.org/ns#" xmlns:rdf="http://www.w3.org/1999/02/22-rdf-syntax-ns#">
   <cc:Work>
    <dc:type rdf:resource="http://purl.org/dc/dcmitype/StillImage"/>
    <dc:date>2025-10-07T16:08:12.919331</dc:date>
    <dc:format>image/svg+xml</dc:format>
    <dc:creator>
     <cc:Agent>
      <dc:title>Matplotlib v3.10.3, https://matplotlib.org/</dc:title>
     </cc:Agent>
    </dc:creator>
   </cc:Work>
  </rdf:RDF>
 </metadata>
 <defs>
  <style type="text/css">*{stroke-linejoin: round; stroke-linecap: butt}</style>
 </defs>
 <g id="figure_1">
  <g id="patch_1">
   <path d="M 0 279.405 
L 423.68433 279.405 
L 423.68433 0 
L 0 0 
z
" style="fill: #ffffff"/>
  </g>
  <g id="axes_1">
   <g id="patch_2">
    <path d="M 47.6525 232.066875 
L 341.7315 232.066875 
L 341.7315 22.318125 
L 47.6525 22.318125 
z
" style="fill: #ffffff"/>
   </g>
   <g id="matplotlib.axis_1">
    <g id="xtick_1">
     <g id="line2d_1">
      <path d="M 47.6525 232.066875 
L 47.6525 22.318125 
" clip-path="url(#p28ea1e14ce)" style="fill: none; stroke: #b0b0b0; stroke-opacity: 0.25; stroke-width: 0.8; stroke-linecap: square"/>
     </g>
     <g id="line2d_2">
      <defs>
       <path id="mc39b8ddf39" d="M 0 0 
L 0 3.5 
" style="stroke: #000000; stroke-width: 0.8"/>
      </defs>
      <g>
       <use xlink:href="#mc39b8ddf39" x="47.6525" y="232.066875" style="stroke: #000000; stroke-width: 0.8"/>
      </g>
     </g>
     <g id="text_1">
      <text style="font-size: 10px; font-family: 'DejaVu Sans', 'Bitstream Vera Sans', 'Computer Modern Sans Serif', 'Lucida Grande', 'Verdana', 'Geneva', 'Lucid', 'Arial', 'Helvetica', 'Avant Garde', sans-serif; text-anchor: middle" x="47.6525" y="246.665313" transform="rotate(-0 47.6525 246.665313)">0</text>
     </g>
    </g>
    <g id="xtick_2">
     <g id="line2d_3">
      <path d="M 84.412375 232.066875 
L 84.412375 22.318125 
" clip-path="url(#p28ea1e14ce)" style="fill: none; stroke: #b0b0b0; stroke-opacity: 0.25; stroke-width: 0.8; stroke-linecap: square"/>
     </g>
     <g id="line2d_4">
      <g>
       <use xlink:href="#mc39b8ddf39" x="84.412375" y="232.066875" style="stroke: #000000; stroke-width: 0.8"/>
      </g>
     </g>
     <g id="text_2">
      <text style="font-size: 10px; font-family: 'DejaVu Sans', 'Bitstream Vera Sans', 'Computer Modern Sans Serif', 'Lucida Grande', 'Verdana', 'Geneva', 'Lucid', 'Arial', 'Helvetica', 'Avant Garde', sans-serif; text-anchor: middle" x="84.412375" y="246.665313" transform="rotate(-0 84.412375 246.665313)">25</text>
     </g>
    </g>
    <g id="xtick_3">
     <g id="line2d_5">
      <path d="M 121.17225 232.066875 
L 121.17225 22.318125 
" clip-path="url(#p28ea1e14ce)" style="fill: none; stroke: #b0b0b0; stroke-opacity: 0.25; stroke-width: 0.8; stroke-linecap: square"/>
     </g>
     <g id="line2d_6">
      <g>
       <use xlink:href="#mc39b8ddf39" x="121.17225" y="232.066875" style="stroke: #000000; stroke-width: 0.8"/>
      </g>
     </g>
     <g id="text_3">
      <text style="font-size: 10px; font-family: 'DejaVu Sans', 'Bitstream Vera Sans', 'Computer Modern Sans Serif', 'Lucida Grande', 'Verdana', 'Geneva', 'Lucid', 'Arial', 'Helvetica', 'Avant Garde', sans-serif; text-anchor: middle" x="121.17225" y="246.665313" transform="rotate(-0 121.17225 246.665313)">50</text>
     </g>
    </g>
    <g id="xtick_4">
     <g id="line2d_7">
      <path d="M 157.932125 232.066875 
L 157.932125 22.318125 
" clip-path="url(#p28ea1e14ce)" style="fill: none; stroke: #b0b0b0; stroke-opacity: 0.25; stroke-width: 0.8; stroke-linecap: square"/>
     </g>
     <g id="line2d_8">
      <g>
       <use xlink:href="#mc39b8ddf39" x="157.932125" y="232.066875" style="stroke: #000000; stroke-width: 0.8"/>
      </g>
     </g>
     <g id="text_4">
      <text style="font-size: 10px; font-family: 'DejaVu Sans', 'Bitstream Vera Sans', 'Computer Modern Sans Serif', 'Lucida Grande', 'Verdana', 'Geneva', 'Lucid', 'Arial', 'Helvetica', 'Avant Garde', sans-serif; text-anchor: middle" x="157.932125" y="246.665313" transform="rotate(-0 157.932125 246.665313)">75</text>
     </g>
    </g>
    <g id="xtick_5">
     <g id="line2d_9">
      <path d="M 194.692 232.066875 
L 194.692 22.318125 
" clip-path="url(#p28ea1e14ce)" style="fill: none; stroke: #b0b0b0; stroke-opacity: 0.25; stroke-width: 0.8; stroke-linecap: square"/>
     </g>
     <g id="line2d_10">
      <g>
       <use xlink:href="#mc39b8ddf39" x="194.692" y="232.066875" style="stroke: #000000; stroke-width: 0.8"/>
      </g>
     </g>
     <g id="text_5">
      <text style="font-size: 10px; font-family: 'DejaVu Sans', 'Bitstream Vera Sans', 'Computer Modern Sans Serif', 'Lucida Grande', 'Verdana', 'Geneva', 'Lucid', 'Arial', 'Helvetica', 'Avant Garde', sans-serif; text-anchor: middle" x="194.692" y="246.665313" transform="rotate(-0 194.692 246.665313)">100</text>
     </g>
    </g>
    <g id="xtick_6">
     <g id="line2d_11">
      <path d="M 231.451875 232.066875 
L 231.451875 22.318125 
" clip-path="url(#p28ea1e14ce)" style="fill: none; stroke: #b0b0b0; stroke-opacity: 0.25; stroke-width: 0.8; stroke-linecap: square"/>
     </g>
     <g id="line2d_12">
      <g>
       <use xlink:href="#mc39b8ddf39" x="231.451875" y="232.066875" style="stroke: #000000; stroke-width: 0.8"/>
      </g>
     </g>
     <g id="text_6">
      <text style="font-size: 10px; font-family: 'DejaVu Sans', 'Bitstream Vera Sans', 'Computer Modern Sans Serif', 'Lucida Grande', 'Verdana', 'Geneva', 'Lucid', 'Arial', 'Helvetica', 'Avant Garde', sans-serif; text-anchor: middle" x="231.451875" y="246.665313" transform="rotate(-0 231.451875 246.665313)">125</text>
     </g>
    </g>
    <g id="xtick_7">
     <g id="line2d_13">
      <path d="M 268.21175 232.066875 
L 268.21175 22.318125 
" clip-path="url(#p28ea1e14ce)" style="fill: none; stroke: #b0b0b0; stroke-opacity: 0.25; stroke-width: 0.8; stroke-linecap: square"/>
     </g>
     <g id="line2d_14">
      <g>
       <use xlink:href="#mc39b8ddf39" x="268.21175" y="232.066875" style="stroke: #000000; stroke-width: 0.8"/>
      </g>
     </g>
     <g id="text_7">
      <text style="font-size: 10px; font-family: 'DejaVu Sans', 'Bitstream Vera Sans', 'Computer Modern Sans Serif', 'Lucida Grande', 'Verdana', 'Geneva', 'Lucid', 'Arial', 'Helvetica', 'Avant Garde', sans-serif; text-anchor: middle" x="268.21175" y="246.665313" transform="rotate(-0 268.21175 246.665313)">150</text>
     </g>
    </g>
    <g id="xtick_8">
     <g id="line2d_15">
      <path d="M 304.971625 232.066875 
L 304.971625 22.318125 
" clip-path="url(#p28ea1e14ce)" style="fill: none; stroke: #b0b0b0; stroke-opacity: 0.25; stroke-width: 0.8; stroke-linecap: square"/>
     </g>
     <g id="line2d_16">
      <g>
       <use xlink:href="#mc39b8ddf39" x="304.971625" y="232.066875" style="stroke: #000000; stroke-width: 0.8"/>
      </g>
     </g>
     <g id="text_8">
      <text style="font-size: 10px; font-family: 'DejaVu Sans', 'Bitstream Vera Sans', 'Computer Modern Sans Serif', 'Lucida Grande', 'Verdana', 'Geneva', 'Lucid', 'Arial', 'Helvetica', 'Avant Garde', sans-serif; text-anchor: middle" x="304.971625" y="246.665313" transform="rotate(-0 304.971625 246.665313)">175</text>
     </g>
    </g>
    <g id="xtick_9">
     <g id="line2d_17">
      <path d="M 341.7315 232.066875 
L 341.7315 22.318125 
" clip-path="url(#p28ea1e14ce)" style="fill: none; stroke: #b0b0b0; stroke-opacity: 0.25; stroke-width: 0.8; stroke-linecap: square"/>
     </g>
     <g id="line2d_18">
      <g>
       <use xlink:href="#mc39b8ddf39" x="341.7315" y="232.066875" style="stroke: #000000; stroke-width: 0.8"/>
      </g>
     </g>
     <g id="text_9">
      <text style="font-size: 10px; font-family: 'DejaVu Sans', 'Bitstream Vera Sans', 'Computer Modern Sans Serif', 'Lucida Grande', 'Verdana', 'Geneva', 'Lucid', 'Arial', 'Helvetica', 'Avant Garde', sans-serif; text-anchor: middle" x="341.7315" y="246.665313" transform="rotate(-0 341.7315 246.665313)">200</text>
     </g>
    </g>
    <g id="text_10">
     <!-- Capacity $\left[\frac{\text{mAh}}{\text{g}}\right]$ -->
     <g transform="translate(144.922 266.325)">
      <text>
       <tspan x="0" y="-0.41875" style="font-size: 14px; font-family: 'DejaVu Sans'">C</tspan>
       <tspan x="9.775391" y="-0.41875" style="font-size: 14px; font-family: 'DejaVu Sans'">a</tspan>
       <tspan x="18.354492" y="-0.41875" style="font-size: 14px; font-family: 'DejaVu Sans'">p</tspan>
       <tspan x="27.241211" y="-0.41875" style="font-size: 14px; font-family: 'DejaVu Sans'">a</tspan>
       <tspan x="35.820312" y="-0.41875" style="font-size: 14px; font-family: 'DejaVu Sans'">c</tspan>
       <tspan x="43.517578" y="-0.41875" style="font-size: 14px; font-family: 'DejaVu Sans'">i</tspan>
       <tspan x="47.407227" y="-0.41875" style="font-size: 14px; font-family: 'DejaVu Sans'">t</tspan>
       <tspan x="52.896484" y="-0.41875" style="font-size: 14px; font-family: 'DejaVu Sans'">y</tspan>
       <tspan x="61.181641" y="-0.41875" style="font-size: 14px; font-family: 'DejaVu Sans'"> </tspan>
       <tspan x="65.631836" y="2.426562" style="font-size: 10.487719px; font-family: 'STIXSizeTwoSym'">[</tspan>
       <tspan x="94.655676" y="2.426562" style="font-size: 10.487719px; font-family: 'STIXSizeTwoSym'">]</tspan>
       <tspan x="70.444153" y="-6.551563" style="font-size: 9.8px; font-family: 'DejaVu Sans'">m</tspan>
       <tspan x="78.444153" y="3.314062" style="font-size: 9.8px; font-family: 'DejaVu Sans'">g</tspan>
       <tspan x="79.99054" y="-6.551563" style="font-size: 9.8px; font-family: 'DejaVu Sans'">A</tspan>
       <tspan x="86.694543" y="-6.551563" style="font-size: 9.8px; font-family: 'DejaVu Sans'">h</tspan>
      </text>
      <rect x="70.444153" y="-4.051562" width="22.461523" height="0.875"/>
     </g>
    </g>
   </g>
   <g id="matplotlib.axis_2">
    <g id="ytick_1">
     <g id="line2d_19">
      <path d="M 47.6525 221.822863 
L 341.7315 221.822863 
" clip-path="url(#p28ea1e14ce)" style="fill: none; stroke: #b0b0b0; stroke-opacity: 0.25; stroke-width: 0.8; stroke-linecap: square"/>
     </g>
     <g id="line2d_20">
      <defs>
       <path id="m8647979ddc" d="M 0 0 
L -3.5 0 
" style="stroke: #000000; stroke-width: 0.8"/>
      </defs>
      <g>
       <use xlink:href="#m8647979ddc" x="47.6525" y="221.822863" style="stroke: #000000; stroke-width: 0.8"/>
      </g>
     </g>
     <g id="text_11">
      <text style="font-size: 10px; font-family: 'DejaVu Sans', 'Bitstream Vera Sans', 'Computer Modern Sans Serif', 'Lucida Grande', 'Verdana', 'Geneva', 'Lucid', 'Arial', 'Helvetica', 'Avant Garde', sans-serif; text-anchor: end" x="40.6525" y="225.622082" transform="rotate(-0 40.6525 225.622082)">1.5</text>
     </g>
    </g>
    <g id="ytick_2">
     <g id="line2d_21">
      <path d="M 47.6525 193.949034 
L 341.7315 193.949034 
" clip-path="url(#p28ea1e14ce)" style="fill: none; stroke: #b0b0b0; stroke-opacity: 0.25; stroke-width: 0.8; stroke-linecap: square"/>
     </g>
     <g id="line2d_22">
      <g>
       <use xlink:href="#m8647979ddc" x="47.6525" y="193.949034" style="stroke: #000000; stroke-width: 0.8"/>
      </g>
     </g>
     <g id="text_12">
      <text style="font-size: 10px; font-family: 'DejaVu Sans', 'Bitstream Vera Sans', 'Computer Modern Sans Serif', 'Lucida Grande', 'Verdana', 'Geneva', 'Lucid', 'Arial', 'Helvetica', 'Avant Garde', sans-serif; text-anchor: end" x="40.6525" y="197.748253" transform="rotate(-0 40.6525 197.748253)">2.0</text>
     </g>
    </g>
    <g id="ytick_3">
     <g id="line2d_23">
      <path d="M 47.6525 166.075205 
L 341.7315 166.075205 
" clip-path="url(#p28ea1e14ce)" style="fill: none; stroke: #b0b0b0; stroke-opacity: 0.25; stroke-width: 0.8; stroke-linecap: square"/>
     </g>
     <g id="line2d_24">
      <g>
       <use xlink:href="#m8647979ddc" x="47.6525" y="166.075205" style="stroke: #000000; stroke-width: 0.8"/>
      </g>
     </g>
     <g id="text_13">
      <text style="font-size: 10px; font-family: 'DejaVu Sans', 'Bitstream Vera Sans', 'Computer Modern Sans Serif', 'Lucida Grande', 'Verdana', 'Geneva', 'Lucid', 'Arial', 'Helvetica', 'Avant Garde', sans-serif; text-anchor: end" x="40.6525" y="169.874424" transform="rotate(-0 40.6525 169.874424)">2.5</text>
     </g>
    </g>
    <g id="ytick_4">
     <g id="line2d_25">
      <path d="M 47.6525 138.201376 
L 341.7315 138.201376 
" clip-path="url(#p28ea1e14ce)" style="fill: none; stroke: #b0b0b0; stroke-opacity: 0.25; stroke-width: 0.8; stroke-linecap: square"/>
     </g>
     <g id="line2d_26">
      <g>
       <use xlink:href="#m8647979ddc" x="47.6525" y="138.201376" style="stroke: #000000; stroke-width: 0.8"/>
      </g>
     </g>
     <g id="text_14">
      <text style="font-size: 10px; font-family: 'DejaVu Sans', 'Bitstream Vera Sans', 'Computer Modern Sans Serif', 'Lucida Grande', 'Verdana', 'Geneva', 'Lucid', 'Arial', 'Helvetica', 'Avant Garde', sans-serif; text-anchor: end" x="40.6525" y="142.000595" transform="rotate(-0 40.6525 142.000595)">3.0</text>
     </g>
    </g>
    <g id="ytick_5">
     <g id="line2d_27">
      <path d="M 47.6525 110.327547 
L 341.7315 110.327547 
" clip-path="url(#p28ea1e14ce)" style="fill: none; stroke: #b0b0b0; stroke-opacity: 0.25; stroke-width: 0.8; stroke-linecap: square"/>
     </g>
     <g id="line2d_28">
      <g>
       <use xlink:href="#m8647979ddc" x="47.6525" y="110.327547" style="stroke: #000000; stroke-width: 0.8"/>
      </g>
     </g>
     <g id="text_15">
      <text style="font-size: 10px; font-family: 'DejaVu Sans', 'Bitstream Vera Sans', 'Computer Modern Sans Serif', 'Lucida Grande', 'Verdana', 'Geneva', 'Lucid', 'Arial', 'Helvetica', 'Avant Garde', sans-serif; text-anchor: end" x="40.6525" y="114.126766" transform="rotate(-0 40.6525 114.126766)">3.5</text>
     </g>
    </g>
    <g id="ytick_6">
     <g id="line2d_29">
      <path d="M 47.6525 82.453718 
L 341.7315 82.453718 
" clip-path="url(#p28ea1e14ce)" style="fill: none; stroke: #b0b0b0; stroke-opacity: 0.25; stroke-width: 0.8; stroke-linecap: square"/>
     </g>
     <g id="line2d_30">
      <g>
       <use xlink:href="#m8647979ddc" x="47.6525" y="82.453718" style="stroke: #000000; stroke-width: 0.8"/>
      </g>
     </g>
     <g id="text_16">
      <text style="font-size: 10px; font-family: 'DejaVu Sans', 'Bitstream Vera Sans', 'Computer Modern Sans Serif', 'Lucida Grande', 'Verdana', 'Geneva', 'Lucid', 'Arial', 'Helvetica', 'Avant Garde', sans-serif; text-anchor: end" x="40.6525" y="86.252937" transform="rotate(-0 40.6525 86.252937)">4.0</text>
     </g>
    </g>
    <g id="ytick_7">
     <g id="line2d_31">
      <path d="M 47.6525 54.579889 
L 341.7315 54.579889 
" clip-path="url(#p28ea1e14ce)" style="fill: none; stroke: #b0b0b0; stroke-opacity: 0.25; stroke-width: 0.8; stroke-linecap: square"/>
     </g>
     <g id="line2d_32">
      <g>
       <use xlink:href="#m8647979ddc" x="47.6525" y="54.579889" style="stroke: #000000; stroke-width: 0.8"/>
      </g>
     </g>
     <g id="text_17">
      <text style="font-size: 10px; font-family: 'DejaVu Sans', 'Bitstream Vera Sans', 'Computer Modern Sans Serif', 'Lucida Grande', 'Verdana', 'Geneva', 'Lucid', 'Arial', 'Helvetica', 'Avant Garde', sans-serif; text-anchor: end" x="40.6525" y="58.379107" transform="rotate(-0 40.6525 58.379107)">4.5</text>
     </g>
    </g>
    <g id="ytick_8">
     <g id="line2d_33">
      <path d="M 47.6525 26.706059 
L 341.7315 26.706059 
" clip-path="url(#p28ea1e14ce)" style="fill: none; stroke: #b0b0b0; stroke-opacity: 0.25; stroke-width: 0.8; stroke-linecap: square"/>
     </g>
     <g id="line2d_34">
      <g>
       <use xlink:href="#m8647979ddc" x="47.6525" y="26.706059" style="stroke: #000000; stroke-width: 0.8"/>
      </g>
     </g>
     <g id="text_18">
      <text style="font-size: 10px; font-family: 'DejaVu Sans', 'Bitstream Vera Sans', 'Computer Modern Sans Serif', 'Lucida Grande', 'Verdana', 'Geneva', 'Lucid', 'Arial', 'Helvetica', 'Avant Garde', sans-serif; text-anchor: end" x="40.6525" y="30.505278" transform="rotate(-0 40.6525 30.505278)">5.0</text>
     </g>
    </g>
    <g id="text_19">
     <text style="font-size: 14px; font-family: 'DejaVu Sans', 'Bitstream Vera Sans', 'Computer Modern Sans Serif', 'Lucida Grande', 'Verdana', 'Geneva', 'Lucid', 'Arial', 'Helvetica', 'Avant Garde', sans-serif; text-anchor: middle" x="17.837813" y="127.1925" transform="rotate(-90 17.837813 127.1925)">Potential [V]</text>
    </g>
   </g>
   <g id="line2d_35">
    <path d="M 47.6525 279.098731 
L 47.952707 178.096408 
L 48.252922 162.963239 
L 48.553138 152.401006 
L 48.85336 146.454369 
L 49.153579 141.808948 
L 49.453799 137.505219 
L 49.754021 133.616204 
L 50.05424 130.350086 
L 50.354462 127.62128 
L 50.654684 125.304371 
L 50.954906 123.338937 
L 51.25513 121.663744 
L 51.55535 120.232632 
L 51.855572 118.993699 
L 52.155797 117.901821 
L 52.456021 116.944091 
L 52.756245 115.353683 
L 53.056466 114.462437 
L 53.356691 113.618255 
L 53.656919 112.690763 
L 53.957142 112.302883 
L 54.257367 111.469852 
L 54.557594 110.657078 
L 54.857819 109.832048 
L 55.158048 109.057525 
L 55.458273 108.271559 
L 55.7585 107.488663 
L 56.058726 106.68591 
L 56.358952 105.901791 
L 56.65918 105.123294 
L 56.959403 104.358354 
L 57.259626 103.599569 
L 57.559848 102.847734 
L 57.860066 102.107942 
L 58.16029 101.391901 
L 58.460511 100.663725 
L 58.760734 99.946182 
L 59.060957 99.22953 
L 59.36118 98.528614 
L 59.661405 97.833068 
L 59.961628 97.121958 
L 60.261848 96.421747 
L 60.562071 95.733844 
L 60.862289 95.059325 
L 61.162507 94.37828 
L 61.462727 93.70182 
L 61.762948 93.033628 
L 62.063175 92.38294 
L 62.363398 91.721526 
L 62.663621 91.076195 
L 62.963846 90.454176 
L 63.264067 89.834005 
L 63.564291 89.366883 
L 63.864511 88.93194 
L 64.16473 88.583549 
L 64.46495 88.165764 
L 64.765169 87.747634 
L 65.06539 87.274783 
L 65.365612 86.784082 
L 65.66583 86.342201 
L 65.96605 85.813062 
L 66.266264 85.252263 
L 66.566481 84.686094 
L 66.866697 84.113599 
L 67.166914 83.516914 
L 67.467135 82.892782 
L 67.767349 82.427507 
L 68.067563 81.77339 
L 68.367782 81.078974 
L 68.668003 80.369964 
L 68.968224 79.671694 
L 69.268445 78.945193 
L 69.568662 78.228527 
L 69.868883 77.515131 
L 70.1691 76.79275 
L 70.469318 76.048917 
L 70.769536 75.312394 
L 71.069754 74.559417 
L 71.369974 73.801149 
L 71.670194 73.030043 
L 71.970412 72.238706 
L 72.27063 71.414754 
L 72.314682 71.306297 
" clip-path="url(#p28ea1e14ce)" style="fill: none; stroke-dasharray: 4.44,1.92; stroke-dashoffset: 0; stroke: #1f77b4; stroke-opacity: 0.6; stroke-width: 1.2"/>
   </g>
   <g id="line2d_36">
    <path d="M 47.6525 87.914572 
L 47.952409 131.712428 
L 48.252316 136.010163 
L 48.552222 139.173899 
L 48.85213 141.753085 
L 49.152034 144.014768 
L 49.451945 146.125848 
L 49.751849 148.155772 
L 50.051756 150.152175 
L 50.351666 152.12799 
L 50.651573 154.112869 
L 50.951483 156.115253 
L 51.251391 158.145682 
L 51.551302 160.205418 
L 51.851213 162.301905 
L 52.151122 164.445362 
L 52.451034 166.639845 
L 52.750942 168.891321 
L 53.050846 171.196255 
L 53.109058 171.649939 
" clip-path="url(#p28ea1e14ce)" style="fill: none; stroke: #1f77b4; stroke-opacity: 0.95; stroke-width: 1.4; stroke-linecap: square"/>
   </g>
   <g id="line2d_37">
    <path d="M 47.6525 154.504098 
L 47.952714 104.082095 
L 48.252933 100.594849 
L 48.55315 98.215578 
L 48.853365 96.294124 
L 49.153586 94.621829 
L 49.453802 93.112179 
L 49.754018 91.710175 
L 50.054236 90.386284 
L 50.354452 89.123427 
L 50.654673 87.952559 
L 50.954891 86.773356 
L 51.25511 85.619381 
L 51.55533 84.497876 
L 51.855547 83.395086 
L 52.155768 82.316313 
L 52.455985 81.258593 
L 52.756201 80.211745 
L 53.056418 79.178269 
L 53.356633 78.161592 
L 53.65685 77.156187 
L 53.957066 76.156151 
L 54.257283 75.164888 
L 54.557502 74.183832 
L 54.857716 73.209395 
L 55.157936 72.245937 
L 55.45344 71.306483 
" clip-path="url(#p28ea1e14ce)" style="fill: none; stroke-dasharray: 4.44,1.92; stroke-dashoffset: 0; stroke: #ff7f0e; stroke-opacity: 0.6; stroke-width: 1.2"/>
   </g>
   <g id="line2d_38">
    <path d="M 47.6525 88.264452 
L 47.952408 132.828218 
L 48.252312 137.294472 
L 48.552221 140.390569 
L 48.852126 142.932739 
L 49.152029 145.223969 
L 49.451936 147.384399 
L 49.751839 149.477815 
L 50.051746 151.537551 
L 50.351654 153.575277 
L 50.65156 155.61505 
L 50.951471 157.658318 
L 51.25138 159.672584 
L 51.551288 161.707864 
L 51.851196 163.740672 
L 52.151105 165.782545 
L 52.451017 167.831541 
L 52.750926 169.899624 
L 53.001229 171.649487 
" clip-path="url(#p28ea1e14ce)" style="fill: none; stroke: #ff7f0e; stroke-opacity: 0.95; stroke-width: 1.4; stroke-linecap: square"/>
   </g>
   <g id="line2d_39">
    <path d="M 47.6525 153.885947 
L 47.952711 101.456284 
L 48.252931 97.907739 
L 48.553147 95.504902 
L 48.853364 93.569718 
L 49.153584 91.89321 
L 49.453801 90.370361 
L 49.754015 88.954814 
L 50.05423 87.616316 
L 50.354443 86.332352 
L 50.654661 85.091744 
L 50.954875 83.886943 
L 51.255091 82.703501 
L 51.555307 81.55746 
L 51.855522 80.420711 
L 52.15574 79.317402 
L 52.455955 78.226773 
L 52.756171 77.167192 
L 53.05639 76.1301 
L 53.356604 75.115019 
L 53.656821 74.116631 
L 53.957037 73.126697 
L 54.257251 72.141973 
L 54.509483 71.307546 
" clip-path="url(#p28ea1e14ce)" style="fill: none; stroke-dasharray: 4.44,1.92; stroke-dashoffset: 0; stroke: #2ca02c; stroke-opacity: 0.6; stroke-width: 1.2"/>
   </g>
   <g id="line2d_40">
    <path d="M 47.6525 88.79799 
L 47.952407 133.465455 
L 48.252321 137.891689 
L 48.55223 141.129657 
L 48.852143 143.795316 
L 49.152053 146.206952 
L 49.451965 148.485954 
L 49.751881 150.690272 
L 50.051792 152.851155 
L 50.351705 154.99347 
L 50.651618 157.114678 
L 50.951531 159.22084 
L 51.251446 161.315665 
L 51.551356 163.361844 
L 51.851272 165.414801 
L 52.151187 167.460542 
L 52.451098 169.497855 
L 52.751012 171.536551 
L 52.767237 171.647653 
" clip-path="url(#p28ea1e14ce)" style="fill: none; stroke: #2ca02c; stroke-opacity: 0.95; stroke-width: 1.4; stroke-linecap: square"/>
   </g>
   <g id="line2d_41">
    <path d="M 47.6525 153.651622 
L 47.95271 99.552933 
L 48.252924 95.942304 
L 48.553136 93.526973 
L 48.85335 91.59926 
L 49.153563 89.923363 
L 49.453778 88.401219 
L 49.753991 86.987439 
L 50.054202 85.648502 
L 50.354422 84.363036 
L 50.654638 83.119092 
L 50.954855 81.910583 
L 51.255073 80.730849 
L 51.555289 79.580223 
L 51.855507 78.47508 
L 52.155723 77.399816 
L 52.455935 76.349805 
L 52.756151 75.319412 
L 53.056367 74.297924 
L 53.356584 73.286777 
L 53.6568 72.281106 
L 53.946007 71.307706 
" clip-path="url(#p28ea1e14ce)" style="fill: none; stroke-dasharray: 4.44,1.92; stroke-dashoffset: 0; stroke: #d62728; stroke-opacity: 0.6; stroke-width: 1.2"/>
   </g>
   <g id="line2d_42">
    <path d="M 47.6525 89.035545 
L 47.952405 134.052198 
L 48.252318 138.218349 
L 48.552231 141.462125 
L 48.852139 144.311523 
L 49.152051 146.867223 
L 49.451961 149.269182 
L 49.751873 151.591993 
L 50.051787 153.859644 
L 50.351695 156.090439 
L 50.651611 158.285706 
L 50.951524 159.907414 
L 51.251437 162.187387 
L 51.551355 164.413795 
L 51.85127 166.593047 
L 52.151186 168.738631 
L 52.451101 170.852715 
L 52.565167 171.648078 
" clip-path="url(#p28ea1e14ce)" style="fill: none; stroke: #d62728; stroke-opacity: 0.95; stroke-width: 1.4; stroke-linecap: square"/>
   </g>
   <g id="line2d_43">
    <path d="M 47.6525 154.255884 
L 47.952708 98.802853 
L 48.252918 95.052108 
L 48.553132 92.562811 
L 48.853344 90.57635 
L 49.153557 88.852072 
L 49.45377 87.295983 
L 49.753982 85.840322 
L 50.054198 84.467174 
L 50.354414 83.147762 
L 50.654628 81.875335 
L 50.954845 80.649666 
L 51.255059 79.473893 
L 51.555275 78.354475 
L 51.855492 77.274745 
L 52.155706 76.22492 
L 52.455925 75.191018 
L 52.756144 74.173996 
L 53.056363 73.147112 
L 53.356582 72.132828 
L 53.600747 71.308423 
" clip-path="url(#p28ea1e14ce)" style="fill: none; stroke-dasharray: 4.44,1.92; stroke-dashoffset: 0; stroke: #9467bd; stroke-opacity: 0.6; stroke-width: 1.2"/>
   </g>
   <g id="line2d_44">
    <path d="M 47.6525 88.539129 
L 47.952403 133.660358 
L 48.252312 137.800312 
L 48.552224 140.727968 
L 48.852133 143.609291 
L 49.152043 146.332993 
L 49.451952 148.921057 
L 49.751861 151.42831 
L 50.051776 153.888765 
L 50.351688 156.298022 
L 50.651604 158.649847 
L 50.95152 160.947045 
L 51.251433 163.192447 
L 51.551351 165.390532 
L 51.851268 167.546749 
L 52.151184 169.666907 
L 52.435456 171.646324 
" clip-path="url(#p28ea1e14ce)" style="fill: none; stroke: #9467bd; stroke-opacity: 0.95; stroke-width: 1.4; stroke-linecap: square"/>
   </g>
   <g id="line2d_45">
    <path d="M 47.6525 154.14215 
L 47.95271 97.841163 
L 48.252923 94.029902 
L 48.553136 91.524244 
L 48.853352 89.526525 
L 49.153564 87.804972 
L 49.453785 86.247301 
L 49.754002 84.801409 
L 50.054215 83.428952 
L 50.354431 82.12537 
L 50.654645 80.876229 
L 50.954863 79.702397 
L 51.255079 78.590289 
L 51.555296 77.51319 
L 51.855515 76.459325 
L 52.155731 75.42234 
L 52.455946 74.390006 
L 52.756161 73.362351 
L 53.056372 72.338178 
L 53.356588 71.31273 
L 53.357599 71.305871 
" clip-path="url(#p28ea1e14ce)" style="fill: none; stroke-dasharray: 4.44,1.92; stroke-dashoffset: 0; stroke: #8c564b; stroke-opacity: 0.6; stroke-width: 1.2"/>
   </g>
   <g id="line2d_46">
    <path d="M 47.6525 88.727706 
L 47.952411 133.938823 
L 48.252325 138.124074 
L 48.552238 140.923669 
L 48.852157 143.627234 
L 49.152071 146.442141 
L 49.451985 149.137253 
L 49.751899 151.741067 
L 50.051809 154.275581 
L 50.351725 156.743067 
L 50.651641 159.144761 
L 50.951553 161.476888 
L 51.251469 163.755013 
L 51.551381 165.975959 
L 51.851297 168.14572 
L 52.151213 170.27485 
L 52.347366 171.649673 
" clip-path="url(#p28ea1e14ce)" style="fill: none; stroke: #8c564b; stroke-opacity: 0.95; stroke-width: 1.4; stroke-linecap: square"/>
   </g>
   <g id="line2d_47">
    <path d="M 47.6525 154.056754 
L 47.952707 97.028547 
L 48.252918 93.177174 
L 48.553134 90.670199 
L 48.853347 88.674328 
L 49.153561 86.957879 
L 49.453774 85.407943 
L 49.753987 83.96899 
L 50.054205 82.615552 
L 50.354419 81.34363 
L 50.654634 80.155018 
L 50.954849 79.035175 
L 51.255063 77.951829 
L 51.55528 76.894535 
L 51.855495 75.848485 
L 52.155708 74.805491 
L 52.455927 73.768612 
L 52.756141 72.736279 
L 53.056358 71.704131 
L 53.171771 71.305154 
" clip-path="url(#p28ea1e14ce)" style="fill: none; stroke-dasharray: 4.44,1.92; stroke-dashoffset: 0; stroke: #e377c2; stroke-opacity: 0.6; stroke-width: 1.2"/>
   </g>
   <g id="line2d_48">
    <path d="M 47.6525 88.913212 
L 47.952409 134.19706 
L 48.25232 138.462962 
L 48.552231 141.215692 
L 48.852145 143.750099 
L 49.152053 146.518832 
L 49.451962 149.318799 
L 49.751874 152.010575 
L 50.051783 154.616316 
L 50.351699 157.141593 
L 50.65161 159.587786 
L 50.951521 161.958883 
L 51.251436 164.265584 
L 51.551349 166.512581 
L 51.851265 168.706519 
L 52.151178 170.848223 
L 52.264464 171.647733 
" clip-path="url(#p28ea1e14ce)" style="fill: none; stroke: #e377c2; stroke-opacity: 0.95; stroke-width: 1.4; stroke-linecap: square"/>
   </g>
   <g id="line2d_49">
    <path d="M 47.6525 153.943632 
L 47.952709 96.280926 
L 48.252921 92.400804 
L 48.553136 89.891184 
L 48.853347 87.905335 
L 49.153562 86.191797 
L 49.453773 84.650115 
L 49.753982 83.230885 
L 50.054195 81.915421 
L 50.354405 80.702805 
L 50.654618 79.568607 
L 50.954832 78.483693 
L 51.255043 77.41837 
L 51.555258 76.370486 
L 51.85547 75.321352 
L 52.155682 74.275674 
L 52.455898 73.234462 
L 52.75611 72.199045 
L 53.013033 71.305499 
" clip-path="url(#p28ea1e14ce)" style="fill: none; stroke-dasharray: 4.44,1.92; stroke-dashoffset: 0; stroke: #7f7f7f; stroke-opacity: 0.6; stroke-width: 1.2"/>
   </g>
   <g id="line2d_50">
    <path d="M 47.6525 89.124995 
L 47.952409 134.450458 
L 48.252325 138.793316 
L 48.552234 141.541035 
L 48.852149 144.001304 
L 49.152065 146.618396 
L 49.451979 149.46806 
L 49.751897 152.247253 
L 50.051813 154.920288 
L 50.351731 157.495872 
L 50.65165 159.986059 
L 50.951567 162.392843 
L 51.251487 164.7284 
L 51.551405 166.996238 
L 51.851323 169.211907 
L 52.151245 171.372696 
L 52.190064 171.649062 
" clip-path="url(#p28ea1e14ce)" style="fill: none; stroke: #7f7f7f; stroke-opacity: 0.95; stroke-width: 1.4; stroke-linecap: square"/>
   </g>
   <g id="line2d_51">
    <path d="M 47.6525 153.837129 
L 47.952707 95.609823 
L 48.25292 91.71185 
L 48.553133 89.197739 
L 48.853345 87.220595 
L 49.153555 85.515776 
L 49.453769 83.987824 
L 49.753981 82.599018 
L 50.054195 81.335018 
L 50.354408 80.171632 
L 50.65462 79.075633 
L 50.954836 78.011294 
L 51.255048 76.959157 
L 51.555258 75.909172 
L 51.855473 74.862936 
L 52.155684 73.813723 
L 52.455895 72.768896 
L 52.756106 71.719523 
L 52.875261 71.307015 
" clip-path="url(#p28ea1e14ce)" style="fill: none; stroke-dasharray: 4.44,1.92; stroke-dashoffset: 0; stroke: #bcbd22; stroke-opacity: 0.6; stroke-width: 1.2"/>
   </g>
   <g id="line2d_52">
    <path d="M 47.6525 89.303643 
L 47.952411 134.719952 
L 48.25232 139.135022 
L 48.552235 141.892231 
L 48.852145 144.313463 
L 49.152058 146.822378 
L 49.451974 149.63658 
L 49.751885 152.490802 
L 50.051802 155.228486 
L 50.351716 157.857541 
L 50.651632 160.389237 
L 50.951551 162.832187 
L 51.251464 165.198792 
L 51.55138 167.498807 
L 51.851299 169.731808 
L 52.114614 171.649235 
" clip-path="url(#p28ea1e14ce)" style="fill: none; stroke: #bcbd22; stroke-opacity: 0.95; stroke-width: 1.4; stroke-linecap: square"/>
   </g>
   <g id="line2d_53">
    <path d="M 47.6525 153.731317 
L 47.952711 94.96917 
L 48.252927 91.06943 
L 48.553141 88.566496 
L 48.853352 86.591279 
L 49.153569 84.899472 
L 49.453782 83.395352 
L 49.753996 82.052986 
L 50.054211 80.842629 
L 50.354425 79.727012 
L 50.654642 78.655655 
L 50.954856 77.604661 
L 51.25507 76.556697 
L 51.555287 75.510647 
L 51.8555 74.460716 
L 52.155717 73.409934 
L 52.455933 72.358594 
L 52.756145 71.311666 
L 52.757496 71.304356 
" clip-path="url(#p28ea1e14ce)" style="fill: none; stroke-dasharray: 4.44,1.92; stroke-dashoffset: 0; stroke: #17becf; stroke-opacity: 0.6; stroke-width: 1.2"/>
   </g>
   <g id="line2d_54">
    <path d="M 47.6525 89.491595 
L 47.95241 134.970094 
L 48.252328 139.448497 
L 48.552247 142.218186 
L 48.852161 144.624373 
L 49.152079 147.057647 
L 49.451991 149.771765 
L 49.751909 152.667416 
L 50.051829 155.457601 
L 50.351743 158.129241 
L 50.651662 160.691188 
L 50.951577 163.157796 
L 51.251493 165.537852 
L 51.551412 167.840951 
L 51.851324 170.081435 
L 52.066004 171.647653 
" clip-path="url(#p28ea1e14ce)" style="fill: none; stroke: #17becf; stroke-opacity: 0.95; stroke-width: 1.4; stroke-linecap: square"/>
   </g>
   <g id="line2d_55">
    <path d="M 47.6525 119.988551 
L 47.655075 69.080965 
" clip-path="url(#p28ea1e14ce)" style="fill: none; stroke-dasharray: 4.44,1.92; stroke-dashoffset: 0; stroke: #1f77b4; stroke-opacity: 0.6; stroke-width: 1.2"/>
   </g>
   <g id="line2d_56">
    <path d="M 47.6525 166.317585 
L 47.65279 188.673248 
" clip-path="url(#p28ea1e14ce)" style="fill: none; stroke: #1f77b4; stroke-opacity: 0.95; stroke-width: 1.4; stroke-linecap: square"/>
   </g>
   <g id="line2d_57">
    <path d="M 47.6525 107.865643 
L 47.653581 67.408949 
" clip-path="url(#p28ea1e14ce)" style="fill: none; stroke-dasharray: 4.44,1.92; stroke-dashoffset: 0; stroke: #ff7f0e; stroke-opacity: 0.6; stroke-width: 1.2"/>
   </g>
   <g id="line2d_58">
    <path d="M 47.6525 164.972122 
L 47.65279 187.910342 
" clip-path="url(#p28ea1e14ce)" style="fill: none; stroke: #ff7f0e; stroke-opacity: 0.95; stroke-width: 1.4; stroke-linecap: square"/>
   </g>
   <g id="line2d_59">
    <path d="M 47.6525 106.099073 
L 47.653381 66.706957 
" clip-path="url(#p28ea1e14ce)" style="fill: none; stroke-dasharray: 4.44,1.92; stroke-dashoffset: 0; stroke: #2ca02c; stroke-opacity: 0.6; stroke-width: 1.2"/>
   </g>
   <g id="line2d_60">
    <path d="M 47.6525 164.258022 
L 47.65279 187.592375 
" clip-path="url(#p28ea1e14ce)" style="fill: none; stroke: #2ca02c; stroke-opacity: 0.95; stroke-width: 1.4; stroke-linecap: square"/>
   </g>
   <g id="line2d_61">
    <path d="M 47.6525 105.088816 
L 47.653282 66.359017 
" clip-path="url(#p28ea1e14ce)" style="fill: none; stroke-dasharray: 4.44,1.92; stroke-dashoffset: 0; stroke: #d62728; stroke-opacity: 0.6; stroke-width: 1.2"/>
   </g>
   <g id="line2d_62">
    <path d="M 47.6525 163.806464 
L 47.65279 187.431417 
" clip-path="url(#p28ea1e14ce)" style="fill: none; stroke: #d62728; stroke-opacity: 0.95; stroke-width: 1.4; stroke-linecap: square"/>
   </g>
   <g id="line2d_63">
    <path d="M 47.6525 104.396261 
L 47.653281 64.999506 
" clip-path="url(#p28ea1e14ce)" style="fill: none; stroke-dasharray: 4.44,1.92; stroke-dashoffset: 0; stroke: #9467bd; stroke-opacity: 0.6; stroke-width: 1.2"/>
   </g>
   <g id="line2d_64">
    <path d="M 47.6525 162.944511 
L 47.65279 186.78776 
" clip-path="url(#p28ea1e14ce)" style="fill: none; stroke: #9467bd; stroke-opacity: 0.95; stroke-width: 1.4; stroke-linecap: square"/>
   </g>
   <g id="line2d_65">
    <path d="M 47.6525 103.52111 
L 47.653182 65.492665 
" clip-path="url(#p28ea1e14ce)" style="fill: none; stroke-dasharray: 4.44,1.92; stroke-dashoffset: 0; stroke: #8c564b; stroke-opacity: 0.6; stroke-width: 1.2"/>
   </g>
   <g id="line2d_66">
    <path d="M 47.6525 162.95137 
L 47.65279 186.974755 
" clip-path="url(#p28ea1e14ce)" style="fill: none; stroke: #8c564b; stroke-opacity: 0.95; stroke-width: 1.4; stroke-linecap: square"/>
   </g>
   <g id="line2d_67">
    <path d="M 47.6525 103.225326 
L 47.653182 64.75904 
" clip-path="url(#p28ea1e14ce)" style="fill: none; stroke-dasharray: 4.44,1.92; stroke-dashoffset: 0; stroke: #e377c2; stroke-opacity: 0.6; stroke-width: 1.2"/>
   </g>
   <g id="line2d_68">
    <path d="M 47.6525 162.45284 
L 47.65279 186.660058 
" clip-path="url(#p28ea1e14ce)" style="fill: none; stroke: #e377c2; stroke-opacity: 0.95; stroke-width: 1.4; stroke-linecap: square"/>
   </g>
   <g id="line2d_69">
    <path d="M 47.6525 102.701012 
L 47.653182 63.893911 
" clip-path="url(#p28ea1e14ce)" style="fill: none; stroke-dasharray: 4.44,1.92; stroke-dashoffset: 0; stroke: #7f7f7f; stroke-opacity: 0.6; stroke-width: 1.2"/>
   </g>
   <g id="line2d_70">
    <path d="M 47.6525 161.905147 
L 47.65279 186.254488 
" clip-path="url(#p28ea1e14ce)" style="fill: none; stroke: #7f7f7f; stroke-opacity: 0.95; stroke-width: 1.4; stroke-linecap: square"/>
   </g>
   <g id="line2d_71">
    <path d="M 47.6525 102.123253 
L 47.653182 62.994038 
" clip-path="url(#p28ea1e14ce)" style="fill: none; stroke-dasharray: 4.44,1.92; stroke-dashoffset: 0; stroke: #bcbd22; stroke-opacity: 0.6; stroke-width: 1.2"/>
   </g>
   <g id="line2d_72">
    <path d="M 47.6525 161.344082 
L 47.65279 185.831001 
" clip-path="url(#p28ea1e14ce)" style="fill: none; stroke: #bcbd22; stroke-opacity: 0.95; stroke-width: 1.4; stroke-linecap: square"/>
   </g>
   <g id="line2d_73">
    <path d="M 47.6525 101.559451 
L 47.653083 64.445818 
" clip-path="url(#p28ea1e14ce)" style="fill: none; stroke-dasharray: 4.44,1.92; stroke-dashoffset: 0; stroke: #17becf; stroke-opacity: 0.6; stroke-width: 1.2"/>
   </g>
   <g id="line2d_74">
    <path d="M 47.6525 161.853244 
L 47.65279 186.403669 
" clip-path="url(#p28ea1e14ce)" style="fill: none; stroke: #17becf; stroke-opacity: 0.95; stroke-width: 1.4; stroke-linecap: square"/>
   </g>
   <g id="line2d_75">
    <path d="M 47.6525 66.710838 
L 47.652885 30.28968 
" clip-path="url(#p28ea1e14ce)" style="fill: none; stroke-dasharray: 4.44,1.92; stroke-dashoffset: 0; stroke: #1f77b4; stroke-opacity: 0.6; stroke-width: 1.2"/>
   </g>
   <g id="line2d_76">
    <path d="M 47.6525 195.282628 
L 47.652889 224.506871 
" clip-path="url(#p28ea1e14ce)" style="fill: none; stroke: #1f77b4; stroke-opacity: 0.95; stroke-width: 1.4; stroke-linecap: square"/>
   </g>
   <g id="line2d_77">
    <path d="M 47.6525 70.847269 
L 47.652885 35.991266 
" clip-path="url(#p28ea1e14ce)" style="fill: none; stroke-dasharray: 4.44,1.92; stroke-dashoffset: 0; stroke: #ff7f0e; stroke-opacity: 0.6; stroke-width: 1.2"/>
   </g>
   <g id="line2d_78">
    <path d="M 47.6525 197.150604 
L 47.652889 226.200891 
" clip-path="url(#p28ea1e14ce)" style="fill: none; stroke: #ff7f0e; stroke-opacity: 0.95; stroke-width: 1.4; stroke-linecap: square"/>
   </g>
   <g id="line2d_79">
    <path d="M 47.6525 72.399664 
L 47.65308 29.228239 
" clip-path="url(#p28ea1e14ce)" style="fill: none; stroke-dasharray: 4.44,1.92; stroke-dashoffset: 0; stroke: #2ca02c; stroke-opacity: 0.6; stroke-width: 1.2"/>
   </g>
   <g id="line2d_80">
    <path d="M 47.6525 194.950426 
L 47.652888 224.295174 
" clip-path="url(#p28ea1e14ce)" style="fill: none; stroke: #2ca02c; stroke-opacity: 0.95; stroke-width: 1.4; stroke-linecap: square"/>
   </g>
   <g id="line2d_81">
    <path d="M 47.6525 71.282745 
L 47.652885 36.795787 
" clip-path="url(#p28ea1e14ce)" style="fill: none; stroke-dasharray: 4.44,1.92; stroke-dashoffset: 0; stroke: #d62728; stroke-opacity: 0.6; stroke-width: 1.2"/>
   </g>
   <g id="line2d_82">
    <path d="M 47.6525 197.290202 
L 47.652889 226.492109 
" clip-path="url(#p28ea1e14ce)" style="fill: none; stroke: #d62728; stroke-opacity: 0.95; stroke-width: 1.4; stroke-linecap: square"/>
   </g>
   <g id="line2d_83">
    <path d="M 47.6525 72.679631 
L 47.65308 29.653772 
" clip-path="url(#p28ea1e14ce)" style="fill: none; stroke-dasharray: 4.44,1.92; stroke-dashoffset: 0; stroke: #9467bd; stroke-opacity: 0.6; stroke-width: 1.2"/>
   </g>
   <g id="line2d_84">
    <path d="M 47.6525 195.044535 
L 47.652888 224.435012 
" clip-path="url(#p28ea1e14ce)" style="fill: none; stroke: #9467bd; stroke-opacity: 0.95; stroke-width: 1.4; stroke-linecap: square"/>
   </g>
   <g id="line2d_85">
    <path d="M 47.6525 71.388357 
L 47.65308 27.892891 
" clip-path="url(#p28ea1e14ce)" style="fill: none; stroke-dasharray: 4.44,1.92; stroke-dashoffset: 0; stroke: #8c564b; stroke-opacity: 0.6; stroke-width: 1.2"/>
   </g>
   <g id="line2d_86">
    <path d="M 47.6525 194.292348 
L 47.652888 223.67808 
" clip-path="url(#p28ea1e14ce)" style="fill: none; stroke: #8c564b; stroke-opacity: 0.95; stroke-width: 1.4; stroke-linecap: square"/>
   </g>
   <g id="line2d_87">
    <path d="M 47.6525 70.733017 
L 47.652885 35.990655 
" clip-path="url(#p28ea1e14ce)" style="fill: none; stroke-dasharray: 4.44,1.92; stroke-dashoffset: 0; stroke: #e377c2; stroke-opacity: 0.6; stroke-width: 1.2"/>
   </g>
   <g id="line2d_88">
    <path d="M 47.6525 196.80961 
L 47.652889 226.100448 
" clip-path="url(#p28ea1e14ce)" style="fill: none; stroke: #e377c2; stroke-opacity: 0.95; stroke-width: 1.4; stroke-linecap: square"/>
   </g>
   <g id="line2d_89">
    <path d="M 47.6525 72.249977 
L 47.65308 28.803848 
" clip-path="url(#p28ea1e14ce)" style="fill: none; stroke-dasharray: 4.44,1.92; stroke-dashoffset: 0; stroke: #7f7f7f; stroke-opacity: 0.6; stroke-width: 1.2"/>
   </g>
   <g id="line2d_90">
    <path d="M 47.6525 194.620237 
L 47.652888 224.084786 
" clip-path="url(#p28ea1e14ce)" style="fill: none; stroke: #7f7f7f; stroke-opacity: 0.95; stroke-width: 1.4; stroke-linecap: square"/>
   </g>
   <g id="line2d_91">
    <path d="M 47.6525 70.958278 
L 47.652885 36.175882 
" clip-path="url(#p28ea1e14ce)" style="fill: none; stroke-dasharray: 4.44,1.92; stroke-dashoffset: 0; stroke: #bcbd22; stroke-opacity: 0.6; stroke-width: 1.2"/>
   </g>
   <g id="line2d_92">
    <path d="M 47.6525 196.878306 
L 47.652889 226.239495 
" clip-path="url(#p28ea1e14ce)" style="fill: none; stroke: #bcbd22; stroke-opacity: 0.95; stroke-width: 1.4; stroke-linecap: square"/>
   </g>
   <g id="line2d_93">
    <path d="M 47.6525 72.274859 
L 47.65308 28.740449 
" clip-path="url(#p28ea1e14ce)" style="fill: none; stroke-dasharray: 4.44,1.92; stroke-dashoffset: 0; stroke: #17becf; stroke-opacity: 0.6; stroke-width: 1.2"/>
   </g>
   <g id="line2d_94">
    <path d="M 47.6525 194.542656 
L 47.652888 224.079769 
" clip-path="url(#p28ea1e14ce)" style="fill: none; stroke: #17becf; stroke-opacity: 0.95; stroke-width: 1.4; stroke-linecap: square"/>
   </g>
   <g id="patch_3">
    <path d="M 47.6525 232.066875 
L 47.6525 22.318125 
" style="fill: none; stroke: #000000; stroke-width: 0.8; stroke-linejoin: miter; stroke-linecap: square"/>
   </g>
   <g id="patch_4">
    <path d="M 47.6525 232.066875 
L 341.7315 232.066875 
" style="fill: none; stroke: #000000; stroke-width: 0.8; stroke-linejoin: miter; stroke-linecap: square"/>
   </g>
   <g id="text_20">
    <text style="font-size: 12px; font-family: 'DejaVu Sans', 'Bitstream Vera Sans', 'Computer Modern Sans Serif', 'Lucida Grande', 'Verdana', 'Geneva', 'Lucid', 'Arial', 'Helvetica', 'Avant Garde', sans-serif; text-anchor: middle" x="194.692" y="16.318125" transform="rotate(-0 194.692 16.318125)">Potential vs Capacity</text>
   </g>
   <g id="legend_1">
    <g id="patch_5">
     <path d="M 349.21308 155.82125 
L 414.88433 155.82125 
Q 416.48433 155.82125 416.48433 154.22125 
L 416.48433 23.918125 
Q 416.48433 22.318125 414.88433 22.318125 
L 349.21308 22.318125 
Q 347.61308 22.318125 347.61308 23.918125 
L 347.61308 154.22125 
Q 347.61308 155.82125 349.21308 155.82125 
z
" style="fill: #ffffff; opacity: 0.95; stroke: #cccccc; stroke-linejoin: miter"/>
    </g>
    <g id="text_21">
     <text style="font-size: 10px; font-family: 'DejaVu Sans', 'Bitstream Vera Sans', 'Computer Modern Sans Serif', 'Lucida Grande', 'Verdana', 'Geneva', 'Lucid', 'Arial', 'Helvetica', 'Avant Garde', sans-serif; text-anchor: start" x="365.778392" y="33.116563" transform="rotate(-0 365.778392 33.116563)">Cycles</text>
    </g>
    <g id="line2d_95">
     <path d="M 350.81308 42.475 
L 358.81308 42.475 
L 366.81308 42.475 
" style="fill: none; stroke: #1f77b4; stroke-opacity: 0.95; stroke-width: 1.4; stroke-linecap: square"/>
    </g>
    <g id="text_22">
     <text style="font-size: 8px; font-family: 'DejaVu Sans', 'Bitstream Vera Sans', 'Computer Modern Sans Serif', 'Lucida Grande', 'Verdana', 'Geneva', 'Lucid', 'Arial', 'Helvetica', 'Avant Garde', sans-serif; text-anchor: start" x="373.21308" y="45.275" transform="rotate(-0 373.21308 45.275)">Cycle 1</text>
    </g>
    <g id="line2d_96">
     <path d="M 350.81308 54.2175 
L 358.81308 54.2175 
L 366.81308 54.2175 
" style="fill: none; stroke: #9467bd; stroke-opacity: 0.95; stroke-width: 1.4; stroke-linecap: square"/>
    </g>
    <g id="text_23">
     <text style="font-size: 8px; font-family: 'DejaVu Sans', 'Bitstream Vera Sans', 'Computer Modern Sans Serif', 'Lucida Grande', 'Verdana', 'Geneva', 'Lucid', 'Arial', 'Helvetica', 'Avant Garde', sans-serif; text-anchor: start" x="373.21308" y="57.0175" transform="rotate(-0 373.21308 57.0175)">Cycle 5</text>
    </g>
    <g id="line2d_97">
     <path d="M 350.81308 65.96 
L 358.81308 65.96 
L 366.81308 65.96 
" style="fill: none; stroke: #bcbd22; stroke-opacity: 0.95; stroke-width: 1.4; stroke-linecap: square"/>
    </g>
    <g id="text_24">
     <text style="font-size: 8px; font-family: 'DejaVu Sans', 'Bitstream Vera Sans', 'Computer Modern Sans Serif', 'Lucida Grande', 'Verdana', 'Geneva', 'Lucid', 'Arial', 'Helvetica', 'Avant Garde', sans-serif; text-anchor: start" x="373.21308" y="68.76" transform="rotate(-0 373.21308 68.76)">Cycle 9</text>
    </g>
    <g id="line2d_98">
     <path d="M 350.81308 77.7025 
L 358.81308 77.7025 
L 366.81308 77.7025 
" style="fill: none; stroke: #2ca02c; stroke-opacity: 0.95; stroke-width: 1.4; stroke-linecap: square"/>
    </g>
    <g id="text_25">
     <text style="font-size: 8px; font-family: 'DejaVu Sans', 'Bitstream Vera Sans', 'Computer Modern Sans Serif', 'Lucida Grande', 'Verdana', 'Geneva', 'Lucid', 'Arial', 'Helvetica', 'Avant Garde', sans-serif; text-anchor: start" x="373.21308" y="80.5025" transform="rotate(-0 373.21308 80.5025)">Cycle 13</text>
    </g>
    <g id="line2d_99">
     <path d="M 350.81308 89.445 
L 358.81308 89.445 
L 366.81308 89.445 
" style="fill: none; stroke: #e377c2; stroke-opacity: 0.95; stroke-width: 1.4; stroke-linecap: square"/>
    </g>
    <g id="text_26">
     <text style="font-size: 8px; font-family: 'DejaVu Sans', 'Bitstream Vera Sans', 'Computer Modern Sans Serif', 'Lucida Grande', 'Verdana', 'Geneva', 'Lucid', 'Arial', 'Helvetica', 'Avant Garde', sans-serif; text-anchor: start" x="373.21308" y="92.245" transform="rotate(-0 373.21308 92.245)">Cycle 17</text>
    </g>
    <g id="line2d_100">
     <path d="M 350.81308 101.1875 
L 358.81308 101.1875 
L 366.81308 101.1875 
" style="fill: none; stroke: #1f77b4; stroke-opacity: 0.95; stroke-width: 1.4; stroke-linecap: square"/>
    </g>
    <g id="text_27">
     <text style="font-size: 8px; font-family: 'DejaVu Sans', 'Bitstream Vera Sans', 'Computer Modern Sans Serif', 'Lucida Grande', 'Verdana', 'Geneva', 'Lucid', 'Arial', 'Helvetica', 'Avant Garde', sans-serif; text-anchor: start" x="373.21308" y="103.9875" transform="rotate(-0 373.21308 103.9875)">Cycle 21</text>
    </g>
    <g id="line2d_101">
     <path d="M 350.81308 112.93 
L 358.81308 112.93 
L 366.81308 112.93 
" style="fill: none; stroke: #9467bd; stroke-opacity: 0.95; stroke-width: 1.4; stroke-linecap: square"/>
    </g>
    <g id="text_28">
     <text style="font-size: 8px; font-family: 'DejaVu Sans', 'Bitstream Vera Sans', 'Computer Modern Sans Serif', 'Lucida Grande', 'Verdana', 'Geneva', 'Lucid', 'Arial', 'Helvetica', 'Avant Garde', sans-serif; text-anchor: start" x="373.21308" y="115.73" transform="rotate(-0 373.21308 115.73)">Cycle 25</text>
    </g>
    <g id="line2d_102">
     <path d="M 350.81308 124.6725 
L 358.81308 124.6725 
L 366.81308 124.6725 
" style="fill: none; stroke: #17becf; stroke-opacity: 0.95; stroke-width: 1.4; stroke-linecap: square"/>
    </g>
    <g id="text_29">
     <text style="font-size: 8px; font-family: 'DejaVu Sans', 'Bitstream Vera Sans', 'Computer Modern Sans Serif', 'Lucida Grande', 'Verdana', 'Geneva', 'Lucid', 'Arial', 'Helvetica', 'Avant Garde', sans-serif; text-anchor: start" x="373.21308" y="127.4725" transform="rotate(-0 373.21308 127.4725)">Cycle 30</text>
    </g>
    <g id="line2d_103">
     <path d="M 350.81308 136.415 
L 358.81308 136.415 
L 366.81308 136.415 
" style="fill: none; stroke: #333333; stroke-width: 1.6; stroke-linecap: square"/>
    </g>
    <g id="text_30">
     <text style="font-size: 8px; font-family: 'DejaVu Sans', 'Bitstream Vera Sans', 'Computer Modern Sans Serif', 'Lucida Grande', 'Verdana', 'Geneva', 'Lucid', 'Arial', 'Helvetica', 'Avant Garde', sans-serif; text-anchor: start" x="373.21308" y="139.215" transform="rotate(-0 373.21308 139.215)">Discharge</text>
    </g>
    <g id="line2d_104">
     <path d="M 350.81308 148.1575 
L 358.81308 148.1575 
L 366.81308 148.1575 
" style="fill: none; stroke-dasharray: 4.44,1.92; stroke-dashoffset: 0; stroke: #333333; stroke-width: 1.2"/>
    </g>
    <g id="text_31">
     <text style="font-size: 8px; font-family: 'DejaVu Sans', 'Bitstream Vera Sans', 'Computer Modern Sans Serif', 'Lucida Grande', 'Verdana', 'Geneva', 'Lucid', 'Arial', 'Helvetica', 'Avant Garde', sans-serif; text-anchor: start" x="373.21308" y="150.9575" transform="rotate(-0 373.21308 150.9575)">Charge</text>
    </g>
   </g>
  </g>
 </g>
 <defs>
  <clipPath id="p28ea1e14ce">
   <rect x="47.6525" y="22.318125" width="294.079" height="209.74875"/>
  </clipPath>
 </defs>
</svg>
