<?xml version="1.0" encoding="utf-8" standalone="no"?>
<!DOCTYPE svg PUBLIC "-//W3C//DTD SVG 1.1//EN"
  "http://www.w3.org/Graphics/SVG/1.1/DTD/svg11.dtd">
<svg xmlns:xlink="http://www.w3.org/1999/xlink" width="432pt" height="288pt" viewBox="0 0 432 288" xmlns="http://www.w3.org/2000/svg" version="1.1">
 <metadata>
  <rdf:RDF xmlns:dc="http://purl.org/dc/elements/1.1/" xmlns:cc="http://creativecommons.org/ns#" xmlns:rdf="http://www.w3.org/1999/02/22-rdf-syntax-ns#">
   <cc:Work>
    <dc:type rdf:resource="http://purl.org/dc/dcmitype/StillImage"/>
    <dc:date>2025-09-28T20:27:40.651801</dc:date>
    <dc:format>image/svg+xml</dc:format>
    <dc:creator>
     <cc:Agent>
      <dc:title>Matplotlib v3.9.0, https://matplotlib.org/</dc:title>
     </cc:Agent>
    </dc:creator>
   </cc:Work>
  </rdf:RDF>
 </metadata>
 <defs>
  <style type="text/css">*{stroke-linejoin: round; stroke-linecap: butt}</style>
 </defs>
 <g id="figure_1">
  <g id="patch_1">
   <path d="M 0 288 
L 432 288 
L 432 0 
L 0 0 
z
" style="fill: #ffffff"/>
  </g>
  <g id="axes_1">
   <g id="patch_2">
    <path d="M 38.975 244.6 
L 362.65 244.6 
L 362.65 25.8 
L 38.975 25.8 
z
" style="fill: #ffffff"/>
   </g>
   <g id="matplotlib.axis_1">
    <g id="xtick_1">
     <g id="line2d_1">
      <path d="M 53.687457 244.6 
L 53.687457 25.8 
" clip-path="url(#p4416f6d482)" style="fill: none; stroke: #b0b0b0; stroke-opacity: 0.25; stroke-width: 0.8; stroke-linecap: square"/>
     </g>
     <g id="line2d_2">
      <defs>
       <path id="m3446cfcd59" d="M 0 0 
L 0 3.5 
" style="stroke: #000000; stroke-width: 0.8"/>
      </defs>
      <g>
       <use xlink:href="#m3446cfcd59" x="53.687457" y="244.6" style="stroke: #000000; stroke-width: 0.8"/>
      </g>
     </g>
     <g id="text_1">
      <text style="font: 10px 'DejaVu Sans', 'Bitstream Vera Sans', 'Computer Modern Sans Serif', 'Lucida Grande', 'Verdana', 'Geneva', 'Lucid', 'Arial', 'Helvetica', 'Avant Garde', sans-serif; text-anchor: middle" x="53.687457" y="259.198438" transform="rotate(-0 53.687457 259.198438)">0</text>
     </g>
    </g>
    <g id="xtick_2">
     <g id="line2d_3">
      <path d="M 96.608967 244.6 
L 96.608967 25.8 
" clip-path="url(#p4416f6d482)" style="fill: none; stroke: #b0b0b0; stroke-opacity: 0.25; stroke-width: 0.8; stroke-linecap: square"/>
     </g>
     <g id="line2d_4">
      <g>
       <use xlink:href="#m3446cfcd59" x="96.608967" y="244.6" style="stroke: #000000; stroke-width: 0.8"/>
      </g>
     </g>
     <g id="text_2">
      <text style="font: 10px 'DejaVu Sans', 'Bitstream Vera Sans', 'Computer Modern Sans Serif', 'Lucida Grande', 'Verdana', 'Geneva', 'Lucid', 'Arial', 'Helvetica', 'Avant Garde', sans-serif; text-anchor: middle" x="96.608967" y="259.198438" transform="rotate(-0 96.608967 259.198438)">5000</text>
     </g>
    </g>
    <g id="xtick_3">
     <g id="line2d_5">
      <path d="M 139.530477 244.6 
L 139.530477 25.8 
" clip-path="url(#p4416f6d482)" style="fill: none; stroke: #b0b0b0; stroke-opacity: 0.25; stroke-width: 0.8; stroke-linecap: square"/>
     </g>
     <g id="line2d_6">
      <g>
       <use xlink:href="#m3446cfcd59" x="139.530477" y="244.6" style="stroke: #000000; stroke-width: 0.8"/>
      </g>
     </g>
     <g id="text_3">
      <text style="font: 10px 'DejaVu Sans', 'Bitstream Vera Sans', 'Computer Modern Sans Serif', 'Lucida Grande', 'Verdana', 'Geneva', 'Lucid', 'Arial', 'Helvetica', 'Avant Garde', sans-serif; text-anchor: middle" x="139.530477" y="259.198438" transform="rotate(-0 139.530477 259.198438)">10000</text>
     </g>
    </g>
    <g id="xtick_4">
     <g id="line2d_7">
      <path d="M 182.451987 244.6 
L 182.451987 25.8 
" clip-path="url(#p4416f6d482)" style="fill: none; stroke: #b0b0b0; stroke-opacity: 0.25; stroke-width: 0.8; stroke-linecap: square"/>
     </g>
     <g id="line2d_8">
      <g>
       <use xlink:href="#m3446cfcd59" x="182.451987" y="244.6" style="stroke: #000000; stroke-width: 0.8"/>
      </g>
     </g>
     <g id="text_4">
      <text style="font: 10px 'DejaVu Sans', 'Bitstream Vera Sans', 'Computer Modern Sans Serif', 'Lucida Grande', 'Verdana', 'Geneva', 'Lucid', 'Arial', 'Helvetica', 'Avant Garde', sans-serif; text-anchor: middle" x="182.451987" y="259.198438" transform="rotate(-0 182.451987 259.198438)">15000</text>
     </g>
    </g>
    <g id="xtick_5">
     <g id="line2d_9">
      <path d="M 225.373497 244.6 
L 225.373497 25.8 
" clip-path="url(#p4416f6d482)" style="fill: none; stroke: #b0b0b0; stroke-opacity: 0.25; stroke-width: 0.8; stroke-linecap: square"/>
     </g>
     <g id="line2d_10">
      <g>
       <use xlink:href="#m3446cfcd59" x="225.373497" y="244.6" style="stroke: #000000; stroke-width: 0.8"/>
      </g>
     </g>
     <g id="text_5">
      <text style="font: 10px 'DejaVu Sans', 'Bitstream Vera Sans', 'Computer Modern Sans Serif', 'Lucida Grande', 'Verdana', 'Geneva', 'Lucid', 'Arial', 'Helvetica', 'Avant Garde', sans-serif; text-anchor: middle" x="225.373497" y="259.198438" transform="rotate(-0 225.373497 259.198438)">20000</text>
     </g>
    </g>
    <g id="xtick_6">
     <g id="line2d_11">
      <path d="M 268.295007 244.6 
L 268.295007 25.8 
" clip-path="url(#p4416f6d482)" style="fill: none; stroke: #b0b0b0; stroke-opacity: 0.25; stroke-width: 0.8; stroke-linecap: square"/>
     </g>
     <g id="line2d_12">
      <g>
       <use xlink:href="#m3446cfcd59" x="268.295007" y="244.6" style="stroke: #000000; stroke-width: 0.8"/>
      </g>
     </g>
     <g id="text_6">
      <text style="font: 10px 'DejaVu Sans', 'Bitstream Vera Sans', 'Computer Modern Sans Serif', 'Lucida Grande', 'Verdana', 'Geneva', 'Lucid', 'Arial', 'Helvetica', 'Avant Garde', sans-serif; text-anchor: middle" x="268.295007" y="259.198438" transform="rotate(-0 268.295007 259.198438)">25000</text>
     </g>
    </g>
    <g id="xtick_7">
     <g id="line2d_13">
      <path d="M 311.216517 244.6 
L 311.216517 25.8 
" clip-path="url(#p4416f6d482)" style="fill: none; stroke: #b0b0b0; stroke-opacity: 0.25; stroke-width: 0.8; stroke-linecap: square"/>
     </g>
     <g id="line2d_14">
      <g>
       <use xlink:href="#m3446cfcd59" x="311.216517" y="244.6" style="stroke: #000000; stroke-width: 0.8"/>
      </g>
     </g>
     <g id="text_7">
      <text style="font: 10px 'DejaVu Sans', 'Bitstream Vera Sans', 'Computer Modern Sans Serif', 'Lucida Grande', 'Verdana', 'Geneva', 'Lucid', 'Arial', 'Helvetica', 'Avant Garde', sans-serif; text-anchor: middle" x="311.216517" y="259.198438" transform="rotate(-0 311.216517 259.198438)">30000</text>
     </g>
    </g>
    <g id="xtick_8">
     <g id="line2d_15">
      <path d="M 354.138027 244.6 
L 354.138027 25.8 
" clip-path="url(#p4416f6d482)" style="fill: none; stroke: #b0b0b0; stroke-opacity: 0.25; stroke-width: 0.8; stroke-linecap: square"/>
     </g>
     <g id="line2d_16">
      <g>
       <use xlink:href="#m3446cfcd59" x="354.138027" y="244.6" style="stroke: #000000; stroke-width: 0.8"/>
      </g>
     </g>
     <g id="text_8">
      <text style="font: 10px 'DejaVu Sans', 'Bitstream Vera Sans', 'Computer Modern Sans Serif', 'Lucida Grande', 'Verdana', 'Geneva', 'Lucid', 'Arial', 'Helvetica', 'Avant Garde', sans-serif; text-anchor: middle" x="354.138027" y="259.198438" transform="rotate(-0 354.138027 259.198438)">35000</text>
     </g>
    </g>
    <g id="text_9">
     <text style="font: 10px 'DejaVu Sans', 'Bitstream Vera Sans', 'Computer Modern Sans Serif', 'Lucida Grande', 'Verdana', 'Geneva', 'Lucid', 'Arial', 'Helvetica', 'Avant Garde', sans-serif; text-anchor: middle" x="200.8125" y="272.876562" transform="rotate(-0 200.8125 272.876562)">Time (s)</text>
    </g>
   </g>
   <g id="matplotlib.axis_2">
    <g id="ytick_1">
     <g id="line2d_17">
      <path d="M 38.975 207.552171 
L 362.65 207.552171 
" clip-path="url(#p4416f6d482)" style="fill: none; stroke: #b0b0b0; stroke-opacity: 0.25; stroke-width: 0.8; stroke-linecap: square"/>
     </g>
     <g id="line2d_18">
      <defs>
       <path id="m30dc6e1d50" d="M 0 0 
L -3.5 0 
" style="stroke: #000000; stroke-width: 0.8"/>
      </defs>
      <g>
       <use xlink:href="#m30dc6e1d50" x="38.975" y="207.552171" style="stroke: #000000; stroke-width: 0.8"/>
      </g>
     </g>
     <g id="text_10">
      <text style="fill: #1f77b4; font: 10px 'DejaVu Sans', 'Bitstream Vera Sans', 'Computer Modern Sans Serif', 'Lucida Grande', 'Verdana', 'Geneva', 'Lucid', 'Arial', 'Helvetica', 'Avant Garde', sans-serif; text-anchor: end" x="31.975" y="211.351389" transform="rotate(-0 31.975 211.351389)">1</text>
     </g>
    </g>
    <g id="ytick_2">
     <g id="line2d_19">
      <path d="M 38.975 164.370665 
L 362.65 164.370665 
" clip-path="url(#p4416f6d482)" style="fill: none; stroke: #b0b0b0; stroke-opacity: 0.25; stroke-width: 0.8; stroke-linecap: square"/>
     </g>
     <g id="line2d_20">
      <g>
       <use xlink:href="#m30dc6e1d50" x="38.975" y="164.370665" style="stroke: #000000; stroke-width: 0.8"/>
      </g>
     </g>
     <g id="text_11">
      <text style="fill: #1f77b4; font: 10px 'DejaVu Sans', 'Bitstream Vera Sans', 'Computer Modern Sans Serif', 'Lucida Grande', 'Verdana', 'Geneva', 'Lucid', 'Arial', 'Helvetica', 'Avant Garde', sans-serif; text-anchor: end" x="31.975" y="168.169884" transform="rotate(-0 31.975 168.169884)">2</text>
     </g>
    </g>
    <g id="ytick_3">
     <g id="line2d_21">
      <path d="M 38.975 121.189159 
L 362.65 121.189159 
" clip-path="url(#p4416f6d482)" style="fill: none; stroke: #b0b0b0; stroke-opacity: 0.25; stroke-width: 0.8; stroke-linecap: square"/>
     </g>
     <g id="line2d_22">
      <g>
       <use xlink:href="#m30dc6e1d50" x="38.975" y="121.189159" style="stroke: #000000; stroke-width: 0.8"/>
      </g>
     </g>
     <g id="text_12">
      <text style="fill: #1f77b4; font: 10px 'DejaVu Sans', 'Bitstream Vera Sans', 'Computer Modern Sans Serif', 'Lucida Grande', 'Verdana', 'Geneva', 'Lucid', 'Arial', 'Helvetica', 'Avant Garde', sans-serif; text-anchor: end" x="31.975" y="124.988378" transform="rotate(-0 31.975 124.988378)">3</text>
     </g>
    </g>
    <g id="ytick_4">
     <g id="line2d_23">
      <path d="M 38.975 78.007654 
L 362.65 78.007654 
" clip-path="url(#p4416f6d482)" style="fill: none; stroke: #b0b0b0; stroke-opacity: 0.25; stroke-width: 0.8; stroke-linecap: square"/>
     </g>
     <g id="line2d_24">
      <g>
       <use xlink:href="#m30dc6e1d50" x="38.975" y="78.007654" style="stroke: #000000; stroke-width: 0.8"/>
      </g>
     </g>
     <g id="text_13">
      <text style="fill: #1f77b4; font: 10px 'DejaVu Sans', 'Bitstream Vera Sans', 'Computer Modern Sans Serif', 'Lucida Grande', 'Verdana', 'Geneva', 'Lucid', 'Arial', 'Helvetica', 'Avant Garde', sans-serif; text-anchor: end" x="31.975" y="81.806873" transform="rotate(-0 31.975 81.806873)">4</text>
     </g>
    </g>
    <g id="ytick_5">
     <g id="line2d_25">
      <path d="M 38.975 34.826148 
L 362.65 34.826148 
" clip-path="url(#p4416f6d482)" style="fill: none; stroke: #b0b0b0; stroke-opacity: 0.25; stroke-width: 0.8; stroke-linecap: square"/>
     </g>
     <g id="line2d_26">
      <g>
       <use xlink:href="#m30dc6e1d50" x="38.975" y="34.826148" style="stroke: #000000; stroke-width: 0.8"/>
      </g>
     </g>
     <g id="text_14">
      <text style="fill: #1f77b4; font: 10px 'DejaVu Sans', 'Bitstream Vera Sans', 'Computer Modern Sans Serif', 'Lucida Grande', 'Verdana', 'Geneva', 'Lucid', 'Arial', 'Helvetica', 'Avant Garde', sans-serif; text-anchor: end" x="31.975" y="38.625367" transform="rotate(-0 31.975 38.625367)">5</text>
     </g>
    </g>
    <g id="text_15">
     <text style="fill: #1f77b4; font: 10px 'DejaVu Sans', 'Bitstream Vera Sans', 'Computer Modern Sans Serif', 'Lucida Grande', 'Verdana', 'Geneva', 'Lucid', 'Arial', 'Helvetica', 'Avant Garde', sans-serif; text-anchor: middle" x="19.532813" y="135.2" transform="rotate(-90 19.532813 135.2)">Potential (V)</text>
    </g>
   </g>
   <g id="line2d_27">
    <path d="M 53.6875 234.654545 
L 57.807965 234.515014 
L 66.821482 234.250815 
L 70.16936 234.04901 
L 84.075929 233.847763 
L 144.337729 233.703402 
L 239.108398 233.931633 
L 239.109024 230.326657 
L 239.366553 152.0914 
L 239.881611 132.188032 
L 240.396669 123.983544 
L 241.169257 115.107639 
L 241.941844 109.676882 
L 242.714431 106.31111 
L 244.259605 101.428927 
L 244.517134 101.12848 
L 247.092425 94.974738 
L 249.667716 89.369507 
L 252.243006 84.204719 
L 252.758064 83.362514 
L 255.075826 80.175375 
L 256.878529 76.942793 
L 259.968878 70.095222 
L 260.264195 69.372988 
L 260.264255 82.23757 
L 260.521784 116.162894 
L 261.036842 121.942465 
L 261.80943 127.327366 
L 264.949765 147.098038 
L 264.949902 133.817064 
L 265.207431 94.760751 
L 265.722489 90.216613 
L 266.495076 86.263578 
L 267.525193 82.266994 
L 269.327896 76.271047 
L 271.641614 69.373132 
L 271.641675 82.508583 
L 271.899204 117.027172 
L 272.414262 122.884884 
L 273.444378 129.923762 
L 276.234602 147.097688 
L 276.23474 133.338251 
L 276.492269 92.726827 
L 277.007327 88.116953 
L 277.779914 84.139797 
L 279.067559 79.117814 
L 280.870263 73.109451 
L 282.116746 69.373955 
L 282.116806 82.921856 
L 282.374335 117.520768 
L 282.889394 123.457373 
L 283.91951 130.862917 
L 286.508733 147.096267 
L 286.50887 133.156745 
L 286.766399 91.252513 
L 287.281457 86.584873 
L 288.054044 82.614521 
L 289.34169 77.586948 
L 290.886864 72.481501 
L 291.907538 69.374079 
L 291.907598 83.105863 
L 292.165127 117.975253 
L 292.680185 123.714899 
L 293.452772 129.762157 
L 294.740417 138.002411 
L 296.12601 147.096597 
L 296.126147 133.624799 
L 296.383676 90.671509 
L 296.898734 85.838043 
L 297.671321 81.758418 
L 298.958967 76.610256 
L 300.246612 72.382049 
L 301.228647 69.374635 
L 301.228708 82.721345 
L 301.486237 117.671738 
L 302.001295 123.146229 
L 303.28894 133.340434 
L 304.834114 143.919753 
L 305.335738 147.095238 
L 305.335875 133.536703 
L 305.593404 89.926595 
L 306.108463 85.033581 
L 306.88105 80.946121 
L 307.911166 76.785749 
L 309.198811 72.561228 
L 310.229795 69.372658 
L 310.229855 82.867414 
L 310.487384 117.887434 
L 311.002442 123.297817 
L 313.062674 139.218108 
L 314.261223 147.097832 
L 314.261361 133.470556 
L 314.51889 89.297152 
L 315.033948 84.372048 
L 315.806535 80.295964 
L 316.836651 76.227107 
L 318.639355 70.480636 
L 318.995886 69.372102 
L 318.995946 83.011105 
L 319.253475 118.087461 
L 319.768534 123.524014 
L 322.95616 147.096329 
L 322.956297 133.382933 
L 323.213826 88.718053 
L 323.728884 83.768631 
L 324.501471 79.708958 
L 325.531588 75.77288 
L 327.554684 69.37237 
L 327.554744 83.17515 
L 327.812274 118.283741 
L 328.327332 123.776022 
L 329.357448 132.068937 
L 330.645093 141.736692 
L 331.451013 147.097359 
L 331.451151 133.300437 
L 331.70868 88.198224 
L 332.223738 83.231496 
L 332.996325 79.195955 
L 333.768912 76.239976 
L 335.931358 69.373544 
L 335.931418 83.313529 
L 336.188947 118.492488 
L 336.704005 124.048054 
L 337.734121 132.257587 
L 339.021767 142.101052 
L 339.762927 147.097492 
L 339.763064 133.218476 
L 340.020593 87.701982 
L 340.535651 82.742543 
L 341.308238 78.737033 
L 342.080826 75.895579 
L 344.142217 69.371485 
L 344.142277 83.459114 
L 344.399806 118.686245 
L 344.914864 124.300535 
L 345.94498 132.394391 
L 347.232626 142.363685 
L 347.932023 147.096267 
L 347.936478 35.745455 
L 347.936075 189.578163 
L 347.9375 187.709591 
" clip-path="url(#p4416f6d482)" style="fill: none; stroke: #1f77b4; stroke-width: 1.2; stroke-linecap: square"/>
   </g>
   <g id="patch_3">
    <path d="M 38.975 244.6 
L 38.975 25.8 
" style="fill: none; stroke: #000000; stroke-width: 0.8; stroke-linejoin: miter; stroke-linecap: square"/>
   </g>
   <g id="patch_4">
    <path d="M 38.975 244.6 
L 362.65 244.6 
" style="fill: none; stroke: #000000; stroke-width: 0.8; stroke-linejoin: miter; stroke-linecap: square"/>
   </g>
   <g id="text_16">
    <text style="font: 12px 'DejaVu Sans', 'Bitstream Vera Sans', 'Computer Modern Sans Serif', 'Lucida Grande', 'Verdana', 'Geneva', 'Lucid', 'Arial', 'Helvetica', 'Avant Garde', sans-serif; text-anchor: middle" x="200.8125" y="19.8" transform="rotate(-0 200.8125 19.8)">Voltage and Current vs Time - FZ</text>
   </g>
   <g id="legend_1">
    <g id="patch_5">
     <path d="M 44.575 55.685 
L 114.475 55.685 
Q 116.075 55.685 116.075 54.085 
L 116.075 31.4 
Q 116.075 29.8 114.475 29.8 
L 44.575 29.8 
Q 42.975 29.8 42.975 31.4 
L 42.975 54.085 
Q 42.975 55.685 44.575 55.685 
z
" style="fill: #ffffff; opacity: 0.8; stroke: #cccccc; stroke-linejoin: miter"/>
    </g>
    <g id="line2d_28">
     <path d="M 46.175 36.27875 
L 54.175 36.27875 
L 62.175 36.27875 
" style="fill: none; stroke: #1f77b4; stroke-width: 1.2; stroke-linecap: square"/>
    </g>
    <g id="text_17">
     <text style="font: 8px 'DejaVu Sans', 'Bitstream Vera Sans', 'Computer Modern Sans Serif', 'Lucida Grande', 'Verdana', 'Geneva', 'Lucid', 'Arial', 'Helvetica', 'Avant Garde', sans-serif; text-anchor: start" x="68.575" y="39.07875" transform="rotate(-0 68.575 39.07875)">Voltage (V)</text>
    </g>
    <g id="line2d_29">
     <path d="M 46.175 48.02125 
L 54.175 48.02125 
L 62.175 48.02125 
" style="fill: none; stroke: #ff7f0e; stroke-opacity: 0.8; stroke-linecap: square"/>
    </g>
    <g id="text_18">
     <text style="font: 8px 'DejaVu Sans', 'Bitstream Vera Sans', 'Computer Modern Sans Serif', 'Lucida Grande', 'Verdana', 'Geneva', 'Lucid', 'Arial', 'Helvetica', 'Avant Garde', sans-serif; text-anchor: start" x="68.575" y="50.82125" transform="rotate(-0 68.575 50.82125)">Current (A)</text>
    </g>
   </g>
  </g>
  <g id="axes_2">
   <g id="matplotlib.axis_3">
    <g id="ytick_6">
     <g id="line2d_30">
      <path d="M 38.975 220.700956 
L 362.65 220.700956 
" clip-path="url(#p4416f6d482)" style="fill: none; stroke: #b0b0b0; stroke-opacity: 0.25; stroke-width: 0.8; stroke-linecap: square"/>
     </g>
     <g id="line2d_31">
      <defs>
       <path id="m5e10e9c9ae" d="M 0 0 
L 3.5 0 
" style="stroke: #000000; stroke-width: 0.8"/>
      </defs>
      <g>
       <use xlink:href="#m5e10e9c9ae" x="362.65" y="220.700956" style="stroke: #000000; stroke-width: 0.8"/>
      </g>
     </g>
     <g id="text_19">
      <text style="fill: #ff7f0e; font: 10px 'DejaVu Sans', 'Bitstream Vera Sans', 'Computer Modern Sans Serif', 'Lucida Grande', 'Verdana', 'Geneva', 'Lucid', 'Arial', 'Helvetica', 'Avant Garde', sans-serif; text-anchor: start" x="369.65" y="224.500175" transform="rotate(-0 369.65 224.500175)">−0.004</text>
     </g>
    </g>
    <g id="ytick_7">
     <g id="line2d_32">
      <path d="M 38.975 177.855882 
L 362.65 177.855882 
" clip-path="url(#p4416f6d482)" style="fill: none; stroke: #b0b0b0; stroke-opacity: 0.25; stroke-width: 0.8; stroke-linecap: square"/>
     </g>
     <g id="line2d_33">
      <g>
       <use xlink:href="#m5e10e9c9ae" x="362.65" y="177.855882" style="stroke: #000000; stroke-width: 0.8"/>
      </g>
     </g>
     <g id="text_20">
      <text style="fill: #ff7f0e; font: 10px 'DejaVu Sans', 'Bitstream Vera Sans', 'Computer Modern Sans Serif', 'Lucida Grande', 'Verdana', 'Geneva', 'Lucid', 'Arial', 'Helvetica', 'Avant Garde', sans-serif; text-anchor: start" x="369.65" y="181.6551" transform="rotate(-0 369.65 181.6551)">−0.002</text>
     </g>
    </g>
    <g id="ytick_8">
     <g id="line2d_34">
      <path d="M 38.975 135.010807 
L 362.65 135.010807 
" clip-path="url(#p4416f6d482)" style="fill: none; stroke: #b0b0b0; stroke-opacity: 0.25; stroke-width: 0.8; stroke-linecap: square"/>
     </g>
     <g id="line2d_35">
      <g>
       <use xlink:href="#m5e10e9c9ae" x="362.65" y="135.010807" style="stroke: #000000; stroke-width: 0.8"/>
      </g>
     </g>
     <g id="text_21">
      <text style="fill: #ff7f0e; font: 10px 'DejaVu Sans', 'Bitstream Vera Sans', 'Computer Modern Sans Serif', 'Lucida Grande', 'Verdana', 'Geneva', 'Lucid', 'Arial', 'Helvetica', 'Avant Garde', sans-serif; text-anchor: start" x="369.65" y="138.810026" transform="rotate(-0 369.65 138.810026)">0.000</text>
     </g>
    </g>
    <g id="ytick_9">
     <g id="line2d_36">
      <path d="M 38.975 92.165732 
L 362.65 92.165732 
" clip-path="url(#p4416f6d482)" style="fill: none; stroke: #b0b0b0; stroke-opacity: 0.25; stroke-width: 0.8; stroke-linecap: square"/>
     </g>
     <g id="line2d_37">
      <g>
       <use xlink:href="#m5e10e9c9ae" x="362.65" y="92.165732" style="stroke: #000000; stroke-width: 0.8"/>
      </g>
     </g>
     <g id="text_22">
      <text style="fill: #ff7f0e; font: 10px 'DejaVu Sans', 'Bitstream Vera Sans', 'Computer Modern Sans Serif', 'Lucida Grande', 'Verdana', 'Geneva', 'Lucid', 'Arial', 'Helvetica', 'Avant Garde', sans-serif; text-anchor: start" x="369.65" y="95.964951" transform="rotate(-0 369.65 95.964951)">0.002</text>
     </g>
    </g>
    <g id="ytick_10">
     <g id="line2d_38">
      <path d="M 38.975 49.320657 
L 362.65 49.320657 
" clip-path="url(#p4416f6d482)" style="fill: none; stroke: #b0b0b0; stroke-opacity: 0.25; stroke-width: 0.8; stroke-linecap: square"/>
     </g>
     <g id="line2d_39">
      <g>
       <use xlink:href="#m5e10e9c9ae" x="362.65" y="49.320657" style="stroke: #000000; stroke-width: 0.8"/>
      </g>
     </g>
     <g id="text_23">
      <text style="fill: #ff7f0e; font: 10px 'DejaVu Sans', 'Bitstream Vera Sans', 'Computer Modern Sans Serif', 'Lucida Grande', 'Verdana', 'Geneva', 'Lucid', 'Arial', 'Helvetica', 'Avant Garde', sans-serif; text-anchor: start" x="369.65" y="53.119876" transform="rotate(-0 369.65 53.119876)">0.004</text>
     </g>
    </g>
    <g id="text_24">
     <text style="fill: #ff7f0e; font: 10px 'DejaVu Sans', 'Bitstream Vera Sans', 'Computer Modern Sans Serif', 'Lucida Grande', 'Verdana', 'Geneva', 'Lucid', 'Arial', 'Helvetica', 'Avant Garde', sans-serif; text-anchor: middle" x="418.25625" y="135.2" transform="rotate(-90 418.25625 135.2)">Current (A)</text>
    </g>
   </g>
   <g id="line2d_40">
    <path d="M 53.6875 135.010807 
L 239.108398 135.010807 
L 239.109024 129.990063 
L 239.624082 129.918628 
L 260.264195 129.919711 
L 260.264255 140.015705 
L 260.779313 140.09664 
L 264.949765 140.097671 
L 264.949902 129.979076 
L 265.46496 129.919474 
L 271.641614 129.919626 
L 271.641675 140.015924 
L 272.156733 140.097147 
L 276.234602 140.096183 
L 276.23474 129.976236 
L 277.007327 129.918967 
L 282.116746 129.919812 
L 282.116806 140.014809 
L 282.631865 140.095541 
L 286.508733 140.096859 
L 286.50887 129.978569 
L 287.023928 129.918747 
L 291.907538 129.919541 
L 291.907598 140.012222 
L 292.422656 140.097045 
L 296.12601 140.097535 
L 296.126147 129.978062 
L 296.641205 129.919677 
L 301.228647 129.919321 
L 301.228708 140.012628 
L 301.743766 140.096149 
L 305.335738 140.096115 
L 305.335875 129.978485 
L 305.850934 129.920437 
L 310.229795 129.918527 
L 310.229855 140.013118 
L 310.744913 140.096927 
L 314.261223 140.097079 
L 314.261361 129.978721 
L 314.776419 129.920724 
L 318.995886 129.919846 
L 318.995946 140.010718 
L 319.511005 140.096977 
L 322.95616 140.095981 
L 322.956297 129.978248 
L 323.728884 129.919626 
L 327.554684 129.919406 
L 327.554744 140.01016 
L 328.069803 140.095811 
L 331.451013 140.098178 
L 331.451151 129.980496 
L 331.966209 129.919051 
L 335.931358 129.918257 
L 335.931418 140.010853 
L 336.446476 140.095981 
L 339.762927 140.097569 
L 339.763064 129.977961 
L 340.278122 129.918476 
L 344.142217 129.918797 
L 344.142277 140.009163 
L 344.657335 140.096031 
L 347.932023 140.097975 
L 347.936478 35.745455 
L 347.935371 234.654545 
L 347.9375 234.44805 
" clip-path="url(#p4416f6d482)" style="fill: none; stroke: #ff7f0e; stroke-opacity: 0.8; stroke-linecap: square"/>
   </g>
   <g id="patch_6">
    <path d="M 38.975 244.6 
L 38.975 25.8 
" style="fill: none; stroke: #000000; stroke-width: 0.8; stroke-linejoin: miter; stroke-linecap: square"/>
   </g>
   <g id="patch_7">
    <path d="M 38.975 244.6 
L 362.65 244.6 
" style="fill: none; stroke: #000000; stroke-width: 0.8; stroke-linejoin: miter; stroke-linecap: square"/>
   </g>
  </g>
 </g>
 <defs>
  <clipPath id="p4416f6d482">
   <rect x="38.975" y="25.8" width="323.675" height="218.8"/>
  </clipPath>
 </defs>
</svg>
