<?xml version="1.0" encoding="utf-8" standalone="no"?>
<!DOCTYPE svg PUBLIC "-//W3C//DTD SVG 1.1//EN"
  "http://www.w3.org/Graphics/SVG/1.1/DTD/svg11.dtd">
<svg xmlns:xlink="http://www.w3.org/1999/xlink" width="432pt" height="288pt" viewBox="0 0 432 288" xmlns="http://www.w3.org/2000/svg" version="1.1">
 <metadata>
  <rdf:RDF xmlns:dc="http://purl.org/dc/elements/1.1/" xmlns:cc="http://creativecommons.org/ns#" xmlns:rdf="http://www.w3.org/1999/02/22-rdf-syntax-ns#">
   <cc:Work>
    <dc:type rdf:resource="http://purl.org/dc/dcmitype/StillImage"/>
    <dc:date>2025-10-07T16:08:07.961613</dc:date>
    <dc:format>image/svg+xml</dc:format>
    <dc:creator>
     <cc:Agent>
      <dc:title>Matplotlib v3.10.3, https://matplotlib.org/</dc:title>
     </cc:Agent>
    </dc:creator>
   </cc:Work>
  </rdf:RDF>
 </metadata>
 <defs>
  <style type="text/css">*{stroke-linejoin: round; stroke-linecap: butt}</style>
 </defs>
 <g id="figure_1">
  <g id="patch_1">
   <path d="M 0 288 
L 432 288 
L 432 0 
L 0 0 
z
" style="fill: #ffffff"/>
  </g>
  <g id="axes_1">
   <g id="patch_2">
    <path d="M 41.975 243.4 
L 381.625 243.4 
L 381.625 25.8 
L 41.975 25.8 
z
" style="fill: #ffffff"/>
   </g>
   <g id="matplotlib.axis_1">
    <g id="xtick_1">
     <g id="line2d_1">
      <path d="M 57.413599 243.4 
L 57.413599 25.8 
" clip-path="url(#p917810c989)" style="fill: none; stroke: #b0b0b0; stroke-opacity: 0.25; stroke-width: 0.8; stroke-linecap: square"/>
     </g>
     <g id="line2d_2">
      <defs>
       <path id="mb960c7f9d8" d="M 0 0 
L 0 3.5 
" style="stroke: #000000; stroke-width: 0.8"/>
      </defs>
      <g>
       <use xlink:href="#mb960c7f9d8" x="57.413599" y="243.4" style="stroke: #000000; stroke-width: 0.8"/>
      </g>
     </g>
     <g id="text_1">
      <text style="font-size: 10px; font-family: 'DejaVu Sans', 'Bitstream Vera Sans', 'Computer Modern Sans Serif', 'Lucida Grande', 'Verdana', 'Geneva', 'Lucid', 'Arial', 'Helvetica', 'Avant Garde', sans-serif; text-anchor: middle" x="57.413599" y="257.998438" transform="rotate(-0 57.413599 257.998438)">0</text>
     </g>
    </g>
    <g id="xtick_2">
     <g id="line2d_3">
      <path d="M 132.196949 243.4 
L 132.196949 25.8 
" clip-path="url(#p917810c989)" style="fill: none; stroke: #b0b0b0; stroke-opacity: 0.25; stroke-width: 0.8; stroke-linecap: square"/>
     </g>
     <g id="line2d_4">
      <g>
       <use xlink:href="#mb960c7f9d8" x="132.196949" y="243.4" style="stroke: #000000; stroke-width: 0.8"/>
      </g>
     </g>
     <g id="text_2">
      <text style="font-size: 10px; font-family: 'DejaVu Sans', 'Bitstream Vera Sans', 'Computer Modern Sans Serif', 'Lucida Grande', 'Verdana', 'Geneva', 'Lucid', 'Arial', 'Helvetica', 'Avant Garde', sans-serif; text-anchor: middle" x="132.196949" y="257.998438" transform="rotate(-0 132.196949 257.998438)">10000</text>
     </g>
    </g>
    <g id="xtick_3">
     <g id="line2d_5">
      <path d="M 206.980299 243.4 
L 206.980299 25.8 
" clip-path="url(#p917810c989)" style="fill: none; stroke: #b0b0b0; stroke-opacity: 0.25; stroke-width: 0.8; stroke-linecap: square"/>
     </g>
     <g id="line2d_6">
      <g>
       <use xlink:href="#mb960c7f9d8" x="206.980299" y="243.4" style="stroke: #000000; stroke-width: 0.8"/>
      </g>
     </g>
     <g id="text_3">
      <text style="font-size: 10px; font-family: 'DejaVu Sans', 'Bitstream Vera Sans', 'Computer Modern Sans Serif', 'Lucida Grande', 'Verdana', 'Geneva', 'Lucid', 'Arial', 'Helvetica', 'Avant Garde', sans-serif; text-anchor: middle" x="206.980299" y="257.998438" transform="rotate(-0 206.980299 257.998438)">20000</text>
     </g>
    </g>
    <g id="xtick_4">
     <g id="line2d_7">
      <path d="M 281.763649 243.4 
L 281.763649 25.8 
" clip-path="url(#p917810c989)" style="fill: none; stroke: #b0b0b0; stroke-opacity: 0.25; stroke-width: 0.8; stroke-linecap: square"/>
     </g>
     <g id="line2d_8">
      <g>
       <use xlink:href="#mb960c7f9d8" x="281.763649" y="243.4" style="stroke: #000000; stroke-width: 0.8"/>
      </g>
     </g>
     <g id="text_4">
      <text style="font-size: 10px; font-family: 'DejaVu Sans', 'Bitstream Vera Sans', 'Computer Modern Sans Serif', 'Lucida Grande', 'Verdana', 'Geneva', 'Lucid', 'Arial', 'Helvetica', 'Avant Garde', sans-serif; text-anchor: middle" x="281.763649" y="257.998438" transform="rotate(-0 281.763649 257.998438)">30000</text>
     </g>
    </g>
    <g id="xtick_5">
     <g id="line2d_9">
      <path d="M 356.546999 243.4 
L 356.546999 25.8 
" clip-path="url(#p917810c989)" style="fill: none; stroke: #b0b0b0; stroke-opacity: 0.25; stroke-width: 0.8; stroke-linecap: square"/>
     </g>
     <g id="line2d_10">
      <g>
       <use xlink:href="#mb960c7f9d8" x="356.546999" y="243.4" style="stroke: #000000; stroke-width: 0.8"/>
      </g>
     </g>
     <g id="text_5">
      <text style="font-size: 10px; font-family: 'DejaVu Sans', 'Bitstream Vera Sans', 'Computer Modern Sans Serif', 'Lucida Grande', 'Verdana', 'Geneva', 'Lucid', 'Arial', 'Helvetica', 'Avant Garde', sans-serif; text-anchor: middle" x="356.546999" y="257.998438" transform="rotate(-0 356.546999 257.998438)">40000</text>
     </g>
    </g>
    <g id="text_6">
     <text style="font-size: 14px; font-family: 'DejaVu Sans', 'Bitstream Vera Sans', 'Computer Modern Sans Serif', 'Lucida Grande', 'Verdana', 'Geneva', 'Lucid', 'Arial', 'Helvetica', 'Avant Garde', sans-serif; text-anchor: middle" x="211.8" y="274.715937" transform="rotate(-0 211.8 274.715937)">Time [s]</text>
    </g>
   </g>
   <g id="matplotlib.axis_2">
    <g id="ytick_1">
     <g id="line2d_11">
      <path d="M 41.975 226.511225 
L 381.625 226.511225 
" clip-path="url(#p917810c989)" style="fill: none; stroke: #b0b0b0; stroke-opacity: 0.25; stroke-width: 0.8; stroke-linecap: square"/>
     </g>
     <g id="line2d_12">
      <defs>
       <path id="m6f9f600897" d="M 0 0 
L -3.5 0 
" style="stroke: #000000; stroke-width: 0.8"/>
      </defs>
      <g>
       <use xlink:href="#m6f9f600897" x="41.975" y="226.511225" style="stroke: #000000; stroke-width: 0.8"/>
      </g>
     </g>
     <g id="text_7">
      <text style="font-size: 10px; font-family: 'DejaVu Sans', 'Bitstream Vera Sans', 'Computer Modern Sans Serif', 'Lucida Grande', 'Verdana', 'Geneva', 'Lucid', 'Arial', 'Helvetica', 'Avant Garde', sans-serif; text-anchor: end; fill: #1f77b4" x="34.975" y="230.310444" transform="rotate(-0 34.975 230.310444)">0</text>
     </g>
    </g>
    <g id="ytick_2">
     <g id="line2d_13">
      <path d="M 41.975 185.886761 
L 381.625 185.886761 
" clip-path="url(#p917810c989)" style="fill: none; stroke: #b0b0b0; stroke-opacity: 0.25; stroke-width: 0.8; stroke-linecap: square"/>
     </g>
     <g id="line2d_14">
      <g>
       <use xlink:href="#m6f9f600897" x="41.975" y="185.886761" style="stroke: #000000; stroke-width: 0.8"/>
      </g>
     </g>
     <g id="text_8">
      <text style="font-size: 10px; font-family: 'DejaVu Sans', 'Bitstream Vera Sans', 'Computer Modern Sans Serif', 'Lucida Grande', 'Verdana', 'Geneva', 'Lucid', 'Arial', 'Helvetica', 'Avant Garde', sans-serif; text-anchor: end; fill: #1f77b4" x="34.975" y="189.68598" transform="rotate(-0 34.975 189.68598)">1</text>
     </g>
    </g>
    <g id="ytick_3">
     <g id="line2d_15">
      <path d="M 41.975 145.262297 
L 381.625 145.262297 
" clip-path="url(#p917810c989)" style="fill: none; stroke: #b0b0b0; stroke-opacity: 0.25; stroke-width: 0.8; stroke-linecap: square"/>
     </g>
     <g id="line2d_16">
      <g>
       <use xlink:href="#m6f9f600897" x="41.975" y="145.262297" style="stroke: #000000; stroke-width: 0.8"/>
      </g>
     </g>
     <g id="text_9">
      <text style="font-size: 10px; font-family: 'DejaVu Sans', 'Bitstream Vera Sans', 'Computer Modern Sans Serif', 'Lucida Grande', 'Verdana', 'Geneva', 'Lucid', 'Arial', 'Helvetica', 'Avant Garde', sans-serif; text-anchor: end; fill: #1f77b4" x="34.975" y="149.061515" transform="rotate(-0 34.975 149.061515)">2</text>
     </g>
    </g>
    <g id="ytick_4">
     <g id="line2d_17">
      <path d="M 41.975 104.637832 
L 381.625 104.637832 
" clip-path="url(#p917810c989)" style="fill: none; stroke: #b0b0b0; stroke-opacity: 0.25; stroke-width: 0.8; stroke-linecap: square"/>
     </g>
     <g id="line2d_18">
      <g>
       <use xlink:href="#m6f9f600897" x="41.975" y="104.637832" style="stroke: #000000; stroke-width: 0.8"/>
      </g>
     </g>
     <g id="text_10">
      <text style="font-size: 10px; font-family: 'DejaVu Sans', 'Bitstream Vera Sans', 'Computer Modern Sans Serif', 'Lucida Grande', 'Verdana', 'Geneva', 'Lucid', 'Arial', 'Helvetica', 'Avant Garde', sans-serif; text-anchor: end; fill: #1f77b4" x="34.975" y="108.437051" transform="rotate(-0 34.975 108.437051)">3</text>
     </g>
    </g>
    <g id="ytick_5">
     <g id="line2d_19">
      <path d="M 41.975 64.013368 
L 381.625 64.013368 
" clip-path="url(#p917810c989)" style="fill: none; stroke: #b0b0b0; stroke-opacity: 0.25; stroke-width: 0.8; stroke-linecap: square"/>
     </g>
     <g id="line2d_20">
      <g>
       <use xlink:href="#m6f9f600897" x="41.975" y="64.013368" style="stroke: #000000; stroke-width: 0.8"/>
      </g>
     </g>
     <g id="text_11">
      <text style="font-size: 10px; font-family: 'DejaVu Sans', 'Bitstream Vera Sans', 'Computer Modern Sans Serif', 'Lucida Grande', 'Verdana', 'Geneva', 'Lucid', 'Arial', 'Helvetica', 'Avant Garde', sans-serif; text-anchor: end; fill: #1f77b4" x="34.975" y="67.812587" transform="rotate(-0 34.975 67.812587)">4</text>
     </g>
    </g>
    <g id="text_12">
     <text style="font-size: 14px; font-family: 'DejaVu Sans', 'Bitstream Vera Sans', 'Computer Modern Sans Serif', 'Lucida Grande', 'Verdana', 'Geneva', 'Lucid', 'Arial', 'Helvetica', 'Avant Garde', sans-serif; text-anchor: middle; fill: #1f77b4" x="21.700938" y="134.6" transform="rotate(-90 21.700938 134.6)">Potential [V]</text>
    </g>
   </g>
   <g id="line2d_21">
    <path d="M 57.413636 212.301942 
L 57.637986 212.555112 
L 57.862336 211.323874 
L 58.984087 210.520273 
L 59.208437 212.392449 
L 59.432787 223.608075 
L 59.657137 214.746166 
L 59.881487 210.744401 
L 60.105837 224.898287 
L 60.330187 219.375398 
L 60.554537 224.277792 
L 60.778887 212.464291 
L 61.003237 213.660603 
L 61.227587 212.644142 
L 61.451937 227.319878 
L 61.900637 214.432869 
L 62.124987 221.73968 
L 62.349337 221.530737 
L 62.573688 219.162987 
L 62.798038 214.353842 
L 63.022388 215.86395 
L 63.246738 215.806203 
L 63.471088 213.529411 
L 63.919788 215.342488 
L 64.144138 210.807732 
L 64.368488 211.021031 
L 64.592838 212.820788 
L 64.817188 211.672158 
L 65.265888 219.472753 
L 65.490238 217.735938 
L 65.714588 213.133119 
L 65.938938 214.094138 
L 66.163288 216.523415 
L 66.387638 210.387918 
L 66.836338 210.267742 
L 67.509389 210.266528 
L 67.733739 220.824041 
L 67.958089 212.345656 
L 68.182439 212.606649 
L 68.406789 217.374834 
L 68.631139 210.729279 
L 68.855489 219.568768 
L 69.079839 223.228069 
L 69.304189 213.787126 
L 69.528539 212.524417 
L 69.752889 214.198928 
L 69.977239 225.285415 
L 70.201589 215.09445 
L 70.425939 211.955072 
L 70.650289 211.41701 
L 70.874639 210.32107 
L 71.098989 210.65288 
L 71.323339 210.198202 
L 71.77204 210.180576 
L 71.99639 211.054104 
L 72.22074 229.257749 
L 72.44509 233.509091 
L 72.66944 231.660237 
L 72.89379 226.103762 
L 73.11814 228.013429 
L 73.34249 214.707384 
L 73.79119 216.324336 
L 74.01554 213.149518 
L 74.23989 214.273725 
L 74.46424 210.427137 
L 74.91294 212.664659 
L 75.13729 216.269793 
L 75.36164 215.603857 
L 75.58599 214.535358 
L 75.81034 220.114967 
L 76.034691 213.701625 
L 76.259041 224.161271 
L 76.483391 226.090179 
L 76.707741 222.05285 
L 76.932091 222.479262 
L 77.156441 222.645517 
L 77.605141 233.509091 
L 77.829491 229.521172 
L 78.053841 213.695466 
L 78.278191 215.077338 
L 78.502541 218.758558 
L 78.726891 210.138077 
L 78.951241 210.453551 
L 79.175591 210.068212 
L 79.848641 210.063919 
L 81.867792 210.036678 
L 82.316492 210.171851 
L 82.540842 210.058861 
L 83.213892 210.048922 
L 93.533994 209.996432 
L 93.758344 210.089556 
L 93.982695 210.463867 
L 94.207045 210.038481 
L 94.655745 209.896186 
L 96.001845 209.954709 
L 96.226195 211.276004 
L 96.674895 217.985841 
L 96.899245 218.37829 
L 97.123595 216.791194 
L 97.347945 211.073208 
L 97.572295 212.610881 
L 97.796645 215.136424 
L 98.020995 211.637232 
L 98.245345 210.09514 
L 98.469696 215.342676 
L 98.694046 216.600515 
L 98.918396 213.472491 
L 99.591446 222.853308 
L 99.815796 216.715633 
L 100.264496 216.765494 
L 100.488846 211.128075 
L 100.713196 210.490017 
L 100.937546 211.182867 
L 101.161896 213.165291 
L 101.386246 210.258578 
L 101.610596 209.923363 
L 102.283646 209.881452 
L 103.854097 209.85107 
L 104.302797 209.97733 
L 104.527147 210.173841 
L 104.751497 215.951566 
L 104.975847 218.20088 
L 105.200197 224.670879 
L 105.424547 211.613584 
L 105.648897 211.081156 
L 105.873247 224.359198 
L 106.097597 230.050909 
L 106.321947 230.363115 
L 106.770647 226.504285 
L 106.994997 217.904322 
L 107.219348 223.558915 
L 107.443698 217.135197 
L 107.668048 222.818958 
L 107.892398 220.701687 
L 108.116748 228.040231 
L 108.341098 226.476657 
L 108.565448 231.167104 
L 108.789798 218.445913 
L 109.014148 222.782743 
L 109.238498 211.547951 
L 109.462848 212.310542 
L 109.687198 211.000201 
L 109.911548 219.497176 
L 110.135898 209.812038 
L 116.4177 209.797354 
L 116.64205 212.092685 
L 116.8664 231.058783 
L 117.09075 233.509091 
L 117.3151 233.208226 
L 117.53945 226.579658 
L 117.7638 233.509091 
L 117.98815 231.487572 
L 118.2125 233.509091 
L 118.88555 233.509091 
L 119.1099 221.100608 
L 119.33425 233.509091 
L 119.5586 228.131051 
L 119.78295 232.718422 
L 120.0073 228.78999 
L 120.23165 231.368035 
L 120.680351 225.197599 
L 120.904701 216.599814 
L 121.129051 218.926103 
L 121.353401 233.509091 
L 121.577751 227.573874 
L 121.802101 227.280783 
L 122.026451 228.555472 
L 122.250801 221.394225 
L 122.475151 220.232389 
L 122.699501 212.23388 
L 122.923851 212.928971 
L 123.148201 214.105742 
L 123.596901 222.267364 
L 123.821251 212.435012 
L 124.045601 210.963409 
L 124.269951 223.981358 
L 124.494301 210.949952 
L 124.718651 210.246336 
L 124.943001 210.284153 
L 125.167352 209.968104 
L 125.391702 209.883242 
L 125.616052 209.941827 
L 126.064752 209.834271 
L 126.289102 209.843885 
L 126.513452 215.237509 
L 126.737802 211.54705 
L 126.962152 215.223013 
L 127.186502 216.106617 
L 127.410852 210.629421 
L 127.635202 210.022258 
L 127.859552 211.777337 
L 128.083902 231.069611 
L 128.308252 233.509091 
L 128.532602 224.567052 
L 128.756952 227.024145 
L 128.981302 233.509091 
L 129.654353 233.509091 
L 129.878703 231.25696 
L 130.103053 233.509091 
L 130.551753 233.509091 
L 130.776103 231.81092 
L 131.000453 233.509091 
L 132.122203 233.509091 
L 132.346553 214.299687 
L 132.570903 210.167696 
L 133.019603 210.885858 
L 133.243953 221.159569 
L 133.468303 214.900567 
L 133.692653 217.332786 
L 133.917003 212.154213 
L 134.141354 209.831003 
L 135.038754 209.838564 
L 135.263104 210.088592 
L 135.487454 210.053853 
L 135.711804 210.430856 
L 135.936154 212.589988 
L 136.160504 210.22742 
L 136.384854 211.107558 
L 136.609204 212.541204 
L 136.833554 210.488865 
L 137.057904 209.962971 
L 137.282254 210.036741 
L 137.506604 210.727552 
L 137.955304 232.395525 
L 138.179654 225.956922 
L 138.404004 233.509091 
L 140.871855 233.509091 
L 141.544905 217.872525 
L 141.769255 221.527144 
L 141.993605 222.817231 
L 142.217955 216.209744 
L 142.442305 214.863199 
L 142.666655 219.907313 
L 142.891005 218.738241 
L 143.115356 214.40185 
L 143.339706 214.540101 
L 143.564056 215.630521 
L 143.788406 212.233428 
L 144.012756 230.100644 
L 144.237106 226.896734 
L 144.461456 232.838735 
L 144.685806 232.509091 
L 144.910156 213.710664 
L 145.134506 232.91019 
L 145.358856 233.509091 
L 145.807556 233.509091 
L 146.031906 227.719249 
L 146.256256 229.45182 
L 146.480606 233.509091 
L 147.153656 233.509091 
L 147.378006 230.644101 
L 147.602357 233.509091 
L 149.397157 233.509091 
L 149.621507 231.710748 
L 149.845857 233.509091 
L 150.518907 233.509091 
L 150.743257 216.565401 
L 150.967607 233.509091 
L 152.986758 233.509091 
L 153.211108 225.298109 
L 153.435458 224.491166 
L 153.659808 233.509091 
L 153.884158 210.106994 
L 154.108508 209.916828 
L 154.332858 226.938908 
L 154.557208 212.126585 
L 154.781558 211.898413 
L 155.005908 233.509091 
L 155.230258 227.296093 
L 155.454608 211.821313 
L 155.678958 230.355867 
L 155.903308 233.509091 
L 156.127658 225.107743 
L 156.352008 229.243328 
L 156.576359 225.989032 
L 156.800709 225.452059 
L 157.025059 221.394926 
L 157.249409 210.709538 
L 157.473759 214.581763 
L 157.698109 210.934566 
L 157.922459 233.509091 
L 158.371159 233.509091 
L 158.595509 232.728425 
L 158.819859 231.257411 
L 159.044209 233.509091 
L 159.268559 233.509091 
L 159.492909 226.802897 
L 159.717259 233.509091 
L 159.941609 233.509091 
L 160.165959 215.480227 
L 160.390309 232.63639 
L 160.614659 233.509091 
L 161.96076 233.509091 
L 162.18511 224.415468 
L 162.40946 220.66586 
L 162.63381 225.968076 
L 162.85816 222.651989 
L 163.08251 224.48174 
L 163.30686 229.706017 
L 163.97991 217.007134 
L 164.42861 233.39416 
L 164.87731 233.509091 
L 165.10166 226.105302 
L 165.32601 233.509091 
L 167.569511 233.509091 
L 167.793861 231.535956 
L 168.242561 225.789577 
L 168.466911 227.752823 
L 168.691261 233.509091 
L 172.056512 233.509091 
L 172.280862 218.804575 
L 172.505212 218.752662 
L 172.729562 222.318451 
L 173.178262 221.919856 
L 173.402612 223.777923 
L 173.626962 223.862785 
L 174.075662 233.509091 
L 174.300013 222.072717 
L 174.524363 233.509091 
L 175.197413 233.509091 
L 175.421763 230.531737 
L 175.646113 223.24403 
L 175.870463 227.208352 
L 176.094813 233.509091 
L 176.319163 220.498703 
L 176.543513 222.767934 
L 176.767863 210.317226 
L 176.992213 210.133595 
L 181.254864 210.183969 
L 181.479214 210.936495 
L 181.703564 211.217994 
L 181.927914 214.73033 
L 182.152264 222.099506 
L 182.376614 222.072717 
L 182.600964 215.238599 
L 182.825314 216.278381 
L 183.049664 226.375647 
L 183.274015 224.871435 
L 183.498365 217.341899 
L 183.947065 226.119723 
L 184.171415 223.44048 
L 184.620115 210.988984 
L 184.844465 210.302667 
L 185.293165 210.278182 
L 185.517515 210.475533 
L 185.741865 211.08391 
L 185.966215 211.334715 
L 186.190565 215.013306 
L 186.639265 211.416433 
L 186.863615 212.197151 
L 187.312315 211.235043 
L 187.761016 210.744338 
L 187.985366 210.917329 
L 188.434066 210.933227 
L 188.882766 211.255686 
L 189.107116 212.10966 
L 189.331466 212.040834 
L 189.555816 214.183543 
L 189.780166 213.460636 
L 190.004516 214.02421 
L 190.228866 221.08118 
L 190.453216 211.826947 
L 190.677566 211.578395 
L 190.901916 216.504374 
L 191.126266 218.284265 
L 191.350616 215.602067 
L 191.574966 215.586745 
L 191.799316 224.043724 
L 192.472367 211.709338 
L 192.696717 211.773882 
L 193.145417 212.658113 
L 193.369767 212.696894 
L 193.594117 213.006334 
L 193.818467 215.042023 
L 194.042817 215.146614 
L 194.267167 225.162222 
L 194.491517 224.645442 
L 194.715867 230.667936 
L 194.940217 233.509091 
L 195.388917 233.509091 
L 195.613267 228.278717 
L 195.837617 230.31472 
L 196.061967 227.641623 
L 196.286317 223.136222 
L 196.510667 227.635852 
L 196.735018 222.019715 
L 196.959368 220.403463 
L 197.183718 232.858026 
L 197.408068 232.940835 
L 197.632418 233.509091 
L 198.305468 224.588196 
L 198.529818 231.623834 
L 198.754168 232.986852 
L 198.978518 233.509091 
L 199.651568 233.509091 
L 199.875918 230.093208 
L 200.100268 231.497437 
L 200.324618 226.547999 
L 200.548968 229.553669 
L 200.773318 227.464026 
L 200.997668 231.361175 
L 201.222019 222.254032 
L 201.446369 228.00702 
L 201.670719 224.127559 
L 201.895069 227.977602 
L 202.119419 216.502972 
L 202.343769 221.229621 
L 202.568119 213.092673 
L 202.792469 211.598137 
L 203.241169 211.062178 
L 203.465519 211.044365 
L 203.689869 213.004482 
L 203.914219 217.72556 
L 204.138569 215.755705 
L 204.362919 211.835735 
L 204.587269 211.061289 
L 205.260319 211.002002 
L 205.484669 211.104616 
L 205.70902 216.661479 
L 205.93337 218.342012 
L 206.15772 218.446164 
L 206.38207 220.194896 
L 206.60642 217.387854 
L 206.83077 219.408984 
L 207.05512 218.91918 
L 207.27947 219.302654 
L 207.50382 216.564625 
L 207.72817 215.577581 
L 207.95252 216.102837 
L 208.17687 214.824168 
L 208.40122 215.955034 
L 208.62557 219.727788 
L 208.84992 213.70682 
L 209.07427 212.485698 
L 209.29862 214.76468 
L 209.52297 218.652228 
L 209.74732 218.762013 
L 209.97167 222.729415 
L 210.196021 212.059287 
L 210.420371 223.501682 
L 210.644721 221.275514 
L 210.869071 227.363717 
L 211.093421 229.835431 
L 211.317771 227.143683 
L 211.542121 226.459419 
L 211.766471 224.23588 
L 212.215171 213.272649 
L 212.439521 213.699259 
L 212.888221 210.885608 
L 213.112571 210.643003 
L 213.336921 210.59661 
L 213.561271 210.75896 
L 213.785621 210.531866 
L 216.253472 210.711141 
L 216.477822 212.369566 
L 216.926522 217.11404 
L 217.375222 213.080367 
L 217.599572 213.584905 
L 217.823922 213.684701 
L 218.048272 218.729779 
L 218.496972 210.889326 
L 218.94565 211.688445 
L 218.946196 212.543707 
L 219.170546 114.428587 
L 219.394896 101.898718 
L 220.067946 88.030236 
L 220.516646 81.304237 
L 220.740996 80.288166 
L 220.965346 76.91779 
L 221.414047 74.553703 
L 221.638397 76.18578 
L 221.862747 76.462856 
L 222.087097 72.486674 
L 222.311447 70.696993 
L 222.535797 67.409362 
L 223.657547 63.134765 
L 224.106247 61.79995 
L 224.554947 60.689009 
L 225.452347 59.093457 
L 225.676697 59.479371 
L 225.901048 59.377265 
L 226.125398 60.476409 
L 226.349748 62.253025 
L 226.574098 60.886925 
L 226.836961 55.869925 
L 226.837014 56.178994 
L 227.114781 129.032789 
L 227.114901 127.207658 
L 227.339251 62.031844 
L 228.012301 56.476187 
L 228.090943 55.877306 
L 228.090996 60.616192 
L 228.404794 129.017728 
L 228.404914 119.953075 
L 228.629264 61.280084 
L 229.077964 57.293267 
L 229.415446 55.888386 
L 229.415499 57.836456 
L 229.726328 129.012924 
L 229.726448 124.246268 
L 229.950798 61.554788 
L 230.175148 59.292477 
L 230.399498 59.237928 
L 230.623848 59.517319 
L 231.072548 57.322111 
L 231.273932 55.862952 
L 231.273984 53.068706 
L 231.577029 129.033815 
L 231.577149 127.70086 
L 231.801499 62.522537 
L 232.698899 57.560474 
L 232.923249 58.310819 
L 233.147599 57.427665 
L 233.219959 55.85654 
L 233.220012 52.681146 
L 233.444362 122.169185 
L 233.668712 123.945733 
L 233.945657 129.014192 
L 233.945777 120.93884 
L 234.170127 62.153359 
L 234.618827 64.587513 
L 234.843177 67.899871 
L 235.067527 67.955379 
L 235.291877 66.429564 
L 235.740577 67.375462 
L 235.964927 67.041076 
L 236.189277 67.283933 
L 236.413627 68.141886 
L 236.560292 52.313305 
L 236.784642 122.32647 
L 237.031749 129.006899 
L 237.031869 128.696872 
L 237.256219 65.979114 
L 237.480569 70.884778 
L 237.704919 71.063342 
L 238.153619 72.143009 
L 238.377969 71.15398 
L 238.602319 72.658575 
L 239.051019 69.239694 
L 239.275369 70.059892 
L 239.724069 65.949689 
L 239.948419 76.138863 
L 240.397119 62.646939 
L 240.621469 73.067047 
L 241.07017 62.945566 
L 241.29452 67.858465 
L 241.51887 66.167616 
L 241.74322 62.999012 
L 241.96757 64.124365 
L 242.19192 64.610138 
L 242.86497 67.120178 
L 243.08932 66.708946 
L 243.31367 68.267644 
L 243.53802 68.478829 
L 243.76237 68.130098 
L 243.98672 70.279349 
L 244.21107 67.823606 
L 244.43542 69.447925 
L 244.65977 69.177899 
L 244.88412 67.006081 
L 244.979432 44.18379 
L 245.203782 112.870276 
L 246.219474 129.01241 
L 246.219594 130.551679 
L 246.443944 64.486821 
L 246.668294 62.586501 
L 246.892644 65.921175 
L 247.116994 65.924245 
L 247.341344 66.385213 
L 247.565694 68.093177 
L 247.790044 65.936556 
L 248.014394 65.415343 
L 248.238744 63.724291 
L 248.463095 64.477145 
L 248.687445 63.540225 
L 248.911795 60.499093 
L 249.136145 74.135294 
L 249.360495 75.102539 
L 249.584845 77.757554 
L 249.809195 78.755173 
L 250.033545 78.598973 
L 250.257895 79.255291 
L 250.482245 82.572269 
L 250.706595 75.681304 
L 250.930945 73.732207 
L 251.155295 72.796508 
L 251.379645 70.43305 
L 251.603995 78.375991 
L 251.828345 77.928873 
L 252.052695 77.006501 
L 252.277045 79.453149 
L 252.501395 77.082001 
L 252.725745 76.676357 
L 252.950096 73.813159 
L 253.174446 74.614781 
L 253.398796 76.464716 
L 253.623146 75.549589 
L 253.847496 72.210624 
L 254.071846 74.387314 
L 254.296196 75.097338 
L 254.520546 73.973457 
L 254.744896 76.130339 
L 254.969246 75.26918 
L 255.417946 74.806546 
L 255.642296 74.771746 
L 255.866646 75.552214 
L 256.090996 72.94648 
L 256.315346 75.086442 
L 256.539696 74.597986 
L 256.764046 73.339184 
L 256.988396 75.305521 
L 257.437097 70.270893 
L 257.661447 65.816638 
L 257.885797 68.719827 
L 258.110147 61.276946 
L 258.334497 66.611266 
L 258.558847 66.408992 
L 259.007547 71.014062 
L 259.231897 70.975668 
L 259.456247 71.09238 
L 259.904947 75.00024 
L 260.129297 72.6464 
L 260.353647 71.986043 
L 260.577997 69.616881 
L 260.802347 72.852713 
L 261.026697 73.577615 
L 261.251047 72.978472 
L 261.475397 72.719788 
L 261.699747 72.026801 
L 261.924098 73.053138 
L 262.148448 72.792595 
L 262.372798 73.711761 
L 262.597148 70.93708 
L 262.821498 73.149985 
L 263.045848 72.078018 
L 263.270198 72.646138 
L 263.494548 71.207619 
L 263.718898 71.419521 
L 263.943248 68.800324 
L 264.167598 70.882279 
L 264.391948 69.876524 
L 264.616298 71.831383 
L 264.840648 71.557319 
L 265.064998 69.087658 
L 265.289348 73.206704 
L 265.513698 67.942052 
L 265.738048 75.128235 
L 266.186748 69.157201 
L 266.411099 68.169451 
L 266.859799 71.013606 
L 267.084149 71.071933 
L 267.308499 71.76402 
L 267.532849 70.254224 
L 267.757199 70.125657 
L 267.981549 70.58431 
L 268.430249 69.161947 
L 268.654599 69.758078 
L 269.103299 72.796953 
L 269.776349 69.575727 
L 270.000699 69.918181 
L 270.449399 70.060027 
L 270.673749 68.308082 
L 270.8981 69.994649 
L 271.3468 71.866697 
L 271.57115 71.359267 
L 271.7955 72.41778 
L 272.01985 72.386438 
L 272.2442 72.785476 
L 272.46855 70.441322 
L 272.6929 72.076798 
L 272.91725 72.71357 
L 273.1416 71.8358 
L 273.81465 74.792454 
L 274.039 75.243988 
L 274.4877 77.39042 
L 274.71205 77.107125 
L 274.9364 77.065215 
L 275.16075 79.696258 
L 275.385101 78.871885 
L 275.609451 79.620507 
L 275.833801 79.624468 
L 276.058151 81.437491 
L 276.282501 78.716072 
L 276.731201 81.901016 
L 276.955551 80.744833 
L 277.179901 80.933839 
L 277.628601 75.733219 
L 277.852951 78.569364 
L 278.077301 78.278117 
L 278.301651 80.053328 
L 278.526001 80.014034 
L 278.750351 77.511306 
L 278.974701 78.96232 
L 279.199051 79.050643 
L 279.647751 82.02568 
L 279.872102 80.690613 
L 280.320802 80.147162 
L 280.545152 78.636592 
L 280.769502 78.655828 
L 280.993852 78.183712 
L 281.218202 77.113992 
L 281.442552 77.819474 
L 281.666902 77.349595 
L 281.891252 77.713649 
L 282.115602 79.725935 
L 282.339952 77.769409 
L 282.788652 79.370404 
L 283.237352 78.380669 
L 283.461702 74.360707 
L 283.686052 73.870208 
L 283.910402 75.040232 
L 284.134752 74.883528 
L 284.359103 74.216566 
L 284.807803 70.41395 
L 285.032153 70.818189 
L 285.256503 68.629964 
L 285.480853 69.774805 
L 285.705203 69.838391 
L 285.929553 69.307822 
L 286.153903 71.699029 
L 286.378253 72.824896 
L 286.602603 71.696918 
L 286.826953 69.225078 
L 287.051303 70.787941 
L 287.275653 70.560406 
L 287.500003 70.123856 
L 287.724353 71.346385 
L 287.948703 68.358331 
L 288.173053 68.9271 
L 288.397403 72.210053 
L 288.621753 71.343305 
L 288.846104 72.369836 
L 289.070454 75.171879 
L 289.294804 74.547291 
L 289.519154 74.782516 
L 289.743504 74.578634 
L 289.967854 77.04073 
L 290.192204 78.013419 
L 290.416554 75.71777 
L 290.640904 77.263703 
L 290.865254 75.989268 
L 291.089604 75.529336 
L 291.313954 72.443031 
L 291.538304 71.73813 
L 291.762654 72.657296 
L 291.987004 71.749152 
L 292.211354 71.439706 
L 292.435704 67.969162 
L 292.660054 67.714256 
L 292.884404 71.854261 
L 293.108754 72.938799 
L 293.333105 73.011286 
L 293.557455 74.940247 
L 293.781805 75.100292 
L 294.006155 72.595637 
L 294.230505 76.373061 
L 294.454855 75.385573 
L 294.679205 76.814987 
L 294.903555 79.246196 
L 295.127905 74.953003 
L 295.352255 77.957717 
L 295.576605 76.094958 
L 295.800955 72.056545 
L 296.025305 76.117903 
L 296.249655 78.103272 
L 296.474005 76.659378 
L 296.698355 78.227481 
L 296.922705 76.798647 
L 297.147055 76.712755 
L 297.371405 76.354474 
L 297.820106 67.476599 
L 298.044456 69.932032 
L 298.268806 79.546925 
L 298.493156 82.411459 
L 298.717506 81.433908 
L 298.941856 84.386 
L 299.166206 81.720147 
L 299.390556 86.73952 
L 299.614906 82.736673 
L 299.839256 86.631515 
L 300.063606 86.721379 
L 300.287956 87.843662 
L 300.512306 86.204592 
L 300.736656 87.522235 
L 300.961006 86.214724 
L 301.409706 88.370512 
L 301.634056 84.331324 
L 301.858406 87.426279 
L 302.082756 77.831445 
L 302.307107 84.272939 
L 302.531457 76.15066 
L 302.755807 77.584171 
L 302.980157 75.691813 
L 303.204507 78.571476 
L 303.653207 75.399094 
L 303.877557 78.438928 
L 304.101907 78.969565 
L 304.326257 72.591473 
L 304.550607 72.737222 
L 304.774957 81.648105 
L 304.999307 75.903637 
L 305.223657 83.346974 
L 305.448007 80.377642 
L 305.672357 88.026459 
L 305.896707 88.869932 
L 306.345407 91.717613 
L 306.569757 90.036052 
L 306.794108 89.550153 
L 307.018458 91.448488 
L 307.242808 94.933192 
L 307.691508 85.593265 
L 307.915858 88.081512 
L 308.140208 82.887294 
L 308.364558 90.235256 
L 308.813258 81.844491 
L 309.037608 77.0663 
L 309.261958 84.401187 
L 309.486308 77.132066 
L 309.710658 81.536391 
L 309.935008 75.545298 
L 310.159358 83.943754 
L 310.383708 81.963314 
L 310.608058 82.493883 
L 310.832408 93.670748 
L 311.056759 96.78954 
L 311.281109 95.461969 
L 311.505459 88.45281 
L 311.729809 93.051081 
L 311.954159 95.344425 
L 312.178509 95.201368 
L 312.402859 95.632843 
L 312.627209 98.445792 
L 313.075909 88.010177 
L 313.300259 100.554343 
L 313.524609 103.53432 
L 313.748959 103.474579 
L 313.973309 107.186886 
L 314.197659 106.140877 
L 314.422009 106.264901 
L 314.870709 103.055414 
L 315.095059 103.113731 
L 315.319409 102.685588 
L 315.54376 107.423913 
L 315.76811 104.387469 
L 315.99246 104.967202 
L 316.21681 102.711739 
L 316.44116 104.481555 
L 316.66551 100.515436 
L 316.88986 103.238395 
L 317.11421 99.848038 
L 317.56291 89.953434 
L 317.78726 100.190619 
L 318.01161 100.64286 
L 318.23596 99.546408 
L 318.46031 99.688564 
L 318.68466 95.351602 
L 318.90901 97.262808 
L 319.13336 101.093571 
L 319.35771 96.333773 
L 319.58206 96.91215 
L 319.80641 95.468439 
L 320.030761 95.564133 
L 320.255111 95.534592 
L 320.479461 97.624169 
L 320.703811 96.49869 
L 321.376861 88.331605 
L 321.601211 88.203038 
L 321.825561 86.915837 
L 322.274261 78.668264 
L 322.498611 84.404393 
L 322.722961 85.998211 
L 322.947311 83.77134 
L 323.171661 90.398818 
L 323.396011 86.430907 
L 323.620361 85.600829 
L 323.844711 93.250935 
L 324.069061 96.119895 
L 324.293411 95.344105 
L 324.517762 93.664201 
L 324.742112 95.609327 
L 324.966462 91.669678 
L 325.190812 98.398555 
L 325.415162 94.86641 
L 325.639512 93.61216 
L 326.088212 89.759682 
L 326.312562 91.988926 
L 326.536912 86.568704 
L 326.761262 87.49435 
L 326.985612 86.5864 
L 327.209962 84.666215 
L 327.434312 84.610968 
L 327.883012 84.094056 
L 328.107362 81.683681 
L 328.331712 89.357555 
L 328.780412 91.0479 
L 329.004763 91.343825 
L 329.229113 89.082018 
L 329.677813 71.742479 
L 329.902163 77.912659 
L 330.126513 80.421992 
L 330.350863 67.905198 
L 330.575213 72.035004 
L 330.799563 69.479723 
L 331.248263 68.987218 
L 331.472613 68.040051 
L 331.696963 67.88789 
L 331.921313 66.599857 
L 332.145663 66.825144 
L 332.370013 66.332078 
L 332.818713 66.184343 
L 333.267413 66.656585 
L 333.491764 66.133958 
L 333.716114 66.290992 
L 333.940464 66.010012 
L 334.837864 81.927487 
L 335.062214 83.148477 
L 335.286564 86.210355 
L 335.510914 85.52962 
L 335.735264 83.009837 
L 335.959614 73.985506 
L 336.183964 80.379434 
L 336.632664 76.473753 
L 336.857014 79.707222 
L 337.081364 76.728717 
L 337.530064 68.701047 
L 337.754414 70.333191 
L 337.978765 76.054578 
L 338.203115 78.77408 
L 338.427465 73.665812 
L 338.651815 76.435107 
L 339.100515 76.651039 
L 339.324865 75.343915 
L 339.549215 68.284051 
L 339.773565 69.072975 
L 339.997915 67.438845 
L 340.222265 62.425429 
L 340.446615 70.655519 
L 340.895315 73.175109 
L 341.119665 73.206006 
L 341.344015 71.63122 
L 341.568365 68.717648 
L 341.792715 69.991705 
L 342.017065 72.089931 
L 342.465766 65.812279 
L 342.690116 70.078488 
L 343.138816 66.476355 
L 343.587516 67.452947 
L 343.811866 67.451088 
L 344.036216 68.289175 
L 344.260566 66.812069 
L 344.484916 70.19488 
L 344.933616 68.660793 
L 345.157966 66.70728 
L 345.382316 66.517112 
L 345.606666 69.816976 
L 345.831016 69.961893 
L 346.279716 65.186598 
L 346.504066 66.582171 
L 346.728416 63.32532 
L 347.177117 63.750771 
L 347.401467 67.585108 
L 347.625817 68.342311 
L 347.850167 66.684015 
L 348.074517 66.609988 
L 348.298867 67.266693 
L 348.523217 67.463776 
L 348.747567 67.206632 
L 348.971917 67.721055 
L 349.196267 69.051192 
L 350.093667 79.353929 
L 350.318017 79.548145 
L 350.542367 75.926011 
L 350.766717 74.471017 
L 350.991067 71.763255 
L 351.215417 72.616723 
L 351.439768 71.317929 
L 351.664118 64.195187 
L 351.888468 71.537066 
L 352.112818 72.875339 
L 352.337168 70.857862 
L 352.561518 71.719476 
L 352.785868 69.67328 
L 353.010218 68.959924 
L 353.234568 70.762361 
L 353.458918 69.420815 
L 353.683268 70.093995 
L 353.907618 77.037398 
L 354.131968 78.742737 
L 354.356318 78.230755 
L 354.580668 70.559631 
L 354.805018 76.00555 
L 355.029368 72.882264 
L 355.253718 73.58608 
L 355.478068 71.043099 
L 355.702418 71.44605 
L 355.926769 73.243112 
L 356.151119 71.848876 
L 356.375469 73.952371 
L 356.824169 81.020244 
L 357.272869 78.419576 
L 357.497219 78.785809 
L 357.721569 75.715717 
L 357.945919 76.686866 
L 358.170269 78.180118 
L 358.843319 64.718133 
L 359.067669 69.134324 
L 359.217961 55.868007 
L 359.218014 60.300402 
L 359.442364 110.600266 
L 359.891064 113.295475 
L 360.339764 121.007104 
L 360.564114 121.934154 
L 360.788464 123.571616 
L 360.933417 129.033874 
L 360.933536 125.822013 
L 361.157886 60.432572 
L 361.382236 65.271967 
L 361.606586 65.34087 
L 361.830936 65.605763 
L 362.055287 62.352186 
L 362.280175 55.065747 
L 362.504525 110.447087 
L 362.728875 121.206696 
L 362.953225 121.122402 
L 363.626275 123.677886 
L 363.881384 129.006696 
L 363.881503 124.015595 
L 364.105853 60.790844 
L 364.330203 59.899127 
L 364.554554 60.628571 
L 364.737107 55.804102 
L 364.961457 114.420955 
L 365.410157 118.612817 
L 365.634507 122.502661 
L 365.858857 123.955409 
L 366.083207 126.569918 
L 366.179042 129.004846 
L 366.179214 127.737646 
L 366.186259 35.690909 
L 366.183986 143.730505 
L 366.186364 143.626414 
" clip-path="url(#p917810c989)" style="fill: none; stroke: #1f77b4; stroke-width: 1.2; stroke-linecap: square"/>
   </g>
   <g id="patch_3">
    <path d="M 41.975 243.4 
L 41.975 25.8 
" style="fill: none; stroke: #000000; stroke-width: 0.8; stroke-linejoin: miter; stroke-linecap: square"/>
   </g>
   <g id="patch_4">
    <path d="M 41.975 243.4 
L 381.625 243.4 
" style="fill: none; stroke: #000000; stroke-width: 0.8; stroke-linejoin: miter; stroke-linecap: square"/>
   </g>
   <g id="text_13">
    <text style="font-size: 12px; font-family: 'DejaVu Sans', 'Bitstream Vera Sans', 'Computer Modern Sans Serif', 'Lucida Grande', 'Verdana', 'Geneva', 'Lucid', 'Arial', 'Helvetica', 'Avant Garde', sans-serif; text-anchor: middle" x="211.8" y="19.8" transform="rotate(-0 211.8 19.8)">Voltage and Current vs Time</text>
   </g>
   <g id="legend_1">
    <g id="patch_5">
     <path d="M 47.575 55.685 
L 125.2675 55.685 
Q 126.8675 55.685 126.8675 54.085 
L 126.8675 31.4 
Q 126.8675 29.8 125.2675 29.8 
L 47.575 29.8 
Q 45.975 29.8 45.975 31.4 
L 45.975 54.085 
Q 45.975 55.685 47.575 55.685 
z
" style="fill: #ffffff; opacity: 0.8; stroke: #cccccc; stroke-linejoin: miter"/>
    </g>
    <g id="line2d_22">
     <path d="M 49.175 36.27875 
L 57.175 36.27875 
L 65.175 36.27875 
" style="fill: none; stroke: #1f77b4; stroke-width: 1.2; stroke-linecap: square"/>
    </g>
    <g id="text_14">
     <text style="font-size: 8px; font-family: 'DejaVu Sans', 'Bitstream Vera Sans', 'Computer Modern Sans Serif', 'Lucida Grande', 'Verdana', 'Geneva', 'Lucid', 'Arial', 'Helvetica', 'Avant Garde', sans-serif; text-anchor: start" x="71.575" y="39.07875" transform="rotate(-0 71.575 39.07875)">Voltage (V)</text>
    </g>
    <g id="line2d_23">
     <path d="M 49.175 48.02125 
L 57.175 48.02125 
L 65.175 48.02125 
" style="fill: none; stroke: #ff7f0e; stroke-opacity: 0.8; stroke-linecap: square"/>
    </g>
    <g id="text_15">
     <text style="font-size: 8px; font-family: 'DejaVu Sans', 'Bitstream Vera Sans', 'Computer Modern Sans Serif', 'Lucida Grande', 'Verdana', 'Geneva', 'Lucid', 'Arial', 'Helvetica', 'Avant Garde', sans-serif; text-anchor: start" x="71.575" y="50.82125" transform="rotate(-0 71.575 50.82125)">Current (mA)</text>
    </g>
   </g>
  </g>
  <g id="axes_2">
   <g id="matplotlib.axis_3">
    <g id="ytick_6">
     <g id="line2d_24">
      <path d="M 41.975 219.261438 
L 381.625 219.261438 
" clip-path="url(#p917810c989)" style="fill: none; stroke: #b0b0b0; stroke-opacity: 0.25; stroke-width: 0.8; stroke-linecap: square"/>
     </g>
     <g id="line2d_25">
      <defs>
       <path id="m2548a46ae5" d="M 0 0 
L 3.5 0 
" style="stroke: #000000; stroke-width: 0.8"/>
      </defs>
      <g>
       <use xlink:href="#m2548a46ae5" x="381.625" y="219.261438" style="stroke: #000000; stroke-width: 0.8"/>
      </g>
     </g>
     <g id="text_16">
      <text style="font-size: 10px; font-family: 'DejaVu Sans', 'Bitstream Vera Sans', 'Computer Modern Sans Serif', 'Lucida Grande', 'Verdana', 'Geneva', 'Lucid', 'Arial', 'Helvetica', 'Avant Garde', sans-serif; text-anchor: start; fill: #ff7f0e" x="388.625" y="223.060656" transform="rotate(-0 388.625 223.060656)">−4</text>
     </g>
    </g>
    <g id="ytick_7">
     <g id="line2d_26">
      <path d="M 41.975 177.56577 
L 381.625 177.56577 
" clip-path="url(#p917810c989)" style="fill: none; stroke: #b0b0b0; stroke-opacity: 0.25; stroke-width: 0.8; stroke-linecap: square"/>
     </g>
     <g id="line2d_27">
      <g>
       <use xlink:href="#m2548a46ae5" x="381.625" y="177.56577" style="stroke: #000000; stroke-width: 0.8"/>
      </g>
     </g>
     <g id="text_17">
      <text style="font-size: 10px; font-family: 'DejaVu Sans', 'Bitstream Vera Sans', 'Computer Modern Sans Serif', 'Lucida Grande', 'Verdana', 'Geneva', 'Lucid', 'Arial', 'Helvetica', 'Avant Garde', sans-serif; text-anchor: start; fill: #ff7f0e" x="388.625" y="181.364988" transform="rotate(-0 388.625 181.364988)">−2</text>
     </g>
    </g>
    <g id="ytick_8">
     <g id="line2d_28">
      <path d="M 41.975 135.870101 
L 381.625 135.870101 
" clip-path="url(#p917810c989)" style="fill: none; stroke: #b0b0b0; stroke-opacity: 0.25; stroke-width: 0.8; stroke-linecap: square"/>
     </g>
     <g id="line2d_29">
      <g>
       <use xlink:href="#m2548a46ae5" x="381.625" y="135.870101" style="stroke: #000000; stroke-width: 0.8"/>
      </g>
     </g>
     <g id="text_18">
      <text style="font-size: 10px; font-family: 'DejaVu Sans', 'Bitstream Vera Sans', 'Computer Modern Sans Serif', 'Lucida Grande', 'Verdana', 'Geneva', 'Lucid', 'Arial', 'Helvetica', 'Avant Garde', sans-serif; text-anchor: start; fill: #ff7f0e" x="388.625" y="139.66932" transform="rotate(-0 388.625 139.66932)">0</text>
     </g>
    </g>
    <g id="ytick_9">
     <g id="line2d_30">
      <path d="M 41.975 94.174433 
L 381.625 94.174433 
" clip-path="url(#p917810c989)" style="fill: none; stroke: #b0b0b0; stroke-opacity: 0.25; stroke-width: 0.8; stroke-linecap: square"/>
     </g>
     <g id="line2d_31">
      <g>
       <use xlink:href="#m2548a46ae5" x="381.625" y="94.174433" style="stroke: #000000; stroke-width: 0.8"/>
      </g>
     </g>
     <g id="text_19">
      <text style="font-size: 10px; font-family: 'DejaVu Sans', 'Bitstream Vera Sans', 'Computer Modern Sans Serif', 'Lucida Grande', 'Verdana', 'Geneva', 'Lucid', 'Arial', 'Helvetica', 'Avant Garde', sans-serif; text-anchor: start; fill: #ff7f0e" x="388.625" y="97.973652" transform="rotate(-0 388.625 97.973652)">2</text>
     </g>
    </g>
    <g id="ytick_10">
     <g id="line2d_32">
      <path d="M 41.975 52.478765 
L 381.625 52.478765 
" clip-path="url(#p917810c989)" style="fill: none; stroke: #b0b0b0; stroke-opacity: 0.25; stroke-width: 0.8; stroke-linecap: square"/>
     </g>
     <g id="line2d_33">
      <g>
       <use xlink:href="#m2548a46ae5" x="381.625" y="52.478765" style="stroke: #000000; stroke-width: 0.8"/>
      </g>
     </g>
     <g id="text_20">
      <text style="font-size: 10px; font-family: 'DejaVu Sans', 'Bitstream Vera Sans', 'Computer Modern Sans Serif', 'Lucida Grande', 'Verdana', 'Geneva', 'Lucid', 'Arial', 'Helvetica', 'Avant Garde', sans-serif; text-anchor: start; fill: #ff7f0e" x="388.625" y="56.277984" transform="rotate(-0 388.625 56.277984)">4</text>
     </g>
    </g>
    <g id="text_21">
     <text style="font-size: 14px; font-family: 'DejaVu Sans', 'Bitstream Vera Sans', 'Computer Modern Sans Serif', 'Lucida Grande', 'Verdana', 'Geneva', 'Lucid', 'Arial', 'Helvetica', 'Avant Garde', sans-serif; text-anchor: middle; fill: #ff7f0e" x="418.005" y="134.6" transform="rotate(-90 418.005 134.6)">Current [mA]</text>
    </g>
   </g>
   <g id="line2d_34">
    <path d="M 57.413636 135.870101 
L 218.94565 135.870101 
L 218.946196 131.064363 
L 219.170546 130.913697 
L 226.836961 130.912283 
L 226.837014 140.638293 
L 227.114781 140.821371 
L 227.114901 131.034187 
L 227.339251 130.909551 
L 228.090943 130.913665 
L 228.090996 140.643031 
L 228.404794 140.816155 
L 228.404914 131.01074 
L 228.853614 130.915326 
L 229.415446 130.911591 
L 229.415499 140.642455 
L 229.726328 140.818196 
L 229.726448 131.009194 
L 230.175148 130.915787 
L 231.273932 130.912628 
L 231.273984 140.6377 
L 231.577029 140.815876 
L 231.577149 131.007532 
L 232.025849 130.913566 
L 233.219959 130.913681 
L 233.220012 140.631662 
L 233.444362 140.815892 
L 233.945657 140.812848 
L 233.945777 131.006611 
L 234.394477 130.912776 
L 236.56024 130.916067 
L 236.560292 140.637058 
L 236.784642 140.816205 
L 237.031749 140.811878 
L 237.031869 131.01436 
L 237.480569 130.90965 
L 244.979379 130.895352 
L 244.979432 140.572627 
L 245.203782 140.817077 
L 246.219474 140.815629 
L 246.219594 130.998927 
L 246.668294 130.908301 
L 254.744896 130.915442 
L 261.699747 130.918058 
L 262.148448 130.899136 
L 263.045848 130.908613 
L 274.9364 130.912875 
L 320.479461 130.912217 
L 359.217961 130.916165 
L 359.218014 140.652147 
L 359.442364 140.815744 
L 360.933417 140.815892 
L 360.933536 130.993925 
L 361.382236 130.912496 
L 362.280123 130.912168 
L 362.280175 140.665029 
L 362.504525 140.816057 
L 363.881384 140.816139 
L 363.881503 130.997084 
L 364.330203 130.912678 
L 364.737055 130.913155 
L 364.737107 140.672236 
L 364.961457 140.816353 
L 366.179042 140.815892 
L 366.183888 35.690909 
L 366.185825 233.509091 
L 366.186364 233.499558 
" clip-path="url(#p917810c989)" style="fill: none; stroke: #ff7f0e; stroke-opacity: 0.8; stroke-linecap: square"/>
   </g>
   <g id="patch_6">
    <path d="M 41.975 243.4 
L 41.975 25.8 
" style="fill: none; stroke: #000000; stroke-width: 0.8; stroke-linejoin: miter; stroke-linecap: square"/>
   </g>
   <g id="patch_7">
    <path d="M 41.975 243.4 
L 381.625 243.4 
" style="fill: none; stroke: #000000; stroke-width: 0.8; stroke-linejoin: miter; stroke-linecap: square"/>
   </g>
  </g>
 </g>
 <defs>
  <clipPath id="p917810c989">
   <rect x="41.975" y="25.8" width="339.65" height="217.6"/>
  </clipPath>
 </defs>
</svg>
