<?xml version="1.0" encoding="utf-8" standalone="no"?>
<!DOCTYPE svg PUBLIC "-//W3C//DTD SVG 1.1//EN"
  "http://www.w3.org/Graphics/SVG/1.1/DTD/svg11.dtd">
<svg xmlns:xlink="http://www.w3.org/1999/xlink" width="432pt" height="288pt" viewBox="0 0 432 288" xmlns="http://www.w3.org/2000/svg" version="1.1">
 <metadata>
  <rdf:RDF xmlns:dc="http://purl.org/dc/elements/1.1/" xmlns:cc="http://creativecommons.org/ns#" xmlns:rdf="http://www.w3.org/1999/02/22-rdf-syntax-ns#">
   <cc:Work>
    <dc:type rdf:resource="http://purl.org/dc/dcmitype/StillImage"/>
    <dc:date>2025-10-07T16:08:12.172475</dc:date>
    <dc:format>image/svg+xml</dc:format>
    <dc:creator>
     <cc:Agent>
      <dc:title>Matplotlib v3.10.3, https://matplotlib.org/</dc:title>
     </cc:Agent>
    </dc:creator>
   </cc:Work>
  </rdf:RDF>
 </metadata>
 <defs>
  <style type="text/css">*{stroke-linejoin: round; stroke-linecap: butt}</style>
 </defs>
 <g id="figure_1">
  <g id="patch_1">
   <path d="M 0 288 
L 432 288 
L 432 0 
L 0 0 
z
" style="fill: #ffffff"/>
  </g>
  <g id="axes_1">
   <g id="patch_2">
    <path d="M 41.975 243.4 
L 381.625 243.4 
L 381.625 25.8 
L 41.975 25.8 
z
" style="fill: #ffffff"/>
   </g>
   <g id="matplotlib.axis_1">
    <g id="xtick_1">
     <g id="line2d_1">
      <path d="M 57.413591 243.4 
L 57.413591 25.8 
" clip-path="url(#p46e3460325)" style="fill: none; stroke: #b0b0b0; stroke-opacity: 0.25; stroke-width: 0.8; stroke-linecap: square"/>
     </g>
     <g id="line2d_2">
      <defs>
       <path id="mad3d127547" d="M 0 0 
L 0 3.5 
" style="stroke: #000000; stroke-width: 0.8"/>
      </defs>
      <g>
       <use xlink:href="#mad3d127547" x="57.413591" y="243.4" style="stroke: #000000; stroke-width: 0.8"/>
      </g>
     </g>
     <g id="text_1">
      <text style="font-size: 10px; font-family: 'DejaVu Sans', 'Bitstream Vera Sans', 'Computer Modern Sans Serif', 'Lucida Grande', 'Verdana', 'Geneva', 'Lucid', 'Arial', 'Helvetica', 'Avant Garde', sans-serif; text-anchor: middle" x="57.413591" y="257.998438" transform="rotate(-0 57.413591 257.998438)">0</text>
     </g>
    </g>
    <g id="xtick_2">
     <g id="line2d_3">
      <path d="M 102.453495 243.4 
L 102.453495 25.8 
" clip-path="url(#p46e3460325)" style="fill: none; stroke: #b0b0b0; stroke-opacity: 0.25; stroke-width: 0.8; stroke-linecap: square"/>
     </g>
     <g id="line2d_4">
      <g>
       <use xlink:href="#mad3d127547" x="102.453495" y="243.4" style="stroke: #000000; stroke-width: 0.8"/>
      </g>
     </g>
     <g id="text_2">
      <text style="font-size: 10px; font-family: 'DejaVu Sans', 'Bitstream Vera Sans', 'Computer Modern Sans Serif', 'Lucida Grande', 'Verdana', 'Geneva', 'Lucid', 'Arial', 'Helvetica', 'Avant Garde', sans-serif; text-anchor: middle" x="102.453495" y="257.998438" transform="rotate(-0 102.453495 257.998438)">5000</text>
     </g>
    </g>
    <g id="xtick_3">
     <g id="line2d_5">
      <path d="M 147.493399 243.4 
L 147.493399 25.8 
" clip-path="url(#p46e3460325)" style="fill: none; stroke: #b0b0b0; stroke-opacity: 0.25; stroke-width: 0.8; stroke-linecap: square"/>
     </g>
     <g id="line2d_6">
      <g>
       <use xlink:href="#mad3d127547" x="147.493399" y="243.4" style="stroke: #000000; stroke-width: 0.8"/>
      </g>
     </g>
     <g id="text_3">
      <text style="font-size: 10px; font-family: 'DejaVu Sans', 'Bitstream Vera Sans', 'Computer Modern Sans Serif', 'Lucida Grande', 'Verdana', 'Geneva', 'Lucid', 'Arial', 'Helvetica', 'Avant Garde', sans-serif; text-anchor: middle" x="147.493399" y="257.998438" transform="rotate(-0 147.493399 257.998438)">10000</text>
     </g>
    </g>
    <g id="xtick_4">
     <g id="line2d_7">
      <path d="M 192.533303 243.4 
L 192.533303 25.8 
" clip-path="url(#p46e3460325)" style="fill: none; stroke: #b0b0b0; stroke-opacity: 0.25; stroke-width: 0.8; stroke-linecap: square"/>
     </g>
     <g id="line2d_8">
      <g>
       <use xlink:href="#mad3d127547" x="192.533303" y="243.4" style="stroke: #000000; stroke-width: 0.8"/>
      </g>
     </g>
     <g id="text_4">
      <text style="font-size: 10px; font-family: 'DejaVu Sans', 'Bitstream Vera Sans', 'Computer Modern Sans Serif', 'Lucida Grande', 'Verdana', 'Geneva', 'Lucid', 'Arial', 'Helvetica', 'Avant Garde', sans-serif; text-anchor: middle" x="192.533303" y="257.998438" transform="rotate(-0 192.533303 257.998438)">15000</text>
     </g>
    </g>
    <g id="xtick_5">
     <g id="line2d_9">
      <path d="M 237.573207 243.4 
L 237.573207 25.8 
" clip-path="url(#p46e3460325)" style="fill: none; stroke: #b0b0b0; stroke-opacity: 0.25; stroke-width: 0.8; stroke-linecap: square"/>
     </g>
     <g id="line2d_10">
      <g>
       <use xlink:href="#mad3d127547" x="237.573207" y="243.4" style="stroke: #000000; stroke-width: 0.8"/>
      </g>
     </g>
     <g id="text_5">
      <text style="font-size: 10px; font-family: 'DejaVu Sans', 'Bitstream Vera Sans', 'Computer Modern Sans Serif', 'Lucida Grande', 'Verdana', 'Geneva', 'Lucid', 'Arial', 'Helvetica', 'Avant Garde', sans-serif; text-anchor: middle" x="237.573207" y="257.998438" transform="rotate(-0 237.573207 257.998438)">20000</text>
     </g>
    </g>
    <g id="xtick_6">
     <g id="line2d_11">
      <path d="M 282.613111 243.4 
L 282.613111 25.8 
" clip-path="url(#p46e3460325)" style="fill: none; stroke: #b0b0b0; stroke-opacity: 0.25; stroke-width: 0.8; stroke-linecap: square"/>
     </g>
     <g id="line2d_12">
      <g>
       <use xlink:href="#mad3d127547" x="282.613111" y="243.4" style="stroke: #000000; stroke-width: 0.8"/>
      </g>
     </g>
     <g id="text_6">
      <text style="font-size: 10px; font-family: 'DejaVu Sans', 'Bitstream Vera Sans', 'Computer Modern Sans Serif', 'Lucida Grande', 'Verdana', 'Geneva', 'Lucid', 'Arial', 'Helvetica', 'Avant Garde', sans-serif; text-anchor: middle" x="282.613111" y="257.998438" transform="rotate(-0 282.613111 257.998438)">25000</text>
     </g>
    </g>
    <g id="xtick_7">
     <g id="line2d_13">
      <path d="M 327.653014 243.4 
L 327.653014 25.8 
" clip-path="url(#p46e3460325)" style="fill: none; stroke: #b0b0b0; stroke-opacity: 0.25; stroke-width: 0.8; stroke-linecap: square"/>
     </g>
     <g id="line2d_14">
      <g>
       <use xlink:href="#mad3d127547" x="327.653014" y="243.4" style="stroke: #000000; stroke-width: 0.8"/>
      </g>
     </g>
     <g id="text_7">
      <text style="font-size: 10px; font-family: 'DejaVu Sans', 'Bitstream Vera Sans', 'Computer Modern Sans Serif', 'Lucida Grande', 'Verdana', 'Geneva', 'Lucid', 'Arial', 'Helvetica', 'Avant Garde', sans-serif; text-anchor: middle" x="327.653014" y="257.998438" transform="rotate(-0 327.653014 257.998438)">30000</text>
     </g>
    </g>
    <g id="xtick_8">
     <g id="line2d_15">
      <path d="M 372.692918 243.4 
L 372.692918 25.8 
" clip-path="url(#p46e3460325)" style="fill: none; stroke: #b0b0b0; stroke-opacity: 0.25; stroke-width: 0.8; stroke-linecap: square"/>
     </g>
     <g id="line2d_16">
      <g>
       <use xlink:href="#mad3d127547" x="372.692918" y="243.4" style="stroke: #000000; stroke-width: 0.8"/>
      </g>
     </g>
     <g id="text_8">
      <text style="font-size: 10px; font-family: 'DejaVu Sans', 'Bitstream Vera Sans', 'Computer Modern Sans Serif', 'Lucida Grande', 'Verdana', 'Geneva', 'Lucid', 'Arial', 'Helvetica', 'Avant Garde', sans-serif; text-anchor: middle" x="372.692918" y="257.998438" transform="rotate(-0 372.692918 257.998438)">35000</text>
     </g>
    </g>
    <g id="text_9">
     <text style="font-size: 14px; font-family: 'DejaVu Sans', 'Bitstream Vera Sans', 'Computer Modern Sans Serif', 'Lucida Grande', 'Verdana', 'Geneva', 'Lucid', 'Arial', 'Helvetica', 'Avant Garde', sans-serif; text-anchor: middle" x="211.8" y="274.715937" transform="rotate(-0 211.8 274.715937)">Time [s]</text>
    </g>
   </g>
   <g id="matplotlib.axis_2">
    <g id="ytick_1">
     <g id="line2d_17">
      <path d="M 41.975 206.555358 
L 381.625 206.555358 
" clip-path="url(#p46e3460325)" style="fill: none; stroke: #b0b0b0; stroke-opacity: 0.25; stroke-width: 0.8; stroke-linecap: square"/>
     </g>
     <g id="line2d_18">
      <defs>
       <path id="m3a475221ed" d="M 0 0 
L -3.5 0 
" style="stroke: #000000; stroke-width: 0.8"/>
      </defs>
      <g>
       <use xlink:href="#m3a475221ed" x="41.975" y="206.555358" style="stroke: #000000; stroke-width: 0.8"/>
      </g>
     </g>
     <g id="text_10">
      <text style="font-size: 10px; font-family: 'DejaVu Sans', 'Bitstream Vera Sans', 'Computer Modern Sans Serif', 'Lucida Grande', 'Verdana', 'Geneva', 'Lucid', 'Arial', 'Helvetica', 'Avant Garde', sans-serif; text-anchor: end; fill: #1f77b4" x="34.975" y="210.354577" transform="rotate(-0 34.975 210.354577)">1</text>
     </g>
    </g>
    <g id="ytick_2">
     <g id="line2d_19">
      <path d="M 41.975 163.61068 
L 381.625 163.61068 
" clip-path="url(#p46e3460325)" style="fill: none; stroke: #b0b0b0; stroke-opacity: 0.25; stroke-width: 0.8; stroke-linecap: square"/>
     </g>
     <g id="line2d_20">
      <g>
       <use xlink:href="#m3a475221ed" x="41.975" y="163.61068" style="stroke: #000000; stroke-width: 0.8"/>
      </g>
     </g>
     <g id="text_11">
      <text style="font-size: 10px; font-family: 'DejaVu Sans', 'Bitstream Vera Sans', 'Computer Modern Sans Serif', 'Lucida Grande', 'Verdana', 'Geneva', 'Lucid', 'Arial', 'Helvetica', 'Avant Garde', sans-serif; text-anchor: end; fill: #1f77b4" x="34.975" y="167.409898" transform="rotate(-0 34.975 167.409898)">2</text>
     </g>
    </g>
    <g id="ytick_3">
     <g id="line2d_21">
      <path d="M 41.975 120.666001 
L 381.625 120.666001 
" clip-path="url(#p46e3460325)" style="fill: none; stroke: #b0b0b0; stroke-opacity: 0.25; stroke-width: 0.8; stroke-linecap: square"/>
     </g>
     <g id="line2d_22">
      <g>
       <use xlink:href="#m3a475221ed" x="41.975" y="120.666001" style="stroke: #000000; stroke-width: 0.8"/>
      </g>
     </g>
     <g id="text_12">
      <text style="font-size: 10px; font-family: 'DejaVu Sans', 'Bitstream Vera Sans', 'Computer Modern Sans Serif', 'Lucida Grande', 'Verdana', 'Geneva', 'Lucid', 'Arial', 'Helvetica', 'Avant Garde', sans-serif; text-anchor: end; fill: #1f77b4" x="34.975" y="124.46522" transform="rotate(-0 34.975 124.46522)">3</text>
     </g>
    </g>
    <g id="ytick_4">
     <g id="line2d_23">
      <path d="M 41.975 77.721323 
L 381.625 77.721323 
" clip-path="url(#p46e3460325)" style="fill: none; stroke: #b0b0b0; stroke-opacity: 0.25; stroke-width: 0.8; stroke-linecap: square"/>
     </g>
     <g id="line2d_24">
      <g>
       <use xlink:href="#m3a475221ed" x="41.975" y="77.721323" style="stroke: #000000; stroke-width: 0.8"/>
      </g>
     </g>
     <g id="text_13">
      <text style="font-size: 10px; font-family: 'DejaVu Sans', 'Bitstream Vera Sans', 'Computer Modern Sans Serif', 'Lucida Grande', 'Verdana', 'Geneva', 'Lucid', 'Arial', 'Helvetica', 'Avant Garde', sans-serif; text-anchor: end; fill: #1f77b4" x="34.975" y="81.520542" transform="rotate(-0 34.975 81.520542)">4</text>
     </g>
    </g>
    <g id="ytick_5">
     <g id="line2d_25">
      <path d="M 41.975 34.776645 
L 381.625 34.776645 
" clip-path="url(#p46e3460325)" style="fill: none; stroke: #b0b0b0; stroke-opacity: 0.25; stroke-width: 0.8; stroke-linecap: square"/>
     </g>
     <g id="line2d_26">
      <g>
       <use xlink:href="#m3a475221ed" x="41.975" y="34.776645" style="stroke: #000000; stroke-width: 0.8"/>
      </g>
     </g>
     <g id="text_14">
      <text style="font-size: 10px; font-family: 'DejaVu Sans', 'Bitstream Vera Sans', 'Computer Modern Sans Serif', 'Lucida Grande', 'Verdana', 'Geneva', 'Lucid', 'Arial', 'Helvetica', 'Avant Garde', sans-serif; text-anchor: end; fill: #1f77b4" x="34.975" y="38.575864" transform="rotate(-0 34.975 38.575864)">5</text>
     </g>
    </g>
    <g id="text_15">
     <text style="font-size: 14px; font-family: 'DejaVu Sans', 'Bitstream Vera Sans', 'Computer Modern Sans Serif', 'Lucida Grande', 'Verdana', 'Geneva', 'Lucid', 'Arial', 'Helvetica', 'Avant Garde', sans-serif; text-anchor: middle; fill: #1f77b4" x="21.700938" y="134.6" transform="rotate(-90 21.700938 134.6)">Potential [V]</text>
    </g>
   </g>
   <g id="line2d_27">
    <path d="M 57.413636 233.509091 
L 61.737467 233.370324 
L 71.195847 233.107575 
L 74.708959 232.906876 
L 89.301888 232.706733 
L 152.537913 232.563164 
L 251.985994 232.790143 
L 251.986652 229.204939 
L 252.256891 151.39876 
L 252.79737 131.604551 
L 253.337849 123.44506 
L 254.148567 114.617834 
L 254.689046 110.730916 
L 255.229525 107.926394 
L 256.040243 105.028432 
L 256.310482 104.290654 
L 256.580722 103.065499 
L 257.39144 101.014143 
L 257.661679 100.715344 
L 260.093834 95.184616 
L 262.525989 90.104467 
L 265.768862 83.8844 
L 266.309341 83.046814 
L 268.741496 79.877156 
L 270.633172 76.662303 
L 273.605805 70.461885 
L 274.185937 69.134013 
L 274.186 81.92804 
L 274.45624 115.667302 
L 274.996719 121.415175 
L 275.807437 126.770543 
L 279.102763 146.432784 
L 279.102908 133.224648 
L 279.373147 94.382538 
L 279.913626 89.863322 
L 280.724344 85.931968 
L 281.805302 81.957303 
L 283.426738 76.80067 
L 285.858893 69.857856 
L 286.12489 69.134157 
L 286.124953 82.197567 
L 286.395192 116.52684 
L 286.935671 122.352425 
L 287.746389 127.740056 
L 290.944565 146.432436 
L 290.944709 132.748462 
L 291.214948 92.359769 
L 291.755427 87.775178 
L 292.566146 83.819834 
L 293.917343 78.825394 
L 295.538779 73.648898 
L 297.117023 69.134976 
L 297.117086 82.608573 
L 297.387325 117.017729 
L 297.927804 122.921775 
L 299.008762 130.286704 
L 301.725776 146.431023 
L 301.72592 132.567952 
L 301.996159 90.893541 
L 302.536638 86.2515 
L 303.347356 82.302924 
L 304.698554 77.302924 
L 306.31999 72.225478 
L 307.391039 69.135099 
L 307.391102 82.791571 
L 307.661341 117.469722 
L 308.20182 123.177888 
L 309.012539 129.191981 
L 310.093496 136.137774 
L 310.633975 139.143397 
L 311.817714 146.43135 
L 311.817858 133.033439 
L 312.088097 90.315724 
L 312.628576 85.508767 
L 313.439295 81.451516 
L 314.520252 77.275771 
L 315.871449 72.923028 
L 317.172193 69.135652 
L 317.172256 82.409162 
L 317.442495 117.167871 
L 317.982974 122.612338 
L 319.063932 130.855244 
L 320.685368 141.610909 
L 321.481989 146.429999 
L 321.482133 132.945825 
L 321.752373 89.574895 
L 322.292851 84.708717 
L 323.10357 80.643674 
L 324.184527 76.50612 
L 325.535725 72.304768 
L 326.617592 69.133686 
L 326.617655 82.55443 
L 326.887895 117.382385 
L 327.428373 122.763094 
L 329.590289 138.596071 
L 330.847992 146.432579 
L 330.848136 132.880041 
L 331.118376 88.948904 
L 331.658854 84.050812 
L 332.469573 79.997083 
L 333.55053 75.950542 
L 335.442206 70.235586 
L 335.816335 69.133133 
L 335.816398 82.697333 
L 336.086637 117.581314 
L 336.627116 122.988051 
L 339.972068 146.431084 
L 339.972212 132.792898 
L 340.242451 88.372982 
L 340.78293 83.450705 
L 341.593648 79.413297 
L 342.674606 75.498805 
L 344.797553 69.133399 
L 344.797616 82.860478 
L 345.067855 117.776517 
L 345.608334 123.238676 
L 346.689292 131.486109 
L 348.040489 141.100842 
L 348.886185 146.432108 
L 348.886329 132.710855 
L 349.156569 87.856004 
L 349.697048 82.916515 
L 350.507766 78.903107 
L 351.318484 75.96334 
L 353.587658 69.134566 
L 353.587721 82.998098 
L 353.85796 117.984119 
L 354.398439 123.509216 
L 355.479397 131.673725 
L 356.830594 141.463204 
L 357.608334 146.432241 
L 357.608478 132.629343 
L 357.878717 87.362483 
L 358.419196 82.430244 
L 359.229914 78.446702 
L 360.040633 75.620831 
L 362.203764 69.132519 
L 362.203827 83.142885 
L 362.474067 118.176814 
L 363.014546 123.760313 
L 364.095503 131.809778 
L 365.4467 141.724396 
L 366.180617 146.431023 
L 366.185292 35.690909 
L 366.184868 188.679928 
L 366.186364 186.821604 
" clip-path="url(#p46e3460325)" style="fill: none; stroke: #1f77b4; stroke-width: 1.2; stroke-linecap: square"/>
   </g>
   <g id="patch_3">
    <path d="M 41.975 243.4 
L 41.975 25.8 
" style="fill: none; stroke: #000000; stroke-width: 0.8; stroke-linejoin: miter; stroke-linecap: square"/>
   </g>
   <g id="patch_4">
    <path d="M 41.975 243.4 
L 381.625 243.4 
" style="fill: none; stroke: #000000; stroke-width: 0.8; stroke-linejoin: miter; stroke-linecap: square"/>
   </g>
   <g id="text_16">
    <text style="font-size: 12px; font-family: 'DejaVu Sans', 'Bitstream Vera Sans', 'Computer Modern Sans Serif', 'Lucida Grande', 'Verdana', 'Geneva', 'Lucid', 'Arial', 'Helvetica', 'Avant Garde', sans-serif; text-anchor: middle" x="211.8" y="19.8" transform="rotate(-0 211.8 19.8)">Voltage and Current vs Time</text>
   </g>
   <g id="legend_1">
    <g id="patch_5">
     <path d="M 47.575 55.685 
L 125.2675 55.685 
Q 126.8675 55.685 126.8675 54.085 
L 126.8675 31.4 
Q 126.8675 29.8 125.2675 29.8 
L 47.575 29.8 
Q 45.975 29.8 45.975 31.4 
L 45.975 54.085 
Q 45.975 55.685 47.575 55.685 
z
" style="fill: #ffffff; opacity: 0.8; stroke: #cccccc; stroke-linejoin: miter"/>
    </g>
    <g id="line2d_28">
     <path d="M 49.175 36.27875 
L 57.175 36.27875 
L 65.175 36.27875 
" style="fill: none; stroke: #1f77b4; stroke-width: 1.2; stroke-linecap: square"/>
    </g>
    <g id="text_17">
     <text style="font-size: 8px; font-family: 'DejaVu Sans', 'Bitstream Vera Sans', 'Computer Modern Sans Serif', 'Lucida Grande', 'Verdana', 'Geneva', 'Lucid', 'Arial', 'Helvetica', 'Avant Garde', sans-serif; text-anchor: start" x="71.575" y="39.07875" transform="rotate(-0 71.575 39.07875)">Voltage (V)</text>
    </g>
    <g id="line2d_29">
     <path d="M 49.175 48.02125 
L 57.175 48.02125 
L 65.175 48.02125 
" style="fill: none; stroke: #ff7f0e; stroke-opacity: 0.8; stroke-linecap: square"/>
    </g>
    <g id="text_18">
     <text style="font-size: 8px; font-family: 'DejaVu Sans', 'Bitstream Vera Sans', 'Computer Modern Sans Serif', 'Lucida Grande', 'Verdana', 'Geneva', 'Lucid', 'Arial', 'Helvetica', 'Avant Garde', sans-serif; text-anchor: start" x="71.575" y="50.82125" transform="rotate(-0 71.575 50.82125)">Current (mA)</text>
    </g>
   </g>
  </g>
  <g id="axes_2">
   <g id="matplotlib.axis_3">
    <g id="ytick_6">
     <g id="line2d_30">
      <path d="M 41.975 219.63203 
L 381.625 219.63203 
" clip-path="url(#p46e3460325)" style="fill: none; stroke: #b0b0b0; stroke-opacity: 0.25; stroke-width: 0.8; stroke-linecap: square"/>
     </g>
     <g id="line2d_31">
      <defs>
       <path id="m9a31cae43c" d="M 0 0 
L 3.5 0 
" style="stroke: #000000; stroke-width: 0.8"/>
      </defs>
      <g>
       <use xlink:href="#m9a31cae43c" x="381.625" y="219.63203" style="stroke: #000000; stroke-width: 0.8"/>
      </g>
     </g>
     <g id="text_19">
      <text style="font-size: 10px; font-family: 'DejaVu Sans', 'Bitstream Vera Sans', 'Computer Modern Sans Serif', 'Lucida Grande', 'Verdana', 'Geneva', 'Lucid', 'Arial', 'Helvetica', 'Avant Garde', sans-serif; text-anchor: start; fill: #ff7f0e" x="388.625" y="223.431249" transform="rotate(-0 388.625 223.431249)">−4</text>
     </g>
    </g>
    <g id="ytick_7">
     <g id="line2d_32">
      <path d="M 41.975 177.021937 
L 381.625 177.021937 
" clip-path="url(#p46e3460325)" style="fill: none; stroke: #b0b0b0; stroke-opacity: 0.25; stroke-width: 0.8; stroke-linecap: square"/>
     </g>
     <g id="line2d_33">
      <g>
       <use xlink:href="#m9a31cae43c" x="381.625" y="177.021937" style="stroke: #000000; stroke-width: 0.8"/>
      </g>
     </g>
     <g id="text_20">
      <text style="font-size: 10px; font-family: 'DejaVu Sans', 'Bitstream Vera Sans', 'Computer Modern Sans Serif', 'Lucida Grande', 'Verdana', 'Geneva', 'Lucid', 'Arial', 'Helvetica', 'Avant Garde', sans-serif; text-anchor: start; fill: #ff7f0e" x="388.625" y="180.821156" transform="rotate(-0 388.625 180.821156)">−2</text>
     </g>
    </g>
    <g id="ytick_8">
     <g id="line2d_34">
      <path d="M 41.975 134.411845 
L 381.625 134.411845 
" clip-path="url(#p46e3460325)" style="fill: none; stroke: #b0b0b0; stroke-opacity: 0.25; stroke-width: 0.8; stroke-linecap: square"/>
     </g>
     <g id="line2d_35">
      <g>
       <use xlink:href="#m9a31cae43c" x="381.625" y="134.411845" style="stroke: #000000; stroke-width: 0.8"/>
      </g>
     </g>
     <g id="text_21">
      <text style="font-size: 10px; font-family: 'DejaVu Sans', 'Bitstream Vera Sans', 'Computer Modern Sans Serif', 'Lucida Grande', 'Verdana', 'Geneva', 'Lucid', 'Arial', 'Helvetica', 'Avant Garde', sans-serif; text-anchor: start; fill: #ff7f0e" x="388.625" y="138.211063" transform="rotate(-0 388.625 138.211063)">0</text>
     </g>
    </g>
    <g id="ytick_9">
     <g id="line2d_36">
      <path d="M 41.975 91.801752 
L 381.625 91.801752 
" clip-path="url(#p46e3460325)" style="fill: none; stroke: #b0b0b0; stroke-opacity: 0.25; stroke-width: 0.8; stroke-linecap: square"/>
     </g>
     <g id="line2d_37">
      <g>
       <use xlink:href="#m9a31cae43c" x="381.625" y="91.801752" style="stroke: #000000; stroke-width: 0.8"/>
      </g>
     </g>
     <g id="text_22">
      <text style="font-size: 10px; font-family: 'DejaVu Sans', 'Bitstream Vera Sans', 'Computer Modern Sans Serif', 'Lucida Grande', 'Verdana', 'Geneva', 'Lucid', 'Arial', 'Helvetica', 'Avant Garde', sans-serif; text-anchor: start; fill: #ff7f0e" x="388.625" y="95.600971" transform="rotate(-0 388.625 95.600971)">2</text>
     </g>
    </g>
    <g id="ytick_10">
     <g id="line2d_38">
      <path d="M 41.975 49.191659 
L 381.625 49.191659 
" clip-path="url(#p46e3460325)" style="fill: none; stroke: #b0b0b0; stroke-opacity: 0.25; stroke-width: 0.8; stroke-linecap: square"/>
     </g>
     <g id="line2d_39">
      <g>
       <use xlink:href="#m9a31cae43c" x="381.625" y="49.191659" style="stroke: #000000; stroke-width: 0.8"/>
      </g>
     </g>
     <g id="text_23">
      <text style="font-size: 10px; font-family: 'DejaVu Sans', 'Bitstream Vera Sans', 'Computer Modern Sans Serif', 'Lucida Grande', 'Verdana', 'Geneva', 'Lucid', 'Arial', 'Helvetica', 'Avant Garde', sans-serif; text-anchor: start; fill: #ff7f0e" x="388.625" y="52.990878" transform="rotate(-0 388.625 52.990878)">4</text>
     </g>
    </g>
    <g id="text_24">
     <text style="font-size: 14px; font-family: 'DejaVu Sans', 'Bitstream Vera Sans', 'Computer Modern Sans Serif', 'Lucida Grande', 'Verdana', 'Geneva', 'Lucid', 'Arial', 'Helvetica', 'Avant Garde', sans-serif; text-anchor: middle; fill: #ff7f0e" x="418.005" y="134.6" transform="rotate(-90 418.005 134.6)">Current [mA]</text>
    </g>
   </g>
   <g id="line2d_40">
    <path d="M 57.413636 134.411845 
L 251.985994 134.411845 
L 251.986652 129.418637 
L 252.52713 129.347594 
L 274.185937 129.34867 
L 274.186 139.389293 
L 274.726479 139.469784 
L 279.102763 139.47081 
L 279.102908 129.40771 
L 279.643386 129.348434 
L 286.12489 129.348586 
L 286.124953 139.389512 
L 286.665432 139.470289 
L 290.944565 139.46933 
L 290.944709 129.404886 
L 291.755427 129.34793 
L 297.117023 129.348771 
L 297.117086 139.388402 
L 297.657564 139.468692 
L 301.725776 139.470003 
L 301.72592 129.407205 
L 302.266399 129.347711 
L 307.391039 129.348502 
L 307.391102 139.38583 
L 307.931581 139.470187 
L 311.817714 139.470675 
L 311.817858 129.406701 
L 312.358337 129.348636 
L 317.172193 129.348283 
L 317.172256 139.386234 
L 317.712735 139.469296 
L 321.481989 139.469263 
L 321.482133 129.407122 
L 322.022612 129.349393 
L 326.617592 129.347493 
L 326.617655 139.386721 
L 327.158134 139.47007 
L 330.847992 139.470221 
L 330.848136 129.407357 
L 331.388615 129.349678 
L 335.816335 129.348805 
L 335.816398 139.384334 
L 336.356877 139.47012 
L 339.972068 139.469129 
L 339.972212 129.406886 
L 340.78293 129.348586 
L 344.797553 129.348367 
L 344.797616 139.383779 
L 345.338095 139.46896 
L 348.886185 139.471314 
L 348.886329 129.409122 
L 349.426808 129.348014 
L 353.587658 129.347224 
L 353.587721 139.384468 
L 354.1282 139.469129 
L 357.608334 139.470709 
L 357.608478 129.406601 
L 358.148957 129.347443 
L 362.203764 129.347762 
L 362.203827 139.382787 
L 362.744306 139.469179 
L 366.180617 139.471112 
L 366.185292 35.690909 
L 366.18413 233.509091 
L 366.186364 233.303728 
" clip-path="url(#p46e3460325)" style="fill: none; stroke: #ff7f0e; stroke-opacity: 0.8; stroke-linecap: square"/>
   </g>
   <g id="patch_6">
    <path d="M 41.975 243.4 
L 41.975 25.8 
" style="fill: none; stroke: #000000; stroke-width: 0.8; stroke-linejoin: miter; stroke-linecap: square"/>
   </g>
   <g id="patch_7">
    <path d="M 41.975 243.4 
L 381.625 243.4 
" style="fill: none; stroke: #000000; stroke-width: 0.8; stroke-linejoin: miter; stroke-linecap: square"/>
   </g>
  </g>
 </g>
 <defs>
  <clipPath id="p46e3460325">
   <rect x="41.975" y="25.8" width="339.65" height="217.6"/>
  </clipPath>
 </defs>
</svg>
