<?xml version="1.0" encoding="utf-8" standalone="no"?>
<!DOCTYPE svg PUBLIC "-//W3C//DTD SVG 1.1//EN"
  "http://www.w3.org/Graphics/SVG/1.1/DTD/svg11.dtd">
<svg xmlns:xlink="http://www.w3.org/1999/xlink" width="432pt" height="288pt" viewBox="0 0 432 288" xmlns="http://www.w3.org/2000/svg" version="1.1">
 <metadata>
  <rdf:RDF xmlns:dc="http://purl.org/dc/elements/1.1/" xmlns:cc="http://creativecommons.org/ns#" xmlns:rdf="http://www.w3.org/1999/02/22-rdf-syntax-ns#">
   <cc:Work>
    <dc:type rdf:resource="http://purl.org/dc/dcmitype/StillImage"/>
    <dc:date>2025-10-07T16:08:13.742365</dc:date>
    <dc:format>image/svg+xml</dc:format>
    <dc:creator>
     <cc:Agent>
      <dc:title>Matplotlib v3.10.3, https://matplotlib.org/</dc:title>
     </cc:Agent>
    </dc:creator>
   </cc:Work>
  </rdf:RDF>
 </metadata>
 <defs>
  <style type="text/css">*{stroke-linejoin: round; stroke-linecap: butt}</style>
 </defs>
 <g id="figure_1">
  <g id="patch_1">
   <path d="M 0 288 
L 432 288 
L 432 0 
L 0 0 
z
" style="fill: #ffffff"/>
  </g>
  <g id="axes_1">
   <g id="patch_2">
    <path d="M 67.185 242.2 
L 421.2 242.2 
L 421.2 25.8 
L 67.185 25.8 
z
" style="fill: #ffffff"/>
   </g>
   <g id="matplotlib.axis_1">
    <g id="xtick_1">
     <g id="line2d_1">
      <path d="M 105.124568 242.2 
L 105.124568 25.8 
" clip-path="url(#p60b65f24f7)" style="fill: none; stroke: #b0b0b0; stroke-opacity: 0.25; stroke-width: 0.8; stroke-linecap: square"/>
     </g>
     <g id="line2d_2">
      <defs>
       <path id="m4bb6e0a30f" d="M 0 0 
L 0 3.5 
" style="stroke: #000000; stroke-width: 0.8"/>
      </defs>
      <g>
       <use xlink:href="#m4bb6e0a30f" x="105.124568" y="242.2" style="stroke: #000000; stroke-width: 0.8"/>
      </g>
     </g>
     <g id="text_1">
      <text style="font-size: 10px; font-family: 'DejaVu Sans', 'Bitstream Vera Sans', 'Computer Modern Sans Serif', 'Lucida Grande', 'Verdana', 'Geneva', 'Lucid', 'Arial', 'Helvetica', 'Avant Garde', sans-serif; text-anchor: middle" x="105.124568" y="256.798437" transform="rotate(-0 105.124568 256.798437)">2.4</text>
     </g>
    </g>
    <g id="xtick_2">
     <g id="line2d_3">
      <path d="M 154.067338 242.2 
L 154.067338 25.8 
" clip-path="url(#p60b65f24f7)" style="fill: none; stroke: #b0b0b0; stroke-opacity: 0.25; stroke-width: 0.8; stroke-linecap: square"/>
     </g>
     <g id="line2d_4">
      <g>
       <use xlink:href="#m4bb6e0a30f" x="154.067338" y="242.2" style="stroke: #000000; stroke-width: 0.8"/>
      </g>
     </g>
     <g id="text_2">
      <text style="font-size: 10px; font-family: 'DejaVu Sans', 'Bitstream Vera Sans', 'Computer Modern Sans Serif', 'Lucida Grande', 'Verdana', 'Geneva', 'Lucid', 'Arial', 'Helvetica', 'Avant Garde', sans-serif; text-anchor: middle" x="154.067338" y="256.798437" transform="rotate(-0 154.067338 256.798437)">2.6</text>
     </g>
    </g>
    <g id="xtick_3">
     <g id="line2d_5">
      <path d="M 203.010109 242.2 
L 203.010109 25.8 
" clip-path="url(#p60b65f24f7)" style="fill: none; stroke: #b0b0b0; stroke-opacity: 0.25; stroke-width: 0.8; stroke-linecap: square"/>
     </g>
     <g id="line2d_6">
      <g>
       <use xlink:href="#m4bb6e0a30f" x="203.010109" y="242.2" style="stroke: #000000; stroke-width: 0.8"/>
      </g>
     </g>
     <g id="text_3">
      <text style="font-size: 10px; font-family: 'DejaVu Sans', 'Bitstream Vera Sans', 'Computer Modern Sans Serif', 'Lucida Grande', 'Verdana', 'Geneva', 'Lucid', 'Arial', 'Helvetica', 'Avant Garde', sans-serif; text-anchor: middle" x="203.010109" y="256.798437" transform="rotate(-0 203.010109 256.798437)">2.8</text>
     </g>
    </g>
    <g id="xtick_4">
     <g id="line2d_7">
      <path d="M 251.952879 242.2 
L 251.952879 25.8 
" clip-path="url(#p60b65f24f7)" style="fill: none; stroke: #b0b0b0; stroke-opacity: 0.25; stroke-width: 0.8; stroke-linecap: square"/>
     </g>
     <g id="line2d_8">
      <g>
       <use xlink:href="#m4bb6e0a30f" x="251.952879" y="242.2" style="stroke: #000000; stroke-width: 0.8"/>
      </g>
     </g>
     <g id="text_4">
      <text style="font-size: 10px; font-family: 'DejaVu Sans', 'Bitstream Vera Sans', 'Computer Modern Sans Serif', 'Lucida Grande', 'Verdana', 'Geneva', 'Lucid', 'Arial', 'Helvetica', 'Avant Garde', sans-serif; text-anchor: middle" x="251.952879" y="256.798437" transform="rotate(-0 251.952879 256.798437)">3.0</text>
     </g>
    </g>
    <g id="xtick_5">
     <g id="line2d_9">
      <path d="M 300.89565 242.2 
L 300.89565 25.8 
" clip-path="url(#p60b65f24f7)" style="fill: none; stroke: #b0b0b0; stroke-opacity: 0.25; stroke-width: 0.8; stroke-linecap: square"/>
     </g>
     <g id="line2d_10">
      <g>
       <use xlink:href="#m4bb6e0a30f" x="300.89565" y="242.2" style="stroke: #000000; stroke-width: 0.8"/>
      </g>
     </g>
     <g id="text_5">
      <text style="font-size: 10px; font-family: 'DejaVu Sans', 'Bitstream Vera Sans', 'Computer Modern Sans Serif', 'Lucida Grande', 'Verdana', 'Geneva', 'Lucid', 'Arial', 'Helvetica', 'Avant Garde', sans-serif; text-anchor: middle" x="300.89565" y="256.798437" transform="rotate(-0 300.89565 256.798437)">3.2</text>
     </g>
    </g>
    <g id="xtick_6">
     <g id="line2d_11">
      <path d="M 349.83842 242.2 
L 349.83842 25.8 
" clip-path="url(#p60b65f24f7)" style="fill: none; stroke: #b0b0b0; stroke-opacity: 0.25; stroke-width: 0.8; stroke-linecap: square"/>
     </g>
     <g id="line2d_12">
      <g>
       <use xlink:href="#m4bb6e0a30f" x="349.83842" y="242.2" style="stroke: #000000; stroke-width: 0.8"/>
      </g>
     </g>
     <g id="text_6">
      <text style="font-size: 10px; font-family: 'DejaVu Sans', 'Bitstream Vera Sans', 'Computer Modern Sans Serif', 'Lucida Grande', 'Verdana', 'Geneva', 'Lucid', 'Arial', 'Helvetica', 'Avant Garde', sans-serif; text-anchor: middle" x="349.83842" y="256.798437" transform="rotate(-0 349.83842 256.798437)">3.4</text>
     </g>
    </g>
    <g id="xtick_7">
     <g id="line2d_13">
      <path d="M 398.781191 242.2 
L 398.781191 25.8 
" clip-path="url(#p60b65f24f7)" style="fill: none; stroke: #b0b0b0; stroke-opacity: 0.25; stroke-width: 0.8; stroke-linecap: square"/>
     </g>
     <g id="line2d_14">
      <g>
       <use xlink:href="#m4bb6e0a30f" x="398.781191" y="242.2" style="stroke: #000000; stroke-width: 0.8"/>
      </g>
     </g>
     <g id="text_7">
      <text style="font-size: 10px; font-family: 'DejaVu Sans', 'Bitstream Vera Sans', 'Computer Modern Sans Serif', 'Lucida Grande', 'Verdana', 'Geneva', 'Lucid', 'Arial', 'Helvetica', 'Avant Garde', sans-serif; text-anchor: middle" x="398.781191" y="256.798437" transform="rotate(-0 398.781191 256.798437)">3.6</text>
     </g>
    </g>
    <g id="text_8">
     <!-- E [V] -->
     <g transform="translate(227.2525 273.515938)">
      <text>
       <tspan x="0" y="-0.359375" style="font-style: oblique; font-size: 14px; font-family: 'DejaVu Sans'">E</tspan>
       <tspan x="8.845703" y="-0.359375" style="font-size: 14px; font-family: 'DejaVu Sans'"> </tspan>
       <tspan x="13.295898" y="-0.359375" style="font-size: 14px; font-family: 'DejaVu Sans'">[</tspan>
       <tspan x="18.757812" y="-0.359375" style="font-size: 14px; font-family: 'DejaVu Sans'">V</tspan>
       <tspan x="28.334961" y="-0.359375" style="font-size: 14px; font-family: 'DejaVu Sans'">]</tspan>
      </text>
     </g>
    </g>
   </g>
   <g id="matplotlib.axis_2">
    <g id="ytick_1">
     <g id="line2d_15">
      <path d="M 67.185 238.627006 
L 421.2 238.627006 
" clip-path="url(#p60b65f24f7)" style="fill: none; stroke: #b0b0b0; stroke-opacity: 0.25; stroke-width: 0.8; stroke-linecap: square"/>
     </g>
     <g id="line2d_16">
      <defs>
       <path id="mea222d5db5" d="M 0 0 
L -3.5 0 
" style="stroke: #000000; stroke-width: 0.8"/>
      </defs>
      <g>
       <use xlink:href="#mea222d5db5" x="67.185" y="238.627006" style="stroke: #000000; stroke-width: 0.8"/>
      </g>
     </g>
     <g id="text_9">
      <text style="font-size: 10px; font-family: 'DejaVu Sans', 'Bitstream Vera Sans', 'Computer Modern Sans Serif', 'Lucida Grande', 'Verdana', 'Geneva', 'Lucid', 'Arial', 'Helvetica', 'Avant Garde', sans-serif; text-anchor: end" x="60.185" y="242.426225" transform="rotate(-0 60.185 242.426225)">−20</text>
     </g>
    </g>
    <g id="ytick_2">
     <g id="line2d_17">
      <path d="M 67.185 194.971334 
L 421.2 194.971334 
" clip-path="url(#p60b65f24f7)" style="fill: none; stroke: #b0b0b0; stroke-opacity: 0.25; stroke-width: 0.8; stroke-linecap: square"/>
     </g>
     <g id="line2d_18">
      <g>
       <use xlink:href="#mea222d5db5" x="67.185" y="194.971334" style="stroke: #000000; stroke-width: 0.8"/>
      </g>
     </g>
     <g id="text_10">
      <text style="font-size: 10px; font-family: 'DejaVu Sans', 'Bitstream Vera Sans', 'Computer Modern Sans Serif', 'Lucida Grande', 'Verdana', 'Geneva', 'Lucid', 'Arial', 'Helvetica', 'Avant Garde', sans-serif; text-anchor: end" x="60.185" y="198.770553" transform="rotate(-0 60.185 198.770553)">−10</text>
     </g>
    </g>
    <g id="ytick_3">
     <g id="line2d_19">
      <path d="M 67.185 151.315662 
L 421.2 151.315662 
" clip-path="url(#p60b65f24f7)" style="fill: none; stroke: #b0b0b0; stroke-opacity: 0.25; stroke-width: 0.8; stroke-linecap: square"/>
     </g>
     <g id="line2d_20">
      <g>
       <use xlink:href="#mea222d5db5" x="67.185" y="151.315662" style="stroke: #000000; stroke-width: 0.8"/>
      </g>
     </g>
     <g id="text_11">
      <text style="font-size: 10px; font-family: 'DejaVu Sans', 'Bitstream Vera Sans', 'Computer Modern Sans Serif', 'Lucida Grande', 'Verdana', 'Geneva', 'Lucid', 'Arial', 'Helvetica', 'Avant Garde', sans-serif; text-anchor: end" x="60.185" y="155.114881" transform="rotate(-0 60.185 155.114881)">0</text>
     </g>
    </g>
    <g id="ytick_4">
     <g id="line2d_21">
      <path d="M 67.185 107.65999 
L 421.2 107.65999 
" clip-path="url(#p60b65f24f7)" style="fill: none; stroke: #b0b0b0; stroke-opacity: 0.25; stroke-width: 0.8; stroke-linecap: square"/>
     </g>
     <g id="line2d_22">
      <g>
       <use xlink:href="#mea222d5db5" x="67.185" y="107.65999" style="stroke: #000000; stroke-width: 0.8"/>
      </g>
     </g>
     <g id="text_12">
      <text style="font-size: 10px; font-family: 'DejaVu Sans', 'Bitstream Vera Sans', 'Computer Modern Sans Serif', 'Lucida Grande', 'Verdana', 'Geneva', 'Lucid', 'Arial', 'Helvetica', 'Avant Garde', sans-serif; text-anchor: end" x="60.185" y="111.459209" transform="rotate(-0 60.185 111.459209)">10</text>
     </g>
    </g>
    <g id="ytick_5">
     <g id="line2d_23">
      <path d="M 67.185 64.004318 
L 421.2 64.004318 
" clip-path="url(#p60b65f24f7)" style="fill: none; stroke: #b0b0b0; stroke-opacity: 0.25; stroke-width: 0.8; stroke-linecap: square"/>
     </g>
     <g id="line2d_24">
      <g>
       <use xlink:href="#mea222d5db5" x="67.185" y="64.004318" style="stroke: #000000; stroke-width: 0.8"/>
      </g>
     </g>
     <g id="text_13">
      <text style="font-size: 10px; font-family: 'DejaVu Sans', 'Bitstream Vera Sans', 'Computer Modern Sans Serif', 'Lucida Grande', 'Verdana', 'Geneva', 'Lucid', 'Arial', 'Helvetica', 'Avant Garde', sans-serif; text-anchor: end" x="60.185" y="67.803537" transform="rotate(-0 60.185 67.803537)">20</text>
     </g>
    </g>
    <g id="text_14">
     <!-- Math expression removed for LaTeX compatibility -->
     <g transform="translate(27.520313 161.44) rotate(-90)">
      <text>
       <tspan x="0" y="-7.551563" style="font-style: oblique; font-size: 9.8px; font-family: 'DejaVu Sans'">d</tspan>
       <tspan x="1" y="5.540625" style="font-style: oblique; font-size: 9.8px; font-family: 'DejaVu Sans'">d</tspan>
       <tspan x="6.220703" y="-7.551563" style="font-style: oblique; font-size: 9.8px; font-family: 'DejaVu Sans'">Q</tspan>
       <tspan x="7.220703" y="5.540625" style="font-style: oblique; font-size: 9.8px; font-family: 'DejaVu Sans'">E</tspan>
       <tspan x="15.684375" y="-0.15" style="font-size: 14px; font-family: 'DejaVu Sans'"> </tspan>
       <tspan x="20.13457" y="4.096875" style="font-size: 11.38294px; font-family: 'STIXSizeTwoSym'">[</tspan>
       <tspan x="49.567224" y="4.096875" style="font-size: 11.38294px; font-family: 'STIXSizeTwoSym'">]</tspan>
       <tspan x="25.355701" y="-6.282813" style="font-size: 9.8px; font-family: 'DejaVu Sans'">m</tspan>
       <tspan x="26.355701" y="5.234375" style="font-size: 9.8px; font-family: 'DejaVu Sans'">g</tspan>
       <tspan x="34.485681" y="5.234375" style="font-size: 9.8px; font-family: 'DejaVu Sans'">⋅</tspan>
       <tspan x="34.902087" y="-6.282813" style="font-size: 9.8px; font-family: 'DejaVu Sans'">A</tspan>
       <tspan x="39.510095" y="5.234375" style="font-size: 9.8px; font-family: 'DejaVu Sans'">V</tspan>
       <tspan x="41.606091" y="-6.282813" style="font-size: 9.8px; font-family: 'DejaVu Sans'">h</tspan>
      </text>
      <rect x="0" y="-3.782813" width="13.934375" height="0.875"/>
      <rect x="25.355701" y="-3.782813" width="22.461523" height="0.875"/>
     </g>
    </g>
   </g>
   <g id="line2d_25">
    <path d="M 397.529356 155.33382 
L 344.161704 156.044161 
L 300.395391 156.939459 
L 265.229283 158.350205 
L 237.662244 160.458437 
L 216.69314 163.587954 
L 201.320834 197.840045 
L 190.544192 159.842634 
L 183.362079 77.180486 
L 178.773359 35.636364 
L 180.457803 35.845733 
L 171.885895 80.140755 
L 163.420361 173.853097 
L 154.977333 195.781381 
L 146.472945 175.862144 
L 137.823331 174.766331 
L 128.944623 173.334403 
L 119.752954 171.788564 
L 110.164459 170.35428 
L 100.095269 169.23346 
" clip-path="url(#p60b65f24f7)" style="fill: none; stroke: #1f77b4; stroke-width: 1.4; stroke-linecap: square"/>
   </g>
   <g id="line2d_26">
    <path d="M 394.179895 155.246976 
L 340.360074 155.946824 
L 296.133888 156.838853 
L 260.51214 158.235455 
L 232.505632 160.308506 
L 211.125163 163.357935 
L 195.381537 168.382139 
L 184.285555 177.846438 
L 176.848018 194.054096 
L 172.079728 214.066613 
L 168.991486 229.562067 
L 166.594095 232.363636 
L 163.898356 220.964548 
L 159.91507 201.405531 
L 153.655039 183.004263 
L 144.129064 170.890684 
L 130.347948 164.745699 
L 111.322492 161.473609 
L 86.063497 159.581382 
" clip-path="url(#p60b65f24f7)" style="fill: none; stroke: #ff7f0e; stroke-width: 1.4; stroke-linecap: square"/>
   </g>
   <g id="line2d_27">
    <path d="M 391.283746 155.010755 
L 337.705368 155.714206 
L 293.454317 156.655752 
L 257.586136 158.096403 
L 229.156367 160.189027 
L 207.220553 163.198564 
L 190.834235 167.941763 
L 179.052957 176.151201 
L 170.93226 189.539528 
L 165.527687 206.161492 
L 161.89478 219.789999 
L 159.089081 223.553954 
L 156.166134 215.365979 
L 152.18148 199.315445 
L 146.190661 182.826871 
L 137.249221 170.873486 
L 124.412701 164.136917 
L 106.736643 160.383454 
L 83.276591 158.834722 
" clip-path="url(#p60b65f24f7)" style="fill: none; stroke: #2ca02c; stroke-width: 1.4; stroke-linecap: square"/>
   </g>
   <g id="line2d_28">
    <path d="M 399.411246 154.68717 
L 337.001088 155.570774 
L 287.202248 156.380052 
L 248.543991 157.789902 
L 219.555577 160.046834 
L 198.766269 190.919633 
L 184.705328 156.813336 
L 175.902017 84.461911 
L 170.885598 48.706056 
L 172.869606 49.796067 
L 163.649957 89.603989 
L 154.711244 173.641402 
L 145.961239 192.58396 
L 137.307711 175.430185 
L 128.658434 174.574521 
L 119.921178 173.469728 
L 111.003716 172.321609 
L 101.813817 171.308332 
" clip-path="url(#p60b65f24f7)" style="fill: none; stroke: #d62728; stroke-width: 1.4; stroke-linecap: square"/>
   </g>
   <g id="line2d_29">
    <path d="M 400.710063 154.759175 
L 339.343731 155.544285 
L 290.096431 156.394981 
L 251.564526 157.820891 
L 222.344379 160.095419 
L 201.032354 163.878512 
L 186.224814 171.579567 
L 176.518122 185.581295 
L 170.508642 203.12967 
L 166.792737 216.401548 
L 163.966771 218.122725 
L 160.627107 207.366349 
L 155.370108 189.99696 
L 146.792138 174.487357 
L 133.48956 164.969187 
L 114.058738 159.917981 
L 87.096034 159.920565 
" clip-path="url(#p60b65f24f7)" style="fill: none; stroke: #9467bd; stroke-width: 1.4; stroke-linecap: square"/>
   </g>
   <g id="line2d_30">
    <path d="M 399.219359 154.700336 
L 338.411335 155.475456 
L 289.482672 156.36374 
L 251.066151 157.826816 
L 221.794556 160.132262 
L 200.300668 163.894242 
L 185.217267 171.117848 
L 175.177137 183.710276 
L 168.813059 199.319604 
L 164.757815 211.284823 
L 161.644186 213.16163 
L 158.104954 203.900463 
L 152.772902 188.418748 
L 144.28081 174.071723 
L 131.261461 164.727557 
L 112.347636 159.578921 
L 86.172117 159.531701 
" clip-path="url(#p60b65f24f7)" style="fill: none; stroke: #8c564b; stroke-width: 1.4; stroke-linecap: square"/>
   </g>
   <g id="line2d_31">
    <path d="M 397.738226 154.63915 
L 337.404475 155.411105 
L 288.751521 156.333262 
L 250.442084 157.831084 
L 221.138886 160.164873 
L 199.504648 163.909135 
L 184.202093 170.801601 
L 173.893941 182.432667 
L 167.242914 196.710142 
L 162.911733 207.734535 
L 159.563119 209.653398 
L 155.859795 201.359382 
L 150.464481 187.146241 
L 142.039899 173.612404 
L 129.248771 164.425887 
L 110.753817 159.227607 
L 85.217759 159.111185 
" clip-path="url(#p60b65f24f7)" style="fill: none; stroke: #e377c2; stroke-width: 1.4; stroke-linecap: square"/>
   </g>
   <g id="line2d_32">
    <path d="M 396.234256 154.580551 
L 336.297575 155.35394 
L 287.881663 156.305948 
L 249.673195 157.8356 
L 220.358843 160.196362 
L 198.625282 163.931556 
L 183.159184 170.601814 
L 172.647224 181.587375 
L 165.776073 194.962171 
L 161.232407 205.324692 
L 157.702897 207.231184 
L 153.874218 199.549539 
L 148.433044 186.166825 
L 140.066046 173.17793 
L 127.4599 164.107543 
L 109.301278 158.879332 
L 84.276854 158.6999 
" clip-path="url(#p60b65f24f7)" style="fill: none; stroke: #7f7f7f; stroke-width: 1.4; stroke-linecap: square"/>
   </g>
   <g id="line2d_33">
    <path d="M 405.108409 154.165884 
L 334.826927 155.489349 
L 280.66422 156.137667 
L 240.443103 157.531402 
L 211.986389 184.227401 
L 193.116892 155.944362 
L 181.657426 86.351758 
L 175.430805 51.592512 
L 177.075649 51.765015 
L 165.809495 88.359812 
L 154.839532 166.124918 
L 144.164459 188.914209 
L 133.78297 172.336519 
L 123.693762 172.775296 
L 113.895531 173.14556 
L 104.386973 173.411214 
" clip-path="url(#p60b65f24f7)" style="fill: none; stroke: #bcbd22; stroke-width: 1.4; stroke-linecap: square"/>
   </g>
   <g id="line2d_34">
    <path d="M 404.047544 154.16371 
L 333.71986 155.48815 
L 279.535719 156.136765 
L 239.311721 157.532613 
L 210.864469 185.165564 
L 192.010565 155.602462 
L 180.566612 82.083349 
L 174.349211 45.311719 
L 175.883188 45.389581 
L 164.508097 83.81944 
L 153.457075 165.370769 
L 142.751377 189.742973 
L 132.412256 172.131458 
L 122.460968 172.561871 
L 112.918767 172.93489 
L 103.806908 173.214478 
" clip-path="url(#p60b65f24f7)" style="fill: none; stroke: #17becf; stroke-width: 1.4; stroke-linecap: square"/>
   </g>
   <g id="patch_3">
    <path d="M 67.185 242.2 
L 67.185 25.8 
" style="fill: none; stroke: #000000; stroke-width: 0.8; stroke-linejoin: miter; stroke-linecap: square"/>
   </g>
   <g id="patch_4">
    <path d="M 67.185 242.2 
L 421.2 242.2 
" style="fill: none; stroke: #000000; stroke-width: 0.8; stroke-linejoin: miter; stroke-linecap: square"/>
   </g>
   <g id="text_15">
    <text style="font-size: 12px; font-family: 'DejaVu Sans', 'Bitstream Vera Sans', 'Computer Modern Sans Serif', 'Lucida Grande', 'Verdana', 'Geneva', 'Lucid', 'Arial', 'Helvetica', 'Avant Garde', sans-serif; text-anchor: middle" x="244.1925" y="19.8" transform="rotate(-0 244.1925 19.8)">dQ/dE (cathodic)</text>
   </g>
  </g>
 </g>
 <defs>
  <clipPath id="p60b65f24f7">
   <rect x="67.185" y="25.8" width="354.015" height="216.4"/>
  </clipPath>
 </defs>
</svg>
