<?xml version="1.0" encoding="utf-8" standalone="no"?>
<!DOCTYPE svg PUBLIC "-//W3C//DTD SVG 1.1//EN"
  "http://www.w3.org/Graphics/SVG/1.1/DTD/svg11.dtd">
<svg xmlns:xlink="http://www.w3.org/1999/xlink" width="423.68433pt" height="279.405pt" viewBox="0 0 423.68433 279.405" xmlns="http://www.w3.org/2000/svg" version="1.1">
 <metadata>
  <rdf:RDF xmlns:dc="http://purl.org/dc/elements/1.1/" xmlns:cc="http://creativecommons.org/ns#" xmlns:rdf="http://www.w3.org/1999/02/22-rdf-syntax-ns#">
   <cc:Work>
    <dc:type rdf:resource="http://purl.org/dc/dcmitype/StillImage"/>
    <dc:date>2025-10-07T16:08:08.615605</dc:date>
    <dc:format>image/svg+xml</dc:format>
    <dc:creator>
     <cc:Agent>
      <dc:title>Matplotlib v3.10.3, https://matplotlib.org/</dc:title>
     </cc:Agent>
    </dc:creator>
   </cc:Work>
  </rdf:RDF>
 </metadata>
 <defs>
  <style type="text/css">*{stroke-linejoin: round; stroke-linecap: butt}</style>
 </defs>
 <g id="figure_1">
  <g id="patch_1">
   <path d="M 0 279.405 
L 423.68433 279.405 
L 423.68433 0 
L 0 0 
z
" style="fill: #ffffff"/>
  </g>
  <g id="axes_1">
   <g id="patch_2">
    <path d="M 47.6525 232.066875 
L 341.7315 232.066875 
L 341.7315 22.318125 
L 47.6525 22.318125 
z
" style="fill: #ffffff"/>
   </g>
   <g id="matplotlib.axis_1">
    <g id="xtick_1">
     <g id="line2d_1">
      <path d="M 47.6525 232.066875 
L 47.6525 22.318125 
" clip-path="url(#p0cd5c1bed7)" style="fill: none; stroke: #b0b0b0; stroke-opacity: 0.25; stroke-width: 0.8; stroke-linecap: square"/>
     </g>
     <g id="line2d_2">
      <defs>
       <path id="m1823471b4e" d="M 0 0 
L 0 3.5 
" style="stroke: #000000; stroke-width: 0.8"/>
      </defs>
      <g>
       <use xlink:href="#m1823471b4e" x="47.6525" y="232.066875" style="stroke: #000000; stroke-width: 0.8"/>
      </g>
     </g>
     <g id="text_1">
      <text style="font-size: 10px; font-family: 'DejaVu Sans', 'Bitstream Vera Sans', 'Computer Modern Sans Serif', 'Lucida Grande', 'Verdana', 'Geneva', 'Lucid', 'Arial', 'Helvetica', 'Avant Garde', sans-serif; text-anchor: middle" x="47.6525" y="246.665313" transform="rotate(-0 47.6525 246.665313)">0</text>
     </g>
    </g>
    <g id="xtick_2">
     <g id="line2d_3">
      <path d="M 84.412375 232.066875 
L 84.412375 22.318125 
" clip-path="url(#p0cd5c1bed7)" style="fill: none; stroke: #b0b0b0; stroke-opacity: 0.25; stroke-width: 0.8; stroke-linecap: square"/>
     </g>
     <g id="line2d_4">
      <g>
       <use xlink:href="#m1823471b4e" x="84.412375" y="232.066875" style="stroke: #000000; stroke-width: 0.8"/>
      </g>
     </g>
     <g id="text_2">
      <text style="font-size: 10px; font-family: 'DejaVu Sans', 'Bitstream Vera Sans', 'Computer Modern Sans Serif', 'Lucida Grande', 'Verdana', 'Geneva', 'Lucid', 'Arial', 'Helvetica', 'Avant Garde', sans-serif; text-anchor: middle" x="84.412375" y="246.665313" transform="rotate(-0 84.412375 246.665313)">25</text>
     </g>
    </g>
    <g id="xtick_3">
     <g id="line2d_5">
      <path d="M 121.17225 232.066875 
L 121.17225 22.318125 
" clip-path="url(#p0cd5c1bed7)" style="fill: none; stroke: #b0b0b0; stroke-opacity: 0.25; stroke-width: 0.8; stroke-linecap: square"/>
     </g>
     <g id="line2d_6">
      <g>
       <use xlink:href="#m1823471b4e" x="121.17225" y="232.066875" style="stroke: #000000; stroke-width: 0.8"/>
      </g>
     </g>
     <g id="text_3">
      <text style="font-size: 10px; font-family: 'DejaVu Sans', 'Bitstream Vera Sans', 'Computer Modern Sans Serif', 'Lucida Grande', 'Verdana', 'Geneva', 'Lucid', 'Arial', 'Helvetica', 'Avant Garde', sans-serif; text-anchor: middle" x="121.17225" y="246.665313" transform="rotate(-0 121.17225 246.665313)">50</text>
     </g>
    </g>
    <g id="xtick_4">
     <g id="line2d_7">
      <path d="M 157.932125 232.066875 
L 157.932125 22.318125 
" clip-path="url(#p0cd5c1bed7)" style="fill: none; stroke: #b0b0b0; stroke-opacity: 0.25; stroke-width: 0.8; stroke-linecap: square"/>
     </g>
     <g id="line2d_8">
      <g>
       <use xlink:href="#m1823471b4e" x="157.932125" y="232.066875" style="stroke: #000000; stroke-width: 0.8"/>
      </g>
     </g>
     <g id="text_4">
      <text style="font-size: 10px; font-family: 'DejaVu Sans', 'Bitstream Vera Sans', 'Computer Modern Sans Serif', 'Lucida Grande', 'Verdana', 'Geneva', 'Lucid', 'Arial', 'Helvetica', 'Avant Garde', sans-serif; text-anchor: middle" x="157.932125" y="246.665313" transform="rotate(-0 157.932125 246.665313)">75</text>
     </g>
    </g>
    <g id="xtick_5">
     <g id="line2d_9">
      <path d="M 194.692 232.066875 
L 194.692 22.318125 
" clip-path="url(#p0cd5c1bed7)" style="fill: none; stroke: #b0b0b0; stroke-opacity: 0.25; stroke-width: 0.8; stroke-linecap: square"/>
     </g>
     <g id="line2d_10">
      <g>
       <use xlink:href="#m1823471b4e" x="194.692" y="232.066875" style="stroke: #000000; stroke-width: 0.8"/>
      </g>
     </g>
     <g id="text_5">
      <text style="font-size: 10px; font-family: 'DejaVu Sans', 'Bitstream Vera Sans', 'Computer Modern Sans Serif', 'Lucida Grande', 'Verdana', 'Geneva', 'Lucid', 'Arial', 'Helvetica', 'Avant Garde', sans-serif; text-anchor: middle" x="194.692" y="246.665313" transform="rotate(-0 194.692 246.665313)">100</text>
     </g>
    </g>
    <g id="xtick_6">
     <g id="line2d_11">
      <path d="M 231.451875 232.066875 
L 231.451875 22.318125 
" clip-path="url(#p0cd5c1bed7)" style="fill: none; stroke: #b0b0b0; stroke-opacity: 0.25; stroke-width: 0.8; stroke-linecap: square"/>
     </g>
     <g id="line2d_12">
      <g>
       <use xlink:href="#m1823471b4e" x="231.451875" y="232.066875" style="stroke: #000000; stroke-width: 0.8"/>
      </g>
     </g>
     <g id="text_6">
      <text style="font-size: 10px; font-family: 'DejaVu Sans', 'Bitstream Vera Sans', 'Computer Modern Sans Serif', 'Lucida Grande', 'Verdana', 'Geneva', 'Lucid', 'Arial', 'Helvetica', 'Avant Garde', sans-serif; text-anchor: middle" x="231.451875" y="246.665313" transform="rotate(-0 231.451875 246.665313)">125</text>
     </g>
    </g>
    <g id="xtick_7">
     <g id="line2d_13">
      <path d="M 268.21175 232.066875 
L 268.21175 22.318125 
" clip-path="url(#p0cd5c1bed7)" style="fill: none; stroke: #b0b0b0; stroke-opacity: 0.25; stroke-width: 0.8; stroke-linecap: square"/>
     </g>
     <g id="line2d_14">
      <g>
       <use xlink:href="#m1823471b4e" x="268.21175" y="232.066875" style="stroke: #000000; stroke-width: 0.8"/>
      </g>
     </g>
     <g id="text_7">
      <text style="font-size: 10px; font-family: 'DejaVu Sans', 'Bitstream Vera Sans', 'Computer Modern Sans Serif', 'Lucida Grande', 'Verdana', 'Geneva', 'Lucid', 'Arial', 'Helvetica', 'Avant Garde', sans-serif; text-anchor: middle" x="268.21175" y="246.665313" transform="rotate(-0 268.21175 246.665313)">150</text>
     </g>
    </g>
    <g id="xtick_8">
     <g id="line2d_15">
      <path d="M 304.971625 232.066875 
L 304.971625 22.318125 
" clip-path="url(#p0cd5c1bed7)" style="fill: none; stroke: #b0b0b0; stroke-opacity: 0.25; stroke-width: 0.8; stroke-linecap: square"/>
     </g>
     <g id="line2d_16">
      <g>
       <use xlink:href="#m1823471b4e" x="304.971625" y="232.066875" style="stroke: #000000; stroke-width: 0.8"/>
      </g>
     </g>
     <g id="text_8">
      <text style="font-size: 10px; font-family: 'DejaVu Sans', 'Bitstream Vera Sans', 'Computer Modern Sans Serif', 'Lucida Grande', 'Verdana', 'Geneva', 'Lucid', 'Arial', 'Helvetica', 'Avant Garde', sans-serif; text-anchor: middle" x="304.971625" y="246.665313" transform="rotate(-0 304.971625 246.665313)">175</text>
     </g>
    </g>
    <g id="xtick_9">
     <g id="line2d_17">
      <path d="M 341.7315 232.066875 
L 341.7315 22.318125 
" clip-path="url(#p0cd5c1bed7)" style="fill: none; stroke: #b0b0b0; stroke-opacity: 0.25; stroke-width: 0.8; stroke-linecap: square"/>
     </g>
     <g id="line2d_18">
      <g>
       <use xlink:href="#m1823471b4e" x="341.7315" y="232.066875" style="stroke: #000000; stroke-width: 0.8"/>
      </g>
     </g>
     <g id="text_9">
      <text style="font-size: 10px; font-family: 'DejaVu Sans', 'Bitstream Vera Sans', 'Computer Modern Sans Serif', 'Lucida Grande', 'Verdana', 'Geneva', 'Lucid', 'Arial', 'Helvetica', 'Avant Garde', sans-serif; text-anchor: middle" x="341.7315" y="246.665313" transform="rotate(-0 341.7315 246.665313)">200</text>
     </g>
    </g>
    <g id="text_10">
     <!-- Capacity \left[\frac{\text{mAh}}{\text{g}}\right] -->
     <g transform="translate(144.922 266.325)">
      <text>
       <tspan x="0" y="-0.41875" style="font-size: 14px; font-family: 'DejaVu Sans'">C</tspan>
       <tspan x="9.775391" y="-0.41875" style="font-size: 14px; font-family: 'DejaVu Sans'">a</tspan>
       <tspan x="18.354492" y="-0.41875" style="font-size: 14px; font-family: 'DejaVu Sans'">p</tspan>
       <tspan x="27.241211" y="-0.41875" style="font-size: 14px; font-family: 'DejaVu Sans'">a</tspan>
       <tspan x="35.820312" y="-0.41875" style="font-size: 14px; font-family: 'DejaVu Sans'">c</tspan>
       <tspan x="43.517578" y="-0.41875" style="font-size: 14px; font-family: 'DejaVu Sans'">i</tspan>
       <tspan x="47.407227" y="-0.41875" style="font-size: 14px; font-family: 'DejaVu Sans'">t</tspan>
       <tspan x="52.896484" y="-0.41875" style="font-size: 14px; font-family: 'DejaVu Sans'">y</tspan>
       <tspan x="61.181641" y="-0.41875" style="font-size: 14px; font-family: 'DejaVu Sans'"> </tspan>
       <tspan x="65.631836" y="2.426562" style="font-size: 10.487719px; font-family: 'STIXSizeTwoSym'">[</tspan>
       <tspan x="94.655676" y="2.426562" style="font-size: 10.487719px; font-family: 'STIXSizeTwoSym'">]</tspan>
       <tspan x="70.444153" y="-6.551563" style="font-size: 9.8px; font-family: 'DejaVu Sans'">m</tspan>
       <tspan x="78.444153" y="3.314062" style="font-size: 9.8px; font-family: 'DejaVu Sans'">g</tspan>
       <tspan x="79.99054" y="-6.551563" style="font-size: 9.8px; font-family: 'DejaVu Sans'">A</tspan>
       <tspan x="86.694543" y="-6.551563" style="font-size: 9.8px; font-family: 'DejaVu Sans'">h</tspan>
      </text>
      <rect x="70.444153" y="-4.051562" width="22.461523" height="0.875"/>
     </g>
    </g>
   </g>
   <g id="matplotlib.axis_2">
    <g id="ytick_1">
     <g id="line2d_19">
      <path d="M 47.6525 227.497478 
L 341.7315 227.497478 
" clip-path="url(#p0cd5c1bed7)" style="fill: none; stroke: #b0b0b0; stroke-opacity: 0.25; stroke-width: 0.8; stroke-linecap: square"/>
     </g>
     <g id="line2d_20">
      <defs>
       <path id="m35e4462762" d="M 0 0 
L -3.5 0 
" style="stroke: #000000; stroke-width: 0.8"/>
      </defs>
      <g>
       <use xlink:href="#m35e4462762" x="47.6525" y="227.497478" style="stroke: #000000; stroke-width: 0.8"/>
      </g>
     </g>
     <g id="text_11">
      <text style="font-size: 10px; font-family: 'DejaVu Sans', 'Bitstream Vera Sans', 'Computer Modern Sans Serif', 'Lucida Grande', 'Verdana', 'Geneva', 'Lucid', 'Arial', 'Helvetica', 'Avant Garde', sans-serif; text-anchor: end" x="40.6525" y="231.296697" transform="rotate(-0 40.6525 231.296697)">2.0</text>
     </g>
    </g>
    <g id="ytick_2">
     <g id="line2d_21">
      <path d="M 47.6525 190.821336 
L 341.7315 190.821336 
" clip-path="url(#p0cd5c1bed7)" style="fill: none; stroke: #b0b0b0; stroke-opacity: 0.25; stroke-width: 0.8; stroke-linecap: square"/>
     </g>
     <g id="line2d_22">
      <g>
       <use xlink:href="#m35e4462762" x="47.6525" y="190.821336" style="stroke: #000000; stroke-width: 0.8"/>
      </g>
     </g>
     <g id="text_12">
      <text style="font-size: 10px; font-family: 'DejaVu Sans', 'Bitstream Vera Sans', 'Computer Modern Sans Serif', 'Lucida Grande', 'Verdana', 'Geneva', 'Lucid', 'Arial', 'Helvetica', 'Avant Garde', sans-serif; text-anchor: end" x="40.6525" y="194.620554" transform="rotate(-0 40.6525 194.620554)">2.5</text>
     </g>
    </g>
    <g id="ytick_3">
     <g id="line2d_23">
      <path d="M 47.6525 154.145193 
L 341.7315 154.145193 
" clip-path="url(#p0cd5c1bed7)" style="fill: none; stroke: #b0b0b0; stroke-opacity: 0.25; stroke-width: 0.8; stroke-linecap: square"/>
     </g>
     <g id="line2d_24">
      <g>
       <use xlink:href="#m35e4462762" x="47.6525" y="154.145193" style="stroke: #000000; stroke-width: 0.8"/>
      </g>
     </g>
     <g id="text_13">
      <text style="font-size: 10px; font-family: 'DejaVu Sans', 'Bitstream Vera Sans', 'Computer Modern Sans Serif', 'Lucida Grande', 'Verdana', 'Geneva', 'Lucid', 'Arial', 'Helvetica', 'Avant Garde', sans-serif; text-anchor: end" x="40.6525" y="157.944412" transform="rotate(-0 40.6525 157.944412)">3.0</text>
     </g>
    </g>
    <g id="ytick_4">
     <g id="line2d_25">
      <path d="M 47.6525 117.469051 
L 341.7315 117.469051 
" clip-path="url(#p0cd5c1bed7)" style="fill: none; stroke: #b0b0b0; stroke-opacity: 0.25; stroke-width: 0.8; stroke-linecap: square"/>
     </g>
     <g id="line2d_26">
      <g>
       <use xlink:href="#m35e4462762" x="47.6525" y="117.469051" style="stroke: #000000; stroke-width: 0.8"/>
      </g>
     </g>
     <g id="text_14">
      <text style="font-size: 10px; font-family: 'DejaVu Sans', 'Bitstream Vera Sans', 'Computer Modern Sans Serif', 'Lucida Grande', 'Verdana', 'Geneva', 'Lucid', 'Arial', 'Helvetica', 'Avant Garde', sans-serif; text-anchor: end" x="40.6525" y="121.26827" transform="rotate(-0 40.6525 121.26827)">3.5</text>
     </g>
    </g>
    <g id="ytick_5">
     <g id="line2d_27">
      <path d="M 47.6525 80.792909 
L 341.7315 80.792909 
" clip-path="url(#p0cd5c1bed7)" style="fill: none; stroke: #b0b0b0; stroke-opacity: 0.25; stroke-width: 0.8; stroke-linecap: square"/>
     </g>
     <g id="line2d_28">
      <g>
       <use xlink:href="#m35e4462762" x="47.6525" y="80.792909" style="stroke: #000000; stroke-width: 0.8"/>
      </g>
     </g>
     <g id="text_15">
      <text style="font-size: 10px; font-family: 'DejaVu Sans', 'Bitstream Vera Sans', 'Computer Modern Sans Serif', 'Lucida Grande', 'Verdana', 'Geneva', 'Lucid', 'Arial', 'Helvetica', 'Avant Garde', sans-serif; text-anchor: end" x="40.6525" y="84.592128" transform="rotate(-0 40.6525 84.592128)">4.0</text>
     </g>
    </g>
    <g id="ytick_6">
     <g id="line2d_29">
      <path d="M 47.6525 44.116767 
L 341.7315 44.116767 
" clip-path="url(#p0cd5c1bed7)" style="fill: none; stroke: #b0b0b0; stroke-opacity: 0.25; stroke-width: 0.8; stroke-linecap: square"/>
     </g>
     <g id="line2d_30">
      <g>
       <use xlink:href="#m35e4462762" x="47.6525" y="44.116767" style="stroke: #000000; stroke-width: 0.8"/>
      </g>
     </g>
     <g id="text_16">
      <text style="font-size: 10px; font-family: 'DejaVu Sans', 'Bitstream Vera Sans', 'Computer Modern Sans Serif', 'Lucida Grande', 'Verdana', 'Geneva', 'Lucid', 'Arial', 'Helvetica', 'Avant Garde', sans-serif; text-anchor: end" x="40.6525" y="47.915986" transform="rotate(-0 40.6525 47.915986)">4.5</text>
     </g>
    </g>
    <g id="text_17">
     <text style="font-size: 14px; font-family: 'DejaVu Sans', 'Bitstream Vera Sans', 'Computer Modern Sans Serif', 'Lucida Grande', 'Verdana', 'Geneva', 'Lucid', 'Arial', 'Helvetica', 'Avant Garde', sans-serif; text-anchor: middle" x="17.837813" y="127.1925" transform="rotate(-90 17.837813 127.1925)">Potential [V]</text>
    </g>
   </g>
   <g id="line2d_31">
    <path d="M 47.768767 280.405 
L 47.952858 171.823562 
L 48.253218 149.199397 
L 48.553583 139.541697 
L 48.853948 129.327126 
L 49.154315 124.158211 
L 49.454683 117.608085 
L 49.755048 112.013621 
L 50.055415 110.178985 
L 50.355779 104.093373 
L 50.656153 101.427104 
L 50.956525 99.824733 
L 51.256892 102.771641 
L 51.557254 103.271936 
L 51.857627 96.092467 
L 52.157989 92.860986 
L 52.45836 86.924779 
L 52.758732 85.25018 
L 53.059105 83.642248 
L 53.359483 82.471075 
L 53.659856 80.960817 
L 53.960233 79.206488 
L 54.26061 78.228668 
L 54.560984 76.796321 
L 54.861361 75.573522 
L 55.161739 74.790385 
L 55.462113 74.039986 
L 55.762492 73.669334 
L 56.062866 72.726596 
L 56.363241 71.909427 
L 56.663614 72.60624 
L 56.963985 72.421876 
L 57.264359 74.406511 
L 57.564728 77.614401 
L 57.865099 75.147746 
L 58.165469 68.036553 
L 58.217033 66.088958 
" clip-path="url(#p0cd5c1bed7)" style="fill: none; stroke-dasharray: 4.44,1.92; stroke-dashoffset: 0; stroke: #1f77b4; stroke-opacity: 0.6; stroke-width: 1.2"/>
   </g>
   <g id="line2d_32">
    <path d="M 47.6525 66.647018 
L 47.952178 196.398696 
L 48.023531 198.193178 
" clip-path="url(#p0cd5c1bed7)" style="fill: none; stroke: #1f77b4; stroke-opacity: 0.95; stroke-width: 1.4; stroke-linecap: square"/>
   </g>
   <g id="line2d_33">
    <path d="M 47.6525 194.897689 
L 47.952867 77.215032 
L 48.253233 73.290322 
L 48.553606 69.714054 
L 48.853977 67.183636 
L 48.959266 66.102284 
" clip-path="url(#p0cd5c1bed7)" style="fill: none; stroke-dasharray: 4.44,1.92; stroke-dashoffset: 0; stroke: #ff7f0e; stroke-opacity: 0.6; stroke-width: 1.2"/>
   </g>
   <g id="line2d_34">
    <path d="M 47.6525 74.658906 
L 47.952174 193.330837 
L 48.071654 198.165983 
" clip-path="url(#p0cd5c1bed7)" style="fill: none; stroke: #ff7f0e; stroke-opacity: 0.95; stroke-width: 1.4; stroke-linecap: square"/>
   </g>
   <g id="line2d_35">
    <path d="M 47.6525 181.798679 
L 47.952864 75.857641 
L 48.253232 71.738144 
L 48.553604 68.65897 
L 48.853973 66.941875 
L 49.005442 66.122291 
" clip-path="url(#p0cd5c1bed7)" style="fill: none; stroke-dasharray: 4.44,1.92; stroke-dashoffset: 0; stroke: #2ca02c; stroke-opacity: 0.6; stroke-width: 1.2"/>
   </g>
   <g id="line2d_36">
    <path d="M 47.6525 69.639763 
L 47.95217 192.770941 
L 48.067686 198.157309 
" clip-path="url(#p0cd5c1bed7)" style="fill: none; stroke: #2ca02c; stroke-opacity: 0.95; stroke-width: 1.4; stroke-linecap: square"/>
   </g>
   <g id="line2d_37">
    <path d="M 47.6525 189.550548 
L 47.952863 76.353651 
L 48.253235 72.268781 
L 48.553602 72.170286 
L 48.853967 72.67476 
L 49.154331 70.828285 
L 49.454691 68.711051 
L 49.724305 66.076366 
" clip-path="url(#p0cd5c1bed7)" style="fill: none; stroke-dasharray: 4.44,1.92; stroke-dashoffset: 0; stroke: #d62728; stroke-opacity: 0.6; stroke-width: 1.2"/>
   </g>
   <g id="line2d_38">
    <path d="M 47.6525 61.031025 
L 47.952178 193.665166 
L 48.057298 198.195032 
" clip-path="url(#p0cd5c1bed7)" style="fill: none; stroke: #d62728; stroke-opacity: 0.95; stroke-width: 1.4; stroke-linecap: square"/>
   </g>
   <g id="line2d_39">
    <path d="M 47.6525 195.788223 
L 47.952863 78.101037 
L 48.25323 75.551521 
L 48.553593 73.755553 
L 48.853962 70.251512 
L 49.154324 69.141444 
L 49.454688 70.496282 
L 49.755052 68.901641 
L 49.85193 66.064789 
" clip-path="url(#p0cd5c1bed7)" style="fill: none; stroke-dasharray: 4.44,1.92; stroke-dashoffset: 0; stroke: #9467bd; stroke-opacity: 0.6; stroke-width: 1.2"/>
   </g>
   <g id="line2d_40">
    <path d="M 47.6525 60.331239 
L 47.95218 185.800129 
L 48.251858 189.007896 
L 48.551543 196.269875 
L 48.621799 198.1596 
" clip-path="url(#p0cd5c1bed7)" style="fill: none; stroke: #9467bd; stroke-opacity: 0.95; stroke-width: 1.4; stroke-linecap: square"/>
   </g>
   <g id="line2d_41">
    <path d="M 47.6525 183.578594 
L 47.952866 77.434443 
L 48.253237 80.244923 
L 48.553605 81.829595 
L 48.853975 87.810451 
L 49.154341 87.910678 
L 49.454708 85.155637 
L 49.755073 86.21999 
L 50.055436 86.863569 
L 50.355801 86.259794 
L 50.656163 86.698302 
L 50.956527 88.247437 
L 51.152815 66.07161 
" clip-path="url(#p0cd5c1bed7)" style="fill: none; stroke-dasharray: 4.44,1.92; stroke-dashoffset: 0; stroke: #8c564b; stroke-opacity: 0.6; stroke-width: 1.2"/>
   </g>
   <g id="line2d_42">
    <path d="M 47.6525 59.667059 
L 47.952184 186.084125 
L 48.251868 194.184908 
L 48.282266 198.146431 
" clip-path="url(#p0cd5c1bed7)" style="fill: none; stroke: #8c564b; stroke-opacity: 0.95; stroke-width: 1.4; stroke-linecap: square"/>
   </g>
   <g id="line2d_43">
    <path d="M 47.6525 197.58664 
L 47.952858 84.342297 
L 48.253219 93.200054 
L 48.553583 93.522473 
L 48.85394 94.307464 
L 49.1543 95.471939 
L 49.454668 93.686131 
L 49.755033 96.402854 
L 50.055405 92.570029 
L 50.355774 90.229659 
L 50.656143 91.710624 
L 50.956513 88.237154 
L 51.256877 84.289167 
L 51.557244 102.686927 
L 51.857605 91.497107 
L 52.157969 78.32566 
L 52.458337 97.140399 
L 52.758696 89.075957 
L 53.059057 78.864867 
L 53.359426 87.735688 
L 53.659786 84.682659 
L 53.960158 78.961368 
L 54.260522 80.993328 
L 54.560889 81.870448 
L 54.86126 83.56355 
L 55.161629 84.521677 
L 55.461998 86.402623 
L 55.762361 85.660094 
L 56.062721 88.474509 
L 56.363089 88.855829 
L 56.663449 88.226154 
L 56.963813 92.10688 
L 57.264176 87.672746 
L 57.564537 90.605646 
L 57.864899 90.118082 
L 58.165264 86.196608 
L 58.292794 66.320541 
" clip-path="url(#p0cd5c1bed7)" style="fill: none; stroke-dasharray: 4.44,1.92; stroke-dashoffset: 0; stroke: #e377c2; stroke-opacity: 0.6; stroke-width: 1.2"/>
   </g>
   <g id="line2d_44">
    <path d="M 47.6525 44.988256 
L 47.95217 169.009847 
L 48.251853 175.136522 
L 48.551538 181.839183 
L 48.85122 189.110081 
L 49.150908 195.791581 
L 49.308922 198.156382 
" clip-path="url(#p0cd5c1bed7)" style="fill: none; stroke: #e377c2; stroke-opacity: 0.95; stroke-width: 1.4; stroke-linecap: square"/>
   </g>
   <g id="line2d_45">
    <path d="M 47.6525 200.935715 
L 47.952865 81.647784 
L 48.25323 78.216531 
L 48.5536 84.237681 
L 48.853969 84.243225 
L 49.154334 85.075557 
L 49.454703 88.159487 
L 49.755069 84.265453 
L 50.055438 83.324341 
L 50.355806 80.270946 
L 50.656172 81.630313 
L 50.95654 79.938594 
L 51.256906 74.447469 
L 51.557272 99.069246 
L 51.857636 100.815722 
L 52.157996 105.609665 
L 52.458362 107.410985 
L 52.758722 107.128948 
L 53.059081 108.314007 
L 53.359445 114.303204 
L 53.659798 101.86075 
L 53.960157 98.341425 
L 54.260516 96.651909 
L 54.560871 92.384406 
L 54.861237 106.726326 
L 55.161595 105.919002 
L 55.461954 104.253551 
L 55.762316 108.671263 
L 56.062679 104.389874 
L 56.363042 103.657436 
L 56.663405 98.487594 
L 56.963764 99.935016 
L 57.264127 103.275294 
L 57.564488 101.622923 
L 57.86485 95.594026 
L 58.165213 99.524298 
L 58.465574 100.806331 
L 58.765938 98.777029 
L 59.066297 102.671537 
L 59.366657 101.116612 
L 59.967377 100.281272 
L 60.26774 100.218436 
L 60.5681 101.627663 
L 60.868459 96.922701 
L 61.168819 100.786656 
L 61.469177 99.904691 
L 61.769539 97.631774 
L 62.069899 101.182229 
L 62.670619 92.091612 
L 62.970978 84.048927 
L 63.271333 89.290979 
L 63.571694 75.851975 
L 63.872054 85.483722 
L 64.172412 85.118491 
L 64.773133 93.433491 
L 65.073493 93.364167 
L 65.373852 93.574904 
L 65.974571 100.631008 
L 66.274933 96.380871 
L 66.575295 95.188519 
L 66.875662 90.910716 
L 67.176019 96.753395 
L 67.476383 98.06229 
L 67.776741 96.980466 
L 68.077104 96.513382 
L 68.377465 95.262111 
L 68.677826 97.115285 
L 68.978186 96.644843 
L 69.278559 98.304506 
L 69.578925 93.294492 
L 69.879296 97.290153 
L 70.179662 95.354591 
L 70.48002 96.380399 
L 70.780386 93.782982 
L 71.080744 94.165597 
L 71.381103 89.436326 
L 71.681471 93.195542 
L 71.981832 91.379531 
L 72.282195 94.909262 
L 72.582554 94.414406 
L 72.882922 89.955142 
L 73.183278 97.392566 
L 73.483634 87.886614 
L 73.784002 100.862119 
L 74.084365 94.242424 
L 74.384731 90.080709 
L 74.68509 88.29721 
L 74.985445 91.588887 
L 75.285806 93.432669 
L 75.586165 93.537985 
L 75.88653 94.787629 
L 76.186894 92.061515 
L 76.48725 91.829372 
L 76.78761 92.657524 
L 77.38833 90.089279 
L 77.688688 91.165664 
L 78.28941 96.652713 
L 79.190485 90.836407 
L 79.490843 91.45475 
L 80.091567 91.710869 
L 80.391926 88.547523 
L 80.692291 91.592822 
L 80.992655 92.99974 
L 81.293018 94.973026 
L 81.593381 94.056801 
L 81.893745 95.968071 
L 82.194111 95.911479 
L 82.494477 96.631989 
L 82.794842 92.399341 
L 83.095211 95.352387 
L 83.395572 96.502154 
L 83.69594 94.917237 
L 84.59703 100.255826 
L 84.897393 101.071125 
L 85.498123 104.946762 
L 85.798486 104.435239 
L 86.098852 104.359566 
L 86.399213 109.110225 
L 86.699574 107.621722 
L 86.999937 108.973447 
L 87.300295 108.9806 
L 87.600656 112.254229 
L 87.90102 107.340384 
L 88.201383 110.890489 
L 88.501746 113.091178 
L 88.80211 111.003553 
L 89.102473 111.344824 
L 89.402839 107.551943 
L 89.703202 101.954489 
L 90.003568 107.075485 
L 90.303926 106.549604 
L 90.60429 109.754958 
L 90.904653 109.684007 
L 91.205011 105.165036 
L 91.505375 107.785013 
L 91.805733 107.944491 
L 92.40646 113.316273 
L 92.706823 110.905652 
L 93.007187 110.265903 
L 93.307545 109.924387 
L 93.607903 107.196873 
L 93.908267 107.231605 
L 94.208635 106.379144 
L 94.508993 104.447638 
L 94.809357 105.721469 
L 95.109715 104.873047 
L 95.410073 105.530389 
L 95.710437 109.16381 
L 96.010795 105.631071 
L 96.311163 107.562471 
L 96.611527 108.521858 
L 97.212249 106.734773 
L 97.512607 99.476257 
L 97.812975 98.590602 
L 98.113334 100.703218 
L 98.413697 100.420271 
L 98.71406 99.215992 
L 99.314787 92.349918 
L 99.61515 93.07982 
L 99.915509 89.12872 
L 100.215877 91.195867 
L 100.51624 91.310679 
L 100.816604 90.352674 
L 101.116972 94.670281 
L 101.417336 96.703168 
L 101.717704 94.666469 
L 102.018067 90.203269 
L 102.318436 93.025204 
L 102.618804 92.614363 
L 102.919167 91.826119 
L 103.219536 94.033541 
L 103.519904 88.638254 
L 103.820267 89.665234 
L 104.120636 95.592995 
L 104.420999 94.027979 
L 104.721363 95.881503 
L 105.021731 100.940922 
L 105.322089 99.813156 
L 105.622458 100.237883 
L 105.922821 99.869749 
L 106.223184 104.315355 
L 106.523548 106.07166 
L 106.823911 101.926594 
L 107.124274 104.717959 
L 107.424638 102.416816 
L 107.725001 101.586355 
L 108.025365 96.013664 
L 108.325728 94.740883 
L 108.626091 96.400546 
L 108.92645 94.760785 
L 109.226808 94.202043 
L 109.527171 87.935564 
L 109.827535 87.475301 
L 110.127898 94.95057 
L 110.428261 96.908833 
L 110.728625 97.039717 
L 111.028988 100.522684 
L 111.329351 100.811665 
L 111.62971 96.289214 
L 111.930078 103.1098 
L 112.230436 101.326772 
L 112.5308 103.90775 
L 112.831158 108.297585 
L 113.131517 100.545716 
L 113.43188 105.971083 
L 113.732238 102.607651 
L 114.032602 95.315819 
L 114.33296 102.649081 
L 114.633323 106.233901 
L 114.933687 103.626779 
L 115.23405 106.458174 
L 115.534408 103.878246 
L 115.834772 103.723158 
L 116.13513 103.076239 
L 116.735852 87.046184 
L 117.03621 91.479758 
L 117.336573 108.840587 
L 117.636927 114.012842 
L 117.93728 112.247758 
L 118.237638 117.57811 
L 118.537997 112.764597 
L 118.838355 121.827669 
L 119.138718 114.600055 
L 119.439072 121.632655 
L 119.73943 121.794913 
L 120.039788 123.821329 
L 120.340142 120.861794 
L 120.6405 123.240954 
L 120.940858 120.880088 
L 121.54158 124.772618 
L 121.841938 117.479387 
L 122.142302 123.067695 
L 122.442655 105.743085 
L 122.743013 117.373966 
L 123.043372 102.708228 
L 123.343735 105.296603 
L 123.644094 101.879725 
L 123.944457 107.079298 
L 124.244815 104.678382 
L 124.545184 101.351186 
L 124.845547 106.839967 
L 125.14591 107.798094 
L 125.446274 96.281694 
L 125.746637 96.544861 
L 126.047005 112.634517 
L 126.347369 102.2622 
L 126.647732 115.702026 
L 126.948095 110.340544 
L 127.248459 124.15139 
L 127.548827 125.67438 
L 128.149544 130.816206 
L 128.449902 127.779949 
L 128.750266 126.902601 
L 129.050624 130.330269 
L 129.350977 136.622316 
L 129.951694 119.75797 
L 130.252047 124.250795 
L 130.552411 114.872019 
L 130.852779 128.139636 
L 131.153147 118.217963 
L 131.453516 112.989115 
L 131.753884 104.361525 
L 132.054252 117.605532 
L 132.354616 104.480272 
L 132.654979 112.432804 
L 132.955353 101.615176 
L 133.255716 116.779583 
L 133.556079 113.203665 
L 133.856443 114.16167 
L 134.156806 134.342824 
L 134.457169 139.974171 
L 134.757533 137.577086 
L 135.057896 124.921219 
L 135.35827 133.223941 
L 135.658633 137.364845 
L 135.959006 137.106539 
L 136.25937 137.885619 
L 136.559743 142.96473 
L 137.16048 124.121992 
L 137.460843 146.771969 
L 137.761206 152.152671 
L 138.06158 152.044801 
L 138.361953 158.747812 
L 138.662317 156.859119 
L 138.96269 157.08306 
L 139.263063 153.441192 
L 139.563437 151.28795 
L 139.8638 151.393248 
L 140.164174 150.620184 
L 140.464547 159.175792 
L 140.76492 153.693132 
L 141.065284 154.739909 
L 141.365657 150.667403 
L 141.666021 153.863016 
L 141.966394 146.701718 
L 142.266767 151.618343 
L 142.567131 145.496652 
L 142.867504 134.424863 
L 143.167877 127.630772 
L 143.468251 146.115222 
L 143.768624 146.931797 
L 144.068998 144.952024 
L 144.369371 145.208703 
L 144.669744 137.377804 
L 144.970108 140.828714 
L 145.270471 147.745609 
L 145.570845 139.15123 
L 145.871218 140.195559 
L 146.171591 137.588768 
L 146.471965 137.761555 
L 146.772338 137.708215 
L 147.072712 141.481194 
L 147.373085 139.449007 
L 148.274215 124.702367 
L 148.574589 124.470224 
L 148.874962 122.146031 
L 149.475719 107.254061 
L 149.776092 117.611321 
L 150.076466 120.489149 
L 150.376839 116.468269 
L 150.677222 128.434965 
L 150.977596 121.270432 
L 151.277969 119.771628 
L 151.578343 133.5848 
L 151.878716 138.765048 
L 152.179089 137.364268 
L 152.479463 134.331002 
L 152.779836 137.843157 
L 153.0802 130.729655 
L 153.380573 142.879438 
L 153.680946 136.501732 
L 153.98132 134.237036 
L 154.582067 127.280931 
L 154.88244 131.306095 
L 155.182813 121.519241 
L 155.483187 123.190604 
L 155.78356 121.551193 
L 156.083934 118.084071 
L 156.384307 117.984316 
L 156.68468 117.34838 
L 156.985054 117.05097 
L 157.285427 112.698753 
L 157.58579 126.554841 
L 158.186537 129.60696 
L 158.486911 130.141288 
L 158.787284 126.057327 
L 159.388021 94.748735 
L 159.688394 105.889727 
L 159.988768 110.420625 
L 160.289141 87.82007 
L 160.589514 95.276924 
L 160.889888 90.66306 
L 161.490635 89.773785 
L 161.791008 88.063563 
L 162.091381 87.788818 
L 162.391755 85.463121 
L 162.692128 85.869904 
L 162.992502 84.979615 
L 163.292875 84.932046 
L 163.593248 84.712862 
L 164.193995 85.565551 
L 164.494359 84.621887 
L 164.794732 84.905428 
L 165.095095 84.398086 
L 165.395459 91.867916 
L 165.695832 95.754781 
L 165.996195 107.038217 
L 166.296559 113.138974 
L 166.596932 115.343616 
L 166.897296 120.8722 
L 167.197669 119.643053 
L 167.498032 115.093285 
L 167.798396 98.798785 
L 168.098759 110.34378 
L 168.699476 103.291611 
L 168.999839 109.130022 
L 169.300202 103.751979 
L 169.900929 89.257069 
L 170.201292 92.204099 
L 170.501656 102.534741 
L 170.802019 107.445123 
L 171.102393 98.221541 
L 171.402756 103.221831 
L 171.703119 103.329106 
L 172.003493 103.611721 
L 172.303856 101.251554 
L 172.604229 88.504134 
L 172.904593 89.928629 
L 173.204956 86.978014 
L 173.50532 77.925697 
L 173.805683 92.7861 
L 174.106056 95.781504 
L 174.40642 97.335518 
L 174.706783 97.391307 
L 175.007156 94.547844 
L 175.30753 89.287044 
L 175.607903 91.587505 
L 175.908287 95.376102 
L 176.20866 90.66745 
L 176.509033 84.041057 
L 176.809407 91.744202 
L 177.410164 85.240124 
L 178.010921 87.003477 
L 178.311294 87.000119 
L 178.611667 88.513386 
L 178.912051 85.846295 
L 179.212424 91.954362 
L 179.813171 89.184386 
L 180.113544 85.657086 
L 180.413928 85.313716 
L 180.714301 91.272012 
L 181.014665 91.533675 
L 181.615411 82.911314 
L 181.915785 85.431187 
L 182.216168 79.550558 
L 182.816915 80.31876 
L 183.117278 87.242108 
L 183.417652 88.609328 
L 183.718025 85.615079 
L 184.018388 85.481414 
L 184.318762 86.667172 
L 184.619125 87.023029 
L 184.919489 86.558726 
L 185.219862 87.487577 
L 185.520225 89.889297 
L 186.120972 100.31067 
L 186.421346 103.597957 
L 186.721719 108.49211 
L 187.022092 108.84279 
L 187.322466 102.302598 
L 187.622839 99.675434 
L 187.923202 94.786248 
L 188.223576 96.327286 
L 188.523949 93.982159 
L 188.824313 81.121204 
L 189.124686 94.377838 
L 189.425059 96.794248 
L 189.725443 93.151453 
L 190.025816 94.7072 
L 190.32618 91.012552 
L 190.626563 89.724503 
L 190.926926 92.979016 
L 191.2273 90.556695 
L 191.527663 91.772202 
L 191.828027 104.309339 
L 192.12839 107.38853 
L 192.428753 106.464086 
L 192.729127 92.612964 
L 193.0295 102.446214 
L 193.329873 96.806752 
L 193.630247 98.077575 
L 193.93062 93.485922 
L 194.230994 94.213498 
L 194.531367 97.458306 
L 194.83174 94.940847 
L 195.132114 98.738957 
L 195.732851 111.50084 
L 196.333597 106.805025 
L 196.633961 107.466302 
L 196.934334 101.922887 
L 197.234708 103.676411 
L 197.535081 106.372655 
L 198.135828 87.436878 
L 198.436211 82.065446 
L 198.736585 90.039401 
L 198.937811 66.085495 
L 198.937811 66.085495 
" clip-path="url(#p0cd5c1bed7)" style="fill: none; stroke-dasharray: 4.44,1.92; stroke-dashoffset: 0; stroke: #7f7f7f; stroke-opacity: 0.6; stroke-width: 1.2"/>
   </g>
   <g id="line2d_46">
    <path d="M 47.6525 74.088709 
L 47.952166 164.911073 
L 48.251839 167.19464 
L 48.551514 169.777594 
L 48.851189 176.120218 
L 49.150868 183.701853 
L 49.450541 185.375752 
L 49.750217 188.332383 
L 49.943839 198.195137 
" clip-path="url(#p0cd5c1bed7)" style="fill: none; stroke: #7f7f7f; stroke-opacity: 0.95; stroke-width: 1.4; stroke-linecap: square"/>
   </g>
   <g id="line2d_47">
    <path d="M 47.6525 192.395742 
L 47.952876 74.327358 
L 48.253253 83.065458 
L 48.553626 83.189872 
L 48.854003 83.668166 
L 49.154376 77.793448 
L 49.454754 66.304452 
L 49.455405 66.062131 
" clip-path="url(#p0cd5c1bed7)" style="fill: none; stroke-dasharray: 4.44,1.92; stroke-dashoffset: 0; stroke: #bcbd22; stroke-opacity: 0.6; stroke-width: 1.2"/>
   </g>
   <g id="line2d_48">
    <path d="M 47.6525 64.636919 
L 47.952173 164.634492 
L 48.251852 184.062239 
L 48.551527 183.910037 
L 48.851207 185.546335 
L 49.150885 187.389436 
L 49.450562 188.524267 
L 49.750243 197.027549 
L 49.791329 198.146064 
" clip-path="url(#p0cd5c1bed7)" style="fill: none; stroke: #bcbd22; stroke-opacity: 0.95; stroke-width: 1.4; stroke-linecap: square"/>
   </g>
   <g id="line2d_49">
    <path d="M 47.6525 189.134041 
L 47.952875 74.974259 
L 48.25325 73.364159 
L 48.553626 74.681256 
L 48.797973 66.12404 
" clip-path="url(#p0cd5c1bed7)" style="fill: none; stroke-dasharray: 4.44,1.92; stroke-dashoffset: 0; stroke: #17becf; stroke-opacity: 0.6; stroke-width: 1.2"/>
   </g>
   <g id="line2d_50">
    <path d="M 47.6525 65.970106 
L 47.952174 171.809781 
L 48.251848 175.307578 
L 48.551527 179.378684 
L 48.851209 186.40226 
L 49.150887 189.025367 
L 49.450569 193.746173 
L 49.578583 198.142724 
" clip-path="url(#p0cd5c1bed7)" style="fill: none; stroke: #17becf; stroke-opacity: 0.95; stroke-width: 1.4; stroke-linecap: square"/>
   </g>
   <g id="line2d_51">
    <path d="M 47.6525 195.854645 
L 47.655364 61.84043 
" clip-path="url(#p0cd5c1bed7)" style="fill: none; stroke-dasharray: 4.44,1.92; stroke-dashoffset: 0; stroke: #1f77b4; stroke-opacity: 0.6; stroke-width: 1.2"/>
   </g>
   <g id="line2d_52">
    <path d="M 47.6525 68.316055 
L 47.654359 207.631905 
" clip-path="url(#p0cd5c1bed7)" style="fill: none; stroke: #1f77b4; stroke-opacity: 0.95; stroke-width: 1.4; stroke-linecap: square"/>
   </g>
   <g id="line2d_53">
    <path d="M 47.6525 197.382619 
L 47.654656 56.836572 
" clip-path="url(#p0cd5c1bed7)" style="fill: none; stroke-dasharray: 4.44,1.92; stroke-dashoffset: 0; stroke: #ff7f0e; stroke-opacity: 0.6; stroke-width: 1.2"/>
   </g>
   <g id="line2d_54">
    <path d="M 47.6525 65.81054 
L 47.654359 204.295335 
" clip-path="url(#p0cd5c1bed7)" style="fill: none; stroke: #ff7f0e; stroke-opacity: 0.95; stroke-width: 1.4; stroke-linecap: square"/>
   </g>
   <g id="line2d_55">
    <path d="M 47.6525 194.731845 
L 47.654457 59.358071 
" clip-path="url(#p0cd5c1bed7)" style="fill: none; stroke-dasharray: 4.44,1.92; stroke-dashoffset: 0; stroke: #2ca02c; stroke-opacity: 0.6; stroke-width: 1.2"/>
   </g>
   <g id="line2d_56">
    <path d="M 47.6525 67.268351 
L 47.65426 205.220234 
" clip-path="url(#p0cd5c1bed7)" style="fill: none; stroke: #2ca02c; stroke-opacity: 0.95; stroke-width: 1.4; stroke-linecap: square"/>
   </g>
   <g id="line2d_57">
    <path d="M 47.6525 194.024048 
L 47.654357 57.950907 
" clip-path="url(#p0cd5c1bed7)" style="fill: none; stroke-dasharray: 4.44,1.92; stroke-dashoffset: 0; stroke: #d62728; stroke-opacity: 0.6; stroke-width: 1.2"/>
   </g>
   <g id="line2d_58">
    <path d="M 47.6525 64.26833 
L 47.654359 204.155986 
" clip-path="url(#p0cd5c1bed7)" style="fill: none; stroke: #d62728; stroke-opacity: 0.95; stroke-width: 1.4; stroke-linecap: square"/>
   </g>
   <g id="line2d_59">
    <path d="M 47.6525 196.726554 
L 47.654554 55.936996 
" clip-path="url(#p0cd5c1bed7)" style="fill: none; stroke-dasharray: 4.44,1.92; stroke-dashoffset: 0; stroke: #9467bd; stroke-opacity: 0.6; stroke-width: 1.2"/>
   </g>
   <g id="line2d_60">
    <path d="M 47.6525 65.042443 
L 47.654359 204.887742 
" clip-path="url(#p0cd5c1bed7)" style="fill: none; stroke: #9467bd; stroke-opacity: 0.95; stroke-width: 1.4; stroke-linecap: square"/>
   </g>
   <g id="line2d_61">
    <path d="M 47.6525 191.545257 
L 47.654454 56.619819 
" clip-path="url(#p0cd5c1bed7)" style="fill: none; stroke-dasharray: 4.44,1.92; stroke-dashoffset: 0; stroke: #8c564b; stroke-opacity: 0.6; stroke-width: 1.2"/>
   </g>
   <g id="line2d_62">
    <path d="M 47.6525 64.894176 
L 47.65426 205.226023 
" clip-path="url(#p0cd5c1bed7)" style="fill: none; stroke: #8c564b; stroke-opacity: 0.95; stroke-width: 1.4; stroke-linecap: square"/>
   </g>
   <g id="line2d_63">
    <path d="M 47.6525 190.659357 
L 47.654256 55.632171 
" clip-path="url(#p0cd5c1bed7)" style="fill: none; stroke-dasharray: 4.44,1.92; stroke-dashoffset: 0; stroke: #e377c2; stroke-opacity: 0.6; stroke-width: 1.2"/>
   </g>
   <g id="line2d_64">
    <path d="M 47.6525 67.033445 
L 47.65426 205.38272 
" clip-path="url(#p0cd5c1bed7)" style="fill: none; stroke: #e377c2; stroke-opacity: 0.95; stroke-width: 1.4; stroke-linecap: square"/>
   </g>
   <g id="line2d_65">
    <path d="M 47.6525 190.728786 
L 47.654355 54.701151 
" clip-path="url(#p0cd5c1bed7)" style="fill: none; stroke-dasharray: 4.44,1.92; stroke-dashoffset: 0; stroke: #7f7f7f; stroke-opacity: 0.6; stroke-width: 1.2"/>
   </g>
   <g id="line2d_66">
    <path d="M 47.6525 65.516558 
L 47.654359 204.812191 
" clip-path="url(#p0cd5c1bed7)" style="fill: none; stroke: #7f7f7f; stroke-opacity: 0.95; stroke-width: 1.4; stroke-linecap: square"/>
   </g>
   <g id="line2d_67">
    <path d="M 47.6525 192.066258 
L 47.654257 57.311981 
" clip-path="url(#p0cd5c1bed7)" style="fill: none; stroke-dasharray: 4.44,1.92; stroke-dashoffset: 0; stroke: #bcbd22; stroke-opacity: 0.6; stroke-width: 1.2"/>
   </g>
   <g id="line2d_68">
    <path d="M 47.6525 67.787061 
L 47.654161 204.283984 
" clip-path="url(#p0cd5c1bed7)" style="fill: none; stroke: #bcbd22; stroke-opacity: 0.95; stroke-width: 1.4; stroke-linecap: square"/>
   </g>
   <g id="line2d_69">
    <path d="M 47.6525 191.163919 
L 47.654256 57.765389 
" clip-path="url(#p0cd5c1bed7)" style="fill: none; stroke-dasharray: 4.44,1.92; stroke-dashoffset: 0; stroke: #17becf; stroke-opacity: 0.6; stroke-width: 1.2"/>
   </g>
   <g id="line2d_70">
    <path d="M 47.6525 66.097073 
L 47.65426 205.696587 
" clip-path="url(#p0cd5c1bed7)" style="fill: none; stroke: #17becf; stroke-opacity: 0.95; stroke-width: 1.4; stroke-linecap: square"/>
   </g>
   <g id="line2d_71">
    <path d="M 47.6525 178.622986 
L 47.653864 32.487093 
" clip-path="url(#p0cd5c1bed7)" style="fill: none; stroke-dasharray: 4.44,1.92; stroke-dashoffset: 0; stroke: #1f77b4; stroke-opacity: 0.6; stroke-width: 1.2"/>
   </g>
   <g id="line2d_72">
    <path d="M 47.6525 87.638259 
L 47.653671 224.731647 
" clip-path="url(#p0cd5c1bed7)" style="fill: none; stroke: #1f77b4; stroke-opacity: 0.95; stroke-width: 1.4; stroke-linecap: square"/>
   </g>
   <g id="line2d_73">
    <path d="M 47.6525 172.129419 
L 47.65366 39.797445 
" clip-path="url(#p0cd5c1bed7)" style="fill: none; stroke-dasharray: 4.44,1.92; stroke-dashoffset: 0; stroke: #ff7f0e; stroke-opacity: 0.6; stroke-width: 1.2"/>
   </g>
   <g id="line2d_74">
    <path d="M 47.6525 88.59915 
L 47.65367 220.483136 
" clip-path="url(#p0cd5c1bed7)" style="fill: none; stroke: #ff7f0e; stroke-opacity: 0.95; stroke-width: 1.4; stroke-linecap: square"/>
   </g>
   <g id="line2d_75">
    <path d="M 47.6525 169.618116 
L 47.65366 34.254625 
" clip-path="url(#p0cd5c1bed7)" style="fill: none; stroke-dasharray: 4.44,1.92; stroke-dashoffset: 0; stroke: #2ca02c; stroke-opacity: 0.6; stroke-width: 1.2"/>
   </g>
   <g id="line2d_76">
    <path d="M 47.6525 87.956848 
L 47.65367 221.152388 
" clip-path="url(#p0cd5c1bed7)" style="fill: none; stroke: #2ca02c; stroke-opacity: 0.95; stroke-width: 1.4; stroke-linecap: square"/>
   </g>
   <g id="line2d_77">
    <path d="M 47.6525 170.532837 
L 47.65366 36.270285 
" clip-path="url(#p0cd5c1bed7)" style="fill: none; stroke-dasharray: 4.44,1.92; stroke-dashoffset: 0; stroke: #d62728; stroke-opacity: 0.6; stroke-width: 1.2"/>
   </g>
   <g id="line2d_78">
    <path d="M 47.6525 91.123429 
L 47.65367 223.155649 
" clip-path="url(#p0cd5c1bed7)" style="fill: none; stroke: #d62728; stroke-opacity: 0.95; stroke-width: 1.4; stroke-linecap: square"/>
   </g>
   <g id="line2d_79">
    <path d="M 47.6525 168.339196 
L 47.65366 34.51503 
" clip-path="url(#p0cd5c1bed7)" style="fill: none; stroke-dasharray: 4.44,1.92; stroke-dashoffset: 0; stroke: #9467bd; stroke-opacity: 0.6; stroke-width: 1.2"/>
   </g>
   <g id="line2d_80">
    <path d="M 47.6525 86.413956 
L 47.65367 221.162934 
" clip-path="url(#p0cd5c1bed7)" style="fill: none; stroke: #9467bd; stroke-opacity: 0.95; stroke-width: 1.4; stroke-linecap: square"/>
   </g>
   <g id="line2d_81">
    <path d="M 47.6525 172.418522 
L 47.65366 36.090433 
" clip-path="url(#p0cd5c1bed7)" style="fill: none; stroke-dasharray: 4.44,1.92; stroke-dashoffset: 0; stroke: #8c564b; stroke-opacity: 0.6; stroke-width: 1.2"/>
   </g>
   <g id="line2d_82">
    <path d="M 47.6525 88.746928 
L 47.65367 220.430933 
" clip-path="url(#p0cd5c1bed7)" style="fill: none; stroke: #8c564b; stroke-opacity: 0.95; stroke-width: 1.4; stroke-linecap: square"/>
   </g>
   <g id="line2d_83">
    <path d="M 47.6525 169.938803 
L 47.653659 34.063895 
" clip-path="url(#p0cd5c1bed7)" style="fill: none; stroke-dasharray: 4.44,1.92; stroke-dashoffset: 0; stroke: #e377c2; stroke-opacity: 0.6; stroke-width: 1.2"/>
   </g>
   <g id="line2d_84">
    <path d="M 47.6525 87.692403 
L 47.65367 218.860601 
" clip-path="url(#p0cd5c1bed7)" style="fill: none; stroke: #e377c2; stroke-opacity: 0.95; stroke-width: 1.4; stroke-linecap: square"/>
   </g>
   <g id="line2d_85">
    <path d="M 47.6525 170.440357 
L 47.653659 34.207301 
" clip-path="url(#p0cd5c1bed7)" style="fill: none; stroke-dasharray: 4.44,1.92; stroke-dashoffset: 0; stroke: #7f7f7f; stroke-opacity: 0.6; stroke-width: 1.2"/>
   </g>
   <g id="line2d_86">
    <path d="M 47.6525 86.375883 
L 47.653867 223.955225 
" clip-path="url(#p0cd5c1bed7)" style="fill: none; stroke: #7f7f7f; stroke-opacity: 0.95; stroke-width: 1.4; stroke-linecap: square"/>
   </g>
   <g id="line2d_87">
    <path d="M 47.6525 174.396896 
L 47.653856 31.672966 
" clip-path="url(#p0cd5c1bed7)" style="fill: none; stroke-dasharray: 4.44,1.92; stroke-dashoffset: 0; stroke: #bcbd22; stroke-opacity: 0.6; stroke-width: 1.2"/>
   </g>
   <g id="line2d_88">
    <path d="M 47.6525 85.37274 
L 47.65367 218.381135 
" clip-path="url(#p0cd5c1bed7)" style="fill: none; stroke: #bcbd22; stroke-opacity: 0.95; stroke-width: 1.4; stroke-linecap: square"/>
   </g>
   <g id="line2d_89">
    <path d="M 47.6525 169.335396 
L 47.653659 29.653353 
" clip-path="url(#p0cd5c1bed7)" style="fill: none; stroke-dasharray: 4.44,1.92; stroke-dashoffset: 0; stroke: #17becf; stroke-opacity: 0.6; stroke-width: 1.2"/>
   </g>
   <g id="line2d_90">
    <path d="M 47.6525 84.249136 
L 47.653867 224.543697 
" clip-path="url(#p0cd5c1bed7)" style="fill: none; stroke: #17becf; stroke-opacity: 0.95; stroke-width: 1.4; stroke-linecap: square"/>
   </g>
   <g id="patch_3">
    <path d="M 47.6525 232.066875 
L 47.6525 22.318125 
" style="fill: none; stroke: #000000; stroke-width: 0.8; stroke-linejoin: miter; stroke-linecap: square"/>
   </g>
   <g id="patch_4">
    <path d="M 47.6525 232.066875 
L 341.7315 232.066875 
" style="fill: none; stroke: #000000; stroke-width: 0.8; stroke-linejoin: miter; stroke-linecap: square"/>
   </g>
   <g id="text_18">
    <text style="font-size: 12px; font-family: 'DejaVu Sans', 'Bitstream Vera Sans', 'Computer Modern Sans Serif', 'Lucida Grande', 'Verdana', 'Geneva', 'Lucid', 'Arial', 'Helvetica', 'Avant Garde', sans-serif; text-anchor: middle" x="194.692" y="16.318125" transform="rotate(-0 194.692 16.318125)">Potential vs Capacity</text>
   </g>
   <g id="legend_1">
    <g id="patch_5">
     <path d="M 349.21308 155.82125 
L 414.88433 155.82125 
Q 416.48433 155.82125 416.48433 154.22125 
L 416.48433 23.918125 
Q 416.48433 22.318125 414.88433 22.318125 
L 349.21308 22.318125 
Q 347.61308 22.318125 347.61308 23.918125 
L 347.61308 154.22125 
Q 347.61308 155.82125 349.21308 155.82125 
z
" style="fill: #ffffff; opacity: 0.95; stroke: #cccccc; stroke-linejoin: miter"/>
    </g>
    <g id="text_19">
     <text style="font-size: 10px; font-family: 'DejaVu Sans', 'Bitstream Vera Sans', 'Computer Modern Sans Serif', 'Lucida Grande', 'Verdana', 'Geneva', 'Lucid', 'Arial', 'Helvetica', 'Avant Garde', sans-serif; text-anchor: start" x="365.778392" y="33.116563" transform="rotate(-0 365.778392 33.116563)">Cycles</text>
    </g>
    <g id="line2d_91">
     <path d="M 350.81308 42.475 
L 358.81308 42.475 
L 366.81308 42.475 
" style="fill: none; stroke: #1f77b4; stroke-opacity: 0.95; stroke-width: 1.4; stroke-linecap: square"/>
    </g>
    <g id="text_20">
     <text style="font-size: 8px; font-family: 'DejaVu Sans', 'Bitstream Vera Sans', 'Computer Modern Sans Serif', 'Lucida Grande', 'Verdana', 'Geneva', 'Lucid', 'Arial', 'Helvetica', 'Avant Garde', sans-serif; text-anchor: start" x="373.21308" y="45.275" transform="rotate(-0 373.21308 45.275)">Cycle 1</text>
    </g>
    <g id="line2d_92">
     <path d="M 350.81308 54.2175 
L 358.81308 54.2175 
L 366.81308 54.2175 
" style="fill: none; stroke: #9467bd; stroke-opacity: 0.95; stroke-width: 1.4; stroke-linecap: square"/>
    </g>
    <g id="text_21">
     <text style="font-size: 8px; font-family: 'DejaVu Sans', 'Bitstream Vera Sans', 'Computer Modern Sans Serif', 'Lucida Grande', 'Verdana', 'Geneva', 'Lucid', 'Arial', 'Helvetica', 'Avant Garde', sans-serif; text-anchor: start" x="373.21308" y="57.0175" transform="rotate(-0 373.21308 57.0175)">Cycle 5</text>
    </g>
    <g id="line2d_93">
     <path d="M 350.81308 65.96 
L 358.81308 65.96 
L 366.81308 65.96 
" style="fill: none; stroke: #bcbd22; stroke-opacity: 0.95; stroke-width: 1.4; stroke-linecap: square"/>
    </g>
    <g id="text_22">
     <text style="font-size: 8px; font-family: 'DejaVu Sans', 'Bitstream Vera Sans', 'Computer Modern Sans Serif', 'Lucida Grande', 'Verdana', 'Geneva', 'Lucid', 'Arial', 'Helvetica', 'Avant Garde', sans-serif; text-anchor: start" x="373.21308" y="68.76" transform="rotate(-0 373.21308 68.76)">Cycle 9</text>
    </g>
    <g id="line2d_94">
     <path d="M 350.81308 77.7025 
L 358.81308 77.7025 
L 366.81308 77.7025 
" style="fill: none; stroke: #2ca02c; stroke-opacity: 0.95; stroke-width: 1.4; stroke-linecap: square"/>
    </g>
    <g id="text_23">
     <text style="font-size: 8px; font-family: 'DejaVu Sans', 'Bitstream Vera Sans', 'Computer Modern Sans Serif', 'Lucida Grande', 'Verdana', 'Geneva', 'Lucid', 'Arial', 'Helvetica', 'Avant Garde', sans-serif; text-anchor: start" x="373.21308" y="80.5025" transform="rotate(-0 373.21308 80.5025)">Cycle 13</text>
    </g>
    <g id="line2d_95">
     <path d="M 350.81308 89.445 
L 358.81308 89.445 
L 366.81308 89.445 
" style="fill: none; stroke: #e377c2; stroke-opacity: 0.95; stroke-width: 1.4; stroke-linecap: square"/>
    </g>
    <g id="text_24">
     <text style="font-size: 8px; font-family: 'DejaVu Sans', 'Bitstream Vera Sans', 'Computer Modern Sans Serif', 'Lucida Grande', 'Verdana', 'Geneva', 'Lucid', 'Arial', 'Helvetica', 'Avant Garde', sans-serif; text-anchor: start" x="373.21308" y="92.245" transform="rotate(-0 373.21308 92.245)">Cycle 17</text>
    </g>
    <g id="line2d_96">
     <path d="M 350.81308 101.1875 
L 358.81308 101.1875 
L 366.81308 101.1875 
" style="fill: none; stroke: #1f77b4; stroke-opacity: 0.95; stroke-width: 1.4; stroke-linecap: square"/>
    </g>
    <g id="text_25">
     <text style="font-size: 8px; font-family: 'DejaVu Sans', 'Bitstream Vera Sans', 'Computer Modern Sans Serif', 'Lucida Grande', 'Verdana', 'Geneva', 'Lucid', 'Arial', 'Helvetica', 'Avant Garde', sans-serif; text-anchor: start" x="373.21308" y="103.9875" transform="rotate(-0 373.21308 103.9875)">Cycle 21</text>
    </g>
    <g id="line2d_97">
     <path d="M 350.81308 112.93 
L 358.81308 112.93 
L 366.81308 112.93 
" style="fill: none; stroke: #9467bd; stroke-opacity: 0.95; stroke-width: 1.4; stroke-linecap: square"/>
    </g>
    <g id="text_26">
     <text style="font-size: 8px; font-family: 'DejaVu Sans', 'Bitstream Vera Sans', 'Computer Modern Sans Serif', 'Lucida Grande', 'Verdana', 'Geneva', 'Lucid', 'Arial', 'Helvetica', 'Avant Garde', sans-serif; text-anchor: start" x="373.21308" y="115.73" transform="rotate(-0 373.21308 115.73)">Cycle 25</text>
    </g>
    <g id="line2d_98">
     <path d="M 350.81308 124.6725 
L 358.81308 124.6725 
L 366.81308 124.6725 
" style="fill: none; stroke: #17becf; stroke-opacity: 0.95; stroke-width: 1.4; stroke-linecap: square"/>
    </g>
    <g id="text_27">
     <text style="font-size: 8px; font-family: 'DejaVu Sans', 'Bitstream Vera Sans', 'Computer Modern Sans Serif', 'Lucida Grande', 'Verdana', 'Geneva', 'Lucid', 'Arial', 'Helvetica', 'Avant Garde', sans-serif; text-anchor: start" x="373.21308" y="127.4725" transform="rotate(-0 373.21308 127.4725)">Cycle 30</text>
    </g>
    <g id="line2d_99">
     <path d="M 350.81308 136.415 
L 358.81308 136.415 
L 366.81308 136.415 
" style="fill: none; stroke: #333333; stroke-width: 1.6; stroke-linecap: square"/>
    </g>
    <g id="text_28">
     <text style="font-size: 8px; font-family: 'DejaVu Sans', 'Bitstream Vera Sans', 'Computer Modern Sans Serif', 'Lucida Grande', 'Verdana', 'Geneva', 'Lucid', 'Arial', 'Helvetica', 'Avant Garde', sans-serif; text-anchor: start" x="373.21308" y="139.215" transform="rotate(-0 373.21308 139.215)">Discharge</text>
    </g>
    <g id="line2d_100">
     <path d="M 350.81308 148.1575 
L 358.81308 148.1575 
L 366.81308 148.1575 
" style="fill: none; stroke-dasharray: 4.44,1.92; stroke-dashoffset: 0; stroke: #333333; stroke-width: 1.2"/>
    </g>
    <g id="text_29">
     <text style="font-size: 8px; font-family: 'DejaVu Sans', 'Bitstream Vera Sans', 'Computer Modern Sans Serif', 'Lucida Grande', 'Verdana', 'Geneva', 'Lucid', 'Arial', 'Helvetica', 'Avant Garde', sans-serif; text-anchor: start" x="373.21308" y="150.9575" transform="rotate(-0 373.21308 150.9575)">Charge</text>
    </g>
   </g>
  </g>
 </g>
 <defs>
  <clipPath id="p0cd5c1bed7">
   <rect x="47.6525" y="22.318125" width="294.079" height="209.74875"/>
  </clipPath>
 </defs>
</svg>
