<?xml version="1.0" encoding="utf-8" standalone="no"?>
<!DOCTYPE svg PUBLIC "-//W3C//DTD SVG 1.1//EN"
  "http://www.w3.org/Graphics/SVG/1.1/DTD/svg11.dtd">
<svg xmlns:xlink="http://www.w3.org/1999/xlink" width="432pt" height="288pt" viewBox="0 0 432 288" xmlns="http://www.w3.org/2000/svg" version="1.1">
 <metadata>
  <rdf:RDF xmlns:dc="http://purl.org/dc/elements/1.1/" xmlns:cc="http://creativecommons.org/ns#" xmlns:rdf="http://www.w3.org/1999/02/22-rdf-syntax-ns#">
   <cc:Work>
    <dc:type rdf:resource="http://purl.org/dc/dcmitype/StillImage"/>
    <dc:date>2025-09-28T20:27:39.841441</dc:date>
    <dc:format>image/svg+xml</dc:format>
    <dc:creator>
     <cc:Agent>
      <dc:title>Matplotlib v3.9.0, https://matplotlib.org/</dc:title>
     </cc:Agent>
    </dc:creator>
   </cc:Work>
  </rdf:RDF>
 </metadata>
 <defs>
  <style type="text/css">*{stroke-linejoin: round; stroke-linecap: butt}</style>
 </defs>
 <g id="figure_1">
  <g id="patch_1">
   <path d="M 0 288 
L 432 288 
L 432 0 
L 0 0 
z
" style="fill: #ffffff"/>
  </g>
  <g id="axes_1">
   <g id="patch_2">
    <path d="M 38.975 244.6 
L 362.65 244.6 
L 362.65 25.8 
L 38.975 25.8 
z
" style="fill: #ffffff"/>
   </g>
   <g id="matplotlib.axis_1">
    <g id="xtick_1">
     <g id="line2d_1">
      <path d="M 53.687464 244.6 
L 53.687464 25.8 
" clip-path="url(#p24d4725390)" style="fill: none; stroke: #b0b0b0; stroke-opacity: 0.25; stroke-width: 0.8; stroke-linecap: square"/>
     </g>
     <g id="line2d_2">
      <defs>
       <path id="m1119599cdf" d="M 0 0 
L 0 3.5 
" style="stroke: #000000; stroke-width: 0.8"/>
      </defs>
      <g>
       <use xlink:href="#m1119599cdf" x="53.687464" y="244.6" style="stroke: #000000; stroke-width: 0.8"/>
      </g>
     </g>
     <g id="text_1">
      <text style="font: 10px 'DejaVu Sans', 'Bitstream Vera Sans', 'Computer Modern Sans Serif', 'Lucida Grande', 'Verdana', 'Geneva', 'Lucid', 'Arial', 'Helvetica', 'Avant Garde', sans-serif; text-anchor: middle" x="53.687464" y="259.198438" transform="rotate(-0 53.687464 259.198438)">0</text>
     </g>
    </g>
    <g id="xtick_2">
     <g id="line2d_3">
      <path d="M 124.953476 244.6 
L 124.953476 25.8 
" clip-path="url(#p24d4725390)" style="fill: none; stroke: #b0b0b0; stroke-opacity: 0.25; stroke-width: 0.8; stroke-linecap: square"/>
     </g>
     <g id="line2d_4">
      <g>
       <use xlink:href="#m1119599cdf" x="124.953476" y="244.6" style="stroke: #000000; stroke-width: 0.8"/>
      </g>
     </g>
     <g id="text_2">
      <text style="font: 10px 'DejaVu Sans', 'Bitstream Vera Sans', 'Computer Modern Sans Serif', 'Lucida Grande', 'Verdana', 'Geneva', 'Lucid', 'Arial', 'Helvetica', 'Avant Garde', sans-serif; text-anchor: middle" x="124.953476" y="259.198438" transform="rotate(-0 124.953476 259.198438)">10000</text>
     </g>
    </g>
    <g id="xtick_3">
     <g id="line2d_5">
      <path d="M 196.219488 244.6 
L 196.219488 25.8 
" clip-path="url(#p24d4725390)" style="fill: none; stroke: #b0b0b0; stroke-opacity: 0.25; stroke-width: 0.8; stroke-linecap: square"/>
     </g>
     <g id="line2d_6">
      <g>
       <use xlink:href="#m1119599cdf" x="196.219488" y="244.6" style="stroke: #000000; stroke-width: 0.8"/>
      </g>
     </g>
     <g id="text_3">
      <text style="font: 10px 'DejaVu Sans', 'Bitstream Vera Sans', 'Computer Modern Sans Serif', 'Lucida Grande', 'Verdana', 'Geneva', 'Lucid', 'Arial', 'Helvetica', 'Avant Garde', sans-serif; text-anchor: middle" x="196.219488" y="259.198438" transform="rotate(-0 196.219488 259.198438)">20000</text>
     </g>
    </g>
    <g id="xtick_4">
     <g id="line2d_7">
      <path d="M 267.485499 244.6 
L 267.485499 25.8 
" clip-path="url(#p24d4725390)" style="fill: none; stroke: #b0b0b0; stroke-opacity: 0.25; stroke-width: 0.8; stroke-linecap: square"/>
     </g>
     <g id="line2d_8">
      <g>
       <use xlink:href="#m1119599cdf" x="267.485499" y="244.6" style="stroke: #000000; stroke-width: 0.8"/>
      </g>
     </g>
     <g id="text_4">
      <text style="font: 10px 'DejaVu Sans', 'Bitstream Vera Sans', 'Computer Modern Sans Serif', 'Lucida Grande', 'Verdana', 'Geneva', 'Lucid', 'Arial', 'Helvetica', 'Avant Garde', sans-serif; text-anchor: middle" x="267.485499" y="259.198438" transform="rotate(-0 267.485499 259.198438)">30000</text>
     </g>
    </g>
    <g id="xtick_5">
     <g id="line2d_9">
      <path d="M 338.751511 244.6 
L 338.751511 25.8 
" clip-path="url(#p24d4725390)" style="fill: none; stroke: #b0b0b0; stroke-opacity: 0.25; stroke-width: 0.8; stroke-linecap: square"/>
     </g>
     <g id="line2d_10">
      <g>
       <use xlink:href="#m1119599cdf" x="338.751511" y="244.6" style="stroke: #000000; stroke-width: 0.8"/>
      </g>
     </g>
     <g id="text_5">
      <text style="font: 10px 'DejaVu Sans', 'Bitstream Vera Sans', 'Computer Modern Sans Serif', 'Lucida Grande', 'Verdana', 'Geneva', 'Lucid', 'Arial', 'Helvetica', 'Avant Garde', sans-serif; text-anchor: middle" x="338.751511" y="259.198438" transform="rotate(-0 338.751511 259.198438)">40000</text>
     </g>
    </g>
    <g id="text_6">
     <text style="font: 10px 'DejaVu Sans', 'Bitstream Vera Sans', 'Computer Modern Sans Serif', 'Lucida Grande', 'Verdana', 'Geneva', 'Lucid', 'Arial', 'Helvetica', 'Avant Garde', sans-serif; text-anchor: middle" x="200.8125" y="272.876562" transform="rotate(-0 200.8125 272.876562)">Time (s)</text>
    </g>
   </g>
   <g id="matplotlib.axis_2">
    <g id="ytick_1">
     <g id="line2d_11">
      <path d="M 38.975 227.618089 
L 362.65 227.618089 
" clip-path="url(#p24d4725390)" style="fill: none; stroke: #b0b0b0; stroke-opacity: 0.25; stroke-width: 0.8; stroke-linecap: square"/>
     </g>
     <g id="line2d_12">
      <defs>
       <path id="m575612b06c" d="M 0 0 
L -3.5 0 
" style="stroke: #000000; stroke-width: 0.8"/>
      </defs>
      <g>
       <use xlink:href="#m575612b06c" x="38.975" y="227.618089" style="stroke: #000000; stroke-width: 0.8"/>
      </g>
     </g>
     <g id="text_7">
      <text style="fill: #1f77b4; font: 10px 'DejaVu Sans', 'Bitstream Vera Sans', 'Computer Modern Sans Serif', 'Lucida Grande', 'Verdana', 'Geneva', 'Lucid', 'Arial', 'Helvetica', 'Avant Garde', sans-serif; text-anchor: end" x="31.975" y="231.417307" transform="rotate(-0 31.975 231.417307)">0</text>
     </g>
    </g>
    <g id="ytick_2">
     <g id="line2d_13">
      <path d="M 38.975 186.769592 
L 362.65 186.769592 
" clip-path="url(#p24d4725390)" style="fill: none; stroke: #b0b0b0; stroke-opacity: 0.25; stroke-width: 0.8; stroke-linecap: square"/>
     </g>
     <g id="line2d_14">
      <g>
       <use xlink:href="#m575612b06c" x="38.975" y="186.769592" style="stroke: #000000; stroke-width: 0.8"/>
      </g>
     </g>
     <g id="text_8">
      <text style="fill: #1f77b4; font: 10px 'DejaVu Sans', 'Bitstream Vera Sans', 'Computer Modern Sans Serif', 'Lucida Grande', 'Verdana', 'Geneva', 'Lucid', 'Arial', 'Helvetica', 'Avant Garde', sans-serif; text-anchor: end" x="31.975" y="190.568811" transform="rotate(-0 31.975 190.568811)">1</text>
     </g>
    </g>
    <g id="ytick_3">
     <g id="line2d_15">
      <path d="M 38.975 145.921096 
L 362.65 145.921096 
" clip-path="url(#p24d4725390)" style="fill: none; stroke: #b0b0b0; stroke-opacity: 0.25; stroke-width: 0.8; stroke-linecap: square"/>
     </g>
     <g id="line2d_16">
      <g>
       <use xlink:href="#m575612b06c" x="38.975" y="145.921096" style="stroke: #000000; stroke-width: 0.8"/>
      </g>
     </g>
     <g id="text_9">
      <text style="fill: #1f77b4; font: 10px 'DejaVu Sans', 'Bitstream Vera Sans', 'Computer Modern Sans Serif', 'Lucida Grande', 'Verdana', 'Geneva', 'Lucid', 'Arial', 'Helvetica', 'Avant Garde', sans-serif; text-anchor: end" x="31.975" y="149.720315" transform="rotate(-0 31.975 149.720315)">2</text>
     </g>
    </g>
    <g id="ytick_4">
     <g id="line2d_17">
      <path d="M 38.975 105.0726 
L 362.65 105.0726 
" clip-path="url(#p24d4725390)" style="fill: none; stroke: #b0b0b0; stroke-opacity: 0.25; stroke-width: 0.8; stroke-linecap: square"/>
     </g>
     <g id="line2d_18">
      <g>
       <use xlink:href="#m575612b06c" x="38.975" y="105.0726" style="stroke: #000000; stroke-width: 0.8"/>
      </g>
     </g>
     <g id="text_10">
      <text style="fill: #1f77b4; font: 10px 'DejaVu Sans', 'Bitstream Vera Sans', 'Computer Modern Sans Serif', 'Lucida Grande', 'Verdana', 'Geneva', 'Lucid', 'Arial', 'Helvetica', 'Avant Garde', sans-serif; text-anchor: end" x="31.975" y="108.871818" transform="rotate(-0 31.975 108.871818)">3</text>
     </g>
    </g>
    <g id="ytick_5">
     <g id="line2d_19">
      <path d="M 38.975 64.224103 
L 362.65 64.224103 
" clip-path="url(#p24d4725390)" style="fill: none; stroke: #b0b0b0; stroke-opacity: 0.25; stroke-width: 0.8; stroke-linecap: square"/>
     </g>
     <g id="line2d_20">
      <g>
       <use xlink:href="#m575612b06c" x="38.975" y="64.224103" style="stroke: #000000; stroke-width: 0.8"/>
      </g>
     </g>
     <g id="text_11">
      <text style="fill: #1f77b4; font: 10px 'DejaVu Sans', 'Bitstream Vera Sans', 'Computer Modern Sans Serif', 'Lucida Grande', 'Verdana', 'Geneva', 'Lucid', 'Arial', 'Helvetica', 'Avant Garde', sans-serif; text-anchor: end" x="31.975" y="68.023322" transform="rotate(-0 31.975 68.023322)">4</text>
     </g>
    </g>
    <g id="text_12">
     <text style="fill: #1f77b4; font: 10px 'DejaVu Sans', 'Bitstream Vera Sans', 'Computer Modern Sans Serif', 'Lucida Grande', 'Verdana', 'Geneva', 'Lucid', 'Arial', 'Helvetica', 'Avant Garde', sans-serif; text-anchor: middle" x="19.532813" y="135.2" transform="rotate(-90 19.532813 135.2)">Potential (V)</text>
    </g>
   </g>
   <g id="line2d_21">
    <path d="M 53.6875 213.330445 
L 53.901298 213.585012 
L 54.115096 212.346984 
L 55.184086 211.538951 
L 55.397884 213.421452 
L 55.611682 224.698928 
L 55.82548 215.788148 
L 56.039278 211.764315 
L 56.253076 225.996255 
L 56.466874 220.442909 
L 56.680672 225.372338 
L 56.894471 213.49369 
L 57.108269 214.696599 
L 57.322067 213.674533 
L 57.535865 228.431201 
L 57.963461 215.473124 
L 58.177259 222.82023 
L 58.391057 222.610134 
L 58.604855 220.229327 
L 58.818653 215.393661 
L 59.032451 216.912097 
L 59.246249 216.854031 
L 59.460047 214.564684 
L 59.887643 216.387759 
L 60.101441 211.827995 
L 60.315239 212.042471 
L 60.529037 213.852152 
L 60.742835 212.697188 
L 61.170431 220.540801 
L 61.384229 218.794408 
L 61.598027 214.166206 
L 61.811825 215.132524 
L 62.025623 217.575198 
L 62.239421 211.405866 
L 62.667017 211.285028 
L 63.308412 211.283807 
L 63.52221 221.899541 
L 63.736008 213.3744 
L 63.949806 213.636833 
L 64.163604 218.431313 
L 64.377402 211.74911 
L 64.5912 220.637345 
L 64.804998 224.316827 
L 65.018796 214.82382 
L 65.232594 213.554147 
L 65.446392 215.237892 
L 65.66019 226.385519 
L 65.873988 216.138353 
L 66.087786 212.981662 
L 66.301584 212.440633 
L 66.515382 211.33865 
L 66.72918 211.67229 
L 66.942978 211.215104 
L 67.370574 211.197381 
L 67.584372 212.075726 
L 67.79817 230.379759 
L 68.011968 234.654545 
L 68.225766 232.795496 
L 68.439564 227.208378 
L 68.653362 229.128577 
L 68.86716 215.749153 
L 69.294757 217.375021 
L 69.508555 214.182695 
L 69.722353 215.313102 
L 69.936151 211.445302 
L 70.363747 213.695163 
L 70.577545 217.320178 
L 70.791343 216.650569 
L 71.005141 215.576178 
L 71.218939 221.186557 
L 71.432737 214.737847 
L 71.646535 225.255175 
L 71.860333 227.194721 
L 72.074131 223.135127 
L 72.287929 223.56389 
L 72.501727 223.731062 
L 72.929323 234.654545 
L 73.143121 230.644634 
L 73.356919 214.731655 
L 73.570717 216.121147 
L 73.784515 219.822668 
L 73.998313 211.154647 
L 74.212111 211.471861 
L 74.425909 211.084397 
L 75.067303 211.08008 
L 76.991486 211.052689 
L 77.419082 211.188607 
L 77.63288 211.074994 
L 78.274274 211.065001 
L 88.108984 211.012221 
L 88.322782 211.105859 
L 88.53658 211.482233 
L 88.750378 211.054502 
L 89.177974 210.911422 
L 90.460762 210.970268 
L 90.67456 212.29885 
L 91.102156 219.045689 
L 91.315954 219.440302 
L 91.529752 217.844454 
L 91.74355 212.094935 
L 91.957348 213.641088 
L 92.171146 216.180558 
L 92.384944 212.66207 
L 92.598742 211.111473 
L 92.81254 216.387948 
L 93.026338 217.652723 
L 93.240136 214.50745 
L 93.881531 223.939999 
L 94.095329 217.768477 
L 94.522925 217.818612 
L 94.736723 212.150105 
L 94.950521 211.508528 
L 95.164319 212.205199 
L 95.378117 214.198555 
L 95.591915 211.275813 
L 95.805713 210.938749 
L 96.447107 210.896607 
L 97.943693 210.866058 
L 98.371289 210.993013 
L 98.585087 211.190609 
L 98.798885 217.000196 
L 99.012683 219.261914 
L 99.226481 225.767593 
L 99.440279 212.638292 
L 99.654077 212.102927 
L 99.867875 225.454194 
L 100.081674 231.177293 
L 100.295472 231.491221 
L 100.723068 227.61111 
L 100.936866 218.963721 
L 101.150664 224.649498 
L 101.364462 218.190354 
L 101.57826 223.90546 
L 101.792058 221.776512 
L 102.005856 229.155527 
L 102.219654 227.58333 
L 102.433452 232.299643 
L 102.64725 219.508299 
L 102.861048 223.869045 
L 103.074846 212.572296 
L 103.288644 213.339092 
L 103.502442 212.021526 
L 103.71624 220.565359 
L 103.930038 210.826811 
L 109.916383 210.812045 
L 110.130181 213.120035 
L 110.343979 232.190725 
L 110.557777 234.654545 
L 110.771575 234.352021 
L 110.985373 227.686898 
L 111.199171 234.654545 
L 111.412969 232.621879 
L 111.626767 234.654545 
L 112.268162 234.654545 
L 112.48196 222.177634 
L 112.695758 234.654545 
L 112.909556 229.246848 
L 113.123354 233.859517 
L 113.337152 229.90942 
L 113.55095 232.501682 
L 113.978546 226.297218 
L 114.192344 217.652018 
L 114.406142 219.991137 
L 114.61994 234.654545 
L 114.833738 228.686598 
L 115.047536 228.39189 
L 115.261334 229.673609 
L 115.475132 222.47287 
L 115.68893 221.304626 
L 115.902728 213.262008 
L 116.116526 213.960932 
L 116.330324 215.144193 
L 116.75792 223.350824 
L 116.971718 213.464249 
L 117.185516 211.984531 
L 117.399314 225.07427 
L 117.613112 211.970999 
L 117.82691 211.263503 
L 118.040708 211.301529 
L 118.254506 210.983737 
L 118.468305 210.898407 
L 118.682103 210.957315 
L 119.109699 210.849165 
L 119.323497 210.858833 
L 119.537295 216.282201 
L 119.751093 212.571391 
L 119.964891 216.267625 
L 120.178689 217.156102 
L 120.392487 211.6487 
L 120.606285 211.038189 
L 120.820083 212.802947 
L 121.033881 232.201613 
L 121.247679 234.654545 
L 121.461477 225.663194 
L 121.675275 228.133837 
L 121.889073 234.654545 
L 122.530467 234.654545 
L 122.744265 232.389995 
L 122.958063 234.654545 
L 123.385659 234.654545 
L 123.599457 232.94701 
L 123.813255 234.654545 
L 124.882246 234.654545 
L 125.096044 215.339208 
L 125.309842 211.184429 
L 125.737438 211.906553 
L 125.951236 222.236919 
L 126.165034 215.943401 
L 126.378832 218.389033 
L 126.59263 213.181902 
L 126.806428 210.84588 
L 127.66162 210.853482 
L 127.875418 211.104889 
L 128.089216 211.069959 
L 128.303014 211.44904 
L 128.516812 213.620079 
L 128.73061 211.244483 
L 128.944408 212.129474 
L 129.158206 213.571026 
L 129.372004 211.50737 
L 129.585802 210.978575 
L 129.7996 211.052753 
L 130.013398 211.747373 
L 130.440994 233.534839 
L 130.654792 227.060729 
L 130.868591 234.654545 
L 133.220369 234.654545 
L 133.861763 218.931748 
L 134.075561 222.606522 
L 134.289359 223.903723 
L 134.503157 217.259797 
L 134.716955 215.905827 
L 134.930753 220.977758 
L 135.144551 219.802239 
L 135.358349 215.441934 
L 135.572147 215.580948 
L 135.785945 216.677381 
L 135.999743 213.261554 
L 136.213541 231.227302 
L 136.427339 228.005723 
L 136.641137 233.980493 
L 136.854936 233.649031 
L 137.068734 214.746936 
L 137.282532 234.052342 
L 137.49633 234.654545 
L 137.923926 234.654545 
L 138.137724 228.832774 
L 138.351522 230.5749 
L 138.56532 234.654545 
L 139.206714 234.654545 
L 139.420512 231.773756 
L 139.63431 234.654545 
L 141.344694 234.654545 
L 141.558492 232.846286 
L 141.77229 234.654545 
L 142.413684 234.654545 
L 142.627482 217.617416 
L 142.84128 234.654545 
L 144.765463 234.654545 
L 144.979261 226.398282 
L 145.193059 225.586889 
L 145.406857 234.654545 
L 145.620655 211.123392 
L 145.834453 210.932179 
L 146.048251 228.04813 
L 146.262049 213.154121 
L 146.475847 212.924691 
L 146.689645 234.654545 
L 146.903443 228.407285 
L 147.117241 212.847166 
L 147.331039 231.483933 
L 147.544837 234.654545 
L 147.758635 226.206866 
L 147.972433 230.365258 
L 148.186231 227.093015 
L 148.400029 226.553081 
L 148.613827 222.473575 
L 148.827625 211.729259 
L 149.041423 215.622839 
L 149.255222 211.955529 
L 149.46902 234.654545 
L 149.896616 234.654545 
L 150.110414 233.869574 
L 150.324212 232.390448 
L 150.53801 234.654545 
L 150.751808 234.654545 
L 150.965606 227.911369 
L 151.179404 234.654545 
L 151.393202 234.654545 
L 151.607 216.526258 
L 151.820798 233.777032 
L 152.034596 234.654545 
L 153.317384 234.654545 
L 153.531182 225.510774 
L 153.74498 221.740488 
L 153.958778 227.071944 
L 154.172576 223.73757 
L 154.386374 225.577411 
L 154.600172 230.830499 
L 155.241566 218.061585 
L 155.669163 234.538981 
L 156.096759 234.654545 
L 156.310557 227.209926 
L 156.524355 234.654545 
L 158.662335 234.654545 
L 158.876133 232.670529 
L 159.303729 226.892461 
L 159.517527 228.866534 
L 159.731325 234.654545 
L 162.938296 234.654545 
L 163.152094 219.868939 
L 163.365892 219.816739 
L 163.57969 223.402193 
L 164.007286 223.001399 
L 164.221084 224.869713 
L 164.434882 224.955043 
L 164.862478 234.654545 
L 165.076276 223.155103 
L 165.290074 234.654545 
L 165.931468 234.654545 
L 166.145266 231.660772 
L 166.359064 224.332876 
L 166.572862 228.31906 
L 166.78666 234.654545 
L 167.000458 221.572409 
L 167.214256 223.854154 
L 167.428054 211.334784 
L 167.641853 211.150141 
L 171.704015 211.200792 
L 171.917813 211.957468 
L 172.131611 212.24052 
L 172.345409 215.772225 
L 172.559207 223.18204 
L 172.773005 223.155103 
L 172.986803 216.283297 
L 173.200601 217.328813 
L 173.414399 227.481763 
L 173.628197 225.969255 
L 173.841996 218.398196 
L 174.269592 227.224427 
L 174.48339 224.530409 
L 174.910986 212.010246 
L 175.124784 211.320145 
L 175.55238 211.295525 
L 175.766178 211.493964 
L 175.979976 212.105696 
L 176.193774 212.357884 
L 176.407572 216.056762 
L 176.835168 212.440053 
L 177.048966 213.225076 
L 177.476562 212.257663 
L 177.904158 211.764252 
L 178.117956 211.938197 
L 178.545552 211.954182 
L 178.973148 212.278419 
L 179.186946 213.137103 
L 179.400744 213.067898 
L 179.614542 215.222423 
L 179.82834 214.495529 
L 180.042139 215.062211 
L 180.255937 222.158098 
L 180.469735 212.852831 
L 180.683533 212.602909 
L 180.897331 217.556053 
L 181.111129 219.345759 
L 181.324927 216.64877 
L 181.538725 216.633363 
L 181.752523 225.13698 
L 182.393917 212.734573 
L 182.607715 212.799473 
L 183.035311 213.68858 
L 183.249109 213.727575 
L 183.462907 214.038722 
L 183.676705 216.085637 
L 183.890503 216.190805 
L 184.104301 226.261646 
L 184.318099 225.742016 
L 184.531897 231.797723 
L 184.745695 234.654545 
L 185.173291 234.654545 
L 185.387089 229.395328 
L 185.600887 231.442558 
L 185.814685 228.75472 
L 186.028483 224.224474 
L 186.242282 228.748918 
L 186.45608 223.101809 
L 186.669878 221.476644 
L 186.883676 233.99989 
L 187.097474 234.083156 
L 187.311272 234.654545 
L 187.952666 225.684454 
L 188.166464 232.758892 
L 188.380262 234.129427 
L 188.59406 234.654545 
L 189.235454 234.654545 
L 189.449252 231.219825 
L 189.66305 232.631798 
L 189.876848 227.655065 
L 190.090646 230.677311 
L 190.304444 228.576144 
L 190.518242 232.494784 
L 190.73204 223.337418 
L 190.945838 229.122132 
L 191.159636 225.221278 
L 191.373434 229.092552 
L 191.587232 217.554643 
L 191.80103 222.307358 
L 192.014828 214.125537 
L 192.228626 212.622759 
L 192.656223 212.083844 
L 192.870021 212.065933 
L 193.083819 214.036859 
L 193.297617 218.783973 
L 193.511415 216.803254 
L 193.725213 212.861668 
L 193.939011 212.082951 
L 194.580405 212.023337 
L 194.794203 212.126516 
L 195.008001 217.714024 
L 195.221799 219.403824 
L 195.435597 219.508551 
L 195.649395 221.266927 
L 195.863193 218.444404 
L 196.076991 220.476681 
L 196.290789 219.984176 
L 196.504587 220.369764 
L 196.718385 217.616636 
L 196.932183 216.624149 
L 197.145981 217.152302 
L 197.359779 215.86658 
L 197.573577 217.003683 
L 197.787375 220.797243 
L 198.001173 214.743071 
L 198.214971 213.515214 
L 198.42877 215.806764 
L 198.642568 219.715751 
L 198.856366 219.826142 
L 199.070164 223.815423 
L 199.283962 213.086452 
L 199.49776 224.591948 
L 199.711558 222.353504 
L 199.925356 228.475281 
L 200.139154 230.960627 
L 200.352952 228.254034 
L 200.56675 227.565997 
L 200.780548 225.330196 
L 201.208144 214.306505 
L 201.421942 214.735469 
L 201.849538 211.906301 
L 202.063336 211.662358 
L 202.277134 211.615709 
L 202.490932 211.778954 
L 202.70473 211.550608 
L 205.056509 211.730871 
L 205.270307 213.398442 
L 205.697903 218.169081 
L 206.125499 214.113163 
L 206.339297 214.620483 
L 206.553095 214.72083 
L 206.766893 219.79373 
L 207.194489 211.910039 
L 207.622064 212.713565 
L 207.622584 213.573544 
L 207.836382 114.917348 
L 208.05018 102.31838 
L 208.691574 88.373418 
L 209.11917 81.610326 
L 209.332968 80.588652 
L 209.546766 77.19969 
L 209.974362 74.822565 
L 210.18816 76.463643 
L 210.401958 76.742247 
L 210.615756 72.744137 
L 210.829554 70.944587 
L 211.043352 67.638825 
L 212.112343 63.340656 
L 212.539939 61.998479 
L 212.967535 60.881412 
L 213.822727 59.27706 
L 214.036525 59.665103 
L 214.250323 59.562434 
L 214.464121 60.66764 
L 214.677919 62.454052 
L 214.891717 61.080419 
L 215.142217 56.035752 
L 215.142267 56.346525 
L 215.40697 129.602087 
L 215.407084 127.766892 
L 215.620882 62.231652 
L 216.33722 56.043173 
L 216.33727 60.808193 
L 216.636309 129.586943 
L 216.636423 120.472302 
L 216.850221 61.475746 
L 217.277817 57.466943 
L 217.599426 56.054315 
L 217.599476 58.013128 
L 217.895686 129.582112 
L 217.8958 124.78917 
L 218.109598 61.751965 
L 218.323396 59.477178 
L 218.537194 59.422328 
L 218.750992 59.70326 
L 219.178589 57.495946 
L 219.370501 56.02874 
L 219.370551 53.219085 
L 219.659342 129.60312 
L 219.659456 128.262813 
L 219.873254 62.725051 
L 220.728446 57.735624 
L 220.942244 58.490107 
L 221.156042 57.602082 
L 221.224999 56.022293 
L 221.225049 52.829387 
L 221.438847 122.700633 
L 221.652645 124.486978 
L 221.916565 129.583388 
L 221.916679 121.463502 
L 222.130477 62.353838 
L 222.558073 64.801414 
L 222.771871 68.132039 
L 222.985669 68.187854 
L 223.199467 66.653624 
L 223.627063 67.604739 
L 223.840861 67.268508 
L 224.054659 67.512705 
L 224.268457 68.375389 
L 224.408224 52.459518 
L 224.622022 122.858785 
L 224.857506 129.576055 
L 224.85762 129.264318 
L 225.071418 66.20069 
L 225.285216 71.133407 
L 225.499014 71.312956 
L 225.92661 72.398577 
L 226.140408 71.404094 
L 226.354206 72.916986 
L 226.781803 69.479251 
L 226.995601 70.303972 
L 227.423197 66.171103 
L 227.636995 76.416467 
L 228.064591 62.850139 
L 228.278389 73.32771 
L 228.705985 63.150413 
L 228.919783 68.090405 
L 229.133581 66.390232 
L 229.347379 63.204153 
L 229.561177 64.335713 
L 229.774975 64.824165 
L 230.416369 67.348047 
L 230.630167 66.934547 
L 230.843965 68.501841 
L 231.057763 68.714191 
L 231.271561 68.363536 
L 231.485359 70.524639 
L 231.699157 68.055354 
L 231.912955 69.68863 
L 232.126753 69.417116 
L 232.340551 67.233321 
L 232.43138 44.285171 
L 232.645178 113.350443 
L 233.613099 129.581596 
L 233.613213 131.129354 
L 233.827011 64.700167 
L 234.040809 62.789367 
L 234.254607 66.142431 
L 234.468405 66.145519 
L 234.682203 66.609029 
L 234.896001 68.326411 
L 235.109799 66.157897 
L 235.323597 65.63381 
L 235.537395 63.933432 
L 235.751193 64.690438 
L 235.964991 63.748351 
L 236.178789 60.690448 
L 236.392587 74.401849 
L 236.606385 75.374428 
L 236.820183 78.044084 
L 237.033981 79.047205 
L 237.247779 78.890144 
L 237.461577 79.550081 
L 237.675375 82.885352 
L 237.889173 75.956385 
L 238.530568 70.679188 
L 238.744366 78.665932 
L 238.958164 78.216348 
L 239.171962 77.28889 
L 239.38576 79.74903 
L 239.599558 77.364806 
L 239.813356 76.956925 
L 240.027154 74.077938 
L 240.240952 74.88398 
L 240.45475 76.744117 
L 240.668548 75.823943 
L 240.882346 72.466565 
L 241.096144 74.655259 
L 241.309942 75.369198 
L 241.52374 74.239119 
L 241.737538 76.407896 
L 241.951336 75.541988 
L 242.378932 75.076803 
L 242.59273 75.041811 
L 242.806528 75.826583 
L 243.020326 73.206479 
L 243.234124 75.358242 
L 243.447922 74.867092 
L 243.66172 73.601348 
L 243.875518 75.578529 
L 244.303114 70.516137 
L 244.516913 66.037318 
L 244.730711 68.956517 
L 244.944509 61.472591 
L 245.158307 66.836328 
L 245.372105 66.632938 
L 245.799701 71.263404 
L 246.013499 71.224798 
L 246.227297 71.342154 
L 246.654893 75.271564 
L 246.868691 72.904744 
L 247.082489 72.240746 
L 247.296287 69.858518 
L 247.510085 73.112195 
L 247.723883 73.841094 
L 247.937681 73.238647 
L 248.151479 72.978537 
L 248.365277 72.281728 
L 248.579075 73.313725 
L 248.792873 73.051745 
L 249.006671 73.97598 
L 249.220469 71.185998 
L 249.434267 73.411106 
L 249.648065 72.333228 
L 249.861863 72.904481 
L 250.075661 71.458029 
L 250.289459 71.6711 
L 250.503258 69.037459 
L 250.717056 71.130895 
L 250.930854 70.119593 
L 251.144652 72.085233 
L 251.35845 71.809657 
L 251.572248 69.326377 
L 251.786046 73.468138 
L 251.999844 68.174453 
L 252.213642 75.400266 
L 252.641238 69.396303 
L 252.855036 68.403106 
L 253.282632 71.262946 
L 253.49643 71.321595 
L 253.710228 72.017498 
L 253.924026 70.499376 
L 254.137824 70.3701 
L 254.351622 70.831283 
L 254.779218 69.401075 
L 254.993016 70.000494 
L 255.420612 73.056128 
L 256.062006 69.817137 
L 256.275804 70.16148 
L 256.703401 70.304108 
L 256.917199 68.542501 
L 257.130997 70.23837 
L 257.558593 72.120741 
L 257.772391 71.610513 
L 257.986189 72.674864 
L 258.199987 72.643348 
L 258.413785 73.044587 
L 258.627583 70.687505 
L 258.841381 72.332001 
L 259.055179 72.972284 
L 259.268977 72.089674 
L 259.910371 75.062633 
L 260.124169 75.516657 
L 260.551765 77.674926 
L 260.765563 77.390069 
L 260.979361 77.347928 
L 261.193159 79.99348 
L 261.406957 79.164561 
L 261.620755 79.917311 
L 261.834553 79.921294 
L 262.048351 81.744316 
L 262.262149 79.007889 
L 262.689745 82.210397 
L 262.903544 81.047838 
L 263.117342 81.237886 
L 263.544938 76.008586 
L 263.758736 78.860372 
L 263.972534 78.567519 
L 264.186332 80.352519 
L 264.40013 80.313008 
L 264.613928 77.796479 
L 264.827726 79.255494 
L 265.041524 79.344305 
L 265.46912 82.335748 
L 265.682918 80.993319 
L 266.110514 80.446871 
L 266.324312 78.92797 
L 266.53811 78.947312 
L 266.751908 78.472592 
L 266.965706 77.396974 
L 267.179504 78.106346 
L 267.393302 77.633876 
L 267.6071 77.999937 
L 267.820898 80.02332 
L 268.034696 78.056005 
L 268.462292 79.665829 
L 268.889888 78.670636 
L 269.103687 74.628505 
L 269.317485 74.135301 
L 269.531283 75.311777 
L 269.745081 75.154209 
L 269.958879 74.483569 
L 270.386475 70.659983 
L 270.600273 71.066451 
L 270.814071 68.866159 
L 271.027869 70.017313 
L 271.241667 70.08125 
L 271.455465 69.547755 
L 271.669263 71.952149 
L 271.883061 73.084225 
L 272.096859 71.950026 
L 272.310657 69.464554 
L 272.524455 71.036036 
L 272.738253 70.807247 
L 272.952051 70.368289 
L 273.165849 71.59756 
L 273.379647 68.593027 
L 273.593445 69.164933 
L 273.807243 72.46599 
L 274.021041 71.594463 
L 274.234839 72.626655 
L 274.448637 75.44415 
L 274.662435 74.816118 
L 274.876233 75.052641 
L 275.090031 74.847634 
L 275.30383 77.323308 
L 275.517628 78.30136 
L 275.731426 75.993052 
L 275.945224 77.54751 
L 276.159022 76.266047 
L 276.37282 75.803579 
L 276.586618 72.700253 
L 276.800416 71.991465 
L 277.014214 72.9157 
L 277.228012 72.002548 
L 277.44181 71.691396 
L 277.655608 68.201713 
L 277.869406 67.945401 
L 278.083204 72.108236 
L 278.297002 73.198756 
L 278.5108 73.271643 
L 278.724598 75.211241 
L 278.938396 75.372169 
L 279.152194 72.853702 
L 279.365992 76.651957 
L 279.57979 75.659022 
L 279.793588 77.09632 
L 280.007386 79.540936 
L 280.221184 75.224067 
L 280.434982 78.245351 
L 280.64878 76.37232 
L 280.862578 72.311636 
L 281.290174 78.39171 
L 281.503973 76.939852 
L 281.717771 78.516603 
L 281.931569 77.07989 
L 282.145367 76.993524 
L 282.359165 76.633267 
L 282.786761 67.706434 
L 283.000559 70.175407 
L 283.214357 79.843323 
L 283.428155 82.723654 
L 283.641953 81.740712 
L 283.855751 84.709084 
L 284.069549 82.02853 
L 284.283347 87.075583 
L 284.497145 83.050662 
L 284.710943 86.966983 
L 284.924741 87.057342 
L 285.138539 88.185815 
L 285.352337 86.537706 
L 285.566135 87.862615 
L 285.779933 86.547893 
L 286.207529 88.71557 
L 286.421327 84.654107 
L 286.635125 87.76613 
L 286.848923 78.118383 
L 287.062721 84.5954 
L 287.276519 76.428329 
L 287.490318 77.869746 
L 287.704116 75.966951 
L 287.917914 78.862495 
L 288.34551 75.672618 
L 288.559308 78.729216 
L 288.773106 79.262779 
L 288.986904 72.849514 
L 289.200702 72.996067 
L 289.4145 81.956091 
L 289.628298 76.179944 
L 289.842096 83.664329 
L 290.055894 80.678621 
L 290.269692 88.369619 
L 290.48349 89.217744 
L 290.911086 92.081129 
L 291.124884 90.390295 
L 291.338682 89.901717 
L 291.55248 91.81052 
L 291.766278 95.314442 
L 292.193874 85.923007 
L 292.407672 88.424976 
L 292.62147 83.202114 
L 292.835268 90.590598 
L 293.262864 82.15356 
L 293.476662 77.349019 
L 293.690461 84.724355 
L 293.904259 77.415147 
L 294.118057 81.843761 
L 294.331855 75.819629 
L 294.545653 84.2644 
L 294.759451 82.273039 
L 294.973249 82.806533 
L 295.187047 94.045036 
L 295.400845 97.181026 
L 295.614643 95.846135 
L 295.828441 88.798322 
L 296.256037 95.727942 
L 296.469835 95.584096 
L 296.683633 96.017951 
L 296.897431 98.846412 
L 297.325027 88.353248 
L 297.538825 100.966591 
L 297.752623 103.963002 
L 297.966421 103.902931 
L 298.180219 107.635711 
L 298.394017 106.583933 
L 298.607815 106.708642 
L 299.035411 103.481455 
L 299.249209 103.540094 
L 299.463007 103.109589 
L 299.676805 107.874044 
L 299.890604 104.820855 
L 300.104402 105.403786 
L 300.3182 103.135884 
L 300.531998 104.91546 
L 300.745796 100.927469 
L 300.959594 103.665445 
L 301.173392 100.256391 
L 301.600988 90.307221 
L 301.814786 100.600861 
L 302.028584 101.055596 
L 302.242382 99.953098 
L 302.45618 100.096038 
L 302.669978 95.735158 
L 302.883776 97.656905 
L 303.097574 101.508793 
L 303.311372 96.722746 
L 303.52517 97.304313 
L 303.738968 95.85264 
L 303.952766 95.948862 
L 304.166564 95.919158 
L 304.380362 98.020259 
L 304.59416 96.888572 
L 305.235554 88.676448 
L 305.449352 88.547172 
L 305.66315 87.252873 
L 306.090747 78.959817 
L 306.304545 84.727579 
L 306.518343 86.330186 
L 306.732141 84.091035 
L 306.945939 90.755061 
L 307.159737 86.765268 
L 307.373535 85.930613 
L 307.587333 93.622907 
L 307.801131 96.507688 
L 308.014929 95.72762 
L 308.228727 94.038452 
L 308.442525 95.994304 
L 308.656323 92.03293 
L 308.870121 98.798914 
L 309.083919 95.247291 
L 309.297717 93.986124 
L 309.725313 90.112401 
L 309.939111 92.353939 
L 310.152909 86.903826 
L 310.366707 87.834576 
L 310.580505 86.921619 
L 310.794303 84.990844 
L 311.008101 84.935293 
L 311.435697 84.41553 
L 311.649495 81.991863 
L 311.863293 89.708056 
L 312.29089 91.407723 
L 312.504688 91.70528 
L 312.718486 89.431 
L 313.146082 71.995838 
L 313.35988 78.200045 
L 313.573678 80.723216 
L 313.787476 68.137396 
L 314.001274 72.289977 
L 314.215072 69.720604 
L 314.642668 69.225383 
L 314.856466 68.272993 
L 315.070264 68.119992 
L 315.284062 66.824856 
L 315.49786 67.051386 
L 315.711658 66.5556 
L 316.139254 66.407051 
L 316.56685 66.881897 
L 316.780648 66.356388 
L 316.994446 66.514287 
L 317.208244 66.231758 
L 318.063436 82.237014 
L 318.277235 83.464737 
L 318.491033 86.543501 
L 318.704831 85.859012 
L 318.918629 83.325332 
L 319.132427 74.251234 
L 319.346225 80.680423 
L 319.773821 76.753204 
L 319.987619 80.004504 
L 320.201417 77.009574 
L 320.629013 68.937633 
L 320.842811 70.578779 
L 321.056609 76.331717 
L 321.270407 79.066216 
L 321.484205 73.929778 
L 321.698003 76.714345 
L 322.125599 76.931467 
L 322.339397 75.617135 
L 322.553195 68.518339 
L 322.766993 69.311613 
L 322.980791 67.668471 
L 323.194589 62.627407 
L 323.408387 70.902884 
L 323.835983 73.436369 
L 324.049781 73.467436 
L 324.263579 71.883966 
L 324.477378 68.954326 
L 324.691176 70.235409 
L 324.904974 72.345207 
L 325.33257 66.032935 
L 325.546368 70.322671 
L 325.973964 66.700673 
L 326.40156 67.682651 
L 326.615358 67.680781 
L 326.829156 68.52349 
L 327.042954 67.038238 
L 327.256752 70.439705 
L 327.684348 68.897158 
L 327.898146 66.932871 
L 328.111944 66.741655 
L 328.325742 70.059717 
L 328.53954 70.205433 
L 328.967136 65.403803 
L 329.180934 66.807072 
L 329.394732 63.532261 
L 329.822328 63.960059 
L 330.036126 67.81554 
L 330.249924 68.576919 
L 330.463722 66.909478 
L 330.677521 66.835043 
L 330.891319 67.495369 
L 331.105117 67.693539 
L 331.318915 67.434977 
L 331.532713 67.952237 
L 331.746511 69.289709 
L 332.601703 79.649263 
L 332.815501 79.84455 
L 333.029299 76.202441 
L 333.243097 74.739423 
L 333.456895 72.016728 
L 333.670693 72.874903 
L 333.884491 71.568947 
L 334.098289 64.406925 
L 334.312087 71.789293 
L 334.525885 73.134946 
L 334.739683 71.106342 
L 334.953481 71.972708 
L 335.167279 69.915229 
L 335.381077 69.197939 
L 335.594875 71.010316 
L 335.808673 69.661371 
L 336.022471 70.338263 
L 336.236269 77.319957 
L 336.450067 79.0347 
L 336.663865 78.519895 
L 336.877664 70.806468 
L 337.091462 76.282418 
L 337.30526 73.141909 
L 337.519058 73.849606 
L 337.732856 71.292602 
L 337.946654 71.697775 
L 338.160452 73.504747 
L 338.37425 72.102822 
L 338.588048 74.217917 
L 339.015644 81.324768 
L 339.44324 78.709757 
L 339.657038 79.07801 
L 339.870836 75.990987 
L 340.084634 76.967492 
L 340.298432 78.468979 
L 340.939826 64.932755 
L 341.153624 69.3733 
L 341.296848 56.033824 
L 341.296897 60.490662 
L 341.510695 111.067914 
L 341.938292 113.777987 
L 342.365888 121.532143 
L 342.579686 122.464305 
L 342.793484 124.110797 
L 342.931619 129.603178 
L 342.931733 126.373605 
L 343.145531 60.623561 
L 343.359329 65.489643 
L 343.573127 65.558927 
L 343.786925 65.82528 
L 344.000723 62.553761 
L 344.215034 55.227139 
L 344.428832 110.913891 
L 344.64263 121.732835 
L 344.856428 121.648077 
L 345.497822 124.217654 
L 345.740932 129.57585 
L 345.741046 124.557225 
L 345.954844 60.983808 
L 346.168642 60.087173 
L 346.38244 60.82064 
L 346.556407 55.969565 
L 346.770205 114.909673 
L 347.197802 119.124652 
L 347.4116 123.035948 
L 347.625398 124.496707 
L 347.930523 129.57399 
L 347.930687 128.299802 
L 347.9374 35.745455 
L 347.935234 144.380857 
L 347.9375 144.276192 
" clip-path="url(#p24d4725390)" style="fill: none; stroke: #1f77b4; stroke-width: 1.2; stroke-linecap: square"/>
   </g>
   <g id="patch_3">
    <path d="M 38.975 244.6 
L 38.975 25.8 
" style="fill: none; stroke: #000000; stroke-width: 0.8; stroke-linejoin: miter; stroke-linecap: square"/>
   </g>
   <g id="patch_4">
    <path d="M 38.975 244.6 
L 362.65 244.6 
" style="fill: none; stroke: #000000; stroke-width: 0.8; stroke-linejoin: miter; stroke-linecap: square"/>
   </g>
   <g id="text_13">
    <text style="font: 12px 'DejaVu Sans', 'Bitstream Vera Sans', 'Computer Modern Sans Serif', 'Lucida Grande', 'Verdana', 'Geneva', 'Lucid', 'Arial', 'Helvetica', 'Avant Garde', sans-serif; text-anchor: middle" x="200.8125" y="19.8" transform="rotate(-0 200.8125 19.8)">Voltage and Current vs Time - DS</text>
   </g>
   <g id="legend_1">
    <g id="patch_5">
     <path d="M 44.575 55.685 
L 114.475 55.685 
Q 116.075 55.685 116.075 54.085 
L 116.075 31.4 
Q 116.075 29.8 114.475 29.8 
L 44.575 29.8 
Q 42.975 29.8 42.975 31.4 
L 42.975 54.085 
Q 42.975 55.685 44.575 55.685 
z
" style="fill: #ffffff; opacity: 0.8; stroke: #cccccc; stroke-linejoin: miter"/>
    </g>
    <g id="line2d_22">
     <path d="M 46.175 36.27875 
L 54.175 36.27875 
L 62.175 36.27875 
" style="fill: none; stroke: #1f77b4; stroke-width: 1.2; stroke-linecap: square"/>
    </g>
    <g id="text_14">
     <text style="font: 8px 'DejaVu Sans', 'Bitstream Vera Sans', 'Computer Modern Sans Serif', 'Lucida Grande', 'Verdana', 'Geneva', 'Lucid', 'Arial', 'Helvetica', 'Avant Garde', sans-serif; text-anchor: start" x="68.575" y="39.07875" transform="rotate(-0 68.575 39.07875)">Voltage (V)</text>
    </g>
    <g id="line2d_23">
     <path d="M 46.175 48.02125 
L 54.175 48.02125 
L 62.175 48.02125 
" style="fill: none; stroke: #ff7f0e; stroke-opacity: 0.8; stroke-linecap: square"/>
    </g>
    <g id="text_15">
     <text style="font: 8px 'DejaVu Sans', 'Bitstream Vera Sans', 'Computer Modern Sans Serif', 'Lucida Grande', 'Verdana', 'Geneva', 'Lucid', 'Arial', 'Helvetica', 'Avant Garde', sans-serif; text-anchor: start" x="68.575" y="50.82125" transform="rotate(-0 68.575 50.82125)">Current (A)</text>
    </g>
   </g>
  </g>
  <g id="axes_2">
   <g id="matplotlib.axis_3">
    <g id="ytick_6">
     <g id="line2d_24">
      <path d="M 38.975 220.328321 
L 362.65 220.328321 
" clip-path="url(#p24d4725390)" style="fill: none; stroke: #b0b0b0; stroke-opacity: 0.25; stroke-width: 0.8; stroke-linecap: square"/>
     </g>
     <g id="line2d_25">
      <defs>
       <path id="m11e312dc5e" d="M 0 0 
L 3.5 0 
" style="stroke: #000000; stroke-width: 0.8"/>
      </defs>
      <g>
       <use xlink:href="#m11e312dc5e" x="362.65" y="220.328321" style="stroke: #000000; stroke-width: 0.8"/>
      </g>
     </g>
     <g id="text_16">
      <text style="fill: #ff7f0e; font: 10px 'DejaVu Sans', 'Bitstream Vera Sans', 'Computer Modern Sans Serif', 'Lucida Grande', 'Verdana', 'Geneva', 'Lucid', 'Arial', 'Helvetica', 'Avant Garde', sans-serif; text-anchor: start" x="369.65" y="224.127539" transform="rotate(-0 369.65 224.127539)">−0.004</text>
     </g>
    </g>
    <g id="ytick_7">
     <g id="line2d_26">
      <path d="M 38.975 178.402713 
L 362.65 178.402713 
" clip-path="url(#p24d4725390)" style="fill: none; stroke: #b0b0b0; stroke-opacity: 0.25; stroke-width: 0.8; stroke-linecap: square"/>
     </g>
     <g id="line2d_27">
      <g>
       <use xlink:href="#m11e312dc5e" x="362.65" y="178.402713" style="stroke: #000000; stroke-width: 0.8"/>
      </g>
     </g>
     <g id="text_17">
      <text style="fill: #ff7f0e; font: 10px 'DejaVu Sans', 'Bitstream Vera Sans', 'Computer Modern Sans Serif', 'Lucida Grande', 'Verdana', 'Geneva', 'Lucid', 'Arial', 'Helvetica', 'Avant Garde', sans-serif; text-anchor: start" x="369.65" y="182.201932" transform="rotate(-0 369.65 182.201932)">−0.002</text>
     </g>
    </g>
    <g id="ytick_8">
     <g id="line2d_28">
      <path d="M 38.975 136.477106 
L 362.65 136.477106 
" clip-path="url(#p24d4725390)" style="fill: none; stroke: #b0b0b0; stroke-opacity: 0.25; stroke-width: 0.8; stroke-linecap: square"/>
     </g>
     <g id="line2d_29">
      <g>
       <use xlink:href="#m11e312dc5e" x="362.65" y="136.477106" style="stroke: #000000; stroke-width: 0.8"/>
      </g>
     </g>
     <g id="text_18">
      <text style="fill: #ff7f0e; font: 10px 'DejaVu Sans', 'Bitstream Vera Sans', 'Computer Modern Sans Serif', 'Lucida Grande', 'Verdana', 'Geneva', 'Lucid', 'Arial', 'Helvetica', 'Avant Garde', sans-serif; text-anchor: start" x="369.65" y="140.276324" transform="rotate(-0 369.65 140.276324)">0.000</text>
     </g>
    </g>
    <g id="ytick_9">
     <g id="line2d_30">
      <path d="M 38.975 94.551498 
L 362.65 94.551498 
" clip-path="url(#p24d4725390)" style="fill: none; stroke: #b0b0b0; stroke-opacity: 0.25; stroke-width: 0.8; stroke-linecap: square"/>
     </g>
     <g id="line2d_31">
      <g>
       <use xlink:href="#m11e312dc5e" x="362.65" y="94.551498" style="stroke: #000000; stroke-width: 0.8"/>
      </g>
     </g>
     <g id="text_19">
      <text style="fill: #ff7f0e; font: 10px 'DejaVu Sans', 'Bitstream Vera Sans', 'Computer Modern Sans Serif', 'Lucida Grande', 'Verdana', 'Geneva', 'Lucid', 'Arial', 'Helvetica', 'Avant Garde', sans-serif; text-anchor: start" x="369.65" y="98.350717" transform="rotate(-0 369.65 98.350717)">0.002</text>
     </g>
    </g>
    <g id="ytick_10">
     <g id="line2d_32">
      <path d="M 38.975 52.625891 
L 362.65 52.625891 
" clip-path="url(#p24d4725390)" style="fill: none; stroke: #b0b0b0; stroke-opacity: 0.25; stroke-width: 0.8; stroke-linecap: square"/>
     </g>
     <g id="line2d_33">
      <g>
       <use xlink:href="#m11e312dc5e" x="362.65" y="52.625891" style="stroke: #000000; stroke-width: 0.8"/>
      </g>
     </g>
     <g id="text_20">
      <text style="fill: #ff7f0e; font: 10px 'DejaVu Sans', 'Bitstream Vera Sans', 'Computer Modern Sans Serif', 'Lucida Grande', 'Verdana', 'Geneva', 'Lucid', 'Arial', 'Helvetica', 'Avant Garde', sans-serif; text-anchor: start" x="369.65" y="56.42511" transform="rotate(-0 369.65 56.42511)">0.004</text>
     </g>
    </g>
    <g id="text_21">
     <text style="fill: #ff7f0e; font: 10px 'DejaVu Sans', 'Bitstream Vera Sans', 'Computer Modern Sans Serif', 'Lucida Grande', 'Verdana', 'Geneva', 'Lucid', 'Arial', 'Helvetica', 'Avant Garde', sans-serif; text-anchor: middle" x="418.25625" y="135.2" transform="rotate(-90 418.25625 135.2)">Current (A)</text>
    </g>
   </g>
   <g id="line2d_34">
    <path d="M 53.6875 136.477106 
L 207.622064 136.477106 
L 207.622584 131.644865 
L 207.836382 131.493369 
L 215.142217 131.491946 
L 215.142267 141.271592 
L 215.40697 141.45568 
L 215.407084 131.614522 
L 215.83468 131.49226 
L 216.33722 131.493336 
L 216.33727 141.276357 
L 216.636309 141.450436 
L 216.636423 131.590947 
L 217.064019 131.495006 
L 217.599426 131.491251 
L 217.599476 141.275778 
L 217.895686 141.452487 
L 217.8958 131.589392 
L 218.323396 131.49547 
L 219.370501 131.492293 
L 219.370551 141.270997 
L 219.659342 141.450155 
L 219.659456 131.587721 
L 220.087052 131.493237 
L 221.224999 131.493352 
L 221.225049 141.264925 
L 221.438847 141.450171 
L 221.916565 141.44711 
L 221.916679 131.586794 
L 222.344275 131.492442 
L 224.408174 131.495751 
L 224.408224 141.270351 
L 224.622022 141.450485 
L 224.857506 141.446134 
L 224.85762 131.594587 
L 225.285216 131.489299 
L 232.43133 131.474922 
L 232.43138 141.205564 
L 232.645178 141.451362 
L 233.613099 141.449906 
L 233.613213 131.579068 
L 234.040809 131.487942 
L 241.52374 131.49547 
L 308.442525 131.489365 
L 310.794303 131.492029 
L 341.296848 131.49585 
L 341.296897 141.285522 
L 341.510695 141.450022 
L 342.931619 141.450171 
L 342.931733 131.574038 
L 343.359329 131.492161 
L 344.214984 131.49183 
L 344.215034 141.298476 
L 344.428832 141.450337 
L 345.740932 141.450419 
L 345.741046 131.577215 
L 346.168642 131.492343 
L 346.556358 131.492823 
L 346.556407 141.305723 
L 346.770205 141.450634 
L 347.930523 141.450171 
L 347.935141 35.745455 
L 347.936987 234.654545 
L 347.9375 234.64496 
" clip-path="url(#p24d4725390)" style="fill: none; stroke: #ff7f0e; stroke-opacity: 0.8; stroke-linecap: square"/>
   </g>
   <g id="patch_6">
    <path d="M 38.975 244.6 
L 38.975 25.8 
" style="fill: none; stroke: #000000; stroke-width: 0.8; stroke-linejoin: miter; stroke-linecap: square"/>
   </g>
   <g id="patch_7">
    <path d="M 38.975 244.6 
L 362.65 244.6 
" style="fill: none; stroke: #000000; stroke-width: 0.8; stroke-linejoin: miter; stroke-linecap: square"/>
   </g>
  </g>
 </g>
 <defs>
  <clipPath id="p24d4725390">
   <rect x="38.975" y="25.8" width="323.675" height="218.8"/>
  </clipPath>
 </defs>
</svg>
