<?xml version="1.0" encoding="utf-8" standalone="no"?>
<!DOCTYPE svg PUBLIC "-//W3C//DTD SVG 1.1//EN"
  "http://www.w3.org/Graphics/SVG/1.1/DTD/svg11.dtd">
<svg xmlns:xlink="http://www.w3.org/1999/xlink" width="432pt" height="288pt" viewBox="0 0 432 288" xmlns="http://www.w3.org/2000/svg" version="1.1">
 <metadata>
  <rdf:RDF xmlns:dc="http://purl.org/dc/elements/1.1/" xmlns:cc="http://creativecommons.org/ns#" xmlns:rdf="http://www.w3.org/1999/02/22-rdf-syntax-ns#">
   <cc:Work>
    <dc:type rdf:resource="http://purl.org/dc/dcmitype/StillImage"/>
    <dc:date>2025-10-07T16:12:47.310860</dc:date>
    <dc:format>image/svg+xml</dc:format>
    <dc:creator>
     <cc:Agent>
      <dc:title>Matplotlib v3.10.3, https://matplotlib.org/</dc:title>
     </cc:Agent>
    </dc:creator>
   </cc:Work>
  </rdf:RDF>
 </metadata>
 <defs>
  <style type="text/css">*{stroke-linejoin: round; stroke-linecap: butt}</style>
 </defs>
 <g id="figure_1">
  <g id="patch_1">
   <path d="M 0 288 
L 432 288 
L 432 0 
L 0 0 
z
" style="fill: #ffffff"/>
  </g>
  <g id="axes_1">
   <g id="patch_2">
    <path d="M 73.56 242.2 
L 421.2 242.2 
L 421.2 25.8 
L 73.56 25.8 
z
" style="fill: #ffffff"/>
   </g>
   <g id="matplotlib.axis_1">
    <g id="xtick_1">
     <g id="line2d_1">
      <path d="M 103.622519 242.2 
L 103.622519 25.8 
" clip-path="url(#p5d238ac47b)" style="fill: none; stroke: #b0b0b0; stroke-opacity: 0.25; stroke-width: 0.8; stroke-linecap: square"/>
     </g>
     <g id="line2d_2">
      <defs>
       <path id="meda3d3f50f" d="M 0 0 
L 0 3.5 
" style="stroke: #000000; stroke-width: 0.8"/>
      </defs>
      <g>
       <use xlink:href="#meda3d3f50f" x="103.622519" y="242.2" style="stroke: #000000; stroke-width: 0.8"/>
      </g>
     </g>
     <g id="text_1">
      <text style="font-size: 10px; font-family: 'DejaVu Sans', 'Bitstream Vera Sans', 'Computer Modern Sans Serif', 'Lucida Grande', 'Verdana', 'Geneva', 'Lucid', 'Arial', 'Helvetica', 'Avant Garde', sans-serif; text-anchor: middle" x="103.622519" y="256.798437" transform="rotate(-0 103.622519 256.798437)">3.0</text>
     </g>
    </g>
    <g id="xtick_2">
     <g id="line2d_3">
      <path d="M 158.445548 242.2 
L 158.445548 25.8 
" clip-path="url(#p5d238ac47b)" style="fill: none; stroke: #b0b0b0; stroke-opacity: 0.25; stroke-width: 0.8; stroke-linecap: square"/>
     </g>
     <g id="line2d_4">
      <g>
       <use xlink:href="#meda3d3f50f" x="158.445548" y="242.2" style="stroke: #000000; stroke-width: 0.8"/>
      </g>
     </g>
     <g id="text_2">
      <text style="font-size: 10px; font-family: 'DejaVu Sans', 'Bitstream Vera Sans', 'Computer Modern Sans Serif', 'Lucida Grande', 'Verdana', 'Geneva', 'Lucid', 'Arial', 'Helvetica', 'Avant Garde', sans-serif; text-anchor: middle" x="158.445548" y="256.798437" transform="rotate(-0 158.445548 256.798437)">3.2</text>
     </g>
    </g>
    <g id="xtick_3">
     <g id="line2d_5">
      <path d="M 213.268576 242.2 
L 213.268576 25.8 
" clip-path="url(#p5d238ac47b)" style="fill: none; stroke: #b0b0b0; stroke-opacity: 0.25; stroke-width: 0.8; stroke-linecap: square"/>
     </g>
     <g id="line2d_6">
      <g>
       <use xlink:href="#meda3d3f50f" x="213.268576" y="242.2" style="stroke: #000000; stroke-width: 0.8"/>
      </g>
     </g>
     <g id="text_3">
      <text style="font-size: 10px; font-family: 'DejaVu Sans', 'Bitstream Vera Sans', 'Computer Modern Sans Serif', 'Lucida Grande', 'Verdana', 'Geneva', 'Lucid', 'Arial', 'Helvetica', 'Avant Garde', sans-serif; text-anchor: middle" x="213.268576" y="256.798437" transform="rotate(-0 213.268576 256.798437)">3.4</text>
     </g>
    </g>
    <g id="xtick_4">
     <g id="line2d_7">
      <path d="M 268.091605 242.2 
L 268.091605 25.8 
" clip-path="url(#p5d238ac47b)" style="fill: none; stroke: #b0b0b0; stroke-opacity: 0.25; stroke-width: 0.8; stroke-linecap: square"/>
     </g>
     <g id="line2d_8">
      <g>
       <use xlink:href="#meda3d3f50f" x="268.091605" y="242.2" style="stroke: #000000; stroke-width: 0.8"/>
      </g>
     </g>
     <g id="text_4">
      <text style="font-size: 10px; font-family: 'DejaVu Sans', 'Bitstream Vera Sans', 'Computer Modern Sans Serif', 'Lucida Grande', 'Verdana', 'Geneva', 'Lucid', 'Arial', 'Helvetica', 'Avant Garde', sans-serif; text-anchor: middle" x="268.091605" y="256.798437" transform="rotate(-0 268.091605 256.798437)">3.6</text>
     </g>
    </g>
    <g id="xtick_5">
     <g id="line2d_9">
      <path d="M 322.914633 242.2 
L 322.914633 25.8 
" clip-path="url(#p5d238ac47b)" style="fill: none; stroke: #b0b0b0; stroke-opacity: 0.25; stroke-width: 0.8; stroke-linecap: square"/>
     </g>
     <g id="line2d_10">
      <g>
       <use xlink:href="#meda3d3f50f" x="322.914633" y="242.2" style="stroke: #000000; stroke-width: 0.8"/>
      </g>
     </g>
     <g id="text_5">
      <text style="font-size: 10px; font-family: 'DejaVu Sans', 'Bitstream Vera Sans', 'Computer Modern Sans Serif', 'Lucida Grande', 'Verdana', 'Geneva', 'Lucid', 'Arial', 'Helvetica', 'Avant Garde', sans-serif; text-anchor: middle" x="322.914633" y="256.798437" transform="rotate(-0 322.914633 256.798437)">3.8</text>
     </g>
    </g>
    <g id="xtick_6">
     <g id="line2d_11">
      <path d="M 377.737662 242.2 
L 377.737662 25.8 
" clip-path="url(#p5d238ac47b)" style="fill: none; stroke: #b0b0b0; stroke-opacity: 0.25; stroke-width: 0.8; stroke-linecap: square"/>
     </g>
     <g id="line2d_12">
      <g>
       <use xlink:href="#meda3d3f50f" x="377.737662" y="242.2" style="stroke: #000000; stroke-width: 0.8"/>
      </g>
     </g>
     <g id="text_6">
      <text style="font-size: 10px; font-family: 'DejaVu Sans', 'Bitstream Vera Sans', 'Computer Modern Sans Serif', 'Lucida Grande', 'Verdana', 'Geneva', 'Lucid', 'Arial', 'Helvetica', 'Avant Garde', sans-serif; text-anchor: middle" x="377.737662" y="256.798437" transform="rotate(-0 377.737662 256.798437)">4.0</text>
     </g>
    </g>
    <g id="text_7">
     <!-- $E$ $\left[\text{V}\right]$ -->
     <g transform="translate(230.44 273.515938)">
      <text>
       <tspan x="0" y="-0.359375" style="font-style: oblique; font-size: 14px; font-family: 'DejaVu Sans'">E</tspan>
       <tspan x="8.845703" y="-0.359375" style="font-size: 14px; font-family: 'DejaVu Sans'"> </tspan>
       <tspan x="13.295898" y="-0.359375" style="font-size: 14px; font-family: 'DejaVu Sans'">[</tspan>
       <tspan x="18.757812" y="-0.359375" style="font-size: 14px; font-family: 'DejaVu Sans'">V</tspan>
       <tspan x="28.334961" y="-0.359375" style="font-size: 14px; font-family: 'DejaVu Sans'">]</tspan>
      </text>
     </g>
    </g>
   </g>
   <g id="matplotlib.axis_2">
    <g id="ytick_1">
     <g id="line2d_13">
      <path d="M 73.56 216.297525 
L 421.2 216.297525 
" clip-path="url(#p5d238ac47b)" style="fill: none; stroke: #b0b0b0; stroke-opacity: 0.25; stroke-width: 0.8; stroke-linecap: square"/>
     </g>
     <g id="line2d_14">
      <defs>
       <path id="m2f86c352ac" d="M 0 0 
L -3.5 0 
" style="stroke: #000000; stroke-width: 0.8"/>
      </defs>
      <g>
       <use xlink:href="#m2f86c352ac" x="73.56" y="216.297525" style="stroke: #000000; stroke-width: 0.8"/>
      </g>
     </g>
     <g id="text_8">
      <text style="font-size: 10px; font-family: 'DejaVu Sans', 'Bitstream Vera Sans', 'Computer Modern Sans Serif', 'Lucida Grande', 'Verdana', 'Geneva', 'Lucid', 'Arial', 'Helvetica', 'Avant Garde', sans-serif; text-anchor: end" x="66.56" y="220.096744" transform="rotate(-0 66.56 220.096744)">−400</text>
     </g>
    </g>
    <g id="ytick_2">
     <g id="line2d_15">
      <path d="M 73.56 189.312304 
L 421.2 189.312304 
" clip-path="url(#p5d238ac47b)" style="fill: none; stroke: #b0b0b0; stroke-opacity: 0.25; stroke-width: 0.8; stroke-linecap: square"/>
     </g>
     <g id="line2d_16">
      <g>
       <use xlink:href="#m2f86c352ac" x="73.56" y="189.312304" style="stroke: #000000; stroke-width: 0.8"/>
      </g>
     </g>
     <g id="text_9">
      <text style="font-size: 10px; font-family: 'DejaVu Sans', 'Bitstream Vera Sans', 'Computer Modern Sans Serif', 'Lucida Grande', 'Verdana', 'Geneva', 'Lucid', 'Arial', 'Helvetica', 'Avant Garde', sans-serif; text-anchor: end" x="66.56" y="193.111523" transform="rotate(-0 66.56 193.111523)">−350</text>
     </g>
    </g>
    <g id="ytick_3">
     <g id="line2d_17">
      <path d="M 73.56 162.327083 
L 421.2 162.327083 
" clip-path="url(#p5d238ac47b)" style="fill: none; stroke: #b0b0b0; stroke-opacity: 0.25; stroke-width: 0.8; stroke-linecap: square"/>
     </g>
     <g id="line2d_18">
      <g>
       <use xlink:href="#m2f86c352ac" x="73.56" y="162.327083" style="stroke: #000000; stroke-width: 0.8"/>
      </g>
     </g>
     <g id="text_10">
      <text style="font-size: 10px; font-family: 'DejaVu Sans', 'Bitstream Vera Sans', 'Computer Modern Sans Serif', 'Lucida Grande', 'Verdana', 'Geneva', 'Lucid', 'Arial', 'Helvetica', 'Avant Garde', sans-serif; text-anchor: end" x="66.56" y="166.126301" transform="rotate(-0 66.56 166.126301)">−300</text>
     </g>
    </g>
    <g id="ytick_4">
     <g id="line2d_19">
      <path d="M 73.56 135.341861 
L 421.2 135.341861 
" clip-path="url(#p5d238ac47b)" style="fill: none; stroke: #b0b0b0; stroke-opacity: 0.25; stroke-width: 0.8; stroke-linecap: square"/>
     </g>
     <g id="line2d_20">
      <g>
       <use xlink:href="#m2f86c352ac" x="73.56" y="135.341861" style="stroke: #000000; stroke-width: 0.8"/>
      </g>
     </g>
     <g id="text_11">
      <text style="font-size: 10px; font-family: 'DejaVu Sans', 'Bitstream Vera Sans', 'Computer Modern Sans Serif', 'Lucida Grande', 'Verdana', 'Geneva', 'Lucid', 'Arial', 'Helvetica', 'Avant Garde', sans-serif; text-anchor: end" x="66.56" y="139.14108" transform="rotate(-0 66.56 139.14108)">−250</text>
     </g>
    </g>
    <g id="ytick_5">
     <g id="line2d_21">
      <path d="M 73.56 108.35664 
L 421.2 108.35664 
" clip-path="url(#p5d238ac47b)" style="fill: none; stroke: #b0b0b0; stroke-opacity: 0.25; stroke-width: 0.8; stroke-linecap: square"/>
     </g>
     <g id="line2d_22">
      <g>
       <use xlink:href="#m2f86c352ac" x="73.56" y="108.35664" style="stroke: #000000; stroke-width: 0.8"/>
      </g>
     </g>
     <g id="text_12">
      <text style="font-size: 10px; font-family: 'DejaVu Sans', 'Bitstream Vera Sans', 'Computer Modern Sans Serif', 'Lucida Grande', 'Verdana', 'Geneva', 'Lucid', 'Arial', 'Helvetica', 'Avant Garde', sans-serif; text-anchor: end" x="66.56" y="112.155859" transform="rotate(-0 66.56 112.155859)">−200</text>
     </g>
    </g>
    <g id="ytick_6">
     <g id="line2d_23">
      <path d="M 73.56 81.371419 
L 421.2 81.371419 
" clip-path="url(#p5d238ac47b)" style="fill: none; stroke: #b0b0b0; stroke-opacity: 0.25; stroke-width: 0.8; stroke-linecap: square"/>
     </g>
     <g id="line2d_24">
      <g>
       <use xlink:href="#m2f86c352ac" x="73.56" y="81.371419" style="stroke: #000000; stroke-width: 0.8"/>
      </g>
     </g>
     <g id="text_13">
      <text style="font-size: 10px; font-family: 'DejaVu Sans', 'Bitstream Vera Sans', 'Computer Modern Sans Serif', 'Lucida Grande', 'Verdana', 'Geneva', 'Lucid', 'Arial', 'Helvetica', 'Avant Garde', sans-serif; text-anchor: end" x="66.56" y="85.170638" transform="rotate(-0 66.56 85.170638)">−150</text>
     </g>
    </g>
    <g id="ytick_7">
     <g id="line2d_25">
      <path d="M 73.56 54.386198 
L 421.2 54.386198 
" clip-path="url(#p5d238ac47b)" style="fill: none; stroke: #b0b0b0; stroke-opacity: 0.25; stroke-width: 0.8; stroke-linecap: square"/>
     </g>
     <g id="line2d_26">
      <g>
       <use xlink:href="#m2f86c352ac" x="73.56" y="54.386198" style="stroke: #000000; stroke-width: 0.8"/>
      </g>
     </g>
     <g id="text_14">
      <text style="font-size: 10px; font-family: 'DejaVu Sans', 'Bitstream Vera Sans', 'Computer Modern Sans Serif', 'Lucida Grande', 'Verdana', 'Geneva', 'Lucid', 'Arial', 'Helvetica', 'Avant Garde', sans-serif; text-anchor: end" x="66.56" y="58.185416" transform="rotate(-0 66.56 58.185416)">−100</text>
     </g>
    </g>
    <g id="ytick_8">
     <g id="line2d_27">
      <path d="M 73.56 27.400976 
L 421.2 27.400976 
" clip-path="url(#p5d238ac47b)" style="fill: none; stroke: #b0b0b0; stroke-opacity: 0.25; stroke-width: 0.8; stroke-linecap: square"/>
     </g>
     <g id="line2d_28">
      <g>
       <use xlink:href="#m2f86c352ac" x="73.56" y="27.400976" style="stroke: #000000; stroke-width: 0.8"/>
      </g>
     </g>
     <g id="text_15">
      <text style="font-size: 10px; font-family: 'DejaVu Sans', 'Bitstream Vera Sans', 'Computer Modern Sans Serif', 'Lucida Grande', 'Verdana', 'Geneva', 'Lucid', 'Arial', 'Helvetica', 'Avant Garde', sans-serif; text-anchor: end" x="66.56" y="31.200195" transform="rotate(-0 66.56 31.200195)">−50</text>
     </g>
    </g>
    <g id="text_16">
     <!-- $\frac{dQ}{dE}$ $\left[\frac{\text{mAh}}{\text{g}\cdot\text{V}}\right]$ -->
     <g transform="translate(27.532812 161.44) rotate(-90)">
      <text>
       <tspan x="0" y="-7.551563" style="font-style: oblique; font-size: 9.8px; font-family: 'DejaVu Sans'">d</tspan>
       <tspan x="1" y="5.540625" style="font-style: oblique; font-size: 9.8px; font-family: 'DejaVu Sans'">d</tspan>
       <tspan x="6.220703" y="-7.551563" style="font-style: oblique; font-size: 9.8px; font-family: 'DejaVu Sans'">Q</tspan>
       <tspan x="7.220703" y="5.540625" style="font-style: oblique; font-size: 9.8px; font-family: 'DejaVu Sans'">E</tspan>
       <tspan x="15.684375" y="-0.15" style="font-size: 14px; font-family: 'DejaVu Sans'"> </tspan>
       <tspan x="20.13457" y="4.096875" style="font-size: 11.38294px; font-family: 'STIXSizeTwoSym'">[</tspan>
       <tspan x="49.567224" y="4.096875" style="font-size: 11.38294px; font-family: 'STIXSizeTwoSym'">]</tspan>
       <tspan x="25.355701" y="-6.282813" style="font-size: 9.8px; font-family: 'DejaVu Sans'">m</tspan>
       <tspan x="26.355701" y="5.234375" style="font-size: 9.8px; font-family: 'DejaVu Sans'">g</tspan>
       <tspan x="34.485681" y="5.234375" style="font-size: 9.8px; font-family: 'DejaVu Sans'">⋅</tspan>
       <tspan x="34.902087" y="-6.282813" style="font-size: 9.8px; font-family: 'DejaVu Sans'">A</tspan>
       <tspan x="39.510095" y="5.234375" style="font-size: 9.8px; font-family: 'DejaVu Sans'">V</tspan>
       <tspan x="41.606091" y="-6.282813" style="font-size: 9.8px; font-family: 'DejaVu Sans'">h</tspan>
      </text>
      <rect x="0" y="-3.782813" width="13.934375" height="0.875"/>
      <rect x="25.355701" y="-3.782813" width="22.461523" height="0.875"/>
     </g>
    </g>
   </g>
   <g id="line2d_29">
    <path d="M 401.905395 49.159519 
L 397.810549 50.180696 
L 393.818566 51.415667 
L 386.136522 54.167096 
L 380.632616 56.332997 
L 375.343285 58.61756 
L 370.262909 61.02819 
L 365.385866 63.572696 
L 360.706536 66.259288 
L 356.219295 69.096563 
L 351.918525 72.09348 
L 347.798601 75.259318 
L 343.853905 78.603622 
L 340.078814 82.136115 
L 336.467706 85.866591 
L 333.014961 89.804771 
L 329.714957 93.96011 
L 326.562072 98.341561 
L 323.550686 102.957275 
L 320.675177 107.814232 
L 317.929923 112.917792 
L 315.309304 118.271157 
L 312.807698 123.874735 
L 310.419483 129.725397 
L 308.139038 135.81564 
L 305.256372 144.2856 
L 302.541978 153.109588 
L 299.982534 162.214754 
L 296.980824 173.833804 
L 293.63423 187.758159 
L 288.079843 211.136229 
L 286.202773 218.168032 
L 284.831802 222.67905 
L 283.486154 226.425535 
L 282.160208 229.320467 
L 281.284414 230.751188 
L 280.413213 231.723625 
L 279.544938 232.254755 
L 278.677925 232.363636 
L 277.810508 232.048955 
L 276.941021 231.314496 
L 276.067798 230.104294 
L 275.189174 228.481247 
L 274.303484 226.457576 
L 272.958056 222.718885 
L 271.587358 218.214753 
L 269.710739 211.190569 
L 266.763695 198.985675 
L 260.812758 173.900948 
L 257.812267 162.28092 
L 255.253905 153.173997 
L 252.540693 144.347629 
L 249.659305 135.874859 
L 247.379883 129.782324 
L 244.992745 123.929277 
L 242.492271 118.323268 
L 239.872839 112.967461 
L 237.128827 107.861481 
L 234.254614 103.002149 
L 231.244579 98.384123 
L 228.093101 94.000435 
L 224.794558 89.842945 
L 221.343328 85.902705 
L 217.733791 82.170263 
L 213.960325 78.6359 
L 210.017308 75.289824 
L 205.89912 72.122306 
L 201.600139 69.123803 
L 197.114743 66.28503 
L 192.437311 63.597027 
L 187.562223 61.051191 
L 182.483855 58.63931 
L 177.196588 56.35357 
L 171.6948 54.186562 
L 165.972869 52.131283 
L 160.025174 50.181122 
L 151.734009 47.73372 
L 143.018168 45.448438 
L 133.864326 43.312645 
L 124.259159 41.314748 
L 114.18934 39.444111 
L 103.641547 37.645173 
L 98.184245 36.958856 
L 95.409015 36.762454 
L 92.602453 36.698094 
L 89.764353 36.791427 
L 89.764353 36.791427 
" clip-path="url(#p5d238ac47b)" style="fill: none; stroke: #1f77b4; stroke-width: 1.4; stroke-linecap: square"/>
   </g>
   <g id="line2d_30">
    <path d="M 402.471496 52.06345 
L 398.605254 53.09484 
L 394.831668 54.339547 
L 387.5565 57.103483 
L 382.332256 59.269628 
L 377.301392 61.545508 
L 372.458876 63.937119 
L 367.799677 66.450679 
L 363.318763 69.092606 
L 359.011102 71.869485 
L 354.871662 74.78802 
L 350.895413 77.854978 
L 347.077321 81.077105 
L 343.412356 84.461033 
L 339.895486 88.013154 
L 336.521679 91.739468 
L 333.285904 95.645402 
L 330.183128 99.735579 
L 327.20832 104.013561 
L 324.356449 108.481529 
L 321.622482 113.139924 
L 319.001388 117.987024 
L 316.488136 123.01848 
L 313.296189 130.00037 
L 310.275088 137.267894 
L 307.412906 144.778426 
L 304.697716 152.47253 
L 301.492265 162.226702 
L 297.314826 175.766236 
L 291.858663 193.515713 
L 289.30504 200.975616 
L 287.324638 205.953328 
L 285.867966 209.002124 
L 284.430241 211.398012 
L 283.479801 212.608254 
L 282.534054 213.495534 
L 281.591511 214.05158 
L 280.65068 214.271155 
L 279.710071 214.152181 
L 278.768193 213.695785 
L 277.823554 212.906274 
L 277.349734 212.388792 
L 276.874665 226.219809 
L 276.39816 221.848262 
L 275.920034 188.398454 
L 275.440099 163.692627 
L 274.95817 147.644936 
L 274.47406 140.272241 
L 274.875797 141.315875 
L 274.414536 150.478586 
L 273.950055 167.471737 
L 273.482148 192.015566 
L 273.010608 223.839405 
L 272.535228 226.209139 
L 272.055802 209.515304 
L 267.524781 190.846271 
L 263.086205 172.733145 
L 260.066405 161.315344 
L 257.493409 152.356329 
L 254.766391 143.663934 
L 251.872123 135.310746 
L 249.583708 129.298578 
L 247.188196 123.51821 
L 244.680005 117.97758 
L 242.053556 112.680308 
L 239.303269 107.626508 
L 236.423563 102.813511 
L 233.40886 98.23648 
L 230.253577 93.888936 
L 226.952137 89.763208 
L 223.498958 85.850788 
L 219.88846 82.142632 
L 216.115063 78.629399 
L 212.173188 75.301639 
L 208.057254 72.149937 
L 203.761681 69.165031 
L 199.280888 66.337892 
L 194.609297 63.659786 
L 189.741327 61.122314 
L 184.671397 58.717446 
L 179.393928 56.437529 
L 173.903339 54.2753 
L 168.194052 52.223879 
L 162.260484 50.276772 
L 153.990537 47.832361 
L 145.298724 45.54902 
L 136.171817 43.414294 
L 126.596591 41.416736 
L 116.559818 39.545838 
L 103.344652 37.341527 
L 97.845085 36.518816 
L 92.221038 35.867585 
L 89.361818 35.636364 
L 89.361818 35.636364 
" clip-path="url(#p5d238ac47b)" style="fill: none; stroke: #ff7f0e; stroke-width: 1.4; stroke-linecap: square"/>
   </g>
   <g id="line2d_31">
    <path d="M 401.433619 54.242143 
L 397.723108 55.283892 
L 394.098815 56.539334 
L 387.103325 59.32093 
L 380.436036 62.241862 
L 375.644267 64.555338 
L 371.026172 66.979758 
L 366.577065 69.520373 
L 362.292257 72.1825 
L 358.167061 74.971474 
L 354.196788 77.892592 
L 350.37675 80.95103 
L 346.70226 84.151758 
L 343.168631 87.499426 
L 339.771173 90.998228 
L 336.505199 94.651745 
L 333.366022 98.462755 
L 330.348953 102.433014 
L 327.449305 106.563006 
L 324.66239 110.85165 
L 321.983519 115.295983 
L 318.571659 121.454576 
L 315.332433 127.8606 
L 312.254729 134.484208 
L 309.327435 141.283726 
L 305.862902 149.945011 
L 301.962207 160.385075 
L 292.114446 187.259237 
L 289.9904 192.243381 
L 288.43105 195.467613 
L 286.895363 198.192611 
L 285.378652 200.371849 
L 284.375738 201.502017 
L 283.377785 202.363107 
L 282.383404 202.948045 
L 281.391206 203.25197 
L 280.399802 203.272344 
L 279.407804 203.008994 
L 278.413821 202.464124 
L 277.915652 202.087446 
L 277.416466 215.126023 
L 276.916089 211.172444 
L 276.414349 180.029417 
L 275.91107 157.071798 
L 275.40608 142.204954 
L 274.899206 135.345735 
L 275.335635 136.428721 
L 274.854073 145.163589 
L 274.369588 161.267944 
L 273.881983 184.467589 
L 273.391063 214.496765 
L 272.896632 217.01442 
L 272.398495 201.687171 
L 270.879891 196.599964 
L 267.71621 185.601633 
L 261.356233 163.365743 
L 258.168433 153.096565 
L 255.461116 145.032228 
L 252.600614 137.192107 
L 249.574408 129.636336 
L 247.188481 124.181734 
L 244.697023 118.922466 
L 242.094753 113.866036 
L 239.37639 109.016435 
L 236.536653 104.374757 
L 233.570262 99.93975 
L 230.471934 95.70829 
L 227.23639 91.675804 
L 223.858347 87.836615 
L 220.332525 84.184248 
L 216.653642 80.711667 
L 212.816419 77.411483 
L 208.815572 74.276115 
L 204.645823 71.297921 
L 200.301888 68.469298 
L 195.778488 65.782766 
L 191.070342 63.231025 
L 186.172167 60.806998 
L 181.078684 58.503867 
L 175.784611 56.315089 
L 170.284666 54.234413 
L 162.622036 51.618085 
L 154.571505 49.170085 
L 146.120557 46.878039 
L 137.256674 44.730466 
L 127.967336 42.716737 
L 118.240027 40.827031 
L 105.445921 38.595369 
L 100.125713 37.912474 
L 97.42142 37.668621 
L 97.42142 37.668621 
" clip-path="url(#p5d238ac47b)" style="fill: none; stroke: #2ca02c; stroke-width: 1.4; stroke-linecap: square"/>
   </g>
   <g id="line2d_32">
    <path d="M 404.928685 49.689526 
L 400.88025 50.720004 
L 396.93323 51.96586 
L 389.336793 54.740204 
L 383.893335 56.922695 
L 378.661257 59.223336 
L 373.63496 61.649289 
L 368.808844 64.208073 
L 364.177308 66.907549 
L 359.734752 69.7559 
L 355.475577 72.761591 
L 351.394182 75.933317 
L 347.484968 79.279933 
L 343.742334 82.810353 
L 340.16068 86.533422 
L 336.734407 90.457756 
L 333.457914 94.591527 
L 330.325601 98.94221 
L 327.331868 103.516262 
L 324.471115 108.318734 
L 321.737743 113.352811 
L 319.126151 118.619262 
L 316.630739 124.115812 
L 314.245906 129.836412 
L 311.966054 135.770439 
L 309.079875 143.985783 
L 306.357097 152.495061 
L 303.784446 161.218075 
L 300.759527 172.25556 
L 296.299718 189.538977 
L 292.708508 203.234193 
L 290.757864 209.97729 
L 289.333151 214.340895 
L 287.935017 218.007916 
L 286.557862 220.897112 
L 285.648649 222.362511 
L 284.744612 223.426204 
L 283.844092 224.046287 
L 282.94543 224.285068 
L 282.046966 224.139726 
L 281.14704 223.611997 
L 280.243995 222.65637 
L 279.33617 221.278516 
L 278.421907 219.530069 
L 277.034809 216.236025 
L 275.623891 212.203894 
L 273.695934 205.83094 
L 271.192213 196.582429 
L 262.189758 162.26062 
L 259.634163 153.518321 
L 256.930028 144.978481 
L 254.064077 136.724404 
L 251.023038 128.814927 
L 248.619371 123.132614 
L 246.104149 117.675737 
L 243.471774 112.44963 
L 240.716644 107.455986 
L 237.833159 102.693569 
L 234.81572 98.15883 
L 231.658727 93.846441 
L 228.356579 89.749739 
L 224.903677 85.861105 
L 221.294421 82.17227 
L 217.523209 78.674566 
L 213.584444 75.35912 
L 209.472523 72.217022 
L 205.181848 69.239436 
L 200.706819 66.417702 
L 196.041834 63.7434 
L 191.181295 61.2084 
L 186.119602 58.8049 
L 180.851153 56.525439 
L 175.37035 54.36292 
L 169.671592 52.310602 
L 163.749279 50.362108 
L 155.495431 47.915254 
L 146.820922 45.628965 
L 137.712479 43.49094 
L 128.156827 41.489852 
L 118.140692 39.615286 
L 107.6508 37.811387 
L 102.224046 37.120659 
L 99.464492 36.92183 
L 96.673876 36.854981 
L 93.851991 36.94583 
L 93.851991 36.94583 
" clip-path="url(#p5d238ac47b)" style="fill: none; stroke: #d62728; stroke-width: 1.4; stroke-linecap: square"/>
   </g>
   <g id="line2d_33">
    <path d="M 403.71132 51.814491 
L 399.827924 52.858292 
L 396.039094 54.118542 
L 388.738933 56.918902 
L 383.500519 59.115514 
L 378.459183 61.425092 
L 373.609694 63.853871 
L 368.94682 66.408314 
L 364.465328 69.095083 
L 360.159988 71.921003 
L 356.025566 74.893007 
L 352.056832 78.018067 
L 348.248553 81.303106 
L 344.595498 84.754884 
L 341.092435 88.379859 
L 337.734131 92.184015 
L 334.515355 96.172647 
L 331.430876 100.350113 
L 328.47546 104.71953 
L 325.643878 109.282421 
L 322.930895 114.038305 
L 320.331282 118.984231 
L 317.839805 124.114255 
L 314.677007 131.223623 
L 311.684749 138.608444 
L 308.85063 146.218353 
L 305.511473 155.940322 
L 301.770964 167.668588 
L 293.427033 194.391696 
L 291.383664 200.062724 
L 289.886418 203.699158 
L 288.413598 206.72993 
L 286.959975 209.094782 
L 285.998973 210.284606 
L 285.042626 211.124877 
L 284.089386 211.594427 
L 283.1377 211.75217 
L 282.18602 211.596421 
L 281.232796 211.128844 
L 280.276476 210.290885 
L 279.31551 209.102939 
L 278.34835 207.60492 
L 276.882601 204.79257 
L 275.394193 201.353116 
L 273.365359 195.907137 
L 270.740694 187.963948 
L 266.279318 173.462212 
L 262.043365 159.881292 
L 258.789071 150.109473 
L 256.029867 142.41095 
L 253.118767 134.905321 
L 250.043368 127.651979 
L 246.791271 120.693036 
L 244.228778 115.684055 
L 241.554685 110.863481 
L 238.763758 106.235213 
L 235.850767 101.800511 
L 232.810479 97.558478 
L 229.637663 93.506494 
L 226.327086 89.640584 
L 222.873518 85.955735 
L 219.271725 82.446173 
L 215.516476 79.105576 
L 211.602539 75.92727 
L 207.524683 72.904371 
L 203.277676 70.029914 
L 198.856285 67.296942 
L 194.255279 64.698589 
L 189.469426 62.22813 
L 184.493494 59.879033 
L 179.322251 57.644981 
L 173.950466 55.519902 
L 168.372907 53.497977 
L 160.607024 50.952977 
L 152.453618 48.569085 
L 143.900286 46.334698 
L 134.934628 44.239025 
L 125.544242 42.272054 
L 115.716727 40.375383 
L 110.63517 39.64592 
L 108.051763 39.434659 
L 105.43968 39.361831 
L 102.798726 39.454524 
L 102.798726 39.454524 
" clip-path="url(#p5d238ac47b)" style="fill: none; stroke: #9467bd; stroke-width: 1.4; stroke-linecap: square"/>
   </g>
   <g id="line2d_34">
    <path d="M 402.37713 54.333384 
L 398.673231 55.388405 
L 395.056322 56.660096 
L 388.07777 59.478501 
L 383.061594 61.681565 
L 378.2267 63.990761 
L 373.56827 66.411246 
L 369.081491 68.948278 
L 364.761545 71.607168 
L 360.603617 74.393235 
L 356.60289 77.311737 
L 352.75455 80.367798 
L 349.053779 83.566304 
L 345.495763 86.911788 
L 342.075684 90.408289 
L 338.788728 94.059183 
L 335.630078 97.866986 
L 332.594918 101.833121 
L 329.678432 105.95766 
L 326.875805 110.239019 
L 324.182221 114.673626 
L 320.752072 120.814181 
L 317.4958 127.194445 
L 314.401989 133.782063 
L 311.459222 140.532415 
L 307.97578 149.108583 
L 304.052243 159.402284 
L 295.224578 182.87791 
L 293.050779 187.956468 
L 291.4565 191.274233 
L 289.887788 194.110928 
L 288.339826 196.418252 
L 287.317001 197.64181 
L 286.299831 198.601794 
L 285.28689 199.29028 
L 284.276749 199.701519 
L 283.267983 199.832045 
L 282.259164 199.680756 
L 281.248865 199.248929 
L 280.23566 198.540202 
L 279.727522 211.298781 
L 279.218121 207.401354 
L 278.707281 176.825896 
L 278.194822 154.312557 
L 277.680566 139.761561 
L 277.164335 133.08951 
L 277.61592 134.215093 
L 277.12641 142.842268 
L 276.633841 158.683168 
L 276.138012 181.458379 
L 275.63872 210.897188 
L 275.135763 213.333172 
L 274.628939 198.235787 
L 273.083243 193.113404 
L 269.303524 180.137084 
L 263.995599 161.947222 
L 260.779292 151.718613 
L 258.046857 143.676133 
L 255.158723 135.852188 
L 252.101947 128.309559 
L 249.69091 122.864022 
L 247.172272 117.613821 
L 244.540575 112.566899 
L 241.790358 107.727547 
L 238.916162 103.097052 
L 235.912528 98.674263 
L 232.773994 94.456096 
L 229.495103 90.437959 
L 226.070393 86.614127 
L 222.494405 82.978044 
L 218.76168 79.522583 
L 214.866758 76.240253 
L 210.804179 73.123364 
L 206.568483 70.164168 
L 202.15421 67.35496 
L 197.555902 64.68816 
L 192.768097 62.156378 
L 187.785337 59.752451 
L 182.602162 57.469485 
L 177.213112 55.300868 
L 171.612727 53.240285 
L 163.807367 50.650552 
L 155.603653 48.228823 
L 146.988644 45.962632 
L 137.949398 43.840425 
L 128.472973 41.851515 
L 118.546427 39.986037 
L 108.15682 38.205347 
L 102.784324 37.517803 
L 100.052946 37.269843 
L 100.052946 37.269843 
" clip-path="url(#p5d238ac47b)" style="fill: none; stroke: #8c564b; stroke-width: 1.4; stroke-linecap: square"/>
   </g>
   <g id="line2d_35">
    <path d="M 400.892923 57.371883 
L 397.385439 58.433977 
L 393.956515 59.71157 
L 387.329197 62.53396 
L 381.000672 65.484341 
L 374.960644 68.60973 
L 370.613757 71.07421 
L 366.419015 73.64621 
L 362.372075 76.329468 
L 358.468594 79.127543 
L 354.704228 82.043736 
L 351.074634 85.081001 
L 347.575469 88.241833 
L 344.202388 91.528153 
L 340.951049 94.941156 
L 337.817109 98.481156 
L 333.813634 103.397228 
L 330.00085 108.532188 
L 326.368461 113.875662 
L 322.906173 119.411252 
L 319.603689 125.115426 
L 316.450714 130.956389 
L 312.704059 138.386366 
L 308.466888 147.352018 
L 295.949947 174.407998 
L 293.666012 178.589637 
L 291.985865 181.309042 
L 290.329009 183.628347 
L 288.691101 185.513479 
L 287.067797 186.935762 
L 285.991564 187.615544 
L 284.918604 188.074774 
L 283.847631 188.310173 
L 282.777357 188.320051 
L 281.706497 188.104337 
L 280.633762 187.664581 
L 280.09629 199.514262 
L 279.557866 196.066388 
L 279.018331 167.977126 
L 278.477522 147.432067 
L 277.93528 134.298757 
L 277.391444 128.461261 
L 277.886058 129.800901 
L 277.371844 138.032125 
L 276.854957 152.876752 
L 276.33521 174.064245 
L 275.812416 201.331974 
L 275.286389 203.706236 
L 274.756941 189.849324 
L 273.687039 187.12931 
L 268.653899 173.156218 
L 261.20631 151.978171 
L 257.785881 142.989981 
L 254.891643 135.915838 
L 251.84411 129.017309 
L 248.631333 122.343913 
L 245.241365 115.931143 
L 242.575419 111.307169 
L 239.798041 106.849479 
L 236.90419 102.561654 
L 233.888826 98.445064 
L 230.746908 94.499255 
L 227.473396 90.722298 
L 224.063248 87.111084 
L 220.511423 83.661594 
L 216.812882 80.369114 
L 212.962584 77.228425 
L 208.955488 74.23396 
L 204.786552 71.379934 
L 200.450737 68.660446 
L 195.943002 66.069568 
L 191.258306 63.601411 
L 186.391608 61.250178 
L 181.337868 59.010205 
L 176.092045 56.875989 
L 168.790107 54.185722 
L 161.125777 51.662002 
L 153.08711 49.293457 
L 144.662155 47.069401 
L 135.838965 44.979829 
L 126.605591 43.015404 
L 116.950086 41.13654 
L 111.960299 40.408163 
L 109.424245 40.143931 
L 109.424245 40.143931 
" clip-path="url(#p5d238ac47b)" style="fill: none; stroke: #e377c2; stroke-width: 1.4; stroke-linecap: square"/>
   </g>
   <g id="line2d_36">
    <path d="M 404.021275 52.667431 
L 400.201209 53.727401 
L 396.474054 55.006782 
L 389.292287 57.84821 
L 384.138344 60.075456 
L 379.177782 62.415667 
L 374.405377 64.874824 
L 369.815908 67.459075 
L 365.40415 70.174704 
L 361.164881 73.028079 
L 357.092877 76.025586 
L 353.182916 79.173549 
L 349.429775 82.478122 
L 345.82823 85.945163 
L 342.373059 89.580075 
L 339.059039 93.387613 
L 335.880945 97.371658 
L 332.833557 101.534942 
L 329.911649 105.878735 
L 327.11 110.402474 
L 324.423386 115.103352 
L 321.846585 119.97585 
L 318.572641 126.723837 
L 315.472253 133.729551 
L 312.53304 140.94729 
L 309.066815 150.17094 
L 305.180189 161.313392 
L 295.964594 188.365716 
L 293.854711 193.694994 
L 292.307656 197.110237 
L 290.785104 199.956838 
L 289.281831 202.180047 
L 288.287781 203.299458 
L 287.298431 204.09672 
L 286.312232 204.549349 
L 285.327639 204.708189 
L 284.343102 204.57162 
L 283.357075 204.141041 
L 282.36801 203.369645 
L 281.374359 202.271317 
L 280.374575 200.882105 
L 278.860014 198.267594 
L 277.322948 195.062454 
L 275.758154 191.326573 
L 273.619602 185.634552 
L 270.274856 175.910299 
L 262.281097 152.299996 
L 258.864816 143.044006 
L 255.969554 135.776024 
L 252.916668 128.70402 
L 249.693778 121.878228 
L 247.157598 116.942165 
L 244.513603 112.174801 
L 241.75657 107.582824 
L 238.881277 103.170019 
L 235.882501 98.937754 
L 232.755017 94.885413 
L 229.493604 91.010784 
L 226.093038 87.310388 
L 222.548097 83.779775 
L 218.853557 80.413764 
L 215.004194 77.206651 
L 210.994787 74.152378 
L 206.820112 71.24467 
L 202.474947 68.477156 
L 197.954067 65.84345 
L 193.25225 63.33723 
L 188.364272 60.95229 
L 183.284912 58.682582 
L 178.008946 56.522247 
L 172.53115 54.465638 
L 164.904439 51.875508 
L 156.897254 49.44797 
L 148.497215 47.171578 
L 139.691941 45.035637 
L 130.469052 43.030182 
L 120.816168 41.095136 
L 115.824609 40.345783 
L 113.286873 40.126306 
L 110.720908 40.047093 
L 108.126521 40.13574 
L 108.126521 40.13574 
" clip-path="url(#p5d238ac47b)" style="fill: none; stroke: #7f7f7f; stroke-width: 1.4; stroke-linecap: square"/>
   </g>
   <g id="line2d_37">
    <path d="M 402.21847 55.92932 
L 398.620609 56.999815 
L 395.106032 58.28904 
L 388.321192 61.142355 
L 381.852862 64.13332 
L 377.202655 66.49823 
L 372.719571 68.972513 
L 368.398934 71.560732 
L 364.236066 74.26739 
L 360.226289 77.09687 
L 356.364928 80.053353 
L 352.647304 83.140722 
L 349.06874 86.362451 
L 345.624559 89.72147 
L 342.310083 93.220005 
L 339.120637 96.859405 
L 336.051541 100.639924 
L 333.09812 104.560495 
L 330.255695 108.618463 
L 326.630374 114.234678 
L 323.182978 120.069911 
L 319.902421 126.098904 
L 316.777617 132.286656 
L 313.073749 140.173185 
L 308.896991 149.700788 
L 297.187124 177.044868 
L 294.938587 181.493627 
L 293.285884 184.366196 
L 291.65687 186.791465 
L 290.046868 188.730336 
L 288.981785 189.736386 
L 287.921687 190.504038 
L 286.865188 191.027364 
L 285.810902 191.302279 
L 284.757444 191.326627 
L 283.703427 191.100214 
L 282.647466 190.62482 
L 282.118323 190.294842 
L 281.588175 202.382523 
L 281.056847 198.750591 
L 280.524168 169.857585 
L 279.989963 148.664632 
L 279.454059 135.053761 
L 278.916283 128.926885 
L 279.400243 130.17436 
L 278.891616 138.503055 
L 278.380002 153.627767 
L 277.8652 175.271502 
L 277.347011 203.16573 
L 276.825236 205.508088 
L 276.299675 191.215782 
L 274.698283 186.538632 
L 271.366344 176.411524 
L 264.686161 155.832462 
L 261.346637 146.279746 
L 258.51469 138.756064 
L 255.526394 131.422856 
L 252.368979 124.338027 
L 249.882252 119.212608 
L 247.287826 114.262118 
L 244.580312 109.494546 
L 241.754324 104.91458 
L 238.804474 100.524158 
L 235.725375 96.322965 
L 232.51164 92.308874 
L 229.15788 88.478323 
L 225.658709 84.826652 
L 222.008739 81.348372 
L 218.202583 78.037408 
L 214.234854 74.887284 
L 210.100164 71.891282 
L 205.793126 69.042576 
L 201.308352 66.334323 
L 196.640455 63.759749 
L 191.784048 61.312212 
L 186.733743 58.985242 
L 181.484153 56.77258 
L 176.02989 54.6682 
L 168.42985 52.020845 
L 160.443599 49.542765 
L 152.058368 47.221799 
L 143.261388 45.046609 
L 134.039887 43.006649 
L 124.381096 41.092136 
L 114.272246 39.26437 
L 109.045057 38.554591 
L 106.387573 38.295987 
L 106.387573 38.295987 
" clip-path="url(#p5d238ac47b)" style="fill: none; stroke: #bcbd22; stroke-width: 1.4; stroke-linecap: square"/>
   </g>
   <g id="line2d_38">
    <path d="M 405.398182 51.138661 
L 401.465404 52.202562 
L 397.631407 53.488338 
L 392.061973 55.625533 
L 386.705405 57.836003 
L 381.55607 60.163824 
L 376.608335 62.615724 
L 371.856567 65.198695 
L 367.295131 67.919965 
L 362.918396 70.786954 
L 358.720726 73.807216 
L 354.696489 76.988365 
L 350.840052 80.337974 
L 347.145781 83.863443 
L 343.608042 87.571847 
L 340.221203 91.469725 
L 336.97963 95.562846 
L 333.87769 99.855905 
L 330.909749 104.352172 
L 328.070173 109.053078 
L 325.35333 113.957723 
L 322.753587 119.062327 
L 320.265309 124.359606 
L 317.111259 131.701846 
L 314.132003 139.324541 
L 311.314187 147.16789 
L 307.998599 157.156034 
L 304.288601 169.123474 
L 297.575256 191.022243 
L 295.497891 197.041409 
L 293.978628 200.931709 
L 292.486331 204.200837 
L 291.015366 206.780296 
L 290.043791 208.090524 
L 289.077525 209.054096 
L 288.114897 209.628109 
L 287.154238 209.861695 
L 286.19388 209.752289 
L 285.232154 209.301103 
L 284.267389 208.481401 
L 283.297918 207.288013 
L 282.32207 205.765308 
L 280.842692 202.883118 
L 279.339579 199.339241 
L 277.28877 193.711401 
L 274.631494 185.496103 
L 263.139706 148.588368 
L 260.34953 140.712983 
L 257.400319 133.045339 
L 254.278717 125.648919 
L 251.816353 120.306846 
L 249.243874 115.155131 
L 246.555649 110.201997 
L 243.746043 105.452003 
L 240.809423 100.906681 
L 237.740156 96.565113 
L 234.532609 92.424428 
L 231.181147 88.480234 
L 227.680138 84.726991 
L 224.023948 81.158318 
L 220.206944 77.767248 
L 216.223493 74.546441 
L 212.067961 71.488352 
L 207.734715 68.585366 
L 203.218121 65.829906 
L 198.512545 63.214512 
L 193.612356 60.731906 
L 188.511919 58.375035 
L 183.205601 56.137107 
L 177.687768 54.011606 
L 171.952787 51.992312 
L 163.958624 49.454937 
L 155.555052 47.082667 
L 146.728718 44.86322 
L 137.466269 42.785213 
L 127.754352 40.83812 
L 114.962047 38.557864 
L 112.314512 38.234952 
L 109.636799 38.020695 
L 106.928699 37.941732 
L 104.190004 38.024707 
L 104.190004 38.024707 
" clip-path="url(#p5d238ac47b)" style="fill: none; stroke: #17becf; stroke-width: 1.4; stroke-linecap: square"/>
   </g>
   <g id="patch_3">
    <path d="M 73.56 242.2 
L 73.56 25.8 
" style="fill: none; stroke: #000000; stroke-width: 0.8; stroke-linejoin: miter; stroke-linecap: square"/>
   </g>
   <g id="patch_4">
    <path d="M 73.56 242.2 
L 421.2 242.2 
" style="fill: none; stroke: #000000; stroke-width: 0.8; stroke-linejoin: miter; stroke-linecap: square"/>
   </g>
   <g id="text_17">
    <text style="font-size: 12px; font-family: 'DejaVu Sans', 'Bitstream Vera Sans', 'Computer Modern Sans Serif', 'Lucida Grande', 'Verdana', 'Geneva', 'Lucid', 'Arial', 'Helvetica', 'Avant Garde', sans-serif; text-anchor: middle" x="247.38" y="19.8" transform="rotate(-0 247.38 19.8)">dQ/dE (cathodic) - 1.0C</text>
   </g>
   <g id="legend_1">
    <g id="patch_5">
     <path d="M 79.16 238.2 
L 171.53125 238.2 
Q 173.13125 238.2 173.13125 236.6 
L 173.13125 119.975 
Q 173.13125 118.375 171.53125 118.375 
L 79.16 118.375 
Q 77.56 118.375 77.56 119.975 
L 77.56 236.6 
Q 77.56 238.2 79.16 238.2 
z
" style="fill: #ffffff; opacity: 0.8; stroke: #cccccc; stroke-linejoin: miter"/>
    </g>
    <g id="line2d_39">
     <path d="M 80.76 124.85375 
L 88.76 124.85375 
L 96.76 124.85375 
" style="fill: none; stroke: #1f77b4; stroke-width: 1.4; stroke-linecap: square"/>
    </g>
    <g id="text_18">
     <text style="font-size: 8px; font-family: 'DejaVu Sans', 'Bitstream Vera Sans', 'Computer Modern Sans Serif', 'Lucida Grande', 'Verdana', 'Geneva', 'Lucid', 'Arial', 'Helvetica', 'Avant Garde', sans-serif; text-anchor: start" x="103.16" y="127.65375" transform="rotate(-0 103.16 127.65375)">Cycle 11 (1.00C)</text>
    </g>
    <g id="line2d_40">
     <path d="M 80.76 136.59625 
L 88.76 136.59625 
L 96.76 136.59625 
" style="fill: none; stroke: #ff7f0e; stroke-width: 1.4; stroke-linecap: square"/>
    </g>
    <g id="text_19">
     <text style="font-size: 8px; font-family: 'DejaVu Sans', 'Bitstream Vera Sans', 'Computer Modern Sans Serif', 'Lucida Grande', 'Verdana', 'Geneva', 'Lucid', 'Arial', 'Helvetica', 'Avant Garde', sans-serif; text-anchor: start" x="103.16" y="139.39625" transform="rotate(-0 103.16 139.39625)">Cycle 12 (1.00C)</text>
    </g>
    <g id="line2d_41">
     <path d="M 80.76 148.33875 
L 88.76 148.33875 
L 96.76 148.33875 
" style="fill: none; stroke: #2ca02c; stroke-width: 1.4; stroke-linecap: square"/>
    </g>
    <g id="text_20">
     <text style="font-size: 8px; font-family: 'DejaVu Sans', 'Bitstream Vera Sans', 'Computer Modern Sans Serif', 'Lucida Grande', 'Verdana', 'Geneva', 'Lucid', 'Arial', 'Helvetica', 'Avant Garde', sans-serif; text-anchor: start" x="103.16" y="151.13875" transform="rotate(-0 103.16 151.13875)">Cycle 13 (1.00C)</text>
    </g>
    <g id="line2d_42">
     <path d="M 80.76 160.08125 
L 88.76 160.08125 
L 96.76 160.08125 
" style="fill: none; stroke: #d62728; stroke-width: 1.4; stroke-linecap: square"/>
    </g>
    <g id="text_21">
     <text style="font-size: 8px; font-family: 'DejaVu Sans', 'Bitstream Vera Sans', 'Computer Modern Sans Serif', 'Lucida Grande', 'Verdana', 'Geneva', 'Lucid', 'Arial', 'Helvetica', 'Avant Garde', sans-serif; text-anchor: start" x="103.16" y="162.88125" transform="rotate(-0 103.16 162.88125)">Cycle 14 (1.00C)</text>
    </g>
    <g id="line2d_43">
     <path d="M 80.76 171.82375 
L 88.76 171.82375 
L 96.76 171.82375 
" style="fill: none; stroke: #9467bd; stroke-width: 1.4; stroke-linecap: square"/>
    </g>
    <g id="text_22">
     <text style="font-size: 8px; font-family: 'DejaVu Sans', 'Bitstream Vera Sans', 'Computer Modern Sans Serif', 'Lucida Grande', 'Verdana', 'Geneva', 'Lucid', 'Arial', 'Helvetica', 'Avant Garde', sans-serif; text-anchor: start" x="103.16" y="174.62375" transform="rotate(-0 103.16 174.62375)">Cycle 15 (1.00C)</text>
    </g>
    <g id="line2d_44">
     <path d="M 80.76 183.56625 
L 88.76 183.56625 
L 96.76 183.56625 
" style="fill: none; stroke: #8c564b; stroke-width: 1.4; stroke-linecap: square"/>
    </g>
    <g id="text_23">
     <text style="font-size: 8px; font-family: 'DejaVu Sans', 'Bitstream Vera Sans', 'Computer Modern Sans Serif', 'Lucida Grande', 'Verdana', 'Geneva', 'Lucid', 'Arial', 'Helvetica', 'Avant Garde', sans-serif; text-anchor: start" x="103.16" y="186.36625" transform="rotate(-0 103.16 186.36625)">Cycle 16 (1.00C)</text>
    </g>
    <g id="line2d_45">
     <path d="M 80.76 195.30875 
L 88.76 195.30875 
L 96.76 195.30875 
" style="fill: none; stroke: #e377c2; stroke-width: 1.4; stroke-linecap: square"/>
    </g>
    <g id="text_24">
     <text style="font-size: 8px; font-family: 'DejaVu Sans', 'Bitstream Vera Sans', 'Computer Modern Sans Serif', 'Lucida Grande', 'Verdana', 'Geneva', 'Lucid', 'Arial', 'Helvetica', 'Avant Garde', sans-serif; text-anchor: start" x="103.16" y="198.10875" transform="rotate(-0 103.16 198.10875)">Cycle 17 (1.00C)</text>
    </g>
    <g id="line2d_46">
     <path d="M 80.76 207.05125 
L 88.76 207.05125 
L 96.76 207.05125 
" style="fill: none; stroke: #7f7f7f; stroke-width: 1.4; stroke-linecap: square"/>
    </g>
    <g id="text_25">
     <text style="font-size: 8px; font-family: 'DejaVu Sans', 'Bitstream Vera Sans', 'Computer Modern Sans Serif', 'Lucida Grande', 'Verdana', 'Geneva', 'Lucid', 'Arial', 'Helvetica', 'Avant Garde', sans-serif; text-anchor: start" x="103.16" y="209.85125" transform="rotate(-0 103.16 209.85125)">Cycle 18 (1.00C)</text>
    </g>
    <g id="line2d_47">
     <path d="M 80.76 218.79375 
L 88.76 218.79375 
L 96.76 218.79375 
" style="fill: none; stroke: #bcbd22; stroke-width: 1.4; stroke-linecap: square"/>
    </g>
    <g id="text_26">
     <text style="font-size: 8px; font-family: 'DejaVu Sans', 'Bitstream Vera Sans', 'Computer Modern Sans Serif', 'Lucida Grande', 'Verdana', 'Geneva', 'Lucid', 'Arial', 'Helvetica', 'Avant Garde', sans-serif; text-anchor: start" x="103.16" y="221.59375" transform="rotate(-0 103.16 221.59375)">Cycle 19 (1.00C)</text>
    </g>
    <g id="line2d_48">
     <path d="M 80.76 230.53625 
L 88.76 230.53625 
L 96.76 230.53625 
" style="fill: none; stroke: #17becf; stroke-width: 1.4; stroke-linecap: square"/>
    </g>
    <g id="text_27">
     <text style="font-size: 8px; font-family: 'DejaVu Sans', 'Bitstream Vera Sans', 'Computer Modern Sans Serif', 'Lucida Grande', 'Verdana', 'Geneva', 'Lucid', 'Arial', 'Helvetica', 'Avant Garde', sans-serif; text-anchor: start" x="103.16" y="233.33625" transform="rotate(-0 103.16 233.33625)">Cycle 20 (1.00C)</text>
    </g>
   </g>
  </g>
 </g>
 <defs>
  <clipPath id="p5d238ac47b">
   <rect x="73.56" y="25.8" width="347.64" height="216.4"/>
  </clipPath>
 </defs>
</svg>
