<?xml version="1.0" encoding="utf-8" standalone="no"?>
<!DOCTYPE svg PUBLIC "-//W3C//DTD SVG 1.1//EN"
  "http://www.w3.org/Graphics/SVG/1.1/DTD/svg11.dtd">
<svg xmlns:xlink="http://www.w3.org/1999/xlink" width="432pt" height="288pt" viewBox="0 0 432 288" xmlns="http://www.w3.org/2000/svg" version="1.1">
 <metadata>
  <rdf:RDF xmlns:dc="http://purl.org/dc/elements/1.1/" xmlns:cc="http://creativecommons.org/ns#" xmlns:rdf="http://www.w3.org/1999/02/22-rdf-syntax-ns#">
   <cc:Work>
    <dc:type rdf:resource="http://purl.org/dc/dcmitype/StillImage"/>
    <dc:date>2025-10-07T16:12:47.841435</dc:date>
    <dc:format>image/svg+xml</dc:format>
    <dc:creator>
     <cc:Agent>
      <dc:title>Matplotlib v3.10.3, https://matplotlib.org/</dc:title>
     </cc:Agent>
    </dc:creator>
   </cc:Work>
  </rdf:RDF>
 </metadata>
 <defs>
  <style type="text/css">*{stroke-linejoin: round; stroke-linecap: butt}</style>
 </defs>
 <g id="figure_1">
  <g id="patch_1">
   <path d="M 0 288 
L 432 288 
L 432 0 
L 0 0 
z
" style="fill: #ffffff"/>
  </g>
  <g id="axes_1">
   <g id="patch_2">
    <path d="M 73.56 242.2 
L 421.2 242.2 
L 421.2 25.8 
L 73.56 25.8 
z
" style="fill: #ffffff"/>
   </g>
   <g id="matplotlib.axis_1">
    <g id="xtick_1">
     <g id="line2d_1">
      <path d="M 95.893149 242.2 
L 95.893149 25.8 
" clip-path="url(#p41179d0e58)" style="fill: none; stroke: #b0b0b0; stroke-opacity: 0.25; stroke-width: 0.8; stroke-linecap: square"/>
     </g>
     <g id="line2d_2">
      <defs>
       <path id="mb5462a76dd" d="M 0 0 
L 0 3.5 
" style="stroke: #000000; stroke-width: 0.8"/>
      </defs>
      <g>
       <use xlink:href="#mb5462a76dd" x="95.893149" y="242.2" style="stroke: #000000; stroke-width: 0.8"/>
      </g>
     </g>
     <g id="text_1">
      <text style="font-size: 10px; font-family: 'DejaVu Sans', 'Bitstream Vera Sans', 'Computer Modern Sans Serif', 'Lucida Grande', 'Verdana', 'Geneva', 'Lucid', 'Arial', 'Helvetica', 'Avant Garde', sans-serif; text-anchor: middle" x="95.893149" y="256.798437" transform="rotate(-0 95.893149 256.798437)">2.8</text>
     </g>
    </g>
    <g id="xtick_2">
     <g id="line2d_3">
      <path d="M 147.882712 242.2 
L 147.882712 25.8 
" clip-path="url(#p41179d0e58)" style="fill: none; stroke: #b0b0b0; stroke-opacity: 0.25; stroke-width: 0.8; stroke-linecap: square"/>
     </g>
     <g id="line2d_4">
      <g>
       <use xlink:href="#mb5462a76dd" x="147.882712" y="242.2" style="stroke: #000000; stroke-width: 0.8"/>
      </g>
     </g>
     <g id="text_2">
      <text style="font-size: 10px; font-family: 'DejaVu Sans', 'Bitstream Vera Sans', 'Computer Modern Sans Serif', 'Lucida Grande', 'Verdana', 'Geneva', 'Lucid', 'Arial', 'Helvetica', 'Avant Garde', sans-serif; text-anchor: middle" x="147.882712" y="256.798437" transform="rotate(-0 147.882712 256.798437)">3.0</text>
     </g>
    </g>
    <g id="xtick_3">
     <g id="line2d_5">
      <path d="M 199.872275 242.2 
L 199.872275 25.8 
" clip-path="url(#p41179d0e58)" style="fill: none; stroke: #b0b0b0; stroke-opacity: 0.25; stroke-width: 0.8; stroke-linecap: square"/>
     </g>
     <g id="line2d_6">
      <g>
       <use xlink:href="#mb5462a76dd" x="199.872275" y="242.2" style="stroke: #000000; stroke-width: 0.8"/>
      </g>
     </g>
     <g id="text_3">
      <text style="font-size: 10px; font-family: 'DejaVu Sans', 'Bitstream Vera Sans', 'Computer Modern Sans Serif', 'Lucida Grande', 'Verdana', 'Geneva', 'Lucid', 'Arial', 'Helvetica', 'Avant Garde', sans-serif; text-anchor: middle" x="199.872275" y="256.798437" transform="rotate(-0 199.872275 256.798437)">3.2</text>
     </g>
    </g>
    <g id="xtick_4">
     <g id="line2d_7">
      <path d="M 251.861839 242.2 
L 251.861839 25.8 
" clip-path="url(#p41179d0e58)" style="fill: none; stroke: #b0b0b0; stroke-opacity: 0.25; stroke-width: 0.8; stroke-linecap: square"/>
     </g>
     <g id="line2d_8">
      <g>
       <use xlink:href="#mb5462a76dd" x="251.861839" y="242.2" style="stroke: #000000; stroke-width: 0.8"/>
      </g>
     </g>
     <g id="text_4">
      <text style="font-size: 10px; font-family: 'DejaVu Sans', 'Bitstream Vera Sans', 'Computer Modern Sans Serif', 'Lucida Grande', 'Verdana', 'Geneva', 'Lucid', 'Arial', 'Helvetica', 'Avant Garde', sans-serif; text-anchor: middle" x="251.861839" y="256.798437" transform="rotate(-0 251.861839 256.798437)">3.4</text>
     </g>
    </g>
    <g id="xtick_5">
     <g id="line2d_9">
      <path d="M 303.851402 242.2 
L 303.851402 25.8 
" clip-path="url(#p41179d0e58)" style="fill: none; stroke: #b0b0b0; stroke-opacity: 0.25; stroke-width: 0.8; stroke-linecap: square"/>
     </g>
     <g id="line2d_10">
      <g>
       <use xlink:href="#mb5462a76dd" x="303.851402" y="242.2" style="stroke: #000000; stroke-width: 0.8"/>
      </g>
     </g>
     <g id="text_5">
      <text style="font-size: 10px; font-family: 'DejaVu Sans', 'Bitstream Vera Sans', 'Computer Modern Sans Serif', 'Lucida Grande', 'Verdana', 'Geneva', 'Lucid', 'Arial', 'Helvetica', 'Avant Garde', sans-serif; text-anchor: middle" x="303.851402" y="256.798437" transform="rotate(-0 303.851402 256.798437)">3.6</text>
     </g>
    </g>
    <g id="xtick_6">
     <g id="line2d_11">
      <path d="M 355.840965 242.2 
L 355.840965 25.8 
" clip-path="url(#p41179d0e58)" style="fill: none; stroke: #b0b0b0; stroke-opacity: 0.25; stroke-width: 0.8; stroke-linecap: square"/>
     </g>
     <g id="line2d_12">
      <g>
       <use xlink:href="#mb5462a76dd" x="355.840965" y="242.2" style="stroke: #000000; stroke-width: 0.8"/>
      </g>
     </g>
     <g id="text_6">
      <text style="font-size: 10px; font-family: 'DejaVu Sans', 'Bitstream Vera Sans', 'Computer Modern Sans Serif', 'Lucida Grande', 'Verdana', 'Geneva', 'Lucid', 'Arial', 'Helvetica', 'Avant Garde', sans-serif; text-anchor: middle" x="355.840965" y="256.798437" transform="rotate(-0 355.840965 256.798437)">3.8</text>
     </g>
    </g>
    <g id="xtick_7">
     <g id="line2d_13">
      <path d="M 407.830528 242.2 
L 407.830528 25.8 
" clip-path="url(#p41179d0e58)" style="fill: none; stroke: #b0b0b0; stroke-opacity: 0.25; stroke-width: 0.8; stroke-linecap: square"/>
     </g>
     <g id="line2d_14">
      <g>
       <use xlink:href="#mb5462a76dd" x="407.830528" y="242.2" style="stroke: #000000; stroke-width: 0.8"/>
      </g>
     </g>
     <g id="text_7">
      <text style="font-size: 10px; font-family: 'DejaVu Sans', 'Bitstream Vera Sans', 'Computer Modern Sans Serif', 'Lucida Grande', 'Verdana', 'Geneva', 'Lucid', 'Arial', 'Helvetica', 'Avant Garde', sans-serif; text-anchor: middle" x="407.830528" y="256.798437" transform="rotate(-0 407.830528 256.798437)">4.0</text>
     </g>
    </g>
    <g id="text_8">
     <!-- Math expression removed for LaTeX compatibility -->
     <g transform="translate(230.44 273.515938)">
      <text>
       <tspan x="0" y="-0.359375" style="font-style: oblique; font-size: 14px; font-family: 'DejaVu Sans'">E</tspan>
       <tspan x="8.845703" y="-0.359375" style="font-size: 14px; font-family: 'DejaVu Sans'"> </tspan>
       <tspan x="13.295898" y="-0.359375" style="font-size: 14px; font-family: 'DejaVu Sans'">[</tspan>
       <tspan x="18.757812" y="-0.359375" style="font-size: 14px; font-family: 'DejaVu Sans'">V</tspan>
       <tspan x="28.334961" y="-0.359375" style="font-size: 14px; font-family: 'DejaVu Sans'">]</tspan>
      </text>
     </g>
    </g>
   </g>
   <g id="matplotlib.axis_2">
    <g id="ytick_1">
     <g id="line2d_15">
      <path d="M 73.56 202.964502 
L 421.2 202.964502 
" clip-path="url(#p41179d0e58)" style="fill: none; stroke: #b0b0b0; stroke-opacity: 0.25; stroke-width: 0.8; stroke-linecap: square"/>
     </g>
     <g id="line2d_16">
      <defs>
       <path id="md2e6fb3ac9" d="M 0 0 
L -3.5 0 
" style="stroke: #000000; stroke-width: 0.8"/>
      </defs>
      <g>
       <use xlink:href="#md2e6fb3ac9" x="73.56" y="202.964502" style="stroke: #000000; stroke-width: 0.8"/>
      </g>
     </g>
     <g id="text_9">
      <text style="font-size: 10px; font-family: 'DejaVu Sans', 'Bitstream Vera Sans', 'Computer Modern Sans Serif', 'Lucida Grande', 'Verdana', 'Geneva', 'Lucid', 'Arial', 'Helvetica', 'Avant Garde', sans-serif; text-anchor: end" x="66.56" y="206.76372" transform="rotate(-0 66.56 206.76372)">−400</text>
     </g>
    </g>
    <g id="ytick_2">
     <g id="line2d_17">
      <path d="M 73.56 156.448175 
L 421.2 156.448175 
" clip-path="url(#p41179d0e58)" style="fill: none; stroke: #b0b0b0; stroke-opacity: 0.25; stroke-width: 0.8; stroke-linecap: square"/>
     </g>
     <g id="line2d_18">
      <g>
       <use xlink:href="#md2e6fb3ac9" x="73.56" y="156.448175" style="stroke: #000000; stroke-width: 0.8"/>
      </g>
     </g>
     <g id="text_10">
      <text style="font-size: 10px; font-family: 'DejaVu Sans', 'Bitstream Vera Sans', 'Computer Modern Sans Serif', 'Lucida Grande', 'Verdana', 'Geneva', 'Lucid', 'Arial', 'Helvetica', 'Avant Garde', sans-serif; text-anchor: end" x="66.56" y="160.247393" transform="rotate(-0 66.56 160.247393)">−300</text>
     </g>
    </g>
    <g id="ytick_3">
     <g id="line2d_19">
      <path d="M 73.56 109.931848 
L 421.2 109.931848 
" clip-path="url(#p41179d0e58)" style="fill: none; stroke: #b0b0b0; stroke-opacity: 0.25; stroke-width: 0.8; stroke-linecap: square"/>
     </g>
     <g id="line2d_20">
      <g>
       <use xlink:href="#md2e6fb3ac9" x="73.56" y="109.931848" style="stroke: #000000; stroke-width: 0.8"/>
      </g>
     </g>
     <g id="text_11">
      <text style="font-size: 10px; font-family: 'DejaVu Sans', 'Bitstream Vera Sans', 'Computer Modern Sans Serif', 'Lucida Grande', 'Verdana', 'Geneva', 'Lucid', 'Arial', 'Helvetica', 'Avant Garde', sans-serif; text-anchor: end" x="66.56" y="113.731066" transform="rotate(-0 66.56 113.731066)">−200</text>
     </g>
    </g>
    <g id="ytick_4">
     <g id="line2d_21">
      <path d="M 73.56 63.415521 
L 421.2 63.415521 
" clip-path="url(#p41179d0e58)" style="fill: none; stroke: #b0b0b0; stroke-opacity: 0.25; stroke-width: 0.8; stroke-linecap: square"/>
     </g>
     <g id="line2d_22">
      <g>
       <use xlink:href="#md2e6fb3ac9" x="73.56" y="63.415521" style="stroke: #000000; stroke-width: 0.8"/>
      </g>
     </g>
     <g id="text_12">
      <text style="font-size: 10px; font-family: 'DejaVu Sans', 'Bitstream Vera Sans', 'Computer Modern Sans Serif', 'Lucida Grande', 'Verdana', 'Geneva', 'Lucid', 'Arial', 'Helvetica', 'Avant Garde', sans-serif; text-anchor: end" x="66.56" y="67.214739" transform="rotate(-0 66.56 67.214739)">−100</text>
     </g>
    </g>
    <g id="text_13">
     <!-- Math expression removed for LaTeX compatibility -->
     <g transform="translate(27.532812 161.44) rotate(-90)">
      <text>
       <tspan x="0" y="-7.551563" style="font-style: oblique; font-size: 9.8px; font-family: 'DejaVu Sans'">d</tspan>
       <tspan x="1" y="5.540625" style="font-style: oblique; font-size: 9.8px; font-family: 'DejaVu Sans'">d</tspan>
       <tspan x="6.220703" y="-7.551563" style="font-style: oblique; font-size: 9.8px; font-family: 'DejaVu Sans'">Q</tspan>
       <tspan x="7.220703" y="5.540625" style="font-style: oblique; font-size: 9.8px; font-family: 'DejaVu Sans'">E</tspan>
       <tspan x="15.684375" y="-0.15" style="font-size: 14px; font-family: 'DejaVu Sans'"> </tspan>
       <tspan x="20.13457" y="4.096875" style="font-size: 11.38294px; font-family: 'STIXSizeTwoSym'">[</tspan>
       <tspan x="49.567224" y="4.096875" style="font-size: 11.38294px; font-family: 'STIXSizeTwoSym'">]</tspan>
       <tspan x="25.355701" y="-6.282813" style="font-size: 9.8px; font-family: 'DejaVu Sans'">m</tspan>
       <tspan x="26.355701" y="5.234375" style="font-size: 9.8px; font-family: 'DejaVu Sans'">g</tspan>
       <tspan x="34.485681" y="5.234375" style="font-size: 9.8px; font-family: 'DejaVu Sans'">⋅</tspan>
       <tspan x="34.902087" y="-6.282813" style="font-size: 9.8px; font-family: 'DejaVu Sans'">A</tspan>
       <tspan x="39.510095" y="5.234375" style="font-size: 9.8px; font-family: 'DejaVu Sans'">V</tspan>
       <tspan x="41.606091" y="-6.282813" style="font-size: 9.8px; font-family: 'DejaVu Sans'">h</tspan>
      </text>
      <rect x="0" y="-3.782813" width="13.934375" height="0.875"/>
      <rect x="25.355701" y="-3.782813" width="22.461523" height="0.875"/>
     </g>
    </g>
   </g>
   <g id="line2d_23">
    <path d="M 395.471533 52.725964 
L 390.924191 53.657936 
L 386.524213 54.877037 
L 378.154405 57.560482 
L 372.241666 59.723245 
L 366.630256 62.045547 
L 361.310095 64.541209 
L 356.271101 67.225199 
L 351.503194 70.113658 
L 346.996294 73.223901 
L 344.131719 75.429672 
L 341.37568 77.74791 
L 338.725191 80.184518 
L 336.177263 82.745547 
L 333.728911 85.437151 
L 331.377148 88.265535 
L 329.118986 91.236876 
L 326.951439 94.357237 
L 324.87152 97.632445 
L 322.876242 101.067953 
L 320.962619 104.668664 
L 318.238752 110.388292 
L 315.681807 116.498173 
L 313.281703 123.000314 
L 311.028359 129.886429 
L 308.911695 137.134543 
L 306.92163 144.705119 
L 304.447719 155.191297 
L 302.157058 165.920653 
L 298.517474 184.286431 
L 296.145626 195.967385 
L 294.349017 203.661463 
L 293.04472 208.121997 
L 292.190141 210.363089 
L 291.344039 211.965092 
L 290.503428 212.891322 
L 290.084247 213.095998 
L 289.665319 213.126622 
L 289.246271 212.983029 
L 288.826728 212.665985 
L 287.984666 211.519181 
L 287.136147 209.70588 
L 286.708532 208.561882 
L 286.278183 206.138587 
L 285.844727 205.274113 
L 285.40779 206.262033 
L 284.521978 208.759884 
L 285.019158 209.224621 
L 284.590022 208.512864 
L 284.154772 206.167068 
L 283.713004 201.756005 
L 282.808308 195.746495 
L 279.377511 173.929236 
L 277.194113 161.414173 
L 275.43047 152.314763 
L 273.546691 143.582746 
L 271.531927 135.288152 
L 269.375329 127.471809 
L 267.066047 120.151826 
L 264.593231 113.329352 
L 262.848478 109.052395 
L 261.023006 104.986444 
L 259.113602 101.124902 
L 257.11705 97.460321 
L 255.030136 93.984693 
L 252.849645 90.689669 
L 250.572363 87.566747 
L 248.195075 84.607412 
L 245.714567 81.803249 
L 243.127623 79.146024 
L 240.431029 76.627746 
L 237.62157 74.240711 
L 234.696032 71.977534 
L 231.6512 69.831162 
L 228.48386 67.794889 
L 225.190797 65.862354 
L 220.008438 63.144986 
L 214.52512 60.628666 
L 208.729993 58.296115 
L 202.612208 56.131581 
L 196.160915 54.12073 
L 189.365264 52.250535 
L 182.214406 50.509169 
L 174.697493 48.885896 
L 166.803674 47.370974 
L 155.673531 45.504462 
L 143.82833 43.796207 
L 131.242351 42.229718 
L 117.889879 40.763855 
L 110.918171 40.251365 
L 107.357043 40.158618 
L 103.745196 40.216692 
L 103.745196 40.216692 
" clip-path="url(#p41179d0e58)" style="fill: none; stroke: #1f77b4; stroke-width: 1.4; stroke-linecap: square"/>
   </g>
   <g id="line2d_24">
    <path d="M 396.92631 51.219106 
L 392.1801 52.128748 
L 387.590536 53.319765 
L 378.868566 55.945879 
L 372.714524 58.067108 
L 366.880591 60.349364 
L 361.355985 62.807202 
L 356.129924 65.456484 
L 351.191629 68.314441 
L 348.053977 70.344818 
L 345.036234 72.482055 
L 342.135206 74.732285 
L 339.347698 77.101898 
L 336.670516 79.597515 
L 334.100465 82.22596 
L 331.634351 84.994212 
L 329.268979 87.909346 
L 327.001156 90.978453 
L 324.827685 94.208535 
L 322.745374 97.606378 
L 320.751027 101.178387 
L 318.841451 104.930385 
L 317.01345 108.867369 
L 314.417414 115.127788 
L 311.986955 121.81927 
L 309.711291 128.937551 
L 307.57964 136.463706 
L 305.581221 144.359549 
L 303.705253 152.56256 
L 301.375807 163.813902 
L 298.704241 177.921842 
L 294.867297 198.432459 
L 293.532145 204.671262 
L 292.236788 209.716394 
L 291.389999 212.302335 
L 290.552911 214.202006 
L 289.722329 215.364318 
L 289.308479 215.664057 
L 288.895057 215.773519 
L 288.481665 215.692068 
L 288.067903 215.420178 
L 287.653371 214.959421 
L 286.820401 213.477098 
L 285.979562 211.279519 
L 285.555194 208.768103 
L 285.127659 207.84174 
L 284.696561 208.8457 
L 283.822072 211.261909 
L 284.300703 211.620826 
L 283.876407 210.756076 
L 283.445787 208.208416 
L 283.008417 203.545813 
L 282.111712 197.197043 
L 278.6977 174.195241 
L 276.513605 161.086132 
L 274.743255 151.604259 
L 272.846687 142.547991 
L 270.812351 133.986361 
L 268.628694 125.956437 
L 266.284166 118.470999 
L 264.626069 113.781355 
L 262.887917 109.327161 
L 261.066286 105.101984 
L 259.157755 101.09808 
L 257.1589 97.3068 
L 255.066298 93.718914 
L 252.876528 90.32487 
L 250.586166 87.115001 
L 248.19179 84.079683 
L 245.689976 81.209458 
L 243.077303 78.495116 
L 240.350347 75.927766 
L 237.505686 73.498876 
L 234.539897 71.200301 
L 231.449558 69.0243 
L 228.231245 66.963538 
L 224.881536 65.011087 
L 221.397008 63.160416 
L 215.909944 60.561916 
L 210.100285 58.159518 
L 203.956479 55.935815 
L 197.466975 53.875032 
L 190.620221 51.962891 
L 183.404666 50.186476 
L 175.808757 48.534112 
L 167.820944 46.995241 
L 159.429674 45.560316 
L 147.59375 43.793969 
L 134.992652 42.178905 
L 118.123539 40.316845 
L 111.017172 39.68144 
L 107.385408 39.470973 
L 103.700686 39.378058 
L 99.962579 39.433714 
L 99.962579 39.433714 
" clip-path="url(#p41179d0e58)" style="fill: none; stroke: #ff7f0e; stroke-width: 1.4; stroke-linecap: square"/>
   </g>
   <g id="line2d_25">
    <path d="M 400.097945 48.404179 
L 394.932312 49.277389 
L 389.94464 50.423393 
L 380.488488 52.961044 
L 373.83621 55.022164 
L 367.547165 57.250938 
L 361.608959 59.664135 
L 356.009201 62.280333 
L 352.457935 64.147301 
L 349.047911 66.120181 
L 345.775455 68.206011 
L 342.636897 70.41228 
L 339.628565 72.746938 
L 336.746786 75.218401 
L 333.987889 77.835544 
L 331.348201 80.607692 
L 328.824052 83.544582 
L 326.411768 86.656326 
L 324.107678 89.953328 
L 321.90811 93.446192 
L 319.809392 97.145575 
L 317.807853 101.062006 
L 315.89982 105.205642 
L 314.081621 109.58596 
L 312.349585 114.211363 
L 310.700039 119.088698 
L 309.129312 124.222661 
L 306.912974 132.407812 
L 304.853324 141.163188 
L 302.937969 150.451842 
L 301.154515 160.201414 
L 298.960339 173.707321 
L 296.47164 190.764838 
L 292.941546 215.280686 
L 291.720738 222.393447 
L 290.928125 226.19679 
L 290.148237 229.143996 
L 289.377401 231.101331 
L 288.99423 231.682864 
L 288.611945 232.026933 
L 288.230088 232.130904 
L 287.848198 231.993978 
L 287.465818 231.61721 
L 287.082488 231.00349 
L 286.697749 230.126272 
L 285.922208 227.571394 
L 285.135525 224.129572 
L 283.926573 217.475595 
L 282.241366 206.394377 
L 276.948061 169.817793 
L 274.696385 156.447927 
L 272.864318 146.862051 
L 270.895644 137.76938 
L 268.777971 129.22771 
L 266.498906 121.262939 
L 264.883747 116.275546 
L 263.187679 111.542419 
L 261.407029 107.057554 
L 259.538126 102.813153 
L 257.577297 98.800147 
L 255.520871 95.008629 
L 253.365176 91.428196 
L 251.10654 88.048219 
L 248.741291 84.858051 
L 246.265758 81.847186 
L 243.676267 79.005378 
L 240.969148 76.322719 
L 238.140728 73.789702 
L 235.187335 71.397256 
L 232.105298 69.136765 
L 228.890945 67.00008 
L 225.540603 64.979513 
L 222.050601 63.067833 
L 218.417267 61.258252 
L 212.690486 58.721508 
L 206.620554 56.380488 
L 200.195077 54.21732 
L 193.401662 52.215877 
L 186.227918 50.361623 
L 178.661451 48.641458 
L 170.689869 47.043581 
L 162.300779 45.557356 
L 150.44445 43.732967 
L 137.794477 42.069948 
L 124.321485 40.550685 
L 113.658964 39.467819 
L 106.278124 38.95471 
L 102.504579 38.859152 
L 98.675006 38.912665 
L 98.675006 38.912665 
" clip-path="url(#p41179d0e58)" style="fill: none; stroke: #2ca02c; stroke-width: 1.4; stroke-linecap: square"/>
   </g>
   <g id="line2d_26">
    <path d="M 399.633033 48.530961 
L 394.485293 49.401847 
L 389.513863 50.544192 
L 380.085243 53.071245 
L 373.449274 55.121035 
L 367.172816 57.334752 
L 361.243472 59.728268 
L 355.648847 62.31905 
L 352.09893 64.165225 
L 348.688595 66.113677 
L 345.414169 68.170888 
L 342.271978 70.343705 
L 339.258351 72.639342 
L 336.369614 75.065363 
L 333.602095 77.629669 
L 330.95212 80.340462 
L 328.416017 83.206198 
L 325.990113 86.235513 
L 323.670735 89.437135 
L 321.454211 92.819754 
L 319.336867 96.39186 
L 317.31503 100.161529 
L 315.385029 104.136169 
L 313.543189 108.322185 
L 311.785839 112.724583 
L 310.109304 117.346489 
L 307.737999 124.691569 
L 305.527871 132.519656 
L 303.466523 140.797256 
L 301.541561 149.462202 
L 299.165675 161.442357 
L 296.461028 176.580918 
L 292.611242 198.606596 
L 291.278733 205.195449 
L 289.987574 210.381847 
L 289.143652 212.928488 
L 288.308927 214.642233 
L 287.893865 215.160153 
L 287.479725 215.47297 
L 287.066047 215.578497 
L 286.652372 215.475993 
L 286.238242 215.166177 
L 285.823198 214.651215 
L 285.406779 213.918916 
L 284.567984 211.76931 
M 280.665828 196.438054 
L 277.743536 175.343672 
L 275.56911 161.305069 
L 273.797229 151.168752 
L 271.889743 141.522944 
L 269.833426 132.448981 
L 267.615051 123.987493 
L 266.039571 118.692898 
L 264.382267 113.673162 
L 262.639222 108.922672 
L 260.806516 104.433468 
L 258.88023 100.195924 
L 256.856445 96.199294 
L 254.731243 92.432155 
L 252.500704 88.882748 
L 250.16091 85.539246 
L 247.707942 82.389948 
L 245.13788 79.423433 
L 242.446806 76.628659 
L 239.630801 73.995039 
L 236.685946 71.512483 
L 233.608322 69.171423 
L 230.39401 66.962829 
L 227.039091 64.8782 
L 223.539646 62.909556 
L 219.891757 61.049425 
L 216.091504 59.290822 
L 210.096871 56.829132 
L 203.737375 54.561115 
L 196.999792 52.468616 
L 189.870894 50.535325 
L 182.337454 48.746596 
L 174.386248 47.089285 
L 166.004047 45.551584 
L 157.177627 44.122888 
L 144.695197 42.371183 
L 131.368177 40.776419 
L 117.165217 39.316214 
L 109.725462 38.6111 
L 102.054965 38.101493 
L 98.131963 38.003933 
L 94.149806 38.052608 
L 94.149806 38.052608 
" clip-path="url(#p41179d0e58)" style="fill: none; stroke: #d62728; stroke-width: 1.4; stroke-linecap: square"/>
   </g>
   <g id="line2d_27">
    <path d="M 402.678849 46.106581 
L 397.109626 46.947613 
L 391.739491 48.053419 
L 381.579642 50.510219 
L 374.451042 52.514193 
L 367.727756 54.689498 
L 361.395572 57.05436 
L 357.384377 58.746206 
L 353.536478 60.537911 
L 349.847663 62.436578 
L 346.313724 64.449839 
L 342.930448 66.585877 
L 339.693624 68.853456 
L 336.599043 71.261933 
L 333.642493 73.82128 
L 330.819763 76.542081 
L 328.126643 79.435523 
L 325.558922 82.513366 
L 323.112388 85.787888 
L 320.782832 89.271798 
L 318.566042 92.978109 
L 316.457808 96.919953 
L 314.453918 101.110334 
L 312.550162 105.561793 
L 310.742329 110.285978 
L 309.026209 115.293083 
L 307.39759 120.591153 
L 305.852262 126.185215 
L 303.681229 135.131983 
L 301.673914 144.724959 
L 299.816105 154.905049 
L 298.093592 165.561726 
L 295.982805 180.197887 
L 290.202253 222.165398 
L 289.409473 226.320303 
L 288.630506 229.509287 
L 287.861141 231.499324 
L 287.478743 232.057818 
L 287.097166 232.346783 
L 286.715884 232.363636 
L 286.334371 232.10823 
L 285.952101 231.582857 
L 285.568546 230.792202 
L 284.795478 228.221683 
L 284.010959 224.60691 
L 282.803495 217.463875 
L 281.114158 205.432597 
L 276.285108 169.626649 
L 274.609498 158.832798 
L 272.803903 148.458349 
L 270.85411 138.636535 
L 268.745909 129.444069 
L 267.245419 123.683385 
L 265.663999 118.219825 
L 263.997436 113.050496 
L 262.241522 108.168925 
L 260.392044 103.566023 
L 258.444792 99.230878 
L 256.395555 95.151388 
L 254.240123 91.314758 
L 251.974284 87.707894 
L 249.593828 84.317686 
L 247.094544 81.131238 
L 244.472221 78.136013 
L 241.722648 75.319954 
L 238.841615 72.671547 
L 235.82491 70.179866 
L 232.668324 67.834597 
L 229.367645 65.626037 
L 225.918662 63.545093 
L 222.317164 61.583258 
L 218.558941 59.732595 
L 214.639782 57.985707 
L 210.555476 56.335713 
L 204.110156 54.028522 
L 197.269569 51.905332 
L 190.019504 49.948503 
L 182.34575 48.142258 
L 174.234096 46.472489 
L 165.670329 44.926573 
L 156.640238 43.49321 
L 147.129612 42.162279 
L 133.676715 40.531489 
L 119.310582 39.047772 
L 103.997526 37.695573 
L 100.017358 37.483395 
L 95.975375 37.385686 
L 91.871052 37.433347 
L 91.871052 37.433347 
" clip-path="url(#p41179d0e58)" style="fill: none; stroke: #9467bd; stroke-width: 1.4; stroke-linecap: square"/>
   </g>
   <g id="line2d_28">
    <path d="M 401.877555 46.753581 
L 396.424891 47.598739 
L 391.164099 48.708704 
L 381.201774 51.16956 
L 374.203273 53.171253 
L 367.59507 55.3384 
L 361.363361 57.687625 
L 355.494339 60.237299 
L 351.776334 62.058362 
L 348.209297 63.983959 
L 344.789139 66.020981 
L 341.511768 68.176728 
L 338.373095 70.458907 
L 335.369028 72.875627 
L 332.495478 75.435371 
L 329.748355 78.146969 
L 327.123567 81.019532 
L 324.617024 84.062382 
L 322.224636 87.284939 
L 319.942312 90.696569 
L 317.765963 94.306397 
L 315.691497 98.123054 
L 313.714824 102.15436 
L 311.831854 106.406932 
L 310.038497 110.885702 
L 308.330661 115.593326 
L 305.920314 123.082176 
L 303.679382 131.066404 
L 301.594061 139.501611 
L 299.650545 148.308792 
L 297.255917 160.412263 
L 294.019059 178.400506 
L 291.576869 191.842864 
L 290.194279 198.544138 
L 288.856857 203.805053 
L 287.98352 206.373385 
L 287.120032 208.052889 
L 286.690703 208.549163 
L 286.262302 208.832913 
L 285.834319 208.901999 
L 285.406241 208.755906 
L 284.977558 208.39575 
L 284.547759 207.82426 
L 284.116331 207.014212 
L 283.682763 205.955972 
L 283.246545 219.329903 
M 279.626347 191.158622 
L 276.609502 170.030639 
L 274.355649 155.963256 
L 272.513061 145.830183 
L 270.523651 136.216601 
L 268.372691 127.205115 
L 266.841693 121.552442 
L 265.227985 116.188252 
L 263.527202 111.11072 
L 261.73498 106.31428 
L 259.846955 101.790619 
L 257.858763 97.529479 
L 255.766039 93.519314 
L 253.564419 89.747802 
L 251.24954 86.202248 
L 248.817036 82.869891 
L 246.262544 79.738128 
L 243.5817 76.794682 
L 240.77014 74.027718 
L 237.823498 71.42592 
L 234.737412 68.978537 
L 231.507517 66.675411 
L 228.129449 64.50698 
L 224.598843 62.464277 
L 220.911336 60.538909 
L 217.062563 58.723046 
L 213.04816 57.009388 
L 208.863763 55.391141 
L 202.258882 53.12897 
L 195.246967 51.047903 
L 187.813287 49.13053 
L 179.943113 47.361281 
L 171.621718 45.726232 
L 162.834371 44.212933 
L 153.566344 42.810239 
L 140.435791 41.094936 
L 126.389598 39.537788 
L 111.392849 38.117329 
L 103.527107 37.425026 
L 95.410633 36.937386 
L 91.257008 36.827694 
L 91.257008 36.827694 
" clip-path="url(#p41179d0e58)" style="fill: none; stroke: #8c564b; stroke-width: 1.4; stroke-linecap: square"/>
   </g>
   <g id="line2d_29">
    <path d="M 404.57793 44.748024 
L 398.737721 45.57016 
L 393.111428 46.652309 
L 382.482044 49.061294 
L 375.037053 51.031159 
L 368.026429 53.17414 
L 361.434527 55.509167 
L 357.26482 57.182918 
L 353.269621 58.958297 
L 349.444293 60.842735 
L 345.784199 62.844222 
L 342.284704 64.971345 
L 338.94117 67.233306 
L 335.748963 69.639945 
L 332.703444 72.201752 
L 329.799979 74.929865 
L 327.03393 77.836051 
L 324.400662 80.932667 
L 321.895538 84.232587 
L 319.513922 87.74909 
L 317.251177 91.495695 
L 315.102668 95.485933 
L 313.063757 99.733034 
L 311.129809 104.24951 
L 309.296187 109.046615 
L 307.558255 114.133656 
L 305.911377 119.517125 
L 304.350916 125.199641 
L 302.162115 134.276807 
L 300.141673 143.98113 
L 298.273944 154.227005 
L 296.543279 164.867022 
L 294.421893 179.268956 
L 290.245867 208.383879 
L 288.981943 215.430093 
L 288.161384 218.976985 
L 287.353062 221.462437 
L 286.95204 222.227021 
L 286.552339 222.71924 
L 286.153379 222.934539 
L 285.75458 222.870906 
L 285.355363 222.528915 
L 284.955149 221.911715 
L 284.553357 221.019288 
L 283.742723 218.275891 
L 282.918826 214.51066 
L 281.64797 207.188105 
L 279.863801 195.043809 
L 275.848851 166.864771 
L 273.543888 152.680025 
L 271.65459 142.506371 
L 269.610269 132.8905 
L 267.395277 123.910134 
L 265.816072 118.293847 
L 264.149422 112.976437 
L 262.390692 107.954322 
L 260.535244 103.220299 
L 258.578443 98.764562 
L 256.515653 94.575523 
L 254.342236 90.640465 
L 252.053558 86.946062 
L 249.64498 83.478758 
L 247.111868 80.225071 
L 244.449585 77.171798 
L 241.653494 74.306171 
L 238.718959 71.615959 
L 235.641344 69.08953 
L 232.416013 66.71589 
L 229.038329 64.484691 
L 225.503656 62.386237 
L 221.807357 60.411464 
L 217.944797 58.55192 
L 213.911339 56.799739 
L 209.702346 55.147613 
L 203.049589 52.842317 
L 195.9758 50.726132 
L 188.465332 48.780442 
L 180.502537 46.988649 
L 172.071768 45.33595 
L 163.157378 43.809141 
L 153.743718 42.396439 
L 143.815142 41.087318 
L 129.749013 39.486824 
L 114.702568 38.03132 
L 106.800136 37.325253 
L 98.638717 36.808493 
L 94.459437 36.706014 
L 90.213673 36.749295 
L 90.213673 36.749295 
" clip-path="url(#p41179d0e58)" style="fill: none; stroke: #e377c2; stroke-width: 1.4; stroke-linecap: square"/>
   </g>
   <g id="line2d_30">
    <path d="M 403.236295 45.535477 
L 397.553101 46.367186 
L 392.074917 47.460657 
L 381.715641 49.889576 
L 374.450973 51.870025 
L 367.602161 54.01866 
L 361.154064 56.352819 
L 357.070475 58.021393 
L 353.153768 59.78709 
L 349.399455 61.656496 
L 345.803051 63.636621 
L 342.36007 65.734904 
L 339.066027 67.959213 
L 335.916434 70.317838 
L 332.906807 72.819465 
L 330.032659 75.473143 
L 327.289504 78.288224 
L 324.672857 81.274273 
L 322.178232 84.440955 
L 319.801142 87.79787 
L 317.537102 91.354345 
L 315.381626 95.119152 
L 313.330227 99.100166 
L 311.37842 103.303925 
L 309.52172 107.735092 
L 307.75564 112.395804 
L 306.075693 117.284898 
L 303.707463 125.033628 
L 301.5078 133.241593 
L 299.461567 141.832232 
L 296.945754 153.665372 
L 294.092037 168.424894 
L 291.001927 184.405975 
L 289.558325 190.899681 
L 288.623219 194.435548 
L 287.704715 197.227996 
L 286.798327 199.202349 
L 286.348275 199.80971 
L 285.89957 200.21005 
L 285.451651 200.400142 
L 285.003957 200.378443 
L 284.555928 200.14512 
L 284.107003 199.702051 
L 283.656622 199.05144 
L 283.204222 198.139562 
L 282.749244 211.031641 
L 282.291128 200.14666 
L 281.829311 157.854423 
L 281.363234 130.303571 
L 280.892336 116.957801 
L 281.2961 117.308074 
L 280.842446 130.873261 
L 280.381423 157.20055 
L 279.912431 195.865612 
L 279.434872 202.339068 
L 278.948147 184.194294 
L 275.801742 163.514301 
L 273.444912 149.728538 
L 271.513933 139.810765 
L 269.42496 130.418919 
L 267.161816 121.635381 
L 265.548302 116.137286 
L 263.845394 110.928929 
L 262.048301 106.007693 
L 260.152227 101.367223 
L 258.152381 96.998454 
L 256.043968 92.890447 
L 253.822195 89.031056 
L 251.48227 85.407446 
L 249.019398 82.0065 
L 246.428786 78.815116 
L 243.705641 75.82043 
L 240.84517 73.009972 
L 237.842579 70.371779 
L 234.693075 67.894457 
L 231.391864 65.567226 
L 227.934154 63.379932 
L 224.315151 61.323053 
L 220.530062 59.387683 
L 216.574092 57.565517 
L 212.44245 55.848821 
L 208.130341 54.230407 
L 201.313318 51.972602 
L 194.063283 49.900511 
L 186.364058 47.995823 
L 178.199467 46.24221 
L 169.553331 44.625111 
L 160.409474 43.13154 
L 150.751717 41.749908 
L 137.047347 40.064132 
L 122.362272 38.537529 
L 106.658145 37.136936 
L 98.411953 36.502859 
L 89.896619 36.027459 
L 89.896619 36.027459 
" clip-path="url(#p41179d0e58)" style="fill: none; stroke: #7f7f7f; stroke-width: 1.4; stroke-linecap: square"/>
   </g>
   <g id="line2d_31">
    <path d="M 405.398182 43.767733 
L 399.346306 44.582334 
L 393.521899 45.655806 
L 382.535217 48.050446 
L 374.854608 50.013696 
L 367.634476 52.154379 
L 360.857712 54.492411 
L 356.577736 56.171675 
L 352.482138 57.955823 
L 348.565849 59.852713 
L 344.823799 61.870803 
L 341.25092 64.019188 
L 337.84214 66.307619 
L 334.592391 68.746521 
L 331.496604 71.346998 
L 328.549708 74.120824 
L 325.746634 77.08041 
L 323.082312 80.238735 
L 320.551674 83.609251 
L 318.149649 87.205722 
L 315.871168 91.042003 
L 313.711161 95.131738 
L 311.66456 99.487937 
L 309.726293 104.122446 
L 307.891292 109.045234 
L 306.154488 114.263519 
L 304.51081 119.780662 
L 302.955189 125.594845 
L 300.775775 134.852025 
L 298.765974 144.689089 
L 296.908675 154.980096 
L 294.63993 169.049215 
L 289.754973 200.797945 
L 288.438672 207.463925 
L 287.583549 210.741198 
L 286.740439 212.871139 
L 286.321805 213.497839 
L 285.904274 213.84755 
L 285.487211 213.916937 
L 285.069984 213.705351 
L 284.651957 213.214848 
L 284.232498 212.450136 
L 283.810974 211.371542 
L 282.959191 208.336894 
L 282.09154 204.327339 
L 280.74922 196.731366 
L 278.856605 184.429978 
L 275.147821 160.159597 
L 273.359423 149.713072 
L 271.426958 139.63201 
L 269.333319 130.077122 
L 267.061394 121.142564 
L 265.439281 115.553835 
L 263.725256 110.26407 
L 261.91425 105.271017 
L 260.001193 100.568271 
L 257.981015 96.146433 
L 255.848648 91.994035 
L 253.599021 88.098289 
L 251.227066 84.44566 
L 248.727711 81.022312 
L 246.095889 77.814435 
L 243.326529 74.808485 
L 240.414562 71.991357 
L 237.354918 69.350497 
L 234.142528 66.873974 
L 230.772322 64.550522 
L 227.239231 62.369552 
L 223.538184 60.321152 
L 219.664114 58.396073 
L 215.611949 56.585706 
L 211.376621 54.882052 
L 206.953059 53.27769 
L 199.953691 51.042417 
L 192.502282 48.994106 
L 184.581722 47.113982 
L 176.174902 45.38535 
L 167.264713 43.793357 
L 157.834044 42.324789 
L 147.865786 40.967881 
L 133.708953 39.314406 
L 118.525433 37.81914 
L 102.274668 36.450078 
L 98.040467 36.228031 
L 93.736395 36.120554 
L 89.361818 36.159559 
L 89.361818 36.159559 
" clip-path="url(#p41179d0e58)" style="fill: none; stroke: #bcbd22; stroke-width: 1.4; stroke-linecap: square"/>
   </g>
   <g id="line2d_32">
    <path d="M 403.370936 44.820684 
L 397.543597 45.65059 
L 391.931219 46.742666 
L 381.331994 49.172336 
L 373.910868 51.157276 
L 366.924425 53.314389 
L 360.356339 55.661689 
L 356.201973 57.34198 
L 352.22145 59.122031 
L 348.409934 61.008672 
L 344.762586 63.009159 
L 341.274569 65.13118 
L 337.941046 67.382838 
L 334.75718 69.772641 
L 331.718133 72.309459 
L 328.819068 75.002469 
L 326.055148 77.861071 
L 323.421535 80.894773 
L 320.913393 84.11303 
L 318.525884 87.525031 
L 316.25417 91.139428 
L 314.093414 94.963987 
L 312.03878 99.005145 
L 310.085429 103.267472 
L 308.228525 107.753014 
L 306.463229 112.460507 
L 303.976472 119.92451 
L 301.668625 127.83246 
L 299.523363 136.106996 
L 297.52436 144.626155 
L 294.473366 158.868397 
L 290.66442 176.822015 
L 289.151823 182.891744 
L 288.171269 186.142006 
L 287.207345 188.656173 
L 286.255215 190.328857 
L 285.782062 190.835961 
L 285.310042 191.131668 
L 284.838552 191.213639 
L 284.366988 191.081234 
L 283.894744 190.735516 
L 283.421215 190.179235 
L 282.945798 189.400282 
L 282.467887 201.727436 
L 281.986878 191.451033 
L 281.502167 151.287933 
L 281.013147 125.171416 
L 280.519216 112.576224 
L 280.931003 113.003871 
L 280.45611 125.983374 
L 279.973537 151.071727 
L 279.482638 187.854128 
L 278.982763 194.005437 
L 278.473264 176.703977 
L 275.177855 156.790247 
L 273.347702 146.764085 
L 271.372573 137.045041 
L 269.23496 127.798989 
L 266.917354 119.1266 
L 265.263641 113.690064 
L 263.516963 108.536665 
L 261.672131 103.665925 
L 259.723958 99.073063 
L 257.667256 94.750136 
L 255.496838 90.686977 
L 253.207517 86.871942 
L 250.794104 83.292506 
L 248.251412 79.935712 
L 245.574253 76.788517 
L 242.75744 73.838049 
L 239.795784 71.071785 
L 236.6841 68.477679 
L 233.417198 66.044243 
L 229.989891 63.760595 
L 226.396993 61.616485 
L 222.633314 59.602296 
L 218.693667 57.709039 
L 214.572865 55.928332 
L 210.265721 54.252377 
L 205.767046 52.673931 
L 198.648566 50.474531 
L 191.069962 48.458891 
L 183.013726 46.608627 
L 174.46235 44.907369 
L 165.398326 43.340548 
L 155.804144 41.895187 
L 145.662299 40.55973 
L 131.257653 38.932431 
L 115.806755 37.460896 
L 99.268103 36.123629 
L 90.5779 35.636364 
L 90.5779 35.636364 
" clip-path="url(#p41179d0e58)" style="fill: none; stroke: #17becf; stroke-width: 1.4; stroke-linecap: square"/>
   </g>
   <g id="patch_3">
    <path d="M 73.56 242.2 
L 73.56 25.8 
" style="fill: none; stroke: #000000; stroke-width: 0.8; stroke-linejoin: miter; stroke-linecap: square"/>
   </g>
   <g id="patch_4">
    <path d="M 73.56 242.2 
L 421.2 242.2 
" style="fill: none; stroke: #000000; stroke-width: 0.8; stroke-linejoin: miter; stroke-linecap: square"/>
   </g>
   <g id="text_14">
    <text style="font-size: 12px; font-family: 'DejaVu Sans', 'Bitstream Vera Sans', 'Computer Modern Sans Serif', 'Lucida Grande', 'Verdana', 'Geneva', 'Lucid', 'Arial', 'Helvetica', 'Avant Garde', sans-serif; text-anchor: middle" x="247.38" y="19.8" transform="rotate(-0 247.38 19.8)">dQ/dE (cathodic) - 2.0C</text>
   </g>
   <g id="legend_1">
    <g id="patch_5">
     <path d="M 79.16 238.2 
L 171.53125 238.2 
Q 173.13125 238.2 173.13125 236.6 
L 173.13125 119.975 
Q 173.13125 118.375 171.53125 118.375 
L 79.16 118.375 
Q 77.56 118.375 77.56 119.975 
L 77.56 236.6 
Q 77.56 238.2 79.16 238.2 
z
" style="fill: #ffffff; opacity: 0.8; stroke: #cccccc; stroke-linejoin: miter"/>
    </g>
    <g id="line2d_33">
     <path d="M 80.76 124.85375 
L 88.76 124.85375 
L 96.76 124.85375 
" style="fill: none; stroke: #1f77b4; stroke-width: 1.4; stroke-linecap: square"/>
    </g>
    <g id="text_15">
     <text style="font-size: 8px; font-family: 'DejaVu Sans', 'Bitstream Vera Sans', 'Computer Modern Sans Serif', 'Lucida Grande', 'Verdana', 'Geneva', 'Lucid', 'Arial', 'Helvetica', 'Avant Garde', sans-serif; text-anchor: start" x="103.16" y="127.65375" transform="rotate(-0 103.16 127.65375)">Cycle 21 (2.00C)</text>
    </g>
    <g id="line2d_34">
     <path d="M 80.76 136.59625 
L 88.76 136.59625 
L 96.76 136.59625 
" style="fill: none; stroke: #ff7f0e; stroke-width: 1.4; stroke-linecap: square"/>
    </g>
    <g id="text_16">
     <text style="font-size: 8px; font-family: 'DejaVu Sans', 'Bitstream Vera Sans', 'Computer Modern Sans Serif', 'Lucida Grande', 'Verdana', 'Geneva', 'Lucid', 'Arial', 'Helvetica', 'Avant Garde', sans-serif; text-anchor: start" x="103.16" y="139.39625" transform="rotate(-0 103.16 139.39625)">Cycle 22 (2.00C)</text>
    </g>
    <g id="line2d_35">
     <path d="M 80.76 148.33875 
L 88.76 148.33875 
L 96.76 148.33875 
" style="fill: none; stroke: #2ca02c; stroke-width: 1.4; stroke-linecap: square"/>
    </g>
    <g id="text_17">
     <text style="font-size: 8px; font-family: 'DejaVu Sans', 'Bitstream Vera Sans', 'Computer Modern Sans Serif', 'Lucida Grande', 'Verdana', 'Geneva', 'Lucid', 'Arial', 'Helvetica', 'Avant Garde', sans-serif; text-anchor: start" x="103.16" y="151.13875" transform="rotate(-0 103.16 151.13875)">Cycle 23 (2.00C)</text>
    </g>
    <g id="line2d_36">
     <path d="M 80.76 160.08125 
L 88.76 160.08125 
L 96.76 160.08125 
" style="fill: none; stroke: #d62728; stroke-width: 1.4; stroke-linecap: square"/>
    </g>
    <g id="text_18">
     <text style="font-size: 8px; font-family: 'DejaVu Sans', 'Bitstream Vera Sans', 'Computer Modern Sans Serif', 'Lucida Grande', 'Verdana', 'Geneva', 'Lucid', 'Arial', 'Helvetica', 'Avant Garde', sans-serif; text-anchor: start" x="103.16" y="162.88125" transform="rotate(-0 103.16 162.88125)">Cycle 24 (2.00C)</text>
    </g>
    <g id="line2d_37">
     <path d="M 80.76 171.82375 
L 88.76 171.82375 
L 96.76 171.82375 
" style="fill: none; stroke: #9467bd; stroke-width: 1.4; stroke-linecap: square"/>
    </g>
    <g id="text_19">
     <text style="font-size: 8px; font-family: 'DejaVu Sans', 'Bitstream Vera Sans', 'Computer Modern Sans Serif', 'Lucida Grande', 'Verdana', 'Geneva', 'Lucid', 'Arial', 'Helvetica', 'Avant Garde', sans-serif; text-anchor: start" x="103.16" y="174.62375" transform="rotate(-0 103.16 174.62375)">Cycle 25 (2.00C)</text>
    </g>
    <g id="line2d_38">
     <path d="M 80.76 183.56625 
L 88.76 183.56625 
L 96.76 183.56625 
" style="fill: none; stroke: #8c564b; stroke-width: 1.4; stroke-linecap: square"/>
    </g>
    <g id="text_20">
     <text style="font-size: 8px; font-family: 'DejaVu Sans', 'Bitstream Vera Sans', 'Computer Modern Sans Serif', 'Lucida Grande', 'Verdana', 'Geneva', 'Lucid', 'Arial', 'Helvetica', 'Avant Garde', sans-serif; text-anchor: start" x="103.16" y="186.36625" transform="rotate(-0 103.16 186.36625)">Cycle 26 (2.00C)</text>
    </g>
    <g id="line2d_39">
     <path d="M 80.76 195.30875 
L 88.76 195.30875 
L 96.76 195.30875 
" style="fill: none; stroke: #e377c2; stroke-width: 1.4; stroke-linecap: square"/>
    </g>
    <g id="text_21">
     <text style="font-size: 8px; font-family: 'DejaVu Sans', 'Bitstream Vera Sans', 'Computer Modern Sans Serif', 'Lucida Grande', 'Verdana', 'Geneva', 'Lucid', 'Arial', 'Helvetica', 'Avant Garde', sans-serif; text-anchor: start" x="103.16" y="198.10875" transform="rotate(-0 103.16 198.10875)">Cycle 27 (2.00C)</text>
    </g>
    <g id="line2d_40">
     <path d="M 80.76 207.05125 
L 88.76 207.05125 
L 96.76 207.05125 
" style="fill: none; stroke: #7f7f7f; stroke-width: 1.4; stroke-linecap: square"/>
    </g>
    <g id="text_22">
     <text style="font-size: 8px; font-family: 'DejaVu Sans', 'Bitstream Vera Sans', 'Computer Modern Sans Serif', 'Lucida Grande', 'Verdana', 'Geneva', 'Lucid', 'Arial', 'Helvetica', 'Avant Garde', sans-serif; text-anchor: start" x="103.16" y="209.85125" transform="rotate(-0 103.16 209.85125)">Cycle 28 (2.00C)</text>
    </g>
    <g id="line2d_41">
     <path d="M 80.76 218.79375 
L 88.76 218.79375 
L 96.76 218.79375 
" style="fill: none; stroke: #bcbd22; stroke-width: 1.4; stroke-linecap: square"/>
    </g>
    <g id="text_23">
     <text style="font-size: 8px; font-family: 'DejaVu Sans', 'Bitstream Vera Sans', 'Computer Modern Sans Serif', 'Lucida Grande', 'Verdana', 'Geneva', 'Lucid', 'Arial', 'Helvetica', 'Avant Garde', sans-serif; text-anchor: start" x="103.16" y="221.59375" transform="rotate(-0 103.16 221.59375)">Cycle 29 (2.00C)</text>
    </g>
    <g id="line2d_42">
     <path d="M 80.76 230.53625 
L 88.76 230.53625 
L 96.76 230.53625 
" style="fill: none; stroke: #17becf; stroke-width: 1.4; stroke-linecap: square"/>
    </g>
    <g id="text_24">
     <text style="font-size: 8px; font-family: 'DejaVu Sans', 'Bitstream Vera Sans', 'Computer Modern Sans Serif', 'Lucida Grande', 'Verdana', 'Geneva', 'Lucid', 'Arial', 'Helvetica', 'Avant Garde', sans-serif; text-anchor: start" x="103.16" y="233.33625" transform="rotate(-0 103.16 233.33625)">Cycle 30 (2.00C)</text>
    </g>
   </g>
  </g>
 </g>
 <defs>
  <clipPath id="p41179d0e58">
   <rect x="73.56" y="25.8" width="347.64" height="216.4"/>
  </clipPath>
 </defs>
</svg>
