<?xml version="1.0" encoding="utf-8" standalone="no"?>
<!DOCTYPE svg PUBLIC "-//W3C//DTD SVG 1.1//EN"
  "http://www.w3.org/Graphics/SVG/1.1/DTD/svg11.dtd">
<svg xmlns:xlink="http://www.w3.org/1999/xlink" width="432pt" height="288pt" viewBox="0 0 432 288" xmlns="http://www.w3.org/2000/svg" version="1.1">
 <metadata>
  <rdf:RDF xmlns:dc="http://purl.org/dc/elements/1.1/" xmlns:cc="http://creativecommons.org/ns#" xmlns:rdf="http://www.w3.org/1999/02/22-rdf-syntax-ns#">
   <cc:Work>
    <dc:type rdf:resource="http://purl.org/dc/dcmitype/StillImage"/>
    <dc:date>2025-10-07T16:12:44.618017</dc:date>
    <dc:format>image/svg+xml</dc:format>
    <dc:creator>
     <cc:Agent>
      <dc:title>Matplotlib v3.10.3, https://matplotlib.org/</dc:title>
     </cc:Agent>
    </dc:creator>
   </cc:Work>
  </rdf:RDF>
 </metadata>
 <defs>
  <style type="text/css">*{stroke-linejoin: round; stroke-linecap: butt}</style>
 </defs>
 <g id="figure_1">
  <g id="patch_1">
   <path d="M 0 288 
L 432 288 
L 432 0 
L 0 0 
z
" style="fill: #ffffff"/>
  </g>
  <g id="axes_1">
   <g id="patch_2">
    <path d="M 51.5 243.4 
L 381.625 243.4 
L 381.625 25.8 
L 51.5 25.8 
z
" style="fill: #ffffff"/>
   </g>
   <g id="matplotlib.axis_1">
    <g id="xtick_1">
     <g id="line2d_1">
      <path d="M 66.50568 243.4 
L 66.50568 25.8 
" clip-path="url(#p04ae868ef6)" style="fill: none; stroke: #b0b0b0; stroke-opacity: 0.25; stroke-width: 0.8; stroke-linecap: square"/>
     </g>
     <g id="line2d_2">
      <defs>
       <path id="ma46196cc6e" d="M 0 0 
L 0 3.5 
" style="stroke: #000000; stroke-width: 0.8"/>
      </defs>
      <g>
       <use xlink:href="#ma46196cc6e" x="66.50568" y="243.4" style="stroke: #000000; stroke-width: 0.8"/>
      </g>
     </g>
     <g id="text_1">
      <text style="font-size: 10px; font-family: 'DejaVu Sans', 'Bitstream Vera Sans', 'Computer Modern Sans Serif', 'Lucida Grande', 'Verdana', 'Geneva', 'Lucid', 'Arial', 'Helvetica', 'Avant Garde', sans-serif; text-anchor: middle" x="66.50568" y="257.998438" transform="rotate(-0 66.50568 257.998438)">0</text>
     </g>
    </g>
    <g id="xtick_2">
     <g id="line2d_3">
      <path d="M 106.766083 243.4 
L 106.766083 25.8 
" clip-path="url(#p04ae868ef6)" style="fill: none; stroke: #b0b0b0; stroke-opacity: 0.25; stroke-width: 0.8; stroke-linecap: square"/>
     </g>
     <g id="line2d_4">
      <g>
       <use xlink:href="#ma46196cc6e" x="106.766083" y="243.4" style="stroke: #000000; stroke-width: 0.8"/>
      </g>
     </g>
     <g id="text_2">
      <text style="font-size: 10px; font-family: 'DejaVu Sans', 'Bitstream Vera Sans', 'Computer Modern Sans Serif', 'Lucida Grande', 'Verdana', 'Geneva', 'Lucid', 'Arial', 'Helvetica', 'Avant Garde', sans-serif; text-anchor: middle" x="106.766083" y="257.998438" transform="rotate(-0 106.766083 257.998438)">100000</text>
     </g>
    </g>
    <g id="xtick_3">
     <g id="line2d_5">
      <path d="M 147.026487 243.4 
L 147.026487 25.8 
" clip-path="url(#p04ae868ef6)" style="fill: none; stroke: #b0b0b0; stroke-opacity: 0.25; stroke-width: 0.8; stroke-linecap: square"/>
     </g>
     <g id="line2d_6">
      <g>
       <use xlink:href="#ma46196cc6e" x="147.026487" y="243.4" style="stroke: #000000; stroke-width: 0.8"/>
      </g>
     </g>
     <g id="text_3">
      <text style="font-size: 10px; font-family: 'DejaVu Sans', 'Bitstream Vera Sans', 'Computer Modern Sans Serif', 'Lucida Grande', 'Verdana', 'Geneva', 'Lucid', 'Arial', 'Helvetica', 'Avant Garde', sans-serif; text-anchor: middle" x="147.026487" y="257.998438" transform="rotate(-0 147.026487 257.998438)">200000</text>
     </g>
    </g>
    <g id="xtick_4">
     <g id="line2d_7">
      <path d="M 187.28689 243.4 
L 187.28689 25.8 
" clip-path="url(#p04ae868ef6)" style="fill: none; stroke: #b0b0b0; stroke-opacity: 0.25; stroke-width: 0.8; stroke-linecap: square"/>
     </g>
     <g id="line2d_8">
      <g>
       <use xlink:href="#ma46196cc6e" x="187.28689" y="243.4" style="stroke: #000000; stroke-width: 0.8"/>
      </g>
     </g>
     <g id="text_4">
      <text style="font-size: 10px; font-family: 'DejaVu Sans', 'Bitstream Vera Sans', 'Computer Modern Sans Serif', 'Lucida Grande', 'Verdana', 'Geneva', 'Lucid', 'Arial', 'Helvetica', 'Avant Garde', sans-serif; text-anchor: middle" x="187.28689" y="257.998438" transform="rotate(-0 187.28689 257.998438)">300000</text>
     </g>
    </g>
    <g id="xtick_5">
     <g id="line2d_9">
      <path d="M 227.547294 243.4 
L 227.547294 25.8 
" clip-path="url(#p04ae868ef6)" style="fill: none; stroke: #b0b0b0; stroke-opacity: 0.25; stroke-width: 0.8; stroke-linecap: square"/>
     </g>
     <g id="line2d_10">
      <g>
       <use xlink:href="#ma46196cc6e" x="227.547294" y="243.4" style="stroke: #000000; stroke-width: 0.8"/>
      </g>
     </g>
     <g id="text_5">
      <text style="font-size: 10px; font-family: 'DejaVu Sans', 'Bitstream Vera Sans', 'Computer Modern Sans Serif', 'Lucida Grande', 'Verdana', 'Geneva', 'Lucid', 'Arial', 'Helvetica', 'Avant Garde', sans-serif; text-anchor: middle" x="227.547294" y="257.998438" transform="rotate(-0 227.547294 257.998438)">400000</text>
     </g>
    </g>
    <g id="xtick_6">
     <g id="line2d_11">
      <path d="M 267.807697 243.4 
L 267.807697 25.8 
" clip-path="url(#p04ae868ef6)" style="fill: none; stroke: #b0b0b0; stroke-opacity: 0.25; stroke-width: 0.8; stroke-linecap: square"/>
     </g>
     <g id="line2d_12">
      <g>
       <use xlink:href="#ma46196cc6e" x="267.807697" y="243.4" style="stroke: #000000; stroke-width: 0.8"/>
      </g>
     </g>
     <g id="text_6">
      <text style="font-size: 10px; font-family: 'DejaVu Sans', 'Bitstream Vera Sans', 'Computer Modern Sans Serif', 'Lucida Grande', 'Verdana', 'Geneva', 'Lucid', 'Arial', 'Helvetica', 'Avant Garde', sans-serif; text-anchor: middle" x="267.807697" y="257.998438" transform="rotate(-0 267.807697 257.998438)">500000</text>
     </g>
    </g>
    <g id="xtick_7">
     <g id="line2d_13">
      <path d="M 308.068101 243.4 
L 308.068101 25.8 
" clip-path="url(#p04ae868ef6)" style="fill: none; stroke: #b0b0b0; stroke-opacity: 0.25; stroke-width: 0.8; stroke-linecap: square"/>
     </g>
     <g id="line2d_14">
      <g>
       <use xlink:href="#ma46196cc6e" x="308.068101" y="243.4" style="stroke: #000000; stroke-width: 0.8"/>
      </g>
     </g>
     <g id="text_7">
      <text style="font-size: 10px; font-family: 'DejaVu Sans', 'Bitstream Vera Sans', 'Computer Modern Sans Serif', 'Lucida Grande', 'Verdana', 'Geneva', 'Lucid', 'Arial', 'Helvetica', 'Avant Garde', sans-serif; text-anchor: middle" x="308.068101" y="257.998438" transform="rotate(-0 308.068101 257.998438)">600000</text>
     </g>
    </g>
    <g id="xtick_8">
     <g id="line2d_15">
      <path d="M 348.328504 243.4 
L 348.328504 25.8 
" clip-path="url(#p04ae868ef6)" style="fill: none; stroke: #b0b0b0; stroke-opacity: 0.25; stroke-width: 0.8; stroke-linecap: square"/>
     </g>
     <g id="line2d_16">
      <g>
       <use xlink:href="#ma46196cc6e" x="348.328504" y="243.4" style="stroke: #000000; stroke-width: 0.8"/>
      </g>
     </g>
     <g id="text_8">
      <text style="font-size: 10px; font-family: 'DejaVu Sans', 'Bitstream Vera Sans', 'Computer Modern Sans Serif', 'Lucida Grande', 'Verdana', 'Geneva', 'Lucid', 'Arial', 'Helvetica', 'Avant Garde', sans-serif; text-anchor: middle" x="348.328504" y="257.998438" transform="rotate(-0 348.328504 257.998438)">700000</text>
     </g>
    </g>
    <g id="text_9">
     <text style="font-size: 14px; font-family: 'DejaVu Sans', 'Bitstream Vera Sans', 'Computer Modern Sans Serif', 'Lucida Grande', 'Verdana', 'Geneva', 'Lucid', 'Arial', 'Helvetica', 'Avant Garde', sans-serif; text-anchor: middle" x="216.5625" y="274.715937" transform="rotate(-0 216.5625 274.715937)">Time [s]</text>
    </g>
   </g>
   <g id="matplotlib.axis_2">
    <g id="ytick_1">
     <g id="line2d_17">
      <path d="M 51.5 226.267362 
L 381.625 226.267362 
" clip-path="url(#p04ae868ef6)" style="fill: none; stroke: #b0b0b0; stroke-opacity: 0.25; stroke-width: 0.8; stroke-linecap: square"/>
     </g>
     <g id="line2d_18">
      <defs>
       <path id="me697f27f8b" d="M 0 0 
L -3.5 0 
" style="stroke: #000000; stroke-width: 0.8"/>
      </defs>
      <g>
       <use xlink:href="#me697f27f8b" x="51.5" y="226.267362" style="stroke: #000000; stroke-width: 0.8"/>
      </g>
     </g>
     <g id="text_10">
      <text style="font-size: 10px; font-family: 'DejaVu Sans', 'Bitstream Vera Sans', 'Computer Modern Sans Serif', 'Lucida Grande', 'Verdana', 'Geneva', 'Lucid', 'Arial', 'Helvetica', 'Avant Garde', sans-serif; text-anchor: end; fill: #1f77b4" x="44.5" y="230.066581" transform="rotate(-0 44.5 230.066581)">0.5</text>
     </g>
    </g>
    <g id="ytick_2">
     <g id="line2d_19">
      <path d="M 51.5 200.513793 
L 381.625 200.513793 
" clip-path="url(#p04ae868ef6)" style="fill: none; stroke: #b0b0b0; stroke-opacity: 0.25; stroke-width: 0.8; stroke-linecap: square"/>
     </g>
     <g id="line2d_20">
      <g>
       <use xlink:href="#me697f27f8b" x="51.5" y="200.513793" style="stroke: #000000; stroke-width: 0.8"/>
      </g>
     </g>
     <g id="text_11">
      <text style="font-size: 10px; font-family: 'DejaVu Sans', 'Bitstream Vera Sans', 'Computer Modern Sans Serif', 'Lucida Grande', 'Verdana', 'Geneva', 'Lucid', 'Arial', 'Helvetica', 'Avant Garde', sans-serif; text-anchor: end; fill: #1f77b4" x="44.5" y="204.313012" transform="rotate(-0 44.5 204.313012)">1.0</text>
     </g>
    </g>
    <g id="ytick_3">
     <g id="line2d_21">
      <path d="M 51.5 174.760223 
L 381.625 174.760223 
" clip-path="url(#p04ae868ef6)" style="fill: none; stroke: #b0b0b0; stroke-opacity: 0.25; stroke-width: 0.8; stroke-linecap: square"/>
     </g>
     <g id="line2d_22">
      <g>
       <use xlink:href="#me697f27f8b" x="51.5" y="174.760223" style="stroke: #000000; stroke-width: 0.8"/>
      </g>
     </g>
     <g id="text_12">
      <text style="font-size: 10px; font-family: 'DejaVu Sans', 'Bitstream Vera Sans', 'Computer Modern Sans Serif', 'Lucida Grande', 'Verdana', 'Geneva', 'Lucid', 'Arial', 'Helvetica', 'Avant Garde', sans-serif; text-anchor: end; fill: #1f77b4" x="44.5" y="178.559442" transform="rotate(-0 44.5 178.559442)">1.5</text>
     </g>
    </g>
    <g id="ytick_4">
     <g id="line2d_23">
      <path d="M 51.5 149.006654 
L 381.625 149.006654 
" clip-path="url(#p04ae868ef6)" style="fill: none; stroke: #b0b0b0; stroke-opacity: 0.25; stroke-width: 0.8; stroke-linecap: square"/>
     </g>
     <g id="line2d_24">
      <g>
       <use xlink:href="#me697f27f8b" x="51.5" y="149.006654" style="stroke: #000000; stroke-width: 0.8"/>
      </g>
     </g>
     <g id="text_13">
      <text style="font-size: 10px; font-family: 'DejaVu Sans', 'Bitstream Vera Sans', 'Computer Modern Sans Serif', 'Lucida Grande', 'Verdana', 'Geneva', 'Lucid', 'Arial', 'Helvetica', 'Avant Garde', sans-serif; text-anchor: end; fill: #1f77b4" x="44.5" y="152.805873" transform="rotate(-0 44.5 152.805873)">2.0</text>
     </g>
    </g>
    <g id="ytick_5">
     <g id="line2d_25">
      <path d="M 51.5 123.253085 
L 381.625 123.253085 
" clip-path="url(#p04ae868ef6)" style="fill: none; stroke: #b0b0b0; stroke-opacity: 0.25; stroke-width: 0.8; stroke-linecap: square"/>
     </g>
     <g id="line2d_26">
      <g>
       <use xlink:href="#me697f27f8b" x="51.5" y="123.253085" style="stroke: #000000; stroke-width: 0.8"/>
      </g>
     </g>
     <g id="text_14">
      <text style="font-size: 10px; font-family: 'DejaVu Sans', 'Bitstream Vera Sans', 'Computer Modern Sans Serif', 'Lucida Grande', 'Verdana', 'Geneva', 'Lucid', 'Arial', 'Helvetica', 'Avant Garde', sans-serif; text-anchor: end; fill: #1f77b4" x="44.5" y="127.052303" transform="rotate(-0 44.5 127.052303)">2.5</text>
     </g>
    </g>
    <g id="ytick_6">
     <g id="line2d_27">
      <path d="M 51.5 97.499515 
L 381.625 97.499515 
" clip-path="url(#p04ae868ef6)" style="fill: none; stroke: #b0b0b0; stroke-opacity: 0.25; stroke-width: 0.8; stroke-linecap: square"/>
     </g>
     <g id="line2d_28">
      <g>
       <use xlink:href="#me697f27f8b" x="51.5" y="97.499515" style="stroke: #000000; stroke-width: 0.8"/>
      </g>
     </g>
     <g id="text_15">
      <text style="font-size: 10px; font-family: 'DejaVu Sans', 'Bitstream Vera Sans', 'Computer Modern Sans Serif', 'Lucida Grande', 'Verdana', 'Geneva', 'Lucid', 'Arial', 'Helvetica', 'Avant Garde', sans-serif; text-anchor: end; fill: #1f77b4" x="44.5" y="101.298734" transform="rotate(-0 44.5 101.298734)">3.0</text>
     </g>
    </g>
    <g id="ytick_7">
     <g id="line2d_29">
      <path d="M 51.5 71.745946 
L 381.625 71.745946 
" clip-path="url(#p04ae868ef6)" style="fill: none; stroke: #b0b0b0; stroke-opacity: 0.25; stroke-width: 0.8; stroke-linecap: square"/>
     </g>
     <g id="line2d_30">
      <g>
       <use xlink:href="#me697f27f8b" x="51.5" y="71.745946" style="stroke: #000000; stroke-width: 0.8"/>
      </g>
     </g>
     <g id="text_16">
      <text style="font-size: 10px; font-family: 'DejaVu Sans', 'Bitstream Vera Sans', 'Computer Modern Sans Serif', 'Lucida Grande', 'Verdana', 'Geneva', 'Lucid', 'Arial', 'Helvetica', 'Avant Garde', sans-serif; text-anchor: end; fill: #1f77b4" x="44.5" y="75.545164" transform="rotate(-0 44.5 75.545164)">3.5</text>
     </g>
    </g>
    <g id="ytick_8">
     <g id="line2d_31">
      <path d="M 51.5 45.992376 
L 381.625 45.992376 
" clip-path="url(#p04ae868ef6)" style="fill: none; stroke: #b0b0b0; stroke-opacity: 0.25; stroke-width: 0.8; stroke-linecap: square"/>
     </g>
     <g id="line2d_32">
      <g>
       <use xlink:href="#me697f27f8b" x="51.5" y="45.992376" style="stroke: #000000; stroke-width: 0.8"/>
      </g>
     </g>
     <g id="text_17">
      <text style="font-size: 10px; font-family: 'DejaVu Sans', 'Bitstream Vera Sans', 'Computer Modern Sans Serif', 'Lucida Grande', 'Verdana', 'Geneva', 'Lucid', 'Arial', 'Helvetica', 'Avant Garde', sans-serif; text-anchor: end; fill: #1f77b4" x="44.5" y="49.791595" transform="rotate(-0 44.5 49.791595)">4.0</text>
     </g>
    </g>
    <g id="text_18">
     <text style="font-size: 14px; font-family: 'DejaVu Sans', 'Bitstream Vera Sans', 'Computer Modern Sans Serif', 'Lucida Grande', 'Verdana', 'Geneva', 'Lucid', 'Arial', 'Helvetica', 'Avant Garde', sans-serif; text-anchor: middle; fill: #1f77b4" x="21.685313" y="134.6" transform="rotate(-90 21.685313 134.6)">Potential [V]</text>
    </g>
   </g>
   <g id="line2d_33">
    <path d="M 66.505682 233.509091 
L 66.807635 233.145842 
L 67.326994 232.864178 
L 68.51065 232.575527 
L 69.875478 232.539356 
L 71.807977 232.651349 
L 73.052023 232.753978 
L 74.573867 232.848574 
L 75.201928 232.882224 
L 75.310659 79.649692 
L 75.540143 62.553914 
L 75.854174 52.354754 
L 76.131971 50.836644 
L 76.180284 50.759769 
L 76.216518 50.825026 
L 76.675487 55.105004 
L 77.001596 56.56956 
L 77.267315 57.887845 
L 77.42433 58.006325 
L 77.436408 57.997877 
L 77.593424 57.724825 
L 77.967846 56.299922 
L 78.487205 53.121656 
L 78.885783 49.950205 
L 79.779564 39.542784 
L 79.815798 48.920334 
L 79.900345 48.365954 
L 80.069439 52.789192 
L 80.141907 51.514231 
L 80.202298 50.194005 
L 80.238532 49.201269 
L 80.262689 52.14777 
L 80.274767 52.152891 
L 80.359314 54.174271 
L 80.407626 54.14551 
L 80.431782 54.303975 
L 80.44386 54.27196 
L 80.468017 54.455206 
L 80.649189 49.654976 
L 80.673345 49.259613 
L 80.697501 49.750946 
L 80.818282 54.110315 
L 80.854517 54.070416 
L 80.890751 54.175413 
L 80.914907 54.276098 
L 80.939063 54.005405 
L 80.951142 54.068955 
L 81.011532 51.36316 
L 81.059845 53.353016 
L 81.120235 55.127427 
L 81.132313 53.810775 
L 81.289329 45.15388 
L 81.422188 41.506226 
L 81.54297 49.162513 
L 81.651673 50.02676 
L 81.675829 49.882676 
L 81.832844 47.977013 
L 81.953626 48.260552 
L 81.965704 48.282166 
L 82.001938 48.179527 
L 82.074407 46.725532 
L 82.195188 43.205543 
L 82.207266 43.300052 
L 82.243501 42.774113 
L 82.654157 40.107234 
L 82.738703 52.036278 
L 82.774938 48.203903 
L 82.799094 48.294433 
L 82.847407 45.523147 
L 82.883641 52.562548 
L 82.968188 51.688869 
L 82.980266 52.000444 
L 82.992344 50.947326 
L 83.052735 51.724715 
L 83.113125 48.294593 
L 83.173516 50.579937 
L 83.306375 53.683515 
L 83.20975 50.31574 
L 83.318453 53.125794 
L 83.463391 42.595239 
L 83.584172 53.648651 
L 83.632484 51.646207 
L 83.692875 52.448047 
L 83.704953 52.429442 
L 83.7895 48.083397 
L 83.813656 52.558643 
L 83.958594 53.23461 
L 83.970672 53.150822 
L 83.98275 50.635923 
L 84.055219 53.76535 
L 84.079375 53.619805 
L 84.091453 53.765755 
L 84.103531 53.028928 
L 84.115609 51.958912 
L 84.163922 54.283737 
L 84.200156 53.37 
L 84.212234 54.585635 
L 84.23639 51.278561 
L 84.296781 52.236028 
L 84.333015 51.001457 
L 84.345094 53.020074 
L 84.42964 51.262228 
L 84.453797 51.020798 
L 84.490031 51.936893 
L 84.514187 53.462642 
L 84.598734 52.309489 
L 84.695359 52.76279 
L 84.659125 52.216036 
L 84.779906 52.687377 
L 84.828218 50.606426 
L 84.961078 46.531308 
L 85.057703 51.106527 
L 85.093937 51.009574 
L 85.130171 51.07687 
L 85.238875 50.060887 
L 85.250953 47.247824 
L 85.3355 50.988452 
L 85.359656 50.834212 
L 85.383812 50.346858 
L 85.407968 51.370724 
L 85.432124 50.93173 
L 85.468359 53.929267 
L 85.552906 53.114337 
L 85.577062 53.183499 
L 85.697843 49.273674 
L 85.721999 48.515392 
L 85.770312 50.849562 
L 85.818624 53.002918 
L 85.891093 52.083655 
L 85.97564 53.032992 
L 85.963562 51.697723 
L 85.987718 52.707688 
L 86.084343 50.363031 
L 86.108499 51.171465 
L 86.132656 50.023433 
L 86.193046 51.32708 
L 86.217202 51.522766 
L 86.22928 51.124321 
L 86.301749 51.165926 
L 86.386296 49.715517 
L 86.398374 50.926609 
L 86.494999 50.376772 
L 86.507077 50.416585 
L 86.519155 50.361078 
L 86.543312 49.536975 
L 86.627858 49.99369 
L 86.845265 49.148931 
L 86.857343 49.603128 
L 86.953968 49.388592 
L 86.966046 49.396231 
L 87.038515 48.083962 
L 87.098905 49.008187 
L 87.123061 49.118869 
L 87.13514 49.215085 
L 87.19553 48.917092 
L 87.231765 48.692952 
L 87.280077 48.27729 
L 87.352546 48.403163 
L 87.400858 47.561179 
L 87.437093 46.804605 
L 87.485405 48.204149 
L 87.497483 48.104679 
L 87.58203 46.325061 
L 87.533718 48.426409 
L 87.690733 47.061324 
L 87.714889 47.40409 
L 87.799436 47.174523 
L 87.859827 46.979402 
L 87.932296 46.342204 
L 87.956452 47.023857 
L 87.96853 46.959176 
L 88.004764 45.418151 
L 88.173858 40.457811 
L 88.210092 39.56619 
L 88.282561 43.632921 
L 88.318795 42.650353 
L 88.342952 39.438746 
L 88.427499 41.988594 
L 88.451655 41.849803 
L 88.463733 42.245718 
L 88.596592 37.76534 
L 88.632827 37.950722 
L 88.644905 38.719074 
L 88.729452 37.79356 
L 88.74153 38.139249 
L 88.777764 36.302491 
L 88.80192 38.309085 
L 88.850233 37.931049 
L 88.862311 37.967448 
L 88.886467 36.642187 
L 88.910623 37.990854 
L 88.958936 37.186424 
L 88.983092 38.622944 
L 89.067639 37.980367 
L 89.091795 38.175181 
L 89.152186 37.763645 
L 89.164264 36.68281 
L 89.18842 38.703379 
L 89.248811 38.105036 
L 89.309201 38.791797 
L 89.357514 38.287226 
L 89.369592 38.185496 
L 89.38167 38.290149 
L 89.478295 40.060348 
L 89.490373 39.979175 
L 89.538686 37.817604 
L 89.550764 40.48188 
L 89.586998 40.293894 
L 89.623232 40.542913 
L 89.659467 40.227114 
L 89.683623 40.24271 
L 89.707779 39.909596 
L 89.828561 38.270402 
L 89.888951 39.821522 
L 89.925186 38.169557 
L 90.040075 35.690909 
L 90.076312 60.986302 
L 90.148781 59.375795 
L 90.197093 58.840671 
L 90.257484 59.279088 
L 90.378265 60.224447 
L 90.438655 60.21396 
L 90.776843 62.725125 
L 91.646468 69.579499 
L 92.624795 76.438429 
L 93.941311 87.119639 
L 94.26742 93.125447 
L 94.569373 102.565822 
L 94.71431 107.738488 
L 94.774701 106.354147 
L 94.955873 103.767322 
L 94.967951 103.797962 
L 95.04042 104.724212 
L 95.076654 105.446414 
L 95.112888 104.125046 
L 95.173279 102.425066 
L 95.233669 103.169372 
L 95.475232 109.735418 
L 95.547701 111.157472 
L 95.571857 110.553271 
L 95.644326 106.648234 
L 95.692638 107.494369 
L 95.813419 121.364749 
L 95.852733 128.402381 
L 95.85274 126.761628 
L 95.973521 80.827615 
L 96.215083 76.226484 
L 96.589505 74.466207 
L 98.449536 66.524109 
L 99.439942 63.895594 
L 100.611519 60.914549 
L 101.517378 57.973242 
L 106.952533 39.854678 
L 107.42358 38.582149 
L 107.882548 36.628531 
L 108.0566 35.693267 
L 108.165306 39.734872 
L 108.431025 41.652164 
L 108.97454 43.322893 
L 109.373118 45.01752 
L 111.112368 53.000081 
L 112.646289 58.837822 
L 113.709164 62.449802 
L 115.14646 66.327281 
L 116.281804 69.33441 
L 117.248053 72.545919 
L 118.540412 77.242786 
L 119.156396 81.115955 
L 119.51874 84.861041 
L 119.881084 91.073182 
L 120.231349 101.101671 
L 120.388365 111.850815 
L 120.500377 128.40286 
L 120.500384 127.440604 
L 120.621165 89.636171 
L 120.886884 80.216991 
L 121.152602 76.716835 
L 121.647805 74.848725 
L 123.54407 67.638653 
L 124.377461 65.483591 
L 126.805163 59.867374 
L 127.855959 55.963897 
L 129.305334 50.640798 
L 132.409411 40.60149 
L 132.904614 39.760562 
L 133.303192 38.733712 
L 133.70177 36.961474 
L 133.893404 35.693905 
L 133.893407 36.158419 
L 134.026266 38.717453 
L 134.352376 40.548587 
L 134.763032 41.652729 
L 135.862141 43.993568 
L 136.647219 47.029788 
L 138.785046 55.390323 
L 141.647561 64.763992 
L 143.652529 70.336491 
L 144.79995 74.380712 
L 145.331388 76.101901 
L 145.645419 77.814567 
L 145.983606 81.124969 
L 146.34595 87.12013 
L 146.768684 97.582898 
L 146.974012 107.853075 
L 147.147378 128.402541 
L 147.147384 127.623359 
L 147.268165 90.652546 
L 147.533884 80.772034 
L 147.835837 76.469302 
L 148.174024 75.260163 
L 149.248977 71.531004 
L 150.396399 67.016646 
L 151.145242 65.248817 
L 153.077741 61.127144 
L 154.031913 57.979346 
L 156.74949 48.02821 
L 158.996021 40.69455 
L 159.793177 39.193976 
L 160.191755 37.702784 
L 160.508495 35.69366 
L 160.508498 36.138672 
L 160.641358 38.538898 
L 160.979545 40.406062 
L 161.402279 41.543116 
L 162.622169 44.13985 
L 163.962841 49.437431 
L 166.161059 57.687112 
L 168.431746 64.885321 
L 169.675792 67.897963 
L 170.364245 70.089277 
L 171.692838 74.868545 
L 172.212198 76.498148 
L 172.489994 78.072821 
L 172.779869 81.489447 
L 173.250916 90.203801 
L 173.61326 101.100124 
L 173.770275 112.521661 
L 173.906224 128.403757 
L 173.90623 127.668476 
L 174.027011 91.003614 
L 174.29273 81.135137 
L 174.594683 76.684734 
L 174.87248 75.676648 
L 175.802495 72.782878 
L 177.553823 66.199051 
L 178.556307 64.227075 
L 179.667494 61.873882 
L 180.295556 60.070539 
L 181.165181 56.947043 
L 181.938181 53.799158 
L 182.976899 49.885194 
L 184.039774 46.516522 
L 185.67032 40.975301 
L 186.709038 39.003583 
L 187.047226 37.661006 
L 187.351339 35.693513 
L 187.351342 36.131672 
L 187.484201 38.506478 
L 187.822388 40.361362 
L 188.233044 41.478914 
L 189.368388 43.730107 
L 190.020606 46.152044 
L 193.160918 58.148703 
L 194.936402 63.986357 
L 195.830183 66.087878 
L 196.953448 69.047052 
L 197.496963 71.053081 
L 198.342432 74.330081 
L 199.236213 77.023768 
L 199.477775 78.73383 
L 199.828041 83.70472 
L 200.274931 93.083104 
L 200.576884 103.927899 
L 200.758056 120.965174 
L 200.819496 128.402541 
L 200.819503 127.689353 
L 200.940284 91.212379 
L 201.206002 81.373398 
L 201.520034 76.779415 
L 201.809909 75.792045 
L 202.498361 73.815427 
L 203.090189 71.445669 
L 204.11683 67.334877 
L 204.599954 66.078938 
L 205.52997 64.263965 
L 206.36336 62.571143 
L 207.027657 60.847511 
L 207.897282 57.88841 
L 210.518234 48.202442 
L 211.303312 45.414418 
L 212.366186 41.565711 
L 212.800999 40.716409 
L 213.586077 39.267534 
L 213.94842 37.98744 
L 214.3185 35.693586 
L 214.318503 36.131427 
L 214.451362 38.507043 
L 214.789549 40.351685 
L 215.212284 41.48923 
L 216.432174 44.014714 
L 217.156861 46.810868 
L 221.565375 63.052063 
L 222.543703 65.50895 
L 223.377093 67.440769 
L 223.920609 68.997071 
L 224.548671 71.343927 
L 225.345827 74.430447 
L 226.155061 76.75844 
L 226.42078 78.263877 
L 226.686499 81.558597 
L 227.145467 90.078665 
L 227.507811 101.065665 
L 227.664826 112.178084 
L 227.81475 128.403192 
L 227.814756 127.698698 
L 227.935537 91.339553 
L 228.201256 81.520811 
L 228.515287 76.865303 
L 228.793084 75.932298 
L 229.698943 73.223899 
L 230.471943 69.921787 
L 231.401958 66.594807 
L 232.211192 64.935056 
L 233.539786 62.239576 
L 234.469801 59.52769 
L 235.544754 55.478017 
L 237.114909 49.475942 
L 237.863753 47.125034 
L 239.675471 40.946049 
L 240.738346 38.872675 
L 241.064455 37.497163 
L 241.335819 35.693021 
L 241.335822 36.13209 
L 241.468681 38.51974 
L 241.794791 40.31089 
L 242.193369 41.41179 
L 243.47365 44.07948 
L 244.717696 48.978444 
L 248.208273 61.887219 
L 249.174523 64.620473 
L 250.877538 68.804725 
L 251.578069 71.383101 
L 252.375225 74.4827 
L 253.256928 77.130151 
L 253.510568 78.908628 
L 253.836677 83.573566 
L 254.27149 92.634445 
L 254.585521 103.734006 
L 254.766693 120.230127 
L 254.838622 128.403351 
L 254.838629 127.70528 
L 254.95941 91.424889 
L 255.225129 81.612962 
L 255.53916 76.906995 
L 255.804879 76.018444 
L 256.698659 73.390014 
L 257.387112 70.459355 
L 258.280893 67.040212 
L 258.776096 65.891209 
L 261.252111 60.368458 
L 261.892252 58.145694 
L 263.051751 53.451098 
L 263.909298 50.152805 
L 265.225813 45.908895 
L 266.518172 41.305812 
L 267.073765 40.378677 
L 267.641437 39.241771 
L 268.027937 37.823523 
L 268.362427 35.693169 
L 268.362429 36.132237 
L 268.495289 38.540862 
L 268.821398 40.319265 
L 269.219976 41.414222 
L 270.500257 44.072652 
L 271.273257 47.087738 
L 273.217834 54.801239 
L 275.210724 61.814888 
L 276.00788 64.157016 
L 277.988692 69.087442 
L 278.544285 71.135162 
L 279.41391 74.540392 
L 280.2473 77.008491 
L 280.488863 78.480612 
L 280.742503 81.699513 
L 281.201472 90.357636 
L 281.551738 101.13791 
L 281.708753 112.24495 
L 281.861144 128.402123 
L 281.861151 127.721527 
L 281.981932 91.482667 
L 282.247651 81.669033 
L 282.561682 76.92512 
L 282.8274 76.042501 
L 283.552088 74.024204 
L 284.143916 71.672964 
L 285.230947 67.299362 
L 285.714071 66.090874 
L 287.924368 61.4223 
L 288.842305 58.424026 
L 289.953492 54.025151 
L 290.93182 50.14793 
L 292.139632 46.307512 
L 293.733944 40.922987 
L 294.748506 38.976271 
L 295.11085 37.47695 
L 295.378149 35.693832 
L 295.378152 36.130788 
L 295.511011 38.563851 
L 295.83712 40.333977 
L 296.284011 41.510352 
L 296.99662 42.667742 
L 297.334807 43.485828 
L 298.192354 46.689539 
L 300.14901 54.500803 
L 302.39554 62.379424 
L 303.373868 65.018181 
L 305.245977 69.918545 
L 305.837805 72.441978 
L 306.369242 74.420525 
L 307.226788 76.910163 
L 307.480429 78.352774 
L 307.73407 81.479205 
L 308.193038 90.045005 
L 308.543304 100.603191 
L 308.712397 112.151424 
L 308.866654 128.40302 
L 308.86666 127.716013 
L 308.987442 91.52566 
L 309.25316 81.708785 
L 309.567191 76.926582 
L 309.820832 76.07793 
L 310.521363 74.165279 
L 311.089035 71.967469 
L 312.188144 67.478568 
L 312.671268 66.203103 
L 313.613362 64.348158 
L 314.579612 62.323684 
L 315.243908 60.489541 
L 316.403408 56.307315 
L 318.492923 48.502633 
L 319.193454 46.092804 
L 320.522047 41.323299 
L 320.968938 40.55232 
L 321.548687 39.50248 
L 321.911031 38.378075 
L 322.273375 36.430893 
L 322.37171 35.69479 
L 322.371712 36.131598 
L 322.504572 38.588731 
L 322.842759 40.392062 
L 323.241337 41.448017 
L 324.533696 44.155299 
L 325.234227 46.889289 
L 326.454117 51.667821 
L 328.120898 57.913437 
L 329.90846 63.903637 
L 332.010053 69.190166 
L 332.553568 71.228689 
L 333.447349 74.669765 
L 334.208271 76.914387 
L 334.47399 78.460693 
L 334.739708 81.858788 
L 335.210755 90.942741 
L 335.548942 101.723187 
L 335.705958 113.546657 
L 335.846627 128.402615 
L 335.846637 125.247337 
L 335.963392 70.238888 
L 336.514959 54.148679 
L 337.014061 35.692358 
L 337.122767 50.203756 
L 337.61797 68.548657 
L 338.012522 82.008644 
L 338.093043 94.233408 
L 338.132938 128.410093 
L 338.157101 79.556239 
L 338.302039 68.602052 
L 338.680486 57.391146 
L 339.264824 35.695698 
L 339.264827 39.672071 
L 339.385608 50.156293 
L 339.888863 68.706803 
L 340.251207 80.753024 
L 340.335754 90.523665 
L 340.385321 128.406999 
L 340.405457 81.575753 
L 340.550395 68.636498 
L 341.009363 54.288698 
L 341.508597 35.692113 
L 341.617303 49.46936 
L 342.140688 68.856081 
L 342.486928 80.377494 
L 342.575501 90.519109 
L 342.622457 128.411555 
L 342.64662 80.281352 
L 342.791557 68.332979 
L 343.222344 54.937513 
L 343.738838 35.695944 
L 343.847544 49.362902 
L 344.374955 68.912399 
L 344.717169 80.417724 
L 344.801716 90.527889 
L 344.846518 128.409025 
L 344.870681 80.370507 
L 345.015618 68.203435 
L 345.575238 49.720393 
L 345.956576 35.692039 
L 345.956579 39.688404 
L 346.07736 49.823682 
L 346.59672 68.979437 
L 346.946985 81.178928 
L 347.02348 93.052305 
L 347.058357 128.408865 
L 347.090571 77.864707 
L 347.239535 67.570068 
L 347.638113 55.190487 
L 348.162459 35.694151 
L 348.271165 49.162992 
L 348.81468 69.269558 
L 349.152868 81.286602 
L 349.225336 93.169975 
L 349.258587 128.4083 
L 349.290801 77.837396 
L 349.439765 67.449378 
L 349.947046 50.731168 
L 350.356984 35.693267 
L 350.46569 49.068888 
L 351.02531 69.678896 
L 351.339341 80.865487 
L 351.415836 93.258393 
L 351.447716 128.410511 
L 351.479931 77.782626 
L 351.628894 67.336264 
L 352.128123 50.804383 
L 352.540654 35.692923 
L 352.64936 48.976405 
L 353.20898 69.659788 
L 353.531063 81.575175 
L 353.603532 96.58326 
L 353.626303 128.410167 
L 353.66657 75.631137 
L 353.815534 66.884437 
L 354.334893 49.571028 
L 354.713864 35.692923 
L 354.713866 39.641346 
L 354.834648 49.462704 
L 355.386215 69.766577 
L 355.704272 81.789147 
L 355.772715 96.739379 
L 355.794495 128.40765 
L 355.838788 74.646862 
L 355.987751 66.609359 
L 356.52724 48.538307 
L 356.876818 35.693586 
L 356.876821 39.635181 
L 356.997602 49.397287 
L 357.537091 69.430626 
L 357.859175 81.341617 
L 357.927617 95.070271 
L 357.952553 128.410585 
L 357.978728 69.157083 
L 358.129705 57.494435 
L 358.407502 36.271225 
L 358.413996 35.691793 
L 358.413999 43.338244 
L 358.532767 63.483738 
L 358.850824 97.231756 
L 358.869391 128.410585 
L 358.913684 66.380836 
L 359.32513 35.693021 
L 359.435849 63.05377 
L 359.755919 96.569445 
L 359.776613 128.408067 
L 359.81688 66.389616 
L 360.227463 35.69366 
L 360.338182 63.291798 
L 360.652213 96.796176 
L 360.673506 128.40733 
L 360.711759 66.240976 
L 361.118274 35.693341 
L 361.228993 63.548996 
L 361.536985 97.4207 
L 361.558017 128.407723 
L 361.596271 65.906744 
L 361.984784 36.646829 
L 361.997161 35.69253 
L 361.997164 43.324269 
L 362.115932 64.425597 
L 362.409833 97.681877 
L 362.43098 128.408214 
L 362.467221 65.796136 
L 362.817487 39.025048 
L 362.864463 35.69172 
L 362.975182 63.935492 
L 363.271096 97.7616 
L 363.292396 128.408141 
L 363.326623 65.715356 
L 363.658772 39.891715 
L 363.720076 35.690983 
L 363.830795 64.101362 
L 364.12067 97.761514 
L 364.142069 128.40733 
L 364.176296 65.421588 
L 364.49838 40.121455 
L 364.563758 35.69172 
L 364.674477 64.265426 
L 364.958312 97.704878 
L 364.979751 128.408472 
L 365.013978 65.14285 
L 365.330023 40.100333 
L 365.395405 35.695698 
L 365.506124 64.430153 
L 365.785933 98.753121 
L 365.805419 128.408558 
L 365.84166 64.636155 
L 366.149652 40.082772 
L 366.215126 35.691867 
L 366.325845 64.586825 
L 366.599616 98.473155 
L 366.619318 128.410511 
L 366.619318 128.410511 
" clip-path="url(#p04ae868ef6)" style="fill: none; stroke: #1f77b4; stroke-width: 1.2; stroke-linecap: square"/>
   </g>
   <g id="patch_3">
    <path d="M 51.5 243.4 
L 51.5 25.8 
" style="fill: none; stroke: #000000; stroke-width: 0.8; stroke-linejoin: miter; stroke-linecap: square"/>
   </g>
   <g id="patch_4">
    <path d="M 51.5 243.4 
L 381.625 243.4 
" style="fill: none; stroke: #000000; stroke-width: 0.8; stroke-linejoin: miter; stroke-linecap: square"/>
   </g>
   <g id="text_19">
    <text style="font-size: 12px; font-family: 'DejaVu Sans', 'Bitstream Vera Sans', 'Computer Modern Sans Serif', 'Lucida Grande', 'Verdana', 'Geneva', 'Lucid', 'Arial', 'Helvetica', 'Avant Garde', sans-serif; text-anchor: middle" x="216.5625" y="19.8" transform="rotate(-0 216.5625 19.8)">Voltage and Current vs Time</text>
   </g>
   <g id="legend_1">
    <g id="patch_5">
     <path d="M 298.3325 239.4 
L 376.025 239.4 
Q 377.625 239.4 377.625 237.8 
L 377.625 215.115 
Q 377.625 213.515 376.025 213.515 
L 298.3325 213.515 
Q 296.7325 213.515 296.7325 215.115 
L 296.7325 237.8 
Q 296.7325 239.4 298.3325 239.4 
z
" style="fill: #ffffff; opacity: 0.8; stroke: #cccccc; stroke-linejoin: miter"/>
    </g>
    <g id="line2d_34">
     <path d="M 299.9325 219.99375 
L 307.9325 219.99375 
L 315.9325 219.99375 
" style="fill: none; stroke: #1f77b4; stroke-width: 1.2; stroke-linecap: square"/>
    </g>
    <g id="text_20">
     <text style="font-size: 8px; font-family: 'DejaVu Sans', 'Bitstream Vera Sans', 'Computer Modern Sans Serif', 'Lucida Grande', 'Verdana', 'Geneva', 'Lucid', 'Arial', 'Helvetica', 'Avant Garde', sans-serif; text-anchor: start" x="322.3325" y="222.79375" transform="rotate(-0 322.3325 222.79375)">Voltage [V]</text>
    </g>
    <g id="line2d_35">
     <path d="M 299.9325 231.73625 
L 307.9325 231.73625 
L 315.9325 231.73625 
" style="fill: none; stroke: #ff7f0e; stroke-opacity: 0.8; stroke-linecap: square"/>
    </g>
    <g id="text_21">
     <text style="font-size: 8px; font-family: 'DejaVu Sans', 'Bitstream Vera Sans', 'Computer Modern Sans Serif', 'Lucida Grande', 'Verdana', 'Geneva', 'Lucid', 'Arial', 'Helvetica', 'Avant Garde', sans-serif; text-anchor: start" x="322.3325" y="234.53625" transform="rotate(-0 322.3325 234.53625)">Current [mA]</text>
    </g>
   </g>
  </g>
  <g id="axes_2">
   <g id="matplotlib.axis_3">
    <g id="ytick_9">
     <g id="line2d_36">
      <path d="M 51.5 217.894179 
L 381.625 217.894179 
" clip-path="url(#p04ae868ef6)" style="fill: none; stroke: #b0b0b0; stroke-opacity: 0.25; stroke-width: 0.8; stroke-linecap: square"/>
     </g>
     <g id="line2d_37">
      <defs>
       <path id="mb627c5e87f" d="M 0 0 
L 3.5 0 
" style="stroke: #000000; stroke-width: 0.8"/>
      </defs>
      <g>
       <use xlink:href="#mb627c5e87f" x="381.625" y="217.894179" style="stroke: #000000; stroke-width: 0.8"/>
      </g>
     </g>
     <g id="text_22">
      <text style="font-size: 10px; font-family: 'DejaVu Sans', 'Bitstream Vera Sans', 'Computer Modern Sans Serif', 'Lucida Grande', 'Verdana', 'Geneva', 'Lucid', 'Arial', 'Helvetica', 'Avant Garde', sans-serif; text-anchor: start; fill: #ff7f0e" x="388.625" y="221.693397" transform="rotate(-0 388.625 221.693397)">−4</text>
     </g>
    </g>
    <g id="ytick_10">
     <g id="line2d_38">
      <path d="M 51.5 176.2558 
L 381.625 176.2558 
" clip-path="url(#p04ae868ef6)" style="fill: none; stroke: #b0b0b0; stroke-opacity: 0.25; stroke-width: 0.8; stroke-linecap: square"/>
     </g>
     <g id="line2d_39">
      <g>
       <use xlink:href="#mb627c5e87f" x="381.625" y="176.2558" style="stroke: #000000; stroke-width: 0.8"/>
      </g>
     </g>
     <g id="text_23">
      <text style="font-size: 10px; font-family: 'DejaVu Sans', 'Bitstream Vera Sans', 'Computer Modern Sans Serif', 'Lucida Grande', 'Verdana', 'Geneva', 'Lucid', 'Arial', 'Helvetica', 'Avant Garde', sans-serif; text-anchor: start; fill: #ff7f0e" x="388.625" y="180.055019" transform="rotate(-0 388.625 180.055019)">−2</text>
     </g>
    </g>
    <g id="ytick_11">
     <g id="line2d_40">
      <path d="M 51.5 134.617421 
L 381.625 134.617421 
" clip-path="url(#p04ae868ef6)" style="fill: none; stroke: #b0b0b0; stroke-opacity: 0.25; stroke-width: 0.8; stroke-linecap: square"/>
     </g>
     <g id="line2d_41">
      <g>
       <use xlink:href="#mb627c5e87f" x="381.625" y="134.617421" style="stroke: #000000; stroke-width: 0.8"/>
      </g>
     </g>
     <g id="text_24">
      <text style="font-size: 10px; font-family: 'DejaVu Sans', 'Bitstream Vera Sans', 'Computer Modern Sans Serif', 'Lucida Grande', 'Verdana', 'Geneva', 'Lucid', 'Arial', 'Helvetica', 'Avant Garde', sans-serif; text-anchor: start; fill: #ff7f0e" x="388.625" y="138.41664" transform="rotate(-0 388.625 138.41664)">0</text>
     </g>
    </g>
    <g id="ytick_12">
     <g id="line2d_42">
      <path d="M 51.5 92.979043 
L 381.625 92.979043 
" clip-path="url(#p04ae868ef6)" style="fill: none; stroke: #b0b0b0; stroke-opacity: 0.25; stroke-width: 0.8; stroke-linecap: square"/>
     </g>
     <g id="line2d_43">
      <g>
       <use xlink:href="#mb627c5e87f" x="381.625" y="92.979043" style="stroke: #000000; stroke-width: 0.8"/>
      </g>
     </g>
     <g id="text_25">
      <text style="font-size: 10px; font-family: 'DejaVu Sans', 'Bitstream Vera Sans', 'Computer Modern Sans Serif', 'Lucida Grande', 'Verdana', 'Geneva', 'Lucid', 'Arial', 'Helvetica', 'Avant Garde', sans-serif; text-anchor: start; fill: #ff7f0e" x="388.625" y="96.778261" transform="rotate(-0 388.625 96.778261)">2</text>
     </g>
    </g>
    <g id="ytick_13">
     <g id="line2d_44">
      <path d="M 51.5 51.340664 
L 381.625 51.340664 
" clip-path="url(#p04ae868ef6)" style="fill: none; stroke: #b0b0b0; stroke-opacity: 0.25; stroke-width: 0.8; stroke-linecap: square"/>
     </g>
     <g id="line2d_45">
      <g>
       <use xlink:href="#mb627c5e87f" x="381.625" y="51.340664" style="stroke: #000000; stroke-width: 0.8"/>
      </g>
     </g>
     <g id="text_26">
      <text style="font-size: 10px; font-family: 'DejaVu Sans', 'Bitstream Vera Sans', 'Computer Modern Sans Serif', 'Lucida Grande', 'Verdana', 'Geneva', 'Lucid', 'Arial', 'Helvetica', 'Avant Garde', sans-serif; text-anchor: start; fill: #ff7f0e" x="388.625" y="55.139883" transform="rotate(-0 388.625 55.139883)">4</text>
     </g>
    </g>
    <g id="text_27">
     <text style="font-size: 14px; font-family: 'DejaVu Sans', 'Bitstream Vera Sans', 'Computer Modern Sans Serif', 'Lucida Grande', 'Verdana', 'Geneva', 'Lucid', 'Arial', 'Helvetica', 'Avant Garde', sans-serif; text-anchor: middle; fill: #ff7f0e" x="418.005" y="134.6" transform="rotate(-90 418.005 134.6)">Current [mA]</text>
    </g>
   </g>
   <g id="line2d_46">
    <path d="M 66.505682 134.617421 
L 75.201928 134.617421 
L 75.286503 129.666826 
L 75.310659 129.668731 
L 78.885783 129.670637 
L 78.897861 129.613882 
L 78.909939 129.760213 
L 78.994486 129.669224 
L 79.924501 129.684222 
L 79.936579 129.731318 
L 79.948658 129.636962 
L 80.033204 129.686834 
L 80.093595 129.619845 
L 80.153986 129.669487 
L 80.238532 129.687803 
L 80.250611 129.658218 
L 80.347236 129.621192 
L 80.323079 129.679409 
L 80.359314 129.66658 
L 80.528407 129.667746 
L 80.564642 129.620206 
L 80.63711 129.707466 
L 80.721657 129.606786 
L 80.757892 129.641709 
L 80.890751 129.683762 
L 80.96322 129.661504 
L 80.975298 129.602482 
L 81.011532 129.694965 
L 81.071923 129.644896 
L 81.192704 129.686604 
L 81.337641 129.686095 
L 81.34972 129.750981 
L 81.361798 129.656116 
L 81.446345 129.667302 
L 81.494657 129.636814 
L 81.579204 129.730464 
L 81.687907 129.630884 
L 81.699985 129.658727 
L 81.712063 129.704887 
L 81.808688 129.667943 
L 82.750782 129.670078 
L 83.753266 129.661126 
L 83.958594 129.667023 
L 90.040075 129.670292 
L 90.136702 139.559633 
L 90.148781 139.558187 
L 91.090874 139.558105 
L 92.987139 139.554705 
L 93.083764 139.590401 
L 93.095842 139.551633 
L 93.119998 139.586507 
L 93.252858 139.531592 
L 93.277014 139.611181 
L 93.373639 139.559535 
L 94.46067 139.55804 
L 95.852733 139.557678 
L 95.949365 129.666563 
L 95.961443 129.668698 
L 107.544361 129.668731 
L 108.0566 129.670013 
L 108.068681 139.558615 
L 108.165306 139.558516 
L 109.675071 139.558713 
L 111.196915 139.558187 
L 112.972398 139.558434 
L 115.073992 139.558056 
L 120.500377 139.559353 
L 120.597009 129.669191 
L 120.609087 129.669931 
L 121.635727 129.668485 
L 123.495758 129.668994 
L 133.893404 129.668255 
L 133.929641 139.559403 
L 134.00211 139.558122 
L 136.200328 139.557629 
L 142.046139 139.558647 
L 142.662123 139.558319 
L 145.560872 139.558532 
L 146.34595 139.558237 
L 147.147378 139.557826 
L 147.244009 129.66883 
L 147.256087 129.669191 
L 149.16443 129.669963 
L 150.746664 129.669274 
L 156.930662 129.668764 
L 157.582881 129.669339 
L 160.508495 129.667976 
L 160.556811 139.559485 
L 160.617201 139.55937 
L 161.402279 139.557366 
L 161.897482 139.560208 
L 162.839576 139.557859 
L 166.233528 139.557793 
L 171.596213 139.558023 
L 172.320901 139.559223 
L 173.906224 139.558894 
L 173.918308 129.667023 
L 174.014933 129.668436 
L 187.351339 129.67016 
L 187.447967 139.559961 
L 187.460045 139.558647 
L 188.462529 139.55661 
L 189.054357 139.558664 
L 200.819496 139.560619 
L 200.904049 129.666399 
L 200.928206 129.668682 
L 201.532112 129.669684 
L 203.500845 129.670078 
L 204.334236 129.670982 
L 210.445765 129.671902 
L 210.759796 129.671064 
L 210.953046 129.670308 
L 211.218765 129.68414 
L 211.37578 129.669438 
L 214.3185 129.670128 
L 214.342659 139.560832 
L 214.427206 139.558532 
L 226.130905 139.559124 
L 227.81475 139.559272 
L 227.838912 129.668583 
L 227.923459 129.670965 
L 229.409068 129.669126 
L 230.314927 129.66998 
L 232.646005 129.668501 
L 233.588098 129.669914 
L 234.916691 129.669208 
L 235.907097 129.669881 
L 241.335819 129.669503 
L 241.384135 139.559863 
L 241.444525 139.557596 
L 242.193369 139.558302 
L 243.401181 139.558499 
L 243.980931 139.559436 
L 244.971337 139.558385 
L 246.324086 139.559518 
L 247.314492 139.558269 
L 249.138288 139.559091 
L 252.024959 139.558894 
L 253.208615 139.558565 
L 254.645912 139.557596 
L 254.838622 139.558664 
L 254.874863 129.668698 
L 254.947332 129.670062 
L 256.215535 129.669191 
L 259.380002 129.671311 
L 259.935596 129.668764 
L 266.663109 129.669142 
L 267.955468 129.672608 
L 268.362427 129.669914 
L 268.42282 139.55942 
L 268.471132 139.558499 
L 272.239506 139.558647 
L 272.589772 139.558532 
L 273.954599 139.559206 
L 275.17449 139.558466 
L 280.464707 139.559978 
L 280.694191 139.551173 
L 280.82705 139.558286 
L 281.861144 139.583912 
L 281.921541 129.668781 
L 281.969854 129.675483 
L 282.57376 129.669159 
L 283.032729 129.670029 
L 284.856525 129.668567 
L 286.209274 129.670275 
L 286.740712 129.669619 
L 291.040523 129.670177 
L 293.31121 129.669602 
L 295.378149 129.671557 
L 295.426464 139.560307 
L 295.486855 139.560158 
L 296.658433 139.559535 
L 297.76962 139.558483 
L 300.607978 139.560109 
L 301.163572 139.558187 
L 301.441368 139.559305 
L 305.064805 139.5573 
L 305.306367 139.560208 
L 306.38132 139.556151 
L 306.562492 139.558319 
L 308.350054 139.557087 
L 308.866654 139.55891 
L 308.927051 129.668468 
L 308.975363 129.67039 
L 322.37171 129.668616 
L 322.38379 139.561358 
L 322.480415 139.558466 
L 323.060165 139.561999 
L 323.325884 139.554688 
L 323.651993 139.559617 
L 324.171352 139.559173 
L 324.642399 139.561916 
L 325.173836 139.554656 
L 326.429961 139.560191 
L 326.707758 139.555313 
L 327.14257 139.559321 
L 328.869741 139.558927 
L 329.340788 139.563083 
L 329.618585 139.557908 
L 330.186257 139.561259 
L 330.802241 139.558598 
L 331.055881 139.556233 
L 335.846627 139.552799 
L 335.846637 81.347443 
L 335.95534 85.152517 
L 336.076121 85.153172 
L 335.963392 85.137733 
L 336.080147 85.144466 
L 336.36197 85.153661 
L 336.414308 85.123448 
L 336.370022 85.15941 
L 336.474699 85.150379 
L 336.583402 85.158096 
L 336.587428 84.409923 
L 336.651845 85.185193 
L 336.692105 85.135925 
L 336.804834 85.149231 
L 336.921589 85.133137 
L 337.014061 85.153991 
L 337.042246 184.052902 
L 337.122767 184.035166 
L 337.287835 184.04075 
L 337.336147 184.024657 
L 337.340173 183.509016 
L 337.408616 184.363273 
L 337.44485 183.978675 
L 337.513293 184.412701 
L 337.549527 183.883924 
L 337.553553 183.976707 
L 337.557579 183.972601 
L 337.561605 184.104303 
L 337.569658 184.021865 
L 337.59784 184.269995 
L 337.642126 183.805426 
L 337.678361 184.090018 
L 337.77096 183.73465 
L 337.762907 184.292327 
L 337.779012 184.175409 
L 337.783038 184.39989 
L 337.871611 183.868655 
L 337.883689 184.102331 
L 337.996418 183.627582 
L 337.911871 184.250456 
L 338.000444 183.96406 
L 338.016548 184.311547 
L 338.020574 183.908883 
L 338.109147 184.118099 
L 338.117199 183.846972 
L 338.121225 184.287077 
L 338.132938 183.963895 
L 338.233596 85.131494 
L 338.241648 85.14529 
L 338.781137 85.144466 
L 338.785163 85.069419 
L 338.797242 85.16894 
L 338.88984 85.151858 
L 338.897893 85.126899 
L 338.998544 85.163681 
L 339.071012 85.188974 
L 339.119325 85.142003 
L 339.264262 85.146933 
L 339.264824 85.149555 
L 339.284957 184.170644 
L 339.37353 184.04502 
L 339.506389 184.032703 
L 339.611067 184.044366 
L 339.619119 184.034017 
L 340.385321 184.039931 
L 340.445718 85.127388 
L 340.49403 85.145125 
L 340.602733 85.1402 
L 340.502082 85.156293 
L 340.606759 85.145615 
L 340.791957 85.147587 
L 340.795983 85.141349 
L 340.812088 85.151693 
L 340.916765 85.142827 
L 341.30729 85.147917 
L 341.42002 85.13084 
L 341.428072 85.151039 
L 341.508592 85.143157 
L 341.436124 85.163026 
L 341.508597 85.148571 
L 341.589121 184.05011 
L 341.617303 184.029087 
L 341.72198 184.04584 
L 341.734058 184.038942 
L 341.939386 184.036155 
L 342.052116 184.0552 
L 341.947439 184.030076 
L 342.060168 184.048797 
L 342.209131 184.029582 
L 342.329912 184.048797 
L 342.422511 184.018418 
L 342.446668 184.040096 
L 342.595631 184.049785 
L 342.458746 184.020226 
L 342.599657 184.043707 
L 342.622457 184.026625 
L 342.62649 85.138557 
L 342.731167 85.144306 
L 342.83987 85.159085 
L 342.847922 85.14545 
L 343.20624 85.147587 
L 343.214292 85.153661 
L 343.331047 85.140525 
L 343.443776 85.164175 
L 343.451828 85.153661 
L 343.564557 85.138062 
L 343.568583 85.143482 
L 343.580661 85.132478 
L 343.689364 85.150544 
L 343.729625 85.133462 
L 343.697417 85.157112 
L 343.738838 85.142498 
L 343.758971 184.071787 
L 343.847544 184.046659 
L 343.964299 184.025641 
L 344.068976 184.066533 
L 344.081054 184.033852 
L 344.209888 184.028108 
L 344.213914 184.033193 
L 344.326643 184.042718 
L 344.395085 184.01694 
L 344.399112 184.082626 
L 344.439372 184.024492 
L 344.632622 184.070634 
L 344.636648 184.024981 
L 344.640674 183.971782 
L 344.725221 184.063411 
L 344.745351 184.03139 
L 344.83795 184.056024 
L 344.801716 183.987381 
L 344.846518 184.032539 
L 344.894837 85.116385 
L 344.955228 85.147258 
L 345.035748 85.177146 
L 344.971332 85.115726 
L 345.076009 85.148242 
L 345.17666 85.135765 
L 345.088087 85.155469 
L 345.188738 85.141349 
L 345.518873 85.148736 
L 345.647707 85.131005 
L 345.651733 85.139706 
L 345.764462 85.144306 
L 345.667837 85.132478 
L 345.768488 85.1402 
L 345.956576 85.138557 
L 346.020996 184.050275 
L 346.065282 184.039601 
L 346.355157 184.04026 
L 346.48399 184.035166 
L 346.588668 184.047483 
L 346.604772 184.031884 
L 346.753735 184.047812 
L 346.761787 184.029582 
L 347.058357 184.038287 
L 347.094597 85.141838 
L 347.167066 85.142168 
L 347.295899 85.155634 
L 347.299926 85.142498 
L 347.412655 85.14069 
L 347.312004 85.14972 
L 347.416681 85.148571 
L 347.537462 85.148736 
L 347.428759 85.137243 
L 347.541488 85.144466 
L 347.698504 85.137403 
L 347.70253 85.142003 
L 347.835389 85.161218 
L 347.952144 85.136914 
L 348.162459 85.14069 
L 348.242982 184.051094 
L 348.271165 184.043212 
L 348.371816 184.029257 
L 348.38792 184.038287 
L 348.532857 184.041404 
L 348.64156 184.035331 
L 348.649612 184.044691 
L 348.806628 184.028108 
L 348.81468 184.038942 
L 348.951566 184.053067 
L 349.072347 184.03057 
L 349.18105 184.042883 
L 349.185076 184.033193 
L 349.249492 184.054381 
L 349.193128 184.025806 
L 349.258587 184.035495 
L 349.310931 85.137898 
L 349.367296 85.146439 
L 349.375348 85.136749 
L 349.488077 85.152842 
L 349.572624 85.131329 
L 349.604832 85.150379 
L 350.120166 85.153007 
L 350.224843 85.136094 
L 350.232895 85.150709 
L 350.353676 85.141019 
L 350.356984 85.148571 
L 350.437508 184.045185 
L 350.46569 184.025311 
L 350.590497 184.046004 
L 350.707252 184.028927 
L 350.840112 184.04568 
L 350.956867 184.032539 
L 351.190377 184.038452 
L 351.315185 184.032703 
L 351.447716 184.030406 
L 351.524217 85.131169 
L 351.556425 85.143157 
L 351.983186 85.147917 
L 352.124097 85.147917 
L 352.269034 85.138392 
L 352.538779 85.152517 
L 352.540654 85.143317 
L 352.625204 184.051094 
L 352.64936 184.046004 
L 352.770142 184.028598 
L 352.78222 184.040915 
L 352.931183 184.049785 
L 353.047938 184.022029 
L 353.172746 184.043377 
L 353.261318 184.021205 
L 353.233136 184.057173 
L 353.285475 184.036479 
L 353.478725 184.042393 
L 353.563272 184.019567 
L 353.591454 184.028108 
L 353.626303 184.041734 
L 353.66657 85.132643 
L 353.735013 85.152347 
L 353.936315 85.14496 
L 354.049044 85.157112 
L 353.944367 85.134781 
L 354.05307 85.151528 
L 354.061122 85.156783 
L 354.161773 85.134781 
L 354.274502 85.155469 
L 354.431518 85.138227 
L 354.568403 85.143811 
L 354.713864 85.156623 
L 354.774257 184.05487 
L 354.822569 184.036644 
L 354.951403 184.046499 
L 354.959455 184.039436 
L 355.064132 184.034347 
L 354.971533 184.044201 
L 355.072184 184.04042 
L 355.196991 184.038287 
L 355.225173 184.020876 
L 355.313746 184.042718 
L 355.547257 184.040915 
L 355.65596 184.029087 
L 355.555309 184.047318 
L 355.668038 184.04042 
L 355.794495 184.04551 
L 355.899178 85.134781 
L 355.903204 85.148571 
L 356.06022 85.147098 
L 356.172949 85.139216 
L 356.068272 85.158756 
L 356.176975 85.145779 
L 356.185027 85.1402 
L 356.29373 85.158591 
L 356.426589 85.131005 
L 356.430615 85.141509 
L 356.531266 85.150215 
L 356.547371 85.142992 
L 356.876818 85.141509 
L 356.925133 184.052413 
L 356.985524 184.028598 
L 357.178774 184.052737 
L 357.186826 184.04026 
L 357.267347 184.01661 
L 357.219034 184.052413 
L 357.303581 184.033193 
L 357.424362 184.044691 
L 357.593456 184.033033 
L 357.673977 184.060949 
L 357.706185 184.042393 
L 357.830992 184.03139 
L 357.947747 184.050275 
L 357.951773 184.034182 
L 357.952553 184.041574 
L 357.978728 35.690909 
L 358.063275 35.706673 
L 358.184056 35.729668 
L 358.413996 35.716522 
L 358.510624 233.492503 
L 358.524715 233.482653 
L 358.532767 233.466395 
L 358.651535 233.489546 
L 358.844785 233.478873 
L 358.850824 233.472968 
L 358.869391 233.493822 
L 358.941867 35.703551 
L 358.980114 35.71373 
L 359.042518 35.730812 
L 359.00427 35.706508 
L 359.092843 35.722436 
L 359.209598 35.705849 
L 359.300184 35.72868 
L 359.32434 35.717347 
L 359.32513 35.721283 
L 359.333185 233.496943 
L 359.435849 233.46689 
L 359.508318 233.502692 
L 359.474097 233.451941 
L 359.552604 233.488887 
L 359.659294 233.467055 
L 359.564683 233.50531 
L 359.673386 233.481335 
L 359.753906 233.499726 
L 359.681438 233.461635 
L 359.776613 233.487743 
L 359.81688 35.704705 
L 359.887335 35.711927 
L 359.996039 35.727361 
L 359.905453 35.705189 
L 360.004091 35.716193 
L 360.114807 35.703386 
L 360.016169 35.723745 
L 360.118833 35.720303 
L 360.225523 35.711433 
L 360.227463 35.713905 
L 360.334155 233.493977 
L 360.338182 233.473288 
L 360.446885 233.499726 
L 360.450911 233.477399 
L 360.577731 233.470002 
L 360.45695 233.483962 
L 360.585783 233.490535 
L 360.67033 233.486754 
L 360.599874 233.477554 
L 360.673506 233.484786 
L 360.681564 35.703716 
L 360.784228 35.717511 
L 360.89897 35.709794 
L 360.79228 35.722116 
L 360.902996 35.719974 
L 361.057999 35.698791 
L 361.060012 35.727032 
L 361.118274 35.71439 
L 361.216915 233.495131 
L 361.228993 233.487578 
L 361.335683 233.466395 
L 361.249123 233.498911 
L 361.341722 233.485765 
L 361.349774 233.480191 
L 361.454452 233.48561 
L 361.545037 233.473288 
L 361.460491 233.492998 
L 361.558017 233.483303 
L 361.644584 35.705693 
L 361.66874 35.719809 
L 361.77543 35.708805 
L 361.694909 35.729494 
L 361.781469 35.709959 
L 361.886146 35.749698 
L 361.888159 36.281597 
L 361.980758 35.704705 
L 361.996862 35.71915 
L 361.997161 35.718006 
L 362.069633 233.492668 
L 362.10788 233.483633 
L 362.43098 233.488402 
L 362.523586 35.70486 
L 362.541703 35.716193 
L 362.662484 35.705034 
L 362.549755 35.726867 
L 362.664497 35.716193 
L 362.777226 35.720139 
L 362.674562 35.707652 
L 362.779239 35.71915 
L 362.864463 35.707167 
L 362.973169 233.494966 
L 362.975182 233.488732 
L 363.079859 233.46721 
L 362.983234 233.492668 
L 363.085898 233.484622 
L 363.283174 233.494307 
L 363.285187 233.481665 
L 363.292396 233.489217 
L 363.362858 35.705189 
L 363.403118 35.719974 
L 363.499743 35.709135 
L 363.515847 35.715863 
L 363.622537 35.701418 
L 363.535978 35.72802 
L 363.632603 35.709135 
L 363.720076 35.724075 
L 363.792547 233.495131 
L 363.830795 233.480676 
L 363.836834 233.488073 
L 363.949563 233.474112 
L 364.064305 233.492503 
L 364.134761 233.47674 
L 364.124696 233.506958 
L 364.142069 233.492833 
L 364.176296 35.706178 
L 364.252791 35.713401 
L 364.375585 35.708156 
L 364.377598 35.717182 
L 364.480262 35.725888 
L 364.383637 35.712751 
L 364.492341 35.71915 
L 364.494354 35.7001 
L 364.49838 35.723086 
L 364.563758 35.716193 
L 364.668438 233.498087 
L 364.674477 233.471156 
L 364.793245 233.491844 
L 364.795258 233.483303 
L 364.932143 233.492174 
L 364.80331 233.474442 
L 364.934156 233.475421 
L 364.979751 233.486425 
L 365.066317 35.702727 
L 365.090473 35.71373 
L 365.179046 35.725888 
L 365.098525 35.70454 
L 365.205215 35.717347 
L 365.395405 35.715378 
L 365.407486 233.499571 
L 365.506124 233.475421 
L 365.634957 233.491185 
L 365.63697 233.483478 
L 365.753725 233.470991 
L 365.653074 233.494151 
L 365.757751 233.479697 
L 365.76379 233.498087 
L 365.781907 233.468199 
L 365.805419 233.474112 
L 365.88192 35.70486 
L 365.916142 35.717511 
L 366.185886 35.711268 
L 366.187899 35.706178 
L 366.195951 35.72326 
L 366.215126 35.719974 
L 366.321819 233.493977 
L 366.325845 233.483303 
L 366.619318 233.478388 
L 366.619318 233.478388 
" clip-path="url(#p04ae868ef6)" style="fill: none; stroke: #ff7f0e; stroke-opacity: 0.8; stroke-linecap: square"/>
   </g>
   <g id="patch_6">
    <path d="M 51.5 243.4 
L 51.5 25.8 
" style="fill: none; stroke: #000000; stroke-width: 0.8; stroke-linejoin: miter; stroke-linecap: square"/>
   </g>
   <g id="patch_7">
    <path d="M 51.5 243.4 
L 381.625 243.4 
" style="fill: none; stroke: #000000; stroke-width: 0.8; stroke-linejoin: miter; stroke-linecap: square"/>
   </g>
  </g>
 </g>
 <defs>
  <clipPath id="p04ae868ef6">
   <rect x="51.5" y="25.8" width="330.125" height="217.6"/>
  </clipPath>
 </defs>
</svg>
